<?xml version="1.0" encoding="UTF-8"?>
<svg id="Layer_1" data-name="Layer 1" xmlns="http://www.w3.org/2000/svg" viewBox="0 0 835 1150">
  <defs>
    <style>
      .cls-1 {
        fill: #2c69b3;
      }
    </style>
  </defs>
  <g>
    <path class="cls-1" d="M547.89,400.28c-25.91.64-66.12,2.01-87.12,4.51-26.43,3.14-52.82,8.58-76.99,18.9-23.71,10.12-44.33,24.98-60.29,43.69-24.54,28.76-37.77,64.48-39.61,100.51-1.95,38.19,1.61,76.47,22.34,110.61,19.23,31.67,51.1,55.62,89.68,66.13,13.02,3.55,26.31,5.41,39.9,6.01,6.87.3,13.76.39,20.63.68l26.15.75h59.57c5.43,0,9.83-4.4,9.83-9.83v-36.37c0-3.62-1.99-6.94-5.17-8.65l-26-13.98c-25.42-14.29-48.16-33.1-69.51-51.85-10.35-9.09-20.38-18.45-30.12-28.07-15.17-15.05-29.53-30.93-41.89-47.94-6.39-8.8-12.36-17.99-16.63-27.8-1.33-3.06-2.39-6.21-3.23-9.41,8.98-34.98,55.46-48.8,89.79-55.55,18.1-3.56,36.54-5.72,55.01-6.97,7.5-.51,29.74-.46,43.91-.44,5.42.01,9.79-4.38,9.79-9.8v-35.3c0-5.52-4.51-9.96-10.03-9.82Z"/>
    <path class="cls-1" d="M592.61,399.49c-5.43,0-9.83,4.4-9.83,9.83v332.91c0,5.43,4.4,9.83,9.83,9.83h232.43c5.43,0,9.83-4.4,9.83-9.83v-30.94c0-5.43-4.4-9.83-9.83-9.83h-162.82c-5.43,0-9.83-4.4-9.83-9.83v-80.75c0-5.43,4.4-9.83,9.83-9.83h125.69c5.43,0,9.83-4.4,9.83-9.83v-30.94c0-5.43-4.4-9.83-9.83-9.83h-125.69c-5.43,0-9.83-4.4-9.83-9.83v-80.75c0-5.43,4.4-9.83,9.83-9.83h162.82c5.43,0,9.83-4.4,9.83-9.83v-30.94c0-5.43-4.4-9.83-9.83-9.83h-232.43Z"/>
  </g>
  <g>
    <path class="cls-1" d="M516.43,923.98c-4.65-19.4-13.29-37.98-25.47-54.56-6.28-8.55-13.49-16.49-21.4-23.87.72.68.36,4.52.1,7.22,0-1.46,0-2.93-.02-4.39,0-.51.28-2.5-.08-2.83-29.63-27.16-68.86-45.14-111.44-47.63-41.33-2.42-82.28,10.02-114.47,33.18-28.43,20.45-50.1,48.42-61.69,79.38-5.12,13.67-8.27,27.9-9.48,42.27-1.4,16.59-1.41,33.71.44,50.28,6.14,55.07,41.56,107.87,98.02,132.37,30.42,13.2,64.77,16.98,98.11,12.93,42.04-5.12,79.33-22.88,105.83-52.81,27.35-30.9,43.72-70.11,45.59-109.5.98-20.64.84-41.77-4.03-62.05ZM482.95,978.81c-.72,6.38-1.95,12.71-3.65,18.94-3.21,11.71-8.14,23.02-14.61,33.59-6.38,10.44-14.13,19.25-24.92,26.3-10.06,6.57-22.62,12.25-35.38,11.88-10.08-.29-19.14-5.65-26.94-10.92-9.94-6.71-18.9-14.57-27.48-22.61-30.14-28.23-58.19-59.55-80.31-93.26-5.35-8.15-10.37-16.57-14.14-25.42-1.45-3.42-2.73-6.92-3.56-10.51-.02-.1-.03-.2-.05-.3.07-.31.1-.63.17-.94,5.22-21.39,25.26-37.66,46.7-46.54,25.44-10.53,56.05-10.79,82.67-3.72,28.38,7.54,52.16,24.12,70.19,44.87,16.98,19.97,27.95,43.61,31.12,68.6.26,2.03.41,4.05.55,6.08-.1,1.32-.2,2.63-.35,3.95Z"/>
    <path class="cls-1" d="M69.74,1089.47v-282.33c0-5.43-4.4-9.83-9.83-9.83H9.96c-5.43,0-9.83,4.4-9.83,9.83v332.91c0,5.43,4.4,9.83,9.83,9.83h205.89c9.12,0,13.32-11.34,6.4-17.28l-36.05-30.94c-1.78-1.53-4.05-2.37-6.4-2.37h-100.23c-5.43,0-9.83-4.4-9.83-9.83Z"/>
    <path class="cls-1" d="M784.28,807.14v214.42c0,9.72-12.6,13.54-18,5.46l-150.43-225.33c-1.82-2.73-4.89-4.37-8.17-4.37h-53.65c-5.43,0-9.82,4.4-9.82,9.83v332.91c0,5.43,4.4,9.83,9.83,9.83h30.94c5.43,0,9.83-4.4,9.83-9.83v-214.45c0-9.72,12.6-13.54,18-5.45l117.99,176.8h.02l32.42,48.56c1.82,2.73,4.89,4.37,8.17,4.37h53.65c5.43,0,9.83-4.4,9.83-9.83v-332.92c0-5.43-4.4-9.83-9.83-9.83h-30.94c-5.43,0-9.83,4.4-9.83,9.83Z"/>
  </g>
  <g>
    <path class="cls-1" d="M9.96.12C4.54.12.14,4.52.14,9.94v332.91c0,5.43,4.4,9.83,9.83,9.83h232.43c5.43,0,9.83-4.4,9.83-9.83v-30.94c0-5.43-4.4-9.83-9.83-9.83H79.57c-5.43,0-9.83-4.4-9.83-9.83v-80.75c0-5.43,4.4-9.83,9.83-9.83h125.69c5.43,0,9.83-4.4,9.83-9.83v-30.94c0-5.43-4.4-9.83-9.83-9.83h-125.69c-5.43,0-9.83-4.4-9.83-9.83V60.53c0-5.43,4.4-9.83,9.83-9.83h162.82c5.43,0,9.83-4.4,9.83-9.83V9.94c0-5.43-4.4-9.83-9.83-9.83H9.96Z"/>
    <path class="cls-1" d="M549.62,1.66h-35.88c-3.16,0-6.12,1.52-7.97,4.08l-77.71,107.68c-4.01,5.56-12.33,5.4-16.14-.29L340.43,6.03c-1.82-2.73-4.89-4.37-8.17-4.37h-53.65c-5.43,0-9.83,4.4-9.83,9.83v7.26c0,1.94.58,3.84,1.65,5.45l102.87,154.15c2.28,3.41,2.19,7.88-.2,11.2l-102.46,142.04c-1.21,1.67-1.86,3.68-1.86,5.75v7.07c0,5.43,4.4,9.83,9.83,9.83h35.87c3.16,0,6.12-1.52,7.97-4.08l35.27-48.86h.02l42.43-58.81c4.01-5.56,12.34-5.41,16.14.29l39.05,58.52h.02l32.42,48.56c1.82,2.73,4.89,4.37,8.17,4.37h53.65c5.43,0,9.83-4.4,9.83-9.83v-7.26c0-1.94-.58-3.84-1.65-5.45l-102.87-154.17c-2.28-3.41-2.19-7.88.2-11.2l102.46-142.02c1.21-1.67,1.86-3.69,1.86-5.75v-7.07c0-5.43-4.4-9.83-9.83-9.83Z"/>
  </g>
</svg>