<?xml version="1.0" encoding="UTF-8"?>
<svg id="Layer_1" data-name="Layer 1" xmlns="http://www.w3.org/2000/svg" viewBox="0 0 352.3 165.34">
  <defs>
    <style>
      .cls-1 {
        fill: #bb0708;
      }

      .cls-2 {
        fill: #bf7f22;
      }

      .cls-3 {
        fill: #922103;
      }

      .cls-4 {
        fill: #601e00;
      }
    </style>
  </defs>
  <path class="cls-2" d="M47.95,140.58c-.56.38-1.33.23-1.71-.33-.14-.2-.21-.44-.21-.69l-.23-113.98c0-.65.52-1.18,1.17-1.18,0,0,0,0,0,0h2.14c.19,0,.34-.15.34-.33,0,0,0-.02,0-.02-.07-.99.17-1.9.72-2.72.12-.18.33-.29.56-.29,5.09.07,88.67.07,250.72,0,.99,0,1.55.43,1.67,1.3.15,1.06.23,1.63.23,1.71-.01.21.14.39.35.4,0,0,.01,0,.02,0l1.78.02c.56,0,1,.46,1,1.01,0,53.54,0,91.27,0,113.18,0,1.06-.46,1.78-1.38,2.15-.11.05-.23.07-.35.07h-1.17c-.21,0-.38.17-.38.38v2.01c0,.15-.08.29-.2.37-.19.12-.43.19-.73.21-.17,0-.32.14-.35.31-.01.07-.05.12-.13.16-.02.02-.05.02-.08.02H51.22c-.93,0-1.68-.76-1.68-1.69v-1.42c0-.33-.25-.6-.58-.63-.6-.05-.93-.05-1.01,0ZM301.43,23.25c0-.31-.25-.56-.56-.56H51.74c-.31,0-.56.25-.56.56v.64c0,.31.25.56.56.56h249.13c.31,0,.56-.25.56-.56v-.64ZM301.65,25.84c0-.11-.09-.19-.19-.19H51.25c-.11,0-.19.09-.19.19h0v113.24c0,.11.09.19.19.19h250.21c.11,0,.19-.09.19-.19V25.84ZM304.88,25.97c0-.19-.15-.34-.34-.34h-1.08c-.19,0-.34.15-.34.34v112.95c0,.19.15.34.34.34h1.08c.19,0,.34-.15.34-.34V25.97ZM49.47,25.93c0-.12-.1-.23-.23-.23h-1.31c-.12,0-.23.1-.23.23h0v112.92c0,.12.1.23.23.23h1.31c.12,0,.23-.1.23-.23V25.93ZM301.55,141.12c0-.14-.12-.26-.26-.26H51.48c-.14,0-.26.12-.26.26v1.21c0,.14.12.26.26.26h249.81c.14,0,.26-.12.26-.26h0v-1.21Z"/>
  <path class="cls-3" d="M282.76,91.93v.36c0,.11-.09.2-.19.2-.01,0-.03,0-.04,0-.05-.01-.11-.03-.18-.05.21-.04.35-.21.41-.5Z"/>
  <path class="cls-3" d="M161.44,100.77c1.71,0,3.23.49,4.55,1.47.15.12.29.25.42.4.37.46.92,1.61,1.64,3.45.01.03,0,.01,0,.07,0,.05.01.03,0,.06-.73,1.84-1.27,2.99-1.64,3.45-.12.15-.27.28-.42.4-1.33.98-2.84,1.47-4.55,1.47s-3.22-.49-4.55-1.47c-.15-.12-.29-.25-.42-.4-.37-.46-.92-1.61-1.64-3.45-.01-.03,0-.01,0-.06,0-.06,0-.04,0-.07.73-1.84,1.27-2.99,1.64-3.45.12-.15.26-.28.42-.4,1.33-.98,2.84-1.47,4.55-1.47ZM161.43,109.76c1.65,0,4.76-1.06,3.86-3.47-.07-.18-.06-.38.02-.56.21-.44.23-.85.06-1.23-.75-1.63-2.19-1.84-3.93-1.85-1.75,0-3.19.21-3.94,1.84-.17.37-.15.78.06,1.23.08.17.09.37.02.56-.9,2.41,2.2,3.47,3.86,3.47Z"/>
  <path class="cls-3" d="M212.01,110.92c.03.13-.06.25-.18.27-.01,0-.03,0-.05,0h-1c-.12,0-.21-.09-.21-.21v-2.89c0-.4.32-.73.73-.73.09,0,.18.02.26.05.57.22,1.09.56,1.55,1.02.19.19.41.33.66.42,2.39.89,4.84,1.44,7.1.38.46-.22.65-.77.44-1.23-.11-.24-.33-.42-.59-.49l-2.05-.54c-.17-.04-.35-.03-.5.05-.1.05-.65.23-1.67.54-.34.1-.59.09-.76-.03-.16-.12-.26-.23-.32-.35-.07-.18-.24-.3-.43-.32-.73-.08-1.35-.15-1.86-.23-1.97-.3-3.1-2.42-2.09-4.18.35-.61.81-1.01,1.36-1.18,2.31-.73,4.66-.72,7.04.04.14.04.26.12.36.22.32.34.79.49,1.41.46.18,0,.32-.15.32-.34,0-.4.02-.62.07-.66.28-.27.73-.25,1,.05.11.12.18.27.19.43.02.14.02,1.05.01,2.72,0,.18-.13.33-.31.36-1.39.21-1.79-.98-2.79-1.41-1.68-.72-3.36-1.01-5.02-.87-.2.02-.39.07-.57.16-.58.28-.95.47-1.11.57-.36.23-.49.68-.33,1.08.08.19.26.3.53.35.03,0,.22.07.56.19,1.25.43,2.36.35,3.33-.25.21-.13.48-.09.64.1,0,0,.03.06.08.16.11.22.32.36.56.38,1.54.14,3.05.42,4.2,1.48.14.13.25.28.34.46.71,1.37.46,2.64-.75,3.81-.13.13-.29.22-.46.27-3.31,1-6.38.61-9.21-1.18-.15-.1-.35-.05-.45.1-.02.04-.04.08-.05.12-.04.26-.03.54.02.84Z"/>
  <path class="cls-3" d="M225.09,105.89c.13-.11.22-.17.26-.19.11-.05.18-.15.2-.27.3-1.55.94-2.66,1.9-3.33,1.98-1.38,4.2-1.68,6.66-.89.94.3,1.45.28,2.19-.23.27-.19.63-.13.82.14.07.1.11.22.11.35v3.37c0,.13-.1.24-.23.24h-1.07c-.16,0-.29-.11-.32-.27-.49-2.68-4.73-2.4-6.43-1.72-1.23.49-1.66,1.4-1.29,2.73.06.21.05.44-.03.65-.19.52-.16,1.1.11,1.71.07.16.18.3.32.39,2.21,1.49,4.41,1.56,6.6.23.19-.12.34-.3.41-.51.24-.73.83-1.03,1.77-.93.18.02.3.18.28.36,0,.01,0,.02,0,.03-.86,3.84-5.26,4.3-8.35,3.29-2.05-.67-3.18-2.05-3.4-4.15-.02-.2-.12-.38-.27-.51l-.25-.21c-.08-.06-.09-.18-.03-.25,0-.01.02-.02.03-.03Z"/>
  <path class="cls-3" d="M239.1,106.16c0-.06-.01-.04,0-.07.72-1.85,1.27-3,1.64-3.46.12-.15.26-.29.42-.4,1.33-.98,2.84-1.47,4.55-1.48,1.71,0,3.23.48,4.55,1.45.16.11.3.25.42.4.37.46.92,1.61,1.65,3.45.01.03,0,.01,0,.07,0,.05.01.02,0,.06-.72,1.85-1.27,3-1.64,3.46-.12.15-.26.28-.42.4-1.33.98-2.84,1.48-4.55,1.48-1.71,0-3.23-.48-4.55-1.46-.16-.11-.3-.25-.42-.4-.37-.46-.92-1.61-1.65-3.45-.01-.03,0,0,0-.05ZM249.74,106.33c-.04-.23-.17-.3-.39-.23.63-.42.75-1,.35-1.74-1.41-2.59-8.78-2.52-7.86,1.39.06.25.06.51.01.76-.24,1.16.05,1.96.87,2.39,2.02,1.06,4.04,1.04,6.06-.06.14-.07.26-.17.38-.28.71-.71.91-1.46.59-2.24Z"/>
  <path class="cls-3" d="M274.79,106.06c0,.09,0,.15-.01.18-.27.79-.36,1.73-.29,2.84.01.19.17.33.35.33h1.68c.43,0,.8.3.89.72l.05.23c.09.4-.17.8-.57.89-.05.01-.1.02-.16.02h-6.32c-.41,0-.73-.33-.73-.73h0v-.24c0-.48.39-.87.87-.87h1.68c.2,0,.37-.14.4-.34.19-1.2-.02-2.2-.62-3,0,0,0,0,0-.01s0,0,0-.01c.6-.8.81-1.8.61-3-.03-.2-.2-.34-.4-.34h-1.68c-.48,0-.87-.38-.87-.86h0v-.24c0-.41.32-.74.73-.74,0,0,0,0,0,0l6.32-.02c.41,0,.74.33.74.75,0,.05,0,.1-.02.15l-.05.24c-.09.42-.46.71-.89.72h-1.68c-.19,0-.34.15-.35.34-.07,1.11.03,2.05.3,2.84,0,.03.01.09.01.18Z"/>
  <path class="cls-3" d="M67.17,110.24c-.03.14-.03.25.03.33.13.17.07.42-.13.55-.07.05-.16.07-.24.08-2.23.07-4.56.08-7.01.02-.15,0-.27-.12-.27-.27v-1.19c0-.16.13-.3.3-.3h2.37c.18,0,.33-.14.35-.32.1-.88-.04-1.72-.43-2.52-.03-.06-.04-.12-.03-.19l.18-3.29c0-.21-.16-.39-.37-.4,0,0-.01,0-.02,0h-1.69c-.36,0-.65-.29-.65-.65h0v-.54c0-.33.26-.6.6-.61,3.93-.14,7.16-.13,9.7.02,2.06.12,3.3,1.12,3.73,2.98.04.17.04.34.02.51-.34,2.09-1.61,3.18-3.81,3.25-1.54.05-3.19.05-4.93,0-.28,0-.51.21-.51.49,0,0,0,0,0,.01v.82c0,.26.2.46.46.47.02,0,.03,0,.05,0,.99-.1,1.7-.01,2.13.26.17.1.25.31.2.5ZM64.33,103.17v2.22c0,.23.18.41.41.41h5.23c.9-.01,1.64-.65,1.64-1.43v-.2c0-.79-.73-1.42-1.64-1.42h-5.23c-.23.01-.41.2-.41.42h0Z"/>
  <path class="cls-3" d="M83.58,109.77c.88,0,1.89-.31,3.02-.92.18-.1.33-.25.42-.45.29-.61.31-1.34.05-2.17-.06-.18-.05-.37.02-.54.21-.54.29-1.42.25-2.64,0-.17-.15-.31-.32-.31h-1.91c-.28,0-.51-.23-.51-.51v-.8c0-.32.26-.58.58-.58h6.31c.34,0,.61.27.61.61h0v.73c0,.31-.25.56-.56.56h-1.85c-.2,0-.37.16-.38.36-.07,1.43.04,2.33.32,2.7.04.06.06.14.03.21l-.99,3.27c-.05.17-.15.31-.29.42l-1.47,1.15c-.15.11-.32.2-.5.25-.94.26-1.88.39-2.82.39s-1.88-.13-2.82-.39c-.18-.05-.35-.13-.5-.25l-1.47-1.14c-.14-.1-.24-.25-.3-.42l-.99-3.27c-.02-.07,0-.15.03-.21.28-.37.38-1.27.31-2.7,0-.2-.18-.36-.38-.36h-1.85c-.31,0-.56-.25-.56-.56h0v-.73c0-.34.27-.61.6-.61,0,0,0,0,0,0h6.31c.32,0,.58.25.58.57v.8c0,.28-.23.51-.51.51h-1.91c-.17,0-.32.14-.32.32-.04,1.23.05,2.11.25,2.64.07.17.07.36.02.54-.26.83-.24,1.56.05,2.17.09.19.24.35.42.45,1.14.61,2.15.91,3.03.91Z"/>
  <path class="cls-3" d="M96.28,105.9c.41-.45.53-1.39.38-2.83-.02-.19-.19-.33-.38-.34h-1.42c-.52,0-.94-.42-.94-.95h0v-.17c0-.42.33-.75.74-.76,2.06-.04,4.94-.03,8.66.04,1.12.02,1.91.12,2.36.29,1.16.44,1.83,1.06,2,1.87.42,1.96-.32,3.24-2.23,3.83-.31.1-.48.42-.38.73.02.08.06.15.12.21l1.58,1.79c.11.12.25.21.41.25.74.19,1.23-.06,1.45-.75.13-.41.57-.67.98-.58.33.07.54.34.53.68-.07,2.67-2.86,2.87-4.82,1.73-.25-.15-.93-1-2.04-2.56-.21-.29-.48-.53-.79-.7-.97-.52-2.11-.73-3.42-.63-.28.02-.5.26-.5.54v1.54c0,.17.14.31.31.31h2.26c.19,0,.34.15.34.34h0v1.15c0,.17-.14.31-.31.31h-6.87c-.2,0-.37-.16-.37-.36h0v-.82c0-.34.27-.61.61-.61h1.81c.19,0,.36-.15.37-.34.12-1.45-.02-2.42-.42-2.9-.07-.09-.07-.22.01-.31ZM98.67,103.26v1.48c0,.29.24.53.53.53h5.11c.81.01,1.48-.5,1.48-1.13h0v-.26c0-.63-.66-1.14-1.48-1.14h-5.11c-.29-.01-.53.22-.53.51Z"/>
  <path class="cls-3" d="M122.02,106.06c-.02.62-.04,1.18-.06,1.68,0,.21-.16.39-.36.43l-.34.08c-.16.04-.32-.07-.35-.22,0-.02,0-.04,0-.06,0-.18-.11-.46-.32-.84-.07-.14-.22-.23-.38-.23h-3.05c-.21,0-.39.17-.39.39h0v1.76c0,.2.16.36.36.36h7.39c.22,0,.4-.18.4-.4h0v-1.73c0-.14.11-.26.25-.26h.86c.14,0,.25.11.25.25h0v3.66c0,.17-.14.31-.31.31h-13.3c-.43,0-.79-.35-.79-.78,0-.03,0-.07,0-.1v-.03c.08-.53.54-.92,1.07-.91h1.55c.19.01.35-.14.36-.33.08-1.12-.04-2.07-.37-2.85-.03-.08-.05-.14-.05-.19,0-.05.02-.11.05-.19.33-.78.46-1.73.37-2.85-.01-.19-.17-.34-.36-.34h-1.55c-.53.02-.99-.37-1.06-.9v-.03c-.06-.43.24-.82.67-.88.03,0,.07,0,.11,0h13.3c.17,0,.31.14.31.31v3.66c0,.14-.11.25-.25.25h-.86c-.14,0-.25-.12-.25-.26v-1.73c0-.22-.18-.4-.4-.4h-7.39c-.2,0-.36.16-.36.36v1.76c0,.21.17.39.39.39h3.05c.16,0,.3-.09.38-.23.21-.38.31-.66.32-.84,0-.16.14-.29.3-.29.02,0,.04,0,.06,0l.34.08c.21.04.36.22.36.43.02.51.04,1.07.06,1.68Z"/>
  <path class="cls-3" d="M151.23,106.23c-.22.2-.34.73-.37,1.6-.04,1.33-.01,2.35.08,3.05.02.17-.1.33-.27.35-.01,0-.03,0-.04,0h-1.34c-.08,0-.17-.04-.23-.1l-6.34-7.18c-.23-.26-.62-.28-.87-.05-.09.08-.16.19-.19.31-.14.57.02,1.13.47,1.67.08.1.08.24,0,.34-.42.52-.57,1.48-.45,2.89.02.2.18.36.39.36h2.37c.12,0,.23.1.23.23v1.3c0,.14-.11.25-.24.25h-7c-.36,0-.66-.29-.66-.65,0-.08.01-.15.04-.22l.12-.33c.12-.35.46-.58.83-.58h1.57c.18,0,.34-.13.38-.3.28-1.23.21-2.14-.2-2.72-.16-.22-.16-.52-.01-.75.34-.51.47-1.37.38-2.58-.02-.2-.18-.35-.38-.35h-1.75c-.47,0-.86-.38-.86-.86h0v-.31c0-.4.32-.72.72-.72h4.65c.23,0,.44.09.6.25,2.03,2.16,3.66,4.01,4.88,5.54.22.28.49.47.8.56.17.05.34-.05.39-.22.02-.09.01-.18-.04-.26-.2-.3-.26-.61-.16-.91.28-.87.48-1.72.6-2.56.03-.23-.13-.44-.36-.48-.02,0-.04,0-.06,0h-2.12c-.28,0-.51-.23-.51-.51v-.75c0-.35.28-.63.63-.63h6.15c.34,0,.61.28.61.62,0,.07-.01.14-.03.2l-.27.75c-.06.17-.22.28-.4.28h-1.72c-.19,0-.34.14-.36.33-.11,1.38.02,2.29.38,2.74.11.13.09.32-.03.43Z"/>
  <path class="cls-3" d="M174.1,103.15c.39,1.2,1.07,2.12,2.04,2.77.17.11.26.31.25.51-.06.88.17,1.49.69,1.82.45.28,1.04.11,1.33-.36.04-.06.07-.13.09-.2.22-.64.3-1.12.25-1.44-.03-.2.09-.39.28-.46.67-.22,1.28-1.03,1.83-2.44.09-.23-.02-.5-.26-.59-.05-.02-.11-.03-.16-.03h-1.32c-.19,0-.35-.16-.35-.35h0v-1.09c0-.24.19-.43.43-.43h6.21c.25,0,.46.2.46.46h0v1.19c0,.14-.11.25-.25.25h-1.83c-.28,0-.52.17-.61.43l-1.06,2.96s-.04.09-.08.12c-.25.21-.65.42-.84.72-1.32,2.04-2.12,3.37-2.41,3.99-.07.14-.21.24-.38.24h-1.77c-.19,0-.36-.11-.44-.29-.87-1.99-1.9-3.56-3.11-4.71-.14-.14-.23-.33-.24-.54-.04-.76-.46-1.65-1.26-2.68-.11-.15-.29-.23-.48-.23h-1.13c-.49,0-.88-.4-.88-.89h0v-.2c0-.45.36-.81.81-.81h5.84c.39.01.7.33.7.73,0,.06,0,.12-.02.18v.03c-.11.54-.59.93-1.13.93h-.86c-.19,0-.34.15-.33.33,0,.04,0,.07.02.1Z"/>
  <path class="cls-3" d="M192.32,100.85c.35,0,.66.07.94.2.16.07.29.2.38.35,1.22,2.04,2.07,3.83,3.04,4.3.18.08.29.26.28.45,0,.88.47,1.9,1.41,3.07.11.14.28.23.46.23h1.22c.19,0,.35.16.35.35v1.1c0,.18-.15.33-.33.33h-5.84c-.21,0-.38-.17-.38-.38h0v-1.04c0-.19.15-.34.34-.34h1.26c.16,0,.29-.13.29-.29,0-.01,0-.02,0-.04-.07-.57-.2-.95-.37-1.13-.14-.16-.34-.25-.56-.25h-2.48c-1.59,0-2.42,0-2.48,0-.21,0-.41.1-.56.25-.17.18-.3.56-.36,1.13-.02.16.09.3.25.32.01,0,.02,0,.04,0h1.26c.19,0,.34.15.34.34h0v1.04c0,.21-.17.38-.38.38h-5.84c-.18.01-.33-.13-.34-.31,0,0,0,0,0,0v-1.1c0-.19.16-.35.35-.35h1.22c.18,0,.35-.09.46-.23.93-1.17,1.4-2.19,1.4-3.07,0-.19.1-.37.28-.45.97-.47,1.82-2.26,3.03-4.3.09-.15.21-.27.37-.35.29-.14.6-.21.95-.21ZM191.21,105.9l2.31-.08c.09,0,.16-.08.16-.17h0s0-.12,0-.12c-.04-1.21-.67-2.18-1.4-2.15,0,0,0,0,0,0-.73.03-1.28,1.03-1.24,2.24h0s0,.12,0,.12c0,.09.08.16.17.16,0,0,0,0,0,0Z"/>
  <path class="cls-3" d="M260.86,100.85c3.18,0,5.24-.02,6.18-.02.34,0,.62.28.62.62h0v3.2c0,.28-.23.51-.51.51h-.25c-.38,0-.68-.3-.68-.68v-1.37c0-.21-.17-.38-.38-.38h-3.64c-.19,0-.35.15-.36.34-.07,1.43.02,2.34.27,2.74.09.14.09.32,0,.47-.24.4-.34,1.34-.28,2.82,0,.19.16.34.35.34h2.13c.22,0,.39.18.39.39h0v1.01c0,.2-.16.37-.37.38-.33.01-1.48.02-3.45.02-1.97,0-3.12,0-3.45,0-.21,0-.37-.18-.37-.38v-1.01c0-.22.17-.39.38-.39h2.13c.19-.01.35-.16.35-.35.05-1.48-.05-2.42-.3-2.82-.09-.14-.09-.33,0-.47.25-.4.34-1.31.26-2.74,0-.19-.17-.34-.36-.34l-3.64.02c-.21,0-.37.17-.37.38h0s0,1.37,0,1.37c0,.37-.31.68-.68.68h-.25c-.28,0-.51-.22-.51-.5l-.02-3.2c0-.34.27-.62.61-.62.94,0,3,0,6.18-.01Z"/>
  <path class="cls-3" d="M289.07,111.24c-.18,0-.32-.15-.32-.33v-1.16c0-.16.13-.3.29-.3h1.26c.19,0,.34-.15.34-.33.02-.96-.42-1.44-1.32-1.42-.09,0-1.59,0-4.49.01-.2,0-.39.08-.54.22-.26.25-.4.65-.42,1.17,0,.16.11.31.28.33l.93.13c.46.08.77.51.69.96-.07.4-.4.69-.81.7h-5.37c-.31,0-.56-.25-.56-.56h0v-.42c0-.44.36-.8.8-.8,0,0,.02,0,.03,0,.5.02.86-.02,1.1-.1.19-.07.35-.19.46-.35.81-1.16,1.19-2.12,1.14-2.9,0-.22.14-.41.35-.45.25-.04.53-.25.64-.43,1.09-1.82,1.9-3.14,2.44-3.96.17-.25.45-.4.75-.4h.99c.33,0,.62.18.78.46,1.05,1.94,1.93,3.33,2.66,4.17.13.15.25.23.35.24.24.03.43.24.43.49,0,.9.4,1.9,1.2,2.98.1.14.27.23.45.23h1.46c.12,0,.22.1.22.22v1.32c0,.14-.12.26-.26.26h-5.92ZM286.04,105.84l2.42-.02c.11,0,.19-.09.19-.2h0v-.1c-.01-.95-.62-1.72-1.37-1.71h-.1c-.74,0-1.34.79-1.33,1.74,0,0,0,0,0,0v.1c0,.1.09.19.2.19Z"/>
  <path class="cls-3" d="M196.3,125.11c0-.06-.01-.04,0-.07.79-1.99,1.39-3.24,1.8-3.73.13-.16.28-.3.45-.43,1.44-1.05,3.08-1.57,4.93-1.56,1.84,0,3.48.54,4.91,1.61.16.13.31.27.45.43.4.5.99,1.75,1.76,3.74.01.03,0,.01,0,.08,0,.05.01.03,0,.06-.79,1.99-1.39,3.23-1.8,3.73-.13.16-.28.31-.45.43-1.44,1.05-3.08,1.57-4.93,1.56-1.84,0-3.48-.54-4.91-1.61-.17-.13-.32-.27-.45-.43-.4-.5-.98-1.75-1.76-3.75-.01-.03,0-.01,0-.06ZM199.39,125.18s0,.08-.02.12c-1.38,2.61,2.26,3.8,4.11,3.81,1.86,0,5.5-1.16,4.14-3.78-.02-.03-.02-.07-.02-.12s0-.08.02-.12c1.38-2.61-2.26-3.8-4.11-3.81-1.86,0-5.5,1.15-4.14,3.78.02.03.02.07.02.12Z"/>
  <path class="cls-3" d="M263.63,127.02c-.31.93-.51,1.47-.58,1.62-.41.8-1.33,1.43-2.75,1.89-2.5.81-5.02.49-7.57-.95-.17-.1-.31-.23-.43-.38-.68-.95-1.27-2.22-1.75-3.8-.07-.22-.04-.47.09-.67.14-.23.31-.65.51-1.26.59-1.83,1.9-3.09,3.92-3.78,1.57-.54,3.38-.49,5.41.16.76.24,1.2.02,1.94-.32.43-.2.94-.01,1.14.42.05.11.08.24.08.36v2.84c0,.54-.43.97-.97.97-.38,0-.72-.22-.88-.56-.42-.89-1.25-1.72-2.26-1.97-1.98-.51-4.71-.46-5.93,1.42-.42.65-.49,1.26-.19,1.84.1.19.11.4.03.6-.43,1.05-.19,1.94.71,2.67.59.48,1.41.76,2.46.86,2.24.19,4.21.08,5.19-2.07.09-.2.29-.32.5-.32h1.04c.18,0,.33.15.33.33,0,.04,0,.08-.02.11Z"/>
  <path class="cls-3" d="M288.76,126.9c-.08-.46-.48-.71-1.2-.76-1.35-.09-2.26-.5-3.32-1.05-.17-.09-.32-.21-.45-.36-.9-1.11-.98-2.37-.23-3.77.09-.16.21-.29.37-.39.96-.59,1.51-.9,1.64-.94,1.58-.4,3.6-.43,6.05-.06.02,0,.03,0,.05.02l2.55,1.21c.14.07.31,0,.38-.13.02-.04.03-.08.03-.12v-.68c0-.19.15-.34.34-.34h1.01c.15,0,.28.12.28.28h0v3.15c0,.46-.37.83-.83.83-.25,0-.48-.11-.64-.3-.57-.67-1.53-1.48-2.33-1.73-1.49-.48-6.29-1.23-7.21.32-.29.49-.12,1.13.39,1.42.04.02.08.05.13.06,1.08.45,2.25.56,3.51.34.2-.04.38-.16.48-.34l.21-.36c.05-.08.16-.11.24-.06.03.02.05.04.07.08.25.59.54.87.87.86,2.71-.08,7.18,1.49,5.14,5.14-.35.63-.99,1.08-1.9,1.35-2.07.62-4.34.57-6.8-.14-.12-.03-.22-.09-.32-.15-.39-.25-1.13-.55-2.24-.87-.17-.05-.35.05-.4.21,0,.01,0,.03,0,.04-.03.21-.03.4.02.57.04.14-.04.3-.19.34-.02,0-.05.01-.07.01h-1.06c-.17,0-.3-.14-.3-.31h0v-3.4c0-.16.13-.3.3-.3h.95c.11,0,.21.04.3.12,1.05.97,1.79,1.52,2.22,1.65,2.41.75,4.74.9,6.99.45.53-.11.8-.45.83-1.01.02-.61-.34-1.13-.86-1.27-1.23-.31-3.79-.72-4.66.42-.05.07-.16.09-.23.03-.03-.02-.06-.06-.06-.1Z"/>
  <path class="cls-3" d="M102.2,125.08c.46-1.01.58-2.09.36-3.23-.04-.2-.22-.35-.42-.35h-2.28c-.19,0-.34-.15-.34-.34v-1.27c0-.22.18-.4.4-.4h0c6.34,0,9.69-.02,10.06-.03,2.51-.07,4.04,1.03,4.58,3.31.12.49,0,1.12-.38,1.87-.95,1.98-1.72,1.74-3.45,2.28-.2.07-.42.1-.63.1h-4.89c-.31,0-.56.25-.56.56h0v.61c0,.38.3.68.68.68h2.07c.17,0,.31.14.31.31v1.16c0,.17-.14.31-.31.31h-7.55c-.16,0-.29-.13-.29-.29v-1.17c0-.16.13-.29.29-.29h2.35c.16,0,.29-.11.32-.27.26-1.42.16-2.5-.31-3.25-.05-.09-.06-.2-.02-.29ZM104.7,121.82l.03,2.89c0,.15.12.27.27.27,0,0,0,0,0,0l4.97-.06c1.34-.02,2.42-.51,2.41-1.1v-1.27c-.02-.59-1.11-1.06-2.45-1.05,0,0,0,0,0,0l-4.97.06c-.14,0-.26.12-.26.27Z"/>
  <path class="cls-3" d="M116.74,128.87h2.17c.43,0,.79-.33.82-.76.07-1.08-.07-1.97-.44-2.69-.1-.2-.1-.45,0-.65.41-.75.54-1.72.4-2.89-.02-.21-.21-.38-.42-.38h-2.39c-.2,0-.36-.16-.36-.36v-1.32c0-.19.15-.34.34-.34h7.57c.22,0,.4.18.4.4h0v1.23c0,.21-.17.38-.38.38h-2.44c-.16,0-.3.13-.31.29-.12,1.35-.03,2.37.28,3.06.07.16.07.34,0,.5-.33.82-.43,1.83-.31,3.03.03.27.25.48.52.47h6.81c.4,0,.72-.33.72-.73h0v-1.44c0-.19.16-.35.35-.35h.87c.21,0,.39.17.39.39v3.49c0,.23-.19.42-.42.42h-14.1c-.17,0-.3-.13-.3-.3v-1.22c0-.13.11-.24.24-.24h0Z"/>
  <path class="cls-3" d="M162.95,125.36c-.05-.09-.06-.2-.01-.29.46-1.01.59-2.08.38-3.22-.04-.2-.22-.35-.42-.35h-2.27c-.19-.01-.34-.16-.34-.35v-1.27c0-.22.19-.4.41-.4,6.32.02,9.66.03,10.02.02,2.5-.06,4.02,1.04,4.55,3.31.11.49-.02,1.12-.38,1.87-.96,1.97-1.72,1.73-3.45,2.26-.2.07-.42.1-.63.1l-4.88-.02c-.31,0-.56.25-.56.56v.61c0,.37.3.68.67.68h2.06c.17,0,.31.15.31.32,0,0,0,0,0,0v1.15c0,.17-.15.3-.31.3l-7.52-.03c-.16,0-.29-.13-.29-.29v-1.17c0-.16.14-.28.3-.28h2.35c.16.01.29-.1.32-.25.26-1.42.16-2.5-.3-3.24ZM165.34,121.91l.03,2.73c0,.19.16.35.35.35l5.43-.05c1.1-.01,1.98-.67,1.97-1.47,0,0,0,0,0,0v-.53c-.02-.8-.91-1.44-2.01-1.43l-5.43.05c-.19,0-.35.16-.35.36h0Z"/>
  <path class="cls-3" d="M177.47,128.87h2.26c.18,0,.33-.13.35-.31.15-1.25.1-2.26-.17-3.03-.09-.26-.09-.54,0-.8.23-.67.31-1.64.24-2.92,0-.18-.15-.31-.33-.31h-2.26c-.18,0-.32-.15-.32-.32h0v-1.29c0-.22.18-.4.39-.4,6.47-.02,10.15-.02,11.03-.01.71,0,1.46.26,2.25.76.09.06.16.13.21.23l.91,1.57c.31.54.27,1.21-.1,1.71-.43.58-.51,1.29-1.1,1.74-.58.43-1.1.67-1.54.72-.23.02-.4.23-.38.46.01.13.09.25.2.32.67.41,1.1.89,1.29,1.42.07.21.24.38.45.46.57.21,1.08.29,1.53.23.2-.02.38-.14.48-.32l.45-.76c.07-.12.21-.2.35-.2h.35c.47,0,.86.38.86.86,0,.13-.03.26-.09.38-1.13,2.3-2.85,2.72-5.15,1.24-.68-.44-1.15-.89-1.41-1.35-.45-.8-1.16-1.62-2.13-2.44-.08-.07-.19-.11-.3-.12l-3-.21c-.29-.02-.55.2-.57.49,0,.01,0,.02,0,.04v1.41c0,.41.33.74.74.74h2.15c.16,0,.3.13.3.29v1.21c0,.16-.13.29-.29.29h-7.55c-.18,0-.33-.15-.33-.33v-1.19c0-.14.11-.25.25-.25ZM189.94,122.05c0-.31-.25-.55-.56-.55h-6.64c-.31.01-.55.26-.55.57h0s0,1.72,0,1.72c0,.31.25.55.56.55h6.64c.31-.01.55-.26.55-.57h0s0-1.72,0-1.72Z"/>
  <path class="cls-3" d="M228.64,125.07c0,.05,0,.08-.01.09-.83,1.96-.74,3.57-3.02,4.91-.74.44-1.84.64-3.3.62-2.31-.03-5.52-.03-9.65,0-.15,0-.27-.12-.27-.27h0v-1.39c0-.13.1-.23.23-.23h2.43c.17,0,.31-.12.35-.28.29-1.28.13-2.37-.47-3.29-.03-.04-.05-.08-.05-.13s.01-.08.04-.13c.61-.91.76-2.01.46-3.29-.03-.16-.18-.28-.35-.28h-2.43c-.13.01-.23-.09-.23-.22h0s0-1.39,0-1.39c0-.15.12-.27.27-.27,4.13.01,7.35,0,9.65-.05,1.46-.03,2.56.18,3.3.61,2.28,1.32,2.2,2.94,3.04,4.89,0,0,.01.04.01.09ZM225.87,125.02c.81-1.49-.15-2.48-1.48-3.36-.12-.08-.26-.12-.4-.12l-6.1-.1c-.17,0-.3.13-.31.29,0,0,0,0,0,0v6.37c0,.46.37.83.83.83,0,0,0,0,0,0l4.72-.03s.1,0,.16-.03c.45-.16.8-.26,1.05-.31.66-.12,1.2-.58,1.61-1.37.29-.56.26-1.17-.09-1.86-.05-.1-.05-.22,0-.32Z"/>
  <path class="cls-3" d="M246.27,124.96c.07-.02.12,0,.16.03.02.02.04.06.06.12.03.12-.04.21-.23.26-.04,0-.08.04-.09.08l-1.27,3.55c-.08.23-.24.42-.46.54-3.31,1.91-6.45,1.92-9.43.04-.6-.37-.98-.95-1.15-1.74-.19-.9-.4-1.58-.64-2.04-.19-.38-.22-.82-.07-1.21.2-.53.28-1.45.21-2.77,0-.18-.16-.32-.34-.32h-2.27c-.19,0-.34-.15-.34-.34v-1.36c0-.18.14-.32.32-.32h7.62c.14,0,.25.11.25.25v1.52c0,.14-.11.25-.25.25h-2.53c-.21,0-.38.17-.38.38h0v2.04c0,.17.07.34.2.46.49.47.47,1.03-.04,1.65-.12.14-.16.34-.11.52.83,3,4.57,2.83,6.97,1.94.17-.06.33-.17.46-.31.85-.91,1.01-1.84.47-2.8-.09-.15-.09-.34,0-.49.4-.7.52-1.72.36-3.08-.02-.18-.18-.32-.37-.32h-2.32c-.18,0-.33-.15-.33-.33v-1.41c0-.16.13-.29.29-.29h7.46c.2,0,.37.17.37.37h0v1.35c0,.17-.14.31-.31.31h-2.35c-.18,0-.33.13-.35.31-.11,1.14-.02,2.15.27,3.03.02.08.1.12.18.1Z"/>
  <path class="cls-3" d="M276.88,130.64h-7.69c-.12,0-.23-.1-.23-.23h0v-1.31c0-.13.1-.23.23-.23h2.49c.17,0,.32-.12.35-.3.28-1.47.13-2.53-.45-3.2-.1-.12-.1-.29,0-.4.45-.47.63-1.45.54-2.94-.02-.31-.28-.55-.59-.55h-3.83c-.26,0-.46.2-.46.46h0v1.62c0,.24-.19.43-.43.43h-.76c-.21,0-.39-.18-.39-.39v-3.74c0-.21.17-.38.38-.38h13.94c.21,0,.38.17.38.38v3.74c0,.25-.2.46-.46.46h-.64c-.25,0-.46-.2-.46-.46h0v-1.57c0-.3-.24-.54-.54-.54h-3.54c-.3,0-.55.23-.56.53-.06,1.1.02,2.06.25,2.88.05.17.05.36,0,.53-.24.83-.32,1.75-.26,2.74.02.39.34.7.73.7h1.92c.17,0,.3.13.3.3v1.24c0,.13-.1.23-.23.23h0Z"/>
  <path class="cls-3" d="M79.56,129.08v1.48l-7.39.06c-.27,0-.48-.21-.49-.47,0,0,0,0,0,0v-.61c0-.32.26-.58.58-.58h1.79c.19,0,.35-.13.38-.32.24-1.25.15-2.32-.25-3.19-.08-.17-.09-.36-.03-.53.16-.49.23-.98.2-1.47.08-.29.07-.53-.02-.73-.06-.13-.22-.18-.35-.12-.07.03-.12.09-.13.16l-.18.64-3.77,6.88c-.11.21-.33.34-.57.34h-1.09c-.27,0-.49-.22-.48-.48,0-.02,0-.04,0-.06.03-.28-.07-.47-.32-.57-.3-.12-.53-.37-.61-.69-.42-1.53-1.08-2.94-1.97-4.21-.21-.7-.55-1.34-1.02-1.92-.06-.08-.17-.09-.25-.03-.03.03-.06.07-.07.11-.17.78.03,1.43.62,1.96-.49,1.2-.64,2.45-.46,3.77.03.2.2.35.4.35h1.76c.2,0,.36.16.36.36v1.09c0,.19-.15.34-.34.34h-7.24c-.13,0-.23-.1-.23-.23v-1.26c0-.14.12-.26.26-.26h2.46c.18,0,.33-.12.37-.29.32-1.3.19-2.38-.39-3.24-.09-.13-.09-.3,0-.43.48-.71.64-1.74.47-3.08-.02-.19-.19-.34-.38-.34h-2.66c-.08,0-.14-.06-.14-.13v-1.68c0-.11.09-.19.19-.19h5.73c.19,0,.37.11.46.28,1.05,1.99,1.59,3.12,1.64,3.4.07.43.43.92,1.06,1.49.55.49.85,1.24.9,2.27.02.29.27.52.56.5.14,0,.28-.07.37-.18.45-.52.64-1.04.56-1.57-.03-.18.02-.36.14-.5,1.11-1.31,2.16-3.1,3.16-5.37.08-.19.27-.31.47-.31h5.6c.27,0,.5.22.5.5h0v1.06c0,.24-.2.44-.44.44h-2.51c-.18,0-.33.14-.34.33-.07,1.35.08,2.37.44,3.06.07.13.07.29,0,.43-.45.99-.58,2-.38,3.03.07.36.42.6.79.54.76-.13,1.52-.07,2.29.2Z"/>
  <path class="cls-3" d="M80.82,130.55l-.02-1.46c.42-.2.91-.28,1.48-.24.42.04.82-.18,1.02-.54l.95-1.71c.13-.23.17-.49.12-.74-.08-.43.28-.96,1.1-1.6.1-.08.19-.18.26-.29l2.58-4.3c.07-.11.2-.18.33-.19h1.79c.15,0,.29.08.36.21l2.54,4.23c.09.15.21.28.35.39.75.55,1.1,1.18,1.05,1.88-.01.17.03.34.11.49l1.09,1.89c.12.2.32.32.55.32h1.43c.18,0,.33.15.33.32v1.12c0,.17-.14.31-.31.31h-6.33c-.22,0-.4-.18-.4-.4h0v-1.02c0-.18.14-.32.32-.32h1.09c.39,0,.7-.31.7-.7,0-.14-.04-.27-.12-.39-.37-.55-.84-.82-1.42-.82-1.74.03-3.44.04-5.1.03-.42,0-.77.34-.77.76,0,0,0,0,0,0v.73c0,.19.16.35.35.35.02,0,.03,0,.05,0,.36-.05.7-.05,1.01,0,.48.08.8.52.72,1-.07.43-.45.75-.89.73l-6.35-.06ZM88.27,125.1l2.58-.04c.08,0,.15-.07.15-.16v-.1c-.02-1.31-.67-2.36-1.45-2.34,0,0,0,0,0,0h-.06c-.78.02-1.4,1.08-1.38,2.39v.1c0,.09.08.15.16.15,0,0,0,0,0,0Z"/>
  <path class="cls-3" d="M148.8,119.93v3.63c0,.27-.22.5-.5.5h-.51c-.31,0-.56-.25-.56-.56h0v-1.61c0-.2-.16-.36-.36-.36h-7.79c-.4,0-.72.32-.72.72h0v1.06c0,.49.39.88.88.88h3.08c.17,0,.3-.13.3-.3h0v-.66c0-.22.18-.39.39-.39h.78c.21,0,.39.17.39.39v3.88c0,.2-.17.37-.37.37h-.73c-.22,0-.39-.18-.39-.39v-.53c0-.2-.16-.36-.36-.36h-3.3c-.47,0-.84.38-.84.84,0,.06,0,.13.02.19l.12.51c.15.67.75,1.14,1.43,1.14h6.56c.49,0,.89-.4.89-.89v-1.44c0-.17.14-.3.31-.3h.93c.19,0,.35.16.35.35h0v3.65c0,.22-.17.39-.39.39h-14.63c-.23,0-.42-.19-.42-.43v-.91c0-.25.2-.45.44-.45h1.54c.45,0,.83-.35.87-.8.07-.92,0-1.8-.25-2.63-.07-.25-.06-.51.03-.75.22-.61.28-1.55.19-2.83-.02-.19-.17-.33-.36-.33h-2.16c-.18,0-.33-.15-.33-.32h0v-1.35c0-.19.15-.34.34-.34h14.7c.24,0,.44.2.44.44h0Z"/>
  <g>
    <path class="cls-4" d="M71.21,41.29l-.17,5.38c.33.62-.24.89-1.72.79-.51.41-.56.88-.17,1.41l-.03,1.5c-.24.49-.27,1-.09,1.53l-.17.29c-1.27.2-2.54.4-3.81.6-.38.06-.54.27-.48.61.03.15.17.25.32.22,0,0,.01,0,.02,0l3.92-.94.24.65c.06.17.09.36.09.54l-.13,4.06-.36,4.35c0,.09.02.19.08.26.09.11.16.12.21.03l.21.3c.11.16.3.23.49.17,1.18-.32,2.47-.39,3.88-.21.26.03.49-.15.52-.41,0-.02,0-.04,0-.06v-14.4c0-.3-.24-.54-.54-.54-.04,0-.09,0-.13.02-.88.22-1.35-.07-1.41-.87v-5.38c.12-.25.27-.37.46-.38,1.72-.06,4.69-.06,8.92,0-.05,1.73,1.11,1.92,3.48.57l-.08,5.65c0,.17-.14.3-.31.3,0,0,0,0,0,0l-1.84-.05c-.74.51-.82.86-.25,1.05l-.17,14.54-1.5-.07c-.08,0-.14.06-.14.13,0,0,0,0,0,0v.21c0,.08.07.15.15.15,0,0,.02,0,.03,0,.73-.12,1.2.06,1.43.56-.04.27-.06.33-.05.17l-3.37-.28c-.07,0-.13.04-.14.11,0,.04.01.08.05.11.71.61,1.62.75,2.72.43.18-.05.38-.04.56.03l.27.12c.12.66.13,1.36.02,2.11l-2.1.89s-.06.06-.05.11c0,0,0,0,0,.01l.08.13c.04.08.14.1.21.06,0,0,0,0,.01,0,.55-.39,1.14-.64,1.78-.73l.11,18.53c-.08.42.02.73.3.94.15.12.28.1.39-.06.05-.07,0-.15-.13-.24.48-.21,1.04-.24,1.68-.09.21.05.35.23.35.45v5.54c0,.18-.14.32-.32.32-5.84.05-9.79.06-11.85.01-.25,0-.46-.1-.64-.29l.04-5.94c.07-.06.12-.13.13-.22.89.1,1.51,0,1.85-.28v-15.2c0-.15-.09-.29-.23-.35l-.29-.12c-1.44-.22-2.87-.18-4.29.1-.03,0-.06.02-.08.05-.05.07-.05.15-.02.25-.15.37-.19.8-.12,1.31-.3.15-.55.36-.75.62-.1.13-.08.31.05.41,0,0,0,0,.01,0,.38.26.6.19.65-.2v3.68c-.3.37-.41.78-.32,1.23.14.74.21,1.16.21,1.27,0,.73.08,1.43.23,2.12l-.06,3.85-.18,1.15c-.02.12.03.25.14.32.23.15.48.12.77-.1.49-.07.94-.02,1.36.15l-.04,5.84c-.52.4-1.09.49-1.72.28,0-.42-.25-.72-.74-.89-.18-.07-.31-.24-.31-.44v-1.3c0-.15-.11-.28-.25-.31-.71-.15-1.24-.12-1.58.08-.19.11-.25.34-.14.53.07.12.2.19.34.19h.35c.21,0,.39.12.47.31.4.95.36,1.57-.12,1.86l-8.75-.03c-.21,0-.39-.17-.39-.39h0v-5.78c0-.27.22-.5.5-.5h1.69c.22,0,.4-.18.4-.39v-37.73c0-.18-.15-.33-.33-.33h-1.68c-.33,0-.6-.27-.6-.6v-5.72c0-.14.11-.26.25-.26h10.82c.13,0,.25.02.38.06l1.52.46ZM68.08,44.31c0-.11-.32-.18-.71-.17,0,0,0,0,0,0-.39.01-.7.1-.7.21,0,.11.32.18.71.17,0,0,0,0,0,0,.39-.01.7-.1.7-.21ZM66.13,44.51c-.04-.06-.17-.06-.28.01-.12.07-.18.18-.14.25.04.06.17.06.28-.01.12-.07.18-.18.14-.25ZM73.75,44.99c-.12-.11-.35-.07-.51.09-.16.17-.19.39-.07.51h0c.12.11.35.07.51-.09.16-.17.19-.39.07-.51h0ZM79.06,45.28c-.1-.29-.65-.36-1.22-.15,0,0,0,0,0,0-.57.21-.94.61-.84.89.1.29.65.36,1.22.15,0,0,0,0,0,0,.57-.21.94-.61.84-.89ZM64.24,48.82c.04.16.18.21.43.15,1.64-.39,2.43-.69,2.37-.9-.05-.19-.89-.06-2.5.39-.24.07-.34.19-.3.36ZM63.79,49.59c-.04-.14-.3-.19-.57-.11,0,0,0,0,0,0-.27.08-.46.26-.42.4,0,0,0,0,0,0,.04.14.3.19.57.11,0,0,0,0,0,0,.27-.08.46-.26.42-.4,0,0,0,0,0,0ZM76.03,49.69c-.04-.13-.25-.17-.47-.1,0,0,0,0,0,0-.22.07-.36.23-.32.36.04.13.25.17.47.1,0,0,0,0,0,0,.22-.07.36-.23.32-.36ZM66.77,50.29c-.42-.4-.76-.6-1.02-.61-.19-.01-.36.14-.37.33,0,.13.06.25.17.32.22.14.6.21,1.12.21.08,0,.15-.07.15-.15,0-.04-.02-.08-.05-.11ZM80.21,50.97l-1.2-.69c-.06-.03-.12-.04-.18-.02l-2.19.48c-.1.02-.16.11-.14.21.02.08.08.13.15.15.64.11,1.22.03,1.75-.23.22-.11.48-.12.71-.02l.97.38c.07.03.15,0,.18-.08.02-.06,0-.14-.06-.17ZM75.14,52.09c-.12.35.18.63.9.85.14.05.3-.02.36-.16.05-.13,0-.28-.14-.34l-.79-.46c-.11-.06-.25-.02-.31.09,0,.01-.01.02-.02.04ZM75.99,53.7c0,.11.21.21.48.22h0c.27,0,.49-.07.49-.19,0-.11-.21-.21-.48-.22h0c-.27,0-.49.07-.49.19ZM64.79,56.47c1.06.96,2.18,1.31,3.34,1.06.16-.03.26-.19.23-.35-.03-.14-.15-.24-.29-.24l-1.35-.03c.45-1.11-.09-1.55-1.62-1.31-1.1.17-2.05-.08-2.87-.74-.07-.06-.18-.06-.24.01-.04.05-.05.12-.03.18.33.83.95,1.18,1.87,1.05.57-.08.89.04.95.36ZM78.24,57.07c-.09,0-.15.08-.14.19,0,.05.03.09.06.12.11.12.23.16.36.12.13-.05.16-.13.08-.24-.09-.13-.21-.19-.35-.2ZM65.01,57.61c0-.17-.22-.3-.48-.29-.26,0-.46.15-.46.31,0,.17.22.3.48.29.26,0,.46-.15.46-.31ZM80.33,57.47c-.02.12.17.26.42.3,0,0,0,0,0,0,.25.04.47-.02.49-.15h0c.02-.12-.17-.26-.42-.3,0,0,0,0,0,0-.25-.04-.47.02-.49.15h0ZM67.56,59.9c0-.18-.15-.33-.33-.33s-.33.15-.33.33.15.33.33.33.33-.15.33-.33ZM63.82,59.91c0-.15-.41-.26-.91-.26-.5,0-.91.14-.9.29,0,.15.41.26.91.26.5,0,.91-.14.9-.29ZM81.82,60.77c-1.27,0-2.49-.33-3.65-1-.03-.01-.07,0-.09.03-.01.02,0,.05.01.07,1.1,1.14,2.31,1.7,3.64,1.68.12,0,.24-.04.33-.12.07-.05.09-.19.05-.4-.02-.15-.15-.25-.3-.25ZM76.47,63.06c-.03.13.19.3.5.38.31.08.59.03.62-.11h0c.03-.13-.19-.3-.5-.38-.31-.08-.59-.03-.62.11h0ZM75.22,63.85c-.08-.03-.22.14-.32.38h0c-.1.24-.12.46-.04.49.08.03.22-.14.32-.38h0c.1-.24.12-.46.04-.49ZM65.49,65.08c-.01-.14-.82-.17-1.81-.07-.99.1-1.77.29-1.76.43.01.14.82.17,1.81.07.99-.1,1.77-.29,1.76-.43ZM74.66,64.9s-.13.09-.38.27c-.08.05-.09.16-.04.23.02.02.04.04.07.06.17.07.35,0,.54-.2.08-.09.08-.22,0-.3-.05-.05-.12-.07-.18-.06ZM68.79,65.57c.31.06.62.15.94.28.07.03.16,0,.19-.08.05-.12,0-.23-.16-.32-.08-.05-.38-.12-.9-.22-.52-.1-.83-.15-.92-.13-.18.03-.27.11-.27.24,0,.08.06.14.14.14.34,0,.67.04.98.1ZM78.93,66.61c.38-.02.68.18,1.08.14.08-.01.13-.09.12-.16,0-.04-.03-.07-.06-.1-.19-.13-.57-.18-1.15-.16-.58.03-.96.12-1.13.27-.06.06-.06.15,0,.2.02.03.06.04.09.04.4,0,.68-.22,1.06-.24ZM71.34,66.7c-.02.13.38.3.89.39,0,0,0,0,0,0,.51.08.94.05.96-.08.02-.13-.38-.3-.89-.39h0c-.51-.08-.94-.05-.96.08ZM77.31,67.06c0-.12-.35-.22-.79-.21h0c-.43,0-.79.11-.78.23h0c0,.12.35.22.79.21h0c.43,0,.79-.11.78-.23h0ZM68.32,68.78c0-.14-.29-.25-.65-.24h0c-.36,0-.65.12-.65.25h0c0,.14.29.25.65.24h0c.36,0,.65-.12.65-.25h0ZM63.47,69.78c0,.21.27.38.61.39h0c.34,0,.62-.16.62-.37,0-.21-.27-.38-.61-.39-.34,0-.62.16-.62.37ZM64.03,72.01c.38-.2.38-.42-.01-.67-.32-.2-.61-.19-.86.05-.2.2-.14.47.14.61.22.11.51.11.73,0ZM66.46,72.47c-.23-.1-.78-.13-1.65-.1-.11,0-.19.09-.19.19,0,.05.02.09.05.12l.27.3c.06.07.16.1.25.06.53-.21.92-.3,1.17-.25.09.01.18-.05.2-.14.01-.08-.03-.15-.1-.18ZM65.68,73.97c-.27-.27-.41-.41-.43-.42-.15-.03-.28.06-.31.22-.01.09,0,.18.06.24.08.09.26.16.55.2.08.01.15-.04.17-.12,0-.04,0-.09-.04-.12ZM77.6,74.75c.5.93,1.33,1.12,2.49.56.42-.2.93-.04,1.16.36.15.26.23.38.24.36.19-.27.12-.64-.15-.83-.08-.06-.18-.1-.28-.11l-3.45-.36c-.33-.81-.86-1.16-1.59-1.04-.14.02-.24.16-.22.31.02.12.11.21.23.22.51.06,1.04.23,1.58.51ZM66.26,74.38c-.07.06-.05.22.06.35,0,0,0,0,0,0,.11.13.26.2.33.14,0,0,0,0,0,0,.07-.06.05-.22-.06-.35,0,0,0,0,0,0-.11-.13-.26-.2-.33-.14,0,0,0,0,0,0ZM62.13,74.86c-.11.04-.13.24-.06.45,0,0,0,0,0,0,.08.21.23.34.33.3,0,0,0,0,0,0,.11-.04.13-.24.06-.45,0,0,0,0,0,0-.08-.21-.23-.34-.33-.3,0,0,0,0,0,0ZM63.24,76.96c0,.18.24.33.55.34.31,0,.56-.13.56-.31,0-.18-.24-.33-.55-.34-.31,0-.56.13-.56.31ZM77.4,78.78c.05.17.21.23.46.16,1.7-.47,2.52-.8,2.46-1-.07-.22-.94-.07-2.61.47-.25.08-.35.2-.3.37ZM75.47,78.67c-.08,0-.15.05-.16.13,0,.04,0,.08.04.12.1.11.23.2.4.27.16.07.31.06.44-.04.16-.11.29-.24.39-.37.05-.08.03-.19-.05-.25-.05-.03-.11-.04-.16-.02-.32.13-.62.19-.89.16ZM81.65,83.02c.11,0,.2-.09.2-.2,0-.08-.05-.16-.12-.19-.43-.2-.7-.46-.82-.78-.11-.28-.4-.45-.7-.42-.15.02-.3,0-.47-.06-.17-.07-.25-.26-.19-.43.05-.12.16-.2.3-.21h1.16c.16,0,.29-.12.3-.28,0-.14-.09-.27-.23-.3-.6-.15-1.31.07-2.11.64-.22.14-.29.43-.16.65.13.21.4.29.62.17.58-.25.97,0,1.16.74.05.19.17.34.34.43.3.15.53.22.71.21ZM65.72,81.43c0-.1-.28-.18-.61-.16-.34.01-.6.1-.6.21,0,.1.28.18.61.16.34-.01.6-.1.6-.21ZM62.8,82.28c-.11-.17-.32-.28-.64-.34-.1-.02-.19.11-.23.2-.04.08,0,.18.08.22,0,0,.01,0,.02,0l.54.19c.1.04.21-.02.25-.12.02-.06.01-.12-.02-.17ZM76.75,82.24c.41.02.66,0,.75-.08.07-.05.09-.15.05-.22-.04-.06-.12-.09-.18-.06l-.63.16c-.05.02-.09.08-.07.13.01.04.05.07.09.07ZM75.68,83.38c-.08.18.04.4.26.5.22.1.46.04.54-.14.08-.18-.04-.4-.26-.5-.22-.1-.46-.04-.54.14ZM77.9,83.96c-.03.09.23.28.59.42.36.14.68.18.72.09h0c.03-.09-.23-.28-.59-.42-.36-.14-.68-.18-.72-.09h0ZM67,87.68c.02-.21-.14-.4-.36-.42h0l-2.31-.19c-.21-.02-.4.14-.42.36h0s0,.08,0,.08c-.02.21.14.4.36.42h0l2.31.19c.21.02.4-.14.42-.36h0s0-.08,0-.08ZM79.59,88.33c-.22,0-.42.02-.59.09-.2.08-.26.24-.16.47.12.27.41.19.87-.26.07-.07.07-.18,0-.25-.03-.03-.08-.05-.12-.05ZM78.04,89.49c-.04-.21-.5-.28-1.03-.17,0,0,0,0,0,0-.53.11-.92.37-.87.57.04.21.5.28,1.03.17,0,0,0,0,0,0,.53-.11.92-.37.87-.57ZM82.58,90.28c0-.19-.24-.35-.54-.35h0c-.29,0-.53.16-.53.36,0,.19.24.35.54.35h0c.29,0,.53-.16.53-.36ZM74.95,91.17c.24.1.55.04.94-.17.09-.05.13-.17.08-.27-.03-.05-.08-.09-.13-.1-.27-.05-.47-.1-.58-.15-.12-.05-.29-.16-.51-.32-.09-.06-.21-.04-.27.05-.03.05-.04.11-.03.16.11.43.29.69.52.79ZM62.31,90.19l-1.48.33c-.24.06-.38.3-.32.53.04.16.17.29.33.32.64.12,1.19-.19,1.65-.94.05-.08.02-.18-.06-.23-.04-.02-.08-.03-.12-.02ZM81.52,90.99c-.43.12-.74.18-.94.18-.16,0-.32-.05-.46-.14-.6-.43-1.1-.45-1.49-.06-.13.13-.13.34,0,.47.07.07.17.11.27.09.63-.08,1.42-.04,2.38.13,0,0,.11-.03.3-.09.11-.03.19-.09.24-.19.07-.14.02-.3-.12-.37-.06-.03-.12-.04-.19-.02Z"/>
    <path class="cls-4" d="M153.99,52.75c-.2.06-.36.15-.48.27-.13.14-.13.35,0,.47l.3.28.14.24c.03.36.21.52.55.49.42-.04.57-.25.45-.64,1.64-.79,3.35-1.01,5.14-.65.16.03.31.11.43.23l2.09,1.89-.16.5c-.05.14.03.3.17.35.05.02.1.02.15,0l.31-.07c.72,1.51,1.08,2.7,1.08,3.55.01,5.26.02,10.69.01,16.29-1.85.1-2.81.75-2.88,1.95-.01.24.16.44.4.45.12,0,.23-.03.32-.11.89-.81,1.61-1.05,2.14-.69.03,3.07.04,6.11.03,9.11,0,.37.08.59.23.66.17.07.4.07.71,0,.32-.08.64.11.72.43.01.05.02.1.02.15v4.01c0,.35-.28.62-.62.62,0,0,0,0-.01,0l-4.26-.08c-1.19-1.06-2.09-1.07-2.71-.01-.59.24-1.19.19-1.78-.17l-.02-4.76c.32-.46.72-.66,1.19-.6.16.02.3-.09.32-.24,0-.01,0-.02,0-.04v-26.7c0-.92-.75-1.67-1.68-1.67-.08,0-.17,0-.25.02l-.16.02c-1.1.14-1.93,1.09-1.94,2.22l-.07,19.57c-.6-.12-1.05-.09-1.35.06-.1.05-.14.18-.09.28.02.03.05.06.08.08.3.19.73.2,1.28.05l.14,5.67c-.23.77-.09,1.18.42,1.22.46-.09.84-.09,1.17,0l.02,3.01c0,.2-.16.36-.35.36-.06,0-.12-.02-.18-.05-.52-.31-1.03-.35-1.55-.14-.11.04-.17.16-.13.26.03.09.11.14.2.14h1.57c.25,0,.46.21.46.46v.25c0,.14-.12.26-.26.26-.02,0-.04,0-.07,0-1.28-.37-1.94-.22-1.98.46l-7.02-.02c-.41,0-.75-.33-.75-.75h0v-4.15c0-.37.3-.68.68-.68.03,0,.05,0,.08,0,.65.07.98-.06,1-.41h0s0-39.4,0-39.4c0-.21-.14-.41-.34-.48l-1.13-.4c-.17-.06-.28-.22-.28-.39v-4.56c0-.25.2-.45.45-.45,2.71-.03,5.61-.38,7.77.39.16.06.27.22.28.39v11.16ZM147.55,42.03c-.02.18.29.36.7.41,0,0,0,0,0,0,.4.04.75-.07.77-.25h0c.02-.18-.29-.36-.7-.41,0,0,0,0,0,0-.4-.04-.75.07-.77.25ZM149.46,44.6c.03-.12-.05-.24-.18-.27h0l-2.3-.48c-.12-.03-.24.05-.27.18h0s-.04.2-.04.2c-.03.12.05.24.18.27h0l2.3.48c.12.03.24-.05.27-.18h0s.04-.2.04-.2ZM152.03,44.81c.59.19.91.29.95.3.1.03.21-.03.23-.13.02-.06,0-.12-.04-.17-.26-.33-.57-.55-.93-.67-.36-.12-.74-.12-1.15,0-.1.03-.16.13-.13.23.02.06.06.11.12.13.03.01.35.11.94.31ZM151.77,46.01c-.32-.15-.78-.23-1.37-.24-.18,0-.35.06-.49.18-.34.31-.82.52-1.43.63-.17.03-.28.19-.25.36,0,.01,0,.02,0,.04v.02c.09.12.23.18.37.14l3.11-.68c.13-.03.21-.16.18-.29-.02-.07-.06-.13-.13-.16ZM153.13,47.94c-.04-.14-.27-.21-.5-.14,0,0,0,0,0,0-.23.07-.39.24-.35.38,0,0,0,0,0,0,.04.14.27.21.5.14h0c.23-.07.39-.24.35-.38,0,0,0,0,0,0ZM151.92,50.61c-.34-.73-.99-1.15-1.95-1.24-.09,0-.17.06-.18.15,0,.02,0,.05,0,.07l.08.24s.01.01.02.01c.99-.05,1.57.31,1.73,1.09,0,0,0,.01.01.01l.14-.03c.11-.02.18-.14.16-.25,0-.01,0-.03-.01-.04ZM151.45,53.08h-1.8c-.11,0-.2.09-.2.2,0,.02,0,.03,0,.05.06.24.19.35.39.35.63-.02,1.18-.17,1.64-.45.04-.02.05-.07.02-.1-.01-.02-.03-.03-.06-.04ZM151.44,54.96c-.01-.16-.23-.28-.5-.26,0,0,0,0,0,0-.26.02-.47.16-.46.33h0c.01.16.23.28.5.26,0,0,0,0,0,0,.26-.02.47-.16.46-.33h0ZM160.6,55.39c0-.15-.49-.26-1.09-.25-.6.01-1.09.14-1.08.29,0,.15.49.26,1.09.25.6-.01,1.09-.14,1.08-.29ZM154.04,56.52c-.06-.14-.33-.16-.61-.05-.28.12-.46.32-.4.47h0c.06.14.33.16.61.05.28-.12.46-.32.4-.47h0ZM148.53,59.25c-.01.17.19.33.45.34h0c.26.02.48-.11.49-.28h0c.01-.17-.19-.33-.45-.34h0c-.26-.02-.48.11-.49.28h0ZM153.58,60.78c-.64-.08-.98.19-1.02.84,0,.14.1.27.24.28.05,0,.1,0,.14-.03l.76-.44c.16-.1.22-.31.12-.48-.05-.09-.15-.15-.25-.17ZM148.37,61.69c-.03.21.21.43.54.48,0,0,0,0,0,0,.33.05.63-.07.67-.28h0c.03-.21-.21-.43-.54-.48,0,0,0,0,0,0-.33-.05-.63.07-.67.28h0ZM162.39,62.29c-.23-.08-.42-.09-.58-.02-.13.06-.19.22-.12.35.03.05.07.1.12.13.17.08.37.05.6-.09.1-.06.13-.19.08-.28-.02-.04-.06-.07-.1-.08ZM151.19,63.69c.69.13,1.1.17,1.21.1.15-.09.2-.29.11-.44-.03-.06-.09-.1-.15-.13-.03-.02-.43.08-1.18.29-.05.01-.08.07-.06.11,0,.03.04.06.07.06ZM162.72,64.24c0-.13-.1-.23-.22-.24l-3.15-.09c-.13,0-.23.1-.24.22h0s0,.02,0,.02c0,.13.1.23.22.24l3.15.09c.13,0,.23-.1.24-.22h0s0-.02,0-.02ZM149.89,65.66l2.02-.1s.03,0,.04-.02c.08-.08.12-.17.12-.29,0-.13-.08-.2-.23-.21-.69-.05-1.35.11-1.98.49-.04.01-.05.06-.04.09.01.03.04.05.07.04ZM160.82,66.57c.09-.04.13-.14.1-.22-.02-.05-.06-.09-.11-.1-.25-.07-.45-.06-.6.02-.09.05-.12.15-.08.24.02.04.05.07.1.08.2.06.4.06.6-.02ZM160.67,69.24c0-.23-.19-.42-.42-.42h0c-.23,0-.42.19-.42.42s.19.42.42.42c.23,0,.42-.19.42-.42h0ZM149.02,69.77c-.05.07,0,.2.12.29t0,0c.12.09.25.11.31.04.05-.07,0-.2-.12-.29,0,0,0,0,0,0-.12-.09-.25-.11-.31-.04ZM150.11,70.91c.6.48,1.27.56,2.01.25.23-.1.35-.25.35-.47,0-.12-.09-.22-.22-.22-.05,0-.1.01-.14.04-.5.39-1.14.46-1.92.23-.05-.01-.11.02-.12.08,0,.03,0,.07.03.09ZM150.46,81.95c0-.2-.16-.36-.36-.36s-.36.16-.36.36h0c0,.2.16.36.36.36h0c.2,0,.36-.16.36-.36h0ZM148.82,83.59c0,.14.39.27.88.29.49.01.89-.09.9-.24,0-.14-.39-.27-.88-.29-.49-.01-.89.09-.9.24ZM149.68,85.38c-.03.14.16.31.43.37.27.06.52,0,.55-.15.03-.14-.16-.31-.43-.37-.27-.06-.52,0-.55.15ZM148.85,87.42c0-.18-.15-.32-.32-.32s-.32.15-.32.32.15.32.32.32.32-.15.32-.32ZM158.86,88.51c0,.27.6.49,1.34.5h0c.74,0,1.35-.21,1.35-.47h0c0-.27-.6-.49-1.34-.5h0c-.74,0-1.35.21-1.35.47h0ZM149.72,88.54c0,.26.12.44.36.53.11.04.23-.01.27-.12.02-.04.02-.09,0-.14,0,0-.12-.13-.34-.38-.06-.07-.17-.07-.24,0-.03.03-.05.07-.05.12ZM154.21,88.35c-.17-.03-.34.22-.4.55-.05.33.04.62.21.65h0c.17.03.34-.22.4-.55.05-.33-.04-.62-.21-.65,0,0,0,0,0,0ZM146.77,88.41c-.11-.01-.21.06-.23.17,0,.05,0,.1.04.14.24.35.55.5.92.45.18-.02.31-.19.29-.38-.02-.15-.14-.27-.3-.29l-.72-.09ZM163.48,88.66c-.22.03-.36.27-.33.55h0c.03.28.24.48.45.46.22-.03.36-.27.33-.55h0c-.03-.28-.24-.48-.45-.46ZM150.94,89.22c.59.23,1.14.27,1.63.12.13-.04.21-.18.17-.32-.03-.1-.11-.17-.22-.17-.12-.01-.64.06-1.57.22-.04,0-.07.05-.07.09,0,.03.02.05.05.06ZM161.55,90.69c-.02.23.36.46.84.5.49.04.9-.11.92-.34.02-.23-.36-.46-.84-.5-.49-.04-.9.11-.92.34Z"/>
    <path class="cls-4" d="M273.05,53.81c-.27-.27-.55-.33-.86-.18-.23.11-.28.27-.14.49.1.16.24.24.44.23-.54.66-1.17,1.2-1.89,1.61-.15.09-.34.06-.46-.08-.53-.61-.46-1.21.2-1.82.79-.73,1.43-1.55,1.93-2.46.44-.04.71-.2.83-.47.11-.27.04-.45-.23-.52-.18-.05-.4-.01-.65.11l-1.92-.1c-.39-.02-.7-.34-.7-.74v-8.71c0-.21.17-.38.38-.38h5.55c.11,0,.23.03.32.09.28.17.6.27.95.3.17.01.3.15.3.32v8.76c0,.2-.09.39-.25.51l-3.79,3.04ZM272.61,44.64c.56-.93,2.07-.58,2.89-.47.08,0,.15-.06.16-.14,0-.05-.02-.1-.06-.13-1.33-.88-2.42-.69-3.27.59-.05.07-.03.17.04.21,0,0,0,0,0,0h0c.08.05.19.02.24-.06ZM272.35,45.37c-.13-.11-.5-.1-1.12.02-.41.08-.61.34-.58.76.03.59.07.95.11,1.09.08.28.36.44.64.37.15-.04.27-.15.34-.29.02-.05,0-.47-.08-1.26-.02-.17.11-.33.28-.34.03,0,.05,0,.08,0,.15.03.23.04.24.03.12-.02.2-.14.17-.26-.01-.05-.04-.1-.08-.13ZM272.71,48.07c-.18.61-.58.95-1.21,1.03-.14.02-.24.15-.22.29.02.11.1.2.22.22.94.14,1.52-.32,1.74-1.38.03-.15-.07-.3-.22-.33,0,0,0,0-.01,0h-.02c-.12-.02-.24.06-.27.17Z"/>
    <path class="cls-4" d="M120.81,53.41c.22.44.46.65.72.63.29-.03.4-.21.31-.56.11.1.25.17.41.21.17.05.29.21.3.39v4.48c0,.21-.17.38-.38.38h-.86c-.15,0-.27.12-.27.27h0s-.02,21.74-.02,21.74c-.47.12-.73.31-.79.58-.03.17.03.29.19.36.14.07.28.04.41-.09.17.31.25.6.23.86-.15,1.55.1,2.99.78,4.34.09.19.26.31.49.37.19.05.32.22.32.42v4.4c0,.19-.16.35-.36.35-2.46,0-4.44.38-5.99-.75-1.34-.97-2.02-2.24-2.02-3.81-.05-7.04-.05-16.55-.02-28.54,0-.25-.17-.47-.42-.53-.12-.03-.26-.03-.42,0-.43.07-.83-.22-.91-.65,0-.04-.01-.09-.01-.13v-4.5c0-.22.15-.41.36-.46l.71-.16c.12-.02.23-.08.31-.16,2.27-2.17,3.17-7.27,3.16-10.11,0-.59.48-1.08,1.08-1.08h1.35c.74,0,1.35.6,1.35,1.34,0,0,0,0,0,0v10.39ZM117.13,49.67c-.07.26.38.6.99.76h0c.62.16,1.17.08,1.24-.18.07-.26-.38-.6-.99-.76t0,0c-.62-.16-1.17-.08-1.24.18ZM116.96,51.74c-.04.13.21.31.56.41.34.1.65.08.69-.05.04-.13-.21-.31-.56-.41-.34-.1-.65-.08-.69.05ZM114.34,53.81c-.03.25.37.51.91.58.54.07,1-.08,1.03-.33.03-.25-.37-.51-.91-.58-.54-.07-1,.08-1.03.33ZM116.75,55.41c0,.13.33.24.75.24.42,0,.75-.1.75-.23h0c0-.13-.33-.24-.75-.24-.42,0-.75.1-.75.23h0ZM120.44,56.25c.5-.13.81-.14.94-.02.08.07.2.07.27,0,.02-.02.03-.04.04-.07.05-.17.04-.32-.03-.47-.03-.05-.07-.09-.13-.1-.51-.14-.93-.01-1.27.38-.06.07-.06.18.01.25.04.04.1.05.16.04ZM113.8,55.87c-.06.14.35.44.92.67,0,0,0,0,0,0,.56.23,1.07.29,1.12.15.06-.14-.35-.44-.92-.67,0,0,0,0,0,0-.56-.23-1.07-.29-1.12-.15ZM118.85,57.07c-.05.26.15.46.43.44.22-.01.44-.15.54-.35.13-.25.03-.38-.3-.38-.42,0-.64.09-.67.28ZM118.87,58.37c-.12-.03-.28.22-.36.55-.08.33-.05.62.07.65.12.03.28-.22.36-.55.08-.33.05-.62-.07-.65ZM116,59.41c-.45.16-.71.28-.77.34-.14.15-.13.4.02.54.13.12.33.14.48.03.36-.25.53-.49.53-.72,0-.19-.09-.25-.25-.19ZM118.52,62.04s-.92-.09-2.75-.24c-.29-.02-.55.19-.59.46-.02.15.03.3.15.4.36.33.85.32,1.48-.02.72-.4,1.24-.55,1.54-.43.07.03.15,0,.17-.08.01-.03.01-.06,0-.09ZM115.75,66.2h.99c.09,0,.17-.08.17-.17,0-.02,0-.04-.01-.06-.12-.3-.51-.24-1.16.18-.01,0-.02.02-.02.03s.02.02.03.02h0ZM118.8,66.73c-.04-.18-.48-.24-.98-.14h0c-.51.1-.89.33-.85.51,0,0,0,0,0,0,.04.18.48.24.98.14h0c.51-.1.89-.33.85-.51,0,0,0,0,0,0ZM120.26,67.66c-.05-.14-.46-.12-.91.04-.45.16-.78.41-.73.55.05.14.46.12.91-.04.45-.16.78-.41.73-.55ZM118.52,72.94l.21-.36c.07-.13.03-.29-.1-.36-.06-.03-.13-.04-.19-.03-1.26.29-1.98,1.12-2.15,2.5,0,.03.02.05.05.06,0,0,0,0,0,0h.16c.11,0,.19-.08.19-.19,0-.01,0-.02,0-.03-.13-.82.29-1.23,1.26-1.24.24,0,.45-.13.57-.34ZM118.83,73.1c-.09.16,0,.4.21.52.21.12.46.09.56-.07,0,0,0,0,0,0,.09-.16,0-.4-.21-.52-.21-.12-.46-.09-.56.07,0,0,0,0,0,0ZM118.54,75.39c-.16.11-.15.41.03.69.18.27.45.41.62.3.16-.11.15-.41-.03-.69-.18-.27-.45-.41-.62-.3ZM118.36,78.37c-.05.22.19.47.55.55.35.08.68-.03.74-.26.05-.22-.19-.47-.55-.55-.35-.08-.68.03-.74.26ZM116.61,82.75c.15.19.48.26.97.22.13-.02.23-.14.21-.27-.01-.09-.07-.16-.16-.2-.1-.03-.39-.06-.85-.09-.11,0-.21.08-.22.2,0,.05.01.1.04.14ZM117.16,86.01c0,.1.12.19.28.2h0c.16.01.3-.06.31-.16t0,0c0-.1-.12-.19-.28-.2h0c-.16-.01-.3.06-.31.16h0Z"/>
    <path class="cls-4" d="M141.77,59.35c-.52,0-.98.13-1.38.4-.07.05-.09.14-.04.21.02.03.04.05.07.06l1.22.44c.07.02.11.1.09.17l-.05.16c-.06.2-.25.33-.46.31-.31-.03-.59,0-.84.08-.17.06-.26.24-.2.41,0,.02.02.04.03.06.29.47.78.62,1.45.42l.09,5.94c0,.08-.06.15-.14.16,0,0,0,0,0,0h-5.43c-.13,0-.23-.1-.23-.23l-.05-4.76c0-.12.09-.23.21-.23.05,0,.12-.02.21-.05.22-.08.36-.29.35-.53,0-1.1.2-2.31-.52-3.2-.11-.14-.15-.31-.12-.48,0-.05.01-.08.01-.1,0-.15-.12-.27-.27-.27,0,0,0,0-.01,0l-1.64.06c-.18,0-.35.07-.48.19-.84.73-1.19,1.67-1.05,2.83.06.54.03,1.53-.09,2.97l-1.77.37s-.03.02-.03.03h0s.02.14.02.14c0,.08.08.14.16.13l1.68-.11.05,20.48c0,.19.05.38.16.54.26.4.43.78.51,1.15.04.19.23.31.42.27,0,0,0,0,0,0l2.16-.47c.45-.1.77-.5.78-.96v-7.88c0-.35.28-.64.64-.65,0,0,0,0,0,0h3.67c.47,0,.86.38.86.85,0,.02,0,.04,0,.05l-.15,2.33c-.24-.08-.47-.14-.69-.19-.28-.06-.51-.03-.68.09-.27.2-.36.49-.26.89-.29.33-.67.51-1.15.53-.07,0-.12.06-.12.13v.19s.01.03.03.03h0l2.98-.13c.05,2.97.03,4.87-.09,5.71-.06.44-.39,1.1-.99,1.98-.13.2-.3.38-.49.53-3.76,3.05-7.66,3.08-11.69.09-2.18-1.61-2.05-3.86-2.05-7,.02-12.92.03-20.93,0-24.03,0-.51.11-1.01.33-1.48,1.97-4.15,5.33-5.68,10.08-4.59.94.21,1.58.6,1.92,1.15.07.11.16.21.27.29,1.02.75,1.68,1.34,2,1.79.47.67.69,1.58.68,2.73ZM132.89,56.75c.28.23.54.39.78.49.25.1.4-.09.46-.56.02-.12-.2-.24-.67-.36-.22-.05-.49.02-.6.16-.07.09-.06.19.03.27ZM132.31,56.55c-.1-.18-.41-.19-.69-.03,0,0,0,0,0,0-.28.16-.43.43-.34.61h0c.1.18.41.19.69.03,0,0,0,0,0,0,.28-.16.43-.43.34-.61h0ZM129.89,59.61c-.13.09-.11.35.04.57,0,0,0,0,0,0,.16.23.39.34.52.25,0,0,0,0,0,0,.13-.09.11-.35-.04-.57,0,0,0,0,0,0-.16-.23-.39-.34-.52-.25,0,0,0,0,0,0ZM130.65,61c-.18-.11-.48.06-.66.37h0c-.19.31-.19.65,0,.76h0c.18.11.48-.06.66-.37.19-.31.19-.65,0-.76ZM139.56,63.25c-.96-.44-1.64-.46-2.02-.07-.11.11-.11.3,0,.41.05.05.12.08.2.08h1.74c.12,0,.22-.1.22-.22,0-.09-.05-.17-.13-.2ZM130.47,65.03s-.18,0-.3.12c-.12.11-.17.25-.12.3.05.05.18,0,.3-.12.12-.11.17-.25.12-.3ZM130.74,71.08c0-.15-.3-.26-.66-.24-.36.02-.64.15-.63.3,0,.15.3.26.66.24.36-.02.64-.15.63-.3ZM127.73,74.27c0,.2.29.37.67.39h0c.38.02.69-.13.7-.33h0c0-.2-.29-.37-.67-.39h0c-.38-.02-.69.13-.7.33h0ZM130.56,78.06c0-.16-.32-.28-.71-.27h0c-.39.01-.7.15-.7.31h0c0,.16.32.28.71.27h0c.39-.01.7-.15.7-.31h0ZM129.24,83.05c-.06-.07-.2-.05-.32.04-.11.1-.16.23-.1.31.06.07.2.05.32-.04.11-.1.16-.23.1-.31ZM141.68,86.8c.06-.18.05-.41-.02-.7-.03-.11-.15-.18-.27-.15-.04.01-.07.03-.1.06-.3.3-.45.52-.46.65-.02.24.16.44.4.45.2,0,.39-.12.45-.31ZM135.54,89.1c-.01.17.56.36,1.28.42.72.06,1.32-.03,1.33-.2.01-.17-.56-.36-1.28-.42-.72-.06-1.32.03-1.33.2ZM131.81,89.52c-.21-.17-.55-.21-.75-.07-.15.1-.19.27-.1.43.05.08.26.17.62.29.12.04.25-.03.29-.16.07-.24.05-.4-.06-.49Z"/>
    <path class="cls-4" d="M202.43,87.45l-.84.51c-.06.04-.09.12-.05.18.02.04.06.06.1.07.98.18,1.83.53,2.56,1.06l-.08,2.89c0,.17-.14.3-.31.3l-6.17.03c-.04-.43-.29-.65-.75-.67-.52-.02-.9.2-1.14.64-.75.21-1.31.13-1.68-.22l.12-5.07c.4-.27.86-.37,1.39-.31.4-3.49.38-6.99-.06-10.49l.02-7.97c.35-3.08.32-6.14-.09-9.17l-1.09-.9c-.92-.34-1.76-.17-2.53.51-.1.09-.14.19-.12.3.02.11.09.19.21.25l-.1.45c-.39.39-.83.69-1.31.9-.17.06-.26.25-.2.42.06.16.23.25.39.21.31-.06.54.06.68.35.02.05.03.1.03.16l.23,4.16c-.08.37-.05.66.1.85-.72,1.14.76,3.18-1.39,3.57-.2.04-.36.17-.43.36-.12.3-.37.61-.75.93-.04.04-.05.11,0,.16.02.02.05.04.08.04l.83-.07c.18-.02.3-.17.29-.35,0-.03,0-.05-.02-.08-.01-.04-.06-.1-.14-.17-.12-.11-.14-.3-.03-.42,0,0,0-.01.01-.02.14-.14.39-.19.76-.16.2.02.36.16.41.36.13.49.11,1.03-.05,1.63-.04.16-.05.32-.02.48.27,1.7.26,3.53-.01,5.51-.03.21-.18.38-.39.43-.2.05-.47.03-.82-.09-.1-.03-.21.02-.24.12l-.06.16c-.02.06.01.12.07.14l1.2.43c.22.08.33.31.26.53-.06.17-.22.28-.4.28h-.36c-.11,0-.21.08-.22.2,0,.09.05.17.13.2.31.15.65.17,1.01.04.07.16.15.23.25.23-.16.17-.22.4-.16.72.06.32.04.56-.06.7-.23.33-.25.64-.07.91.19.28.24.59.16.94-.09.4-.18,1.09-.27,2.07-.01.14.02.28.09.4.32.54.84.65,1.56.32l.16,4.96c-.12.15-.3.22-.57.22-2.93,0-5.87-.01-8.81-.05-.29,0-.51-.23-.51-.51v-4.61c0-.27.22-.49.49-.49h.83c.23,0,.42-.19.42-.42h0v-27.27c0-.16-.12-.29-.28-.31-.39-.04-.64-.05-.75-.05-.36.03-.67-.24-.7-.59,0-.01,0-.02,0-.04l-.1-4.34c0-.35.27-.64.62-.65,0,0,0,0,.01,0,2-.02,4.11,0,6.33.03.78.02,1.24.22,1.39.61.11.51.15,1,.13,1.49,0,.25-.1.39-.29.43-.31.07-.49.22-.54.46-.01.08.04.15.11.16.04,0,.09,0,.12-.04.14-.15.22-.24.22-.29,0-.12.13-.23.39-.33.81-.3,1.27-.86,1.39-1.68,2.11-1.3,4.16-1.36,6.15-.18.18.11.3.31.3.52,0,.42.24.65.72.68.22.01.42.12.56.29,1.09,1.38,1.64,2.67,1.67,3.85.1,4.34.11,13.74.03,28.21ZM189.01,54.9c-.08-.15-.44-.11-.8.08-.36.19-.59.47-.51.62.08.15.44.11.8-.08.36-.19.59-.47.51-.62ZM184.59,55.98c0-.14-.12-.26-.26-.26h0c-.14,0-.26.12-.26.26h0c0,.14.12.26.26.26h0c.14,0,.26-.12.26-.26h0ZM193.4,57.07c-.18-.21-.37-.29-.58-.23-.13.03-.21.16-.18.29.01.07.06.12.12.16.02,0,.18.03.5.06.09.01.18-.06.19-.15,0-.05,0-.09-.04-.13ZM186.45,57.49c-.06.13.22.38.63.56.41.18.78.23.84.1.06-.13-.22-.38-.63-.56-.41-.18-.78-.23-.84-.1ZM201.09,57.7c-.01-.15-.22-.26-.46-.24-.24.02-.43.16-.41.31.01.15.22.26.46.24.24-.02.43-.16.41-.31ZM189.05,58.16c0,.09.24.17.55.19.31.02.56-.04.56-.13h0c0-.09-.24-.17-.55-.19-.31-.02-.56.04-.56.13h0ZM187.19,61.13l-.25-1.18c-.03-.15-.17-.25-.32-.25h-.34c-.12,0-.22.09-.22.21,0,.06.02.11.06.15l.98,1.11s.05.02.07,0c.01-.01.02-.03.01-.05ZM198.62,61.31c-.02.1.08.21.22.23h0c.14.03.27-.04.29-.14.02-.1-.08-.21-.22-.23t0,0c-.14-.03-.27.04-.29.14ZM197.6,63.29l3.28.64s.06-.01.07-.04c0,0,0,0,0,0l.02-.08c.06-.26-.62-.62-1.51-.8,0,0-.01,0-.02,0l-.14-.02c-.89-.17-1.66-.1-1.72.16l-.02.09s.01.06.04.07c0,0,0,0,0,0ZM187.91,64.51l-.53,1.38c-.03.06,0,.13.06.16,0,0,0,0,0,0l.09.03c.68.26,1.36.13,1.53-.3,0,0,0,0,0,0l.03-.08c.16-.42-.26-.98-.94-1.24,0,0,0,0,0,0l-.09-.03c-.06-.02-.13,0-.16.07ZM199.84,65.69c-.11.03-.16.15-.13.28.03.13.14.21.25.18,0,0,0,0,0,0,.11-.03.16-.15.13-.28-.03-.13-.14-.21-.25-.18,0,0,0,0,0,0ZM200.97,67.77c-.05.12.07.29.27.38.2.1.41.08.46-.04,0,0,0,0,0,0,.05-.12-.07-.29-.27-.38-.2-.1-.41-.08-.46.04,0,0,0,0,0,0ZM201.86,69.99c0-.19-.16-.35-.35-.35h0c-.19,0-.35.16-.35.35s.16.35.35.35.35-.16.35-.35h0ZM200.18,71.16c-.38-.29-.65-.33-.79-.13-.13.18-.35.26-.56.2-.58-.17-1.1-.2-1.57-.1-.19.04-.3.23-.26.42.03.14.15.25.29.27.86.1,1.58-.04,2.15-.41.06-.04.14-.06.22-.06h.46c.05,0,.1-.04.1-.1,0-.03-.01-.06-.03-.08ZM188.09,73.86c.37-.31.53-.72.47-1.24,0-.09-.08-.15-.17-.14-.04,0-.08.02-.11.06-.39.46-.67,1.06-.82,1.79-.02.1.04.2.15.22.01,0,.03,0,.04,0h2.1c.07,0,.13-.05.14-.11.03-.15-.03-.27-.19-.36-.07-.04-.15-.05-.22-.03-.55.16-.98.22-1.3.17-.11-.02-.19-.12-.17-.23,0-.05.03-.1.07-.13ZM200.62,72.55c-.1.2.09.48.41.64h0c.32.16.66.13.75-.07,0,0,0,0,0,0,.1-.2-.09-.48-.41-.64h0c-.32-.16-.66-.13-.75.07,0,0,0,0,0,0ZM198.79,72.73c0-.11-.47-.18-1.03-.16-.56.03-1.02.14-1.01.26,0,.11.47.18,1.03.16.56-.03,1.02-.14,1.01-.26ZM197.11,76.43l1.63-.36c.06-.01.1-.07.09-.13,0,0,0,0,0,0l-.05-.21c-.02-.1-.11-.16-.21-.14l-1.47.32c-.07.01-.12.07-.12.13l-.03.24c0,.07.04.14.11.15.01,0,.03,0,.04,0ZM190.11,77.45c.08-.09.08-.24-.02-.32-.02-.02-.04-.03-.07-.04-.11-.04-.19-.05-.25-.02-.1.05-.13.17-.07.28.02.03.04.06.07.08.14.1.25.11.34.02ZM201.28,77.49c0-.12-.25-.21-.55-.19-.29.02-.52.13-.52.26h0c0,.12.25.21.55.19.29-.02.52-.13.52-.26h0ZM200.86,80.94c.03-.08,0-.16-.07-.2,0,0-.01,0-.02,0-.51-.17-1-.27-1.47-.3-.17-.01-.32.11-.34.28-.01.11.03.21.12.27.06.04.18.08.35.11.15.03.28,0,.39-.06.28-.17.55-.18.79-.02.08.05.18.03.23-.05,0,0,0-.01.01-.02h0ZM187.18,80.91c0-.13-.19-.22-.41-.2h0c-.22.02-.39.13-.38.26,0,.13.19.22.41.2.22-.02.39-.13.38-.26ZM200.4,82.59c-.02-.16-.31-.26-.64-.22h0c-.33.04-.59.21-.57.37h0c.02.16.31.26.64.22h0c.33-.04.59-.21.57-.37,0,0,0,0,0,0ZM188.95,84.87c-.01.16.18.31.42.33.25.02.46-.09.47-.26.01-.16-.18-.31-.42-.33-.25-.02-.46.09-.47.26ZM198.89,85.45c0-.14-.11-.25-.25-.25h0c-.14,0-.25.11-.25.25h0c0,.14.11.25.25.25s.25-.11.25-.25ZM189.6,85.93c-.26.11-.35.48-.2.82h0c.15.34.48.53.73.41.26-.11.35-.48.2-.82h0c-.15-.34-.48-.53-.73-.41ZM184.83,88.65c0-.14-.12-.26-.26-.26h0c-.14,0-.26.12-.26.26s.12.26.26.26c.14,0,.26-.12.26-.26h0ZM189.62,88.46c-.1.11.07.41.38.68h0c.3.26.63.39.72.28h0c.1-.11-.07-.41-.38-.68t0,0c-.3-.26-.63-.39-.72-.28,0,0,0,0,0,0ZM198.59,89.4c.09.27.23.48.4.65.12.11.31.11.42-.01.07-.07.09-.17.07-.26-.02-.1-.25-.28-.68-.55-.07-.04-.16-.02-.2.05-.02.04-.02.08-.01.12ZM186.62,90.36c0-.11-.48-.19-1.08-.19h0c-.59,0-1.08.1-1.07.21,0,.11.48.19,1.08.19,0,0,0,0,0,0,.59,0,1.08-.1,1.07-.21Z"/>
    <path class="cls-4" d="M216.72,53.81c-.07.49.16.75.7.78.36.02.5-.17.43-.57l.56-.55c.13-.13.3-.19.48-.19l3.72.08c-.35.5-.12.89.71,1.17l.14,12.48c0,.42-.32.76-.74.76-.05,0-.1,0-.15-.01-1.1-.2-2.16-.22-3.18-.07-.5.08-.97-.27-1.04-.76,0-.04-.01-.09-.01-.13-.01-2.17-.04-4.23-.09-6.19-.04-1.45-.79-2.07-2.26-1.86-.65.09-1.16.52-1.26,1.06-.24,1.29-.26,2.61-.05,3.95.02.16.08.31.16.44.33.56.56,1.18.69,1.84-.23.05-.41.13-.56.24-.09.07-.11.21-.04.3.02.03.05.05.08.06.27.13.51.09.72-.12.51.63.88,1.34,1.09,2.13.05.17.17.31.33.38.25.11.45.39.61.83.1.28.21.52.35.72,2.02,3.07,3.24,5.01,3.67,5.84,2.34,4.55,2.48,9.05.44,13.5-.07.16-.17.3-.28.43-1.81,2.08-4.13,2.8-6.94,2.18-.28-.07-.72-.36-1.32-.87-.12-.34-.35-.53-.69-.59-.17-.03-.33.09-.35.26,0,.01,0,.03,0,.04,0,.14.05.27.16.39.08.58-.06.87-.41.86-.12,0-1.57-.07-4.36-.19-.29-.01-.51-.25-.51-.53l.06-10.86s0-.04,0-.05c-.19-.99-.18-1.96.05-2.92.05-.21.24-.36.46-.36h3.27c.14,0,.27.07.34.19.13.22.34.31.62.3.22-.01.4.16.42.38,0,0,0,0,0,0,.09,2.6-.41,5.5,1.1,8.05.1.17.28.28.47.29,1.05.09,1.74-.14,2.06-.7.99-1.71.5-2.97.17-4.69-.06-.3-.15-.59-.27-.88-1.89-4.37-4.61-7.75-6.88-12.15-1.83-3.55-2.31-6.98-1.45-10.3.4-1.52,1.36-2.89,2.89-4.14,1.66-1.35,3.64-1.43,5.93-.24ZM213.51,56.32c-.05-.12-.31-.12-.58,0-.27.12-.44.31-.39.43,0,0,0,0,0,0,.05.12.31.12.58,0,.27-.12.44-.31.39-.43,0,0,0,0,0,0ZM217.25,56.46c-.02.17.24.33.58.37h0c.34.04.62-.07.64-.23h0c.02-.17-.24-.33-.58-.37h0c-.34-.04-.62.07-.64.23,0,0,0,0,0,0ZM212.34,57.85c-.07-.18-.23-.22-.48-.12-1.69.62-2.5,1.03-2.42,1.23.08.22.96-.01,2.62-.71.25-.1.34-.24.28-.4ZM212.52,60.42c0-.06-.02-.13-.05-.2-.09-.17-.3-.25-.48-.17-.49.22-1.03.31-1.63.27-.15,0-.29.11-.29.27h0c0,.11.05.21.17.3.12.09.28.1.41.04.81-.38,1.38-.51,1.71-.39.06.02.13-.01.16-.08,0-.01,0-.02,0-.04ZM219.74,60.8c-.11-.11-.28-.11-.39,0-.03.03-.06.07-.07.12-.1.33-.03.55.21.66.19.09.43.03.53-.13.06-.09.06-.21.01-.31-.03-.05-.12-.17-.29-.34ZM219.29,63.63c0,.13.59.25,1.33.28.74.02,1.34-.07,1.35-.2h0c0-.13-.59-.25-1.33-.28-.74-.02-1.34.07-1.35.2h0ZM209.56,64.41c0,.08.03.15.08.23.04.06.11.08.19.08,1.24-.02,1.85-.17,1.84-.43-.01-.26-.64-.33-1.87-.21-.08,0-.14.04-.18.1-.04.08-.06.15-.05.23ZM213.53,65.82c-.04-.16-.81-.11-1.73.11-.92.22-1.63.52-1.59.68h0c.04.16.81.11,1.73-.11.92-.22,1.63-.52,1.59-.68h0ZM213.05,69.29c-.1-.08-.32.02-.47.22h0c-.16.2-.2.43-.1.52,0,0,0,0,0,0,.1.08.32-.02.47-.22h0c.16-.2.2-.43.1-.52,0,0,0,0,0,0ZM215.8,70.99c0-.12-.46-.22-1.02-.22-.57,0-1.02.1-1.02.23h0c0,.12.46.22,1.02.22.57,0,1.02-.1,1.02-.23h0ZM216.03,77.57c.51-.21,1.1-.27,1.76-.17.27.04.47.27.47.53,0,.43.07.72.2.87.07.09.21.11.3.03.06-.05.09-.13.08-.21-.34-1.62-1.23-2.24-2.68-1.86-.23.06-.41.24-.46.47v.05c-.04.13.04.27.18.3.05.01.11,0,.16-.01ZM209.06,79.3c-.08.09.04.34.27.54,0,0,0,0,0,0,.23.21.49.3.57.2.08-.09-.04-.34-.27-.54t0,0c-.23-.21-.49-.3-.57-.2ZM221.44,80.49c.06-.13.01-.29-.15-.48-.07-.08-.16-.14-.25-.16-.74-.2-1.14-.24-1.19-.12-.06.12.22.4.84.85.08.06.18.1.29.1.24,0,.4-.06.46-.19ZM210.28,81.51c.07-.07.05-.18-.05-.32-.1-.14-.19-.15-.27-.01-.09.14-.13.24-.12.3.02.12.16.18.3.14.05-.02.1-.05.14-.09ZM209.02,82.02c0-.14-.11-.25-.25-.25h0c-.14,0-.25.11-.25.25h0c0,.14.11.25.25.25h0c.14,0,.25-.11.25-.25h0ZM221.15,83.03c.13-.28.3-.53.51-.74.09-.09.09-.23,0-.32-.05-.05-.12-.07-.2-.06-.22.03-.54.21-.98.54-.12.09-.15.27-.05.39,0,0,0,.01.01.02l.22.25c.11.12.29.13.41.03.03-.03.05-.06.07-.1ZM218.9,83.78c-.03-.18-.23-.29-.44-.25,0,0,0,0,0,0-.21.04-.36.21-.33.39h0c.03.18.23.29.44.25,0,0,0,0,0,0,.21-.04.36-.21.33-.39,0,0,0,0,0,0ZM221.08,84.32c0-.16-.13-.29-.29-.29s-.29.13-.29.29.13.29.29.29.29-.13.29-.29ZM210.85,84.78c0-.25-.2-.46-.46-.46h0c-.25,0-.46.2-.46.46h0c0,.25.2.46.46.46h0c.25,0,.46-.2.46-.46h0ZM218.21,85.96c-.07.18.1.4.37.51h0c.27.11.55.05.61-.13.07-.18-.1-.4-.37-.51t0,0c-.27-.11-.55-.05-.61.13ZM221.59,86.95l.71-.16c.13-.02.21-.14.19-.27-.02-.1-.1-.17-.2-.19-.28-.05-.54.11-.79.48-.03.04-.02.09.02.12.02.01.05.02.07.01ZM210.4,86.95c-.43-.32-.76-.48-.99-.47-.26,0-.46.22-.45.48,0,.16.09.31.23.39.32.19.72.19,1.17-.02.11-.05.16-.18.11-.29-.02-.03-.04-.06-.07-.08ZM221.03,87.61c-.21.51-.37.81-.5.89-.06.04-.09.12-.08.19.02.09.08.17.18.22.04.02.09.02.13-.02.46-.51.66-.92.6-1.24-.02-.1-.11-.16-.21-.14-.06.01-.11.05-.13.1ZM219.33,88.67c-.15-.1-.43-.1-.85.01-.2.05-.59-.02-1.17-.22-1.32-.45-2.7-.25-4.14.59-.08.05-.11.16-.06.25.03.04.07.07.12.08.64.09,1.43,0,2.36-.31.04-.02.09-.02.13-.02l3.5-.04c.1,0,.19-.09.18-.2,0-.06-.03-.11-.08-.15ZM220.05,89.24c-.2-.01-.31.02-.35.1-.06.13.01.26.15.3.11.03.24,0,.32-.1.05-.05.03-.14-.05-.25-.02-.03-.05-.05-.08-.05ZM210.35,90.58c-.37.05-.57.08-.59.09-.18.07-.27.27-.2.45.16.44.47.62.94.56.47-.07.72-.33.76-.79.01-.19-.13-.35-.32-.37-.02,0-.22.02-.59.08Z"/>
    <path class="cls-4" d="M243.34,67.3c-.29.3-.38,1.05-.27,2.24.01.13-.07.24-.2.27-.32.06-.52.18-.62.38-.07.13-.02.28.11.35.05.03.1.03.16.03.04,0,.08-.02.11-.02.24-.08.51.04.59.29,0,0,0,0,0,0,.1.29.03.6-.24.91-.14.17-.38.19-.55.06,0,0,0,0,0,0l-.35-.3c-.11-.09-.26-.07-.35.04-.02.02-.03.05-.04.08-.06.19-.06.33,0,.43.04.07.12.14.22.17l1.43.47-.02,5.92-1.71.23c-.12.02-.21.12-.21.24v.2c0,.12.1.23.23.23h1.71s-.12,6.89-.12,6.89c-.72.66-1.46.74-2.22.24-.13-.08-.3-.06-.39.06-.12.14-.14.32-.08.55.05.17.22.28.39.25.75-.12,1.41,0,1.98.32-.26.69-.6,1.19-1.02,1.49-.24-.29-.49-.42-.75-.42-.34.01-.53.19-.58.53-.05.35.06.81.32,1.38-2.15,1.8-4.7,2.33-7.65,1.6-2.42-.61-4.11-1.85-5.07-3.74-.61-1.21-.91-3.24-.89-6.1.07-11.68.09-17.89.05-18.63-.19-3.56.1-5.94.84-7.14,2.49-3.99,6.84-4.33,11.1-3.13.19.05.34.21.38.4,0,.02,0,.04.01.06,0,.12.07.22.16.3l2.31,1.75c.12.09.22.2.28.34.63,1.35.96,2.69.99,4.02.03,1.22.02,3.48-.03,6.76ZM231.91,57.02c-.21-.13-.57.09-.8.48-.23.39-.25.81-.04.93h0c.21.13.57-.09.8-.48,0,0,0,0,0,0,.23-.39.25-.81.04-.93h0ZM235.68,87.58c.87-.29,1.3-.91,1.31-1.87.04-8.38.06-16.77.06-25.16,0-.97-.33-1.65-1-2.04l.8-.83c.09-.1.09-.25,0-.34-.04-.04-.09-.06-.14-.07l-.32-.04c-.14-.02-.28.06-.33.2-.19.51-.49.7-.91.58-.21-.06-.43,0-.57.17l-1.24,1.48c-.1.12-.15.27-.15.42v8.15c0,.46-.38.84-.84.84h-1.72c-.07,0-.13.06-.13.13h0v.2c0,.06.05.1.1.11,0,0,.01,0,.02,0l2.22-.3c.15-.02.29.09.31.24,0,.01,0,.02,0,.04v3.48c0,.27-.22.49-.49.49h-.28c-.27,0-.48.23-.48.5,0,.24.18.43.41.47l.5.06c.17.02.3.14.34.31.13.61.11,1.25-.08,1.91-.05.18-.05.37.01.55.19.59.2,1.13.03,1.6-.05.13-.19.2-.32.15-.04-.01-.07-.03-.1-.06-.64-.66-1.39-.81-2.26-.46-.1.05-.15.16-.11.26.03.06.09.11.15.12l2.05.26c.42.05.73.41.73.83v3.52c0,.43-.35.78-.78.78-.02,0-.05,0-.07,0-1.13-.11-2.02-.32-2.67-.65,0,0-.02,0-.03-.01-.17-.03-.28.03-.34.2-.02.05,0,.11.06.14.64.32,1.56.88,2.38.72.27-.05.63-.05,1.06.01.2.03.36.17.4.36.18.73-.01,1.19-.58,1.41-.09.03-.13.13-.1.21.02.05.06.08.11.1.51.17.97.52,1.38,1.08.13.17.32.29.53.33.46.09.82-.09,1.07-.54ZM229.28,60.5c1.13-.03,1.83.2,2.08.69.08.16.28.23.44.15.03-.01.05-.03.07-.05l.18-.16c.16-.14.18-.38.04-.54-.02-.02-.04-.04-.06-.05-.92-.71-1.86-.83-2.83-.36-.08.05-.11.15-.06.24.03.05.08.09.15.09ZM240.79,62.56c0,.12.15.22.34.22h0c.18,0,.33-.11.32-.23h0c0-.12-.15-.22-.34-.22h0c-.18,0-.33.11-.32.23h0ZM241.29,64.15c-.09.17.12.46.48.65,0,0,0,0,0,0,.35.19.71.21.8.05.09-.17-.12-.46-.48-.65,0,0,0,0,0,0-.35-.19-.71-.21-.8-.05ZM240.05,68.74c0-.1-.25-.18-.55-.18,0,0,0,0,0,0-.3,0-.54.09-.54.19h0c0,.1.25.18.55.18,0,0,0,0,0,0,.3,0,.54-.09.54-.19h0ZM231.16,71.52c.13.06.29,0,.34-.14.05-.12,0-.27-.12-.33-.46-.29-.94-.37-1.47-.24-.07.02-.11.1-.09.17.01.04.04.07.08.09l1.26.45ZM229.28,74.35c-.03.11.22.28.56.39h0c.34.11.65.1.68,0h0c.03-.11-.22-.28-.56-.39h0c-.34-.11-.65-.1-.68,0,0,0,0,0,0,0ZM239.81,75.31c.52-.21,1.09-.33,1.71-.35.08,0,.14-.07.14-.14v-.15c0-.14-.11-.25-.25-.25,0,0,0,0-.01,0-.62.02-1.21.22-1.76.6-.08.05-.12.15-.07.24s.15.12.24.07h0ZM241.41,77.14c.19-.2.16-.4-.09-.6-.7-.54-1.11-.75-1.21-.63-.11.12.12.51.71,1.17.2.24.4.26.6.05ZM228.86,78.14c.05-.13.07-.26.06-.39-.01-.1-.1-.16-.2-.15-.05,0-.1.04-.13.08-.1.15-.1.31-.01.46.04.08.14.11.21.07.03-.02.06-.04.07-.08ZM240.27,78.23l1.34.17c.06,0,.13-.01.17-.05.16-.13.16-.31,0-.55-.09-.12-.24-.18-.39-.15l-1.15.25c-.09.02-.15.11-.13.2.02.07.07.12.15.14ZM230.31,79.67c-.03-.15-.26-.22-.52-.17s-.44.21-.41.36h0c.03.15.26.23.52.17s.44-.21.41-.36t0,0ZM230.24,82.69c.24.15.42.22.54.19.15-.04.25-.19.21-.34,0-.04-.03-.08-.05-.11-.37-.47-.62-.57-.78-.29-.13.25-.11.43.08.55ZM241.37,81.97c-.27-.09-.46-.11-.57-.08-.09.03-.11.14-.05.25.02.04.06.08.1.1.09.06.27.06.52,0,.08-.02.12-.09.1-.17-.01-.05-.05-.09-.09-.1ZM240.58,86.23c.02-.35-.3-.96-.97-1.84-.2-.27-.4-.37-.6-.31-.27.08-.47.24-.62.47-.07.12-.04.27.07.34.07.05.16.05.23.02.77-.36,1.3.08,1.58,1.34.02.08.11.13.19.11.06-.02.11-.07.12-.14ZM235.52,90.68c-.94-.44-1.6.3-2.23-1.05-.06-.13-.2-.19-.34-.16-.14.04-.24.13-.29.25-.05.13,0,.26.12.32.54.27.9.56,1.08.86.09.15.24.25.41.27.44.06.85,0,1.25-.17.09-.04.13-.15.09-.24-.02-.04-.05-.07-.09-.09ZM237.97,90.08c-.07-.13-.3-.14-.53-.03h0c-.23.11-.36.31-.29.45,0,0,0,0,0,0,.07.13.3.14.53.03h0c.23-.11.36-.31.29-.45,0,0,0,0,0,0Z"/>
    <path class="cls-4" d="M265.97,58.75c-.66-.34-1.39-.34-2.21.01-.1.04-.14.16-.09.25.03.07.1.11.18.11l2.13-.08.19,27.95c0,.21.17.38.39.38h1c.18,0,.32.15.32.33h0v4.45c0,.22-.18.39-.39.39h-8.95c-.42,0-.76-.34-.76-.75h0v-4.46c0-.24.2-.44.45-.44h.34c.42,0,.75-.34.75-.75l-.02-25.92c.24-.81.1-1.52-.44-2.12-.12-.14-.31-.2-.49-.16-.79.2-1.53.25-2.22.14-.17-.03-.34.09-.36.27,0,.02,0,.05,0,.07.08,1.01-.39,1.49-1.39,1.43-.09,0-.17.07-.18.16,0,0,0,.02,0,.02h0c0,.08.07.13.14.13,0,0,0,0,0,0,.45-.06.88.02,1.27.22l-.04.55-1.2.02c-.14,0-.25.12-.25.25,0,.02,0,.03,0,.05l.04.19c.05.23.27.38.5.34.35-.06.69-.04,1.01.05l.02,23.91c-.73.43-1.31.17-1.76-.76-.07-.13-.22-.2-.36-.16-.04,0-.11.05-.21.13-.13.1-.16.29-.06.42.02.03.06.06.09.08l1.75,1.01c.15.09.26.24.3.41.09.45.42.75.99.9.23.06.4.24.47.46.1.37.09.71-.02,1.02-.03.09-.1.16-.19.19-.2.08-.29.19-.27.34.01.06.05.11.1.14l.58.29c.13.66.13,1.33-.01,2.02-.04.19-.2.32-.39.32h-9.23c-.29,0-.53-.24-.53-.53h0v-4.71c0-.23.19-.42.42-.42,0,0,.01,0,.02,0,.49.02.82,0,.97-.03.19-.05.33-.23.33-.43v-27.23c0-.13-.1-.24-.24-.25-.44-.01-.87-.18-1.27-.51-.15-.12-.24-.3-.24-.5v-4.4c0-.16.13-.29.28-.29,2.33-.02,4.63-.02,6.91,0,.86,0,1.37.46,1.54,1.34-.26.1-.32.32-.18.66.09.22.35.33.57.24.04-.02.08-.04.11-.07.35-.29.44-.57.27-.85,1.44-1.37,3.14-1.82,5.08-1.34.53.13.96.37,1.3.72.54.57.89.92,1.06,1.05,1.19.93,1.87,2.18,2.04,3.75ZM261.59,54.46c-.06-.15-.43-.15-.83,0-.4.15-.69.4-.63.55.06.15.43.15.83,0,.4-.15.69-.4.63-.55ZM252.63,55.52c.05.14.75-.06,2.11-.58.05-.02.08-.05.09-.09,0-.02,0-.05-.01-.08,0-.03-.02-.05-.04-.06-.03-.03-.07-.04-.12-.02-1.4.42-2.07.7-2.02.84ZM256.02,55.96c-.06.47-.07.74-.01.79.13.12.33.11.45-.02.02-.02.04-.05.06-.08.03-.07-.06-.31-.28-.72-.03-.06-.1-.08-.15-.05-.04.02-.06.05-.07.1ZM254.34,56.67c.17.05.37-.03.43-.19.03-.08.02-.17-.02-.25-.13-.2-.62.02-.52.3.03.08.07.12.12.14ZM264.78,57.26h-2.47c-.17-.02-.32.11-.34.28-.01.16.1.31.26.34.81.22,1.67.05,2.59-.5.03-.01.05-.05.03-.08-.01-.03-.04-.04-.07-.04ZM261.19,58.27c-.08,0-.14.02-.18.04-.02.01-.03.05-.01.08,0,0,0,0,0,.01.05.04.12.03.22-.04.02-.01.03-.04,0-.07-.01-.01-.03-.02-.04-.02ZM251.97,60.71c-.81-.08-1.28-.06-1.39.06-.07.07-.07.18,0,.25.03.03.06.05.1.05.43.05.86,0,1.31-.15.05-.02.08-.08.07-.13-.01-.04-.05-.07-.09-.07ZM253.88,62.77c-.12.2-.09.37.08.51.18.15.46.19.63.08.1-.07.14-.17.1-.28-.02-.06-.22-.18-.6-.38-.07-.04-.16,0-.2.06ZM261.26,64.87c.15-.05.33-.05.54-.02.16.02.3-.1.32-.25,0-.07,0-.14-.05-.2-.15-.22-.22-.44-.21-.68,0-.13-.09-.24-.21-.25-.11,0-.2.06-.24.16l-.36,1.01c-.03.09.02.2.11.23.04.01.07.01.11,0ZM262.54,63.67c-.02.19.52.4,1.2.45h0c.68.06,1.24-.05,1.26-.25h0c.02-.19-.52-.4-1.2-.45t0,0c-.68-.06-1.24.05-1.26.25h0ZM253.62,66.79c.03-.2-.1-.33-.39-.39-1.96-.34-2.96-.39-3-.16-.04.26.93.52,2.9.78.3.04.46-.04.49-.23ZM261,67.59c0,.12.21.23.49.24.28.02.51-.07.51-.19,0-.12-.21-.23-.49-.24-.28-.02-.51.07-.51.19ZM263.75,68.77c0-.11-.16-.18-.35-.17h0c-.18.01-.33.11-.32.22s.16.18.35.17h0c.18-.01.33-.11.32-.22ZM253.57,69.88c0-.16-.14-.3-.33-.3h0c-.19,0-.35.12-.35.27h0c0,.16.14.3.33.3h0c.19,0,.35-.12.35-.27h0ZM261.29,69.99c-.09.09.02.35.24.56.22.22.48.31.57.22.09-.09-.02-.35-.24-.56-.22-.22-.48-.31-.57-.22ZM250.09,70.78c-.12.18.06.5.4.72,0,0,0,0,0,0,.34.22.7.26.82.08.12-.18-.06-.5-.4-.72h0c-.34-.22-.7-.26-.82-.08t0,0ZM253.01,71.29c-.12-.09-.28-.04-.36.13-.04.08-.06.18-.05.26.01.1.08.15.2.17.18.02.26-.05.26-.22,0-.2-.02-.31-.06-.34ZM252.12,73.35c-.13-.13-.39-.09-.57.1-.18.18-.22.44-.09.57.13.13.39.09.57-.1.18-.18.22-.44.09-.57ZM260.9,73.97c-.03.15.43.38,1.05.52,0,0,0,0,0,0,.61.14,1.14.14,1.17,0,.03-.15-.43-.38-1.05-.52,0,0,0,0,0,0-.61-.14-1.14-.14-1.17,0ZM252.43,76.78c-.04-.19-.27-.3-.51-.24,0,0,0,0,0,0-.24.06-.4.26-.35.45h0c.04.19.27.3.51.24,0,0,0,0,0,0,.24-.06.4-.26.35-.45h0ZM261.93,77.33c-.03.23.45.48,1.07.57,0,0,0,0,0,0,.62.09,1.15-.03,1.19-.26h0c.03-.23-.45-.48-1.07-.57,0,0,0,0,0,0-.62-.09-1.15.03-1.19.26h0ZM249.8,78.1c0,.15.25.28.56.28.31,0,.57-.12.57-.27h0c0-.15-.25-.28-.56-.28-.31,0-.57.12-.57.27h0ZM253.8,80.28c-.06-.17-.15-.27-.26-.3-.14-.03-.27.05-.31.19,0,0,0,0,0,0-.13.58-.39.82-.8.71-.22-.06-.44.08-.5.3,0,0,0,.01,0,.02-.13.64-.72.84-1.75.61-.09-.02-.19.03-.22.12l-.05.14c-.02.06.01.13.07.16.01,0,.03,0,.04,0h2.08c.23,0,.44-.13.55-.34.38-.73.74-1.21,1.09-1.45.06-.04.08-.11.06-.17ZM262.31,80.94l.21.95c.06.25.28.43.54.43h1.83c.1,0,.19-.08.19-.19v-.17c0-.16-.13-.29-.29-.29,0,0-.01,0-.02,0-.83.04-1.57-.25-2.21-.88-.06-.06-.16-.05-.21.01-.03.03-.04.08-.04.13ZM264.86,83.14c-.03-.12-.33-.14-.66-.05,0,0,0,0,0,0-.33.09-.57.27-.53.39h0c.03.12.33.14.66.05,0,0,0,0,0,0,.33-.09.57-.27.53-.39h0ZM251.73,86.22c.06-.05.09-.1.1-.17.01-.06-.01-.12-.07-.17-.75-.7-1.15-1.03-1.2-.98-.05.04.22.48.82,1.32.05.07.11.1.17.09.07,0,.13-.03.19-.08ZM259.72,88.44c-.06-.16-.31-.21-.55-.12-.24.09-.38.3-.32.46.06.16.31.21.55.12.24-.09.38-.3.32-.46ZM251.16,91.31c-.57-.18-1.2-.25-1.87-.21-.21.01-.38.19-.38.4v.03c.02.19.19.32.38.3l1.84-.19c.09,0,.16-.08.16-.18,0-.07-.05-.14-.12-.15Z"/>
    <path class="cls-4" d="M286.77,53.87c.72.96,1.1,1,1.15.12l.62-.57c.12-.1.26-.16.42-.16h3.71c.38,0,.71.26.8.64.12.55.07,1.2-.16,1.95-.8.04-1.2.36-1.18.94,0,.16.14.29.3.29.01,0,.02,0,.03,0,.29-.04.58-.2.87-.49.32.98.34,1.94.06,2.88-.36.08-.65.25-.87.51-.06.08-.05.2.03.26.03.02.06.04.1.04.21.01.43-.05.66-.2.17.26.26.51.27.76.08,2.29.07,4.43-.04,6.42-.02.25-.22.45-.47.45h-4.04c-.36,0-.65-.29-.65-.65h0v-6.59c0-.97-.79-1.76-1.77-1.76h-.29c-.88,0-1.58.71-1.58,1.59v3.39c0,.1.03.19.08.28.36.55.52,1.08.5,1.6-.01.17.1.33.27.38.26.07.37.27.32.59-.02.13,0,.27.08.39l1.86,3c-.93.66-1.76,1.41-2.51,2.24-.46.51-1.02.3-1.32.52-.08.06-.1.18-.04.27.03.03.06.06.1.07.3.08.63.1.99.05.19-.03.32-.19.31-.38-.02-.37.2-.61.68-.72.25-.05.51-.26.76-.62.29-.41.69-.69,1.2-.83.39.33.69.78.9,1.36.06.17.18.31.34.39.34.18.49.41.46.69-.25.04-.43.23-.56.56-.07.19-.23.34-.43.38l-.76.17c-.12.03-.2.15-.17.27l.04.18c.02.07.09.12.16.11,0,0,.02,0,.03,0,.74-.35,1.51-.54,2.3-.59,2.34,3,3.48,6.42,3.41,10.24,0,.46-.05.98-.13,1.58-.19,1.42-.64,2.74-1.34,3.97-1.11,1.95-2.89,2.92-5.35,2.92-1.26,0-2.28-.37-3.07-1.1-.42-.53-1.11-.85-2.08-.98-.18-.02-.36.05-.46.2-.31.43-.42.97-.34,1.63-1.05.17-2.06.14-3.05-.08-.18-.04-.31-.2-.31-.39v-13.44c0-.48.39-.87.87-.87h3.08c.68,0,1.23.55,1.23,1.23v3.46c-.83.16-1.64.03-2.42-.38-.06-.03-.13-.01-.16.05,0,.02-.01.04-.01.06v.2c0,.05.03.1.09.12.84.32,1.69.51,2.56.55.07,1.29.41,2.5,1,3.62.08.15.23.26.39.28,2.43.36,3.16-1.74,2.78-3.77-1.45-7.86-10.16-13.74-9.32-22.85.27-2.98,1.47-5.13,3.59-6.47,1.74-1.1,3.59-1.07,5.54.08ZM284.45,53.84c-.07-.19-.49-.22-.93-.06-.44.16-.74.45-.67.65.07.19.49.22.93.06.44-.16.74-.45.67-.65ZM283.74,56.01c0-.14-.11-.25-.25-.25s-.25.11-.25.25.11.25.25.25h0c.14,0,.25-.11.25-.25h0ZM281.04,56.07c-.11.14-.03.39.17.56.21.16.47.18.58.04h0c.11-.14.03-.39-.17-.56-.21-.16-.47-.18-.58-.04h0ZM279.3,57.65c0,.21.21.39.48.4.27,0,.5-.16.51-.37,0-.21-.21-.39-.48-.4-.27,0-.5.16-.51.37ZM289.68,58.62c.34.13.67.26,1.02.39.06.02.13-.01.15-.07.01-.04,0-.08-.02-.11-.27-.34-.59-.58-.96-.72-.36-.14-.76-.17-1.19-.1-.07.01-.11.08-.1.14,0,.04.04.07.07.09.35.13.69.26,1.02.39ZM281.45,59.75c-.21-.26-.64-.25-.96.01-.32.26-.4.68-.19.94h0c.21.26.64.25.96-.01.32-.26.4-.68.19-.94t0,0ZM281.66,64.68c.05.09.17.11.26.05.03-.02.05-.05.07-.08.11-.22.13-.4.05-.51-.09-.13-.27-.18-.4-.1-.06.03-.1.09-.12.15-.03.12.01.29.14.49ZM290.12,64.18c-.17-.12-.45-.03-.61.21h0c-.17.24-.16.52.01.65.17.12.45.03.61-.21,0,0,0,0,0,0,.17-.24.16-.52-.01-.65ZM286.96,76.41c0-.19-.42-.33-.93-.32h0c-.51,0-.92.16-.92.35h0c0,.19.42.33.93.32,0,0,0,0,0,0,.51,0,.92-.16.92-.35h0ZM288.97,78.69s.06-.17.11-.47c.04-.2.2-.37.4-.41l.59-.13c.05-.01.1-.05.12-.1.13-.34-.15-.42-.85-.24-.11.03-.19.1-.23.21l-.36.98c-.03.08.02.16.09.19.04.02.09,0,.13-.02ZM278.72,80.57c-.03.22.19.44.49.48.3.04.56-.11.59-.34.03-.22-.19-.44-.49-.48-.3-.04-.56.11-.59.34h0ZM289.79,83.69c-.01-.14-.29-.23-.63-.2h0c-.33.03-.6.17-.58.31h0c.01.14.29.23.63.2h0c.33-.03.6-.17.58-.31h0ZM288.54,85.45c-.02.19.24.37.58.41.34.03.63-.09.65-.28.02-.19-.24-.37-.58-.41-.34-.03-.63.09-.65.28ZM291.38,87.54c-1.21.6-2.38.59-3.49-.02-.13-.08-.3-.03-.37.1-.02.03-.03.06-.03.09-.05.27.1.53.43.79.15.11.33.15.51.11.96-.23,1.94-.39,2.95-.49.23-.02.33-.16.31-.42-.01-.11-.11-.2-.23-.19-.03,0-.05,0-.07.02Z"/>
    <path class="cls-4" d="M97.08,55.04c-.42-.1-.74-.1-.97-.02-.52.18-.52.39-.02.65.24.12.58.15,1.01.08l.03,20.57c-.3.25-.57.42-.82.51-.11.05-.16.17-.12.28.04.09.13.14.22.13l.64-.09v2.95s-1.13-.09-1.13-.09c-.12-.01-.24.04-.32.13-.25.3-.28.56-.08.79.08.09.21.12.32.08l1.24-.52c.06,1.43.06,2.83,0,4.21-.05,1.05.22,2,.79,2.85-.97,1.19-1.53-.31-2.49.54-.07.07-.08.18-.01.25.03.03.07.05.11.05.72.08,1.21.29,1.48.62.12.15.35.18.5.06.02-.01.03-.03.05-.04.28-.32.65-.5,1.11-.54.25-.02.48-.17.6-.39l.35-.62c.93.03,1.4-.49,1.41-1.56.04-8.2.05-17.06.03-26.58,0-.23-.18-.41-.41-.41h-1.37c-.46,0-.83-.37-.83-.82v-4.19c0-.37.3-.67.67-.67h7.62c.62,0,1.12.5,1.12,1.12h0v22.27c-.36.02-.65.1-.89.24-.16.09-.23.28-.16.45.14.36.46.62.97.79l.32,8.91c0,.17.15.31.32.3,0,0,0,0,0,0,.59-.02.81.18.66.6-.51.66-1.33,1.08-2.47,1.27-.13.02-.22.14-.2.28.02.11.1.19.21.21.46.07.89.03,1.3-.11.22-.08.47-.02.63.15l.62.65c.15.61.09,1.23-.17,1.88-.07.17-.23.28-.42.27l-6.95-.19c.35-.4.79-.68,1.32-.86.1-.03.15-.14.12-.24-.01-.04-.04-.07-.08-.1-.03-.02-.1,0-.22.06-.05.02-.11.04-.19.05-1.18.15-2.26.51-3.24,1.08-1.49.5-3.02.53-4.6.09-.14-.04-.26-.13-.35-.25-.01-.02-.03-.05-.04-.09-.03-.1-.11-.17-.21-.19-2.13-.43-3.38-3.2-3.62-5.12-.02-.14-.02-1.43-.02-3.88,0-14.55,0-22.49-.01-23.83,0-.14-.1-.26-.24-.28-.2-.03-.42,0-.65.06-.13.04-.26-.04-.3-.16,0-.03-.01-.06,0-.1.02-.15-.07-.25-.26-.28-.18-.03-.31-.18-.31-.36v-4.36c0-.17.14-.31.31-.31h7.1c.62,0,1.13.51,1.13,1.13,0,.06,0,.13-.02.19l-.08.46ZM105.69,54.27c0-.14-.38-.25-.84-.24-.46,0-.84.13-.83.27h0c0,.14.38.25.84.24.46,0,.84-.13.83-.27h0ZM101.21,54.31c-.1.15.07.44.38.63,0,0,0,0,0,0,.31.19.64.23.73.07.1-.15-.07-.44-.38-.63,0,0,0,0,0,0-.31-.19-.64-.23-.73-.07ZM94.92,55.58c.12-.06.16-.22.08-.36-.01-.03-.03-.05-.05-.07-.08-.08-.17-.14-.28-.17-.11-.03-.21,0-.3.1-.14.18-.22.3-.23.37-.02.15.08.28.22.31.04,0,.08,0,.11,0,.1-.03.25-.08.45-.17ZM106.81,57.24c-1.18.07-2.01.42-2.5,1.05-.23.31-.66.37-.96.15-.25-.18-.35-.51-.23-.8l.35-.98c.05-.12-.02-.26-.14-.3,0,0,0,0,0,0l-.16-.06c-.14-.05-.29.02-.34.16,0,0,0,0,0,0-.42,1.27-.11,2.15.94,2.64.35.16.68.03.98-.41.08-.11.18-.2.31-.24l1.87-.66c.15-.04.24-.19.2-.34-.03-.14-.17-.23-.31-.21ZM93.88,57.02c.64.33.89.77.78,1.31-.05.2,0,.35.15.46.18.13.33.2.46.21.35.03.49-.11.43-.43-.05-.29-.18-.46-.37-.5-.17-.04-.28-.21-.24-.38,0,0,0-.02,0-.03.13-.4.09-.68-.13-.83-.37-.26-.73-.31-1.07-.16-.1.04-.14.15-.1.25.02.04.05.08.09.1ZM93.23,57.04c-.02-.15-.38-.24-.81-.2,0,0,0,0,0,0-.43.04-.77.2-.75.36,0,0,0,0,0,0,.02.15.38.24.81.2h0c.43-.04.77-.2.75-.36,0,0,0,0,0,0ZM103.17,61.71s-.03-.14-.1-.4c-.04-.15.06-.3.2-.34.03,0,.06,0,.1,0,.18.02.31,0,.39-.09.09-.09.08-.23,0-.31-.02-.02-.05-.04-.07-.05-.29-.11-.54-.34-.73-.68-.07-.12-.23-.16-.35-.1-.04.02-.08.06-.1.1-.36.65-.24,1.3.36,1.95.07.07.18.08.25,0,.03-.03.05-.06.05-.1ZM104.79,59.62c-.28.08-.42.44-.32.81.1.37.41.6.69.52.28-.08.42-.44.32-.81-.1-.37-.41-.6-.69-.52ZM93.42,61l2.89,1.06s.1,0,.12-.05c0,0,0,0,0,0l.02-.06c.15-.4-.34-.96-1.1-1.24,0,0,0,0,0,0l-.32-.12c-.75-.28-1.49-.18-1.64.23l-.02.06s0,.1.05.12c0,0,0,0,0,0ZM93.55,62c0-.18-.14-.32-.32-.32s-.32.14-.32.32.14.32.32.32h0c.18,0,.32-.14.32-.32h0ZM94.88,62.69c-.17-.27-.39-.38-.67-.32-.12.02-.2.14-.17.26,0,.03.02.07.04.09.21.27.33.41.36.43.15.09.35.04.44-.12.06-.11.06-.24,0-.35ZM103.16,65.53c.05.13.18.17.39.1,1.41-.44,2.08-.75,2.02-.93-.05-.17-.78,0-2.17.5-.21.07-.29.18-.24.33ZM95.66,67.19l-3.95-1.51s-.03,0-.03,0c0,0,0,0,0,0l-.03.08c-.09.25.68.78,1.72,1.18l.2.08c1.04.4,1.96.52,2.07.27l.03-.08s0-.02-.01-.03ZM102.01,66.77c-.03.15.12.31.32.35h0c.21.04.4-.06.43-.21.03-.15-.12-.31-.32-.35h0c-.21-.04-.4.06-.43.21ZM105.7,67.41c-.5-.48-1.1-.68-1.79-.61-.04,0-.08.04-.08.08v.15c0,.12.1.21.22.21,0,0,0,0,.01,0,.7-.03,1.08.2,1.12.69.08.8.61,1.63,1.59,1.27.15-.06.22-.22.16-.37,0-.02-.02-.05-.04-.07-.09-.13-.32-.19-.67-.19-.21,0-.35-.06-.44-.19-.13-.19-.14-.39-.03-.6.07-.13.04-.29-.06-.39ZM102.94,68.95c-.15.15-.42.21-.82.16-.11-.02-.19,0-.22.05-.08.13-.1.26-.05.41.03.08.11.13.2.12.69-.08,1.11-.21,1.27-.36.16-.16.28-.58.36-1.27,0-.09-.04-.17-.12-.2-.15-.05-.28-.04-.41.05-.05.03-.07.11-.05.22.05.4,0,.67-.15.82ZM92.52,70.06c-.13.34-.11.59.08.76.04.03.09.05.14.05l.95-.07c.14,0,.24-.13.23-.26,0-.02,0-.04-.01-.07-.12-.34-.19-.65-.2-.92-.02-.48-.44-.84-.92-.81-.32.02-.6.21-.75.5-.05.1.05.22.31.35.17.09.25.29.17.47ZM95.64,70.16c.1.04.22,0,.26-.11.03-.06.02-.13-.02-.19-.24-.38-.49-.53-.76-.45-.37.12-.41.28-.12.47.01.01.22.1.63.27ZM103.13,72.32c.11-.02.19-.13.16-.24-.02-.09-.09-.15-.18-.17-.37-.06-.7.08-1.01.41-.05.05-.05.13,0,.17.03.03.07.04.11.03l.9-.2ZM91.81,72.46c-.02.28.27.52.65.54h0c.37.02.69-.19.7-.46,0,0,0,0,0,0,.02-.28-.27-.52-.65-.54h0c-.37-.02-.69.19-.7.46,0,0,0,0,0,0ZM95.19,72.77c.36.05.73.1,1.11.17.05,0,.1,0,.14-.05.08-.06.12-.14.13-.25,0-.06-.03-.11-.09-.12-.61-.14-1.05-.15-1.32-.02-.07.03-.11.12-.08.19.02.05.06.08.11.08ZM106.82,72.72c-.01-.19-.46-.32-.99-.28h0c-.53.04-.95.23-.94.42h0c.01.19.46.32.99.28h0c.53-.04.95-.23.94-.42h0ZM93.7,74.89c0-.27-.22-.49-.49-.49s-.49.22-.49.49c0,.27.22.49.49.49h0c.27,0,.49-.22.49-.49h0ZM93,77.62c.08-.03.08-.14,0-.23-.03-.04-.08-.08-.13-.1-.07-.03-.15-.04-.27-.03-.11,0-.2.11-.19.22,0,.05.03.11.07.14.1.08.27.08.51-.01ZM94.65,78.36c.32.15.74.11,1.28-.13.17-.09.25-.3.16-.47-.07-.14-.22-.21-.37-.19,0,0-.36.17-1.07.5-.08.04-.12.14-.08.22.02.03.04.06.08.08ZM105.22,77.95c-.06-.11-.29-.11-.5,0,0,0,0,0,0,0-.22.12-.34.31-.27.42h0c.06.11.29.11.5,0,0,0,0,0,0,0,.22-.12.34-.31.27-.42ZM103.16,78.7c-.13.18-.04.46.2.63.24.17.53.16.66-.02,0,0,0,0,0,0,.13-.18.04-.46-.2-.63-.24-.17-.53-.16-.66.02,0,0,0,0,0,0ZM91.22,79.14c0,.18.22.33.49.33,0,0,0,0,0,0,.27,0,.49-.14.5-.32,0-.18-.22-.33-.49-.33h0c-.27,0-.49.14-.5.32ZM93.8,81.95c-.02.16.18.31.45.34,0,0,0,0,0,0,.27.03.5-.07.51-.23,0,0,0,0,0,0,.02-.16-.18-.31-.45-.34,0,0,0,0,0,0-.27-.03-.5.07-.51.23,0,0,0,0,0,0ZM103.62,81.9c-.04-.15-.22-.23-.41-.18-.18.05-.29.22-.25.37h0c.04.15.22.23.41.18.18-.05.29-.22.25-.37t0,0ZM93.27,87.33c.2.13.46.04.56-.21.07-.15.07-.34,0-.49-.15-.36-.51-.47-1.06-.33-.19.04-.31.23-.26.42.02.08.06.15.13.2.02.02.23.15.63.4ZM103.81,87.73c0-.2-.17-.37-.37-.37s-.37.17-.37.37.17.37.37.37.37-.17.37-.37ZM100.12,89.57c-.06-.15-.33-.2-.61-.09-.28.1-.46.31-.41.46h0c.06.15.33.2.61.09.28-.1.46-.31.41-.46t0,0Z"/>
    <path class="cls-4" d="M177.84,54.96l-.16,7.37c0,.1-.07.19-.17.21-.05.01-.1.02-.15.03-.65-.61-1.4-.66-2.25-.16-.1.06-.14.19-.08.29.03.06.09.1.16.11l1.77.23c.29.03.53.25.58.54.26,1.27.27,2.37.02,3.3-.06.23-.25.41-.49.46l-.54.12c-.08.02-.13.1-.11.18.01.06.06.1.12.11l.83.1c.17.02.29.17.27.34,0,.05-.02.09-.05.13-.1.15-.26.27-.5.37-.19.08-.27.31-.18.51.04.09.11.15.19.19.54.25.74.68.62,1.27-.19.95-.25,1.86-.19,2.74.13,1.67.18,5.13.13,10.4,0,.44-.36.6-1.06.49-.1-.01-.18.06-.19.15,0,.06.02.12.07.16.76.51,1.16,1.22,1.19,2.12,0,.15-.09.29-.23.35-1.2.51-2.04.39-2.53-.34-.13-.19-.31-.3-.55-.34-.31-.04-.53.01-.67.17-.08.09-.08.23.01.32.03.03.08.05.12.06l.63.08c.22.03.38.23.35.46l-.16,1.24c0,.11.07.21.18.22.08,0,.16-.04.2-.11.23-.51.44-.69,1.05-.72.98-.04,1.69-.07,2.11-.09.37-.02.61-.22.74-.58.14-.17.32-.2.54-.09.13.07.2.2.2.35v4.43c0,.22-.18.39-.39.39h-9.32c-.35,0-.62-.28-.62-.62h0v-4.55c0-.24.19-.44.43-.44h1.01c.2,0,.36-.16.36-.36h0v-27.19c0-.25-.2-.45-.45-.45h-.61c-.42,0-.75-.34-.75-.75v-4.44c0-.27.22-.49.5-.49h6.76c.2,0,.4.05.57.15.81.45,1.03.98.66,1.58ZM172.45,55.35c0-.19-.23-.33-.49-.32h0c-.26.01-.47.17-.47.36h0c0,.19.23.33.49.32.26-.01.47-.17.47-.36h0ZM175.13,55.97c.43.07.75-.06.94-.38.08-.13.04-.3-.09-.38-.02-.01-.04-.02-.06-.03,0,0-.23-.03-.67-.1-.44-.07-.67-.1-.67-.09-.15,0-.27.14-.26.29,0,.02,0,.04,0,.06.1.36.36.57.8.63ZM173.65,56.89c0-.23-.19-.42-.42-.42h0c-.23,0-.42.19-.42.42h0c0,.23.19.42.42.42h0c.23,0,.42-.19.42-.42h0ZM175.86,65.03c-.11-.11-.33-.07-.5.09-.17.16-.22.38-.11.49.11.11.33.07.5-.09.17-.16.22-.38.11-.49ZM173.91,67.01c-.02.14.19.28.47.33.28.04.53-.04.55-.18h0c.02-.14-.19-.28-.47-.33-.28-.04-.53.04-.55.18,0,0,0,0,0,0ZM175.96,69.15c-.06-.17-.37-.21-.7-.1-.33.11-.55.34-.49.5,0,0,0,0,0,0,.06.17.37.21.7.1.33-.11.55-.34.49-.5,0,0,0,0,0,0ZM174.26,70.7c-.08-.06-.44.25-.82.69,0,0,0,0,0,0-.38.45-.62.86-.55.92.08.06.44-.25.82-.69,0,0,0,0,0,0,.38-.45.62-.86.55-.92ZM172.61,76.57c-.21.05-.33.34-.25.65.07.31.31.51.52.46,0,0,0,0,0,0,.21-.05.33-.34.25-.65-.07-.31-.31-.51-.52-.46,0,0,0,0,0,0ZM172.41,78.84l.11.6c.01.06.07.1.13.09l.19-.03c1.51-.27,2.71-.65,2.69-.84l-.02-.14c-.04-.19-1.3-.12-2.82.16l-.18.03c-.06.01-.1.07-.09.13ZM172.12,80.77c-.04.15.15.33.42.4,0,0,0,0,0,0,.27.07.52.02.56-.13,0,0,0,0,0,0,.04-.15-.15-.33-.42-.4,0,0,0,0,0,0-.27-.07-.52-.02-.56.13h0ZM176.92,81.89c-.37-.06-.61-.08-.73-.04-.09.03-.14.13-.11.22.02.05.06.09.11.11.29.1.55.1.77,0,.08-.04.11-.13.08-.21-.02-.05-.06-.08-.11-.09ZM173.39,82.02c-.11.11-.04.36.16.55.2.19.44.26.55.14.11-.11.04-.36-.16-.55-.2-.19-.44-.26-.55-.14ZM174.34,89.93c-.06-.18-.34-.26-.63-.16,0,0,0,0,0,0-.28.1-.46.32-.4.51t0,0c.06.18.34.26.63.16,0,0,0,0,0,0,.28-.1.46-.32.4-.51,0,0,0,0,0,0Z"/>
    <path class="cls-4" d="M249.74,106.33l-.39-.23c.22-.08.35,0,.39.23Z"/>
    <path class="cls-4" d="M217.84,125.34c-.11-.07-.09-.15.04-.25.11-.09.19-.12.24-.07.08.08.08.21-.01.29-.07.07-.19.08-.27.03Z"/>
  </g>
  <path class="cls-1" d="M173.64,45.98c.15-.11.21-.24.17-.37-.03-.11-.1-.18-.21-.2-.17-.03-.31.02-.4.17-.06.1-.04.2.06.32l-2.78,5.2s-.06.04-.09.02c0,0,0,0,0,0l-.15-.13c-.06-.05-.06-.13-.02-.19.01-.01.02-.02.04-.03.34-.19.41-.65.2-1.39-.23-.82-.61-1.35-1.12-1.6-.37-.18-.71-.07-1.01.31-.13.16-.31.28-.5.32l-1.62.35c-.23.05-.46-.1-.51-.33-.01-.05-.01-.1,0-.15.08-.6-.21-.92-.89-.97-1.33-.08-2.53-.1-3.59-.07,0,0,0,0,0,0l-.15-.26c-.04-.07-.01-.16.06-.2.02-.01.04-.02.06-.02.54-.03,1.08-.17,1.63-.4.19-.08.34-.23.42-.41.34-.76.78-1.35,1.31-1.79.46-.38.52-1.07.13-1.53-.08-.09-.17-.17-.28-.24-1.11-.65-2.06-1.05-2.85-1.2-.1-.02-.16-.11-.14-.21,0-.05.04-.09.08-.12l.79-.46c.16-.09.27-.25.29-.44.1-.89-.04-1.75-.41-2.59-.01-.03-.03-.05-.05-.08l-1.47-1.85c-.04-.05-.04-.13.02-.17.04-.03.1-.04.15,0,1.42.95,3.07,1.09,4.96.42.14-.05.24-.17.27-.31l.02-.1c.02-.12.14-.2.26-.17.05,0,.09.04.12.07.55.63,1.25,1.05,2.08,1.26.17.04.34-.06.38-.23,0,0,0,0,0-.01.29-1.55.06-2.98-.69-4.3-.2-.35-.08-.8.27-1,.11-.06.24-.1.37-.1h1.29c.26,0,.48-.19.51-.45l.05-.35c.02-.21.21-.35.42-.33,1.03.1,1.6-.48,1.74-1.73.02-.23.23-.4.46-.38.16.01.3.12.36.27.07.19.11.4.11.62,0,.08.02.16.06.23l1.74,3.01c.05.09.15.14.25.14h1.41c.06,0,.12.05.12.11,0,0,0,.01,0,.02l-.41,3.26c-.02.13.07.24.19.26.03,0,.06,0,.09,0,.67-.15,1.09-.35,1.26-.59.32-.44.83-.92,1.54-1.45.13-.09.3-.07.4.05.39.47,1.01.69,1.87.64.26-.02.5.14.58.39.02.07.31.09.87.06.16,0,.3-.12.35-.27.05-.15.54-.34,1.49-.55.11-.03.21.04.24.14.01.05,0,.11-.02.15l-1.15,1.91c-.25.41-.35.9-.28,1.38.07.46,0,.96-.19,1.51-.1.3.02.64.3.79l1.33.76s.06.09.03.14c-.02.03-.05.04-.08.04-.88-.05-2.2.44-3.97,1.45-.28.16-.38.51-.22.79.03.06.08.11.13.16l4.63,3.89c.08.06.09.18.03.25-.04.05-.09.07-.15.07-.15,0-.28-.07-.39-.19-.13-.15-.32-.25-.52-.27-1.35-.13-2.5.15-3.44.85-.29.22-.45.67-.49,1.38-.01.16-.15.29-.31.28-.01,0-.02,0-.03,0-.05,0-.73-.41-2.04-1.22-.91-.56-1.48-.36-1.69.58-.24,1.02-.29,1.92-.17,2.69.02.13-.06.25-.19.27-.09.02-.18-.02-.23-.09-.38-.52-.61-1.1-.69-1.76-.08-.67-.22-.93-.76-1.15-.14-.06-.28-.2-.41-.4-.44-.71-.85-1.43-1.23-2.18Z"/>
</svg>