<?xml version="1.0" encoding="UTF-8"?>
<svg id="Layer_1" data-name="Layer 1" xmlns="http://www.w3.org/2000/svg" viewBox="0 0 352.3 165.34">
  <path d="M108.66,61.49v-5.94c1.45-17.61,12.43-32.4,28.95-38.51,25.16-9.3,52.23,6.03,58.19,31.47,3.26,13.95-.48,28.75-10.1,39.46-4.95,5.5-11.06,9.62-18.33,12.36-.02,0-.03,0-.05,0l-.14-.14s-.04-.09,0-.13c0,0,.02-.02.03-.02,10.99-4.89,19.23-15.44,23.23-26.58,4.24-11.85,3.63-22.86-1.84-33.03-6.56-12.21-18.4-20.39-32.23-21.88-10.5-1.13-20.97,3.1-28.94,10.03-.07.07-.08.18-.02.25.03.04.09.06.14.06,14.9-.44,33.95-2.38,36.78,17.28.04.26.27.45.53.45h11.13c.43,0,.79.35.79.79h0v.29c0,.36-.27.67-.63.71l-2.11.24c-.7.08-1.27.6-1.42,1.29-.12.56-.19,1.55-.22,2.96-.15,7.05-.13,15,.07,23.83.1,4.02.07,8.47-1.06,12.13-3.08,9.98-12.4,14.61-22.51,13.66-21.88-2.05-38.33-19-40.24-41.02ZM164.44,49.95c-1.24,10.69-7.07,17.08-17.48,19.16-3.38.67-6.59.85-9.63.53-4.34-.45-9.49-.58-15.44-.39-.42.01-.77-.15-1.04-.5-.29-.39-.2-.94.2-1.23.12-.09.26-.14.4-.17.27-.04.88-.1,1.83-.18.78-.06,1.42-.65,1.55-1.42.25-1.53.38-3.35.39-5.45.02-8.83.01-17.7-.01-26.61,0-.75-.15-1.42-.42-2.01-.09-.18-.3-.25-.47-.17-.04.02-.07.05-.1.08-22.14,24.03-7.96,62.08,24.37,66.02,7.59.93,13.77-.98,15.85-8.58.07-.26.11-.52.12-.79.45-10.54.54-23.29.29-38.26,0-.11-.09-.2-.19-.2h-.01c-.09,0-.18.07-.19.16ZM133.3,32.56c-.2.04-.34.22-.35.43-.02,5.84-.02,14.51,0,26.02,0,1.61.13,3.2.37,4.77.05.31.2.59.44.79,2.05,1.7,5.2,1.75,7.98,1.62,8.47-.39,13.99-4.71,14.45-13.93.48-9.65-3.3-15.91-11.34-18.78-3.32-1.18-8.24-1.64-11.56-.91Z"/>
  <path d="M243.14,115.22l-.44-.75s-.02-.1.02-.14c.03-.03.08-.03.12,0,.65.37.85.68.61.93-.08.08-.2.08-.27,0-.01-.01-.02-.03-.03-.04Z"/>
  <path d="M240.6,114.62s.15-.08.43-.19c.08-.03.16,0,.19.08,0,0,0,.01,0,.02.05.24.08.37.07.37-.13.17-.37.23-.55.12-.14-.08-.2-.25-.15-.4Z"/>
  <path d="M189.68,131.93c-11.14,6.3-16.51-12.78-6.12-16.74,2.19-.84,4.24-.55,6.13.87.19.14.46.11.6-.08.03-.04.05-.09.07-.13.17-.52.41-.78.71-.78.15,0,.26.12.26.26v4.12c0,.19-.16.34-.34.34-.15,0-.28-.1-.33-.25-.63-2.28-1.95-3.58-3.96-3.92-2.21-.37-4.6.88-4.86,3.12-.46,4.05-.5,7.49-.13,10.31.58,4.39,6.01,4.29,8.09,1.11.35-.54.68-1.22,1-2.05.06-.15.23-.23.38-.17.12.04.19.16.19.28v4.43c0,.15-.12.26-.27.27-.04,0-.08,0-.12-.03-.27-.13-.49-.37-.65-.73-.11-.24-.39-.35-.63-.24-.01,0-.03.01-.04.02Z"/>
  <path d="M201.43,114.74c4.29,0,7.76,4.13,7.76,9.22s-3.47,9.22-7.76,9.22h0c-4.29,0-7.76-4.13-7.76-9.22h0c0-5.09,3.47-9.22,7.76-9.22ZM205.61,119.61c-.01-2.21-1.81-4-4.03-3.98h-.43c-2.21.01-4,1.82-3.98,4.03h0s.05,8.69.05,8.69c.01,2.21,1.81,4,4.03,3.98h.43c2.21-.01,4-1.82,3.98-4.03h0s-.05-8.69-.05-8.69Z"/>
  <path d="M228.89,132.04l-.43.75c-.12.21-.39.28-.6.16-.14-.08-.22-.22-.22-.38v-5.09c0-.1.08-.19.19-.19h.17c.22,0,.4.15.44.36.43,2.58,1.77,4.11,4.02,4.59,4.38.93,6.63-5.09,2.54-6.67-1.24-.48-4.32-.8-5.88-2.38-1.7-1.73-1.22-4.98,0-6.53,1.72-2.17,4-2.52,6.83-1.07.11.06.25.06.37.01.28-.12.51-.35.7-.71.09-.17.3-.23.47-.15.11.06.18.17.18.3v4.18c0,.13-.11.23-.24.23h-.18c-.16,0-.3-.11-.33-.27-.4-2.09-1.56-3.29-3.47-3.59-3.63-.58-5.92,4.4-1.73,5.54,4.35,1.19,7.42,1.7,6.74,7.28-.44,3.55-3.4,5.38-6.92,4.52-.77-.19-1.49-.76-1.98-1.07-.22-.14-.52-.07-.66.15,0,0,0,0,0,.01Z"/>
  <path d="M239.81,116.51c-.14-.23-.06-.71.26-1.45.04-.09.1-.13.18-.12.04,0,.08.03.08.08,0,.02,0,.04-.02.06-.26.3-.36.76-.3,1.37,0,.06-.03.11-.08.12-.04,0-.09-.01-.11-.05Z"/>
  <path d="M124.74,123.99c0,3.48-1.53,6.65-4.71,8.17-2.62,1.26-6.74.75-10.98.77-.15,0-.28-.12-.28-.28h0v-.21c0-.16.13-.3.3-.29.02,0,.03,0,.05,0,.51.09.92.11,1.22.05.26-.04.46-.27.48-.53.01-.21.02-2.78.03-7.71,0-4.93,0-7.5,0-7.71-.02-.27-.21-.49-.48-.53-.3-.06-.71-.04-1.22.05-.16.03-.31-.08-.34-.24,0-.02,0-.03,0-.05v-.21c0-.15.13-.28.28-.28,4.24.05,8.36-.44,10.98.82,3.17,1.54,4.68,4.7,4.67,8.19ZM113.8,116.02v15.88c0,.18.15.33.33.33h2.47c2.61,0,4.73-2.15,4.73-4.8v-6.93c0-2.65-2.12-4.8-4.73-4.8h-2.47c-.18,0-.33.15-.33.33Z"/>
  <path d="M135.31,123.36c-.1.02-.17.13-.15.23.01.06.06.11.11.14,3.74,1.56,3.55,3.67,3.61,7.07.02,1.21.67,1.64,1.93,1.29.15-.04.31.05.36.2,0,.03.01.05.01.08v.21c0,.08-.05.16-.14.18-2.36.63-4.01.03-4.96-1.8-.58-1.11-.45-3.05-.57-4.52-.08-1.1-.81-2.04-1.85-2.4l-1.44-.49c-.57-.2-1.19.11-1.38.67-.04.11-.06.23-.06.36v7.16c0,.25.2.44.44.44h1.5c.16,0,.28.13.28.28h0v.17c0,.15-.12.28-.28.28l-6.67.03c-.21,0-.37-.17-.37-.38,0,0,0,0,0,0v-.02c.04-.21.22-.37.44-.37h1.36c.22,0,.4-.18.4-.4h0v-15.65c0-.25-.2-.45-.44-.45h-1.58c-.15,0-.27-.12-.27-.26h0v-.17c0-.1.09-.19.19-.19,3.64-.11,6.73-.07,9.28.11,5.68.41,5.87,6.93.24,8.2ZM130.8,116.07v6.62c0,.21.17.37.37.37h1.84c1.8,0,3.25-1.41,3.25-3.16v-1.06c0-1.74-1.46-3.16-3.25-3.16h-1.84c-.21,0-.37.17-.37.37Z"/>
  <path d="M161.81,115.02c.16,0,.3.13.3.3v.22c0,.09-.07.16-.17.16h-1.59c-.24,0-.43.19-.43.43,0,0,0,0,0,.01.03,1.58.03,5.66,0,12.24,0,1.14-.06,2-.17,2.6-.47,2.59-2.81,4.36-5.4,3.91-3.3-.57-1.73-4.96.3-3.31.59.48.63,1.17.13,2.08-.12.23-.04.51.18.64.13.07.28.08.41.02l.61-.26c.58-.25.95-.83.95-1.46v-16.49c0-.24-.2-.44-.44-.44h-1.53c-.08,0-.14-.06-.14-.14h0v-.21c0-.16.13-.3.3-.3h6.68Z"/>
  <path d="M164.73,132.19h1.49c.18,0,.32.14.32.32v.16c0,.16-.12.28-.28.28h-4.28c-.15,0-.27-.12-.27-.27,0-.03,0-.06.01-.08l.06-.18c.06-.17.23-.28.41-.26.44.05.75.05.95,0,.21-.06.39-.31.54-.74,2.99-8.66,4.85-13.99,5.58-16,.07-.2.17-.33.3-.39.3-.15.66-.02.81.28.01.02.02.05.03.07,3.52,10.54,5.32,15.97,5.41,16.29.06.22.24.4.46.46.33.09.73.09,1.22.02.17-.02.32.09.34.25,0,.02,0,.03,0,.05v.2c0,.15-.12.27-.26.27h-6.77c-.13,0-.24-.11-.24-.24,0-.03,0-.05.01-.08l.1-.28c.04-.11.15-.19.26-.19.91.01,1.43,0,1.56-.02.16-.03.26-.18.23-.34,0-.01,0-.03-.01-.04l-1.42-4.16c-.07-.2-.25-.33-.46-.33h-4.42c-.29,0-.55.18-.64.46l-1.37,4.02c-.06.18.04.38.22.44.03.01.07.02.11.02ZM166.26,126.33c-.04.1.02.22.12.25.02,0,.05.01.07.01h4.24c.11,0,.2-.1.2-.21,0-.02,0-.04-.01-.06l-2.13-6.32c-.03-.1-.15-.16-.25-.13-.06.02-.11.07-.13.13l-2.11,6.33Z"/>
  <path d="M220.81,123.7c1.24.26,2.2.72,2.88,1.38,2.09,2.01,1.52,5.27-.84,6.74-1.1.69-2.46,1.05-4.08,1.08-2.54.04-5.08.05-7.61.05-.17,0-.32-.14-.32-.32h0v-.19c0-.14.11-.24.24-.24h1.49c.28,0,.5-.23.5-.51h0v-15.58c0-.25-.2-.44-.44-.44h-1.72c-.1,0-.19-.08-.19-.19h0v-.19c0-.13.1-.23.23-.24,1.98-.11,4.6-.09,7.87.08,2.12.1,4.6,1,5.25,3.11.76,2.46-1.04,4.52-3.26,5.05-.11.03-.17.14-.14.25.02.07.08.13.15.15ZM215.82,116.11l-.04,6.72c0,.24.19.43.43.43h1.76c1.75.02,3.18-1.36,3.19-3.08h0s.01-1.38.01-1.38c0-1.71-1.41-3.11-3.16-3.12h-1.76c-.24-.01-.43.18-.43.42ZM215.81,124.35l-.03,7.47c0,.22.17.4.39.41,0,0,0,0,0,0h2.17c1.83.01,3.32-1.52,3.33-3.43v-1.38c0-1.9-1.47-3.45-3.3-3.46h-2.17c-.22,0-.4.17-.4.39Z"/>
  <path d="M241.56,115.34c.04-.1.13-.18.24-.19l.48-.07c.15-.02.3.08.32.24,0,.05,0,.09-.01.14l-.31.9c-.09.25-.35.38-.6.3l-.23-.08c-.16-.05-.24-.22-.19-.37,0,0,0,0,0,0l.3-.86Z"/>
  <path d="M243.63,116.16c-.09,2.15-1.63,2.03-3.18,1.4-.1-.04-.15-.16-.1-.26.02-.05.07-.09.12-.11.27-.08.61.08,1.02.46.29.27.75.25,1.02-.05.03-.04.07-.08.09-.12l.8-1.38c.04-.06.11-.07.17-.04.03.02.06.06.06.1Z"/>
  <circle cx="145.03" cy="131.43" r="1.6"/>
  <path d="M193.26,149.62c1,.48,1.91.56,2.75.23,1.1-.43,1.28-1.75.35-2.45-.29-.22-1.05-.67-2.26-1.33-.17-.09-.31-.21-.42-.36-1.97-2.64,1.62-4.17,3.74-3.25.2.09.31.31.25.53l-.02.06c-.06.2-.27.32-.48.26-1.15-.35-2.03-.23-2.65.35-.41.4-.42,1.05-.03,1.47.08.08.16.14.26.2,1.6.84,4.3,2.14,2.92,4.37-.86,1.37-3,1.74-4.4.91-.18-.11-.3-.31-.3-.52v-.28c0-.11.09-.2.19-.2.03,0,.06,0,.09.02Z"/>
  <path d="M108.66,150.76v-8.53l5.96,6.07c.07.07.19.07.26,0,.03-.03.05-.08.05-.12v-5.61c0-.17.13-.31.3-.32h.19c.26-.03.48.16.49.42,0,.01,0,.02,0,.03v7.81c0,.1-.08.18-.18.18-.04,0-.09-.02-.12-.05l-5.81-5.81s-.1-.04-.15,0c-.02.02-.03.05-.03.08v5.58c0,.18-.12.34-.3.39-.22.06-.44.03-.67-.11Z"/>
  <path d="M125.3,142.24s.09.02.17.05c.02,0,.03.01.03.03l3.57,8.18c.07.16,0,.34-.16.41-.04.02-.09.03-.13.03h-.17c-.29,0-.55-.17-.67-.44l-.69-1.57c-.09-.22-.31-.36-.55-.36h-2.83c-.24,0-.45.14-.55.36l-.7,1.56c-.12.27-.38.44-.67.44h-.17c-.17,0-.32-.14-.32-.31,0-.04,0-.09.03-.13l3.59-8.17s.02-.02.03-.03c.08-.03.14-.05.17-.05ZM125.28,147.61c.33,0,.65,0,.97-.04.18-.02.31-.18.3-.36,0-.03,0-.06-.02-.09-.33-.88-.71-1.78-1.14-2.69,0-.01-.04-.02-.09-.02-.05,0-.08,0-.08.02-.44.9-.83,1.79-1.17,2.67-.07.17.02.36.19.42.03.01.05.02.08.02.32.03.64.05.96.05Z"/>
  <path d="M136.84,142.31c.84-.03,1.64-.03,2.41,0,.24,0,.43.2.43.44v.17c0,.16-.13.3-.3.3h-1.59c-.26,0-.48.21-.48.48,0,2.22.02,4.32.04,6.29,0,.6-.17.9-.53.9s-.53-.3-.53-.9c.02-1.97.04-4.07.05-6.29,0-.26-.21-.48-.48-.48h-1.59c-.16,0-.3-.14-.3-.3v-.17c0-.24.19-.44.43-.44.78-.02,1.58-.02,2.42.01Z"/>
  <path d="M148.7,150.04c3.39,0,2.72-4.35,2.6-7.21-.01-.3.21-.56.52-.59h.01c.26-.03.49.17.51.43,0,0,0,.01,0,.02.13,3.23.84,8.33-3.64,8.33s-3.77-5.11-3.64-8.33c.01-.26.23-.47.49-.45,0,0,.01,0,.02,0h.01c.3.03.53.28.52.59-.12,2.87-.79,7.21,2.6,7.21Z"/>
  <path d="M163.31,147.9l1.58,2.75c.05.08.02.18-.06.23-.02.01-.05.02-.08.02h-.37c-.31,0-.6-.17-.75-.44l-1.24-2.14c-.12-.21-.34-.33-.59-.33h-2.09c-.2,0-.36.16-.36.36,0,0,0,0,0,0l.06,2.03c0,.27-.21.5-.48.51,0,0-.02,0-.03,0h-.02c-.29-.02-.52-.26-.52-.55v-6.92c.01-.64.53-1.16,1.17-1.16h2.99c1.15,0,2.14.83,2.34,1.97.26,1.51-.23,2.58-1.45,3.23-.15.08-.21.27-.13.42,0,0,0,0,0,0ZM159.37,143.61l.05,3.08c0,.21.17.37.38.37h0l1.8-.03c1.28-.02,2.31-.86,2.29-1.86v-.18c-.02-1.01-1.07-1.8-2.35-1.78,0,0,0,0,0,0l-1.8.03c-.21,0-.37.17-.37.38h0Z"/>
  <path d="M174.02,148.55h-1.4c-.23,0-.45.14-.54.35l-.69,1.56c-.12.26-.38.43-.66.43h-.17c-.17,0-.31-.14-.31-.31,0-.04,0-.08.02-.12l3.55-8.13s.02-.02.03-.03c.08-.03.14-.05.18-.05.03,0,.09.02.17.05.02,0,.03.01.03.03l3.55,8.12c.07.16,0,.34-.16.41-.04.02-.08.03-.12.03h-.17c-.29,0-.55-.17-.67-.43l-.68-1.56c-.1-.22-.31-.36-.55-.35h-1.4ZM174.03,147.6c.32,0,.64-.02.96-.05.18-.02.31-.18.29-.36,0-.03,0-.06-.02-.08-.34-.88-.73-1.76-1.17-2.66,0-.01-.04-.02-.08-.02-.05,0-.08,0-.09.03-.42.9-.8,1.79-1.13,2.67-.06.17.03.36.2.42.03,0,.06.02.08.02.32.03.64.04.96.04Z"/>
  <path d="M187.32,150.86h-3.49c-.23,0-.41-.18-.41-.41h0v-7.67c0-.28.23-.52.52-.52h.19c.16,0,.3.13.3.3h0v7.01c0,.17.14.3.31.3h2.62c.22,0,.39.18.39.39h0v.17c0,.23-.19.42-.42.42Z"/>
</svg>