<?xml version="1.0" encoding="UTF-8"?>
<svg id="Layer_1" data-name="Layer 1" xmlns="http://www.w3.org/2000/svg" viewBox="0 0 352.3 165.34">
  <path d="M92.19,116.1c0-4.64,3.78-8.79,8.6-8.79s8.62,4.1,8.62,8.79v.47c0,4.79-3.78,8.79-8.52,8.79s-8.7-4.05-8.7-8.79v-.47ZM107.52,116.1c0-3.88-3.14-6.9-6.76-6.9s-6.65,3.27-6.65,6.9v.47c0,3.83,3.07,6.9,6.7,6.9s6.7-3.17,6.7-6.9v-.47Z"/>
  <path d="M126.77,117.75c.15.12.28.26.36.36l3.59,4.69c.12.17.25.22.42.22.12,0,.22-.02.29-.1l.42.07.91,1.33c-.47.47-1.08.61-1.6.61-.79,0-1.5-.37-2.01-1.03l-3-3.9c-.91-1.18-1.57-1.84-3.27-1.89v-1.89h2.36c2.04,0,3.12-1.33,3.12-3.17s-1.08-3.32-2.85-3.32h-3.29v14.98h-2.01v-16.87h5.4c3,0,4.76,2.53,4.76,5.18,0,2.16-1.15,4.1-3.29,4.64l-.31.08h0Z"/>
  <path d="M156.91,118.33c0,4.25-3.41,7.12-7.2,7.12-4.59,0-8.38-4.17-8.38-8.92s3.98-9.14,8.74-9.14c2.68,0,5.87,1.4,5.65,4.08h-1.89c.02-.1.02-.2.02-.3,0-1.3-2.28-1.89-3.83-1.89-3.71,0-6.83,3.34-6.83,7.27s3.05,7.03,6.61,7.03c2.6,0,5.16-2.19,5.16-4.98v-.96h-5.8v-1.92h7.74v2.6h0Z"/>
  <path d="M179.63,124.72l-2.31-5.43h-6.65l-2.26,5.43h-2.14l7.32-17.34h.81l7.37,17.34h-2.14ZM174.33,112.22c-.12-.27-.25-.59-.34-.88-.1.29-.2.61-.32.88l-2.19,5.16h5.03l-2.19-5.16Z"/>
  <path d="M203.82,124.72l-2.55-2.43-7.34-8.52c-.29-.34-.61-.71-.96-1.18l-.32-.47v.2c.02.47.05.91.05,1.28v11.13h-2.01v-17.12h.86l11.08,13.19.32.37s-.02-.02-.12-.05v-13.29h2.04v16.9h-1.04Z"/>
  <path d="M216.81,124.72v-16.87h2.01v16.87h-2.01Z"/>
  <path d="M244.24,121.38c-1.62,2.58-4.42,3.86-7.12,3.86-4.81,0-8.57-4.03-8.57-8.82s4.03-9.19,8.67-9.19c2.11,0,5.87.76,5.84,4.62h-1.84c.05-2.38-2.73-2.75-4.13-2.75-3.59,0-6.68,3.56-6.68,7.39s2.9,6.85,6.73,6.85c2.33,0,4.4-1.13,5.55-3.02l1.55,1.06h0Z"/>
  <path d="M253.57,120.12c.79,2.11,2.55,3.29,4.37,3.29,1.42,0,2.85-.69,3.46-2.11.12-.32.25-.76.25-1.35,0-1.42-.74-2.16-2.21-2.87-3.56-1.72-5.92-2.9-5.92-5.55,0-2.51,2.19-4.22,4.67-4.22,2.09,0,3.95,1.3,3.95,3.12,0,.12,0,.27-.02.42l-1.92-.12c.02-.1.05-.17.05-.27,0-.81-1.1-1.25-2.11-1.25-1.5,0-2.75,1.03-2.75,2.26,0,1.94,2.97,2.82,5.01,3.93,2.14,1.15,3.14,2.58,3.14,4.59,0,.76-.12,1.45-.37,2.04-.81,1.94-3.09,3.29-5.23,3.29-2.53,0-5.31-1.89-6.12-4.47l1.75-.71h0Z"/>
  <path d="M99.18,78.44c.32-1.53.95-3.17,1.06-4.55-2.01-.47-5.76-.66-7.92-.49l-14.46-33.51h-1.92l-23.75,54.87c-.29.81-1.08,1.67-2.41,1.67-1.42,0-2.33-.93-2.69-1.8l-.25-.58-5.42.96.21.83c.94,3.66,4.29,6.22,8.15,6.22,3.56,0,5.36-1.89,5.52-2.07,3.02-2.74,18.71-16.53,33.53-21.31,1.94,4.54,9.48,22.58,9.56,22.77h6.04s-10.22-23.67-10.22-23.67c1.08.02,3.96.43,4.98.67h0ZM87.03,74.41c-8.5,2.37-22.09,11.39-26.55,14.84l16.34-39.83,10.21,24.99Z"/>
  <path d="M125.05,72.72c-1.94,0-3.67.47-5,1.34-.76.45-1.57,1.21-2.35,2.21-.65-1.45-1.64-2.59-3-3.49l-.24-.16-3.12,3,.31.26c1.54,1.28,2.23,3.1,2.23,5.89v19.38h4.84v-19.29c.85-1.56,1.95-2.71,2.66-3.25.98-.82,2.04-1.15,3.79-1.15.68,0,1.56.04,3.45.53l.45.12v-4.79l-1.17-.21c-1.69-.3-2.15-.39-2.83-.39Z"/>
  <path d="M147.5,93.78c-.85,2.12-2.26,3.15-4.33,3.15s-2.69-1.11-2.69-4.25v-14.59h8.25v-4.84h-8.25v-6.54h-4.79v25.97c0,5.76,2.66,8.93,7.49,8.93,3.61,0,6.44-1.79,8.19-5.18l.14-.27-3.84-2.82-.17.43h0Z"/>
  <path d="M162.98,95.95v-22.81h-4.84v22.81c0,3.07,2.59,5.66,5.66,5.66,2.06,0,4.04-1.21,5.03-3.09l.15-.29-4.22-2.75-.14.47c-.26.87-.56.87-.83.87-.33,0-.82-.36-.82-.87h0Z"/>
  <path d="M160.84,68.35c1.7,0,3.25-1.5,3.25-3.14s-1.55-3.2-3.25-3.2-3.14,1.52-3.14,3.2,1.5,3.14,3.14,3.14Z"/>
  <path d="M189.65,86.22c-1.38-.83-2.93-1.44-4.44-2.03-2.87-1.12-5.35-2.09-5.35-4.2,0-1.62,1.35-2.59,3.6-2.59.79,0,3.57.14,6.35,1.88l.43.27,1.02-4.64-.19-.14c-1.8-1.34-5.23-2.05-7.55-2.05-4.28,0-8.61,2.59-8.61,7.54s3.98,6.56,7.84,8.02c.99.37,2.01.76,2.93,1.2,2.29,1.06,3.06,2.01,3.06,3.74,0,3.35-3.61,3.71-5.16,3.71-2.68,0-5.25-.9-7.66-2.66l-.31-.23-2.47,3.8.24.2c2.7,2.3,6.23,3.57,9.93,3.57,4.79,0,10.38-2.21,10.38-8.45,0-2.95-1.36-5.29-4.03-6.95h0Z"/>
  <path d="M225.14,95.92c-.37.85-.61.91-.96.91s-.82-.33-.82-.87v-22.75h-3.74c-1.96-.27-4.76-.48-6.37-.48-8.16,0-13.65,5.87-13.65,14.61,0,6.88,3.78,14.29,12.09,14.29,3.1,0,5.75-1.06,7.53-2.99,1.04,1.81,2.99,2.99,5.01,2.99,1.62,0,3.88-.81,4.93-3.1l.13-.28-3.98-2.72-.18.4h0ZM218.52,90.38c0,1.11-.19,2.01-.61,2.84-1.15,2.36-3.4,3.71-6.16,3.71-4.97,0-7.2-4.88-7.2-9.71,0-6.06,3.23-9.82,8.43-9.82.96,0,2.34.12,3.68.25.65.06,1.29.12,1.85.16v12.58Z"/>
  <path d="M252.59,101.13h4.63l.22-19.06c0-5.86-3.52-9.36-9.41-9.36-3.64,0-6.42,1.22-8.71,3.83-.66-1.66-1.75-2.96-3.16-3.78l-.24-.14-3.04,2.98.28.26c1.55,1.4,2.24,3.22,2.24,5.89v19.38h4.79v-19.15c2.18-2.9,4.13-4.58,7.57-4.58s4.84,1.62,4.84,5.26v18.47h0Z"/>
  <path d="M290.75,95.52l-.17.4c-.37.85-.61.91-.96.91s-.82-.33-.82-.87v-22.76h-3.74c-1.96-.27-4.76-.48-6.37-.48-8.16,0-13.65,5.87-13.65,14.61,0,6.88,3.78,14.29,12.09,14.29,3.1,0,5.75-1.06,7.53-2.99,1.04,1.81,2.99,2.99,5,2.99,1.62,0,3.88-.81,4.93-3.1l.13-.28-3.99-2.72h0ZM283.96,90.38c0,1.11-.19,2.01-.61,2.84-1.15,2.36-3.4,3.71-6.16,3.71-4.97,0-7.19-4.88-7.19-9.71,0-6.06,3.23-9.82,8.43-9.82.96,0,2.34.12,3.68.25.65.06,1.29.12,1.85.16v12.57Z"/>
  <path d="M304.14,94.77h-2.11v4.94h-.56v-4.94h-2.12v-.52h4.8v.52Z"/>
  <path d="M310.88,99.71h-.55v-4.72l-2.32,3.91-2.22-3.91v4.72h-.58v-5.46h.76l2.04,3.6,2.07-3.6h.79v5.46h0Z"/>
</svg>