<?xml version="1.0" encoding="UTF-8"?>
<svg id="Layer_1" data-name="Layer 1" xmlns="http://www.w3.org/2000/svg" viewBox="0 0 352.3 165.34">
  <defs>
    <style>
      .cls-1 {
        fill: #244093;
      }
    </style>
  </defs>
  <path class="cls-1" d="M323.05,63.08c0,1.87-1.51,3.38-3.38,3.38h0c-1.87,0-3.38-1.51-3.38-3.38h0c0-1.87,1.51-3.38,3.38-3.38h0c1.87,0,3.38,1.51,3.38,3.38h0ZM321.7,64.12c.59-.67.52-1.7-.15-2.29,0,0,0,0,0,0l-.89-.78c-.67-.59-1.7-.52-2.29.15,0,0,0,0,0,0l-.87.99c-.59.67-.52,1.7.15,2.29,0,0,0,0,0,0l.89.78c.67.59,1.7.52,2.29-.15,0,0,0,0,0,0l.87-.99Z"/>
  <circle class="cls-1" cx="319.72" cy="63.03" r="1.1"/>
  <path class="cls-1" d="M65.52,79.55c-.03-.14-.17-.23-.31-.2-.08.02-.15.07-.18.14l-11.67,25.59c-.11.23-.38.33-.61.22-.1-.04-.17-.12-.22-.21l-12.19-25.35c-.03-.06-.11-.09-.18-.05-.03.02-.05.05-.06.08l-4.83,23.17c-.33,1.59-1.88,2.61-3.47,2.28,0,0,0,0,0,0l-.32-.07c-1.53-.31-2.51-1.81-2.19-3.34,0,0,0,0,0,0l8.06-38.7c.12-.53.64-.87,1.18-.76.3.06.55.26.68.54l13.59,28.26c.1.2.35.29.55.19.08-.04.15-.11.19-.2,4.17-9.29,8.43-18.62,12.8-27.98.25-.55.89-.79,1.43-.55.04.02.08.04.12.07.8.5,4.99,22.72,8.32,38.91.33,1.63-.69,3.22-2.31,3.6l-.16.04c-1.54.39-3.11-.54-3.51-2.08-.01-.05-.02-.1-.03-.15l-4.68-23.44Z"/>
  <path class="cls-1" d="M96.42,62.38c.46,0,.76.15.9.46,5.7,12.35,11.56,24.98,17.59,37.89.81,1.53.26,3.43-1.24,4.32l-.19.1c-1.44.76-3.22.2-3.98-1.23-.03-.05-.05-.1-.07-.15l-3.92-8.58c-.2-.44-.63-.74-1.12-.77-1.01-.07-3.68-.1-7.99-.1-4.31,0-6.98.02-7.99.09-.49.03-.92.33-1.12.77l-3.94,8.57c-.67,1.48-2.42,2.13-3.9,1.45-.05-.02-.1-.05-.15-.07l-.19-.1c-1.5-.89-2.04-2.79-1.23-4.32,6.04-12.91,11.92-25.53,17.63-37.87.15-.31.45-.46.91-.46ZM90.22,88.62c-.07.15,0,.33.15.39.04.02.08.02.12.03l11.67-.02c.17,0,.3-.13.31-.29,0-.04,0-.09-.03-.13l-5.86-12.61c-.07-.15-.24-.22-.39-.16-.07.03-.12.09-.16.16l-5.81,12.63Z"/>
  <path class="cls-1" d="M116.49,65.64c0-1.67,1.36-3.02,3.03-3.01h0l8.88.03c11.73.04,21.21,9.24,21.17,20.55,0,0,0,0,0,0v1.7c-.04,11.31-9.58,20.44-21.31,20.4l-8.88-.03c-1.67,0-3.02-1.36-3.01-3.03h0s.12-36.62.12-36.62ZM122.83,68.27l.06,31.3c0,.29.23.52.52.52h4.13c8.71-.03,15.76-6.98,15.74-15.55v-1.32c-.02-8.57-7.09-15.5-15.8-15.48h-4.13c-.29,0-.52.24-.52.53Z"/>
  <path class="cls-1" d="M157.86,80.03l14.57.02c1.4,0,2.53,1.14,2.53,2.53,0,.05,0,.1,0,.16v.23c-.04,1.43-1.21,2.58-2.64,2.57l-13.98-.04c-.55,0-1,.45-1,1v12.94c0,.38.3.68.68.68l14.4.03c1.37,0,2.48,1.12,2.47,2.49,0,.03,0,.05,0,.08v.2c0,1.42-1.15,2.58-2.57,2.6-8.78.17-15.07.15-18.86-.05-2.3-.11-2.76-1.86-2.76-3.95,0-9.47.03-21.23.11-35.3.01-2.13,1.17-3.22,3.46-3.29,5.54-.17,11.65-.27,18.34-.3,1.51,0,2.73,1.21,2.74,2.71,0,.02,0,.03,0,.05v.13c0,1.51-1.22,2.74-2.73,2.75-.02,0-.05,0-.07,0l-14.49-.27c-.45-.01-.82.35-.83.8,0,0,0,.01,0,.02v10.56c0,.36.29.65.64.65h0Z"/>
  <path class="cls-1" d="M257.59,102.9l3.45-3.46c.32-.32.81-.44,1.24-.29,12.43,4.22,23.95-9.26,18.71-21.02-3.29-7.4-11.81-11.88-19.55-8.54-8.08,3.49-12.62,12.81-8.58,20.84.52,1.04.32,2.29-.5,3.11l-1.9,1.89c-.64.64-1.68.64-2.32,0-.14-.14-.26-.31-.34-.49-4.51-10.19-3.2-18.89,3.93-26.08,5.29-5.34,13.64-7.29,21.09-5.19,10.56,2.96,17.27,13.13,15.41,24.26-2.34,13.95-17.39,21.38-30.48,15.83-.27-.12-.39-.43-.27-.7.03-.06.06-.11.11-.16Z"/>
  <path class="cls-1" d="M289.92,65.42c.01-1.58,1.29-2.85,2.87-2.84l8.85.04c11.89.06,21.48,9.4,21.42,20.86,0,0,0,0,0,0v1.2c-.06,11.46-9.75,20.69-21.64,20.63l-8.85-.04c-1.58,0-2.86-1.29-2.85-2.87,0,0,0,0,0-.01l.2-36.98ZM296.13,68.37l.16,31.14c0,.31.26.57.57.57h0l4.2-.02c8.64-.04,15.61-7.08,15.57-15.72h0v-1c-.04-8.64-7.09-15.6-15.73-15.56,0,0,0,0,0,0l-4.2.02c-.31,0-.57.26-.57.57h0Z"/>
  <path class="cls-1" d="M213.4,90.13c.08-.35-.14-.71-.49-.79-.05-.01-.1-.02-.15-.02h-10.91c-1.49,0-2.7-1.21-2.7-2.7,0-.08,0-.15,0-.23l.03-.37c.11-1.5,1.36-2.66,2.86-2.68,6.21-.07,10.99-.09,14.34-.06,2.49.02,3.39,1.13,3.37,3.54-.17,15.65-17.27,22.79-30.1,16.35-14.9-7.47-15.48-29.19-.39-37.56,9.3-5.16,20.04-2.78,26.97,5.17,1.07,1.23,1.11,3.06.1,4.34l-.06.07c-.94,1.18-2.65,1.38-3.84.44-.07-.05-.13-.11-.19-.17-2.21-2.13-3.63-3.4-4.26-3.81-6.38-4.04-14.5-3.22-19.29,2.02-10.42,11.39-.46,28.32,14.46,25.41,4.7-.92,9.12-4.35,10.24-8.95Z"/>
  <path class="cls-1" d="M252.02,64.73c.27.12.39.43.27.7-.03.06-.06.11-.11.16l-3.48,3.44c-.33.32-.81.43-1.24.28-12.41-4.3-24.02,9.11-18.85,20.91,3.25,7.42,11.74,11.96,19.5,8.67,8.11-3.44,12.71-12.74,8.72-20.79-.51-1.04-.3-2.3.52-3.11l1.91-1.88c.64-.64,1.68-.63,2.32,0,.14.14.26.32.34.5,4.45,10.22,3.08,18.91-4.1,26.06-5.33,5.31-13.69,7.2-21.13,5.06-10.54-3.03-17.19-13.25-15.26-24.37,2.43-13.94,17.53-21.27,30.59-15.64Z"/>
</svg>