<?xml version="1.0" encoding="UTF-8"?>
<svg id="Layer_1" data-name="Layer 1" xmlns="http://www.w3.org/2000/svg" xmlns:xlink="http://www.w3.org/1999/xlink" viewBox="0 0 352.3 165.34">
  <defs>
    <style>
      .cls-1 {
        fill: #ec642a;
      }

      .cls-2 {
        fill: url(#linear-gradient-2);
      }

      .cls-3 {
        fill: url(#linear-gradient);
      }

      .cls-4 {
        fill: #1e1e1e;
      }

      .cls-5 {
        fill: #e7ce2b;
      }
    </style>
    <linearGradient id="linear-gradient" x1="272.23" y1="75.8" x2="332.23" y2="75.8" gradientUnits="userSpaceOnUse">
      <stop offset=".21" stop-color="#e7ce2b"/>
      <stop offset=".98" stop-color="#ec642a"/>
    </linearGradient>
    <linearGradient id="linear-gradient-2" x1="279.85" y1="75.89" x2="326" y2="75.89" gradientUnits="userSpaceOnUse">
      <stop offset=".21" stop-color="#e7ce2b"/>
      <stop offset=".57" stop-color="#ec642a"/>
      <stop offset=".86" stop-color="#e7ce2b"/>
    </linearGradient>
  </defs>
  <rect class="cls-5" x="267.36" y="25.94" width="1.33" height="1.39" rx=".26" ry=".26" transform="translate(-.26 2.81) rotate(-.6)"/>
  <path class="cls-5" d="M258.25,31.16l4.56.45c.06,0,.11.05.11.11,0,.06-.05.11-.11.11l-4.56.43c-.05,0-.09.05-.1.1l-.45,4.56c0,.06-.05.11-.11.11s-.11-.05-.11-.11l-.43-4.56c0-.05-.05-.09-.1-.1l-4.56-.45c-.06,0-.11-.05-.11-.11,0-.06.05-.11.11-.11l4.56-.43c.05,0,.09-.05.1-.1l.45-4.56c0-.06.05-.11.11-.11.06,0,.11.05.11.11l.43,4.56c0,.05.05.09.1.1Z"/>
  <rect class="cls-5" x="281.5" y="27.92" width="1.38" height="1.4" rx=".29" ry=".29" transform="translate(-.24 2.46) rotate(-.5)"/>
  <path class="cls-5" d="M246.14,37.88l.88.45c.06.02.09.08.07.14-.02.06-.08.09-.14.07h0l-.97-.22s-.1.01-.12.05l-.45.88c-.02.06-.08.09-.14.07-.06-.02-.09-.08-.07-.14l.22-.97s-.01-.1-.05-.12l-.88-.45c-.06-.02-.09-.08-.07-.14.02-.06.08-.09.14-.07l.97.22s.1-.01.12-.05l.45-.88c.02-.06.08-.09.14-.07.06.02.09.08.07.14l-.22.97s.01.1.05.12Z"/>
  <path class="cls-5" d="M292.35,44.29c-.06-.07-.09-.23-.09-.49-.01-.43-.34-.63-.99-.62-.03,0-.06-.02-.06-.05,0-.02,0-.04.03-.06.04-.03.19-.05.44-.06.39-.01.59-.26.6-.75,0-.04.03-.08.07-.08.04,0,.08.03.08.07l.12.49c.04.16.17.27.33.29l.42.03s.04.02.03.04c0,.01-.01.03-.02.03-.29.1-.47.15-.53.16-.15,0-.26.12-.28.27l-.06.7s-.03.05-.06.04c-.01,0-.02,0-.03-.02Z"/>
  <rect class="cls-5" x="266.5" y="45.75" width="1.71" height="1.76" rx=".37" ry=".37" transform="translate(45.34 202.7) rotate(-45)"/>
  <rect class="cls-5" x="281.99" y="48.63" width="1.84" height="1.84" rx=".47" ry=".47" transform="translate(47.82 214.56) rotate(-45)"/>
  <path class="cls-5" d="M326,66.3l-7.36,2.71.69-.5s0,0,0-.01l-.04-.07s-.07-.05-.11-.03c-7.99,4.05-16.25,6.95-24.78,8.7-1.55.32-3.57.59-6.08.82-2.72.25-5.23.11-7.52-.41-.98-.22-2.07-.76-2.73-1.36-2.09-1.92-.97-4.77.49-6.64.03-.03.03-.08,0-.1-.03-.03-.07-.03-.1,0-1.48,1.11-2.79,2.2-3.95,3.26-1.46,1.34-3.93,4.13-3.57,6.17.37,2.16,3.23,2.78,5.13,2.93,1.25.1,2.73.07,4.44-.11,4.24-.43,8.41-1.22,12.52-2.36-1.84.99-3.73,1.87-5.67,2.62-2.63,1.02-5.81,2.25-7.48,3.43-.03.02-.04.06-.02.08.01.02.03.03.05.03l.71.02c-2.51.14-5,.06-7.49-.22-.03,0-.05.02-.06.04h0s.01.05.04.06c0,0,0,0,0,0l2.54.47-3.42,1.77c-2.08-2.17-3.57-3.99-4.46-5.48-.47-.79-.61-1.84-.39-3.14l.12-.66c.24-.44.47-.89.69-1.35.84-1.77,2.19-3.35,3.56-4.73,1.33-1.34,2.81-2.61,4.43-3.81,4.51-3.34,9.41-6.24,14.7-8.7,2.07-1,4.27-1.94,6.61-2.83,7.16-2.72,14.8-4.74,22.54-5.15,3.36-.18,7.47.03,10.11,2.03,2.33,1.77,1.93,4.83.58,7.04-1.27,2.07-2.84,3.9-4.71,5.48Z"/>
  <path class="cls-5" d="M277.88,55.46l.81.14c.06.01.1.07.09.13,0,.05-.04.08-.09.09l-.8.15s-.08.04-.09.09l-.14.81c-.01.06-.07.1-.13.09-.05,0-.08-.04-.09-.09l-.15-.8s-.04-.08-.09-.09l-.81-.14c-.06-.01-.1-.07-.09-.13,0-.05.04-.08.09-.09l.8-.15s.08-.04.09-.09l.14-.81c.01-.06.07-.1.13-.09.05,0,.08.04.09.09l.15.8s.04.08.09.09Z"/>
  <rect class="cls-5" x="267.74" y="57.58" width="1.44" height="1.48" rx=".4" ry=".4" transform="translate(207.33 326.15) rotate(-89.4)"/>
  <path class="cls-5" d="M266.19,66.29l2.85.27c.06,0,.1.05.1.1,0,.06-.05.1-.1.1l-2.85.27s-.09.04-.09.09l-.27,2.85c0,.06-.05.1-.1.1s-.1-.05-.1-.1l-.27-2.85s-.04-.09-.09-.09l-2.85-.27c-.06,0-.1-.05-.1-.1,0-.06.05-.1.1-.1l2.85-.27s.09-.04.09-.09l.27-2.85c0-.06.05-.1.1-.1s.1.05.1.1h0l.27,2.85s.04.09.09.09Z"/>
  <path class="cls-5" d="M342.32,67.48c-.06.38-.34.68-.7.74-2.89.5-5.62,1.32-8.19,2.47-.05.02-.12,0-.14-.05,0,0,0,0,0-.01-.01-.03-.01-.06,0-.1,0,0,0,0,0-.01,1.29-1.69,3.93-4.28,6.09-4.49.94-.09,3.16.11,2.95,1.46Z"/>
  <path class="cls-5" d="M32.01,130.72s0,.06.02.09c-.05-.04-.13-.04-.24,0-.02-.03-.05-.06-.07-.09.15-.02.24-.01.3.02Z"/>
  <path class="cls-1" d="M277.28,23.76l-1.03.11c-.1.01-.18.1-.18.2,0,.43-.05.85-.13,1.26-.01.05-.06.07-.11.06-.04,0-.06-.04-.06-.07l-.08-1.26c0-.1-.09-.18-.19-.19l-1.15-.1s-.05-.03-.05-.06c0-.01,0-.03.02-.04l.08-.07s.06-.02.09-.02h1.01c.1,0,.19-.08.2-.19l.08-.95s.03-.06.07-.06c0,0,.02,0,.02,0l.18.09s.01.01.01.02c0,0,0,0,0,0-.07.28-.06.58.02.9.03.1.12.17.22.17.58,0,.91.01.99.04.04.01.06.05.04.08,0,.03-.03.05-.06.05Z"/>
  <circle class="cls-1" cx="288.06" cy="23.78" r=".37"/>
  <path class="cls-1" d="M272.38,35.67c.08,0,.14.02.16.06.37.68.89,1.22,1.56,1.62.01,0,.02.03.02.08s0,.07-.02.08c-.67.41-1.18.95-1.55,1.63-.02.04-.07.06-.15.06-.08,0-.14-.02-.16-.06-.37-.68-.89-1.22-1.56-1.62-.01,0-.02-.03-.02-.08s0-.07.02-.08c.67-.41,1.18-.95,1.55-1.63.02-.04.07-.06.15-.06Z"/>
  <circle class="cls-1" cx="289.02" cy="37.62" r=".35"/>
  <path class="cls-1" d="M281.77,42.79l1.89-1.59s.11-.04.15,0c.04.04.04.1,0,.14l-1.59,1.89s-.03.1,0,.14l1.59,1.89s.04.11,0,.15c-.04.04-.1.04-.14,0l-1.89-1.59s-.1-.03-.14,0l-1.89,1.59s-.11.04-.15,0c-.04-.04-.04-.1,0-.14l1.59-1.89s.03-.1,0-.14l-1.59-1.89s-.04-.11,0-.15c.04-.04.1-.04.14,0l1.89,1.59s.1.03.14,0Z"/>
  <rect class="cls-1" x="256.91" y="43.49" width=".96" height="1" rx=".48" ry=".48" transform="translate(209.82 300.74) rotate(-89.2)"/>
  <circle class="cls-1" cx="246.9" cy="45.3" r=".38"/>
  <circle class="cls-1" cx="291.07" cy="50.41" r=".38"/>
  <path class="cls-1" d="M260.67,51.42l1.13-.93s.12-.04.16,0,.04.12,0,.16h0l-.93,1.13s-.03.1,0,.14l.93,1.13s.04.12,0,.16-.12.04-.16,0l-1.13-.93s-.1-.03-.14,0l-1.13.93s-.12.04-.16,0-.04-.12,0-.16l.93-1.13s.03-.1,0-.14l-.93-1.13s-.04-.12,0-.16c.04-.04.12-.04.16,0h0l1.13.93s.1.03.14,0Z"/>
  <circle class="cls-1" cx="273.36" cy="52.91" r=".42"/>
  <path class="cls-1" d="M333.83,66.4c.26-2.11.93-4.89,3.16-5.66.32-.11.68.06.79.38.03.08.04.17.03.26-.02.2-.11.39-.28.57-1.09,1.18-2.26,2.69-3.49,4.53-.04.05-.11.07-.17.03-.03-.02-.05-.07-.05-.11Z"/>
  <path class="cls-3" d="M325.12,72.85c-1.52,1.21-2.88,2.21-4.11,3.01-3.71,2.44-7.84,4.67-12.39,6.68l-1.49.65c-3.69,1.56-7.56,2.93-11.6,4.09-3.97,1.14-8.34,1.93-13.12,2.35-3.96.35-7.35-.33-10.18-2.03l3.42-1.77c1.64.22,3.33.27,5.06.16,3.07-.2,6.12-.57,9.15-1.25,11.91-2.69,22.82-7.35,32.75-14,1.54-1.03,3.2-2.31,4.96-3.84,1.76-1.53,3.25-3.18,4.47-4.97.03-.05.1-.06.15-.02.03.02.05.06.04.1-.19.94-.38,2.14-.89,3.21-.95,1.98-2.21,3.76-3.78,5.35-.76.77-1.58,1.54-2.44,2.29Z"/>
  <circle class="cls-1" cx="275.72" cy="63.59" r=".33"/>
  <path class="cls-2" d="M326,66.3c-2.33,2.11-4.55,3.83-6.66,5.17-9.05,5.75-18.74,9.88-29.07,12.39-3.07.75-6.29,1.29-9.65,1.61l-.71-.02s-.06-.02-.06-.06c0-.02,0-.04.03-.05,1.67-1.18,4.85-2.41,7.48-3.43,1.94-.75,3.83-1.63,5.67-2.62,7.85-2.28,15.44-5.25,22.77-8.92.95-.47,1.89-.93,2.84-1.37l7.36-2.71Z"/>
  <path class="cls-1" d="M330.12,73.86c2.08-.64,4.95-1.17,6.6.6.24.25.23.66-.03.9-.07.06-.14.11-.23.14-.19.07-.41.06-.65-.02-1.56-.53-3.45-.99-5.68-1.38-.07-.01-.11-.08-.09-.15,0-.04.04-.07.08-.09Z"/>
  <g>
    <path class="cls-4" d="M290.88,59.72c-5.29,2.45-10.19,5.35-14.7,8.7-1.62,1.2-3.1,2.47-4.43,3.81-1.37,1.38-2.72,2.97-3.56,4.73-.22.47-.45.92-.69,1.35-1.84.6-3.58,1.38-5.21,2.33,0,0-.01.01,0,.02,0,0,0,0,.01.01.03.01.06.01.08,0,1.58-.68,3.25-1.25,5.01-1.71-.21,1.3-.08,2.35.39,3.14.89,1.49,2.38,3.32,4.46,5.48,2.82,1.7,6.22,2.38,10.18,2.03,4.78-.42,9.16-1.2,13.12-2.35,4.05-1.17,7.92-2.53,11.6-4.09,4.3,1.59,8.12,3.7,11.46,6.33.82.64,1.63,1.3,2.42,1.96h0s0,0,0,0c0,0,0,0,0,0-3.15-3.88-7.66-6.88-12.41-8.94,4.55-2.01,8.68-4.24,12.39-6.68,1.22-.8,2.59-1.81,4.11-3.01,4.76,3.68,9.84,9.76,8.5,16.19-.04.2-.27.83-.67,1.86-.26.67-.57,1.25-.93,1.75-2.71,3.72-6.62,5.85-10.95,7.28-5.22,1.72-11.21,2.44-16.56,2.43-10.08-.03-19.96-1.85-29.63-5.48-2.92-1.09-5.77-2.41-8.53-3.95-6.21-3.45-13.27-8.79-15.12-16.02-.15-.6-.23-1.7-.22-3.29,0-1.49.63-2.78,1.26-4.05.1-.2.14-.44.11-.66-.42-3.1-2.27-6.03-4.45-8.24-3.93-3.97-8.82-6.88-14.02-9.43-.42-.21-3.31-1.49-8.65-3.84-2.5-1.1-6.24-3.41-3.85-6.69,1.63-2.23,4.92-3.67,7.64-2.94.95.26,2.48.94,4.59,2.06,6.65,3.52,12.9,8.96,18.72,14.33,3.3,3.05,7.05,5.43,11.23,7.15.12.05.25.06.38.02,8.67-2.61,17.92-2.82,26.91-1.6ZM253.86,57.89c1.15,1.38,2.04,2.78,2.68,4.2.05.1.16.15.27.11l2.32-.99s.06-.06.04-.1c0-.02-.02-.03-.04-.04-1.6-.8-3.32-1.9-5.14-3.32-.04-.03-.1-.02-.13.02-.03.04-.03.08,0,.12ZM266.19,66.29s-.09-.04-.09-.09l-.27-2.85c0-.06-.05-.1-.1-.1s-.1.05-.1.1h0l-.27,2.85s-.04.09-.09.09l-2.85.27c-.06,0-.1.05-.1.1,0,.06.05.1.1.1l2.85.27s.09.04.09.09l.27,2.85c0,.06.05.1.1.1s.1-.05.1-.1l.27-2.85s.04-.09.09-.09l2.85-.27c.06,0,.1-.05.1-.1,0-.06-.05-.1-.1-.1l-2.85-.27ZM276.05,63.59c0-.18-.15-.33-.33-.33-.18,0-.33.15-.33.33h0c0,.18.15.33.33.33h0c.18,0,.33-.15.33-.33Z"/>
    <path class="cls-4" d="M251.87,79.72c1.22,2.82,3.02,5.34,5.39,7.57,5.03,4.73,11.19,8.15,17.53,10.56,11.69,4.46,24.34,6.38,36.75,4.98,5.05-.57,9.58-1.87,13.58-3.89,2.45-1.24,4.41-2.78,5.87-4.61.1-.13.21-.22.33-.27.03-.02.07,0,.09.03,0,.02,0,.04,0,.06-1.21,2.43-2.58,4.71-4.13,6.85-4.94,6.82-11.6,10.75-19.99,11.79-4.59.57-9.25.52-13.99-.15-15.27-2.16-31.62-6.65-38.42-22.07-1.54-3.5-2.57-7.11-3.08-10.83,0-.02,0-.05.03-.05.02,0,.04,0,.05.03Z"/>
  </g>
  <g>
    <path class="cls-4" d="M113.88,109.71c-.1.02-.2-.06-.21-.16,0-.02,0-.03,0-.05,2.6-21.3,4.32-42.77,5.4-64.07,0-.08.07-.15.15-.16l15.33-1.47c.17-.02.33.1.37.26,5.08,20.89,10.62,41.49,17.01,61.81.02.06-.01.13-.07.15,0,0-.02,0-.03,0l-13.16.83c-.1,0-.19-.07-.21-.17l-1.77-9.87c-.02-.12-.13-.21-.26-.2l-9.52.91c-.1,0-.18.1-.18.2v10.14c0,.05-.04.1-.09.11l-12.76,1.73ZM130.47,83.37c1.07-.1,2.18-.2,3.34-.29.06,0,.11-.06.1-.12,0,0,0-.02,0-.02-.55-2.03-1.15-4.11-1.62-6.07-1.12-4.7-2.27-9.37-3.45-14.02-.17-.68-.3-1.02-.39-1.01-.08,0-.15.36-.19,1.07-.29,4.78-.56,9.59-.78,14.42-.1,2.01-.3,4.17-.47,6.26,0,.06.04.12.1.12,0,0,.02,0,.03,0,1.15-.12,2.26-.24,3.33-.34Z"/>
    <path class="cls-4" d="M175.8,82.6l.29-26.52c0-.13.1-.23.23-.22,0,0,0,0,0,0l10.74.4c.1,0,.18.09.18.19,0,0,0,.01,0,.02-1.54,9.85-2.75,19.8-3.64,29.85-.6,6.79-1,13.22-1.2,19.3,0,.09-.08.16-.17.16l-9.72-.11c-.15,0-.27-.11-.29-.26-1.23-9.27-2.61-18.47-4.5-27.57-.05-.23-.11-.42-.2-.57-.02-.04-.08-.05-.11-.03-.02.01-.04.04-.04.06-.98,9.22-1.6,18.61-1.85,28.16,0,.11-.09.19-.2.2l-9.85.23c-.07,0-.14-.06-.14-.13-.1-1.12-.59-4.48-1.48-10.06-2.12-13.27-4.94-26.21-8.11-39.08-.02-.1.04-.2.14-.23.01,0,.03,0,.04,0l10.79-.47c.09,0,.16.06.17.15l2.84,26.34s.03.05.06.05c.02,0,.03-.01.04-.03.02-.03.03-.14.04-.34.22-8.46.58-17.17,1.06-26.13,0-.08.07-.14.15-.14h10.92c.06,0,.12.05.12.11l3.62,26.71s0,0,.01,0h0s.06-.03.06-.06Z"/>
    <path class="cls-4" d="M216.21,108.42l-10.32-1.24s-.08-.04-.08-.08l-.86-7.97c0-.08-.07-.14-.14-.14l-7.51-.62c-.11,0-.2.07-.2.18l-.63,7.73c0,.08-.07.13-.15.13l-10.18-.38c-.1,0-.18-.09-.17-.19,0-.01,0-.02,0-.03,3.43-15.91,6-30.84,8.42-47.67.08-.55.12-.96.13-1.23,0-.14.12-.25.26-.24,0,0,.01,0,.02,0l12.04.99c.1,0,.19.09.2.19,2.58,17.03,5.72,33.8,9.43,50.3.03.12-.05.25-.17.28-.03,0-.05,0-.08,0ZM200.7,70.99l-2.35,16.45c-.01.1.06.2.16.21,0,0,0,0,.01,0l5.04.41c.08,0,.15-.06.16-.14,0-.01,0-.03,0-.04-.46-2.14-.82-4.19-1.08-6.15-.43-3.22-.82-5.27-1.43-9.18-.11-.68-.25-1.21-.43-1.58,0-.02-.03-.03-.05-.02-.01,0-.02.02-.03.04Z"/>
    <path class="cls-4" d="M228.16,74.39c.01.06.07.09.12.08.04,0,.07-.04.08-.07l4.21-13.3c.04-.14.18-.23.33-.2l12.1,2.03c.1.02.17.11.16.22,0,.02,0,.04-.02.05-4.1,8-8.13,16.15-12.1,24.45-.39.82-.67,1.47-.84,1.95-.03.09-.04.18-.04.27l.47,20.54c0,.08-.06.14-.13.14,0,0-.01,0-.02,0l-10.06-1.44c-.1-.01-.17-.1-.16-.2.6-8.19,1.06-14.73,1.38-19.62.08-1.14-.29-1.91-.68-2.96-3.51-9.35-7.15-18.66-10.91-27.93-.03-.08,0-.18.09-.21.03-.01.05-.01.08-.01l12.23,1.47c.13.02.24.11.27.24l3.44,14.51Z"/>
    <path class="cls-4" d="M95.86,76.55s.03.04.06.03c.02,0,.03-.02.03-.04l2.11-14.78c.01-.11.1-.19.2-.2l11.88-1.61c.07,0,.14.04.15.11,0,.02,0,.04,0,.05-2.79,9.57-5.5,19.37-8.14,29.41-.07.29-.12.64-.13,1.06,0,.01,0,.02,0,.04l3.62,20.21c.02.09-.04.17-.13.19l-9.82,1.76c-.08.01-.15-.03-.16-.11,0,0,0-.01,0-.02-.64-6.73-1.19-13.23-1.68-19.51-.11-1.43-.52-2.02-1.37-3.45-4.8-8.07-9.63-15.97-14.5-23.71-.07-.12-.04-.27.08-.34.02-.02.05-.03.08-.03l11.9-2.45c.07-.02.14.02.16.09l5.67,13.31Z"/>
    <path class="cls-4" d="M32.01,130.72c-.05-.03-.15-.03-.3-.02-1.65-9.72-3.58-19.39-5.77-29-2.4-10.52-5.1-21.01-8.1-31.48-.04-.03-.06-.16-.04-.37,9.74-3.63,19.74-7,29.51-9.87.14-.04.28.04.33.18,0,.01,0,.02,0,.04l1.76,12.98c.02.13-.06.26-.19.3l-15,4.74c-.09.03-.15.12-.13.22l1.84,10.32c.02.11.12.18.23.16,0,0,.02,0,.03,0l12.18-3.85c.13-.04.28.03.32.17,0,.01,0,.03,0,.04l1.67,12.28c.01.09-.04.17-.12.2l-11.84,3.74c-.07.02-.11.09-.09.16l5.85,24.72c.01.05-.02.11-.07.13l-12.09,4.22Z"/>
    <path class="cls-4" d="M75.16,94.86c1.36.54,2.45,1.35,3.28,2.44,1.18,1.55,2.13,3.04,2.85,4.45,1.96,3.86,4.06,8.01,6.3,12.46.05.1,0,.23-.1.28-.01,0-.03.01-.05.02l-10.73,2.4c-.08.02-.16-.02-.19-.1-3.42-8.17-4.97-12.09-6.74-15.88-.64-1.37-1.68-2.6-3.3-2.06-.14.05-.22.19-.19.33l4.27,19.14c.02.09-.03.17-.12.2l-9.65,2.67c-.11.03-.23-.03-.26-.14,0,0,0-.02,0-.03-2.12-16.17-5.32-32.26-9.18-48.22-.04-.17.06-.33.22-.38,5.15-1.47,10.05-2.79,14.68-3.97,2.69-.69,5.24-1.46,7.85-.59,3.38,1.13,4.98,6.1,5.44,9.18.72,4.78.77,9.69-1.27,13.94-.75,1.56-1.79,2.8-3.14,3.72-.04.03-.05.08-.02.12,0,.01.02.02.04.03ZM65.04,89.44c1.38-.36,2.6-.78,3.64-1.27,1.09-.51,1.69-1.38,1.79-2.6.19-2.37-.53-6.81-3.67-6.73-1.08.03-2.26.55-3.36.75-.15.03-.26.17-.23.33,0,0,0,0,0,0l1.69,9.43c.01.06.07.1.13.09,0,0,0,0,0,0Z"/>
    <path class="cls-4" d="M167.9,113.26l-.23-3.56c0-.15.11-.27.25-.28,0,0,.02,0,.02,0l.98.04c.19,0,.34.16.36.35l.58,9.21c0,.07-.05.12-.11.13,0,0,0,0-.01,0l-1.1-.04c-.13,0-.23-.1-.24-.23v-.21c-.02-.08-.09-.14-.16-.14-.04,0-.07.02-.1.05-3.06,3.25-6.35-3.79-3.18-5.7.77-.47,1.56-.39,2.39.22.12.09.26.17.42.27.04.02.1,0,.13-.04,0-.02.01-.03.01-.05ZM166.52,113.76c-.74.1-1.22,1.16-1.06,2.38h0c.16,1.22.89,2.13,1.63,2.04h0c.74-.1,1.22-1.16,1.06-2.38-.16-1.22-.89-2.13-1.63-2.04Z"/>
    <rect class="cls-4" x="156.75" y="109.52" width="1.65" height="9.67" rx=".69" ry=".69" transform="translate(-8.66 13.01) rotate(-4.6)"/>
    <path class="cls-4" d="M174.31,112.92l.44.02c.13,0,.24-.1.25-.23,0,0,0-.01,0-.02-.03-.94-.59-2.82.97-2.99.64-.07,1.19-.08,1.66-.02.09.01.15.08.16.17l.1,1.06c0,.08-.05.16-.14.16-.01,0-.02,0-.03,0-1.51-.22-1.26.86-1.16,1.75.01.1.1.18.2.19l1.05.04c.15,0,.26.12.28.26l.08.8c.01.12-.08.23-.2.24,0,0-.02,0-.03,0l-1.07-.04c-.09,0-.16.06-.16.15,0,0,0,.01,0,.02l.45,4.63c.01.1-.07.2-.17.21,0,0-.02,0-.02,0l-1.24-.05c-.1,0-.19-.08-.2-.19l-.45-4.69c0-.09-.09-.16-.18-.15,0,0,0,0,0,0l-.41.04c-.12.01-.22-.07-.23-.19,0,0,0,0,0,0l-.1-.98c0-.1.06-.18.16-.19,0,0,.01,0,.02,0Z"/>
    <path class="cls-4" d="M161.59,111.66h-1.18c-.11,0-.19-.08-.2-.19l-.14-1.31c-.01-.11.07-.22.18-.23,0,0,.01,0,.02,0h1.18c.11,0,.19.08.2.19l.14,1.31c.01.11-.07.22-.18.23,0,0-.01,0-.02,0Z"/>
    <path class="cls-4" d="M172.83,111.45c0,.12-.09.22-.21.23,0,0,0,0,0,0l-1.06.04c-.17,0-.31-.11-.32-.27l-.05-1.17c0-.15.13-.28.29-.29l1.06-.04c.12,0,.22.09.22.21l.05,1.29Z"/>
    <path class="cls-4" d="M178.86,110.35c0-.05.04-.09.09-.09h1.2c.2-.01.37.04.37.1v1.44c.01.06-.15.11-.36.11h-1.2c-.05,0-.09-.03-.09-.08h0s-.01-1.47-.01-1.47Z"/>
    <rect class="cls-4" x="135.04" y="110.55" width="1.67" height="9.63" rx=".8" ry=".8" transform="translate(-8.81 11.27) rotate(-4.6)"/>
    <rect class="cls-4" x="131.16" y="111.35" width="1.63" height="1.68" rx=".79" ry=".79" transform="translate(-7.32 9.24) rotate(-3.9)"/>
    <path class="cls-4" d="M149.03,116.61c-.36-2.3.84-4,3.33-3.83,1.74.12,2.67,1.33,2.92,2.96.36,2.3-.84,4-3.33,3.83-1.74-.12-2.67-1.33-2.92-2.96ZM151.94,113.92c-.8.08-1.35,1.15-1.22,2.38h0c.13,1.23.88,2.17,1.68,2.08h0c.8-.08,1.35-1.15,1.22-2.38s-.88-2.17-1.68-2.08h0Z"/>
    <rect class="cls-4" x="160.49" y="112.81" width="1.67" height="6.32" rx=".71" ry=".71" transform="translate(-8.6 13.02) rotate(-4.5)"/>
    <path class="cls-4" d="M173.2,119.17h-1.26c-.08,0-.16-.07-.16-.15l-.38-5.95c0-.09.06-.16.15-.17,0,0,0,0,0,0h1.26c.08,0,.16.07.16.15l.38,5.95c0,.09-.06.16-.15.17,0,0,0,0,0,0Z"/>
    <path class="cls-4" d="M142.32,117.97c-.01-.09.05-.18.15-.19,0,0,0,0,0,0,.42-.04,1.29-.25,1.54.42.04.1.1.18.19.24.45.3,1.85.37,2.12-.33.11-.28-.05-.6-.36-.71-.04-.01-.08-.03-.13-.03-1.27-.18-3.08-.34-3.45-1.63-.59-2.1,1.64-2.85,3.25-2.64.91.12,1.55.62,1.92,1.51.08.19,0,.4-.2.48-.04.02-.08.03-.12.03l-.68.04c-.23.02-.44-.12-.52-.33-.29-.73-1.95-.8-2.14.05-.06.27.11.55.4.61.02,0,.04,0,.05,0,1.35.17,3.44.31,3.59,1.98.13,1.43-.82,2.14-2.15,2.34-1.47.21-3.23-.12-3.48-1.85Z"/>
    <path class="cls-4" d="M179.26,113.08l1.29.02c.08,0,.14.06.14.13l.38,6.08c0,.08-.06.15-.14.15,0,0,0,0,0,0h-1.29c-.08-.01-.14-.07-.14-.15l-.38-6.08c0-.08.05-.15.13-.15,0,0,0,0,0,0Z"/>
    <path class="cls-4" d="M184.47,116.79c-.18-.01-.34.12-.36.3,0,.05,0,.11.03.15l.29.67c.15.35.45.62.82.71.85.22,1.35-.04,1.49-.8.02-.1.1-.16.2-.15l1.32.11c.05,0,.1.05.09.11,0,0,0,0,0,0-.2,1.3-.92,1.98-2.3,2.02-1.71.05-2.83-.78-3.38-2.49-.47-1.49-.25-3.83,1.55-4.27,2.62-.64,3.97,1.37,4.21,3.65.01.14-.08.26-.22.27-.01,0-.03,0-.04,0l-3.71-.3ZM184.14,115.56l2.45.16s.06-.02.07-.06v-.04c.05-.68-.46-1.27-1.14-1.32,0,0,0,0,0,0h-.13c-.67-.05-1.26.46-1.3,1.15,0,0,0,0,0,0v.04s.02.06.06.07Z"/>
    <path class="cls-4" d="M191.51,114.59c.42-.68,1-1.01,1.75-.97.17,0,.3.14.31.3l.06.93c0,.15-.11.28-.26.29-.02,0-.03,0-.05,0-1.14-.15-1.74.34-1.78,1.47-.02.45.06,1.5.24,3.14.01.15-.09.28-.24.29-.02,0-.03,0-.05,0l-1.03-.08c-.18-.01-.32-.16-.33-.34l-.36-5.73c0-.13.09-.24.22-.25.01,0,.02,0,.03,0l.96.08c.17.02.29.15.29.32,0,.29,0,.47.02.53.02.06.08.1.15.08.03,0,.05-.03.07-.05Z"/>
    <rect class="cls-4" x="131.53" y="114.14" width="1.68" height="6.34" rx=".84" ry=".84" transform="translate(-8.98 10.99) rotate(-4.6)"/>
    <path class="cls-4" d="M129.95,118.48c-.08,1.59-1.43,2.81-3.02,2.73h0l-.56-.03c-1.59-.08-2.81-1.43-2.73-3.02h0s.05-1,.05-1c.08-1.59,1.43-2.81,3.02-2.73h0l.56.03c1.59.08,2.81,1.43,2.73,3.02h0s-.05,1-.05,1ZM126.71,115.58c-.8.04-1.4,1.07-1.34,2.3.06,1.23.76,2.19,1.56,2.15.8-.04,1.4-1.07,1.34-2.3h0c-.06-1.23-.76-2.19-1.56-2.15h0Z"/>
    <path class="cls-4" d="M102.83,115.16l.07,1.18c0,.11-.07.21-.18.23l-1.16.2c-.12.02-.23-.06-.26-.18,0,0,0-.02,0-.02l-.07-1.18c0-.11.07-.21.18-.23l1.16-.2c.12-.02.23.06.26.18,0,0,0,.02,0,.02Z"/>
    <path class="cls-4" d="M96.31,120.92s.05.08.09.08c.02,0,.04-.01.06-.03l1.72-2.2c.13-.17.33-.29.55-.32l1.25-.17c.08-.01.15.04.16.12,0,.04,0,.08-.03.11l-1.67,2.14c-.07.09-.07.21,0,.3l2.65,3.28s.03.11-.01.14c-.02.01-.03.02-.05.02l-1.64.22c-.07,0-.13-.02-.18-.07l-1.9-2.35s-.11-.06-.16-.02c0,0,0,0,0,0-.81.81-.55,1.61-.44,2.73.01.14-.09.27-.23.29l-1.19.16c-.14.02-.28-.08-.3-.22,0,0,0-.01,0-.02l-.57-9.02c0-.17.11-.31.28-.33l1.04-.14c.13-.02.26.07.27.21,0,0,0,.01,0,.02l.32,5.06Z"/>
    <path class="cls-4" d="M116.57,116.3s0-.11-.02-.21c-.03-.14.07-.28.21-.31,0,0,0,0,.01,0l1.03-.14c.13-.02.26.07.27.2,0,0,0,0,0,.01.22,2.56.38,4.61.51,6.17.1,1.32-.4,2.24-1.51,2.75-1.52.7-3.63.65-4.15-1.18-.03-.1.03-.2.13-.23,0,0,.02,0,.03,0l1.11-.15c.14-.02.28.04.36.14.45.56,1.1.62,1.94.17.31-.16.5-.49.48-.84l-.05-1.2c0-.05-.05-.1-.1-.09-.04,0-.07.02-.08.06-.52,1.09-1.89,1.37-2.89.85-1.31-.68-1.68-2.68-1.44-4.01.34-1.87,2.25-3.44,3.95-1.92.05.05.14.04.19-.01.02-.02.03-.04.03-.06ZM115.26,116.93c-.75.03-1.32,1.03-1.27,2.24h0c.05,1.21.7,2.16,1.44,2.13h0c.75-.03,1.32-1.03,1.27-2.24h0c-.05-1.21-.7-2.16-1.44-2.13h0Z"/>
    <path class="cls-4" d="M106.72,117.81c.58-.83,1.32-1.25,2.21-1.24,1.09,0,1.64.64,1.77,1.65.1.73.22,2.23.36,4.48.01.14-.1.27-.25.28,0,0,0,0,0,0l-1.13.07c-.13,0-.25-.09-.26-.23l-.25-3.94c-.03-.55-.5-.96-1.05-.93-.06,0-.12.01-.17.03l-.11.03c-.66.16-1.11.77-1.07,1.45l.24,3.74c.01.17-.12.31-.28.32,0,0,0,0,0,0l-1.11.07c-.14,0-.27-.1-.28-.25,0,0,0,0,0,0l-.36-5.73c0-.12.08-.22.2-.23,0,0,0,0,0,0l1.1-.07c.12,0,.23.08.23.2,0,0,0,0,0,0v.24c.02.06.07.11.14.1.03,0,.06-.02.08-.05Z"/>
    <path class="cls-4" d="M101.64,117.99l1.21-.25c.12-.03.24.05.26.17,0,.01,0,.02,0,.03l.37,5.85c0,.11-.07.21-.18.23l-1.21.25c-.12.03-.24-.05-.26-.17,0-.01,0-.02,0-.03l-.37-5.85c0-.11.07-.21.18-.23Z"/>
    <path class="cls-4" d="M93.33,123.56c-.22,2.17-2.1,3.31-4.15,3.02-1.83-.25-2.24-2.24-2.09-3.77.22-2.17,2.1-3.31,4.15-3.02,1.83.25,2.24,2.24,2.09,3.77ZM90.25,120.94c-.82-.02-1.5.97-1.53,2.19s.62,2.24,1.44,2.25c.82.02,1.5-.97,1.53-2.19.02-1.23-.62-2.24-1.44-2.25Z"/>
    <path class="cls-4" d="M84.37,121.47c1.55.77,2.08,2.84,1.19,4.62h0c-.89,1.78-2.86,2.59-4.41,1.82-1.55-.77-2.08-2.84-1.19-4.62h0c.89-1.78,2.86-2.59,4.41-1.82ZM82.87,122.43c-.8-.03-1.49.94-1.54,2.17-.05,1.23.57,2.25,1.37,2.28.8.03,1.49-.94,1.54-2.17.05-1.23-.57-2.25-1.37-2.28Z"/>
    <path class="cls-4" d="M77.46,126.89l.96-.23c.12-.03.25.04.28.17,0,.04,0,.07,0,.11-.22.89-.47,1.46-.76,1.71-1.54,1.3-4.54,1.81-5.09-.81-.55-2.64.29-4.27,2.54-4.89,1.42-.39,2.79-.08,3.15,1.46.03.13-.05.26-.18.29,0,0,0,0,0,0l-1.07.25c-.15.03-.3-.04-.36-.18-.26-.62-.73-.83-1.4-.61-1.49.47-1.26,2.76-.72,3.76.19.36.6.56,1.01.49.67-.12,1.08-.49,1.23-1.12.05-.2.2-.35.4-.4Z"/>
  </g>
</svg>