<?xml version="1.0" encoding="UTF-8"?>
<svg id="Layer_1" data-name="Layer 1" xmlns="http://www.w3.org/2000/svg" viewBox="0 0 352.3 165.34">
  <defs>
    <style>
      .cls-1 {
        fill: #fec72e;
      }

      .cls-2 {
        fill: #093b60;
      }
    </style>
  </defs>
  <g>
    <path class="cls-1" d="M186.8,28.01c-.97,2.21-3.83,4.9-6.44,4.37-.54-.11-.82-.71-.63-1.34.05-.17.13-.33.24-.46,2.02-2.61,4.21-3.65,6.57-3.1.21.05.33.26.29.47,0,.02-.01.05-.02.07Z"/>
    <path class="cls-1" d="M156.57,42.85c2.78-6.76,4.35-15.61,14.05-15.07.1,0,.17.1.17.19,0,.05-.03.1-.07.12-.22.17-1.04.67-2.47,1.5-2.59,1.51-4.68,3.41-6.27,5.7-1.83,2.66-3.02,7.04-4.62,9.78-1.42,2.44-3.29,4.58-5.61,6.41-.08.05-.19.03-.24-.05-.04-.05-.04-.12,0-.18,2.12-3.31,5.5-11.55-.22-12.95-.13-.03-.2-.17-.17-.3.02-.06.06-.12.12-.15,2.02-1.02,3.59-.51,4.7,1.52.36.65.51,1.79.47,3.43,0,.05.04.08.09.08.03,0,.06-.02.08-.05Z"/>
    <path class="cls-1" d="M186.63,29.89c-.04-.51.21-.93.75-1.26,2.42-1.47,4.76-1.31,7.02.48.03.03.05.14.05.17,0,.04,0,.16-.02.19-1.96,2.12-4.25,2.64-6.85,1.57-.59-.24-.9-.63-.94-1.16Z"/>
    <path class="cls-1" d="M203.22,36.13c-.1-.01-.2.07-.21.17s.07.2.17.21c2.03.4,3.27,1.68,3.7,3.86.03.15.18.25.34.22.05-.01.1-.03.14-.07.56-.51,1.15-.5,1.78.02,1.47,1.25,2.04,2.83,1.7,4.73-.04.24-.27.4-.51.35-.02,0-.04,0-.06-.01-1.5-.48-2.47-1.47-2.91-2.97-.06-.2-.27-.31-.47-.26-.02.01-.06.05-.13.11-.1.11-.26.15-.4.1-2.3-.78-3.49-2.45-3.56-4.99,0-.25-.13-.48-.33-.63l-2.14-1.59c-.17-.13-.38-.18-.6-.15-2.29.31-4.25-.49-5.88-2.39-.21-.25-.53-.4-.86-.4h-2.09c-.13,0-.24.1-.24.23,0,.08.04.16.11.2.86.56,1.39,1.09,1.57,1.59.1.28-.04.58-.31.68,0,0-.02,0-.03,0-2.88.9-5.11.2-6.69-2.09-.16-.23-.44-.34-.7-.28-3.48.78-6.96,2.04-10.42,3.77-.09.05-.13.16-.08.25.03.05.08.09.14.1,1.34.2,2.45.57,3.31,1.11.26.16.34.5.18.76,0,.02-.02.03-.03.04-1.61,2.16-3.77,3.12-6.49,2.88-1.4-.13-2.08-.69-2.06-1.66,0-.19-.15-.34-.33-.34-.07,0-.14.02-.19.06-3.25,2.13-6.14,4.67-8.66,7.61-.09.09-.08.24.02.32.07.06.16.07.24.04l2.86-1.17c.19-.08.34-.23.4-.43.78-2.4,2.64-3.55,5.57-3.45.27,0,.49.24.48.51,0,.08-.03.16-.07.23l-1.08,1.88c-.07.11-.03.25.08.32.04.02.09.04.13.03,2.8-.14,5.2.13,7.22.82,1.06.36,1.78.55,2.17.57.24.01.47.1.66.23,2.06,1.46,3.94,2.24,5.64,2.34.65.04,1.22.45,1.46,1.05l.83,2.02c.15.37-.02.8-.4.95-.12.05-.25.07-.38.05-2.54-.34-4.13-1.86-4.77-4.54-.03-.14-.13-.25-.26-.31l-3.23-1.42s-.09,0-.11.05c0,.02,0,.05,0,.07l1.46,2.69c.09.16.03.36-.13.45-.03.02-.06.03-.1.03-2.57.49-4.71-.23-6.42-2.18-.18-.2-.28-.47-.28-.74v-.75c0-.26-.21-.47-.47-.47h-2.21c-.14,0-.25.12-.26.26,0,.1.06.19.15.23.63.29,1.31,1.07,2.03,2.34.17.3.07.69-.24.86-.05.03-.1.05-.16.06-2.83.71-4.94-.08-6.33-2.37-.12-.2-.37-.3-.6-.23-2.43.76-4.75,1.95-6.96,3.56-.09.04-.12.15-.08.23.04.09.15.12.23.08,1.75-.59,3.38-.76,4.91-.5,2.33.4,4,1.52,2.8,4.1-.07.15-.25.21-.4.14-.07-.04-.13-.1-.15-.18-1.28-4.05-8.1-3.1-10.39-1.69-6.85,4.22-13.82,5.95-20.89,5.18-2.15-.24-4.77-1.15-7.85-2.75-.67-.35-.93-1.17-.59-1.84.03-.07.07-.13.12-.19l.02-.03c.57-.76,1.61-.98,2.45-.53,3.46,1.9,7.03,2.82,10.7,2.76,5.92-.11,13.82-2.23,18.08-6.79,3-3.21,6.03-6.1,9.07-8.66.18-.15.21-.41.08-.6-.51-.73-.56-1.58-.14-2.55,1.3-2.96,3.07-5.07,6.44-5.66.23-.04.44.11.48.34,0,.04,0,.08,0,.11-.2,1.79-.74,3.42-1.63,4.9-.05.08-.03.18.04.23.05.04.13.04.18,0l2.23-1.21c.17-.09.24-.3.16-.48-.25-.54-.08-1.31.5-2.3,1.37-2.29,3.19-3.59,5.48-3.89.19-.02.37.11.39.3,0,.03,0,.06,0,.1-.26,1.59-.91,2.9-1.94,3.92-.08.07-.09.2-.01.28.06.06.15.08.22.05,3.57-1.42,9.06-3.3,12.67-2.15.12.04.25.03.37-.03.58-.3,1.1-.37,1.58-.23,1.02.3,1.36-.86,2.03-1.17.26-.12.56-.15.84-.08,2.29.52,3.96,1.79,4.99,3.81.01.02.04.03.06.03h.37c.11,0,.19-.09.19-.2,0-.05-.02-.09-.05-.13-.58-.59-.99-1.14-1.23-1.66-.08-.18,0-.4.19-.48.04-.02.08-.03.13-.03,2.42-.06,4.27,1.08,5.54,3.43.15.28.05.63-.23.78-.08.04-.18.07-.27.07h-1.45Z"/>
    <ellipse class="cls-1" cx="181.77" cy="36.41" rx="3.72" ry="1.85" transform="translate(-2.62 17.27) rotate(-5.4)"/>
    <ellipse class="cls-1" cx="194.62" cy="37.97" rx="1.6" ry="3.17" transform="translate(29.96 148.45) rotate(-44.9)"/>
    <ellipse class="cls-1" cx="199.48" cy="42.26" rx="1.5" ry="3.05" transform="translate(8.04 112.46) rotate(-32.1)"/>
    <path class="cls-1" d="M180.15,43.92s0,.14-.04.17c-2.02,2-4.29,2.42-6.81,1.25-.56-.26-.85-.64-.87-1.14-.02-.53.25-.94.79-1.24,2.44-1.34,4.73-1.08,6.88.78.03.02.05.14.05.18Z"/>
    <ellipse class="cls-1" cx="182.39" cy="47.06" rx="1.6" ry="3.52" transform="translate(71.22 199.13) rotate(-68.3)"/>
    <path class="cls-1" d="M208.89,45.65c.9.33,2.3.73,2.33,2.12.03,1.17-.11,1.96-.39,2.37-.15.22-.44.27-.66.13-1.35-.91-1.95-2.33-1.82-4.26.01-.22.2-.38.41-.37.04,0,.08.01.12.02Z"/>
    <path class="cls-1" d="M188.97,54.17c.13.18.52.44,1.19.78.23.12.39.34.44.6.13.79.02,1.53-.32,2.22-.15.31-.53.43-.83.27-.04-.02-.07-.04-.11-.07-1.38-1.09-1.85-2.55-1.42-4.37.06-.24-.01-.49-.18-.68-.88-.95-1.31-2.09-1.29-3.43.01-.54.45-.96.99-.95.13,0,.26.03.38.09,2.15.97,3.15,2.7,2.98,5.2-.02.33-.3.58-.63.55-.07,0-.14-.02-.2-.05l-.82-.36c-.06-.03-.14,0-.17.07-.02.04-.01.09.01.12Z"/>
    <path class="cls-1" d="M175.41,51.7c.25-.36.64-.5,1.17-.42,2.37.33,3.81,1.68,4.35,4.07,0,.03-.05.12-.06.14-.02.02-.08.1-.11.11-2.42.35-4.2-.53-5.34-2.63-.26-.47-.26-.89,0-1.27Z"/>
    <path class="cls-1" d="M178.74,56.21c0-.18.13-.33.31-.33.04,0,.08,0,.12.02.75.27,1.36.37,1.83.32.28-.03.54.15.6.42.23.95.23,1.79,0,2.51-.11.34-.47.52-.8.42-.07-.02-.14-.06-.21-.11-1.19-.94-1.81-2.02-1.86-3.24Z"/>
  </g>
  <g>
    <path class="cls-2" d="M59.92,127.85V37.47c16.39-.11,32.73-2.51,48.02-6.21,15.7-3.8,33.67-7.77,51.04-9.15,21.88-1.74,44.1-.09,66.65,4.95,14.71,3.29,22.37,5,22.97,5.14,14.6,3.29,29.07,5.06,43.4,5.3.22,0,.39.18.39.4v89.52c0,.22-.18.4-.4.4-10.43.17-19.79.96-28.08,2.37-17.26,2.95-34.39,7.66-52.31,10.71-25.83,4.39-51.84,3.96-78.04-1.29-15.09-3.02-29.35-6.77-44.82-9.33-9.54-1.58-19.14-2.39-28.81-2.43ZM186.53,27.47c-2.36-.54-4.54.49-6.57,3.1-.4.52-.39,1.23,0,1.6.11.1.24.17.38.2,2.61.53,5.47-2.16,6.44-4.37.09-.2,0-.43-.2-.51-.02,0-.04-.02-.07-.02ZM156.4,42.82c.04-1.64-.12-2.78-.47-3.43-1.11-2.03-2.68-2.54-4.7-1.52-.12.06-.16.21-.1.33.03.06.09.1.15.12,5.72,1.4,2.34,9.63.22,12.95-.05.08-.01.19.07.23.06.03.12.03.18,0,2.32-1.83,4.19-3.97,5.61-6.41,1.6-2.75,2.79-7.13,4.62-9.78,1.59-2.29,3.68-4.2,6.27-5.7,1.43-.83,2.25-1.33,2.47-1.5.08-.06.09-.17.03-.24-.03-.04-.08-.07-.13-.07-9.7-.53-11.27,8.32-14.05,15.07-.02.04-.08.06-.12.04-.03-.01-.05-.04-.05-.07ZM186.63,29.89c.04.53.35.92.94,1.16,2.61,1.07,4.89.54,6.85-1.57.03-.03.03-.15.02-.19,0-.03-.02-.14-.05-.17-2.26-1.79-4.6-1.95-7.02-.48-.54.33-.79.75-.75,1.26ZM203.22,36.13h1.45c.32,0,.57-.26.57-.57,0-.09-.02-.19-.07-.27-1.28-2.35-3.12-3.49-5.54-3.43-.2,0-.35.18-.35.38,0,.04.01.09.03.13.24.52.65,1.07,1.23,1.66.07.08.07.2,0,.28-.04.03-.08.05-.13.05h-.37s-.05-.01-.06-.03c-1.03-2.02-2.69-3.29-4.99-3.81-.28-.06-.57-.03-.84.08-.66.31-1.01,1.47-2.03,1.17-.48-.15-1-.07-1.58.23-.11.06-.25.07-.37.03-3.61-1.14-9.1.73-12.67,2.15-.1.04-.21,0-.26-.1-.03-.08-.01-.17.05-.22,1.03-1.02,1.68-2.32,1.94-3.92.03-.19-.1-.37-.29-.4-.03,0-.07,0-.1,0-2.28.31-4.11,1.6-5.48,3.89-.59.99-.76,1.75-.5,2.3.08.18.01.39-.16.48l-2.23,1.21c-.08.05-.18.03-.23-.05-.04-.06-.03-.13,0-.18.88-1.47,1.43-3.1,1.63-4.9.02-.23-.14-.43-.37-.46-.04,0-.08,0-.11,0-3.37.59-5.14,2.7-6.44,5.66-.42.97-.38,1.82.14,2.55.13.19.1.45-.08.6-3.04,2.56-6.07,5.45-9.07,8.66-4.26,4.56-12.16,6.67-18.08,6.79-3.68.07-7.24-.85-10.7-2.76-.84-.45-1.88-.23-2.45.53l-.02.03c-.45.6-.33,1.46.28,1.91.06.05.12.09.19.12,3.08,1.6,5.69,2.51,7.85,2.75,7.08.77,14.04-.96,20.89-5.18,2.3-1.42,9.11-2.37,10.39,1.69.05.16.22.24.38.19.08-.03.14-.08.18-.15,1.2-2.58-.47-3.7-2.8-4.1-1.53-.26-3.16-.1-4.91.5-.09.04-.19,0-.23-.08-.04-.09,0-.19.08-.23,2.21-1.62,4.53-2.8,6.96-3.56.23-.07.48.02.6.23,1.4,2.29,3.51,3.08,6.33,2.37.34-.09.54-.43.45-.77-.01-.05-.04-.11-.06-.16-.73-1.28-1.41-2.06-2.03-2.34-.13-.05-.18-.2-.13-.33.04-.09.13-.15.23-.15h2.21c.26,0,.47.21.47.47h0v.75c0,.27.1.53.28.74,1.71,1.94,3.85,2.67,6.42,2.18.18-.03.29-.2.26-.38,0-.04-.02-.07-.04-.1l-1.46-2.69s0-.09.04-.11c.02-.01.05-.01.07,0l3.23,1.42c.13.06.22.17.26.31.64,2.69,2.23,4.2,4.77,4.54.4.06.77-.22.82-.62.02-.13,0-.26-.05-.38l-.83-2.02c-.24-.6-.81-1.01-1.46-1.05-1.7-.1-3.58-.88-5.64-2.34-.19-.14-.42-.22-.66-.23-.39-.02-1.11-.21-2.17-.57-2.01-.69-4.42-.96-7.22-.82-.13,0-.24-.09-.24-.22,0-.05,0-.09.03-.13l1.08-1.88c.14-.24.06-.54-.18-.68-.07-.04-.15-.06-.23-.07-2.94-.1-4.8,1.05-5.57,3.45-.06.2-.21.35-.4.43l-2.86,1.17c-.12.05-.26-.01-.3-.13-.03-.08-.02-.17.04-.24,2.52-2.95,5.41-5.49,8.66-7.61.16-.1.37-.06.47.09.04.06.06.12.06.19-.02.98.67,1.53,2.06,1.66,2.71.25,4.87-.71,6.49-2.88.19-.24.14-.59-.11-.78-.01-.01-.03-.02-.04-.03-.87-.54-1.97-.91-3.31-1.11-.1-.01-.17-.11-.16-.21,0-.06.05-.11.1-.14,3.46-1.73,6.93-2.99,10.42-3.77.27-.06.54.05.7.28,1.58,2.29,3.81,2.99,6.69,2.09.28-.08.43-.38.35-.66,0,0,0-.02,0-.03-.18-.5-.7-1.03-1.57-1.59-.11-.07-.14-.22-.07-.33.04-.07.12-.11.2-.1h2.09c.33,0,.64.15.86.4,1.62,1.9,3.58,2.69,5.88,2.39.21-.03.43.02.6.15l2.14,1.59c.2.15.32.38.33.63.08,2.55,1.26,4.21,3.56,4.99.14.05.3.01.4-.1.07-.07.11-.1.13-.11.2-.06.41.06.47.26.44,1.5,1.41,2.49,2.91,2.97.23.07.48-.05.55-.28,0-.02.01-.04.01-.06.34-1.9-.23-3.48-1.7-4.73-.63-.53-1.22-.53-1.78-.02-.12.11-.3.1-.4-.02-.04-.04-.06-.08-.07-.14-.43-2.18-1.66-3.47-3.7-3.86-.1-.01-.18-.1-.17-.21s.1-.18.21-.17ZM185.48,36.06c-.1-1.02-1.83-1.69-3.88-1.49,0,0,0,0,0,0-2.05.19-3.63,1.18-3.53,2.19h0c.1,1.02,1.83,1.69,3.88,1.49h0c2.05-.19,3.63-1.18,3.53-2.19h0ZM192.38,35.73c-.62.62-.13,2.13,1.11,3.37,1.24,1.24,2.74,1.74,3.37,1.12.62-.62.13-2.13-1.11-3.37-1.24-1.24-2.74-1.74-3.37-1.12ZM197.86,39.67c-.7.44-.54,1.95.35,3.38.9,1.43,2.19,2.23,2.89,1.79,0,0,0,0,0,0,.7-.44.54-1.95-.35-3.38-.9-1.43-2.19-2.23-2.89-1.79,0,0,0,0,0,0ZM172.43,44.19c.02.5.31.88.87,1.14,2.52,1.17,4.79.75,6.81-1.25.03-.02.04-.14.04-.17,0-.05-.02-.16-.05-.18-2.15-1.86-4.45-2.12-6.88-.78-.54.3-.81.71-.79,1.24ZM179.12,45.76c-.33.82.87,2.07,2.68,2.78,0,0,0,0,0,0,1.8.72,3.53.64,3.86-.18,0,0,0,0,0,0,.33-.82-.87-2.07-2.68-2.78,0,0,0,0,0,0-1.8-.72-3.53-.64-3.86.18,0,0,0,0,0,0ZM208.36,45.99c-.14,1.93.47,3.35,1.82,4.26.22.14.51.09.66-.13.29-.41.42-1.2.39-2.37-.04-1.39-1.43-1.79-2.33-2.12-.2-.08-.43.03-.5.23-.01.04-.02.08-.02.12ZM189.13,53.99l.82.36c.3.13.65,0,.79-.3.03-.06.05-.13.05-.2.17-2.5-.82-4.24-2.98-5.2-.49-.22-1.06,0-1.29.49-.05.12-.08.25-.09.38-.02,1.34.41,2.48,1.29,3.43.17.18.24.44.18.68-.43,1.82.05,3.28,1.42,4.37.27.21.66.17.87-.1.03-.03.05-.07.07-.11.35-.69.45-1.43.32-2.22-.04-.26-.21-.48-.44-.6-.67-.34-1.06-.6-1.19-.78-.04-.06-.02-.14.04-.18.04-.02.08-.03.12-.01ZM175.41,51.7c-.26.37-.26.79,0,1.27,1.14,2.1,2.92,2.98,5.34,2.63.03,0,.1-.08.11-.11.02-.02.07-.11.06-.14-.53-2.39-1.98-3.74-4.35-4.07-.53-.08-.92.07-1.17.42ZM178.74,56.21c.05,1.22.67,2.29,1.86,3.24.28.22.68.17.9-.1.05-.06.09-.13.11-.21.22-.72.22-1.55,0-2.51-.07-.27-.32-.45-.6-.42-.47.06-1.08-.05-1.83-.32-.17-.06-.35.03-.41.2-.01.04-.02.08-.02.12ZM86.52,106.27v-46.04c0-.27-.22-.49-.49-.49h-8.53c-.47,0-.84.38-.84.85,0,.27.13.51.34.67.97.72,1.34,1.34,1.34,2.64,0,5.51,0,20.91,0,46.21,0,.21-.08.42-.23.57l-4.25,4.25c-.4.4-.41,1.06,0,1.46.3.31.76.39,1.16.21,8.59-3.84,17.74-3.12,26.91-3.01,5.12.06,11.26-.92,13.48-6.12.21-.48-.02-1.04-.5-1.25-.09-.04-.19-.06-.29-.07-.54-.05-.98.06-1.33.3-1.88,1.32-4.68,1.52-6.86,1.25-7.1-.9-12.51-2.13-19.52-1.09-.18.03-.36-.1-.39-.28,0-.02,0-.04,0-.06ZM267.17,84.69v21.4c0,.2-.16.35-.35.36-.01,0-.03,0-.04,0-4.52-.4-6.43-4.59-6.97-8.5-.77-5.5-2.43-29.58,3.8-32.34,3.57-1.59,5.48,2.67,6.87,5.26.12.23.34.39.6.44.48.09.94.1,1.37.04.27-.04.47-.28.47-.55v-7.48c0-.26-.14-.51-.36-.65-2.72-1.64-5.73-2.17-9.05-1.61-15.04,2.55-14.67,25.75-11.12,36.09,1.97,5.73,5.8,10.88,11.74,12.87,4.69,1.58,8.56.56,11.62-3.06.19-.23.22-.55.07-.81-.82-1.45-1.24-3.01-1.25-4.68-.05-4.63-.06-11.54-.02-20.74,0-.27-.22-.5-.5-.5h-11.07c-.23,0-.42.19-.42.42v3.18c0,.24.19.44.43.44h3.78c.23,0,.42.19.42.42ZM115.52,63.46h-5.01c-.38,0-.69.3-.69.68,0,.21.09.41.26.54.66.54,1.11,1.12,1.36,1.74.09.22.14.46.14.71,0,13.84,0,21.44,0,22.8.02,4.14-1.05,9.08-6.48,8.35-2.92-.39-2.94-6.01-2.95-8.49-.06-6.49-.07-15.09-.03-25.81,0-.29-.24-.53-.53-.53h-8.47c-.35,0-.63.27-.63.62,0,.15.05.3.16.42l1.31,1.54c.19.22.29.51.29.8.02,10.82.02,19.04.02,24.67,0,6.67,2.33,12.61,10.24,12.03,3.38-.25,6.07-1.46,8.07-3.64,3.3-3.59,3.49-8.32,3.5-13.25.02-9.03.01-16.58-.02-22.65,0-.29-.24-.53-.53-.53ZM125.37,75.3c0-.06.05-.1.11-.1.03,0,.07.02.08.05l13.01,23.92c.1.18.29.29.49.29h3.56c.3,0,.55-.24.55-.54v-35.05c0-.23-.19-.41-.41-.41h-5.03c-.37,0-.68.3-.68.68,0,.17.06.33.17.46l1.21,1.35c.22.25.35.58.35.92v15.83c0,.06-.03.11-.09.12-.05,0-.1-.02-.12-.07l-10.13-18.63c-.22-.4-.65-.65-1.11-.66h-7.25c-.31,0-.57.25-.57.56,0,.11.03.23.1.32l1.24,1.89c.15.23.23.49.23.77v33.91c0,.07.06.13.13.13h3.74c.24,0,.43-.19.43-.43h0v-25.3ZM148.83,99c3.59-.35,8.62-.12,11.86-1.02,3.96-1.09,7.1-3.4,9.41-6.92,3.19-4.84,3.43-12.68,1.29-17.99-2.86-7.13-8.26-9.66-15.96-9.63-3.59.01-6.34.03-8.26.07-.34,0-.6.29-.59.63,0,.17.08.32.2.43.59.52,1.04,1.06,1.36,1.63.1.19.16.41.16.63v31.7c0,.27.22.49.49.49.02,0,.03,0,.05,0ZM191.18,78.78c-.09-.03-.14-.14-.11-.23.02-.06.07-.1.13-.11,4.06-.93,7.43-3.76,6.79-8.4-.82-5.97-6.79-6.55-11.72-6.58-4.81-.04-8.7-.03-11.7.02-.36,0-.65.31-.64.67,0,.17.07.33.19.44l1.24,1.23c.23.23.35.54.35.87v31.15c0,.21.17.38.38.38,8.47.26,25.3,1.79,23.12-12.19-.62-3.97-4.41-6-8.02-7.24ZM221.54,96.59c0-.27-.21-.49-.47-.51l-9.81-.75c-.24-.02-.43-.22-.43-.47v-10.35c0-.25.21-.46.46-.46h6.37c.2,0,.37-.17.37-.38h0v-3.21c0-.21-.17-.38-.38-.38h-6.36c-.25,0-.45-.2-.45-.45h0v-11.63c0-.17.14-.31.31-.31h9.87c.19,0,.35-.16.35-.35h0v-3.53c0-.2-.16-.36-.35-.36h-19.48c-.35,0-.63.28-.64.63,0,.2.09.39.25.51.54.41.99.91,1.33,1.48.16.26.24.56.24.86v31.61c0,.23.18.42.41.44l17.98,1.37c.22.02.42-.15.44-.37,0-.01,0-.03,0-.04v-3.34ZM232.97,101.26v-16.34c0-.25.21-.46.46-.46h1.44c.29,0,.53.2.59.47,2.18,10.44,3.59,20.1,16.47,21.53.55.06,1.04-.33,1.1-.88.05-.45-.21-.87-.62-1.04-2.88-1.15-4.9-3.57-6.06-7.25-1.87-5.92-3.44-10.48-4.69-13.71-.05-.14,0-.3.13-.37,3.25-1.87,5.09-4.6,5.24-8.47.49-12.41-14.76-11.61-22.94-11.25-.31.02-.55.28-.54.59,0,.15.08.29.19.39.73.64,1.23,1.26,1.5,1.84.1.21.16.45.16.69v33.48c0,.26.2.48.47.5l6.84.53c.14.01.27-.09.28-.24,0,0,0-.02,0-.02ZM127.6,120.68c.2,0,.36-.16.36-.36v-1.4c0-.2-.16-.36-.36-.36h-4.22c-.2,0-.36-.16-.36-.36v-1.45c0-.2.16-.36.36-.36h4.81c.2,0,.36-.16.36-.36v-1.5c0-.2-.16-.36-.36-.36h-7.18c-.2,0-.36.16-.36.36h0v10.04c0,.2.16.36.36.36h1.66c.2,0,.36-.16.36-.36h0v-3.52c0-.2.16-.36.36-.36h4.2ZM133.73,122.5c.78,0,1.29.01,1.54.02.35,0,.66.22.79.54l.56,1.36c.13.31.44.52.78.52h1.32c.2,0,.37-.17.37-.37,0-.05,0-.1-.03-.14l-4.01-9.84c-.1-.24-.31-.42-.57-.47-.24-.04-.48-.06-.73-.06-.25,0-.5.02-.74.06-.26.05-.47.22-.57.47l-4.03,9.83c-.08.18,0,.4.2.48.04.02.09.03.14.03h1.32c.34,0,.65-.2.78-.52l.56-1.36c.14-.32.45-.54.8-.54.24,0,.75,0,1.54,0ZM146.03,122.32c.14,0,.22-.02.24-.05,1.37-2.25,2.13-3.47,2.28-3.66.06-.08.17-.09.25-.03.05.03.07.09.07.15v5.78c0,.23.19.42.43.42h1.49c.25,0,.44-.2.44-.44v-9.92c0-.24-.2-.44-.44-.44h-1.72c-.23,0-.44.12-.56.31l-2.28,3.86c-.03.05-.08.09-.12.11-.02,0-.05,0-.09,0-.02,0-.04,0-.06,0-.04-.02-.09-.05-.12-.11l-2.29-3.86c-.12-.19-.33-.31-.56-.31h-1.72c-.25,0-.44.2-.44.44,0,0,0,0,0,0l.02,9.92c0,.24.2.44.44.44h1.49c.24,0,.43-.19.43-.42,0,0,0,0,0,0l-.02-5.78c0-.1.08-.18.18-.18.06,0,.11.03.15.07.16.19.92,1.4,2.29,3.65.03.04.1.05.22.05ZM156.2,114.5c0-.21-.17-.38-.38-.38h-1.63c-.21,0-.38.17-.38.38h0l.02,10.05c0,.21.17.38.38.38h1.63c.21,0,.38-.17.38-.38h0l-.02-10.05ZM161.59,122.66c-.21,0-.38-.17-.38-.38v-7.79c0-.21-.17-.38-.38-.38h-1.69c-.21,0-.38.17-.38.38v10.07c0,.21.17.38.38.38h6.76c.21,0,.38-.17.38-.38v-1.53c0-.21-.17-.38-.38-.38h-4.32ZM169.76,124.94h.72c.27,0,.49-.22.49-.49h0v-3.59c0-.17.05-.33.14-.47l3.61-5.79c.09-.14.05-.33-.09-.42-.05-.03-.11-.05-.17-.05h-1.68c-.34,0-.66.18-.83.47-.52.88-1.12,1.93-1.8,3.15-.11.19-.24.29-.38.29s-.27-.1-.38-.29c-.68-1.22-1.28-2.27-1.79-3.16-.17-.29-.49-.47-.83-.47h-1.68c-.17-.01-.3.12-.31.29,0,.06.02.12.05.17l3.59,5.81c.09.14.14.31.14.47v3.59c0,.27.21.49.48.49h.72ZM187.77,118.56h-4.23c-.17,0-.3-.13-.3-.29h0s.02-1.6.02-1.6c0-.16.14-.29.3-.29l4.68.04c.3,0,.56-.23.56-.53,0,0,0-.01,0-.02v-1.24c0-.25-.21-.46-.46-.46h-6.97c-.27,0-.5.23-.5.5l-.02,9.8c0,.26.2.48.47.48,0,0,.01,0,.02,0l1.51-.02c.24,0,.43-.19.43-.43,0,0,0-.01,0-.02l-.06-3.42c0-.22.17-.39.39-.4,0,0,0,0,0,0l4.14.04c.24,0,.44-.2.44-.44,0,0,0-.01,0-.02l-.05-1.31c0-.21-.18-.38-.39-.38ZM193.97,122.52c.78,0,1.3,0,1.54,0,.35,0,.67.22.8.55l.56,1.37c.13.31.44.52.78.52h1.32c.2,0,.37-.16.38-.36,0-.05,0-.1-.03-.15l-4.02-9.87c-.1-.24-.31-.42-.57-.47-.24-.05-.48-.07-.74-.07s-.49.02-.73.07c-.26.05-.47.22-.57.46l-4.05,9.85c-.08.18,0,.4.19.48.05.02.1.03.15.03h1.32c.34,0,.66-.2.79-.52l.56-1.36c.13-.32.45-.54.8-.54.25,0,.76,0,1.54,0ZM202.87,124.93c.23,0,.41-.19.41-.41h0v-2.28c0-.58.47-1.04,1.05-1.04.38,0,.73.21.91.55l1.43,2.63c.2.37.58.6,1,.6h1.57c.18,0,.32-.15.32-.32,0-.05-.01-.1-.04-.15l-1.69-3.11c-.12-.22-.05-.48.16-.61,2.52-1.55,2.15-5.67-.96-6.42-.83-.2-2.71-.25-5.66-.17-.26,0-.47.22-.47.47v9.84c0,.25.2.44.44.44h1.51ZM216.87,122.32c.14,0,.21-.02.23-.05,1.37-2.25,2.13-3.47,2.29-3.66.06-.08.17-.09.25-.03.05.03.07.09.07.15v5.79c0,.23.19.42.43.42h1.49c.25,0,.44-.2.44-.44v-9.93c0-.24-.2-.44-.44-.44h-1.72c-.23,0-.44.12-.56.31l-2.28,3.87c-.03.05-.08.09-.12.11-.02,0-.05,0-.09,0-.02,0-.04,0-.06,0-.05-.01-.09-.05-.13-.11l-2.29-3.86c-.12-.19-.33-.31-.56-.31h-1.72c-.25,0-.44.2-.44.44l.02,9.93c0,.24.2.44.44.44h1.49c.24,0,.43-.2.43-.43l-.02-5.79c0-.1.08-.18.18-.18.06,0,.11.03.15.07.16.19.92,1.4,2.3,3.65.03.04.1.06.22.05ZM224.15,123.09c-.11.19-.07.42.1.56,2.44,1.98,7.86,2.38,7.89-2.09,0-2.7-3.62-3.13-4.92-3.63-.44-.17-.67-.66-.5-1.11.11-.28.35-.49.65-.54.98-.18,1.91.08,2.79.75.23.17.56.13.73-.1.01-.02.02-.03.03-.05l.61-1.05c.16-.27.07-.63-.2-.8-1.63-1.05-4.61-1.63-6.15,0-1.65,1.75-1.2,4.38,1.17,5.14,1.4.45,2.35.79,2.86,1.02.42.19.61.68.42,1.09-.08.18-.22.33-.4.41-.99.46-2.27.15-3.83-.93-.18-.13-.43-.08-.56.1,0,0-.01.02-.02.03l-.69,1.21ZM237.56,116.22c0-1.2-.97-2.18-2.18-2.18s-2.18.97-2.18,2.18.97,2.18,2.18,2.18h0c1.2,0,2.18-.97,2.18-2.18h0Z"/>
    <path class="cls-2" d="M183.74,67.14c0-.15.12-.28.28-.28h1.15c2.74.01,4.95,2.13,4.95,4.74v.41c0,2.61-2.23,4.72-4.96,4.72h-1.15c-.15,0-.28-.13-.28-.29h0s.02-9.29.02-9.29Z"/>
    <path class="cls-2" d="M156.59,67.02c3.54.04,5.67,1.63,6.42,4.78,1.48,6.29,1.45,12.18-.09,17.69-.85,3.05-2.94,4.82-6.26,5.31-.25.04-.48-.14-.51-.39,0-.02,0-.04,0-.07v-26.87c0-.25.2-.45.45-.45h0Z"/>
    <path class="cls-2" d="M232.98,67.59c0-.17.14-.31.31-.31h.92c2.47.01,4.46,2.11,4.46,4.68h0s-.02,4.52-.02,4.52c0,2.58-2.01,4.67-4.47,4.66h-.92c-.17,0-.31-.15-.31-.32h0s.03-13.24.03-13.24Z"/>
    <path class="cls-2" d="M183.72,80.72c0-.13.11-.24.24-.24h.5c3.47,0,6.28,2.85,6.28,6.36v1.67c0,3.51-2.81,6.36-6.28,6.36h-.5c-.13,0-.24-.11-.24-.24h0v-13.9Z"/>
    <path class="cls-2" d="M236.87,116.38c.06.52-.32,1-.84,1.06l-.94.11c-.52.06-1-.32-1.06-.84h0s-.07-.63-.07-.63c-.06-.52.32-1,.84-1.06l.94-.11c.52-.06,1,.32,1.06.84h0s.07.63.07.63ZM235.43,115.2c-.37-.01-.68.43-.7.98h0c-.02.55.27,1,.64,1.01h0c.37.01.68-.43.7-.98h0c.02-.55-.27-1-.64-1.01h0Z"/>
    <path class="cls-2" d="M203.34,116.6c0-.12.1-.23.23-.23h0l2.11.04c.85.01,1.53.64,1.51,1.39v.18c-.01.76-.71,1.36-1.56,1.35,0,0,0,0,0,0l-2.11-.04c-.12,0-.23-.1-.23-.23l.05-2.47Z"/>
    <path class="cls-2" d="M133.72,117.38c.13,0,.47.83,1.02,2.48.05.16-.03.33-.19.38-.03,0-.05.01-.08.02h-.77c-.46,0-.71,0-.76,0-.17-.01-.29-.16-.28-.32,0-.02,0-.05.01-.07.56-1.65.91-2.48,1.03-2.48Z"/>
    <path class="cls-2" d="M193.93,120.25c-.46,0-.71,0-.76,0-.16-.01-.28-.16-.27-.32,0-.02,0-.05.01-.07.56-1.63.9-2.45,1.02-2.45s.46.82,1.01,2.46c.05.16-.03.33-.19.38-.02,0-.05.01-.08.01h-.75Z"/>
  </g>
</svg>