<?xml version="1.0" encoding="UTF-8"?>
<svg id="Layer_1" data-name="Layer 1" xmlns="http://www.w3.org/2000/svg" viewBox="0 0 352.3 165.34">
  <defs>
    <style>
      .cls-1 {
        fill: #9fd0db;
      }

      .cls-2 {
        fill: #e6f2f4;
      }

      .cls-3 {
        fill: #a1d0dc;
      }

      .cls-4 {
        fill: #a9d4de;
      }

      .cls-5 {
        fill: #99cdd9;
      }

      .cls-6 {
        fill: #b2d9e2;
      }

      .cls-7 {
        fill: #abd5de;
      }

      .cls-8 {
        fill: #b7dbe3;
      }

      .cls-9 {
        fill: #c3e1e8;
      }

      .cls-10 {
        fill: #d3e9ee;
      }

      .cls-11 {
        fill: #bfdfe6;
      }

      .cls-12 {
        fill: #ebf5f6;
      }

      .cls-13 {
        fill: #a8d4de;
      }

      .cls-14 {
        fill: #9acdd9;
      }

      .cls-15 {
        fill: #b5dbe3;
      }

      .cls-16 {
        fill: #a1c9d6;
      }

      .cls-16, .cls-17 {
        fill-rule: evenodd;
      }

      .cls-18 {
        fill: #93cad6;
      }

      .cls-19 {
        fill: #aad5de;
      }

      .cls-20 {
        fill: #bcdee5;
      }

      .cls-21 {
        fill: #afd7e0;
      }

      .cls-22 {
        fill: #f5fafb;
      }

      .cls-23 {
        fill: #bedfe5;
      }

      .cls-24 {
        fill: #9fcfdb;
      }

      .cls-25 {
        fill: #dcedf1;
      }

      .cls-26 {
        fill: #aed6e0;
      }

      .cls-27 {
        fill: #a0d0dc;
      }

      .cls-28 {
        fill: #f3f9fa;
      }

      .cls-29 {
        fill: #9ecfdb;
      }

      .cls-30 {
        fill: #98ccd8;
      }

      .cls-31 {
        fill: #a7d4de;
      }

      .cls-32 {
        fill: #9dceda;
      }

      .cls-33 {
        fill: #fefefe;
      }

      .cls-34 {
        fill: #eff6f8;
      }

      .cls-35 {
        fill: #c1e0e7;
      }

      .cls-36 {
        fill: #d0e7ed;
      }

      .cls-37 {
        fill: #badce5;
      }

      .cls-38 {
        fill: #bbdde4;
      }

      .cls-39 {
        fill: #b5dae3;
      }

      .cls-40 {
        fill: #a5d3dd;
      }

      .cls-41 {
        fill: #a8d4df;
      }

      .cls-42 {
        fill: #b8dbe4;
      }

      .cls-43 {
        fill: #b6dbe3;
      }

      .cls-44 {
        fill: #a2d1dc;
      }

      .cls-45 {
        fill: #d5eaef;
      }

      .cls-46 {
        fill: #d7ebf0;
      }

      .cls-47 {
        fill: #c0e0e6;
      }

      .cls-48 {
        fill: #e2f0f3;
      }

      .cls-49 {
        fill: #add6df;
      }
    </style>
  </defs>
  <g id="layer1">
    <g id="g912">
      <path id="path2" class="cls-17" d="M124.6,21.9c.24-1.03,1.91-1.39,2.45-.43.41.84.58,1.77.49,2.69h.93c.55-.69.6-1.6.89-2.41.21-.46.8-.99,1.29-.6.39.43.58,1,.52,1.58,0-.16,0-.32.07-.48.18.99.46,1.96.56,2.94,0,1.73.15,3.55-.59,5.15-.27.77-1.1,1.2-1.89.97-.54-.18-.74-.78-.85-1.27-.22-.84-.34-1.7-.35-2.56-.25-.04-.49-.07-.74-.1,0,.99-.09,1.98-.3,2.94-.18.72-.89,1.17-1.62,1.05-.62-.36-1.04-.98-1.16-1.69-.7-2.57-.32-5.28.32-7.81l-.03.02ZM153.46,21.79c.87-.74,2.07-.6,3.13-.61,1.93-.07,3.89,1.75,3.56,3.74-.12.84-.65,1.57-1.41,1.95.63,1.03,1.47,2.04,1.47,3.3-.15.75-.88,1.25-1.63,1.1-.12-.02-.24-.06-.36-.12-.97-.53-1.79-1.29-2.4-2.21.09.8-.05,1.62-.43,2.33-.41.51-1.15.59-1.65.18-.03-.02-.06-.05-.09-.08-.38-.41-.64-.92-.74-1.47-.27-1.62-.32-3.27-.15-4.9.19-1.1-.13-2.38.69-3.27v.06ZM155.54,23.99c0,.24-.09.52.05.74.22.55,1.23.3,1.13-.31s-.72-.49-1.15-.4l-.03-.02ZM116.4,21.49c1.34-.35,2.73-.46,4.11-.31,1,.08,1.94.49,2.69,1.16.38.42.49,1.01.28,1.53-.64.85-1.67,1.32-2.74,1.25-.37,1.53-.18,3.14-.6,4.66-.18.58-.54,1.35-1.27,1.28-.5-.01-.96-.26-1.26-.66-.52-.62-.81-1.4-.81-2.21-.06-1.06,0-2.12.18-3.17-.9.13-1.85.52-2.72.05-.6-.24-.89-.91-.65-1.51.01-.03.02-.06.04-.09.46-1.11,1.66-1.61,2.74-1.96v-.03ZM134.3,21.63c.6-.46,1.41-.29,2.11-.33,1.06.05,2.21-.14,3.16.43.5.24.76.79.65,1.33-.2.4-.59.67-1.04.74-.95.16-1.92.19-2.88.08,0,.26,0,.53.06.79.8.19,1.81.27,2.28,1.06.3.54.11,1.21-.43,1.51-.04.02-.09.05-.14.06-.68.24-1.4.33-2.12.25.05.29,0,.65.38.74,1.09.01,2.17.17,3.21.48.64.28.94,1.03.66,1.67-.09.21-.24.4-.43.53-1.19.6-2.54.83-3.86.65-1.06-.1-2.04-.63-2.69-1.47-.28-.42-.45-.9-.51-1.41-.1-2.02-.12-4.11.74-5.99.18-.48.48-.89.88-1.21l-.03.07ZM162.38,21.5c.76-.28,1.61.1,1.89.87.05.12.07.25.09.38.08,1.8,0,3.61,0,5.42-.07.91,0,1.94-.65,2.69-.28.45-.85.62-1.33.4-.75-.43-1.18-1.25-1.1-2.1-.06-2.07,0-4.15.18-6.22.03-.61.4-1.16.96-1.43h-.03ZM147.45,21.64c.74-.11,1.31.33,1.94.57.93.35,1.71,1.01,2.21,1.88.51,1.06.67,2.25.45,3.41-.24,1.27-1.06,2.35-2.21,2.94-.79.33-1.66.43-2.49.26-1.3-.25-2.43-1.06-3.09-2.21-.65-1.51-.58-3.23.18-4.69.58-1.16,1.67-1.97,2.94-2.21l.07.04ZM147.13,26.05c-.04.57.49.9.92,1.12.26-.18.63-.29.74-.63.08-.51-.29-1.16-.87-1.1-.32-.09-.65.11-.74.43-.02.06-.02.12-.02.18h-.03ZM174.2,21.69c.55-.35,1.28-.2,1.64.35.11.17.17.37.19.57.04,2.21.04,4.5-.04,6.75-.09.49-.18,1.13-.74,1.32-1.13.37-1.9-1.02-1.88-1.99-.04-1.79.09-3.58.2-5.36-.02-.61.21-1.19.63-1.63h.01ZM177.71,21.9c1.28-.32,2.49.43,3.32,1.35.56.49.81,1.22,1.35,1.73.1-.95-.16-2.02.46-2.85.21-.4.74-.26,1.07-.29.46.64.76,1.37.88,2.15.26,1.55.35,3.11.27,4.68.04.71-.18,1.41-.6,1.97-.32.26-.75.34-1.14.23-.77-.35-1.46-.87-2-1.52-.49-.46-.65-1.16-1.18-1.6-.1.93.09,1.94-.38,2.8-.29.39-.83.52-1.27.29-.68-.43-1.09-1.19-1.06-2v-5.09c-.03-.63.07-1.27.29-1.86h-.03ZM166.18,23.55c.95-1.65,3.06-2.21,4.7-1.26.1.05.19.11.28.18.6.47.74,1.32.32,1.96-.63.74-1.73.4-2.55.69-1.13.43-1.13,2.39.11,2.68l.35-.21c-.25-.24-.6-.46-.49-.85,0-.74.82-1.04,1.47-.97.85-.1,1.66.34,2.04,1.11.26,1.33,0,2.94-1.25,3.73-1.63.86-3.64.38-4.71-1.12-1.18-1.78-1.27-4.08-.24-5.95h-.04ZM186.86,23.39c.3-.65.87-1.13,1.56-1.32,1.16-.35,2.41-.15,3.39.56,1.34.99,1.82,2.69,2.06,4.25.04.93.07,1.87,0,2.8-.02.57-.35,1.08-.86,1.33-.49.07-1.1.17-1.47-.26-.72-.68-.72-1.8-.9-2.71-.38.03-.76.1-1.13.21-.18.6-.32,1.21-.52,1.82-.25.58-.92.85-1.5.6-.09-.04-.18-.09-.26-.16-.55-.47-.92-1.12-1.03-1.84-.33-1.79-.09-3.64.68-5.28h-.03ZM189.27,25.07c0,.32-.11.74.26.93.35.06.71-.07.95-.33-.04-.28.06-.64-.18-.85-.21-.37-1.04-.29-.99.24h-.03ZM195.11,22.59c.35-.74,1.37-.6,2.01-.35.69.25,1.12.94,1.06,1.67.09.91-.29,1.78-.21,2.69l.14.06c.99.39,2.14.09,3.07.69.63.44.79,1.3.35,1.94-.05.07-.11.14-.17.21-1.68.92-3.64,1.19-5.5.74-.54-.25-.92-.77-.99-1.36-.17-1.4-.17-2.81,0-4.2,0-.69.08-1.39.27-2.05l-.03-.02Z"/>
      <path id="path4" class="cls-16" d="M181.25,37.42c.98.02,1.96.16,2.91.42.38.11.94.06,1.1.52,2.45,6.81,4.96,13.61,7.53,20.37,2.21,5.89,4.41,11.77,6.62,17.62,1.38,3.61,2.76,7.22,4.08,10.85.35.97.74,1.93.99,2.94-2.58.1-5.15,0-7.75,0-3.22.16-6.45.04-9.67.12-.82.06-1.64.11-2.46.1-1.24,0-2.48.07-3.72-.05,0-1.47.04-2.94-.04-4.41-.07-1.15.07-2.3,0-3.44-.08-.45-.28-.87-.58-1.21-.48-.65-.74-1.47-1.19-2.12-.28.63-.37,1.33-.27,2.02-.04,1.47,0,2.95.12,4.41.09,1.31,0,2.63.04,3.94,0,.32.05.94-.43.89-1.85.07-3.68-.09-5.55.15-4.64.08-9.29-.04-13.93.12-2.11-.06-4.22.13-6.34,0-.6.07-1.21.05-1.81-.06-.3-.98-.12-2.04.49-2.86,1.04-1.41,1.85-2.94,2.77-4.41,3.41-5.7,6.92-11.35,10.35-17.05,3.24-5.4,6.46-10.82,9.64-16.26,2.34-3.85,4.34-7.88,6.56-11.77.15-.29.33-.55.55-.79v-.03ZM176.84,47.56v.43h.74v-.41h-.74ZM178.59,61.6c-.05,1.21-.33,2.44,0,3.63.26.82.78,1.53,1.47,2.04.69.66,1.52,1.16,2.42,1.47,0-.82-.13-1.62-.17-2.43.68.19,1.39.26,2.09.21-.81-2.62-3.05-4.54-5.77-4.92h-.04ZM173.87,68.38c-.85.62-1.54,1.45-2,2.4.8.19,1.62.27,2.44.22-.61.85-.93,1.86-.92,2.91,1.89-.11,3.62-1.07,4.72-2.61.74-.96.74-2.21.79-3.4.07-.44-.49-.33-.74-.4-1.47,0-3.07-.08-4.25.88h-.03ZM192.39,69.58l.66.6.66-.56-1.32-.04ZM179.72,69.62c-.28,1.76.26,3.55,1.47,4.86,1.28,1.04,2.9,1.56,4.54,1.47-.24-.99-.79-1.88-1.57-2.52,1.05-.09,2.21.24,3.18-.29-.54-.67-1.13-1.3-1.77-1.87-1.71-1.19-3.77-1.77-5.86-1.66h.01ZM176.67,74.19c-1.59.13-3.05.93-4.01,2.21-.71.96-1.06,2.14-.97,3.33,1.08-.23,2.12-.61,3.08-1.14,0,.81.06,1.62.16,2.43,1-.37,1.94-.89,2.77-1.55,1.22-1.16,1.47-2.94,1.9-4.49.12-.43-.12-.88-.54-1.03-.81.03-1.61.12-2.4.28v-.03ZM180.44,75.74c-.22.85-.3,1.74-.24,2.62.14,1.26.73,2.43,1.66,3.3,1.16.97,2.6,1.54,4.11,1.63-.19-1.04-.6-2.02-1.18-2.9,1.03.21,2.1.25,3.14.1-.42-.66-.92-1.27-1.47-1.82-.55-.67-1.22-1.22-1.98-1.63-1.3-.6-2.66-1.04-4.07-1.3h.02ZM170.43,82c.1.13.18.27.26.41.31-.13.63-.25.95-.37v-.38c-.43.02-.85.13-1.24.34h.03ZM127.15,38.72c3.03-.69,6.14-.94,9.24-.74,1.86.22,3.71.55,5.53.99.69.16,1.36.43,1.96.8,1.47.82,3.22,1.02,4.66,1.9s2.99,1.91,4.41,2.94c.67.58,1.17,1.32,1.47,2.16.74,1.47,1.35,3.01,2.06,4.5.41.84.66,1.74.74,2.67l-.74-.1.21.31c.22,0,.45.01.67.06.84,3.35,1.29,6.78,1.35,10.24.1.92.14,1.84.1,2.77-.19,1.21,0,2.47-.33,3.68-.74,2.87-2.49,5.31-3.93,7.85-.48.82-1.35,1.27-2.01,1.93-2.86,2.5-6.04,4.62-9.44,6.3-1.21.5-2.48.84-3.78,1.01-.61.2-1.24.31-1.88.32-1.96-.23-3.96-.23-5.89-.51-5.1-1.18-9.75-3.83-13.35-7.64-1.71-1.71-3.1-3.73-4.08-5.95-1.62-3.69-2.45-7.68-2.44-11.71.16-3.75.91-7.45,2.21-10.96.53-1.57,1.21-3.07,2.05-4.5.74-1.24,1.56-2.39,2.32-3.59.45-.7,1.08-1.26,1.82-1.63,2.24-1.31,4.63-2.34,7.12-3.05l-.07-.02ZM137.57,48c-.07.38-.04.77.09,1.13h.23c.35-.38,0-.86-.32-1.11h0ZM143.55,48.03c.11.41.3.79.54,1.14l.59-.29c.05-.18.1-.37.15-.55-.45.06-.9-.04-1.27-.29h0ZM146.19,49.33l-.22.65c.39.1.78.21,1.17.29-.25-.38-.57-.7-.95-.95h0ZM119.25,54.03h.58c-.07-.33-.15-.66-.24-.99-.26.26-.38.62-.35.99h0ZM153.5,53.86c.63.48,1.41.72,2.21.68v-.51c-.73-.11-1.47-.16-2.21-.17h0ZM152.45,57.18c-.24.38-.49.74-.74,1.13h.6c.2-.26.36-.55.47-.86l-.33-.27h0ZM154.03,57.42v.4h.39v-.39h-.39ZM148.88,59.17c.25-.07.5-.15.74-.26.09-.24.17-.49.24-.74-.49.13-.87.53-.96,1.03v-.03ZM148.09,58.48v1.07c.13-.09.26-.19.38-.29-.08-.28-.21-.54-.38-.78h0ZM153.37,59.05v.57h.41c0-.16-.05-.32-.07-.48l-.34-.09ZM153.23,61.41c.23.32.39.69.44,1.08.28-.44.44-.95.46-1.47-.29.13-.6.26-.9.39h0ZM231.88,39.05c1.79,0,3.57-.32,5.36-.22v6.57c0,1.38.24,2.76.13,4.15-.27-.28-.5-.6-.69-.94l-.32-.06c.2,2.68.26,5.36.17,8.04-1.47.17-2.98.12-4.47.26-1.75.18-3.52,0-5.27.21-.95.1-1.91.04-2.87.08,0,1.07.22,2.13.17,3.19-.05.46-.21.89-.49,1.26.32.24.5.62.49,1.02-.32,2.5-.05,5.04-.21,7.55-.12.93.13,1.86,0,2.79-.14,1.75-.19,3.5-.15,5.25-.06,2.08,0,4.15.15,6.23.18,2.07-.18,4.13-.2,6.2-4.58,0-9.18-.04-13.77,0-.09-1.18-.12-2.37-.08-3.56v-4.92c.17-2.07.04-4.14.14-6.2.21-1.47.09-2.94.25-4.46.18-3.83.22-7.66.1-11.49-.07-1.39-.2-2.77-.21-4.17-5.28,0-10.55-.2-15.83-.29-.26-3.36-.17-6.75-.24-10.12-.16-1.81-.2-3.63-.13-5.45,1.23-.08,2.47,0,3.68-.14,1.21-.14,2.27,0,3.4-.1,1.8-.19,3.62-.17,5.43-.31,1.64.05,3.27-.23,4.91-.18,1.64.05,3.17,0,4.76,0,.88,0,1.74-.17,2.62-.16h13.12l.07-.04ZM220.11,40.04c0,.22.04.44.07.67l.36.05c.07-.24.13-.49.19-.74h-.62ZM220.91,40.04c.13.18.24.38.36.56h.4v-.56h-.76ZM209.14,49.88c.13-.14.25-.29.37-.45-.14-.22-.29-.42-.46-.63-.22.33-.2.76.06,1.06h.03Z"/>
      <path id="path10" class="cls-17" d="M174.71,96.44c-.08.28,0,.38.26.28.08-.27,0-.37-.26-.28Z"/>
      <path id="path12" class="cls-17" d="M198.6,97.04c-.21.14,0,.56.23.37.23-.19,0-.54-.23-.37Z"/>
      <path id="path14" class="cls-17" d="M166.18,97.66c-.18.3-.34.61-.49.93.32-.21.64-.43.96-.66-.12-.11-.26-.31-.47-.27h0Z"/>
      <path id="path16" class="cls-17" d="M167.37,101.75c-.22.15.04.52.25.35.21-.16-.04-.52-.25-.35Z"/>
      <path id="path18" class="cls-17" d="M194.9,106.3c-.18.23.19.54.37.29.18-.26-.21-.55-.37-.29Z"/>
      <path id="path20" class="cls-17" d="M164.67,137.54c-.08.23,0,.31.23.23.07-.23,0-.31-.23-.23Z"/>
      <path id="path22" class="cls-17" d="M221.3,124.65c.17.35.27.78.65.97.06-.47-.3-.74-.65-.97Z"/>
      <path id="path24" class="cls-16" d="M174.71,96.44c.26-.09.35,0,.26.28-.26.1-.35,0-.26-.28Z"/>
      <path id="path26" class="cls-16" d="M198.6,97.04c.22-.18.41.22.23.37-.18.15-.44-.23-.23-.37Z"/>
      <path id="path28" class="cls-17" d="M224.53,125.66c0-1.34.28-2.66.27-4.01-.39-.23-.83-.37-1.28-.41l.74-.68h0v.74h.74c.13-1.47.25-2.94.46-4.41h0c.16-1.96-.26-3.9-.4-5.85-.15-.68.08-1.47-.4-2.04.4-1.1-.13-2.27-.13-3.39.04-.92-.01-1.84-.15-2.75,0-.79-.06-1.57-.16-2.35-.14-2.47-.11-4.95-.4-7.41-1.06,0-2.12-.05-3.17-.16-2.24,0-4.48-.21-6.73-.22-1.61-.19-3.23-.1-4.85-.18-.22,2.33,0,4.68-.29,7h0c0,1.37,0,2.74-.04,4.11-.23,1.94-.13,3.91-.21,5.89-.1,3.57-.26,7.13-.29,10.7-.16,1.97-.21,3.95-.17,5.93.74.15,1.5.21,2.25.18,1.37,0,2.72.22,4.1.2,1.1,0,2.21.2,3.27.2,2.21,0,4.41.35,6.68.27h.14c0-.46.06-.91.09-1.35h-.07ZM225.03,115.6c.19-.04.25.21.18.36-.02.03-.05.06-.08.08-.21.04-.26-.26-.15-.4.01-.02.03-.03.05-.04h0ZM210.57,105.72c0,.06,0,.11,0,.17-.01.05-.03.1-.05.15-.1.21-.3.36-.53.4h0c.04-.24.1-.48.15-.74h.45-.02ZM211.19,104.01s.02-.1.05-.14c.14,0,.19.04.2.08,0,.04-.27.23-.25.06h0ZM211.19,101.39h0v-.39h0c.04-.28-.05-.57-.24-.79h0c.24.21.52.38.74.63-.14.23-.32.37-.49.55h-.01ZM213.47,104.79h-.43c0-.07.07-.21.1-.29l.31-.11v.43l.02-.03ZM214.59,109.94c-.26.15-.51.29-.77.42-.03-.24-.05-.48-.07-.74h0c.27.1.55.21.84.29v.03ZM219.61,98.16l-.43-.78.5.15c-.01.16-.04.38-.05.59v.04ZM220.99,112.1v.47c-.16-.14-.31-.28-.46-.43h0l.46-.04Z"/>
      <path id="path30" class="cls-16" d="M221.3,124.65c.35.24.74.5.65.97-.38-.19-.48-.62-.65-.97Z"/>
      <path id="path32" class="cls-16" d="M164.67,137.54c.22-.08.3,0,.23.23-.24.08-.31,0-.23-.23Z"/>
      <path id="path34" class="cls-17" d="M198.01,106.03c1.58-3.16,3.24-6.29,4.73-9.5-4.73-.06-9.46,0-14.19,0-.68,1.31-1.35,2.63-1.92,4-1.38,3.22-2.87,6.39-4.2,9.62h-.27c-.11-.64-.38-1.24-.78-1.74-.51-.85-.78-1.81-1.29-2.66-.22-.31-.42-.64-.59-.99-.34-.88-.91-1.65-1.32-2.49-1.47-3.17-3.13-6.23-4.61-9.39-.21-.55-.46-1.09-.74-1.61-1.18-.1-2.38,0-3.56,0-1.42-.02-2.84.04-4.26.18l-2.88.05c-.15,1.16-.5,2.46.17,3.52,1.43,3.16,2.85,6.34,4.27,9.51l.51-.22.54.48c-.33,0-.65-.04-.98-.08,1.41,3.22,2.79,6.44,4.17,9.66,1.09,2.57,2.21,5.15,3.22,7.73.54,1.77.37,3.68.64,5.47.15,2.59.32,5.15.4,7.77.24,1.47,0,2.94.26,4.41.07,1.56.08,3.12.08,4.69h14.68c.07-.97-.13-1.92-.08-2.88,0-2.21-.07-4.37-.09-6.56-.15-1.15-.04-2.3-.1-3.45,0-2.3-.02-4.59-.07-6.89-.11-.81-.14-1.63-.1-2.44,2.8-5.41,5.59-10.79,8.37-16.19h0ZM194.9,106.3c.16-.27.54.06.37.29-.17.23-.55-.06-.37-.29ZM165.7,98.59c.15-.32.31-.63.49-.93.21-.04.32.16.47.27-.32.23-.63.45-.96.66h0ZM167.62,102.11c-.21.16-.47-.2-.25-.35.22-.15.47.2.25.35ZM173.8,109.37h0c0,.19-.04.38-.07.57h-.56c.16-.24.38-.43.63-.57h0ZM174.28,111.67h-.56v-.49h0l.53.1c0,.1,0,.3.04.4h0ZM178.97,107.02h.38v.54h-.54c.04-.21.1-.38.16-.54h0ZM176.94,111.89c.12.29.27.56.44.82-.04,0-.1.1-.13.13l-.31.79h0c-.28-.17-.52-.41-.67-.7h0l-.17-.11h0c.37-.23.66-.55.84-.94h0ZM174.73,102.95h0c0-.15.04-.31.07-.46h0c.13-.1.25-.21.36-.32.21-.19.33-.46.32-.74h0l.31.04c.14.35.31.69.5,1.02h0c-.14-.01-.28-.01-.43,0h0c-.12,0-.23.02-.35.05h-.12l-.22.1c-.17.08-.33.18-.47.32h.01ZM175.19,124.54h0v-.51h0l.34.04v.35l-.34.11ZM176.75,114.78c-.29.08-.58.13-.88.15-.19-.21-.35-.44-.53-.65h0c.33-.03.65-.09.96-.18l.46.29c-.01.1-.02.3-.02.4h.01ZM177.26,121.5h-.42s0-.07,0-.11h0v-.2h0v-.18h.44v.44l-.02.05ZM177.57,118.91s0,.05,0,.07c-.03.05-.1.08-.16.07h-.1s-.06-.07-.06-.12c0-.04.01-.08.04-.11.01-.02.03-.05.06-.06h0s.1-.02.15,0l.09.07s.03.06.04.1c-.02,0-.03,0-.04-.02h0ZM177.61,110.27c-.05,0-.1,0-.1-.19h0c.32-.19.2.15.07.19h.04ZM177.95,110.02h.53v.5h-.47c-.04-.14-.06-.38-.07-.5h.01ZM179.42,111.5c-.33-.19-.69-.32-1.06-.38v-.32h.99c0,.24.06.47.09.74v-.04ZM181.56,113.78l.04-.04c.22-.19.49.15.31.33h-.09c-.11.06-.25.01-.31-.1-.03-.06-.03-.14,0-.2h.04ZM180.16,108.47h0c.28,0,.22.13.12.19-.1.06-.29.05-.16-.2h.04ZM180.56,114.92h.64v.57h0c-.3.07-.59.15-.88.26.03-.27.13-.55.2-.83h.04ZM181.36,130.03c-.07.1-.21.12-.31.04-.02-.01-.03-.03-.04-.04-.02-.02-.03-.04-.04-.07h0c-.04-.13.03-.26.15-.31.01,0,.02,0,.04,0h.17c.1.07.13.2.07.31-.02.03-.04.05-.07.07h.04ZM181.36,120.94s.02-.09.05-.12c.1-.1.25-.1.35,0,.03.03.05.07.07.11,0,.03,0,.05,0,.08v.04c-.05.05-.12.08-.19.08-.13.02-.26-.07-.29-.2h0ZM181.61,138.21h0c0-.28.26-.42.41-.6.05.27.09.55.12.83-.15-.09-.44-.05-.54-.24h0ZM182.47,113.57h0c.41-.41.66.43.38.74h0l-.07.06c-.07.04-.14.05-.21.04-.14-.26-.18-.56-.1-.84h0ZM182.59,121.75l-.1-.13-.06-.07-.21-.24.83-.5h.21c-.21.32-.4.65-.63.96l-.04-.03ZM184.31,139.02c-.08.28-.15.56-.22.84-.22-.26-.49-.48-.8-.63l-.06-.26h0c.33.2.73.21,1.08.05h0ZM184.5,107.77h0c-.15-.19-.28-.38-.41-.58h0l.51.16c-.04.15-.07.29-.1.43h0ZM185.23,128.32h-.3l-.06-.46h0l.28.04h.16c-.06.16-.08.34-.1.43h.02ZM185.53,132.86c-.08.1-.34.16-.17-.13h0c.18.02.2.09.15.15h.02ZM186.96,107.4c-.32-.15-.64-.33-.96-.48.13-.1.24-.23.33-.36h0c.26.24.6.46.63.84h0ZM187.7,103.11h-.48v-.39h.53c-.06.13-.07.32-.07.4h.02ZM188.49,98.99h0c.28.1.46.36.48.65h0l-.39-.08-.09-.57ZM189.29,122.02c-.25-.12-.49-.25-.74-.38h0c.29-.15.6-.29.9-.41l.17.38c-.13.15-.27.29-.35.43h.02ZM188.88,103.09l.21-.32h.55c0,.18,0,.38.04.57-.3-.07-.57-.15-.83-.24h.02Z"/>
      <path id="path36" class="cls-17" d="M168.86,136.63c-.07-1.63-.12-3.27-.35-4.89-4.46.15-8.92.06-13.38.09-1.56.08-3.13,0-4.67-.22-.37-1.52-.26-3.11-.46-4.64-.06-1.7-.02-3.39.12-5.08,0-.74.04-1.54.06-2.3,0-2.91.24-5.8.29-8.7,0-.67.14-1.32.18-1.99v-.92c.42-4.23.38-8.49-.13-12.71-.07-.8-.21-1.59-.42-2.37-.26-.05-.52,0-.74.16-.24-.12-.51-.18-.79-.18h-3.3c-1.19.07-2.38,0-3.55-.18-2.21-.13-4.46,0-6.69-.07h0c-.52,1.16-.39,2.44-.63,3.68-.06,1.04,0,2.09-.15,3.13,0,4.41.08,8.83-.29,13.24-.13.87,0,1.76-.19,2.62-.08.98-.08,1.96,0,2.94.08.77-.29,1.51-.24,2.28-.11,1.15-.1,2.3-.16,3.45-.11.99-.17,1.99-.16,2.99-.14,1.08-.19,2.17-.14,3.26.39-.86.69-1.75.91-2.66.21-.88.35-1.77.54-2.65.08.61.11,1.23.09,1.85,0,2.85-.07,5.69-.1,8.53.05,1.04-.15,2.07-.12,3.11v4.22c11.54,0,23.07.04,34.58-.04.06-1.98.02-3.96-.13-5.94h0ZM138.17,103.52h0c.04.29.1.58.15.87h0l-.28-.33c-.1-.11-.18-.22-.27-.34l.4-.2ZM136.54,123.54h0c.32-.02.65.02.95.13l-.31.1-.55.15h-.1c0-.05.01-.28.01-.38h0ZM135.31,120.33l.65.42-.64.09h0v-.26c0-.07,0-.13,0-.2v-.05h0ZM135.43,117.6l.18-.04c0,.12,0,.34-.05.46h-.32v-.35l.19-.07ZM135.11,128.83v-.21c.06,0,.13.02.18.05.1.09-.11.22-.18.17h0ZM135.81,127.47h0c.38,0,.12.24,0,.22-.12-.02-.08-.06,0-.21h0ZM136.22,139.6c-.22-.14-.28-.43-.41-.64.46.01.88.25,1.13.64-.24.02-.48.02-.71,0h0ZM138.12,140.95h-.74c0-.13,0-.36-.04-.49h0c.27.13.53.29.78.46v.02ZM138.5,138.21h-.44c.15-.29.36-.54.61-.74-.06.21-.1.48-.17.74h0ZM142.99,108.67h-.04s-.05,0-.08,0h0c-.2,0-.37-.28-.16-.42h.04c.19-.07.46.26.24.42h0ZM142.99,104.99c-.21.1-.43.2-.63.31-.2.27-.04.57.04.84h0c-.31-.32-.65-.6-.96-.9.01-.04.04-.08.07-.12.15-.19.4.07.52.27.27-.24.61-.37.96-.4h0ZM139.75,122.4c-.21-.11-.21-.24,0-.35h0c.21.11.21.23,0,.35ZM140.18,138.06c-.15.23-.52-.06-.35-.27.17-.21.52.06.35.28h0ZM140.35,93.45h-.43v-.4h0l.38-.04v.42h.05ZM141.08,96.39c-.11.03-.21.07-.3.12h0v-.61h.61c.19.21.4.41.62.59h0c-.18-.11-.39-.17-.6-.18h-.16l-.16.08ZM141.25,117.88l.63.05c.01.41.08.81.2,1.2h0c-.36-.35-.64-.78-.82-1.25h0ZM142.37,135.65l-.57.06-.28-.52h0c.3.11.59.26.85.46h0ZM143.2,109.73c-.59.23-.98-.29-1.35-.66h0c.47.17.93.39,1.35.66ZM143.74,114.88h-.35c-.04-.24-.08-.48-.1-.74h0l.44.25v.49ZM143.96,106.35h0c-.21.05-.27-.25-.16-.38.02-.02.04-.03.06-.04.24-.07.28.33.1.42h0ZM146.39,110.24h0c.63-.12.83.52,1.07.96h0c-.37-.3-.73-.62-1.07-.96h0ZM147.66,114.23c-.46.26-.74-.42-.6-.74.45-.27.77.36.6.73h0ZM148.61,111.89h0c-.26.09-.36,0-.27-.27h0c.26-.1.35,0,.27.26h0ZM148.61,106.94h0l.06-.04h.07c.26-.17.53-.32.8-.46.17.18.33.39.51.58h0c-.47-.16-.97-.19-1.45-.08h.01ZM150.46,132.33h-.24c0-.39.44-.31.74-.35h0c-.04.31-.27.34-.52.34h.01ZM157.82,141.59l-.18.1-.18.11h0l-.57-.2v-.27h0c.39-.13.69-.43.83-.82h0c.11.31.31.57.59.74l.38-.5h0c.12.15.24.3.38.45-.44.04-.87.17-1.26.38h.02ZM161.39,135.13h0c-.15-.16-.26-.35-.32-.55h.67c-.05.22-.18.41-.35.54h0Z"/>
      <path id="path38" class="cls-17" d="M222.14,132.1c-.56-.99-.97-2.13-1.93-2.81-.74-.57-1.69-.66-2.52-.99-1-.35-2.06-.91-3.13-.52h0c-1.22.52-2.57.82-3.59,1.7-1.02.88-2,1.47-2.88,2.35-.21.78-.32,1.57-.56,2.35-.36,1-.1,2.07-.16,3.1,0,.49-.14,1.08.26,1.47.92,1.19,1.93,2.3,3.03,3.33.87.64,1.83,1.14,2.86,1.47.88-.09,1.76-.26,2.61-.49,1.66-.36,3.28-.88,4.85-1.53.29-.14.68-.27.74-.63.27-1.1.54-2.21.83-3.29.08-1.38.06-2.75.07-4.13-.03-.5-.2-.97-.48-1.38h0ZM210.37,141.04c-.14.21-.42.04-.42-.15,0-.03,0-.06,0-.1.14-.22.46,0,.41.18,0,.02,0,.04-.01.06h.02ZM211.98,140.99l-.26-.32c.06-.14.12-.27.18-.4h0c.26.24.51.48.78.74h-.71ZM215.51,137.09c-.26.09-.35,0-.27-.27.07-.03.15-.03.22,0h.04v.04s0,.04,0,.06c0,.07,0,.13-.01.2l.02-.03ZM218.46,135.41c-.59-.07-1.32.09-1.64-.54h0c.23,0,.47.05.68.15l.21.09c.19.1.38.19.58.26l.15.04h.03Z"/>
      <path id="path40" class="cls-18" d="M240.49,63.64c.32,3.58-.18,7.06-.32,10.67h-13.79c-.08-3.43-.61-6.8-.31-10.2.35-.43.82-.26,1.24-.26,3.08,0,6.17-.08,9.26,0,1.26,0,2.47-.6,3.91-.21h0Z"/>
      <path id="path42" class="cls-30" d="M236.17,69.13c-.23.59-.54.74-.96.58.12-.4.44-.49.96-.58Z"/>
      <path id="path44" class="cls-24" d="M229.32,72.42c-.09.21-.23.32-.54.21-.16-.49.15-.74.55-.87.1.09.16.2.18.33-.02.13-.09.25-.19.32Z"/>
      <path id="path46" class="cls-23" d="M229.32,72.42v-.34c.09-.11.2-.21.3-.3.37.08.35.37.35.65h-.66,0Z"/>
      <path id="path48" class="cls-26" d="M230.78,72.57c-.15-.15-.17-.39-.05-.57.39.16.28.36.05.57Z"/>
      <path id="path50" class="cls-4" d="M231.63,72.1h.33c.2,0,.2.24.33.33-.02.17-.16.31-.33.33-.08.09-.22.1-.31.02,0,0-.01-.01-.02-.02h0c-.18-.18-.19-.47,0-.66,0,0,0,0,0,0Z"/>
      <path id="path52" class="cls-8" d="M235.96,71.09c.26.15.4.37.1.58-.29.21-.38,0-.45-.25.13-.1.15-.31.35-.33h0Z"/>
      <path id="path54" class="cls-38" d="M234.97,73.1c.08-.24.26-.44.5-.53.26.26.1.41-.15.53l-.18.14-.18-.14Z"/>
      <path id="path56" class="cls-43" d="M238.77,73.34l-.38-.35c.49-.28.51-.08.38.35Z"/>
      <path id="path58" class="cls-48" d="M230.13,68.9c.27-.1.4,0,.45.15,0,.09-.04.18-.11.25-.18-.01-.29-.14-.34-.4h0Z"/>
      <path id="path60" class="cls-14" d="M232.52,68.26c-.27.05-.35-.11-.38-.33,0,0,.08-.09.13-.09.26.02.38.15.26.42Z"/>
      <path id="path62" class="cls-7" d="M238.24,65.82c.29.13.43.32.14.54-.29.22-.37,0-.44-.24.08-.12.18-.22.3-.3h0Z"/>
      <path id="path64" class="cls-19" d="M233.45,64.67c-.04-.1-.12-.2-.1-.27.02-.07.17-.14.21,0,.04.14-.07.18-.11.27h0Z"/>
      <path id="path66" class="cls-27" d="M227.81,65.96c.13-.15.26-.16.38,0-.13.18-.26.18-.38,0Z"/>
      <path id="path68" class="cls-35" d="M228.47,67.95c.13-.15.26-.15.38,0-.13.17-.26.18-.38,0Z"/>
      <path id="path70" class="cls-39" d="M234.97,68.13c-.27,0-.55,0-.65-.34.07-.09.21-.11.3-.03.01,0,.02.02.03.03h.32c.09.07.12.15.09.23-.03.08-.09.11-.09.11Z"/>
      <path id="path72" class="cls-4" d="M234.97,68.13v-.34c.21.07.37.21.27.41-.1.2-.23.04-.27-.07h0Z"/>
      <path id="path74" class="cls-31" d="M238.75,67.95c.17.12.17.24,0,.37-.16-.13-.17-.25,0-.37Z"/>
      <path id="path76" class="cls-21" d="M238.1,68.27c.15.13.16.26,0,.38-.19-.13-.19-.26,0-.38Z"/>
      <path id="path78" class="cls-13" d="M227.17,69.3c-.16-.13-.17-.24,0-.37.16.12.17.24,0,.37Z"/>
      <path id="path80" class="cls-5" d="M232.15,69.61c-.13.17-.24.17-.37,0,.12-.18.24-.18.37,0Z"/>
      <path id="path82" class="cls-29" d="M230.13,73.93c-.15-.13-.16-.26,0-.37.18.13.18.27,0,.37Z"/>
      <path id="path84" class="cls-4" d="M234.97,73.42c-.06.12-.15.29-.26.09-.11-.21.05-.35.24-.42h0c.07.07.1.15.07.21-.03.07-.06.12-.06.12h0Z"/>
      <path id="path86" class="cls-22" d="M230.46,70.54c.16.13.2.25.05.4-.27-.11-.14-.25-.05-.4Z"/>
      <path id="path88" class="cls-12" d="M235.96,71.09c-.04.17-.17.3-.35.33.09-.13-.24-.71.35-.33Z"/>
      <path id="path90" class="cls-33" d="M234.61,71.43c0-.22.18-.36.39-.27s.07.2-.05.28c-.09.09-.23.1-.32,0,0,0-.01-.01-.02-.02h0Z"/>
      <path id="path92" class="cls-40" d="M237.27,72.09c.2.07.36.21.26.42-.1.21-.2,0-.26-.09-.07-.09-.12-.15-.09-.22.03-.07.07-.11.1-.11Z"/>
      <path id="path94" class="cls-9" d="M231.63,72.1v.66c-.4-.22-.41-.44,0-.66Z"/>
      <path id="path96" class="cls-20" d="M227.51,72.24c.15.13.16.26,0,.38-.18-.13-.19-.25,0-.38Z"/>
      <path id="path98" class="cls-10" d="M237.27,72.09v.33c-.21-.06-.36-.2-.26-.4.1-.21.17-.04.26.07Z"/>
      <path id="path100" class="cls-15" d="M232.3,72.42c-.17-.03-.3-.16-.33-.33.57-.36.21.23.33.33Z"/>
      <path id="path102" class="cls-28" d="M229.63,71.78c0,.17-.14.3-.3.3-.01-.11-.01-.21,0-.32.1,0,.2,0,.3.01h0Z"/>
      <polygon id="polygon104" class="cls-44" points="233.4 71.92 233.49 71.89 233.47 71.98 233.4 71.92"/>
      <polygon id="polygon106" class="cls-3" points="238.69 71.92 238.79 71.89 238.77 71.98 238.69 71.92"/>
      <path id="path108" class="cls-34" d="M234.61,71.43h.35c-.13.31-.24.35-.35,0Z"/>
      <polygon id="polygon110" class="cls-41" points="234.13 72.2 234.16 72.29 234.08 72.28 234.13 72.2"/>
      <polygon id="polygon112" class="cls-32" points="226.78 72.59 226.87 72.56 226.85 72.64 226.78 72.59"/>
      <path id="path114" class="cls-25" d="M229.98,72.43l.23.13c-.22.19-.17-.05-.22-.14h0Z"/>
      <path id="path116" class="cls-6" d="M231.63,72.76h.33c-.11.34-.22.29-.33,0Z"/>
      <polygon id="polygon118" class="cls-49" points="228.88 70.95 228.79 70.97 228.81 70.89 228.88 70.95"/>
      <path id="path120" class="cls-45" d="M234.97,73.42v-.32h.32c-.03.16-.16.29-.32.32Z"/>
      <polygon id="polygon122" class="cls-35" points="229.47 73.65 229.44 73.56 229.53 73.56 229.47 73.65"/>
      <polygon id="polygon124" class="cls-36" points="234.46 68.88 234.5 68.98 234.4 68.97 234.46 68.88"/>
      <polygon id="polygon126" class="cls-49" points="236.43 68.35 236.4 68.26 236.48 68.27 236.43 68.35"/>
      <polygon id="polygon128" class="cls-46" points="230.07 68.28 230.18 68.24 230.16 68.34 230.07 68.28"/>
      <path id="path130" class="cls-47" d="M234.62,67.79h-.33c.12-.32.22-.28.33,0Z"/>
      <polygon id="polygon132" class="cls-37" points="229.75 67.62 229.85 67.58 229.83 67.67 229.75 67.62"/>
      <polygon id="polygon134" class="cls-3" points="231.81 67.24 231.84 67.32 231.76 67.31 231.81 67.24"/>
      <polygon id="polygon136" class="cls-41" points="238.09 67.02 238.05 66.93 238.14 66.95 238.09 67.02"/>
      <path id="path138" class="cls-11" d="M239.91,66.48l.23.13c-.22.2-.17-.06-.22-.13h0Z"/>
      <path id="path140" class="cls-8" d="M239.92,66.48l-.23-.13c.22-.2.16.06.22.13h0Z"/>
      <path id="path142" class="cls-2" d="M238.24,65.82c0,.16-.14.3-.3.3,0-.1,0-.21,0-.31h.3Z"/>
      <path id="path144" class="cls-42" d="M237.91,65.81l-.24-.13c.23-.2.16.07.23.14h0Z"/>
      <polygon id="polygon146" class="cls-32" points="238.82 64.98 238.73 65.01 238.74 64.93 238.82 64.98"/>
      <polygon id="polygon148" class="cls-1" points="226.84 64.59 226.87 64.68 226.79 64.66 226.84 64.59"/>
    </g>
  </g>
</svg>