<?xml version="1.0" encoding="UTF-8"?>
<svg id="Layer_1" data-name="Layer 1" xmlns="http://www.w3.org/2000/svg" viewBox="0 0 352.3 165.34">
  <defs>
    <style>
      .cls-1 {
        fill: #e6bb52;
      }
    </style>
  </defs>
  <g>
    <path d="M290.88,80.56v8.06c-3.31,32.95-36.08,52.21-65.02,59.13-25.53,6.1-51.02,6.51-76.45,1.22-24.25-5.05-52.71-18.02-64.71-41.49-9.45-18.49-6.79-38.65,5.99-54.73,16.13-20.28,43.84-30.57,68.66-34.1,23.23-3.3,45.71-2.22,67.45,3.26,28.53,7.19,60.63,25.97,64.09,58.66ZM84.14,84.74c0,27.43,25.04,45.88,48.73,54.29,16.65,5.91,34.26,8.52,52.13,8.51,17.86,0,35.48-2.61,52.13-8.53,23.69-8.42,48.71-26.89,48.7-54.32,0-27.43-25.03-45.88-48.72-54.29-16.65-5.91-34.27-8.52-52.13-8.51-17.86,0-35.48,2.61-52.13,8.53-23.69,8.42-48.71,26.89-48.71,54.32Z"/>
    <path d="M184.98,24.43c18.5,0,37.49,2.91,54.89,9.77,18.55,7.31,37.92,21.13,42.5,41.82.15.67-.15,1.36-.73,1.72-2.99,1.85-4.48,4.17-4.48,6.97s1.49,5.12,4.48,6.97c.58.36.87,1.05.72,1.72-4.58,20.69-23.96,34.5-42.51,41.8-17.41,6.85-36.4,9.76-54.89,9.75-18.5,0-37.49-2.91-54.89-9.77-18.54-7.31-37.92-21.13-42.49-41.82-.15-.67.15-1.36.73-1.72,2.99-1.85,4.48-4.17,4.48-6.97s-1.49-5.12-4.48-6.97c-.58-.36-.88-1.05-.73-1.72,4.59-20.69,23.96-34.5,42.51-41.8,17.4-6.85,36.4-9.76,54.89-9.75ZM181.65,39.6c.04,2.14.07,3.37.1,3.67.03.31.28.54.59.54l5.18-.09c.24,0,.44-.2.43-.45,0,0,0,0,0,0l-.06-1.3c0-.21-.18-.37-.4-.36,0,0,0,0,0,0l-2.92.13c-.27.01-.49-.19-.5-.46,0,0,0,0,0,0v-.25c-.02-.25.17-.46.42-.47,0,0,0,0,0,0l2.41-.11c.23,0,.41-.18.44-.41.02-.13.03-.31.02-.54s-.02-.41-.04-.54c-.04-.23-.23-.4-.46-.4l-2.41-.02c-.25,0-.45-.2-.45-.45,0,0,0,0,0,0v-.25c0-.27.22-.48.48-.47,0,0,0,0,0,0l2.93.02c.21,0,.38-.17.38-.38h0s0-1.3,0-1.3c0-.24-.2-.44-.45-.43,0,0,0,0,0,0l-5.18.08c-.3,0-.55.25-.57.56-.02.31,0,1.53.03,3.67ZM171.49,40.92c.64,3.98,5.7,5.15,7.79,1.77.12-.19.06-.44-.13-.55,0,0,0,0,0,0l-1.33-.77c-.15-.09-.34-.05-.44.08-1.3,1.63-3.08.93-3.38-.93-.3-1.87,1.18-3.09,2.92-1.95.14.09.33.07.44-.06l1.02-1.15c.15-.17.14-.42-.03-.57,0,0,0,0-.01-.01-3.05-2.54-7.48.16-6.84,4.14ZM198.02,45.3c.18.04.37-.07.41-.25l1.85-7.36c.07-.27-.09-.54-.36-.61l-2.85-.72c-.27-.07-.54.09-.62.36,0,0,0,.01,0,.02l-.28,1.14c-.07.27.09.55.36.62l.52.13c.23.06.37.29.31.52l-1.32,5.25c-.05.2.07.41.28.46l1.71.43ZM165.29,47.3c.12-.04.18-.18.14-.3l-.93-2.59c-.05-.12.01-.26.13-.3.07-.03.14-.02.21.02l3.45,1.99c.06.03.13.04.19.02l1.49-.53c.12-.04.18-.18.14-.3l-2.67-7.48c-.04-.12-.18-.18-.3-.14l-1.9.67c-.12.04-.18.18-.14.3l.93,2.6c.05.12-.01.26-.13.3-.07.03-.14.02-.21-.02l-3.45-2c-.06-.03-.13-.04-.19-.02l-1.49.53c-.12.04-.18.18-.14.3l2.68,7.49c.04.12.18.18.3.14l1.89-.68ZM205.22,44.58c-.15.18-.38.29-.62.3-.65.04-1.27-.17-1.87-.64-.25-.19-.6-.15-.81.08l-.69.8c-.19.22-.17.55.05.74,1.8,1.61,4.54,1.78,6.15-.24,1.15-1.45,1.95-4.12.63-5.69-1.86-2.22-5.59-1.71-5.67,1.54-.04,1.51.94,2.36,2.93,2.56.09.01.16.09.15.19,0,.03-.02.06-.04.09l-.22.25ZM213.3,44.96c-.7.14-1.25.59-1.65,1.35-.14.26-.04.59.22.74,1.04.59,1.35,1.03.93,1.33-.05.04-.11.07-.17.1-.61.26-1.36-.18-2.27-1.33-.11-.14-.31-.18-.47-.09l-1.27.74c-.21.12-.28.39-.16.6,0,0,0,.02.01.02.63.96,1.58,1.72,2.84,2.27,1.89.83,3.91-.41,4.04-2.48.04-.72-.57-1.08-.62-1.42-.04-.21.11-.41.32-.45,0,0,.01,0,.02,0,.91-.11,1.6-.54,2.1-1.27.22-.33.13-.77-.2-.99-.01,0-.02-.02-.04-.02l-3.74-2.16c-.34-.2-.77-.08-.97.26,0,0,0,0,0,0l-.39.67c-.2.34-.08.79.26.99.05.03.1.05.16.07.34.1.73.31,1.15.64.11.09.14.25.05.37-.04.05-.09.08-.16.09ZM157.09,42.09c-.08-.14-.26-.2-.4-.12l-1.71.92c-.14.08-.2.26-.12.4l3.72,6.89c.08.14.26.2.4.12l1.71-.92c.14-.08.2-.26.12-.4l-3.72-6.89ZM151.48,45.36c-2.4.88-5.42,3.24-3.03,5.88,1.17,1.28,3.09.27,4.55-.37.19-.09.41,0,.5.19.02.05.04.11.03.17l-.04.29c-.04.31-.25.58-.55.69l-2.07.74c-.19.07-.29.27-.22.46l.5,1.39c.06.17.24.27.42.22,1.87-.49,4.36-1.96,4.37-3.96,0-1.01-.46-1.8-1.41-2.38-.46-.29-1.03-.35-1.54-.16l-2.68.96c-.14.05-.29-.03-.34-.16l-.07-.2c-.06-.18,0-.38.14-.5.66-.52,1.42-.92,2.27-1.21.13-.04.19-.18.15-.31,0,0,0,0,0,0l-.55-1.52c-.06-.17-.24-.26-.41-.2,0,0,0,0-.01,0ZM217.51,54.93c.14.12.35.1.47-.04l4.92-5.71c.18-.21.16-.52-.05-.7,0,0,0,0,0,0l-2.22-1.91c-.21-.18-.53-.16-.71.06,0,0,0,0,0,0l-.76.88c-.18.21-.16.53.05.72l.4.35c.18.15.2.42.05.6,0,0,0,0,0,0l-3.52,4.08c-.14.16-.12.4.04.54l1.32,1.14ZM182.53,76.64c-.18,8.52,2.47,14.8,12.04,15.01,9.58.21,12.5-5.96,12.68-14.48.18-8.52-2.47-14.8-12.04-15-9.58-.21-12.5,5.95-12.68,14.47ZM170.01,63.83l1.29,3.16c.15.36.24.74.27,1.13l.61,8.71c.01.19-.13.36-.33.37-.13,0-.25-.06-.32-.17-2.67-4.58-4.85-8.95-6.53-13.11-.09-.23-.34-.35-.58-.28-3.11.9-6.23,1.14-9.35.73-.18-.02-.35.1-.37.29,0,.07,0,.14.03.2.97,1.87,1.51,3.87,1.64,5.99.38,6.58.65,10.94.83,13.08.21,2.58-.06,5.09-.81,7.53-.06.17.04.35.21.41.06.02.12.02.17,0,2.56-.59,5.08-.76,7.57-.51.21.02.4-.13.42-.34,0-.09-.01-.17-.06-.25-1.22-1.9-1.65-3.07-1.79-5.41-.24-4.01-.44-7.02-.59-9.03-.02-.26.13-.39.43-.38.18,0,.3.07.37.21,1.35,2.59,3.41,6.56,6.2,11.91.4.76.62,2.11.99,2.88.11.21.34.33.57.28,2.27-.51,4.73-.67,7.38-.51.19.01.36-.14.37-.33,0-.01,0-.03,0-.04-.68-10.51-1.14-18.01-1.37-22.53-.08-1.52.18-2.95.76-4.28.09-.21,0-.45-.21-.54-.08-.04-.18-.05-.27-.02-2.35.56-4.76.71-7.22.43-.17-.02-.32.11-.34.28,0,.05,0,.1.02.14ZM241.25,94.54c-.33-2.28-.55-3.44-.29-5.44.84-6.65,1.65-12.86,2.44-18.62.01-.08.04-.15.07-.22l.86-1.66c.12-.23.03-.5-.19-.62-.08-.04-.16-.06-.24-.05-3.6.3-7.01-.24-10.23-1.62-.21-.09-.46-.02-.59.18-.4.63-.58,2.12-1.01,2.94-.02.04-1.51,3.37-4.47,9.99-.1.23-.19.36-.26.4-.26.13-.57.02-.7-.24-.02-.05-.04-.1-.05-.15l-2.13-14.07c-.03-.18-.2-.31-.38-.28-3.65.49-7.24,0-10.77-1.48-.24-.1-.52,0-.62.25-.05.11-.05.23-.01.34.54,1.58.73,3.15.57,4.71-.54,5.07-1.28,10.72-2.22,16.94-.25,1.62-.84,3.11-1.77,4.47-.13.19-.08.45.11.58.08.05.17.08.27.08,2.68-.14,5.13.17,7.35.93.23.07.47-.05.55-.28.03-.09.03-.18,0-.27-.56-1.64-.74-3.34-.55-5.12.24-2.14.72-5.93,1.44-11.39.03-.26.27-.45.53-.42.22.02.39.19.42.41l2.65,17.64c.02.16.17.28.34.26,0,0,.01,0,.02,0,1.4-.24,2.92-.08,4.58.45.21.07.45-.04.54-.25l7.06-16.11c.11-.24.4-.34.63-.22.18.09.29.28.27.48-.02.15-.56,4.34-1.64,12.56-.16,1.19-.62,2.53-1.39,3.49-.14.17-.11.42.06.56.08.06.18.09.28.09,2.85-.22,5.53.16,8.06,1.13.17.06.36-.02.43-.19.02-.05.03-.11.02-.17ZM151.33,74.97c-.93-6.06-6.6-10.23-12.66-9.3l-2.23.34c-6.06.93-10.23,6.6-9.3,12.66l1.09,7.1c.93,6.06,6.6,10.23,12.66,9.3l2.23-.34c6.06-.93,10.23-6.6,9.3-12.66l-1.09-7.1ZM117.96,70.1c-.11.03-2.52.46-7.21,1.29-5.45.96-10.14,5.65-7.89,11.57,1.89,4.96,7.38,5.3,12.76,6.46,2.53.55,3.02,3,1.35,4.64-2.58,2.51-7.26.67-9.76-1.32-.15-.12-.38-.1-.5.06-.08.1-.1.24-.05.36,1.1,2.53,1.66,5.18,1.68,7.96,0,.23.19.42.42.41.04,0,.08,0,.12-.02.35-.11,3.07-.54,8.16-1.3,1.77-.26,3.6-1.19,5.5-2.79,3.14-2.65,3.68-6.82,2.17-10.39-2.29-5.4-8.24-5.04-12.38-5.81-2.18-.4-3.66-2.81-1.52-4.3,2.8-1.96,6.42-.12,8.8,1.82.16.12.38.1.51-.06.09-.11.1-.27.03-.4-1.43-2.43-2.05-5.07-1.88-7.91,0-.14-.1-.27-.24-.28-.02,0-.05,0-.07,0ZM267.08,73.38c-3.7-.2-7.1-1.1-10.18-2.71-.17-.09-.37-.02-.46.14-.01.03-.02.05-.03.08-.2.92-.45,1.67-.74,2.25-1.18,2.44-4.08,8.11-8.72,17.03-1.05,2.01-2.05,3.31-3.4,4.99-.12.16-.1.38.06.51.06.04.12.07.19.08,2.47.17,4.77.77,6.9,1.79.17.08.36,0,.44-.16.03-.05.04-.12.03-.18-.15-1.6.13-3.11.86-4.55.14-.28.46-.43.76-.35l6.27,1.63c.22.06.39.25.4.48.13,1.66-.32,3.13-1.36,4.42-.13.16-.1.38.05.51.06.05.14.08.22.08,2.78.1,5.44.79,7.99,2.08.21.1.47.01.58-.2.04-.09.05-.19.03-.29-.43-1.71-.63-3.46-.57-5.25.14-5.07.37-11.75.71-20.03.03-.69.29-1.23.4-1.81.05-.25-.12-.5-.38-.55-.02,0-.04,0-.06,0ZM276.56,101.43c0-1.85-1.5-3.34-3.34-3.34s-3.34,1.5-3.34,3.34,1.5,3.34,3.34,3.34h0c1.85,0,3.34-1.5,3.34-3.34h0ZM163.91,105.57c0,.16,7.05.61,21.14,1.37.1,0,.2,0,.3,0s.2,0,.3-.01c14.09-.77,21.14-1.23,21.14-1.39s-7.05-.62-21.14-1.37c-.1,0-.2,0-.3,0s-.2,0-.3,0c-14.09.77-21.14,1.23-21.14,1.39ZM230.74,116.78c-.01.13-.13.22-.26.21-.05,0-.09-.02-.13-.05l-3.84-3.31c-.06-.06-.15-.08-.23-.05l-2.65.95c-.12.04-.18.18-.14.3.01.04.04.07.07.1l6.6,5.68s.06.06.07.1l1.37,3.85c.04.12.18.18.3.14l2.5-.89c.12-.04.18-.18.14-.3l-1.43-4.01s-.02-.07-.01-.11l1.01-8.43c.02-.13-.08-.24-.2-.26-.04,0-.07,0-.11.01l-2.3.81c-.08.03-.14.1-.15.19l-.61,5.06ZM134.48,116.68c-2.11,5.53,3.38,10.68,8.51,7.89.09-.05.13-.16.1-.25l-.77-2.17c-.05-.14-.2-.21-.33-.16,0,0,0,0-.01,0-3.25,1.31-5.78-.91-4.52-4.19,1.25-3.28,4.62-3.26,6.17-.12.06.13.22.19.35.13,0,0,0,0,.01,0l2.02-1.1c.09-.05.13-.16.09-.25-1.98-5.49-9.49-5.3-11.6.23ZM148.84,115.84l-2.68,11.16c-.05.22.09.45.31.5,0,0,0,0,0,0l2.22.54c.21.05.43-.08.48-.3l.45-1.92c.13-.55.68-.9,1.23-.77.34.08.61.32.73.64l1.18,2.98c.09.23.28.4.52.46l2.26.55c.18.04.36-.08.4-.26.01-.06,0-.13-.01-.19l-1.25-3.17c-.1-.25,0-.52.23-.65,2.7-1.51,3.5-3.64,2.41-6.41-.94-2.39-5.31-2.96-7.89-3.51-.27-.05-.53.11-.59.37ZM213.1,117.81l2.82,11.14c.06.22.28.36.51.31,0,0,0,0,0,0l2.22-.56c.21-.06.34-.27.29-.49l-.49-1.91c-.14-.55.2-1.11.75-1.25.33-.08.67,0,.92.22l2.44,2.1c.19.16.44.23.68.16l2.25-.57c.18-.05.29-.23.24-.41-.02-.07-.06-.13-.11-.17l-2.58-2.23c-.2-.17-.24-.47-.1-.69,1.69-2.59,1.41-4.86-.85-6.81-1.95-1.68-6.09-.15-8.64.57-.26.08-.42.34-.35.6ZM202.49,125.27c.51,3.23.8,5.08.88,5.56.05.29.33.49.62.45l7.82-1.18c.21-.03.35-.22.32-.42l-.29-1.93c-.03-.19-.21-.33-.4-.3l-4.96.75c-.23.03-.45-.13-.49-.36l-.21-1.41c-.03-.21.12-.41.33-.45l4.11-.62c.25-.04.42-.27.38-.52-.02-.12-.06-.39-.13-.83-.07-.43-.11-.71-.13-.83-.04-.25-.28-.42-.53-.38l-4.09.67c-.22.03-.42-.11-.45-.32l-.23-1.41c-.04-.23.12-.46.35-.5l4.95-.8c.19-.03.32-.21.3-.4l-.32-1.93c-.04-.2-.23-.34-.43-.3l-7.81,1.27c-.29.05-.5.32-.45.62.07.48.36,2.34.86,5.56ZM160.44,124.28c-.41,3.24-.64,5.11-.7,5.59-.03.3.18.56.47.6l7.85,1.04c.2.03.39-.12.42-.32l.25-1.94c.02-.19-.11-.37-.3-.4l-4.98-.66c-.23-.03-.4-.25-.37-.48l.19-1.41c.02-.21.22-.36.44-.34l4.12.55c.25.03.48-.14.52-.39.01-.12.05-.4.11-.84.05-.43.09-.71.11-.84.03-.25-.15-.48-.4-.51l-4.13-.5c-.22-.03-.37-.22-.35-.43l.18-1.42c.03-.23.24-.4.47-.38l4.98.6c.19.02.37-.12.4-.31l.23-1.94c.02-.21-.13-.39-.33-.42l-7.86-.94c-.3-.04-.57.17-.61.47-.07.49-.3,2.35-.72,5.59ZM192.38,126.76h-.06c-.06,0-.1-.03-.12-.06l-3.8-6.36c-.13-.22-.37-.35-.62-.34l-1.76.08c-.22.01-.39.2-.38.42,0,0,0,0,0,0l.5,11.55c.01.27.24.49.52.47,0,0,0,0,0,0l1.9-.08c.27-.01.47-.24.46-.5,0,0,0,0,0,0l-.23-5.44c0-.1.08-.18.18-.19.06,0,.12.03.16.09.98,1.71,1.87,3.18,2.68,4.4.15.22.41.32.8.3.39-.02.64-.15.76-.38.69-1.28,1.44-2.82,2.26-4.62.05-.09.16-.13.25-.08.06.03.09.08.1.14l.28,5.44c.01.27.24.47.5.46,0,0,0,0,0,0l1.9-.11c.27-.02.48-.25.47-.52l-.59-11.55c-.01-.22-.2-.38-.42-.38l-1.76.08c-.25.01-.48.17-.59.4l-3.19,6.7s-.06.06-.11.07c-.02,0-.05,0-.07,0ZM177.19,129.45c1.09.05,1.66.08,1.72.09.27.03.46.26.45.53l-.12,1.78c-.02.2.13.37.33.4l2.27.27c.27.04.52-.16.56-.43,0-.01,0-.03,0-.04.27-5.21,1.71-12.13-4.7-12.45s-5.68,6.7-5.94,11.91c-.02.28.19.51.47.53.01,0,.02,0,.04,0l2.29-.04c.2,0,.36-.16.37-.36l.06-1.79c.01-.27.23-.48.5-.48.06,0,.63.03,1.72.08Z"/>
    <circle cx="205.64" cy="41.46" r=".86"/>
    <path d="M190.84,76.79c.08-3.24.08-9.39,4.3-9.29,4.21.11,3.9,6.25,3.82,9.49s-.08,9.39-4.3,9.29-3.9-6.25-3.82-9.49Z"/>
    <path d="M143.79,79.75c.49,3.21,1.57,9.27-2.6,9.91s-4.95-5.47-5.44-8.68c-.5-3.21-1.58-9.27,2.59-9.91,4.17-.64,4.96,5.47,5.44,8.68Z"/>
    <path d="M254.91,86.97l4.34-8.74c.13-.26.45-.36.7-.23.18.09.29.28.29.49l-.4,9.76c-.01.29-.25.51-.54.5-.04,0-.07,0-.11-.02l-3.94-1.01c-.28-.07-.45-.36-.37-.64,0-.04.02-.07.04-.1Z"/>
    <path d="M272.93,98.61c1.45-.15,2.76.99,2.92,2.54.16,1.55-.89,2.93-2.34,3.08h0c-1.45.15-2.76-.99-2.92-2.54-.16-1.55.89-2.93,2.34-3.08ZM273.5,102.42c.25.38.49.6.72.66.14.04.29-.05.33-.19.02-.07,0-.14-.02-.2l-.33-.57c-.14-.24-.09-.55.13-.73.48-.41.3-.92-.53-1.54-.5-.37-1.2-.27-1.58.23-.14.19-.22.43-.22.67v1.73c0,.26.21.47.47.47.04,0,.08,0,.11-.01.11-.03.23-.19.38-.49.08-.16.27-.22.43-.15.05.03.09.06.13.11Z"/>
    <path d="M273.63,101.16c-.16.11-.43.06-.8-.16-.12-.07-.16-.22-.09-.34.01-.02.03-.04.05-.06.25-.22.53-.23.83-.03.16.11.21.32.11.48-.03.04-.06.07-.1.1Z"/>
    <path d="M151.28,118.9c.02-.11.13-.18.24-.16,0,0,0,0,0,0l1.65.38c1.02.23,1.7,1.09,1.51,1.92l-.15.65c-.19.83-1.17,1.3-2.19,1.07l-1.65-.38c-.11-.02-.18-.13-.16-.24,0,0,0,0,0,0l.74-3.24Z"/>
    <path d="M216.76,119.62c-.06-.23.08-.46.3-.52l1.44-.38c1.01-.26,2.03.3,2.27,1.25l.04.16c.25.95-.37,1.93-1.38,2.19l-1.44.38c-.23.06-.46-.08-.52-.31l-.72-2.77Z"/>
    <path d="M175.41,126.69c-.16,0-.28-.14-.28-.3,0,0,0,0,0,0l.07-1.61c.06-1.34,1.02-2.39,2.15-2.34h.25c1.13.06,2,1.18,1.94,2.53h0s-.07,1.62-.07,1.62c0,.16-.14.28-.3.28,0,0,0,0,0,0l-3.76-.16Z"/>
  </g>
  <g>
    <path class="cls-1" d="M184.98,21.89c17.86,0,35.48,2.6,52.13,8.51,23.69,8.41,48.72,26.87,48.72,54.29,0,27.43-25.01,45.9-48.7,54.32-16.64,5.92-34.26,8.53-52.13,8.53-17.87,0-35.48-2.6-52.13-8.51-23.69-8.41-48.72-26.87-48.73-54.29,0-27.43,25.02-45.9,48.71-54.32,16.64-5.92,34.26-8.53,52.13-8.53ZM92.79,84.67c0,2.8-1.49,5.12-4.48,6.97-.58.36-.88,1.05-.73,1.72,4.57,20.69,23.95,34.51,42.49,41.82,17.4,6.86,36.4,9.77,54.89,9.77,18.5,0,37.49-2.9,54.89-9.75,18.54-7.31,37.92-21.12,42.51-41.8.15-.67-.14-1.36-.72-1.72-2.99-1.85-4.48-4.17-4.48-6.97s1.49-5.12,4.48-6.97c.58-.36.88-1.05.73-1.72-4.57-20.69-23.95-34.51-42.5-41.82-17.39-6.86-36.39-9.77-54.89-9.77-18.5,0-37.49,2.9-54.89,9.75-18.55,7.31-37.92,21.12-42.51,41.8-.15.67.15,1.36.73,1.72,2.99,1.85,4.48,4.17,4.48,6.97Z"/>
    <path class="cls-1" d="M187.37,39.5c0,.23,0,.41-.02.54-.03.23-.21.4-.44.41l-2.41.11c-.25,0-.45.22-.44.47,0,0,0,0,0,0v.25c.02.27.24.47.51.46h0s2.92-.13,2.92-.13c.21,0,.39.15.4.36,0,0,0,0,0,0l.06,1.3c0,.24-.18.45-.42.45,0,0,0,0,0,0l-5.18.09c-.3,0-.56-.23-.59-.54-.03-.31-.06-1.53-.1-3.67-.04-2.14-.05-3.37-.03-3.67.01-.31.26-.55.57-.56l5.18-.08c.24,0,.44.19.45.43h0s0,1.3,0,1.3c0,.21-.17.38-.38.38h0l-2.93-.02c-.27,0-.48.21-.49.47h0s0,.25,0,.25c0,.25.2.46.45.46,0,0,0,0,0,0l2.41.02c.23,0,.42.17.46.4.02.13.03.31.04.54Z"/>
    <path class="cls-1" d="M174,40.51c.3,1.86,2.08,2.56,3.38.93.1-.14.29-.17.44-.08l1.33.77c.19.11.26.36.15.55,0,0,0,0,0,0-2.1,3.38-7.15,2.21-7.79-1.77-.64-3.99,3.79-6.68,6.84-4.14.17.14.2.4.05.57,0,0,0,0-.01.01l-1.02,1.15c-.11.13-.3.15-.44.06-1.74-1.15-3.22.08-2.92,1.95Z"/>
    <path class="cls-1" d="M198.02,45.3l-1.71-.43c-.2-.05-.33-.26-.28-.46l1.32-5.25c.06-.23-.08-.46-.31-.52l-.52-.13c-.27-.07-.43-.35-.36-.62l.28-1.14c.07-.27.34-.44.61-.38,0,0,.01,0,.02,0l2.85.72c.27.07.43.34.36.61l-1.85,7.36c-.05.18-.23.29-.41.25Z"/>
    <path class="cls-1" d="M165.29,47.3l-1.89.68c-.12.04-.25-.02-.3-.14l-2.68-7.49c-.04-.12.02-.25.14-.3l1.49-.53c.06-.02.13-.01.19.02l3.45,2c.11.07.25.03.32-.08.04-.06.04-.14.02-.21l-.93-2.6c-.04-.12.02-.25.14-.3l1.9-.67c.12-.04.25.02.3.14l2.67,7.48c.04.12-.02.25-.14.3l-1.49.53c-.06.02-.13.01-.19-.02l-3.45-1.99c-.11-.07-.25-.03-.32.08-.04.06-.04.14-.02.21l.93,2.59c.04.12-.02.25-.14.3Z"/>
    <path class="cls-1" d="M205.33,44.05c-1.99-.2-2.97-1.05-2.93-2.56.08-3.26,3.81-3.76,5.67-1.54,1.32,1.57.52,4.24-.63,5.69-1.61,2.02-4.35,1.85-6.15.24-.22-.19-.24-.52-.05-.74l.69-.8c.21-.24.56-.28.81-.08.59.46,1.22.67,1.87.64.24-.01.46-.12.62-.3l.22-.25c.06-.07.05-.18-.02-.24-.03-.02-.06-.03-.09-.04ZM206.5,41.46c0-.48-.39-.86-.86-.86h0c-.48,0-.86.39-.86.86h0c0,.48.39.86.86.86h0c.48,0,.86-.39.86-.86h0Z"/>
    <path class="cls-1" d="M213.41,44.5c-.42-.33-.81-.54-1.15-.64-.38-.11-.6-.52-.49-.9.02-.05.04-.11.07-.16l.39-.67c.19-.34.63-.46.97-.26,0,0,0,0,0,0l3.74,2.16c.34.2.46.63.26.98,0,.01-.01.02-.02.04-.49.74-1.19,1.16-2.1,1.27-.21.02-.37.22-.34.43,0,0,0,.01,0,.02.06.34.67.7.62,1.42-.13,2.07-2.15,3.31-4.04,2.48-1.26-.55-2.21-1.31-2.84-2.27-.13-.2-.08-.47.12-.61,0,0,.02-.01.02-.01l1.27-.74c.15-.09.35-.05.47.09.9,1.15,1.66,1.59,2.27,1.33.06-.03.12-.06.17-.1.42-.3.12-.75-.93-1.33-.26-.15-.36-.47-.22-.74.4-.76.95-1.21,1.65-1.35.14-.02.23-.16.2-.3-.01-.06-.05-.12-.1-.16Z"/>
    <rect class="cls-1" x="156.57" y="41.93" width="2.53" height="8.42" rx=".42" ry=".42" transform="translate(-2.95 80.63) rotate(-28.4)"/>
    <path class="cls-1" d="M151.48,45.36c.17-.06.36.02.42.19,0,0,0,0,0,.01l.55,1.52c.05.12-.02.26-.14.31,0,0,0,0,0,0-.85.29-1.6.69-2.27,1.21-.15.12-.21.32-.14.5l.07.2c.05.14.2.21.34.16l2.68-.96c.51-.18,1.08-.12,1.54.16.95.58,1.42,1.37,1.41,2.38,0,2-2.5,3.48-4.37,3.96-.18.05-.36-.05-.42-.22l-.5-1.39c-.07-.19.03-.39.22-.46l2.07-.74c.3-.11.51-.37.55-.69l.04-.29c0-.21-.16-.38-.36-.39-.06,0-.12,0-.17.03-1.45.64-3.38,1.65-4.55.37-2.39-2.64.63-4.99,3.03-5.88Z"/>
    <path class="cls-1" d="M216.14,53.25l3.52-4.08c.15-.18.13-.45-.05-.6,0,0,0,0,0,0l-.4-.35c-.21-.18-.23-.5-.05-.72l.76-.88c.18-.21.5-.24.71-.06,0,0,0,0,0,0l2.22,1.91c.21.18.23.49.05.7,0,0,0,0,0,0l-4.92,5.71c-.12.14-.33.15-.47.04l-1.32-1.14c-.16-.14-.18-.38-.04-.54Z"/>
    <path class="cls-1" d="M195.21,62.17c9.57.21,12.22,6.48,12.04,15-.18,8.52-3.1,14.68-12.68,14.48-9.57-.21-12.22-6.49-12.04-15.01.18-8.52,3.1-14.68,12.68-14.47ZM190.84,76.79c-.08,3.24-.39,9.39,3.82,9.49s4.22-6.05,4.3-9.29.39-9.39-3.82-9.49c-4.21-.11-4.21,6.05-4.3,9.29Z"/>
    <path class="cls-1" d="M170.01,63.83c-.06-.16.02-.34.18-.4.05-.02.09-.03.14-.02,2.46.27,4.87.13,7.22-.43.22-.06.44.08.5.3.02.09.01.18-.02.27-.58,1.33-.83,2.75-.76,4.28.23,4.51.69,12.02,1.37,22.53.01.2-.13.36-.32.38-.01,0-.03,0-.04,0-2.65-.17-5.11,0-7.38.51-.23.05-.47-.06-.57-.28-.37-.77-.59-2.12-.99-2.88-2.79-5.35-4.86-9.32-6.2-11.91-.07-.13-.19-.2-.37-.21-.31-.01-.45.11-.43.38.15,2.01.35,5.01.59,9.03.14,2.34.57,3.5,1.79,5.41.11.18.06.41-.11.53-.07.05-.16.07-.25.06-2.49-.25-5.01-.08-7.57.51-.18.04-.35-.07-.39-.25-.01-.06-.01-.12,0-.17.76-2.44,1.03-4.95.81-7.53-.17-2.14-.45-6.5-.83-13.08-.12-2.12-.67-4.12-1.64-5.99-.08-.16-.02-.36.14-.45.06-.03.13-.04.2-.03,3.12.41,6.24.17,9.35-.73.24-.07.49.05.58.28,1.68,4.16,3.86,8.53,6.53,13.11.1.16.31.22.48.12.11-.07.18-.19.17-.32l-.61-8.71c-.03-.38-.12-.76-.27-1.13l-1.29-3.16Z"/>
    <path class="cls-1" d="M241.25,94.54c.03.18-.1.35-.28.38-.06,0-.11,0-.17-.02-2.53-.97-5.21-1.34-8.06-1.13-.22.02-.41-.15-.43-.36,0-.1.02-.2.09-.28.77-.96,1.23-2.3,1.39-3.49,1.07-8.22,1.62-12.41,1.64-12.56.03-.26-.16-.49-.42-.52-.2-.02-.39.09-.48.27l-7.06,16.11c-.09.21-.32.32-.54.25-1.66-.54-3.18-.69-4.58-.45-.17.03-.32-.08-.35-.24,0,0,0,0,0-.02l-2.65-17.64c-.03-.26-.27-.44-.53-.41-.22.03-.39.2-.41.42-.72,5.46-1.2,9.25-1.44,11.39-.19,1.77-.01,3.48.55,5.12.07.23-.05.47-.28.55-.09.03-.18.03-.27,0-2.22-.76-4.67-1.06-7.35-.93-.23.01-.44-.16-.45-.4,0-.09.02-.19.07-.26.93-1.36,1.52-2.85,1.77-4.47.93-6.23,1.67-11.87,2.22-16.94.17-1.56-.02-3.13-.57-4.71-.08-.25.05-.52.3-.6.11-.04.23-.03.34.01,3.53,1.47,7.12,1.97,10.77,1.48.18-.02.35.1.38.28l2.13,14.07c.04.29.31.48.6.44.05,0,.1-.02.15-.05.08-.04.16-.17.26-.4,2.96-6.62,4.45-9.95,4.47-9.99.42-.81.61-2.31,1.01-2.94.13-.19.37-.27.59-.18,3.22,1.38,6.63,1.92,10.23,1.62.25-.02.47.17.49.43,0,.08-.01.17-.05.24l-.86,1.66c-.03.07-.06.14-.07.22-.79,5.76-1.6,11.96-2.44,18.62-.25,2-.04,3.16.29,5.44Z"/>
    <path class="cls-1" d="M152.42,82.07c.93,6.06-3.24,11.73-9.3,12.66l-2.23.34c-6.06.93-11.73-3.24-12.66-9.3l-1.09-7.1c-.93-6.06,3.24-11.73,9.3-12.66l2.23-.34c6.06-.93,11.73,3.24,12.66,9.3l1.09,7.1ZM135.76,80.98c.49,3.21,1.27,9.32,5.44,8.68s3.09-6.7,2.6-9.91c-.49-3.21-1.27-9.32-5.44-8.68-4.17.64-3.09,6.7-2.59,9.91Z"/>
    <path class="cls-1" d="M117.96,70.1c.14-.03.27.06.31.2,0,.02,0,.05,0,.07-.17,2.85.45,5.48,1.88,7.91.1.17.03.39-.14.49-.13.07-.28.06-.4-.03-2.38-1.94-6-3.78-8.8-1.82-2.14,1.49-.66,3.9,1.52,4.3,4.14.76,10.1.4,12.38,5.81,1.51,3.57.97,7.74-2.17,10.39-1.9,1.6-3.74,2.53-5.5,2.79-5.09.76-7.81,1.19-8.16,1.3-.22.07-.45-.06-.52-.28-.01-.04-.02-.08-.02-.12-.01-2.78-.57-5.43-1.68-7.96-.08-.18,0-.39.18-.47.12-.05.26-.03.36.05,2.51,2,7.18,3.83,9.76,1.32,1.68-1.64,1.19-4.09-1.35-4.64-5.38-1.16-10.87-1.5-12.76-6.46-2.26-5.92,2.44-10.61,7.89-11.57,4.69-.83,7.09-1.26,7.21-1.29Z"/>
    <path class="cls-1" d="M267.52,73.93c-.11.58-.37,1.13-.4,1.81-.34,8.28-.57,14.96-.71,20.03-.05,1.78.14,3.53.57,5.25.06.23-.09.46-.32.52-.1.02-.2.01-.29-.03-2.55-1.29-5.21-1.98-7.99-2.08-.2,0-.36-.17-.36-.37,0-.08.03-.16.08-.22,1.04-1.29,1.49-2.77,1.36-4.42-.02-.23-.18-.42-.4-.48l-6.27-1.63c-.3-.08-.62.07-.76.35-.72,1.43-1.01,2.95-.86,4.55.02.18-.12.35-.3.36-.06,0-.12,0-.18-.03-2.13-1.02-4.43-1.62-6.9-1.79-.2-.01-.34-.19-.32-.38,0-.07.03-.14.08-.2,1.35-1.68,2.35-2.98,3.4-4.99,4.64-8.92,7.55-14.59,8.72-17.03.29-.59.53-1.34.74-2.25.04-.18.22-.3.41-.26.03,0,.06.02.08.03,3.08,1.61,6.48,2.51,10.18,2.71.26.02.46.24.45.5,0,.02,0,.04,0,.06ZM254.91,86.97c-.13.26-.03.57.23.7.03.02.07.03.1.04l3.94,1.01c.28.07.57-.1.64-.38,0-.04.01-.07.02-.11l.4-9.76c.01-.29-.22-.53-.5-.54-.2,0-.39.1-.49.29l-4.34,8.74Z"/>
    <path class="cls-1" d="M276.56,101.43c0,1.85-1.5,3.34-3.34,3.34h0c-1.85,0-3.34-1.5-3.34-3.34h0c0-1.85,1.5-3.34,3.34-3.34s3.34,1.5,3.34,3.34ZM272.93,98.61c-1.45.15-2.5,1.53-2.34,3.08.16,1.55,1.47,2.69,2.92,2.54,1.45-.15,2.5-1.53,2.34-3.08h0c-.16-1.55-1.47-2.69-2.92-2.54Z"/>
    <path class="cls-1" d="M272.95,102.46c-.14.3-.27.46-.38.49-.25.06-.51-.09-.57-.35,0-.04-.01-.07-.01-.11v-1.73c0-.62.51-1.12,1.14-1.12.24,0,.48.08.67.22.84.61,1.01,1.13.53,1.54-.22.18-.27.49-.13.73l.33.57c.07.13.02.29-.11.37-.06.03-.13.04-.2.02-.22-.06-.46-.28-.72-.66-.1-.15-.29-.19-.44-.09-.05.03-.09.07-.11.13ZM273.63,101.16c.16-.1.2-.32.09-.48-.03-.04-.06-.08-.1-.1-.3-.2-.58-.19-.83.03-.1.09-.11.25-.01.35.02.02.04.03.06.05.37.21.64.26.8.16Z"/>
    <path class="cls-1" d="M185.34,104.17c.1,0,.21,0,.3,0,14.09.76,21.14,1.21,21.14,1.37s-7.05.62-21.14,1.39c-.1,0-.2.01-.3.01s-.21,0-.3,0c-14.09-.76-21.14-1.22-21.14-1.37,0-.16,7.05-.63,21.14-1.39.1,0,.2,0,.3,0Z"/>
    <path class="cls-1" d="M230.74,116.78l.61-5.06c.01-.09.07-.16.15-.19l2.3-.81c.12-.04.26.02.3.14.01.03.02.07.01.11l-1.01,8.43s0,.07.01.11l1.43,4.01c.04.12-.02.25-.14.3l-2.5.89c-.12.04-.25-.02-.3-.14l-1.37-3.85s-.04-.07-.07-.1l-6.6-5.68c-.1-.08-.11-.23-.03-.33.03-.03.06-.05.1-.07l2.65-.95c.08-.03.17,0,.23.05l3.84,3.31c.1.08.25.07.33-.03.03-.04.05-.08.05-.13Z"/>
    <path class="cls-1" d="M137.45,117.81c-1.25,3.28,1.27,5.5,4.52,4.19.13-.06.29,0,.34.14,0,0,0,0,0,.01l.77,2.17c.04.1,0,.2-.1.25-5.13,2.78-10.62-2.36-8.51-7.89,2.11-5.54,9.63-5.73,11.6-.23.04.1,0,.21-.09.25l-2.02,1.1c-.13.07-.29.02-.35-.11,0,0,0,0,0-.01-1.55-3.14-4.91-3.16-6.17.12Z"/>
    <path class="cls-1" d="M148.84,115.84c.07-.26.33-.42.59-.37,2.58.55,6.95,1.12,7.89,3.51,1.09,2.77.29,4.91-2.41,6.41-.23.13-.32.41-.23.65l1.25,3.17c.07.18-.02.37-.2.44-.06.02-.13.03-.19.01l-2.26-.55c-.24-.06-.44-.23-.52-.46l-1.18-2.98c-.2-.53-.79-.8-1.32-.6-.32.12-.56.4-.64.73l-.45,1.92c-.05.21-.27.35-.48.3l-2.22-.54c-.22-.05-.36-.28-.31-.5,0,0,0,0,0,0l2.68-11.16ZM151.28,118.9l-.74,3.24c-.03.11.04.22.15.25,0,0,0,0,0,0l1.65.38c1.02.24,2-.24,2.19-1.07l.15-.65c.19-.83-.49-1.69-1.51-1.92l-1.65-.38c-.11-.03-.22.04-.25.15,0,0,0,0,0,0Z"/>
    <path class="cls-1" d="M213.46,117.21c2.55-.72,6.69-2.25,8.64-.57,2.26,1.95,2.54,4.22.85,6.81-.14.22-.1.51.1.69l2.58,2.23c.14.12.16.34.04.48-.05.05-.11.09-.17.11l-2.25.57c-.24.06-.49,0-.68-.16l-2.44-2.1c-.43-.37-1.08-.33-1.45.11-.22.25-.3.6-.22.93l.49,1.91c.05.21-.08.43-.29.49l-2.22.56c-.22.06-.45-.08-.51-.3,0,0,0,0,0,0l-2.82-11.14c-.06-.26.09-.53.35-.6ZM216.76,119.62l.72,2.77c.06.23.29.37.52.31l1.44-.38c1.01-.26,1.63-1.25,1.38-2.19l-.04-.16c-.25-.95-1.26-1.51-2.27-1.25l-1.44.38c-.23.06-.36.3-.3.52Z"/>
    <path class="cls-1" d="M210.48,124.02c.07.43.11.71.13.83.04.25-.13.48-.38.52l-4.11.62c-.22.04-.37.24-.33.45l.21,1.41c.04.23.25.39.49.36l4.96-.75c.19-.03.37.1.4.3l.29,1.93c.03.2-.11.39-.32.42l-7.82,1.18c-.29.05-.57-.15-.62-.45-.08-.48-.37-2.34-.88-5.56-.5-3.23-.79-5.08-.86-5.56-.04-.29.16-.57.45-.62l7.81-1.27c.2-.03.4.1.43.3l.32,1.93c.03.2-.11.37-.3.4l-4.95.8c-.23.04-.39.26-.35.5l.23,1.41c.04.21.24.35.45.32l4.09-.67c.25-.04.49.13.53.38.02.12.06.39.13.83Z"/>
    <path class="cls-1" d="M160.44,124.28c.41-3.24.65-5.11.72-5.59.04-.3.31-.5.61-.47l7.86.94c.21.03.35.21.33.42l-.23,1.94c-.03.19-.2.33-.4.31l-4.98-.6c-.23-.02-.44.14-.47.38l-.18,1.42c-.02.21.13.4.35.43l4.13.5c.25.03.43.26.4.51-.02.12-.05.4-.11.84-.06.43-.09.71-.11.84-.04.25-.27.42-.52.39l-4.12-.55c-.22-.02-.41.13-.44.34l-.19,1.41c-.03.23.13.45.37.48l4.98.66c.19.03.33.2.3.4l-.25,1.94c-.03.2-.22.34-.42.32l-7.85-1.04c-.3-.04-.51-.31-.47-.6.06-.49.29-2.35.7-5.59Z"/>
    <path class="cls-1" d="M192.59,131.09c-.39.02-.65-.08-.8-.3-.8-1.22-1.69-2.68-2.68-4.4-.05-.09-.17-.11-.25-.06-.05.03-.09.09-.09.16l.23,5.44c.01.27-.19.49-.46.5,0,0,0,0,0,0l-1.9.08c-.27.01-.5-.2-.52-.47,0,0,0,0,0,0l-.5-11.55c-.01-.22.16-.41.38-.42,0,0,0,0,0,0l1.76-.08c.25,0,.49.12.62.34l3.8,6.36s.06.06.12.06h.06s.05,0,.07,0c.05-.01.1-.04.11-.07l3.19-6.7c.11-.23.34-.38.59-.4l1.76-.08c.22,0,.41.16.42.38l.59,11.55c.01.27-.2.5-.47.52l-1.9.11c-.27.01-.49-.19-.5-.46,0,0,0,0,0,0l-.28-5.44c-.01-.1-.1-.17-.2-.16-.06,0-.12.04-.14.1-.82,1.8-1.57,3.34-2.26,4.62-.12.24-.38.36-.76.38Z"/>
    <path class="cls-1" d="M177.69,119.6c6.41.33,4.97,7.24,4.7,12.45-.01.28-.25.49-.52.48-.01,0-.03,0-.04,0l-2.27-.27c-.2-.02-.34-.2-.33-.4l.12-1.78c.02-.27-.18-.5-.45-.53-.06,0-.63-.04-1.72-.09-1.09-.06-1.66-.08-1.72-.08-.27,0-.48.21-.5.48l-.06,1.79c0,.2-.17.36-.37.36l-2.29.04c-.27,0-.5-.22-.5-.49,0-.01,0-.02,0-.04.26-5.21-.47-12.23,5.94-11.91ZM175.41,126.69l3.76.16c.16,0,.3-.12.3-.28,0,0,0,0,0,0l.07-1.62c.06-1.34-.81-2.47-1.94-2.52,0,0,0,0,0,0h-.25c-1.13-.05-2.09,1-2.15,2.34l-.07,1.61c0,.16.12.3.28.3,0,0,0,0,0,0Z"/>
  </g>
</svg>