<?xml version="1.0" encoding="UTF-8"?>
<svg id="Layer_1" data-name="Layer 1" xmlns="http://www.w3.org/2000/svg" viewBox="0 0 352.3 165.34">
  <defs>
    <style>
      .cls-1 {
        fill: #030506;
      }

      .cls-2 {
        fill: #019f51;
      }

      .cls-3 {
        fill: #f9f9f9;
      }
    </style>
  </defs>
  <g>
    <path class="cls-2" d="M180.56,117.21s-.01-.04-.03-.04c0,0-.02,0-.03,0-1.84,1.78-3.82,3.36-5.94,4.73-1.24.81-2.53,1.42-3.87,1.85-2,.64-4.34.62-6.24-.25-2.36-1.08-3.74-3.44-4.09-5.98,0-.03-.03-.05-.06-.05-.01,0-.03,0-.04.02-.67.85-1.34,1.68-2.01,2.48-1.03,1.22-2.26,2.22-3.68,2.99-1.13.61-2.17.94-3.14.98-4.09.16-6.32-3.76-6.46-7.33-.23-6.01.76-12.07,2.59-17.85.3-.93.93-2.74,1.91-5.44.08-.22.14-.41.19-.58.02-.07-.02-.15-.1-.17,0,0,0,0-.01,0-.67-.14-1.39-.21-2.16-.21-1.78,0-4.58,0-8.41,0-.68,0-1.34-.04-2-.11-1.15-.12-1.88-1.13-1.77-2.29.15-1.54,2.01-1.79,3.21-1.81,1.36-.02,2.6-.02,3.7,0,1.94.04,5.29-.06,8.35,0,.89.02,1.42-.08,1.88-.79.28-.43.5-.79.66-1.07.59-1.04,1.55-2.32,2.87-3.84,1.07-1.24,2.44-2.51,3.95-3.16.59-.25,1.21-.15,1.72.27.82.66,1.23,1.49,1.24,2.49,0,.48-.21.84-.64,1.09-2.12,1.19-3.98,2.73-5.14,4.82-.03.06-.01.13.05.16,0,0,.01,0,.02,0,.13.04.22.07.28.07,5.75.03,8.79.06,9.12.07,1.42.05,3.35.29,3.31,2.18-.03,1.45-1.38,1.86-2.64,1.96-1.36.11-2.8,0-4.02,0-2.89,0-5.52,0-7.88.04-.07,0-.14.04-.18.1-1.4,2.44-2.47,5.06-3.22,7.85-.54,1.99-.93,3.71-1.19,5.16-.58,3.21-.94,5.56-1.08,7.06-.14,1.45-.09,2.86.16,4.21.17.95.85,3.23,2.27,2.77.43-.14.92-.37,1.47-.69,3.08-1.78,4.93-4.55,6.61-7.6.44-.8.82-1.59,1.14-2.36.5-1.22.83-2,1-2.33.91-1.83,2.04-3.52,3.4-5.08,1.1-1.27,2.13-2.26,3.52-2.87,2.83-1.26,7.06-.8,7.38,3.08.15,1.77-.73,3.68-1.94,4.99-2.42,2.61-5.5,4.52-9.09,4.91-.43.05-.67.25-.72.61-.07.45-.16,1-.28,1.63-.25,1.41-.23,3.1.51,4.43,1.09,1.96,3,2.06,4.94,1.29,1.19-.47,2.35-1.12,3.48-1.94,1.64-1.19,3.25-2.58,4.81-4.17,1.09-1.11,2.23-2.43,3.45-3.57.21-.2.57-.41.66-.64,1.45-3.62,3.76-7.04,7.27-8.93,1.61-.86,3.34-1.19,5.02-.57.35.13.68.27,1,.41.07.03.16.02.21-.04.07-.08.13-.21.18-.37,1.32-4.25,3.12-8.23,5.41-11.92,1.27-2.04,4.32-6.54,7.22-5.75,2.99.81,2.26,4.64,1.66,6.75-.49,1.73-1.19,3.69-2.08,5.89-2.05,5.03-4.78,9.92-7.83,14.44-.76,1.13-1.62,2.38-2.58,3.74-.2.29-.31.68-.33,1.18-.06,1.4.04,2.86.3,4.38.1.56.5,2.33,1.32,2.12.61-.16,1.35-.74,1.81-1.17,1.88-1.76,3.39-3.41,4.51-4.95.81-1.11,1.72-2.41,2.72-3.9.75-1.12,1.94-2.16,3.31-1.26.42.28.68.71.79,1.3.14.82-.18,1.51-.68,2.28-2.48,3.83-5.23,7.48-8.72,10.31-.97.78-2.08,1.49-3.3,1.64-1.49.18-2.79-.26-3.89-1.34-.68-.66-1.17-1.46-1.48-2.39-.27-.83-.52-1.69-.75-2.57,0-.04-.05-.06-.08-.05-.01,0-.02,0-.03.02-1.6,1.61-3.21,3.24-5.06,4.48-1.05.7-2.45,1.13-3.74.95-3.07-.42-4.2-4.1-3.96-6.72ZM202.19,95.28c-1.03,2.25-1.86,4.69-2.61,7.13,0,.02,0,.03.01.04s.03,0,.04-.01c1.47-2.12,2.73-4.33,3.78-6.63,1.03-2.25,1.86-4.69,2.61-7.13,0-.02,0-.03-.01-.04-.02,0-.03,0-.04.01-1.47,2.12-2.73,4.33-3.78,6.63ZM167.07,106.93c1.83-.66,3.34-1.73,4.53-3.21.25-.31.66-.93.59-1.25-.03-.13-.18-.22-.34-.21-.72.08-1.36.36-1.92.84-1.26,1.07-2.09,2.32-2.9,3.77-.01.02,0,.05.02.06.01,0,.03,0,.04,0ZM184.81,118.68c.31,2.18,2.55-.08,3.13-.68,1.46-1.5,2.58-2.67,3.38-3.51,1.42-1.5,2.26-3.27,2.54-5.29.19-1.38.23-2.69-.06-4.03-.11-.51-.46-1.59-1.12-1.54-.35.03-.78.18-1.08.36-2.23,1.33-3.86,3.53-5.03,5.8-1.15,2.22-1.76,4.61-1.83,7.17-.02.65,0,1.22.08,1.73Z"/>
    <path class="cls-2" d="M154.53,135.72c-.15-.24-.23-.56-.23-.97,0-1.32,1.17-2.36,2.19-3.05,2.95-2.03,6.36-3.36,9.81-4.17,4.77-1.12,9.65-1.49,14.65-1.1,3.76.29,7.45,1.05,10.87,2.49.98.41,2.02,1.08,2.37,2.13.5,1.52-.67,3.12-2.31,2.8-.2-.04-.5-.2-.89-.49-1.2-.9-2.71-1.53-4.52-1.91-3.65-.76-7.46-1.12-11.22-.92-4.22.23-8.34,1.07-12.37,2.55-1.5.55-3.17,1.17-4.34,2.31-.49.48-.77.74-.82.78-1.04.79-2.46.68-3.19-.45Z"/>
  </g>
  <path class="cls-3" d="M215.2,23.59c-.3,2.65-.62,5.3-.95,7.96-.05.4-.1.8-.34,1.07-.06.06-.13.1-.22.1-.78,0-1.65-.04-2.62-.1-.65-.04-2.63-.11-5.93-.2-.9-.03-1.63,0-2.17.08-.44.06-.78.24-.83.68-.1,1.02-.17,2-.21,2.94-.01.27-.09,1.03.19,1.24.03.02.06.04.1.05.19.04.34.09.54.09.3,0,1.56,0,3.78.03.48,0,.89.11,1.41.12.59,0,1.26.07,1.99.19.53.09.66.43.59.96-.04.32-.3,2.73-.78,7.23-.03.26-.12.55-.14.76-.02.24-.08.41-.19.53-.19.21-.38.32-.57.33-2.03.04-4.27.07-6.51.16-.43.02-.73.07-.88.17-.29.18-.44.43-.45.74-.01.64-.08,1.35-.19,2.13-.08.55-.08.92-.15,1.44-.08.53.02,1.01.58,1.08.22.03.69.03,1.42-.01.49-.03.96-.04,1.42-.05,1.15-.02,2.52-.07,4.09-.15.38-.02.73.05,1.13.02.47-.03.95-.02,1.43.03.42.04.94.24.89.7-.16,1.5-.48,4.24-.96,8.22-.03.25-.12.48-.26.67-.27.36-1.17.28-1.61.31-6.83.47-13.64,1.18-20.42,2.13-.08.01-.16-.04-.19-.11-.08-.21-.15-.5-.12-.81.1-1.09.17-2.49.21-4.21.03-1.1.08-2.5.16-4.22.19-3.89.32-7.39.39-10.51.02-.96.05-1.64.07-2.05.12-1.84.11-3.48.18-5.15.16-3.88.24-6.17.26-6.87.05-2.45.11-4.31.18-5.57.1-1.04.19-2.09.27-3.18.03-.41.5-.74.87-.88.04-.01.08-.02.12-.02.15,0,.31.02.46.02,9.14.51,16.77.94,22.89,1.28.45.03.74.34,1.07.62Z"/>
  <path class="cls-3" d="M185.84,22.22c.09.33.12.64.1.95-.03.37-.04.56-.04.56-.02,2.17-.15,4.57-.17,6.92,0,.54-.09,1.07-.24,1.57-.01.04-.04.08-.07.12-.14.14-.35.22-.63.23-1.62.05-3.46.13-5.53.24-.73.04-1.49.09-2.26.16-.93.08-1.68.14-2.25.18-.4.03-.72.24-.94.62-.02.04-.04.09-.05.14-.08.61,0,1.26,0,1.8,0,1.06,0,1.71,0,1.95,0,.38.03.62.12.74.17.22.39.33.65.32.48-.02,1.11-.07,1.91-.15.82-.08,1.43-.03,2.26-.1.22-.02,1-.04,2.34-.07.42,0,.72.01.87.07.81.27.69,1,.69,1.91,0,1.29,0,2.08-.01,2.36-.07,1.56-.13,2.99-.16,4.29-.01.47-.08.96-.09,1.47,0,.04-.01.09-.03.13-.1.23-.16.35-.2.38-.22.16-.51.26-.85.3-2.56.26-4.7.51-6.43.74-.81.11-.93.72-.88,1.45,0,.08,0,.15,0,.23-.11,1.2-.05,2.71-.03,4.63.02,1.85.01,4.45-.02,7.81-.01,1.01-.11,2.02-.13,2.86,0,.2-.06.34-.15.42-.23.2-.54.34-.91.41-3.34.65-6.6,1.33-9.79,2.04-.12.03-.25.04-.4.05-.04,0-.08-.02-.09-.06-.09-.27-.14-.42-.14-.44,0-.22-.03-1.13-.1-2.75-.3-7.37-.61-14.89-.93-22.55-.03-.63-.1-1.72-.21-3.29-.08-1.11-.14-2.21-.17-3.29-.17-3.96-.34-7.89-.51-11.79-.05-1.07-.02-1.91.09-2.54.01-.07.05-.14.1-.19l.6-.6s.12-.07.19-.05c.28.07.55.07.83,0,.05-.01.1-.02.15-.02,4.95-.13,11.41-.31,19.37-.55,1.33-.04,2.39-.08,3.52,0,.07,0,.14.03.19.08l.42.34Z"/>
  <path class="cls-3" d="M149.05,25.99c1.71,1.39,3.17,3,4.37,4.81.66.99,1.1,2.06,1.51,3.14.31.82.38,1.67.53,2.61.04.24.06.6.06,1.07,0,.65.01,1.32.05,2.01.02.4-.02.99-.14,1.76-.08.54-.21,1.11-.41,1.72-.95,3.02-2.51,5.6-4.43,8.11-.19.25-.28.54-.25.87.01.19.11.48.3.86,2.17,4.53,4.15,8.66,5.97,12.39.97,1.98,1.82,3.39,2.42,5.25.03.09-.02.18-.1.21,0,0,0,0-.01,0-1.07.26-1.88.46-2.44.59-2.02.49-4.56,1.24-6.05,1.61-1.09.27-2.09.49-3,.68-.08.02-.16-.02-.19-.09-1.22-2.52-2.09-4.62-3.29-7.12-1.17-2.46-2.23-5-3.49-7.56-.07-.13-.06-.31-.21-.4-.07-.04-.14-.04-.23,0-.2.09-.3.27-.32.53-.03.41-.02.83.03,1.25.1.84.09,1.38.21,2.08.4,2.32.65,4.16.76,5.52.03.32.05.85.07,1.57.02.5.06,1.02.13,1.56.12.94.24,1.88.35,2.82.05.39.05.76.02,1.11,0,.11-.08.2-.19.24-.65.23-1.3.54-2,.75-1.67.49-3.43,1.04-5.29,1.63-.85.27-1.66.45-2.46.55-.43.05-.71-.14-.85-.58-.32-1.03-.37-2.01-.49-2.96-.39-3.02-1.06-8.1-2.01-15.24-.23-1.69-.53-3.55-.75-5.25-.49-3.66-1.04-7.92-1.67-12.78-.34-2.61-.87-5.99-1.24-9-.16-1.56-.32-3.12-.47-4.68-.05-.5.06-.85.32-1.05.16-.12.45-.22.87-.3.55-.1.85-.16.92-.17,4.74-.79,8.03-1.32,9.88-1.58,2.97-.41,5.35-.65,7.16-.7.61-.02,1.38.1,2.32.36,1.24.34,2.49.94,3.77,1.81ZM138.35,35.05c-.98.17-1.17.88-1.09,1.77.09,1.1.2,2.09.32,2.98.22,1.59.37,3.38.52,4.69.07.63.75.57,1.2.57.49,0,1-.06,1.54-.2,2.87-.72,3.05-3.67,3.27-6.08.02-.24,0-.48-.05-.71-.3-1.19-.76-2.05-1.78-2.78-.53-.38-1.11-.55-1.73-.51-.69.04-1.42.13-2.19.27Z"/>
  <path class="cls-3" d="M242.83,26.76l-1.54,7.36c-.02.11-.1.2-.2.24-.22.1-.46.13-.71.1-.15-.02-1.09-.15-2.82-.4-3.73-.54-6.31,2.15-7.28,5.46-.66,2.26-1.14,4.48-1.44,6.68-.21,1.51-.31,2.31-.33,2.4-.05.45-.06.86-.01,1.25.08.7.17,1.31.3,1.83.17.72.75,1.33,1.38,1.79.29.21.65.36,1.08.43.73.13,1.17.19,1.31.19.57,0,1,.02,1.28.07.11.02.35.05.7.07.81.06,1.52.1,2.11.11.57.01.45.55.36.93-.74,3.48-1.19,5.57-1.34,6.27-.03.14-.1.27-.21.36-.6.56-1.26.94-1.99,1.15-.36.1-1.13.19-2.32.25-1.85.1-3.7,0-5.56-.31-1.63-.27-3.11-.96-4.69-1.82-.86-.47-1.47-1.2-2.1-1.98-.86-1.07-1.21-2.19-1.83-3.71-.17-.41-.29-.82-.37-1.23-.35-1.81-.71-3.85-.71-5.6,0-.41.04-.95.11-1.61.05-.46.08-.8.07-1.02,0-.31-.02-.94.03-1.37.23-1.84.49-3.7.79-5.34.4-2.24,1.08-4.45,2.05-6.65.54-1.23,1.25-2.35,2.14-3.34.7-.6,1.43-1.21,2.19-1.83.76-.63,1.66-1.27,2.6-1.6.64-.23,1.28-.45,1.9-.68.41-.15.83-.25,1.29-.3.75-.09,1.37-.17,1.86-.24.54-.08,1.08-.04,1.61-.06.2,0,.41,0,.64.03.6.06,1.44.15,2.54.26.8.08,1.61.23,2.43.44,1.71.43,3.02.77,3.93,1.02.2.06.45.18.74.39Z"/>
  <path class="cls-3" d="M276.05,34.97c-.09.37-.16.73-.29,1.08-1.26,3.41-1.91,5.16-1.95,5.26-.18.44-.51.62-.98.54-.35-.06-.63-.11-.85-.17-3.08-.75-4.8-1.17-5.18-1.27-.21-.05-.48-.09-.81-.1-.35-.01-.57.14-.68.45-.11.3-.21.63-.31.99-.53,1.93-1.17,3.91-1.9,5.94-.59,1.64-1.45,4.29-2.15,6.62-.71,2.36-1.53,4.95-2.44,7.78-.08.24-.23.65-.45,1.21-.2.51-.69.95-1.29.9-1.71-.13-3.09-.26-4.14-.38-.82-.1-1.37-.18-1.64-.24-.1-.02-.2-.03-.3-.03-.5.01-.8.01-.9,0-1.37-.16-2.31-.28-2.83-.35-.95-.13-.51-1.58-.33-2.18.24-.77.41-1.6.58-2.24.41-1.57.74-2.8.98-3.68,1.77-6.42,2.88-10.68,3.33-12.77.13-.61.43-1.15.51-1.78.02-.19.09-.43.21-.71.2-.48.37-1.11.51-1.9.11-.6-.91-.83-1.39-.92-2.37-.42-4.18-.75-5.43-1.01-.38-.08-.94-.36-.9-.82.01-.11.04-.25.08-.41.36-1.5.72-3.02,1.09-4.58l.67-2.41s.02-.04.03-.06c.14-.2.35-.3.61-.31.03,0,.06,0,.08,0,14.76,3.73,24.05,6.09,27.87,7.09.17.05.37.19.59.44Z"/>
  <path class="cls-3" d="M119.97,28.13c.52,3.64,1.02,7.28,1.51,10.92,0,.05.02.26.03.64.02.42-.18.67-.58.75-2.49.5-5.35,1.11-8.59,1.84-.43.1-.88.22-1.35.38-.67.22-1.22.51-1.09,1.34.29,1.95.58,3.54.87,4.78.12.52.45.72.97.59,1.65-.4,2.81-.68,3.48-.85.28-.07.71-.14,1.28-.2.48-.05.95-.13,1.41-.24.71-.16,1.79-.37,1.94.6.18,1.15.66,4.44,1.46,9.88.07.51.11.98.12,1.43,0,.61-.32.83-.9.98-2.02.55-4.1,1.14-6.23,1.77-.67.2-.99.63-.91,1.29.03.21.04.43.08.65.34,1.59.46,3.4.8,4.78.07.28.24.45.51.52.25.06.84-.06,1.09-.14.67-.23,1.27-.41,1.79-.54.69-.17,1.29-.34,1.8-.51,1.65-.53,3.27-.98,4.87-1.33,1.17-.26,1.23.58,1.36,1.55.83,5.87,1.28,9.11,1.37,9.73.07.51.06,1.21-.48,1.4-6.94,2.36-13.83,4.91-20.65,7.67l-.96-1-7.49-37.73-3.04-15.99s-.01-.08,0-.13c.03-.48.25-.88.65-1.19.05-.04.1-.06.16-.06.33,0,.64-.12,1.02-.19,7.87-1.42,15.24-2.73,22.08-3.94.26-.05.48-.07.67-.08.06,0,.12.02.18.05l.79.57Z"/>
  <path class="cls-3" d="M89.47,41.22c1.31,1.56,2.36,3.22,3.17,4.98.38.82.69,1.74.94,2.75.21.84.32,1.29.33,1.34.24.94.24,1.76.44,2.7.13.61.17,1.31.13,2.09-.01.26-.03.7-.04,1.33-.02.69-.1,1.47-.24,2.33-.34,1.99-.87,3.92-1.59,5.79-.26.66-.65,1.46-1.01,2.25-.89,1.96-2.31,3.46-3.99,4.81-.44.35-.84.63-1.21.82-1.24.66-2.52,1.14-4.26,1.81-.52.2-.85.44-.86.98,0,.34.05.77.18,1.28.55,2.17.9,3.64,1.07,4.41.13.59.31,1.25.57,1.99.3.88.63,2.02.99,3.42.33,1.28.56,2.86.89,4.19.77,3.09,1.21,4.87,1.32,5.35.04.17,0,.3-.13.39-.5.35-.86.63-1.5.94-3,1.45-5.31,2.52-6.92,3.2-.31.13-.77.25-1.37.36l-.6-.68s-.03-.04-.04-.06c-.19-.5-.38-1.03-.53-1.55-6.04-22.47-10.78-40.06-14.21-52.77-.24-.89-.56-1.7-.69-2.57-.1-.65-.2-1.24-.29-1.76,0-.03,0-.07,0-.1.06-.65.83-1.12,1.4-1.27,6.2-1.62,10.88-2.84,14.02-3.64,1.38-.35,2.49-.63,3.33-.82.23-.05.53-.05.91,0,2,.3,3.73.73,5.35,1.71.41.25.83.64,1.28.99.1.08.26.22.49.43.91.86,1.79,1.71,2.66,2.57ZM76.47,49.31c-.43.13-1.07.23-1.16.77-.09.54-.06,1.1.07,1.68.4,1.69,1.06,4.43,1.98,8.23.19.77.28,1.33,1.15,1.25.55-.05,1.09-.17,1.62-.37,2.38-.89,2.83-3.52,2.61-5.72-.09-.89-.06-1.7-.21-2.56-.01-.07-.03-.13-.06-.19-.31-.73-.56-1.24-.74-1.52-.42-.65-.99-1.22-1.72-1.7-1.09-.73-2.27-.26-3.55.14Z"/>
  <g>
    <path class="cls-1" d="M189.51,25.74c-.07,1.26-.13,3.11-.18,5.57-.01.7-.1,2.98-.26,6.87-.07,1.67-.06,3.31-.18,5.15-.03.41-.05,1.09-.07,2.05-.07,3.11-.2,6.62-.39,10.51-.08,1.72-.14,3.12-.16,4.22-.04,1.72-.11,3.12-.21,4.21-.03.31.04.6.12.81.03.08.11.12.19.11,6.78-.95,13.59-1.66,20.42-2.13.44-.03,1.34.05,1.61-.31.14-.19.23-.42.26-.67.48-3.98.8-6.72.96-8.22.05-.46-.46-.66-.89-.7-.48-.05-.95-.06-1.43-.03-.4.03-.75-.04-1.13-.02-1.57.08-2.93.13-4.09.15-.46,0-.93.02-1.42.05-.73.04-1.2.04-1.42.01-.56-.08-.66-.55-.58-1.08.07-.52.08-.89.15-1.44.11-.78.17-1.49.19-2.13,0-.31.16-.56.45-.74.15-.1.45-.15.88-.17,2.24-.09,4.48-.12,6.51-.16.19,0,.38-.11.57-.33.1-.12.17-.29.19-.53.02-.21.11-.5.14-.76.48-4.51.74-6.92.78-7.23.07-.53-.05-.88-.59-.96-.73-.12-1.4-.18-1.99-.19-.52,0-.94-.11-1.41-.12-2.22-.02-3.48-.03-3.78-.03-.21,0-.35-.05-.54-.09-.04,0-.07-.02-.1-.05-.27-.22-.2-.97-.19-1.24.04-.94.11-1.92.21-2.94.04-.43.39-.61.83-.68.54-.08,1.27-.1,2.17-.08,3.3.09,5.28.16,5.93.2.97.06,1.85.09,2.62.1.08,0,.16-.04.22-.1.24-.27.29-.67.34-1.07.33-2.66.64-5.31.95-7.96,2.03,1.83,4,3.75,5.91,5.75-.88,1-1.59,2.11-2.14,3.34-.96,2.19-1.65,4.41-2.05,6.65-.29,1.64-.56,3.5-.79,5.34-.05.43-.04,1.05-.03,1.37,0,.23-.02.57-.07,1.02-.08.66-.11,1.19-.11,1.61,0,1.74.36,3.79.71,5.6.08.41.2.82.37,1.23.62,1.52.97,2.64,1.83,3.71.63.78,1.24,1.51,2.1,1.98,1.58.86,3.06,1.55,4.69,1.82,1.86.31,3.71.41,5.56.31,1.18-.06,1.96-.14,2.32-.25.73-.21,1.39-.59,1.99-1.15.1-.1.18-.22.21-.36.15-.7.6-2.8,1.34-6.27.08-.38.21-.91-.36-.93-.6-.01-1.3-.05-2.11-.11-.35-.03-.59-.05-.7-.07-.29-.06-.72-.08-1.28-.07-.14,0-.58-.06-1.31-.19-.43-.08-.79-.22-1.08-.43-.63-.46-1.21-1.06-1.38-1.79-.12-.52-.22-1.13-.3-1.83-.04-.39-.04-.8.01-1.25.01-.1.12-.9.33-2.4.3-2.2.78-4.42,1.44-6.68.97-3.31,3.54-6,7.28-5.46,1.73.25,2.68.38,2.82.4.26.03.5,0,.71-.1.1-.04.17-.14.2-.24l1.54-7.36c1.14,1.05,2.25,2.2,3.35,3.46-.37,1.55-.73,3.08-1.09,4.58-.04.16-.06.3-.08.41-.05.46.52.74.9.82,1.25.25,3.06.59,5.43,1.01.48.08,1.51.31,1.39.92-.15.79-.32,1.43-.51,1.9-.12.28-.19.52-.21.71-.08.63-.38,1.17-.51,1.78-.45,2.09-1.56,6.34-3.33,12.77-.24.88-.57,2.11-.98,3.68-.17.64-.34,1.47-.58,2.24-.19.6-.63,2.05.33,2.18.52.07,1.46.18,2.83.35.1.01.4.01.9,0,.1,0,.2,0,.3.03.27.06.81.14,1.64.24,1.05.13,2.43.25,4.14.38.6.04,1.09-.39,1.29-.9.22-.56.37-.96.45-1.21.92-2.83,1.73-5.43,2.44-7.78.7-2.32,1.56-4.97,2.15-6.62.73-2.03,1.36-4.01,1.9-5.94.1-.36.2-.69.31-.99.11-.31.34-.46.68-.45.33.01.6.05.81.1.37.1,2.1.52,5.18,1.27.22.05.5.11.85.17.47.08.8-.1.98-.54.04-.1.69-1.85,1.95-5.26.13-.35.2-.71.29-1.08,1.22,1.16,2.42,2.32,3.61,3.5,3.27,3.24,6.1,6.07,8.5,8.5,1.52,1.54,2.76,2.81,3.71,3.83.05.05.17.19.37.42.04.04.05.1.03.15l-2.43,6.36c-.06.15-.18.25-.34.28-.27.05-.51.05-.73,0-3.83-.93-5.9-1.43-6.2-1.5-.3-.07-.86-.04-.98.33-.62,1.91-3.03,9.4-7.22,22.45-.19.58-.55.95-1.09,1.12-.03,0-.05.01-.08,0l-10.06-1.01c-.14-.01-.27-.07-.37-.16-3.13-2.89-6.11-5.56-8.93-8.01-.05-.04-.19-.15-.43-.34,0,0-.02,0-.03,0,0,0,0,0,0,0l-1.54,6.96c-.03.14-.11.26-.21.35-.7.56-1.45,1.03-2.36,1.14-.35.04-1.03.09-2.04.16-.66.04-1.34.05-2.04.02-1.2-.05-2.29-.15-3.27-.31-.5-.08-1.1-.26-1.79-.54-1.1-.43-2.17-.9-3.21-1.4-.08-.04-.15-.08-.21-.14-2.11-1.75-4.01-3.3-5.7-4.67-1.05-.85-2.05-1.63-3.01-2.33-.04-.03-.09-.02-.12.02,0,.01-.01.03-.02.04-.13,1.12-.44,3.78-.94,7.98-.05.42-.25,1.01-.7,1.04-3.39.22-7.02.52-10.87.9-.03,0-.05.03-.05.06,0,0,0,.01,0,.02.81,1.64,1.2,3.4,1.17,5.29-.03,2.26-.52,4.42-1.23,6.6-1.1,3.37-2.44,6.67-4.02,9.9-.01.03,0,.06.03.08,0,0,0,0,0,0,6.18,1.75,8.43,8.75,5.11,14.07-1.58,2.53-3.34,4.96-5.28,7.3-1.81,2.17-3.79,4.08-5.95,5.72-1.55,1.18-3.26,1.99-5.14,2.45-.03,0-.06.04-.06.07-.03,2.26-.75,4.23-2.14,5.9-3.2,3.85-8.73,4.42-12.65,1.29-.05-.04-.1-.07-.15-.1-.41-.21-1.11-.41-2.09-.6-2.95-.56-5.98-.83-8.98-.65-4,.24-7.88,1.15-11.65,2.72-.17.07-.32.17-.44.3-1.22,1.23-2.51,2.16-4.22,2.68-2.3.7-4.51.58-6.64-.37-2.75-1.22-4.69-3.76-5.17-6.71-.31-1.87,0-3.77.81-5.53.01-.03,0-.06-.03-.08,0,0,0,0,0,0-6.44-1.79-10.06-7.78-10.21-14.24-.08-3.3.11-6.51.58-9.64.37-2.45.87-4.88,1.5-7.29,0-.03,0-.06-.04-.06,0,0,0,0-.01,0-1.27.03-2.51,0-3.71-.13-.04,0-.07,0-.11.01-3.33,1.21-6.72,2.49-10.14,3.85-1.3.51-2.22.88-2.79,1.1-.04.01-.08,0-.1-.02l-15.64-16.34c6.82-2.76,13.7-5.31,20.65-7.67.55-.19.55-.89.48-1.4-.08-.62-.54-3.86-1.37-9.73-.14-.97-.19-1.81-1.36-1.55-1.6.35-3.23.8-4.87,1.33-.51.17-1.11.34-1.8.51-.52.13-1.12.31-1.79.54-.25.08-.84.2-1.09.14-.27-.07-.44-.24-.51-.52-.34-1.38-.46-3.19-.8-4.78-.05-.22-.05-.44-.08-.65-.08-.66.24-1.09.91-1.29,2.13-.63,4.21-1.22,6.23-1.77.58-.16.9-.38.9-.98,0-.45-.04-.92-.12-1.43-.79-5.44-1.28-8.74-1.46-9.88-.15-.97-1.23-.76-1.94-.6-.46.1-.93.18-1.41.24-.57.06-1,.13-1.28.2-.67.17-1.83.46-3.48.85-.52.13-.85-.07-.97-.59-.29-1.24-.58-2.83-.87-4.78-.12-.83.43-1.12,1.09-1.34.47-.16.92-.28,1.35-.38,3.24-.73,6.1-1.34,8.59-1.84.41-.08.6-.33.58-.75-.01-.37-.02-.58-.03-.64-.49-3.63-.99-7.27-1.51-10.92,1.21,1.04,2.38,2.13,3.5,3.27.28.29.56.58.82.89.37,3.01.9,6.39,1.24,9,.63,4.86,1.19,9.11,1.67,12.78.23,1.69.53,3.56.75,5.25.95,7.14,1.62,12.21,2.01,15.24.12.95.17,1.93.49,2.96.14.44.43.64.85.58.8-.1,1.61-.28,2.46-.55,1.86-.59,3.62-1.13,5.29-1.63.7-.21,1.36-.52,2-.75.1-.04.18-.13.19-.24.03-.34.02-.71-.02-1.11-.11-.94-.23-1.88-.35-2.82-.07-.54-.11-1.06-.13-1.56-.02-.72-.05-1.24-.07-1.57-.11-1.35-.36-3.19-.76-5.52-.12-.7-.11-1.24-.21-2.08-.05-.42-.06-.84-.03-1.25.02-.26.13-.44.32-.53.08-.04.16-.04.23,0,.16.09.15.26.21.4,1.27,2.56,2.32,5.11,3.49,7.56,1.19,2.49,2.06,4.59,3.29,7.12.03.07.11.11.19.09.91-.18,1.91-.41,3-.68,1.49-.37,4.03-1.12,6.05-1.61.56-.14,1.37-.33,2.44-.59.09-.02.14-.11.12-.2,0,0,0,0,0-.01-.6-1.85-1.45-3.27-2.42-5.25-1.81-3.73-3.8-7.86-5.97-12.39-.18-.39-.28-.67-.3-.86-.03-.32.06-.61.25-.87,1.92-2.51,3.49-5.09,4.43-8.11.19-.61.33-1.19.41-1.72.11-.77.16-1.36.14-1.76-.04-.68-.05-1.35-.05-2.01,0-.47-.02-.82-.06-1.07-.16-.94-.22-1.79-.53-2.61-.41-1.08-.85-2.15-1.51-3.14-1.2-1.82-2.66-3.42-4.37-4.81.32.14.58.31.77.51,3.66,3.65,7.35,7.33,11.05,11.04.03,1.09.09,2.18.17,3.29.12,1.57.19,2.66.21,3.29.31,7.67.62,15.18.93,22.55.07,1.62.1,2.53.1,2.75,0,.02.04.17.14.44.01.04.05.06.09.06.15,0,.29-.02.4-.05,3.19-.71,6.45-1.39,9.79-2.04.38-.07.68-.21.91-.41.09-.08.14-.22.15-.42.02-.84.12-1.85.13-2.86.04-3.36.04-5.97.02-7.81-.02-1.92-.08-3.43.03-4.63,0-.08,0-.15,0-.23-.04-.73.08-1.35.88-1.45,1.73-.23,3.87-.47,6.43-.74.34-.04.63-.13.85-.3.04-.03.11-.16.2-.38.02-.04.03-.08.03-.13,0-.5.08-1,.09-1.47.03-1.3.09-2.73.16-4.29.01-.29.02-1.07.01-2.36,0-.91.12-1.64-.69-1.91-.16-.05-.45-.07-.87-.07-1.34.03-2.12.05-2.34.07-.83.07-1.44.02-2.26.1-.8.08-1.43.13-1.91.15-.26.01-.48-.09-.65-.32-.09-.11-.13-.36-.12-.74,0-.24,0-.89,0-1.95,0-.54-.08-1.19,0-1.8,0-.05.02-.1.05-.14.22-.39.53-.6.94-.62.57-.04,1.32-.1,2.25-.18.77-.07,1.52-.12,2.26-.16,2.07-.11,3.91-.19,5.53-.24.28,0,.49-.08.63-.23.03-.03.06-.07.07-.12.16-.5.24-1.03.24-1.57.02-2.35.15-4.75.17-6.92,0,0,.01-.19.04-.56.02-.3-.01-.62-.1-.95l3.67,3.52ZM180.56,117.21c-.24,2.62.89,6.3,3.96,6.72,1.29.18,2.69-.25,3.74-.95,1.85-1.24,3.46-2.86,5.06-4.48.03-.03.07-.03.1,0,0,0,.01.02.02.03.22.89.47,1.74.75,2.57.31.93.8,1.73,1.48,2.39,1.1,1.08,2.4,1.52,3.89,1.34,1.22-.15,2.33-.86,3.3-1.64,3.49-2.83,6.24-6.48,8.72-10.31.5-.77.82-1.46.68-2.28-.1-.59-.36-1.03-.79-1.3-1.37-.91-2.56.14-3.31,1.26-1,1.49-1.91,2.79-2.72,3.9-1.13,1.54-2.63,3.19-4.51,4.95-.46.43-1.2,1.02-1.81,1.17-.82.21-1.22-1.56-1.32-2.12-.26-1.52-.36-2.98-.3-4.38.02-.5.13-.89.33-1.18.95-1.36,1.81-2.61,2.58-3.74,3.05-4.52,5.77-9.41,7.83-14.44.9-2.2,1.59-4.16,2.08-5.89.6-2.11,1.33-5.94-1.66-6.75-2.91-.78-5.96,3.71-7.22,5.75-2.29,3.69-4.09,7.67-5.41,11.92-.05.17-.11.29-.18.37-.05.06-.14.08-.21.04-.32-.15-.65-.29-1-.41-1.69-.61-3.42-.29-5.02.57-3.51,1.89-5.82,5.31-7.27,8.93-.09.23-.45.45-.66.64-1.22,1.14-2.36,2.46-3.45,3.57-1.56,1.59-3.17,2.98-4.81,4.17-1.13.82-2.29,1.46-3.48,1.94-1.94.77-3.85.67-4.94-1.29-.75-1.34-.76-3.02-.51-4.43.11-.63.21-1.18.28-1.63.06-.36.3-.56.72-.61,3.59-.39,6.67-2.29,9.09-4.91,1.21-1.31,2.09-3.22,1.94-4.99-.32-3.88-4.55-4.34-7.38-3.08-1.39.61-2.42,1.61-3.52,2.87-1.36,1.56-2.49,3.25-3.4,5.08-.16.33-.5,1.1-1,2.33-.32.77-.69,1.55-1.14,2.36-1.68,3.04-3.54,5.82-6.61,7.6-.56.32-1.05.55-1.47.69-1.42.46-2.1-1.82-2.27-2.77-.25-1.35-.3-2.76-.16-4.21.15-1.5.51-3.85,1.08-7.06.26-1.45.66-3.17,1.19-5.16.75-2.79,1.83-5.4,3.22-7.85.04-.06.1-.1.18-.1,2.36-.04,4.99-.05,7.88-.04,1.22,0,2.66.11,4.02,0,1.26-.1,2.61-.51,2.64-1.96.04-1.89-1.89-2.13-3.31-2.18-.33-.01-3.37-.03-9.12-.07-.06,0-.15-.02-.28-.07-.06-.02-.1-.09-.08-.15,0,0,0-.01,0-.02,1.16-2.08,3.02-3.62,5.14-4.82.43-.24.65-.6.64-1.09,0-1-.42-1.83-1.24-2.49-.51-.41-1.13-.52-1.72-.27-1.5.65-2.87,1.92-3.95,3.16-1.32,1.52-2.28,2.8-2.87,3.84-.16.28-.38.63-.66,1.07-.46.71-1,.81-1.88.79-3.06-.06-6.41.04-8.35,0-1.11-.03-2.34-.03-3.7,0-1.2.02-3.05.26-3.21,1.81-.12,1.16.62,2.17,1.77,2.29.65.07,1.32.11,2,.11,3.83,0,6.63,0,8.41,0,.78,0,1.5.07,2.16.21.08.02.12.09.11.16,0,0,0,0,0,.01-.05.17-.11.37-.19.58-.98,2.7-1.61,4.51-1.91,5.44-1.83,5.78-2.82,11.84-2.59,17.85.14,3.57,2.37,7.49,6.46,7.33.97-.04,2.02-.36,3.14-.98,1.42-.77,2.65-1.77,3.68-2.99.68-.8,1.35-1.63,2.01-2.48.02-.02.05-.03.07-.01.01,0,.02.02.02.04.35,2.53,1.73,4.89,4.09,5.98,1.89.87,4.24.89,6.24.25,1.34-.43,2.63-1.04,3.87-1.85,2.12-1.38,4.11-2.96,5.94-4.73.01-.01.04-.01.05,0,0,0,0,.02,0,.03ZM154.53,135.72c.73,1.13,2.16,1.23,3.19.45.05-.04.33-.3.82-.78,1.17-1.13,2.84-1.76,4.34-2.31,4.03-1.47,8.15-2.32,12.37-2.55,3.75-.2,7.56.16,11.22.92,1.81.38,3.31,1.01,4.52,1.91.39.29.68.45.89.49,1.64.31,2.82-1.28,2.31-2.8-.35-1.05-1.39-1.72-2.37-2.13-3.42-1.44-7.12-2.2-10.87-2.49-5-.39-9.88-.02-14.65,1.1-3.44.81-6.86,2.14-9.81,4.17-1.01.7-2.18,1.73-2.19,3.05,0,.41.07.73.23.97Z"/>
    <path class="cls-1" d="M137.26,36.81c-.08-.89.12-1.6,1.09-1.77.77-.13,1.5-.22,2.19-.27.63-.04,1.2.13,1.73.51,1.02.72,1.49,1.59,1.78,2.78.06.23.08.47.05.71-.23,2.41-.4,5.35-3.27,6.08-.53.13-1.05.2-1.54.2-.45,0-1.13.06-1.2-.57-.15-1.32-.29-3.1-.52-4.69-.12-.89-.23-1.88-.32-2.98Z"/>
    <path class="cls-1" d="M97.47,49.07l7.49,37.73c-.99.91-1.85,1.62-3.03,2.15-1.38.61-2.68,1.14-3.89,1.59-.05.02-.09.04-.12.07-.27.23-.41.5-.4.82,0,.29.07.67.14.99.42,1.69,2.04,8.14,4.85,19.35.1.38-.01.66-.32.83-.54.29-1.08.57-1.62.83-1.8.88-3.83,1.85-6.11,2.92-.62.29-1.21.48-1.8.57-.18.03-.43-.11-.54-.3-.25-.41-.74-.78-1.15-1.19-4.24-4.16-8.45-8.37-12.61-12.62-.66-.67-1.32-1.36-1.98-2.06.6-.11,1.06-.23,1.37-.36,1.61-.69,3.92-1.75,6.92-3.2.64-.31,1.01-.59,1.5-.94.13-.09.17-.22.13-.39-.11-.48-.55-2.26-1.32-5.35-.33-1.32-.56-2.9-.89-4.19-.36-1.4-.69-2.54-.99-3.42-.25-.74-.44-1.4-.57-1.99-.16-.76-.52-2.23-1.07-4.41-.13-.51-.19-.94-.18-1.28.01-.54.34-.78.86-.98,1.75-.67,3.02-1.15,4.26-1.81.37-.2.77-.47,1.21-.82,1.68-1.35,3.1-2.86,3.99-4.81.36-.79.75-1.59,1.01-2.25.72-1.87,1.26-3.79,1.59-5.79.15-.86.23-1.63.24-2.33.02-.63.03-1.07.04-1.33.04-.78,0-1.47-.13-2.09-.2-.94-.2-1.76-.44-2.7-.01-.05-.12-.5-.33-1.34-.25-1.01-.56-1.93-.94-2.75-.81-1.76-1.86-3.42-3.17-4.98l8,7.85Z"/>
    <path class="cls-1" d="M75.31,50.08c.09-.54.72-.64,1.16-.77,1.28-.4,2.46-.86,3.55-.14.73.49,1.3,1.06,1.72,1.7.18.28.43.79.74,1.52.03.06.05.13.06.19.15.86.12,1.66.21,2.56.21,2.2-.23,4.83-2.61,5.72-.53.2-1.07.32-1.62.37-.87.08-.96-.48-1.15-1.25-.92-3.8-1.58-6.54-1.98-8.23-.14-.57-.16-1.13-.07-1.68Z"/>
    <path class="cls-1" d="M202.19,95.28c1.05-2.29,2.31-4.5,3.78-6.63,0-.02.03-.02.04-.01.02,0,.02.03.01.04-.75,2.44-1.58,4.88-2.61,7.13-1.05,2.29-2.31,4.5-3.78,6.63,0,.02-.03.02-.04.01s-.02-.03-.01-.04c.75-2.44,1.58-4.88,2.61-7.13Z"/>
    <path class="cls-1" d="M167.07,106.93s-.05,0-.06-.02c0-.01,0-.03,0-.04.82-1.44,1.64-2.7,2.9-3.77.57-.48,1.21-.76,1.92-.84.16-.02.31.07.34.21.07.32-.34.94-.59,1.25-1.18,1.48-2.69,2.55-4.53,3.21Z"/>
    <path class="cls-1" d="M187.95,118c-.59.6-2.82,2.86-3.13.68-.07-.5-.1-1.08-.08-1.73.07-2.56.68-4.95,1.83-7.17,1.17-2.27,2.8-4.47,5.03-5.8.3-.18.73-.33,1.08-.36.66-.05,1.01,1.02,1.12,1.54.29,1.34.25,2.65.06,4.03-.28,2.03-1.12,3.79-2.54,5.29-.79.84-1.92,2.01-3.38,3.51Z"/>
  </g>
</svg>