<?xml version="1.0" encoding="UTF-8"?>
<svg id="Layer_1" data-name="Layer 1" xmlns="http://www.w3.org/2000/svg" viewBox="0 0 352.3 165.34">
  <defs>
    <style>
      .cls-1 {
        fill: #28308f;
      }
    </style>
  </defs>
  <path class="cls-1" d="M193.51,14.87c.23,0,.39.09.47.26,6.51,13.98,13.52,28.8,21.02,44.46.1.2.01.44-.19.54-.05.03-.11.04-.17.04h-9.17c-.3,0-.57-.18-.69-.46l-2.41-5.89c-.16-.37-.52-.61-.92-.61h-7.94c-4.89,0-7.53,0-7.93,0-.4,0-.77.24-.93.61l-2.41,5.89c-.12.28-.39.46-.69.46h-9.17c-.22,0-.4-.18-.4-.4,0-.06.01-.12.04-.17,7.51-15.67,14.51-30.49,21.02-44.47.08-.18.23-.26.46-.26ZM188.06,45.55c-.06.15,0,.33.16.39.04.02.08.02.12.02l10.37-.04c.17,0,.3-.13.3-.3,0-.04,0-.08-.02-.12l-5.23-12.12c-.06-.15-.24-.23-.39-.16-.08.03-.13.09-.16.17l-5.14,12.15Z"/>
  <path class="cls-1" d="M117.39,60.02V15.52c4.64-.08,9.29-.13,13.95-.15,13.17-.07,23.7,6.18,24.7,20.55.61,8.68-2.55,17.01-10.59,21.28-3.56,1.89-8.27,2.88-14.12,2.97-4.68.07-9.32.02-13.95-.15ZM126.74,24.43v26.79c0,.2.16.37.37.37h6.28c7.3,0,13.23-5.62,13.23-12.54h0v-2.44c0-6.93-5.92-12.54-13.23-12.54h-6.28c-.2,0-.37.16-.37.37Z"/>
  <path class="cls-1" d="M234.89,35.5s0,.1,0,.15c-.12.49-.12.92,0,1.29v2.2c-.02.78-.39,1.17-1.1,1.18-4.96.06-9.86.05-14.71-.01-.29,0-.52-.23-.52-.52h0v-6.37c0-.29.23-.52.52-.52h15.04c.24,0,.45.15.52.38.23.69.31,1.43.25,2.23Z"/>
  <path class="cls-1" d="M145.69,86.66c-.11.17-.35.22-.52.11,0,0-.01,0-.02-.01-1.63-1.2-3.26-2.09-4.88-2.67-3.11-1.09-10.53-2.03-11.76,2.26-.81,2.84.42,4.73,3.7,5.65,7.53,2.1,18.98,2.92,19.57,13.64.57,10.23-7.18,15.23-16.77,15.33-6.26.06-11.94-1.77-17.05-5.49-.25-.19-.32-.54-.15-.81l4.53-7c.12-.18.37-.24.55-.12.02.01.03.02.05.04,4,3.57,8.62,5.19,13.85,4.85,2.96-.2,6.12-1.98,5.76-5.4-.38-3.63-6.46-4.46-10.21-5.28-5.64-1.23-12.43-4.34-13.24-11.16-.56-4.74.66-8.61,3.64-11.6,6.71-6.73,19.53-4.79,27.11-.07.33.21.44.65.23.98,0,0,0,0,0,0l-4.38,6.76Z"/>
  <path class="cls-1" d="M193.62,93.04c5.44,0,8.31,0,8.62-.01.25,0,.45-.21.45-.46v-16.74c0-.21.17-.37.37-.37h8.54c.19,0,.35.15.35.35h0v43.9c0,.28-.23.51-.51.51h-8.11c-.35,0-.63-.28-.63-.63h0v-17.64c0-.27-.22-.49-.48-.49-.01,0-.02,0-.03,0-.59.04-3.44.06-8.55.07-5.11,0-7.96-.02-8.55-.05-.27-.02-.5.19-.51.45,0,0,0,.02,0,.02l.02,17.64c0,.35-.28.63-.62.64,0,0,0,0,0,0h-8.11c-.28,0-.51-.22-.51-.51l-.05-43.9c0-.19.15-.35.35-.35h8.54c.2,0,.37.16.37.36l.02,16.74c0,.25.2.46.45.46h0c.31,0,3.18,0,8.61,0Z"/>
  <path class="cls-1" d="M131.42,150.47h-1.04l-3.36-8.34c-.07-.18-.28-.27-.46-.19-.09.04-.16.11-.19.19l-3.35,8.34h-1.08l-4.09-14.07c-.14-.48.14-.98.62-1.12.08-.02.16-.04.25-.04h1.17c.62,0,1.15.43,1.28,1.04.28,1.3.76,3.3,1.45,6,.07.27.21.4.41.39.09,0,.16-.06.19-.14l2.65-6.87c.17-.45.68-.68,1.13-.5.23.09.42.27.51.5l2.64,6.81c.06.16.23.23.39.17.09-.04.16-.12.19-.22l1.52-6.21c.14-.58.66-.98,1.26-.98h1.15c.49,0,.9.4.89.9,0,.08-.01.17-.04.25l-4.1,14.08Z"/>
  <path class="cls-1" d="M148.35,135.01c.32,0,.62.3.9.89,2.05,4.47,4.11,8.97,6.18,13.49.14.3,0,.66-.3.8-.08.04-.17.06-.26.06h-1.78c-.52,0-.99-.32-1.18-.81l-.45-1.16c-.14-.37-.5-.6-.89-.59-1.21.04-1.97.07-2.25.07s-1.04-.02-2.26-.07c-.39-.01-.75.22-.89.58l-.46,1.16c-.19.49-.67.8-1.19.8h-1.78c-.34-.01-.61-.29-.6-.62,0-.09.02-.18.06-.26,2.1-4.51,4.18-9,6.24-13.46.27-.59.58-.89.9-.88ZM148.27,144.81c.47,0,.82-.05,1.05-.14.21-.09.32-.32.24-.54-.55-1.61-1-2.41-1.34-2.4-.34,0-.77.82-1.27,2.45-.06.22.05.45.26.52.23.08.58.12,1.05.11Z"/>
  <path class="cls-1" d="M166.43,150.34c-.53,0-.97-.1-1.31-.29-.21-.12-.33-.34-.33-.58v-10.43c0-.32-.26-.58-.57-.58l-1.93-.02c-.19,0-.37-.05-.53-.14-.5-.27-.66-.97-.48-2.1.08-.49.5-.85,1-.85.96,0,2.35-.01,4.16,0,1.81,0,3.19,0,4.16,0,.5,0,.92.37,1,.86.19,1.13.03,1.83-.48,2.1-.16.09-.34.13-.53.14h-1.93c-.32.02-.57.28-.57.59v10.43c-.02.24-.14.46-.35.58-.34.2-.77.3-1.3.29Z"/>
  <path class="cls-1" d="M189.63,142.77c0,1.08-.64,1.6-1.92,1.56-1.12-.03-2.09-.05-2.89-.07-.4,0-.72.31-.73.71,0,0,0,0,0,0v1.42c0,.39.31.7.7.7h4.79c.55,0,1,.45,1,1h0v1.12c0,.57-.46,1.03-1.03,1.03h0l-7.92-.02c-.36,0-.68-.25-.76-.6-.02-.09-.03-2.38-.02-6.87,0-4.49.02-6.78.04-6.87.08-.35.4-.6.76-.6h7.92c.57,0,1.03.46,1.03,1.03v1.12c0,.55-.45,1-1,1,0,0,0,0,0,0h-4.79c-.38,0-.69.3-.7.69v1.42c0,.4.31.72.71.73,0,0,0,0,.01,0,.81-.01,1.77-.04,2.89-.07,1.27-.03,1.91.5,1.91,1.58Z"/>
  <path class="cls-1" d="M212.28,149.09c.21.37.09.85-.28,1.06-.12.07-.25.1-.39.1h-1.52c-.49,0-.95-.26-1.19-.69l-2.6-4.5c-.27-.46-.86-.61-1.32-.34-.29.17-.47.48-.48.82v3.66c0,.59-.48,1.07-1.08,1.07h-1.07c-.6,0-1.09-.49-1.09-1.09h0v-13.09c0-.41.32-.75.73-.76,3.46-.13,6.93-.63,9.21,1.4,2.2,1.95,1.45,5.57-.93,7.18-.4.27-.52.81-.28,1.23l2.28,3.94ZM204.6,139.13l-.03,1.97c0,.45.36.82.81.82h0l1.31.02c1.42.02,2.58-.72,2.59-1.65,0,0,0,0,0,0v-.23c0-.93-1.13-1.69-2.55-1.71l-1.31-.02c-.45,0-.82.36-.82.81h0Z"/>
</svg>