<?xml version="1.0" encoding="UTF-8"?>
<svg id="Layer_1" data-name="Layer 1" xmlns="http://www.w3.org/2000/svg" viewBox="0 0 352.3 165.34">
  <path d="M76.86,66.59h12.95l-18.48,54.38h-16.58l-18.48-54.38h12.89l10.38,34.39c1.23,3.96,2.34,7.81,3.46,11.67,1.11-3.96,2.24-7.71,3.46-11.67l10.38-34.39h.01Z"/>
  <path d="M97.52,50.73c0-4.19,3.57-7.48,7.71-7.48s7.87,3.3,7.87,7.48-3.57,7.59-7.87,7.59-7.71-3.4-7.71-7.59h0ZM99.47,120.97v-54.37h11.61v54.38h-11.61Z"/>
  <path d="M134.81,77.7c3.4-8.99,11-13.79,20.82-11.83v12.34c-10.05-2.18-20.15,3.35-20.15,16.75v26.02h-11.28v-54.38h10.55l.05,11.11h0Z"/>
  <path d="M200.46,119.35c-3.46,1.56-7.15,2.4-11.61,2.4-11.89,0-18.09-6.36-18.09-18.7v-26.74h-10.38v-9.71h10.38v-15.52l11.56-1.68v17.2h16.97v9.71h-16.97v25.23c0,6.53,2.4,9.88,8.48,9.88,2.79,0,5.03-.5,7.31-1.56l2.34,9.49Z"/>
  <path d="M244.68,66.59h11.61v54.38h-10.38l-.45-10.55c-2.96,7.2-9.16,11.61-18.2,11.61-13.51,0-19.65-8.09-19.65-21.44v-34h11.61v31.27c0,9.21,3.52,13.45,11,13.45,8.43,0,14.46-6.09,14.46-17.47v-27.25h0Z"/>
  <path d="M315.81,97.41h-39.25c1.17,9.38,6.53,14.91,15.13,14.91,7.54,0,11.78-3.13,13.73-8.71l9.6,2.07c-2.79,10.94-11.44,16.41-23.28,16.41-16.69,0-26.85-11.95-26.85-28.31s10.16-28.25,26.13-28.25,25.01,10.83,25.01,27.3c0,1.45-.05,2.9-.22,4.58h0ZM276.68,88.86h27.8c-.67-8.94-5.69-13.79-13.51-13.79s-13.01,5.19-14.29,13.79Z"/>
</svg>