<?xml version="1.0" encoding="UTF-8"?>
<svg id="Layer_1" data-name="Layer 1" xmlns="http://www.w3.org/2000/svg" viewBox="0 0 352.3 165.34">
  <defs>
    <style>
      .cls-1 {
        fill: #d61920;
      }
    </style>
  </defs>
  <path class="cls-1" d="M290.34,44.74c-.61-.34-.47-1.46-.51-2.52,0-.11-.03-.22-.06-.32-.31-.8-.71-1.36-1.2-1.68-1.57-1.01-3.06-1.61-3.33-3.16-.38-2.15.31-3.68,2.09-4.6,1.49-.77,2.81-.46,4.12.41,1.88,1.26,2.2,3.31,1.91,5.42-.26,1.86-.73,3.97-1.42,6.31-.03.12-.12.22-.24.26-.45.17-.9.12-1.35-.13Z"/>
  <path class="cls-1" d="M135.31,54.9c.61.9.63,2.14.22,3.13-.85,2.01-2.84,3.03-4.96,2.5-1.8-.45-3.1-2.43-3.73-4.22-.71-2.02-.83-4.05-.35-6.09.22-.93.37-1.71.47-2.36.42-2.92-.92-5.53-3.55-6.89-1.7-.88-3.48-.83-5.47-.52-2.59.4-4.8,1.9-5.62,4.47-1.08,3.37-.62,6.63,1.19,9.73,1.91,3.28,4.46,6.01,7.24,8.66,2.16,2.05,4.98,4.67,8.48,7.85,2.05,1.86,4.53,4.43,7.43,7.69,2.94,3.31,5.37,6.94,7.29,10.9,2.65,5.47,3.57,11.5,2.75,18.1-1.61,13.06-10.61,23.38-23.53,26.27-15.37,3.43-31.25-2.99-35.21-19.34-2.23-9.21-.15-20.37,7.04-27.03,4.55-4.21,10.1-5.85,16.65-4.91,6.84.98,12.03,5.95,12.58,12.98.63,8.15-5.11,15.52-13.73,14.95-1.18-.08-2.12-.71-2.81-1.9-1.22-2.09-.26-4.79,2.01-5.67.96-.38,2.11-.29,2.99-.57,2.43-.78,3.5-3.22,3.47-5.66-.06-4.33-3.37-6.13-7.24-6.33-3.67-.19-6.71,1.04-9.11,3.71-1.55,1.72-2.69,3.76-3.43,6.13-1.24,3.94-1.43,7.92-.57,11.94,1.54,7.25,6.58,12.4,13.88,13.98,2.88.62,5.92.74,9.13.36,8.51-1.01,15.41-6.19,18.41-14.26,1.26-3.38,1.89-7.64,1.54-11.31-.59-6.05-3.43-11.41-7.37-16.06-4.11-4.85-7.85-8.19-13.34-13.2-3.1-2.83-5.71-5.46-7.84-7.89-4.67-5.32-7.6-11.55-6.36-18.78,1.02-5.96,4.57-10.38,10.33-12.19,3.07-.96,6.11-1.05,9.22-.79,2.42.21,4.85.99,7.29,2.35,1.23.69,2.89.51,3.97-.58,1.4-1.41,3-2.45,4.99-1.58,2.24.98,3.48,3.83,1.97,5.89-2.44,3.33-4.6,6.44-6.23,10.14-.58,1.32-.85,2.49-.98,3.85-.11,1.1.29,1.64.92,2.57Z"/>
  <rect class="cls-1" x="144.99" y="38.46" width="6.86" height="42.16" rx="3.43" ry="3.43"/>
  <path class="cls-1" d="M286.88,51.48c-.46,4.24-6.88,4-7.08-.24-.02-.52-.1-1.44-.31-1.97-1.28-3.35-4.98-4.9-8.22-3.12-1.31.72-2.21,1.78-2.72,3.18-1.03,2.86,1.1,5.8,3.37,7.47,3.08,2.27,6.59,4.06,9.76,6.76,3.47,2.94,5.21,6.6,5.23,10.99.01,2.59-.66,4.91-2.02,6.94-6.39,9.55-21.34,6.86-23.49-4.66-.2-1.09-.28-2.4-.22-3.94.05-1.31.04-2.38.71-3.24.84-1.08,2.03-1.53,3.57-1.35,3.4.41,2.85,4.56,2.86,6.91,0,.21.03.42.1.62.4,1.24.91,2.17,1.52,2.78,3.72,3.73,10.23.99,9.81-4.46-.3-3.92-3.46-6.2-6.58-8.07-5.92-3.55-11.91-7.5-11.96-15.2-.01-1.64.36-3.26,1.11-4.85,2.23-4.73,6.49-7.64,11.7-7.6,2.77.02,5.25.8,7.47,2.35,3.14,2.2,4.95,5.32,5.42,9.34.04.34.03.79-.03,1.35Z"/>
  <path class="cls-1" d="M186.68,47.39c-.96-.98-2.22-1.16-3.65-1.13-.13,0-7.78,0-22.95,0-3.01,0-4.87-3.01-2.87-5.48,1.05-1.28,2.51-1.24,4.31-1.24,34.76,0,55.21,0,61.35,0,2.1,0,3.84,1.35,3.69,3.55-.18,2.59-2.27,3.14-4.47,3.16-2.41.02-9.67.02-21.76,0-2.52,0-4.22,0-5.12,2.2-.17.43-.26,1.22-.26,2.37,0,1.48,0,15.26,0,41.35,0,1.42.09,2.82-.67,3.81-1.68,2.19-4.83,1.73-5.9-.75-.2-.47-.31-1.32-.31-2.53,0-10.67,0-24.34,0-41.01,0-1.92-.18-3.02-1.42-4.29Z"/>
  <path class="cls-1" d="M249.92,74.36c-.15.23-.18.51-.08.76,2.42,6.12,4.54,11.41,6.36,15.86.79,1.94,2.23,3.76,1.18,5.87-1.11,2.23-4.15,2.37-5.68.44-.43-.55-.88-1.4-1.34-2.55-1.57-3.92-3.67-9.19-6.31-15.8-.18-.44-.39-.91-.63-1.41-.43-.86-.67-1.73-1.33-2.32-.69-.62-2.18-.41-2.87-.06-.35.18-.58.53-.58.93-.03,2.08-.03,7.48-.01,16.2,0,1.86.07,3.12-1.19,4.3-.99.93-2.67,1.05-3.87.33-1.96-1.18-1.81-2.82-1.81-5.24.01-30.37.01-46.02,0-46.96-.04-2.37.08-4.17,2.22-4.93.44-.16,1.22-.24,2.33-.25,4.21-.04,7.24-.02,9.09.08,5.01.24,9.3,3.84,10.67,8.56.33,1.15.48,3.12.44,5.93-.03,1.89-.03,4.4,0,7.52.01,1.82-.07,3.11-.24,3.89-.76,3.35-2.56,5.58-5.21,7.65-.45.35-.82.75-1.12,1.2ZM238.61,57.27c0,4.18,0,6.27,0,6.28.11,2.42,1.21,3.94,3.31,4.57.98.29,2.87.29,3.74.05,1.7-.48,2.87-1.43,3.51-2.85.28-.61.42-1.94.43-3.99,0-1.27,0-2.62,0-4.06s0-2.79-.01-4.06c-.01-2.05-.15-3.38-.43-3.99-.64-1.41-1.81-2.36-3.51-2.84-.87-.25-2.76-.24-3.74.05-2.1.62-3.2,2.15-3.31,4.57,0,0,0,2.09,0,6.27Z"/>
  <path class="cls-1" d="M71.67,103.96c0,.06.06.11.12.11h11.74c.13,0,.23.1.23.23,0,0,0,.01,0,.02-.23,2.41-.19,4.99.13,7.75.02.13-.08.26-.22.27,0,0-.02,0-.03,0-4.13-.04-9.38-.05-15.74-.02-2.21.01-3.67-.8-4.38-2.44-.32-.74-.47-1.74-.43-3.01.06-2.07-.11-4.81.21-7.03.74-5.11,3.12-9.4,7.15-12.86,3.66-3.15,6.53-4.84,11.47-7.95,3.83-2.4,8.14-5.56,9.26-10.2.72-2.97.1-5.66-1.88-8.07-5.64-6.88-16.74-3.67-17.62,5.25-.22,2.28-.54,4.02-3.02,4.73-3.31.95-5.79-1.65-5.54-4.9.72-9.32,7.82-16.21,17.03-17.02,3.16-.28,6.74.37,9.58,1.81,4.78,2.41,8.07,6.63,9.63,11.75.47,1.53.64,3.15.54,4.85-.38,6.05-3.04,10.73-7.53,14.53-2,1.7-4.06,3.2-6.17,4.49-6.8,4.16-15.29,8.41-14.54,17.69Z"/>
  <path class="cls-1" d="M174.26,63.42c-.02-.5-.1-1.38-.29-1.89-1.22-3.22-4.78-4.71-7.9-3-1.26.69-2.13,1.7-2.61,3.05-.99,2.75,1.05,5.57,3.23,7.17,2.95,2.18,6.33,3.9,9.37,6.49,3.33,2.83,5,6.35,5.02,10.56.01,2.49-.64,4.71-1.94,6.66-6.13,9.17-20.49,6.58-22.55-4.48-.2-1.05-.27-2.31-.21-3.78.05-1.26.04-2.29.68-3.11.81-1.04,1.95-1.47,3.43-1.29,3.27.39,2.74,4.38,2.75,6.63,0,.2.03.4.1.59.39,1.19.87,2.08,1.46,2.68,3.56,3.58,9.83.96,9.42-4.28-.29-3.76-3.33-5.95-6.32-7.75-5.68-3.41-11.44-7.21-11.48-14.6-.01-1.58.34-3.13,1.06-4.66,2.14-4.54,6.23-7.33,11.24-7.3,2.65.02,5.05.77,7.17,2.26,3.02,2.11,4.75,5.11,5.2,8.97.04.32.03.76-.03,1.3-.44,4.07-6.61,3.84-6.8-.23Z"/>
  <path class="cls-1" d="M221.67,69.26c2.92,1.76,1.92,6.19-1.52,6.26-1.54.03-2.83.04-3.87.01-1.31-.04-2.26.1-2.86.41-2.17,1.14-2.41,2.75-2.38,5.29.02,1.26.02,3.05,0,5.35,0,2,.09,2.99,1.68,3.83.27.14.85.22,1.76.22,4.09.01,6.83.01,8.22,0,1.68-.02,2.87.66,3.55,2.04.54,1.08.41,2.17-.4,3.25-.73.98-1.75,1.47-3.07,1.47-6.81-.02-11.55-.02-14.21,0-.81,0-1.91-.02-2.65-.46-1.13-.68-1.7-1.74-1.7-3.18,0-4.51,0-17.36,0-38.56,0-1.64.54-2.75,1.62-3.33.62-.33,1.8-.5,3.54-.49,8.14.02,12.59.03,13.32.02,1.74-.02,2.95.74,3.62,2.29.72,1.66-.33,3.6-2.03,4.2-.43.15-1.16.23-2.18.24-2.63.01-4.74,0-6.33-.02-2.33-.03-3.79.07-4.59,2.06-.13.33-.19,1.05-.16,2.17.02.66.01,1.48-.01,2.46-.05,2.24.19,4.06,2.74,4.06,2.03,0,3.81-.01,5.35-.02,1.21,0,2.05.13,2.53.42Z"/>
  <rect class="cls-1" x="261.71" y="91.77" width="25.99" height="6.87" rx="3.43" ry="3.43"/>
  <path class="cls-1" d="M165.56,106.33c.13-.04.27,0,.34.12.76,1.19,1.54,2.21,2.32,3.07.34.38.54.81.6,1.29.03.29-.14.56-.4.64-.74.22-2.63-1.16-4.32-2.22-1.29-.8-3.42-.94-4.57.23-1.74,1.76.87,3.24,2.22,3.67,2.25.73,4.45,1.43,6.36,2.8,1.78,1.28,2.39,3.06,1.82,5.34-.16.63-.38,1.07-.66,1.34-.62.58-1.7,2-2.93,2.43-1.74.62-3.78.77-5.61.19-.02,0-.6-.19-1.73-.56-.31-.1-.64-.02-.87.21l-.71.7c-.23.23-.59.23-.82,0-.02-.02-.04-.05-.06-.07-.35-.49-.65-1.13-.89-1.91-.06-.19-.14-.37-.24-.53-.8-1.3-1.6-2.26-1.45-3.3.04-.28.36-.48.71-.43,0,0,.01,0,.02,0,.52.09,1.04.35,1.55.78.69.58,1.41,1.18,2.18,1.8,1.24,1.01,2.75,1.46,4.52,1.36,1.48-.08,3.18-.5,2.86-2.23-.23-1.26-1.72-2.23-2.96-2.66-3.23-1.15-5.7-1.75-7.38-4.86-1.35-2.49.11-5.05,2.4-6.27,1.35-.72,2.74-.93,4.17-.63,1.09.22,2.17.62,2.91.06.26-.19.47-.32.64-.37Z"/>
  <path class="cls-1" d="M192.62,125.3c-.44.39-1.03.56-1.76.52-.59-.03-1.62-.17-3.09-.4-.27-.04-.55-.04-.82,0-.65.11-1.65.3-2.02-.12-.23-.27-.22-.68.03-.96.33-.38.63-.69.92-.93.2-.17.28-.44.19-.69-.7-1.97-1.19-3.28-1.48-3.92-.64-1.42-1.66-1.23-2.99-1.21-1.47.02-2.49.02-3.18,1.51-.38.82-.76,2.04-.51,2.95.1.37.57.83.84,1.06,1.22,1.11-.14,2.23-1.31,2.16-1.17-.07-2.27-.06-3.3.04-.41.04-1.22-.14-1.26-.74-.06-.8.1-1.12.9-1.59.59-.35,1.1-1.02,1.52-2.02.81-1.95,1.68-4.11,2.62-6.49.29-.74.77-1.29,1.04-2,.52-1.33,1.23-3.02,2.13-5.06.29-.67.75-1.03,1.35-1.09.77-.08,1.46-.08,2.06,0,.47.05.87.35,1.06.78.32.72.61,1.6.84,2.64.61,2.65.85,4.14,1.71,6.46,1.24,3.35,1.91,5.15,2,5.41.5,1.49,1.1,1.9,2.28,2.71.33.22.47.61.33.86-.02.04-.05.07-.08.1ZM180.22,114.67c-.09.28.06.57.34.66.06.02.13.03.19.03l2.27-.13c.29-.02.51-.27.49-.56,0-.06-.02-.13-.05-.19l-1.3-2.85c-.12-.26-.43-.38-.7-.26-.13.06-.24.18-.28.32l-.97,2.98Z"/>
  <path class="cls-1" d="M194.25,107.51c.02-.46.2-.77.55-.91.72-.3,1.56-.36,2.46-.21.81.13,1.68.1,2.63-.08.22-.04.54,0,.97.11.1.02.19.09.24.18.19.35.21.68.05,1.01-.04.08-.1.15-.17.21l-.8.68c-.29.25-.44.63-.39,1.01.44,3.52.62,6.82.52,9.9-.04,1.25.2,2.29.94,3.18.26.31.63.51,1.03.53.8.06,1.72.05,2.76-.04,1.71-.14,3.74-2.04,5.07-3.32.4-.39.86-.56,1.37-.5.1.01.2.07.25.16.56.93-.22,2.03-.76,2.92-.18.29-.32.59-.43.91-.3.87-.58,1.6-.86,2.17-.56,1.14-1.38.97-2.37.34-.58-.38-1.31-.55-2.19-.52-1.95.07-4.08-.08-6.11.19-1.53.2-3.46.57-4.17-.5-.17-.25-.09-.6.17-.79.7-.52,1.05-.78,1.06-.79.32-.25.45-.67.35-1.06l-.6-2.24c-.06-.23-.07-.48-.02-.71.17-.77.25-1.44.24-2.02-.05-3.51-.1-6.11-.15-7.79-.02-.71-1.04-1.19-1.51-1.71-.08-.09-.12-.21-.12-.33Z"/>
  <path class="cls-1" d="M226.03,106.33c.13-.04.27,0,.34.12.77,1.19,1.54,2.21,2.32,3.07.34.38.54.81.6,1.29.03.29-.14.56-.4.64-.74.22-2.63-1.16-4.32-2.22-1.29-.8-3.42-.94-4.57.23-1.73,1.76.87,3.24,2.23,3.67,2.25.72,4.45,1.43,6.36,2.8,1.78,1.28,2.39,3.06,1.83,5.34-.16.63-.38,1.07-.66,1.34-.62.58-1.7,2-2.93,2.43-1.74.62-3.78.77-5.61.2-.02,0-.6-.19-1.73-.56-.31-.1-.64-.02-.87.21l-.7.7c-.23.23-.59.23-.82,0-.02-.02-.04-.05-.06-.07-.35-.49-.65-1.13-.89-1.91-.06-.19-.14-.37-.24-.53-.8-1.3-1.6-2.26-1.45-3.29.04-.28.36-.48.71-.43,0,0,.01,0,.02,0,.52.08,1.04.34,1.55.77.69.58,1.41,1.18,2.18,1.8,1.24,1.01,2.75,1.46,4.52,1.35,1.48-.08,3.18-.51,2.86-2.23-.23-1.26-1.72-2.22-2.96-2.66-3.23-1.15-5.7-1.75-7.38-4.86-1.35-2.49.11-5.05,2.39-6.27,1.35-.72,2.74-.93,4.17-.64,1.09.22,2.17.62,2.91.06.26-.19.47-.32.64-.37Z"/>
  <path class="cls-1" d="M253.11,125.3c-.44.39-1.03.56-1.76.52-.59-.03-1.62-.16-3.09-.39-.27-.04-.55-.04-.82,0-.65.11-1.65.31-2.02-.12-.23-.27-.22-.68.03-.97.33-.38.63-.69.92-.93.2-.17.27-.44.19-.69-.7-1.97-1.19-3.28-1.48-3.92-.64-1.42-1.66-1.23-2.99-1.21-1.47.02-2.49.03-3.18,1.52-.38.82-.76,2.04-.51,2.96.1.37.57.83.84,1.06,1.23,1.1-.13,2.23-1.31,2.16-1.17-.07-2.28-.06-3.31.04-.41.04-1.22-.14-1.26-.74-.06-.8.1-1.12.9-1.59.59-.35,1.1-1.02,1.51-2.02.81-1.95,1.68-4.12,2.61-6.5.29-.75.77-1.3,1.04-2,.52-1.33,1.23-3.02,2.13-5.06.29-.67.75-1.03,1.35-1.09.77-.08,1.46-.08,2.07,0,.47.05.87.35,1.06.78.32.72.61,1.6.85,2.64.61,2.65.85,4.14,1.72,6.46,1.25,3.35,1.91,5.15,2,5.41.5,1.49,1.1,1.9,2.29,2.71.33.22.47.61.33.86-.02.04-.05.07-.08.1ZM242.32,111.21c-.05-.07-.14-.09-.21-.04-.02.01-.04.03-.05.05-.68,1.19-1.13,2.48-1.35,3.86-.02.09.05.18.14.2,0,0,0,0,0,0,1.04.14,1.96.08,2.75-.17.22-.07.34-.31.27-.53-.39-1.24-.92-2.37-1.57-3.37Z"/>
  <path class="cls-1" d="M271.75,115.93c-.04.21-.23.37-.47.37-1.09.02-2.15-1.01-2.9-1.48-1.64-1.01-4.47-.81-5.07,1.36-.62,2.21-.83,5.7,1.47,7.07,1.21.72,2.91.91,4.17.15.63-.38.92-1.1,1.37-1.59.31-.34.76-.47,1.09-.3.33.16.4.51.21,1.04-.97,2.78-3.95,3.74-6.66,3.12-2.9-.67-5.35-2.67-5.58-5.78-.1-1.38.22-2.87.96-4.46.06-.14.15-.26.25-.37,1.07-1.16,2.17-1.98,3.31-2.45,1.22-.5,2.57-.12,3.86.23.19.05.38.07.58.04l.82-.11c.14-.02.27.03.37.13.88.9,1.52,1.59,1.92,2.08.25.31.36.62.31.94Z"/>
  <path class="cls-1" d="M283.97,123.25c-1.4,1.61-3.17,2.39-5.32,2.34-1.85-.05-3.14-1.09-4.45-2.52-.89-.96-1.27-1.81-1.33-3.17-.07-1.62.23-3.11.93-4.44,2.68-5.18,10.19-3.2,11.25,1.93.14.69.09,1.58-.16,2.69-.23,1.03-.43,1.87-.58,2.52-.06.24-.17.47-.34.65ZM276.38,120.2c.69,1.63,2.23,4.48,4.54,3.67,2.5-.88,1.62-4.06.83-5.94-.8-1.89-2.48-4.73-4.85-3.54-2.19,1.09-1.22,4.18-.52,5.81Z"/>
  <circle class="cls-1" cx="287.84" cy="124.02" r="1.38"/>
</svg>