<?xml version="1.0" encoding="UTF-8"?>
<svg id="Layer_1" data-name="Layer 1" xmlns="http://www.w3.org/2000/svg" viewBox="0 0 352.3 165.34">
  <defs>
    <style>
      .cls-1 {
        fill: #10100c;
      }

      .cls-2 {
        fill: #232021;
      }

      .cls-3 {
        fill: #0f0c08;
      }
    </style>
  </defs>
  <g>
    <g>
      <path class="cls-2" d="M174.79,28.77c27.37,0,54.38,3.54,80.3,11.6,18.88,5.87,36.98,14.13,54.3,24.81.39.24.51.76.27,1.15,0,0-.01.02-.02.03l-.71,1.06c-.27.4-.81.52-1.22.27-31.6-19.39-66.13-30.87-103.59-34.46-9.99-.96-19.77-1.43-29.34-1.44-9.57,0-19.35.47-29.33,1.42-37.46,3.57-71.99,15.04-103.61,34.41-.41.25-.95.13-1.22-.27l-.71-1.06c-.26-.38-.15-.9.23-1.16,0,0,.02-.01.03-.02,17.33-10.67,35.43-18.93,54.31-24.79,25.93-8.04,52.94-11.57,80.31-11.56Z"/>
      <path class="cls-2" d="M164.21,67.56c-.91.05-2.13.12-3.67.22-.16.01-.3-.11-.32-.27l-.07-.67c-.02-.13.08-.24.2-.26.02,0,.04,0,.06,0,.85.1,1.24-.37,1.17-1.41-.44-6.52-.87-12.94-1.29-19.26-.01-.19-.16-.35-.35-.38l-1.13-.17c-.11-.02-.2-.11-.21-.22l-.08-.68c-.01-.13.08-.26.22-.27,0,0,0,0,.01,0,1.34-.09,2.73-.18,4.16-.27,1.43-.07,2.81-.13,4.16-.19.14,0,.25.1.26.23,0,0,0,.01,0,.02v.68c0,.11-.08.21-.19.24l-1.11.29c-.19.05-.31.22-.3.42.29,6.32.57,12.75.85,19.28.04,1.04.48,1.46,1.32,1.27.12-.03.25.04.28.17,0,.02,0,.04,0,.06v.67c0,.16-.13.29-.29.3-1.54.07-2.77.13-3.68.18Z"/>
      <path class="cls-2" d="M181.55,67.33c-.15,0-.27-.13-.27-.28,0,0,0,0,0,0l.04-.71c0-.14.12-.24.25-.24.55,0,.84-.31.85-.94.13-5.47.33-11.9.6-19.28.03-.86-.4-.98-1.09-1.06-.05,0-.09-.05-.08-.1l.05-.93c0-.07.06-.13.14-.13,2.45.06,5.53.19,9.22.39,2.79.15,4.9.55,6.32,1.2,5.44,2.46,6.89,7.78,5.59,13.69-.91,4.14-3.21,7.16-7.35,8.39-1.4.41-3.77.51-7.12.29-2.43-.16-4.81-.26-7.15-.31ZM187.84,63.3c4.21.36,9,.83,10.11-4.53.86-4.12,1.18-8.99-4.13-10.02-1.85-.36-3.6-.54-5.25-.54-.15,0-.27.12-.28.27l-.76,14.47c-.01.18.13.34.31.35Z"/>
      <path class="cls-2" d="M133.84,70.21c.14-.02.28.08.31.22l.14.66c.03.14-.06.28-.2.31l-6.38,1.36c-.14.03-.27-.06-.29-.19,0,0,0,0,0,0l-.14-.65c-.04-.17.07-.33.23-.37.42-.1.57-.42.45-.97-.73-3.2-2.16-9.48-4.29-18.84-.16-.7-.54-.98-1.13-.82-.13.03-.27-.04-.3-.17,0,0,0,0,0-.01l-.15-.7c-.02-.12.05-.24.18-.27,3.44-.79,6.68-1.48,9.72-2.04,2.57-.48,4.78-.94,7.27-.39,2.3.51,4.11,2.19,4.64,4.55.77,3.37-.5,6.46-3.7,7.94-.09.04-.13.15-.09.24,0,.01.01.02.02.03l5.66,7.65s.04.05.07.07c.24.17.44.27.6.3.33.06.55.38.48.71-.05.25-.25.45-.51.49l-6.19.92c-.19.03-.37-.1-.41-.29l-.07-.41c-.04-.24.12-.46.35-.51.34-.07.48-.24.43-.52,0-.04-.03-.07-.05-.11l-5.29-6.76c-.09-.12-.24-.17-.39-.14l-3.17.67c-.13.03-.22.16-.19.3l1.52,7.3s.02.07.04.1c.15.27.44.38.87.34ZM129.46,52.78l.97,5.02c.02.12.13.19.25.17,0,0,0,0,0,0l5.52-1.07c1.71-.33,2.88-1.71,2.62-3.07,0,0,0,0,0,0l-.1-.5c-.27-1.36-1.87-2.2-3.58-1.87l-5.52,1.07c-.11.02-.19.14-.17.25Z"/>
      <path class="cls-2" d="M223.26,48.33c1.4.3,2.76.58,4.07.87.13.03.22.16.19.29,0,0,0,0,0,.01l-.18.66c-.03.11-.13.18-.24.18h-1.15c-.19,0-.36.14-.4.32-1.33,6.19-2.68,12.48-4.07,18.87-.22,1.02.1,1.54.96,1.56.13,0,.23.11.23.24,0,.02,0,.04,0,.06l-.17.65c-.04.15-.2.25-.35.21-1.51-.32-2.71-.57-3.6-.75s-2.09-.42-3.61-.71c-.16-.03-.27-.18-.25-.34l.1-.67c.02-.13.13-.22.26-.2.02,0,.04,0,.06.02.8.32,1.29-.04,1.49-1.06,1.22-6.42,2.44-12.74,3.64-18.96.04-.19-.06-.38-.24-.46l-1.06-.45c-.1-.04-.17-.15-.15-.26l.1-.68c.02-.13.14-.23.27-.21,0,0,.01,0,.02,0,1.32.26,2.69.52,4.09.8Z"/>
      <path class="cls-2" d="M244.44,67.99c-.18-.06-.37.04-.43.22,0,0,0,0,0,0l-1.45,4.91c-.03.12.03.25.15.29l10.05,3.5c.13.04.27.01.36-.08l.18-.19c.24-.24.63-.24.87,0,.17.16.23.41.15.63l-1.63,4.71c-.05.13-.18.22-.32.21-.67-.06-.98-.3-.94-.74.02-.16-.05-.32-.18-.42-.11-.08-.58-.28-1.42-.59-4.94-1.82-9.8-3.42-14.58-4.79-.16-.05-.26-.22-.21-.39l.17-.59c.05-.17.24-.27.41-.22.38.11.7.11.94,0,.15-.07.26-.19.31-.35l5.65-19.02c.06-.19,0-.39-.15-.51-.27-.22-.62-.41-1.03-.57-.12-.05-.18-.17-.15-.3l.19-.63c.05-.15.21-.24.36-.19,6.19,1.81,11.81,3.67,16.87,5.57.45.17.76.14.93-.08.23-.3.67-.36.97-.14.24.17.33.48.22.75-.34.88-.93,2.41-1.77,4.6-.06.15-.22.23-.37.17l-.61-.21c-.14-.05-.24-.19-.25-.34-.01-.34-.14-.55-.4-.64-3.3-1.25-6.68-2.43-10.13-3.53-.12-.04-.25.03-.28.15,0,0,0,0,0,0l-1.34,4.5c-.03.1.03.21.13.25,2.19.68,4.01,1.29,5.47,1.82.55.2.93.18,1.14-.07.24-.28.66-.33.94-.11.21.16.3.44.2.69-.66,1.85-1.2,3.34-1.61,4.48-.12.32-.47.48-.8.34-.21-.09-.37-.28-.41-.5-.07-.37-.35-.63-.84-.78-1.26-.37-2.96-1.02-5.36-1.81Z"/>
      <path class="cls-2" d="M99.72,71.06l1.86,4.77c.05.12.18.18.3.14l10.09-3.41c.13-.04.22-.15.23-.28l.03-.27c.04-.34.34-.58.67-.55.24.02.44.19.51.41l1.59,4.72c.05.13,0,.28-.13.36-.56.37-.96.36-1.2,0-.08-.14-.23-.22-.39-.22-.13,0-.63.14-1.49.41-5.02,1.59-9.84,3.32-14.46,5.16-.16.06-.34-.02-.4-.18l-.22-.57c-.07-.17.02-.36.19-.43.37-.15.62-.34.74-.58.08-.14.09-.32.03-.46l-7.21-18.49c-.07-.18-.24-.31-.44-.31-.35,0-.74.05-1.17.18-.12.04-.26-.02-.3-.14l-.24-.61c-.06-.15.02-.31.16-.37,6-2.37,11.59-4.35,16.75-5.95.46-.14.68-.35.68-.64,0-.38.31-.69.68-.7.29,0,.55.18.64.45.27.9.75,2.47,1.42,4.72.05.15-.04.31-.18.36l-.61.21c-.15.05-.31,0-.4-.12-.21-.26-.45-.34-.71-.26-3.38,1.04-6.76,2.18-10.16,3.43-.12.04-.18.17-.14.29,0,0,0,0,0,0l1.71,4.38c.04.1.15.15.25.11,2.15-.8,3.96-1.44,5.44-1.92.56-.18.85-.43.86-.75.02-.36.32-.66.67-.66.27,0,.5.16.58.42.61,1.87,1.11,3.38,1.48,4.53.1.33-.09.67-.42.76-.22.06-.45,0-.62-.15-.28-.25-.66-.28-1.14-.1-1.22.48-2.97,1.01-5.34,1.86-.18.06-.27.26-.21.44,0,0,0,0,0,.01Z"/>
      <path class="cls-2" d="M77.24,91.43l-6.69,3.75c-.12.07-.27.02-.34-.1,0,0,0,0,0,0l-.37-.66c-.06-.1-.03-.23.07-.3.36-.26.61-.49.74-.68.1-.15.11-.35.03-.51l-9.77-17.38c-.13-.23-.41-.34-.66-.24l-.92.36c-.15.06-.31,0-.39-.14l-.31-.54c-.07-.13-.03-.29.11-.37,5.38-3.06,10.68-5.82,15.88-8.27.47-.22.71-.51.71-.85,0-.37.29-.69.64-.72.25-.02.47.11.57.34.82,1.83,1.52,3.35,2.1,4.56.07.15.01.33-.13.41l-.54.31c-.17.09-.38.04-.49-.11-.19-.27-.42-.34-.7-.21-3.08,1.43-6.33,3.06-9.74,4.87-.08.04-.11.14-.07.23,0,0,0,0,0,0l2.3,4.1c.06.11.19.15.3.09l5.89-3.04c.12-.06.21-.17.26-.29.11-.32.16-.48.16-.49-.02-.35.24-.68.58-.72.25-.03.48.1.59.32.42.89,1.13,2.37,2.15,4.42.15.31,0,.67-.35.8-.21.08-.45.06-.64-.05-.11-.06-.27-.12-.49-.17-.14-.03-.28-.02-.4.05l-5.8,2.96c-.15.08-.2.26-.13.4,0,0,0,0,0,.01l3.89,6.92c.07.12.2.2.33.2.34,0,.67-.09.99-.26.13-.08.31-.03.38.1,0,0,0,0,0,0l.31.54c.07.12.02.27-.1.34,0,0,0,0,0,0Z"/>
      <path class="cls-2" d="M287.82,75.59l-5.73,2.94c-.37.19-.81.05-1-.32-.12-.24-.11-.53.04-.76l.31-.46c.07-.11.09-.24.05-.37-.76-2.52-3.82-4.48-5.92-4.91-1.36-.28-2.27.15-2.75,1.3-1.45,3.49,12.67,7.57,8.82,15.56-1.96,4.07-7.02,4.34-10.86,3-3.6-1.27-5.96-3.32-8.52-6.07-.12-.13-.29-.2-.46-.18-.18.01-.37.08-.57.19-.11.06-.25.03-.33-.07l-.4-.55c-.09-.12-.07-.29.05-.38,0,0,0,0,0,0l4.71-3.48c.29-.21.69-.15.91.14.16.22.17.52.02.74l-.13.2c-.08.11-.1.25-.07.38.7,2.78,9.24,8.26,10.84,3.83.27-.74.05-1.51-.64-2.3-1.78-2.03-4.93-3.97-7.11-6.39-2.17-2.42-2.66-5.3-.5-7.93,4.33-5.28,13.21-.28,16.39,3.65.61.76,1.21,1.74,2.21,1.43.16-.05.33,0,.43.14l.28.38c.07.09.05.21-.04.28,0,0-.02.01-.03.02Z"/>
      <path class="cls-2" d="M174.33,80.69c37.71,0,74.92,10.22,107.12,30.13.36.23.47.7.24,1.06,0,0,0,.01-.01.02l-.79,1.19c-.25.36-.73.47-1.11.24-31.77-19.45-67.93-29.59-105.45-29.59s-73.68,10.14-105.45,29.6c-.37.23-.86.12-1.11-.24l-.79-1.19c-.24-.35-.14-.83.22-1.07,0,0,.01,0,.02-.01,32.2-19.91,69.42-30.13,107.12-30.13Z"/>
      <path class="cls-2" d="M292.8,91.64c0,2.3-1.87,4.17-4.17,4.17h0c-2.3,0-4.17-1.87-4.17-4.17h0c0-2.3,1.87-4.17,4.17-4.17h0c2.3,0,4.17,1.87,4.17,4.17h0ZM288.64,94.34l-.5-.34c-.18-.12-.26-.33-.2-.54l.32-1.22c.03-.12-.04-.25-.16-.28-.09-.02-.19.01-.25.09l-.63.94c-.1.16-.32.2-.47.1l-.51-.34c-.18-.12-.23-.37-.11-.56l2.2-3.29c.05-.08.03-.18-.05-.22-.04-.02-.08-.03-.12-.02-1.65.37-2.8,1.77-2.49,3.48.25,1.37,1.18,2.22,2.81,2.56.11.02.22-.05.24-.16.02-.08-.02-.16-.08-.2ZM288.8,88.83s.44.3,1.31.88c1,.67,1.12,1.52.33,2.55-.05.07-.12.12-.2.15l-.55.21c-.09.04-.16.11-.18.21l-.44,1.64c-.02.09.03.18.12.2.04,0,.07,0,.1,0,1.98-.87,2.7-2.19,2.17-3.95-.32-1.06-1.15-1.75-2.51-2.09-.08-.02-.16.03-.17.11,0,.03,0,.07.01.1ZM288.72,90.63c-.07.11.05.32.27.47,0,0,0,0,0,0,.22.15.46.18.54.07.07-.11-.05-.32-.27-.47,0,0,0,0,0,0-.22-.15-.46-.18-.54-.07Z"/>
      <path class="cls-2" d="M169.18,99.08l3.5-.17c.2,0,.36.14.37.34,0,0,0,0,0,0l.04.83c0,.2-.14.36-.34.37,0,0,0,0,0,0l-5.46.27c-.2,0-.36-.14-.37-.34h0s-.46-9.47-.46-9.47c0-.2.14-.36.34-.37,0,0,0,0,0,0l5.83-.28c.2-.01.36.14.37.34,0,.05,0,.09-.02.13l-.3.89c-.05.14-.17.23-.32.24l-3.47.17c-.2,0-.35.18-.34.37,0,0,0,0,0,0l.09,1.82c0,.2.18.35.37.34,0,0,0,0,0,0l2.87-.14c.2,0,.36.14.37.34,0,0,0,0,0,0l.04.82c0,.2-.14.36-.34.37,0,0,0,0,0,0l-2.92.14c-.2,0-.35.18-.34.37,0,0,0,0,0,0l.11,2.29c0,.2.18.35.37.34,0,0,0,0,0,0Z"/>
      <path class="cls-2" d="M154.1,96.65c.3,2.55,1.33,4.85,4.16,2.6.23-.19.57-.18.79.02l.35.31c.24.2.26.56.06.79-.01.02-.03.03-.05.05-.81.75-1.75,1.17-2.82,1.27-3.14.27-4.33-2.07-4.65-4.78-.32-2.71.29-5.27,3.41-5.74,1.07-.16,2.08.03,3.04.57.27.15.37.49.22.77-.01.02-.02.04-.04.06l-.27.38c-.17.24-.5.33-.77.2-3.27-1.53-3.74.96-3.44,3.51Z"/>
      <path class="cls-2" d="M192.09,94.54l-.32-.83c-.06-.14.01-.3.15-.35,0,0,0,0,0,0l3.58-1.39s.08-.02.13-.02l.98.11c.15.02.26.15.24.3,0,0,0,0,0,0l-.82,7.53c-.02.15.09.28.24.3,0,0,0,0,0,0l1.13.12c.15.02.26.15.24.3,0,0,0,0,0,0l-.1.92c-.02.15-.15.26-.3.24,0,0,0,0,0,0l-4.87-.53c-.15-.02-.26-.15-.24-.3,0,0,0,0,0,0l.1-.92c.02-.15.15-.25.3-.24l1.32.14c.15.02.28-.09.3-.24,0,0,0,0,0,0l.6-5.46c.02-.15-.09-.28-.24-.3-.04,0-.09,0-.13.02l-1.93.75c-.14.06-.3-.01-.35-.15,0,0,0,0,0,0Z"/>
      <path class="cls-2" d="M142.5,99.32l-.95-5.46c-.04-.27.14-.53.41-.57l.82-.14c.32-.06.63.16.68.48l1.58,9.08c.03.16-.06.31-.21.37-.47.19-.89.28-1.26.28-.18,0-.35-.08-.46-.22l-4.72-5.49s-.09-.04-.12,0c-.02.02-.03.05-.03.08l1.26,5.89c.07.3-.13.6-.43.67,0,0-.01,0-.02,0l-.79.14c-.28.05-.55-.13-.61-.41l-1.93-9.05c-.05-.22.09-.44.32-.49l1.35-.28c.24-.05.48.03.64.21l4.31,5.02s.11.05.15,0c.03-.02.04-.06.03-.1Z"/>
      <path class="cls-2" d="M209.97,100.59c-1.64.27-2.84-.21-3.6-1.42-.92-1.48-.43-3.76,1.05-4.78.78-.53,1.69-.71,2.73-.54,1.98.33,2.99,1.57,2.92,3.62-.14,3.8-2.91,7.5-7.12,5.57-.36-.16-.52-.58-.36-.95.13-.3.45-.47.77-.41,1.42.24,2.89.66,3.73-.91.03-.06,0-.14-.05-.17-.02-.01-.05-.02-.08-.01ZM209.96,95.36c-.87-.19-1.76.52-1.99,1.57s.3,2.06,1.17,2.25c.87.19,1.76-.52,1.99-1.57.23-1.06-.3-2.06-1.17-2.25Z"/>
      <path class="cls-2" d="M127.49,101.76c.53,1.92.82,2.97.89,3.15.06.18.25.29.44.23l.92-.26c.19-.05.39.03.49.2.19.33.26.59.23.8-.04.19-.17.35-.35.42-.16.06-.91.27-2.23.64-1.32.37-2.07.56-2.24.59-.19.03-.38-.03-.51-.18-.13-.16-.21-.43-.21-.81,0-.2.13-.37.32-.42l.92-.25c.19-.05.3-.23.26-.42-.04-.19-.33-1.25-.86-3.17-.53-1.92-.82-2.97-.89-3.15-.06-.18-.25-.28-.43-.23l-.92.26c-.19.05-.39-.03-.49-.2-.19-.33-.26-.59-.23-.8.04-.19.17-.35.35-.42.16-.06.91-.27,2.23-.64,1.32-.37,2.07-.56,2.24-.59.19-.03.38.03.51.18.14.16.21.43.21.81,0,.2-.13.37-.32.42l-.92.25c-.18.05-.3.23-.25.42.04.19.33,1.25.85,3.17Z"/>
      <path class="cls-2" d="M225.5,99.18l-3.84-1.03c-.26-.07-.42-.34-.35-.6l.15-.56c.07-.26.34-.42.61-.35,0,0,0,0,0,0l5.81,1.56c.33.09.53.43.44.77-.02.09-.07.18-.13.25l-6.03,7.01c-.19.22-.5.32-.78.24l-.82-.22c-.26-.07-.42-.34-.35-.6.02-.07.05-.14.1-.19l5.24-6.08s.04-.11,0-.15c-.01-.01-.03-.02-.05-.02Z"/>
      <path class="cls-2" d="M115.22,100.66c.22.03.39.23.37.45l-.04.67c-.01.27-.24.47-.51.46,0,0-.01,0-.02,0-.99-.07-3.58.19-3.58,1.44,0,.55.39,1.01.92,1.07,1.94.22,3.02.36,3.25.4,1.71.36,2.8,1.59,2.4,3.33-.57,2.48-4,3.26-6.15,3.04-.2-.02-.35-.19-.34-.39l.04-.79c.01-.23.2-.41.43-.4,1.27.03,2.66-.04,3.64-.84.12-.1.22-.23.28-.37.51-1.21-.49-1.72-1.57-1.84-1.41-.17-2.17-.26-2.27-.27-2.76-.21-3.71-3.04-1.47-4.75,1.36-1.04,2.9-1.44,4.62-1.2Z"/>
      <path class="cls-2" d="M239.94,106.89c.51.79.72,1.44.62,1.97-.71,3.93-5.34,2.4-7.35.78-.21-.16-.24-.46-.08-.67.02-.02.04-.05.06-.06l.47-.41c.22-.19.54-.19.76,0,1.08.93,3.86,2.23,4.18-.1.06-.46-.26-.97-.81-1.26-.55-.3-1.04-.51-1.45-.63-.25-.08-.4-.34-.33-.6l.14-.51c.07-.26.34-.42.61-.35,0,0,.02,0,.02,0,.99.32,2.15.79,2.87-.21.29-.4.2-.96-.19-1.27-.76-.58-1.58-.7-2.47-.36-.28.11-.6.03-.8-.2l-.4-.46c-.17-.19-.15-.49.05-.65.03-.03.07-.05.1-.07,1.63-.75,3.89-.39,5.14,1.01,1.16,1.29.72,3.43-1.03,3.76-.1.02-.17.12-.15.22,0,.02.01.05.03.07Z"/>
      <path class="cls-2" d="M67.53,134.5c.13,0,.27,0,.39.03.15.02.28.13.32.27l2.09,6.17s.07.07.11.05c.03,0,.05-.03.05-.06l2-6.38s.05-.07.1-.07h1.52s.06.03.06.06c0,0,0,.01,0,.02l-2.92,8.62c-.15.46-.65.71-1.11.56-.26-.09-.47-.29-.56-.55-.06-.18-.72-2.09-1.96-5.73-.02-.06-.05-.08-.09-.08s-.07.03-.09.08c-1.24,3.64-1.89,5.55-1.96,5.73-.16.46-.66.71-1.12.55-.26-.09-.47-.29-.55-.56l-2.94-8.62s0-.07.04-.08c0,0,.01,0,.02,0h1.52s.08.03.1.07l2.01,6.38s.06.07.11.06c.03,0,.05-.03.06-.05l2.08-6.17c.05-.15.18-.25.33-.27.13-.02.26-.03.39-.03Z"/>
      <path class="cls-2" d="M102.47,134.63c.04,1.52.16,3.26-1.84,3.44-.12.01-.22-.07-.24-.19,0,0,0-.02,0-.02v-.24c0-.15.11-.28.27-.29.33-.04.58-.25.74-.63.07-.15,0-.32-.15-.39-.06-.02-.13-.04-.24-.04-.16,0-.3-.13-.3-.3v-1.31c0-.09.07-.16.16-.16h1.45c.08,0,.14.06.14.14h0Z"/>
      <path class="cls-2" d="M116.02,138.76h4.1c.12,0,.21.09.21.21h0v1.02c0,.12-.09.21-.21.21h-4.09c-.12,0-.21.09-.21.21h0v3.08c0,.12-.09.21-.21.21h-1.1c-.12,0-.21-.09-.21-.21v-8.77c0-.12.09-.21.21-.21h6.15c.12,0,.21.09.21.21h0v1.01c0,.12-.09.21-.21.21h-4.64c-.12,0-.21.09-.21.21v2.4c0,.12.09.21.21.21h0Z"/>
      <rect class="cls-2" x="122.73" y="134.4" width="1.43" height="1.64" rx=".43" ry=".43" transform="translate(-12.2 258.2) rotate(-89.8)"/>
      <path class="cls-2" d="M158.75,141.03v2.46c0,.12-.1.21-.21.21h-1.07c-.13,0-.23-.1-.23-.23h0v-8.69c0-.15.13-.28.28-.28h0c2.8-.03,6.02-.49,6.62,2.28.46,2.14-.77,3.66-2.87,3.92-.47.06-1.21.07-2.22.04-.16,0-.29.12-.29.28,0,0,0,0,0,0ZM158.74,136.11l.02,3.03c0,.1.08.18.18.18,0,0,0,0,0,0h1.86c1.08-.02,1.95-.77,1.94-1.68v-.09c0-.91-.89-1.65-1.96-1.64,0,0,0,0,0,0h-1.86c-.1.02-.18.1-.18.19Z"/>
      <path class="cls-2" d="M213.25,138.72c.11-.06.16-.21.09-.32,0,0,0,0,0-.01-.91-1.49-.74-2.64.5-3.46,1.98-1.31,4.94.6,3.47,2.99-.16.26-.61.58-1.34.96-.09.05-.12.15-.08.24,0,.01.01.02.02.03l1.06,1.24c.08.09.21.1.3.02.01-.01.03-.03.04-.04l.95-1.41c.05-.08.16-.1.24-.05,0,0,0,0,0,0l.74.5c.11.07.15.22.07.34,0,0,0,0,0,0l-.95,1.42c-.09.14-.08.33.03.46l1.02,1.19c.05.06.05.16-.01.21,0,0,0,0-.01,0l-.78.58c-.11.08-.27.07-.37-.04l-.77-.9c-.1-.11-.27-.13-.39-.03-1.46,1.22-2.99,1.37-4.6.45-.14-.08-.25-.19-.34-.32-1.05-1.71-.68-3.06,1.11-4.06ZM214.84,138.06c.18.06.5-.08.97-.41.73-.52.58-1.67-.27-1.93-.85-.25-1.61.64-1.28,1.46.21.53.4.82.58.88ZM216.03,141.41l-1.33-1.54c-.21-.24-.57-.28-.82-.08-1.07.86-1.12,1.64-.14,2.36.4.29.92.36,1.38.18l.75-.29c.2-.08.3-.31.22-.51-.02-.04-.04-.08-.07-.11Z"/>
      <path class="cls-2" d="M226.75,140.74c-.16,0-.29.12-.29.28,0,0,0,0,0,0v2.45c0,.12-.1.21-.21.21h-1.07c-.13,0-.23-.1-.23-.23v-8.68c0-.15.13-.28.28-.28,2.79-.03,6.01-.49,6.61,2.28.46,2.14-.77,3.66-2.87,3.91-.46.06-1.2.07-2.21.04ZM226.47,136.08v3.08c.01.08.08.15.16.15h1.94c1.03,0,1.87-.75,1.87-1.66,0,0,0,0,0,0v-.08c0-.91-.84-1.65-1.88-1.64h-1.94c-.08,0-.15.07-.15.16,0,0,0,0,0,0Z"/>
      <path class="cls-2" d="M108.44,137.37c.1.06.14.18.08.28,0,0,0,0,0,.01l-.48.72c-.06.09-.17.12-.26.07-.68-.39-1.81-.84-2.51-.27-.24.2-.27.55-.08.79.06.08.15.14.24.17,1.37.5,2.48.7,3.05,1.55.66.96.04,2.38-.96,2.72-1.4.48-2.73.27-4-.64-.1-.07-.12-.21-.06-.31l.43-.64c.06-.1.2-.13.3-.06,0,0,0,0,.01,0,.64.5,2.48,1.24,3.05.26.15-.27.03-.62-.27-.79-.02,0-.03-.02-.05-.03-.69-.32-3.05-.67-3.26-2.09-.24-1.53,1.1-2.46,2.53-2.38.79.04,1.54.26,2.23.64Z"/>
      <path class="cls-2" d="M206.41,137.34c.1.05.14.18.08.28,0,0,0,0,0,.01l-.49.73c-.06.09-.17.12-.27.07-.69-.39-1.83-.85-2.55-.27-.24.2-.28.56-.08.8.07.08.15.14.25.18,1.39.5,2.51.71,3.1,1.57.67.98.03,2.42-.97,2.76-1.42.49-2.77.27-4.06-.65-.1-.07-.13-.21-.06-.32l.43-.65c.07-.1.2-.13.3-.06,0,0,.01,0,.02.01.64.51,2.51,1.26,3.1.26.16-.27.04-.63-.27-.8-.02,0-.03-.02-.05-.03-.71-.32-3.1-.68-3.32-2.12-.24-1.55,1.12-2.49,2.57-2.41.8.04,1.56.26,2.27.64Z"/>
      <path class="cls-2" d="M234.78,137.88c.04.08.14.11.22.07.03-.01.05-.04.07-.07.37-.74,1.02-1.14,1.94-1.2.1,0,.19.07.2.17,0,0,0,0,0,.01v1.24c0,.1-.08.18-.18.19-2.69.17-2.3,3.18-2.21,5.13,0,.14-.1.25-.24.25,0,0,0,0,0,0h-1.08c-.12,0-.21-.1-.21-.21v-6.55c-.01-.13.09-.23.22-.23h1.06c.15,0,.26.12.26.26,0,0,0,0,0,.01-.04.59-.06.89-.04.92Z"/>
    </g>
    <g>
      <path class="cls-1" d="M97.29,142.72c-1.41,1.17-2.73,1.3-3.97.39-3.33-2.45-.14-8.76,3.87-5.56.07.06.18.04.23-.03.02-.03.04-.06.03-.1v-2.97c0-.09.07-.16.16-.16h1.16c.11,0,.19.09.19.19h0v8.99c0,.12-.1.22-.22.22h-1.07c-.12,0-.22-.1-.22-.22v-.67c0-.05-.04-.1-.1-.1-.02,0-.05,0-.06.02ZM95.45,137.99c-1.11,0-2.01,1-2,2.22.01,1.21.92,2.19,2.03,2.18h0c1.11,0,2.01-1,2-2.22-.01-1.21-.92-2.19-2.03-2.18Z"/>
      <rect class="cls-1" x="88.69" y="134.38" width="1.52" height="9.31" rx=".38" ry=".38"/>
      <rect class="cls-1" x="254.17" y="134.39" width="1.44" height="1.65" rx=".4" ry=".4" transform="translate(117.01 388.68) rotate(-89.4)"/>
      <rect class="cls-1" x="264.25" y="134.39" width="1.44" height="1.65" rx=".41" ry=".41" transform="translate(126.52 398.51) rotate(-89.3)"/>
      <path class="cls-1" d="M151.67,142.2s.06,0,.07.03c0,0,0,.01,0,.02v1.01c0,.08-.04.16-.11.19-1.13.5-3.03.37-3.1-1.28-.08-1.86-.09-3.15-.05-3.86.01-.15-.1-.29-.26-.3,0,0-.02,0-.03,0h-.35c-.15,0-.27-.11-.28-.26,0,0,0,0,0,0v-.82c0-.12.09-.21.2-.21,0,0,0,0,0,0h.41c.16,0,.28-.13.28-.28,0,0,0,0,0,0v-1.37c0-.12.09-.22.21-.22h1.04c.13-.01.24.09.25.22,0,0,0,0,0,0v1.41c0,.13.11.23.24.23h1.31c.12,0,.21.09.21.2v.89c0,.13-.1.23-.22.23h-1.27c-.15,0-.28.13-.28.28l.02,3.43c0,.12.04.24.11.33.32.41.84.46,1.56.15Z"/>
      <path class="cls-1" d="M200.09,142.21s.06,0,.07.03c0,0,0,.01,0,.02v1.01c0,.08-.05.16-.12.19-1.13.49-3.03.35-3.08-1.3-.06-1.86-.07-3.14-.03-3.85.01-.15-.1-.29-.26-.3,0,0-.02,0-.02,0h-.35c-.15,0-.27-.12-.27-.27h0v-.82c0-.12.09-.21.21-.21h.41c.16,0,.28-.13.28-.28v-1.37c0-.12.1-.22.22-.22h1.04c.13,0,.24.11.24.24v1.41c0,.13.1.23.23.23h1.31c.12,0,.21.09.21.21v.88c0,.13-.1.23-.22.23h-1.27c-.15,0-.28.12-.28.28h0v3.43c0,.12.04.24.11.33.32.41.84.47,1.55.16Z"/>
      <path class="cls-1" d="M81.86,139.84c.19,1.93-1.26,3.65-3.25,3.85-1.99.2-3.75-1.2-3.95-3.13h0c-.19-1.93,1.26-3.65,3.25-3.85,1.99-.2,3.75,1.2,3.95,3.13h0ZM78.01,138.01c-1.15.14-1.97,1.22-1.83,2.43h0c.14,1.21,1.19,2.07,2.34,1.94,1.15-.14,1.97-1.22,1.83-2.43h0c-.14-1.21-1.19-2.07-2.34-1.94Z"/>
      <path class="cls-1" d="M84.98,137.89c.38-.74,1.03-1.14,1.95-1.2.1,0,.19.07.2.17,0,0,0,0,0,.01v1.25c0,.1-.08.18-.18.19-2.69.17-2.31,3.19-2.22,5.14,0,.14-.1.25-.23.25,0,0,0,0,0,0h-1.08c-.12,0-.22-.1-.22-.22v-6.57c0-.13.11-.23.24-.23h1.06c.15,0,.26.12.26.26,0,0,0,.01,0,.02-.04.59-.06.89-.05.92.04.08.14.11.22.07.03-.01.05-.04.07-.07Z"/>
      <rect class="cls-1" x="122.63" y="136.69" width="1.52" height="7" rx=".41" ry=".41"/>
      <path class="cls-1" d="M127.66,137.49c0,.08.06.14.14.15.04,0,.07-.01.1-.04,1.7-1.61,4.14-1.01,4.35,1.49,0,.05.01,1.52.03,4.41,0,.12-.1.21-.21.21h-1.1c-.12,0-.21-.09-.21-.21v-3.97c-.01-.76-.63-1.38-1.4-1.38-.03,0-.06,0-.1,0l-.19.02c-.8.06-1.42.72-1.42,1.52v3.83c.02.11-.08.21-.19.21,0,0,0,0,0,0h-1.1c-.11,0-.2-.08-.21-.19,0,0,0,0,0,0l-.02-6.59c0-.13.1-.23.22-.23,0,0,0,0,0,0h1.07c.13,0,.24.1.24.23,0,0,0,0,0,0v.56Z"/>
      <path class="cls-1" d="M140.07,140.76h-4.48c-.13,0-.24.11-.24.24,0,.04.01.08.03.11.84,1.54,2.11,1.73,3.79.58.03-.02.08-.02.11,0,.29.22.53.48.71.79.02.04.02.08-.02.11-1.59,1.45-4.03,1.56-5.41-.14-1.67-2.05-.5-5.58,2.34-5.76,2.27-.14,3.43,1.6,3.47,3.76,0,.16-.13.3-.29.3,0,0,0,0,0,0ZM135.47,139.76h3.22s.08-.05.08-.09h0v-.05c0-.89-.74-1.61-1.66-1.61h-.08c-.91,0-1.66.72-1.66,1.62,0,0,0,0,0,0v.05s.04.08.08.08h0Z"/>
      <path class="cls-1" d="M146.39,137.33c.1.05.14.18.08.28,0,0,0,0,0,.01l-.49.73c-.06.09-.17.12-.27.07-.69-.39-1.83-.85-2.55-.27-.24.2-.28.56-.08.8.07.08.15.14.25.18,1.39.5,2.51.71,3.1,1.57.67.98.03,2.42-.97,2.76-1.42.49-2.77.27-4.07-.65-.1-.07-.13-.21-.06-.32l.44-.65c.07-.1.2-.13.3-.06,0,0,.01,0,.02.01.64.51,2.51,1.26,3.1.26.16-.27.04-.63-.27-.8-.02,0-.03-.02-.05-.03-.71-.32-3.1-.68-3.32-2.12-.24-1.56,1.12-2.49,2.57-2.41.8.04,1.56.26,2.27.64Z"/>
      <path class="cls-1" d="M171.92,140.46c0,.16-.13.3-.29.3,0,0,0,0,0,0h-4.48c-.13,0-.24.11-.24.24,0,.04.01.08.03.11.85,1.54,2.11,1.73,3.79.58.03-.02.08-.02.11,0,.29.22.53.48.71.78.02.04.02.08-.02.11-1.59,1.45-4.03,1.56-5.4-.13-1.67-2.05-.5-5.57,2.34-5.76,2.26-.15,3.42,1.59,3.47,3.75ZM167.02,139.75h3.22s.08-.04.08-.08h0v-.05c0-.89-.74-1.62-1.65-1.62h-.09c-.91,0-1.65.72-1.65,1.62v.05s.04.08.08.08h0Z"/>
      <path class="cls-1" d="M173.92,138.45c-.05.03-.12,0-.15-.05,0,0,0,0,0-.01l-.35-1.03c-.03-.08.01-.17.09-.2,2.03-.78,4.83-.9,5.37,1.8.01.07.02.13.02.2v4.31c0,.13-.11.23-.24.23h-1.04c-.14,0-.25-.11-.26-.25,0,0,0-.02,0-.03,0-.1,0-.18,0-.23-.03-.11-.15-.18-.26-.14-.02,0-.04.02-.06.03-1.12.77-2.23.84-3.35.21-.58-.33-.88-.82-.88-1.45-.02-2.22,2.32-2.56,4.04-2.13.23.06.46-.08.52-.31.02-.08.02-.16,0-.24l-.07-.22c-.17-.49-.61-.84-1.13-.89-.81-.08-1.56.06-2.25.42ZM177.16,140.78c-.88-.19-1.59-.2-2.15-.03-.47.14-.79.59-.7.99.02.1.07.19.13.26.75.9,3.03.64,2.96-.94,0-.14-.1-.26-.24-.29Z"/>
      <path class="cls-1" d="M182.46,137.59c1.7-1.6,4.13-.99,4.32,1.5,0,.05,0,1.51.01,4.39,0,.12-.1.21-.21.21h-1.09c-.12,0-.21-.1-.21-.22v-3.95c0-.76-.62-1.38-1.38-1.38-.03,0-.06,0-.09,0h-.19c-.8.06-1.41.72-1.42,1.52v3.81c0,.11-.09.21-.21.21h-1.1c-.11,0-.2-.09-.2-.2v-6.56c0-.13.1-.23.23-.23h1.06c.13,0,.24.11.24.24h0v.56c0,.08.06.14.14.14.04,0,.07-.01.1-.04Z"/>
      <path class="cls-1" d="M193.15,142.91c0-.08-.06-.14-.14-.14-.04,0-.07.01-.1.04-1.69,1.6-4.12,1-4.32-1.5,0-.05,0-1.51-.01-4.38,0-.12.1-.21.21-.21h1.09c.12,0,.21.1.21.22v3.95c0,.76.61,1.38,1.37,1.38.03,0,.06,0,.1,0h.19c.8-.06,1.42-.72,1.42-1.52v-3.81c0-.11.09-.21.21-.21h1.1c.11,0,.2.09.2.2h0s0,6.56,0,6.56c0,.13-.1.23-.23.23h-1.06c-.13,0-.24-.11-.24-.24h0v-.56Z"/>
      <path class="cls-1" d="M245.28,139.84c.19,1.93-1.26,3.65-3.25,3.85s-3.75-1.2-3.95-3.13h0c-.19-1.93,1.26-3.65,3.25-3.85,1.99-.2,3.75,1.2,3.95,3.13h0ZM243.84,140.19c0-1.19-.96-2.15-2.15-2.15h0c-1.19,0-2.15.96-2.15,2.15h0c0,1.19.96,2.15,2.15,2.15h0c1.19,0,2.15-.96,2.15-2.15h0Z"/>
      <path class="cls-1" d="M249.21,141.66s.07-.06.12-.19c.57-1.6,1.12-3.16,1.65-4.68.03-.08.11-.14.2-.13l1.32.07c.05,0,.09.05.09.1,0,0,0,.02,0,.03l-2.56,6.55c-.05.13-.16.23-.29.28-.02,0-.19.01-.52.01s-.5,0-.52-.01c-.13-.05-.24-.15-.29-.28l-2.57-6.54s0-.11.05-.12c0,0,.02,0,.03,0l1.31-.07c.09,0,.17.05.21.13.54,1.52,1.09,3.08,1.66,4.68.05.13.09.19.12.19Z"/>
      <rect class="cls-1" x="254.07" y="136.69" width="1.52" height="7.01" rx=".37" ry=".37"/>
      <path class="cls-1" d="M262.23,137.36c.1.06.14.18.08.28,0,0,0,0,0,.01l-.48.72c-.06.09-.17.11-.26.06-.68-.38-1.81-.84-2.51-.26-.24.2-.27.55-.08.79.06.08.15.14.24.17,1.37.49,2.47.7,3.05,1.54.66.96.04,2.38-.96,2.73-1.4.48-2.73.27-4-.64-.1-.07-.12-.21-.06-.31l.43-.64c.06-.1.2-.13.3-.06,0,0,0,0,.01,0,.64.5,2.48,1.24,3.05.26.15-.27.03-.62-.27-.79-.02,0-.03-.02-.05-.03-.7-.32-3.05-.67-3.27-2.09-.24-1.53,1.1-2.46,2.53-2.38.79.04,1.54.25,2.23.63Z"/>
      <rect class="cls-1" x="264.15" y="136.69" width="1.52" height="7.01" rx=".4" ry=".4"/>
      <path class="cls-1" d="M274.64,139.87c.17,1.93-1.3,3.64-3.29,3.82-1.99.18-3.74-1.24-3.91-3.17-.17-1.93,1.3-3.64,3.29-3.82h0c1.99-.18,3.74,1.24,3.91,3.17ZM270.72,138.01c-1.14.17-1.93,1.28-1.75,2.48h0c.18,1.2,1.25,2.04,2.4,1.87h0c1.14-.17,1.93-1.28,1.75-2.48-.18-1.2-1.25-2.04-2.4-1.87h0Z"/>
      <path class="cls-1" d="M277.5,137.49c0,.08.06.14.14.15.04,0,.07-.01.1-.04,1.7-1.61,4.14-1.01,4.35,1.5,0,.05.01,1.52.02,4.41,0,.12-.1.21-.21.21h-1.09c-.12,0-.21-.09-.21-.21v-3.97c-.02-.76-.64-1.38-1.4-1.38-.03,0-.06,0-.09,0h-.2c-.8.07-1.42.73-1.42,1.53v3.83c0,.11-.09.21-.2.21h-1.1c-.11,0-.2-.09-.2-.2l-.02-6.6c0-.13.1-.23.23-.23h1.07c.13,0,.24.1.24.23v.56Z"/>
      <path class="cls-1" d="M288.52,137.36c.1.06.13.18.08.28,0,0,0,0,0,.01l-.48.72c-.06.09-.17.11-.26.06-.68-.38-1.8-.84-2.51-.27-.24.2-.28.55-.08.79.07.08.15.14.25.17,1.37.49,2.47.7,3.05,1.54.66.96.03,2.38-.96,2.72-1.4.48-2.73.27-4-.64-.1-.07-.12-.21-.06-.31l.43-.64c.06-.1.2-.13.3-.06,0,0,0,0,.01,0,.64.51,2.48,1.24,3.05.26.15-.27.03-.62-.27-.79-.02,0-.03-.02-.05-.03-.69-.32-3.05-.67-3.26-2.09-.24-1.53,1.1-2.45,2.53-2.37.79.04,1.53.25,2.23.63Z"/>
    </g>
  </g>
  <path class="cls-3" d="M195.15,74.15c1.93,0,1.93-3,0-3s-1.93,3,0,3h0Z"/>
</svg>