<?xml version="1.0" encoding="UTF-8"?>
<svg id="Layer_1" data-name="Layer 1" xmlns="http://www.w3.org/2000/svg" viewBox="0 0 352.3 165.34">
  <defs>
    <style>
      .cls-1 {
        fill: #205fad;
      }
    </style>
  </defs>
  <path class="cls-1" d="M82.19,43.72c.07,0,.13.06.13.13v26.43c0,.19-.15.34-.34.35-.8.01-4.16.01-10.07,0-2.4,0-4.37.25-4.93,2.7-.62,2.71,1.49,3.88,3.64,4.62,1.37.48,4.04,1.23,5.61,2.08,5.88,3.17,8.14,9.28,8.89,15.67.56,4.78.58,9.64.05,14.57-1,9.38-4.82,19.06-15.21,21.06-1.21.23-4.13.34-8.76.33-7.93-.02-14.5-.03-19.71-.02-.24,0-.43-.19-.43-.43h0v-40.6c0-.05.04-.09.09-.09h0c7.82,0,13.4,0,16.74,0,1.18,0,1.96-.1,2.35-.31,1.56-.85,1.96-3.45.09-4.29-.94-.42-2.31-.95-4.11-1.59-3.27-1.16-5.62-3.3-7.05-6.42-2.24-4.89-2.73-10.48-2.43-16.02.5-9.35,4.62-17.09,14.77-18.09.62-.06,2.32-.09,5.08-.1,7.61-.01,12.8,0,15.6.02Z"/>
  <path class="cls-1" d="M131.44,70.81h-14.81c-.09,0-.17.08-.17.17h0v5.47c0,.09.08.17.17.17h13.76c.09,0,.17.08.17.17h0v7.49c0,.09-.08.17-.17.17h-13.77c-.09,0-.17.08-.17.17v5.71c0,.09.08.17.17.17h15.91c.09,0,.17.08.17.17h0v40.78c0,.09-.08.17-.17.17h-39.4c-.09,0-.17-.08-.17-.17h0V43.86c0-.09.08-.17.17-.17h38.29c.09,0,.17.08.17.17v26.78c0,.09-.08.17-.17.17Z"/>
  <path class="cls-1" d="M172.98,111.88s-.02-.05-.05-.06c-.02,0-.04,0-.05.03l-11.21,19.42c-.13.22-.36.36-.62.36h-20.44c-.21,0-.39-.17-.39-.38,0-.77,0-11.29,0-31.57,0-.46.11-.89.34-1.31,8.34-15.72,17.95-33.85,28.84-54.39.09-.17.26-.27.45-.27h24.34c.06,0,.11.05.11.11h0v87.62c0,.11-.09.19-.19.19h-20.9c-.12,0-.21-.1-.21-.21h0v-19.53Z"/>
  <path class="cls-1" d="M226.7,111.86s-.03-.02-.05-.01c-.01,0-.02.02-.02.03v19.55c0,.11-.09.2-.19.2h-24.25c-.23,0-.42-.19-.42-.42h0V43.83c0-.07.05-.12.12-.12h0c14.98-.03,24.69-.02,29.11.02,2.45.02,4.94.47,7.48,1.35,14.6,5.07,18.64,22.75,12.03,35.53-1.95,3.77-4.73,7.02-8.32,9.73-.04.03-.05.09-.02.13.02.03.05.04.08.04h13.37c.1,0,.18.08.18.18v40.53c0,.23-.18.41-.41.41h-16.97c-.18,0-.35-.1-.44-.25l-11.27-19.52Z"/>
  <path class="cls-1" d="M289.62,43.7c17.71.02,25.56,17.72,27.7,32.46.55,3.75.82,7.59.81,11.51,0,3.93-.28,7.76-.83,11.51-2.17,14.74-10.06,32.42-27.76,32.41-17.71-.02-25.56-17.72-27.7-32.46-.55-3.75-.82-7.58-.81-11.51,0-3.93.28-7.76.83-11.51,2.17-14.74,10.05-32.42,27.76-32.41Z"/>
</svg>