<?xml version="1.0" encoding="UTF-8"?>
<svg id="Layer_1" data-name="Layer 1" xmlns="http://www.w3.org/2000/svg" viewBox="0 0 352.3 165.34">
  <defs>
    <style>
      .cls-1 {
        fill: #469dac;
      }

      .cls-2 {
        fill: #0f0c08;
      }
    </style>
  </defs>
  <g>
    <path class="cls-1" d="M279.92,116.99c-3.44.44-5.91-.9-6.68-4.52-1.15-5.35.25-9.96,4.2-13.84.25-.24.56-.42.9-.51,4.96-1.31,8.09,4.2,7.94,8.42-.2,5.3-.83,7.24-5.52,10.17-.25.16-.54.25-.83.29ZM279.94,101.95c-2.83,2.11-5.19,9.28-1.62,12.15,1.52,1.22,3.15.25,3.74-1.26.08-.2.12-.42.1-.64-.08-1.28.06-3.06.41-5.34.3-1.92-.26-3.54-1.66-4.86-.27-.25-.68-.27-.97-.05Z"/>
    <path class="cls-1" d="M303.95,110.15v.34c.01.23.11.45.28.6,1.43,1.34,2.88,1.58,4.36.74.9-.51,1.35-1.1,1.36-1.77,0-.37-.38-.92-1.15-1.63-.14-.13-.3-.22-.46-.28-3.31-1.14-7.04-2.32-6.26-6.26.06-.3.19-.58.37-.82,2.11-2.84,4.69-3.84,7.73-2.99,1.25.35,2.02,1.55,1.71,2.68,0,.02-.01.04-.02.06-.16.51-.46,1.1-.9,1.78-.16.23-.47.3-.7.15-.02-.01-.04-.03-.06-.04-.92-.82-1.83-1.27-2.74-1.34-.53-.04-1,.36-1.04.89-.02.24.05.47.2.66.6.78,1.4,1.28,2.4,1.5,4.26.96,5.82,3.55,4.69,7.77-1.4,5.26-6.77,4.66-11.63,4.31-.24-.01-.42-.22-.4-.45,0-.02,0-.04,0-.06l1.37-5.93c.07-.24.32-.38.56-.32.19.05.32.21.33.41Z"/>
    <path class="cls-1" d="M315.57,100.7c-.13-.02-.2-.08-.2-.17-.01-.81.31-1.4.98-1.76,2.84-1.53,4.94-.9,6.3,1.91.2.43.19.99-.05,1.68-.04.11-.16.16-.27.13-.07-.02-.11-.08-.13-.14-.04-.17.01-.39.17-.66.13-.25.14-.54.02-.79-1.22-2.49-3.2-3.13-5.94-1.92-.41.18-.64.38-.67.59-.05.27-.03.55.05.86.04.12-.03.25-.15.28-.03,0-.07.01-.1,0Z"/>
    <path class="cls-1" d="M233.49,116.49l.73-16.96c.04-.82.69-1.47,1.5-1.49l.69-.02c.54-.01.99.41,1.01.94,0,0,0,0,0,0l.35,13.37c.01.42.37.76.79.75.05,0,.1,0,.15-.02l4.1-.95c.33-.08.67.13.75.46.03.11.02.23-.01.34-.31.95-.25,1.88.17,2.8.15.33.01.72-.31.87-.08.04-.17.06-.26.06l-9.26.24c-.21,0-.38-.16-.39-.37,0,0,0-.02,0-.03Z"/>
    <path class="cls-1" d="M112.02,116.98l.73-17.12c.02-.71.52-1.32,1.21-1.5l.23-.05c.58-.15,1.17.19,1.32.77.02.08.03.16.03.25l.35,13.29c.01.44.38.79.82.77.05,0,.11,0,.16-.02l4.68-1.08c.15-.04.3.06.34.21,0,.04.01.08,0,.12-.22,1.16-.12,2.36.3,3.6.14.43-.09.9-.52,1.04-.14.05-.28.06-.43.03-3-.64-5.7-.45-8.82.08-.2.03-.38-.11-.41-.3,0-.02,0-.04,0-.07Z"/>
    <path class="cls-1" d="M208.04,99.47c-.01-.48.37-.89.85-.9,0,0,0,0,0,0h.62c5.68-.14,10.37,3.96,10.49,9.13v.14c.12,5.18-4.39,9.48-10.06,9.61l-.62.02c-.48.01-.89-.37-.9-.85,0,0,0,0,0,0l-.38-17.14ZM212.53,103.18l-.19,10.85c0,.06.04.12.1.12,0,0,0,0,0,0h.05c1.9.03,3.48-2.37,3.53-5.38,0,0,0,0,0,0v-.19c.05-3-1.44-5.47-3.34-5.5,0,0,0,0,0,0h-.05c-.06,0-.11.05-.11.1Z"/>
    <path class="cls-1" d="M230.4,98.76l.23,3.18c0,.11-.07.2-.17.21,0,0-.02,0-.03,0l-3.85-.17c-.32-.01-.59.24-.6.55l-.09,2.1c0,.26.19.48.45.49.01,0,.03,0,.04,0,.83-.03,1.51-.19,2.06-.47.19-.1.43-.03.53.16.02.03.03.06.04.1l.79,3.39c.09.41-.16.81-.57.9-.06.01-.12.02-.19.02-.76-.01-1.32.04-1.65.15-.32.11-.54.4-.55.73l-.07,1.66c-.01.24.17.45.42.46,0,0,0,0,0,0l4.05.17c.27.01.48.24.46.51,0,0,0,0,0,0l-.15,3.59c0,.24-.17.45-.4.52-1.83.56-4,.83-6.52.81-2.23,0-2.66-1.19-2.77-3.24-.21-3.7-.21-8.36,0-13.98,0-.17.08-.48.24-.93.33-.98,1.39-1.51,2.37-1.18.02,0,.04.01.06.02,2.27.86,4.11.88,5.5.04.12-.07.27-.03.33.09.02.03.03.07.03.1Z"/>
    <path class="cls-1" d="M261.17,111.76c0-.23.18-.42.42-.42.04,0,.07,0,.11.01.54.14,1.17.12,1.87-.07.28-.07.56.09.63.37,0,.03.01.06.02.1.09,1.31-.08,2.73-.51,4.28-.08.31-.3.56-.59.68-2.18.91-4.48.73-6.9-.55-.23-.12-.43-.3-.57-.51-2.54-3.74-3.22-7.63-2.04-11.64.83-2.79,2.44-4.67,4.83-5.64.27-.11.56-.14.84-.09,1.64.31,2.96.8,3.96,1.48.28.19.39.55.26.87l-1.07,2.65c-.08.22-.33.33-.56.24-.06-.02-.11-.05-.15-.1-1.29-1.25-2.46-1.41-3.48-.48-.22.19-.38.45-.45.74-.77,3.06-1.47,9.93,2.82,9.79.34,0,.6-.29.59-.63,0,0,0,0,0,0l-.04-1.08Z"/>
    <path class="cls-1" d="M201.51,115.14c.16.17.15.43-.02.59-.06.05-.13.09-.21.11-.83.15-1.5.52-2,1.1-.27.3-.73.33-1.03.06-.02-.02-.05-.04-.07-.07l-1.82-2.15c-.3-.34-.8-.42-1.18-.17-2.3,1.5-4.52,1.51-6.66.03-.27-.19-.48-.45-.6-.76-.97-2.53-.36-4.83,1.85-6.91.21-.2.28-.51.17-.77-1.45-3.52-.03-8.01,4.28-7.73.31.02.6.15.83.35,1.95,1.76,2.01,3.82.16,6.19-.22.29-.54.58-.98.89-.26.19-.34.54-.17.82l1.27,2.2c.08.14.27.19.41.1.04-.02.07-.05.09-.08.65-1,1.7-.99,3.13.03.2.14.25.42.11.63,0,.01-.02.03-.03.04-2.69,3.18.97,3.95,2.48,5.51ZM192.15,104.85c.97-1.15,1.5-2.26,1.61-3.31.05-.45-.28-.86-.73-.9-.26-.03-.53.07-.7.27-.8.9-1.05,2.16-.73,3.8.03.17.2.28.37.25.07-.01.13-.05.18-.11ZM191.6,109.19c-.8,1.15-1.14,2.37-1.02,3.65.04.52.5.9,1.01.86.06,0,.12-.02.18-.03,1.13-.33,1.9-.82,2.3-1.49.18-.29.15-.67-.07-.93l-1.77-2.09c-.14-.17-.39-.19-.56-.04-.03.02-.05.05-.07.08Z"/>
    <path class="cls-1" d="M296.97,98.49l.58.17c1.01.31,1.69,1.24,1.69,2.29l-.1,11.86c0,.12-.03.23-.07.33-1.03,2.48-2.89,4.61-5.82,3.74-3.19-.94-4.59-3.66-5.07-6.89-.02-.16-.24-3.59-.66-10.29-.04-.53.36-.99.89-1.03.02,0,.03,0,.05,0l1.62-.04c.5-.01.91.38.93.88,0,.06,0,.13-.02.19-.75,3.94-.31,8.08,1.31,12.42.21.55.62.91,1.24,1.08.8.22,1.61-.19,1.82-.91.01-.04.02-.09.03-.14.13-.71.23-1.83.31-3.37.02-.48-.14-3.46-.5-8.96-.05-.74.51-1.37,1.25-1.42.17-.01.34.01.51.07Z"/>
    <path class="cls-1" d="M36.52,106.58l.27,10.52c0,.15-.1.27-.24.28l-3.44.24c-.16.01-.31-.11-.32-.27,0,0,0-.01,0-.02l-.48-18.19c0-.2.15-.38.36-.38,1.61-.1,2.83-.04,3.65.18.31.09.56.33.67.64,1.07,3.16,2.66,6.34,4.75,9.55.1.15.29.19.44.09.09-.06.15-.17.14-.28l-.67-9.28c-.02-.35.23-.65.58-.67,0,0,.02,0,.03,0l1.46-.03c.4-.01.73.29.75.68l1.19,16.54c.03.36-.24.68-.6.71-.01,0-.02,0-.04,0l-2.23.06c-.25,0-.49-.14-.59-.38l-1.5-3.42s-.03-.06-.04-.08l-3.73-6.61c-.07-.1-.2-.13-.3-.07-.06.04-.1.11-.1.18Z"/>
    <path class="cls-1" d="M101.64,116.06c-.02.49-.44.87-.93.85l-2.49-.1c-.42-.02-.76-.38-.74-.81,0-.02,0-.04,0-.06l2.01-16.48c.05-.47.48-.81.96-.75.03,0,.06,0,.09.02,1.66.37,3.18.46,4.56.26.54-.08,1.04.27,1.16.8l3.8,16.35c.13.55-.21,1.11-.77,1.24,0,0,0,0,0,0l-1.64.38c-.54.13-1.07-.21-1.2-.74h0s-1.18-5.07-1.18-5.07c-.18-.78-.83-1.37-1.63-1.46l-.79-.1c-.5-.06-.95.29-1.02.79,0,.03,0,.05,0,.08l-.2,4.81ZM102.38,105.35l-.33,1.46c-.06.25.09.5.34.56,0,0,0,0,0,0l1.15.26c.22.06.45-.08.51-.31.03-.11.01-.22-.05-.32l-1.01-1.75c-.1-.16-.3-.22-.46-.13-.08.05-.14.12-.16.22Z"/>
    <path class="cls-1" d="M172.02,111.11l.44,6.12c0,.08-.05.14-.13.15,0,0,0,0,0,0l-3.49.24c-.13,0-.23-.08-.24-.21,0,0,0,0,0,0l-.46-17.74c-.02-.43.31-.79.73-.82,3.41-.27,6.1.7,8.08,2.9.21.23.35.51.43.81.3,1.28.27,2.43-.07,3.45-.28.84-1.11,1.48-1.54,2.31-.07.14-.06.29,0,.42l3.74,6.48c.18.32.07.73-.25.91-.13.07-.27.1-.42.08-.51-.06-.8,0-.89.21-.16.38-.64.52-1.06.31-.1-.05-.2-.12-.28-.21-1.69-1.85-3.13-3.67-4.35-5.48-.04-.06-.13-.08-.2-.03-.04.03-.06.07-.06.12ZM172.47,102.85l-.15,3.74c0,.1.07.19.17.19,0,0,0,0,0,0h.08c.95.04,1.76-.78,1.8-1.82l.02-.31c.04-1.05-.7-1.93-1.65-1.97,0,0,0,0,0,0h-.07c-.1-.01-.19.06-.19.17,0,0,0,0,0,0Z"/>
    <rect class="cls-1" x="245.53" y="98.94" width="4.46" height="18.25" rx=".27" ry=".27" transform="translate(-4.48 10.91) rotate(-2.5)"/>
    <path class="cls-1" d="M51.36,116.28c-.01.49-.42.88-.91.87l-2.49-.07c-.43,0-.76-.36-.76-.79,0-.02,0-.04,0-.06l1.76-16.52c.05-.47.48-.81.95-.76.03,0,.06,0,.09.01,1.66.34,3.18.41,4.56.18.54-.08,1.05.26,1.18.79l4.05,16.3c.14.55-.2,1.11-.75,1.25l-1.64.4c-.53.13-1.07-.19-1.21-.73l-1.26-5.06c-.19-.78-.85-1.35-1.64-1.43l-.8-.09c-.5-.05-.95.31-1,.81,0,.03,0,.05,0,.08l-.13,4.81ZM53.83,107.61c-.24-.93-.59-1.61-1.04-2.04-.18-.16-.47-.15-.63.03-.07.08-.11.17-.11.27l-.05,1.28c-.01.27.17.51.44.57l1.06.24c.15.04.3-.05.34-.21.01-.05.01-.1,0-.14Z"/>
    <path class="cls-1" d="M58.49,99.62l10.11-.73c.47-.03.88.33.92.8,0,.01,0,.02,0,.04l.08,2.91c.01.4-.29.73-.69.76l-2.12.15c-.24.02-.42.22-.41.46l.34,12.97c.01.47-.36.87-.83.88-.04,0-.09,0-.13,0l-1.97-.24c-.61-.08-1.05-.63-1-1.24.39-4.24.19-8.42-.61-12.53-.07-.34-.37-.58-.71-.58l-2.58.07c-.31.01-.57-.23-.59-.53l-.19-2.75c-.02-.23.15-.43.38-.45,0,0,0,0,0,0Z"/>
    <path class="cls-1" d="M70.93,99.87c-.01-.25.17-.46.42-.47,0,0,0,0,0,0l2.44-.06c.23,0,.43.15.48.37l.32,1.4c.02.1.03.21.03.32-.25,3.35.12,8.57,2,11.75.39.66,1.23.88,1.89.49.3-.18.52-.46.62-.8.31-1.07.47-2.06.47-2.96.01-2.41-.17-5.69-.55-9.85-.05-.6.38-1.12.97-1.18.12-.01.23,0,.35.02l1.64.38c.57.13.99.63,1.01,1.22l.3,7.37v.06c-.14.71-.35,2.34-.63,4.89-.27,2.54-2.26,5.14-5.12,4.87-1.54-.15-2.8-.76-3.77-1.85-1.25-1.4-1.98-3.33-2.19-5.79-.29-3.45-.52-6.84-.7-10.18Z"/>
    <path class="cls-1" d="M145.45,98.99c.14,0,.26.11.26.24,0,.03,0,.05-.01.08-.27.92-.33,1.81-.18,2.68.04.25-.12.49-.38.54-.02,0-.03,0-.05,0l-3.27.24c-.44.03-.78.41-.75.85,0,.11.04.21.08.3.24.49.36.92.36,1.29-.01.26.12.5.35.63.76.44,1.36.62,1.79.55.3-.04.58.14.66.43.38,1.35.38,2.39,0,3.11-.24.44-.72.68-1.21.6-1.58-.24-2.31.57-2.18,2.43.13,1.9.2,3.25.18,4.04,0,.3-.24.54-.53.56l-2.63.19c-.09,0-.17-.07-.17-.16,0,0,0,0,0,0l-.47-17.79c0-.33.25-.61.59-.62,0,0,0,0,0,0l7.58-.2Z"/>
    <path class="cls-1" d="M154.03,110.61l-2.03-.47c-.25-.05-.49.1-.54.35,0,.01,0,.03,0,.04l-.71,5.79c-.04.32-.32.54-.64.51,0,0,0,0,0,0l-2.45-.3c-.64-.08-1.09-.66-1.01-1.3.01-.11.04-.22.09-.33.45-1.03.2-2.34.37-3.5.64-4.4,1.12-8.24,1.43-11.54.06-.58.57-1,1.14-.95.05,0,.11.01.16.03,1.57.4,3.01.47,4.3.22.6-.11,1.18.27,1.32.86l3.82,16.45c.11.49-.19.98-.68,1.09l-1.49.34c-.59.14-1.18-.23-1.32-.81l-1.42-6.13c-.04-.17-.18-.3-.34-.34ZM151.74,105.16c-.05.3-.08.62-.1.96-.04.71.06,1.15.29,1.31.24.17.62.24,1.14.2.21-.01.36-.2.35-.41,0-.06-.02-.11-.05-.16l-1.15-1.99c-.07-.12-.23-.15-.35-.08-.06.04-.1.1-.11.17Z"/>
    <rect class="cls-1" x="266.11" y="99.07" width="4.41" height="18.09" rx=".27" ry=".27" transform="translate(-3.95 10.38) rotate(-2.2)"/>
    <path class="cls-1" d="M92.69,116.86l-3.94-4.64c-.1-.11-.26-.14-.38-.07-.18.11-.27.3-.26.58.03,1.59.59,2.65.41,4.29-.03.28-.24.52-.52.59l-2.6.6c-.32.07-.63-.13-.7-.45,0-.03-.01-.06-.01-.09-.4-5.96-.37-11.83.08-17.64.03-.38.33-.69.72-.73,2.12-.19,4.05.24,5.81,1.29,2.81,1.69,3.6,5.98.66,7.84-.3.19-.38.59-.19.89,0,.01.02.03.03.04l3.04,3.97c.13.18.23.39.27.61.08.38.31.91.72,1.6.16.28.07.63-.21.79-.05.03-.11.05-.16.06l-2.41.56c-.12.03-.25,0-.33-.1ZM89.23,107.33l1.1-.64c.25-.14.38-.42.34-.7-.19-1.19-.49-2.07-.92-2.65-.21-.29-.62-.35-.91-.13-.11.08-.19.2-.23.33-.33,1-.31,2.19.04,3.55.06.21.27.34.47.28.03,0,.07-.02.1-.04Z"/>
    <path class="cls-1" d="M166.01,117l-2.85.66c-.72.17-1.45-.28-1.62-1.01-.02-.09-.03-.18-.03-.27l-.44-16.48c-.01-.32.23-.59.55-.61l2.96-.21c.3-.02.56.2.58.5,0,0,0,0,0,0l1.22,16.93c.02.23-.13.44-.36.49Z"/>
    <path class="cls-1" d="M316.87,103.64c-.15.04-.26.06-.35.04-.04,0-.07-.03-.09-.07-.41-1.15-.39-2.17.06-3.07.13-.26.45-.36.71-.23.16.08.26.23.28.4.03.33-.15.66-.52,1-.23.22-.36.45-.38.7-.03.37.09.67.37.9.08.06.09.18.02.26-.03.03-.06.05-.1.06Z"/>
    <path class="cls-1" d="M320.84,100.84c.04.25.07.47.08.66.02.37,0,.59-.07.67-.32.38-.36.78-.13,1.22.08.16.03.35-.13.44-.05.03-.12.04-.18.04-.02,0-.15-.13-.39-.38-.12-.12-.27-.12-.46.02-.33.23-.58.33-.75.3-.2-.03-.35-.22-.32-.42,0-.06.03-.11.06-.15.07-.1.11-.16.12-.18.08-.14.07-.31-.02-.45-.35-.5-.43-.99-.23-1.47.16-.38.44-.45.84-.2.19.12.25.52.17,1.19-.02.13.05.26.17.33.17.09.34.06.5-.09.05-.05.09-.11.1-.18l.31-1.33c0-.09.08-.16.17-.16.09,0,.16.08.16.17h0Z"/>
    <path class="cls-1" d="M314.59,101.9s.08-.05.12-.02c.03.02.04.05.04.08-.03.18-.05.27-.05.28-.04.04-.1.05-.15,0-.02-.02-.03-.04-.04-.07,0-.09.02-.18.08-.28Z"/>
    <path class="cls-1" d="M321.74,104.02l.3-.74c.04-.1.16-.15.27-.11.04.02.08.05.1.09.1.18.13.31.1.39-.13.31-.27.52-.43.63-.1.07-.23.05-.31-.04-.05-.06-.06-.15-.03-.22Z"/>
    <path class="cls-1" d="M319.88,105.73c-.1-.04-.16-.16-.12-.26.02-.05.06-.1.12-.12.23-.08.37-.11.41-.11.15.01.27.15.26.3,0,.09-.06.18-.15.23-.11.06-.29.05-.52-.03Z"/>
    <path class="cls-1" d="M317.55,106.39c.09-.08.19-.12.29-.12.09,0,.17.07.16.17,0,.09-.07.16-.16.17-.07.01-.15,0-.23,0-.07-.01-.11-.08-.1-.14,0-.03.02-.05.04-.07Z"/>
    <path class="cls-1" d="M316.89,106.58s-.08,0-.12,0c-.02,0-.05-.01-.05-.04,0-.02.01-.05.04-.05.04-.02.08-.03.12-.03.03,0,.07.02.07.05s-.02.07-.05.07h0Z"/>
    <path class="cls-1" d="M126.48,117.95c-1.04.13-1.96-.22-2.76-1.08-.33-.36-.47-.87-.36-1.35l.41-1.77c.23-1,1.22-1.62,2.22-1.39l2.83.66c.28.07.5.27.59.54.37,1.23.34,2.88-.09,4.96-.44,2.16-1.71,2.86-3.81,2.12-.26-.09-.4-.38-.3-.64.03-.08.08-.16.15-.21l1.42-1.21c.15-.14.16-.37.03-.52-.08-.09-.2-.13-.32-.12Z"/>
  </g>
  <g>
    <path class="cls-2" d="M129.75,48.49c-.06,4.23-.19,9.39-.39,15.48-.24,6.92-.01,13.78.68,20.59.03.33.23.61.52.74,1.1.5,2.22.63,3.34.4.7-.15,1.4.3,1.56,1l.2.84c.21.89-.35,1.78-1.24,1.99-.14.03-.29.05-.43.04-4.77-.17-9.71-.48-14.82-.94-.06,0-.11,0-.17,0l-6.32.99c-.13.02-.27,0-.38-.07-.59-.33-.83-1.13-.71-2.39.05-.52.51-.9,1.03-.85.08,0,.16.03.24.05,1.55.59,3.53.36,5.95-.68.29-.12.5-.38.57-.69.59-2.99.88-4.9.86-5.73-.19-7.9-.01-16.5.54-25.82.26-4.52-4.16-5.27-7.4-6.04-.35-.09-.63-.36-.72-.72l-.24-1.02c-.12-.51.21-1.02.72-1.14.07-.02.15-.02.22-.02,3.83.05,7.67.34,11.53.87,1.3.18,2.55-.56,4.09-.38,1.82.21,3.96.04,6.41-.5.89-.19,1.76.32,1.95,1.15,0,0,0,.02,0,.03.06.31-.06.99-.37,2.02-.08.27-.37.44-.65.37-2-.5-4.04-.55-6.13-.13-.26.05-.45.28-.45.55Z"/>
    <path class="cls-2" d="M238.27,85.83c-.02.14.08.28.22.3,0,0,.01,0,.02,0,3.62.24,7.96.36,13.04.38,2.46,0,4.07-.98,4.83-2.97.82-2.13,1.33-4.74,1.53-7.83.05-.72.62-1.3,1.34-1.35l.33-.03c.28-.02.53.18.55.46,0,.01,0,.02,0,.04l.34,12.9c0,.32-.24.59-.56.59,0,0-.02,0-.03,0-13.82-.16-22.72-.18-26.72-.07-2.03.06-4.96.39-8.79,1-.83.13-1.66-.26-2.09-1l-.42-.73c-.19-.33-.08-.74.25-.93.1-.06.21-.09.33-.09l4.5-.12c1.5-.04,2.7-1.25,2.73-2.76.13-6.68.29-11.07.46-13.18.56-6.83.41-15.09.38-19.82,0-1.68-1.13-3.04-2.86-3.06-.59-.01-1.14-.1-1.63-.25-.26-.08-.41-.35-.35-.61l.48-2.07c.04-.14.18-.23.32-.2.05.01.1.04.13.08.24.26.74.41,1.51.45,3.71.18,9.27.5,14,.32,4.52-.17,8.75-.2,12.69-.08,2.04.06,4.24.3,6.62.72.22.04.39.24.39.46l.38,14.08c.02.7-.52,1.29-1.22,1.34l-.57.03c-.4.03-.75-.27-.78-.67,0-.06,0-.12,0-.18.15-.93-.13-4.16-.85-9.7-.3-2.29-1.18-3.65-3.63-3.74-4.96-.19-9.71-.25-14.26-.19-.37,0-.68.29-.72.66l-.89,10.54c0,.05-.01.1-.02.16l-.75,5.49c-.16,1.16.65,2.23,1.81,2.39.15.02.3.03.45.02l2.47-.17c1.43-.11,2.58-1.2,2.76-2.62.37-2.9.36-5.23-.03-6.97-.03-.14.05-.27.19-.31.03,0,.05,0,.08,0,.75.05,1.47-.04,2.17-.27.14-.05.3.03.34.17.01.04.02.07.01.11-.4,5.98-.38,11.35.05,16.11.2,2.16.27,3.51.22,4.04-.07.78-.77,1.36-1.56,1.29-.03,0-.06,0-.1-.01h-.06c-.84-.14-1.42-.93-1.29-1.78.43-3.01.66-5.72-1.28-8.06-.19-.22-.47-.35-.76-.32l-4.79.34c-.4.03-.7.37-.67.77,0,0,0,0,0,.01.5,5.52.4,11.15-.29,16.91Z"/>
    <path class="cls-2" d="M140.74,89.77c-.41.01-.75-.3-.76-.7,0,0,0,0,0,0l-.06-2.25c-.01-.31.24-.58.55-.59.03,0,.06,0,.09,0,3.09.4,6.43,1.73,7.12-2.79.24-1.57.36-4.63.37-9.2,0-6.85.12-13.6.35-20.24.06-1.6-.17-2.67-.48-4.52-.06-.36-.28-.67-.59-.87-1.41-.87-2.99-1.11-4.74-.71-.61.14-1.22-.24-1.37-.85-.06-.24-.03-.49.06-.71.21-.48.32-.88.34-1.2.02-.27.24-.47.5-.45.02,0,.04,0,.06,0l2.02.38s.08,0,.13,0c11.02-.15,17.46-.11,19.32.11,4.46.54,7.97.97,10.52,1.3,1.24.17,2.36.49,3.34.96.31.15.6.35.86.59.59.55,1.69,1.66,3.29,3.32,2.25,2.33,1.67,8.15.8,10.94-.09.29-.24.57-.44.8-2.57,3.11-5.56,5-8.98,5.67-5.07.99-8.85,1.54-11.34,1.64-1.11.04-1.9.14-2.39.29-.23.07-.4.28-.41.52l-.51,12.49c-.02.66.47,1.23,1.13,1.3,2.34.26,3.56.38,3.66.38.29,0,.52.22.53.51,0,.04,0,.08-.01.12l-.57,2.6c-.07.3-.33.51-.63.52l-21.78.62ZM158.7,48.34l.61,20.69c0,.28.24.5.52.49.04,0,.08,0,.12-.02,3.86-1.11,7.42-2.85,10.68-5.22.28-.21.51-.48.66-.8,2.16-4.46,2.52-8.61,1.06-12.44-.44-1.16-1.41-2.04-2.61-2.36-3.24-.88-6.69-1.25-10.33-1.11-.42.02-.74.37-.73.78Z"/>
    <path class="cls-2" d="M59.92,49.3l-.07-2.88c-.02-.59.45-1.08,1.04-1.1,0,0,0,0,0,0l2.38-.06c.48,0,.87.36.88.83l.36,13.62c0,.46-.35.83-.8.85l-3.6.1c-.43,0-.79-.3-.86-.72-.15-1.04-.1-1.89.17-2.55.06-.16.09-.32.1-.5.24-5.13-2.96-8.36-8.13-8.87-3.23-.32-8.48,1.12-9.77,4.58-3.89,10.33-4.44,22.06,1.75,31.7,3.37,5.25,12.38,5,16.49,2.11,3.77-2.65,4.94-7.59,5.59-12.41.05-.32.32-.57.64-.58l2.84-.07c.32-.01.59.25.6.58,0,.04,0,.08,0,.11-.38,2.19-.94,4.39-1.67,6.58-1.45,4.33-3.9,6.18-7.44,8.58-.45.31-.94.55-1.46.73-4.95,1.71-9.87,1.93-14.78.66-6.75-1.75-11.16-5.91-13.23-12.48-.59-1.89-.92-3.65-1.01-5.27-.12-2.47-.24-4.08-.38-4.84-.07-.39-.07-.78,0-1.17,1.25-8.19,5.28-14.73,12.08-19.61.6-.43,1.28-.73,1.99-.9,4.51-1.02,8.12-2.47,12.35.16.3.19,1.37,1.23,3.21,3.13.16.17.42.18.59.02.09-.08.14-.2.13-.33Z"/>
    <path class="cls-2" d="M91.22,46.23c.2.99.24,1.67.12,2.06-.3.96-1.45,1.44-2.58,1.07-.07-.02-.14-.05-.2-.08-1.43-.6-2.85-.71-4.26-.34-.36.09-.62.41-.63.79-.22,6.37-.4,11.51-.56,15.41-.23,5.7.47,14.89.52,20.63,0,.56.07,1.07.19,1.54.21.76.92,1.28,1.71,1.23,5.27-.33,10.01-.57,14.23-.72.55-.02,1.49-.47,2.83-1.33.25-.16.39-.45.38-.74-.04-.69.15-1.53.56-2.51.02-.05.03-.1.04-.15l1.36-9.59c.06-.39.41-.68.8-.66l1.29.06c.46.02.82.41.8.87,0,0,0,0,0,0l-.62,14.54c-.01.31-.27.56-.58.57-5.87.22-9.78.39-11.72.51-5.84.36-11.88-.4-17.49-.67-1.5-.08-4.51.29-9.03,1.1-.3.05-.59-.15-.65-.45,0-.04,0-.08,0-.12l.09-2.06c0-.2.18-.36.38-.35.03,0,.06,0,.08.01,1.35.39,2.86.42,4.51.09,1.28-.26,2.24-1.3,2.41-2.59.21-1.7.34-3.46.38-5.3.2-8.85.11-17.1-.26-24.76-.09-1.84-.24-3.37-.45-4.61-.11-.61-.62-1.07-1.24-1.1l-4.34-.18c-.58-.02-1.03-.51-1.01-1.09,0,0,0,0,0,0l.06-1.43c.02-.52.46-.92.98-.89,0,0,0,0,.01,0,4.01.24,9.19.02,13.98.83.85.15,1.88.04,3.09-.31.85-.24,1.61-.26,2.27-.03.83.27,1.48.39,1.96.34.27-.02.52.16.57.42Z"/>
    <path class="cls-2" d="M182.23,89.94c-.41,0-.74-.31-.75-.71,0,0,0,0,0,0l-.06-2.25c0-.31.24-.57.55-.58.03,0,.06,0,.09,0,3.08.4,6.41,1.74,7.11-2.77.24-1.56.37-4.62.38-9.17.02-6.83.15-13.56.39-20.2.06-1.59-.16-2.66-.47-4.51-.06-.36-.27-.67-.58-.87-1.4-.87-2.98-1.11-4.73-.72-.61.14-1.22-.25-1.36-.86-.05-.23-.03-.48.06-.7.21-.48.32-.88.34-1.2.01-.26.24-.46.5-.45.02,0,.04,0,.06,0l2.01.38s.08,0,.13,0c10.99-.12,17.42-.07,19.27.16,4.45.54,7.95.98,10.49,1.32,1.24.17,2.34.49,3.32.96.31.15.6.35.86.59.59.55,1.69,1.66,3.27,3.32,2.24,2.33,1.65,8.14.78,10.93-.09.29-.24.56-.44.8-2.57,3.1-5.56,4.98-8.97,5.63-5.06.98-8.83,1.52-11.31,1.62-1.1.04-1.9.13-2.38.28-.24.07-.4.28-.41.52l-.53,12.47c-.02.66.47,1.23,1.12,1.3,2.33.26,3.55.38,3.65.38.28,0,.52.22.53.5,0,.04,0,.08-.01.12l-.58,2.59c-.07.3-.33.51-.63.52l-21.72.58ZM200.15,48.54l.54,20.71c0,.28.24.5.52.49.04,0,.08,0,.12-.02,3.86-1.1,7.43-2.83,10.7-5.19.29-.21.52-.48.67-.8,2.18-4.46,2.55-8.6,1.1-12.44-.44-1.16-1.4-2.04-2.6-2.37-3.24-.89-6.69-1.28-10.33-1.15-.42.01-.75.36-.73.78,0,0,0,0,0,0Z"/>
    <path class="cls-2" d="M282.66,45.42c-.09.01-.21-.03-.38-.11-.07-.04-.12-.11-.1-.15,0,0,0,0,0-.01.01-.02.02-.03.03-.05.01-.03.04-.04.07-.02,0,0,0,0,0,0l.39.22s.05.06.03.09c-.01.02-.03.03-.05.04Z"/>
    <path class="cls-2" d="M283.93,45.3s-.14,0-.33,0c-.05,0-.09-.05-.09-.1,0-.03.02-.06.04-.08.02-.02.13-.04.31-.06.07,0,.13.05.14.13,0,.05-.02.09-.07.12Z"/>
    <path class="cls-2" d="M298.16,67.47l4.09,2.36c.21.13.4.29.56.49,1.75,2.26,2.68,4.74,2.8,7.44.15,3.46.45,6.01.88,7.66.16.62.71,1.44,1.64,2.46.21.23.53.31.82.23.85-.24,1.53-.34,2.02-.29.3.03.58-.16.66-.45l.51-1.95c.09-.33.13-.67.14-1.02l.19-6.52c0-.27.22-.49.5-.52l.87-.06c.26-.02.49.18.51.44,0,.01,0,.02,0,.04-.02,5.79.63,11.58-5,13.44-1.46.48-2.57.72-3.32.73-2.74.05-4.95-1.08-6.66-3.39-.16-.21-.26-.46-.31-.73-.67-3.58-.96-4.73-1.32-8.2-.15-1.48-.65-3.44-1.49-5.89-.14-.39-.39-.74-.73-.98l-2.25-1.62c-1.23-.88-2.72-1.31-4.23-1.2l-6.3.45c-.4.03-.72.36-.73.76-.13,5.6-.1,9.63.1,12.08.19,2.4,1.36,3.4,3.5,3.01.99-.18,1.97.4,2.29,1.36l.16.46c.21.61-.12,1.28-.74,1.49-.11.04-.23.06-.34.06-3.66.1-7.62-.65-11.65-.39-1.63.1-4.9.22-9.82.38-.19,0-.35-.15-.36-.34h0s-.06-2.13-.06-2.13c0-.2.16-.37.36-.38,0,0,.02,0,.03,0,.65.02,1.69.1,3.12.24,1.48.15,2.76-.15,3.85-.88.23-.15.4-.39.47-.66.81-2.93.97-5.79.48-8.59-.38-2.13.15-4.09.02-6.12-.79-13.01-1.22-19.75-1.27-20.2-.03-.3-.14-.59-.3-.85-.75-1.2-2.01-1.53-3.78-.99-.23.07-.47-.01-.62-.2-.75-.99-.92-1.91-.51-2.76.11-.23.33-.37.59-.38l12.28-.32c.65-.02,1.19.49,1.21,1.14,0,0,0,0,0,0l.55,21.06c0,.2.16.36.36.38l5.88.35c.12,0,.25,0,.37-.03,3.35-.62,5.39-2.51,6.13-5.65.52-2.19.62-4.86.3-8.01-.24-2.4-1.02-4.22-2.34-5.45-1.46-1.36-3.34-2.2-5.62-2.5-.14-.02-.25-.15-.24-.3l.02-.38s0-.01,0-.01c0,0,.01,0,.01,0l9.56.59c.16,0,.31.04.45.1l4.21,1.7c.14.05.26.13.37.24l1.94,1.92c.13.13.24.28.32.44,1.43,2.9,2.25,6.96,1.2,10.17-.31.96-.49,1.7-.53,2.22-.02.23-.09.45-.22.64l-1.85,2.82c-.2.31-.54.5-.91.51l-2.69.07c-.13,0-.23.1-.23.23,0,.08.05.16.12.2Z"/>
    <path class="cls-2" d="M321.52,55.34c-.61,2.16-1.8,3.95-3.56,5.37-.32.26-.71.42-1.13.46-2.81.28-6.8.28-8.41-2.4-1.9-3.14-1.89-6.58.03-10.31.68-1.34,1.43-2.17,2.24-2.5,6.24-2.56,12.7,2.84,10.83,9.38ZM311.88,46.33c-3.36,1.27-4.91,5.42-3.46,9.27h0c1.45,3.85,5.36,5.93,8.72,4.66h0c3.36-1.27,4.91-5.42,3.46-9.27h0c-1.45-3.85-5.36-5.93-8.72-4.66h0Z"/>
    <path class="cls-2" d="M309.99,56.12c.15-.26.42-.45.83-.55.31-.08.54-.34.58-.66.26-2.42.14-4.2-.36-5.33-.16-.37,0-.8.38-.96.1-.04.21-.06.31-.06l3.07.12c.81.03,1.5.61,1.65,1.41.12.6.03,1.4-.27,2.39-.04.13-.02.27.04.39l1.67,2.89c.27.48.1,1.09-.39,1.36-.37.21-.83.16-1.15-.12-1.21-1.1-.37-2.23-1.47-3.49-.18-.21-.19-.51-.03-.73.13-.18.25-.31.36-.38.06-.04.12-.21.18-.5.27-1.23-.31-2.01-1.74-2.33-.22-.05-.43.09-.48.31,0,.03-.01.06,0,.1.04,1.79.09,2.65-.41,4.2-.25.8.03,1.38.84,1.72.15.05.23.22.17.37-.04.12-.15.19-.28.19l-3.25.09c-.16,0-.29-.12-.3-.28,0-.05.01-.1.04-.15Z"/>
  </g>
</svg>