<?xml version="1.0" encoding="UTF-8"?>
<svg id="Layer_1" data-name="Layer 1" xmlns="http://www.w3.org/2000/svg" viewBox="0 0 352.3 165.34">
  <defs>
    <style>
      .cls-1 {
        fill: #182b55;
      }
    </style>
  </defs>
  <path class="cls-1" d="M265.82,41.8c2.87,1.76,3.42,4.79,1.66,9.09-.76,1.85-2.14,2.87-4.16,3.07-.45.04-.85-.29-.89-.74-.02-.17.02-.34.11-.49l1.55-2.69c.14-.25.08-.57-.15-.74-2.48-1.88-2.96-6.28.65-7.5h1.23Z"/>
  <path class="cls-1" d="M165.86,61.41c-.02.11.04.22.15.24.08.02.16-.01.21-.08,2.36-3.31,7.28-10.66,12.07-6.39,2.48,2.21,3.11,5.01,1.9,8.39-2.68,7.45-5.4,14.46-4.95,21.45.23,3.57,2.01,5.88,5.35,6.92.12.04.2.17.16.29,0,0,0,.01,0,.02-1.36,3.41-4.39,4.68-7.71,3.18-3.51-1.58-5.62-5.17-5.83-9.01-.3-5.47,1.52-9.92,3.79-15.94.82-2.16,1.81-4.68,2.97-7.55.48-1.19.74-2.3.8-3.32.02-.34-.24-.63-.58-.64-.06,0-.12,0-.18.02-1.96.48-4.71,4.23-6.32,6.33-4.64,6.06-7.92,12.77-9.83,20.12-.36,1.38-1.34,1.23-2.44.68-2.54-1.29-3.41-3.52-2.62-6.7,2.01-8.08,5.13-15.82,8.22-23.71.55-1.39.76-2.75.64-4.08-.04-.4-.39-.69-.78-.65-.09,0-.17.03-.25.07-.51.26-1.02.65-1.52,1.19-4.42,4.8-7.82,10.95-11.15,17.48-3.46,6.77-6.25,13.75-8.37,20.93-.17.57-.69.97-1.29.97-1.89,0-4.61-.73-5.23-2.83-.19-.66-.09-1.72.32-3.16,3.05-10.88,6.99-21.38,10.99-31.98.49-1.3,1.75-5.37-.24-6.25-2.67-1.17-5.6,1.73-6.88,3.83-2.56,4.21-4.05,8.79-4.46,13.74-.01.16-.15.29-.32.27,0,0-.02,0-.03,0-3.43-.58-4.22-4.44-3.8-7.45.69-4.99,2.96-8.85,6.81-11.57,3.03-2.14,6.81-3.05,10.34-1.95,6.12,1.92,5.06,9.44,3.84,14.22-.04.13.03.28.16.32.12.04.26-.02.31-.14,2.08-3.71,4.75-7.76,7.75-10.42,2.44-2.17,4.9-2.22,7.39-.13,3.36,2.81,2.66,6.89,1.46,10.53-.48,1.46-.76,2.38-.84,2.74Z"/>
  <path class="cls-1" d="M66.23,67.44c-.69.06-1.32-.14-1.88-.6-1.55-1.26-2.29-2.97-2.21-5.13.15-4.53,1.79-8.42,4.92-11.66,3.69-3.81,11.07-6.47,15.14-1.54,3.45,4.19,1.32,10.29-.59,14.91-1.35,3.26-6.45,14.23-4.36,16.19,1.18,1.1,3.87-.67,4.83-1.55,2.3-2.13,4.25-4.83,5.85-8.07,3.05-6.19,5.65-13.09,7.82-20.71.27-.96,1.27-1.52,2.23-1.25.19.05.37.14.53.25h.01c1.24.85,1.86,2.34,1.59,3.82-2.16,11.75-4.47,22-7.5,36.15-.16.73-.19,1.23-.09,1.49.08.18.23.32.42.37l4.75,1.27c1.1.29,1.75,1.42,1.46,2.52,0,.03-.02.06-.03.1l-.07.21c-.33.96-1.37,1.47-2.32,1.14-.03,0-.05-.02-.08-.03-1.41-.56-3.17-.93-5.3-1.12-.36-.03-.7.18-.82.52-3.24,8.73-8.19,19.96-18.3,21.81-7.23,1.32-11.98-3.81-10.05-10.95,2.51-9.29,13.63-14.68,22.38-15.69.31-.04.56-.26.62-.56l2.65-11.53c.04-.17-.06-.33-.23-.37-.11-.03-.23.01-.31.1-2.08,2.52-4.64,5.77-7.71,6.84-2.81.97-6.1-.67-7.84-2.96-2.41-3.17-1.58-6.84-.32-10.33.98-2.7,2.69-6.59,5.12-11.69,1.04-2.18,4.25-8.67.8-9.89-1.94-.69-4.38,1.19-5.49,2.66-2.08,2.75-3.62,6.1-4.63,10.04-.66,2.55-.9,4.19-.72,4.93.04.15-.06.31-.21.35-.02,0-.03,0-.05,0ZM82.82,94.47c-5.58,1.3-11.65,4.61-14.4,9.51-1.43,2.56-1.81,7.7,2.92,6.83,6.75-1.24,10.24-9.83,11.9-15.9.05-.19-.06-.38-.25-.43-.06-.02-.12-.02-.17,0Z"/>
  <path class="cls-1" d="M201.73,99.77c-.44-.27-.79-.74-1.24-1.18-1.78-1.71-2.1-3.72-.97-6.02,2.75-5.55,11.3-7.38,16.92-7.75,5.57-.36,11.57-.18,18,.55,7.64.86,19.4,2.54,29.42,3.3,3.85.3,7.1.35,9.76.17,3.04-.21,7.15-1.14,9.66-3.12,4.58-3.61,3.59-10.51-1.05-13.53-.09-.06-.21-.03-.27.06,0,0-.01.02-.02.03-1.74,4.18-4.96,5.74-9.67,4.7-2.21-.49-5.49-2.08-5.85-4.47-.13-.85.19-1.65.96-2.42.51-.51.83-.87.98-1.08,1.2-1.75,3.04-4.87,5.51-9.34.13-.23.22-.48.26-.73.37-2.2.87-4.69,2.19-6.55.14-.19.36-.31.6-.3,1.75.05,3.07.69,3.97,1.92.43.58.47,1.37.11,2l-2.69,4.66c-.07.12-.09.25-.07.39.15.99.52,1.89,1.11,2.72,1.29,1.82,2.09,3.45,2.41,4.9.04.2.18.37.37.44,6.52,2.65,10.57,9.89,7.19,16.52-6.15,12.07-29.52,8.44-40.98,7.07-11.28-1.34-23.46-1.66-34.48.91-4.36,1.02-8.27,3.07-11.72,6.15-.12.11-.3.12-.44.04ZM272.84,67.79l3.23-.26c.13-.01.23-.13.22-.26,0,0,0,0,0-.01-.05-.41-.27-1.83-.66-4.28-.02-.14-.1-.2-.24-.2-.13,0-.23.05-.29.15-.25.39-1.08,1.9-2.47,4.53-.06.11-.02.24.09.3.04.02.08.03.13.03ZM273.36,70c-.92.29-1.7.73-2.35,1.32-.25.23-.27.61-.04.86,1.18,1.29,2.35,1.75,3.53,1.38,1.18-.38,1.87-1.44,2.07-3.17.04-.34-.2-.64-.54-.68-.87-.1-1.76,0-2.68.29Z"/>
  <path class="cls-1" d="M213.65,63.98c2.19-2.15,4.76-5.11,8.25-3.69,1.35.55,2.02,1.66,2,3.34,0,.11.08.19.19.2.06,0,.11-.02.15-.07,2.04-2.24,3.9-3.72,5.59-4.43.75-.32,1.61-.29,2.56.07,3.38,1.29,4.33,3.72,2.83,7.27-1.52,3.61-2.92,5.89-2.76,8.38.03.43.39.75.8.73.05,0,.09-.01.14-.02,1.77-.45,4-4.01,4.94-5.65.1-.18.18-.36.24-.56,1.58-5.31,8.95-17.92,15.55-9.57.09.11.25.15.37.07,1.63-.93,3.34-.95,5.13-.04.36.18.5.61.33.97-1.72,3.5-5.37,9.97-4.26,12.45.19.42.69.61,1.14.41.05-.02.09-.04.13-.07.58-.38,1.12-.91,1.62-1.59,1.39-1.88,2.54-3.64,3.44-5.28.33-.6,1.08-.82,1.68-.49.15.08.29.2.39.34l.07.09c.69.92.78,2.16.24,3.17-1.58,2.93-3.22,5.14-4.93,6.65-2.93,2.57-7.71,2.08-8.9-2.04-.02-.09-.12-.15-.22-.13-.04.01-.08.04-.11.08-.86,1.35-1.95,2.55-3.24,3.58-2.66,2.12-6.25-.06-7.82-2.49-.07-.11-.21-.13-.32-.06-.02.01-.04.03-.06.05-1.46,2.01-3.55,4.09-6.01,4.29-3.46.26-7.09-2.16-6.68-5.88.35-3.19,2.54-7.18,3.9-10.02.22-.45.33-.84.33-1.17,0-.17-.13-.3-.3-.3-.06,0-.12.02-.18.05-4.59,3.18-8.04,9.78-9.82,14.92-.05.16-.11.72-.17,1.68-.01.17-.06.33-.16.47-.9,1.32-3.26-.35-4.05-1.17-1.24-1.28-.58-3.61-.02-5,1.98-4.86,3.74-8.07,3.58-10.26-.01-.13-.12-.22-.25-.21-.02,0-.05,0-.07.02-.62.25-1.09.53-1.41.85-3.96,3.99-8.09,9.98-8.3,15.85-.03.9-.62,1.21-1.75.94-1.41-.33-2.43-1.14-3.06-2.41-.05-.11-.18-.15-.29-.1-.02.01-.05.03-.06.05-.7.78-1.2,1.3-1.49,1.55-2.97,2.49-7.66,2.03-8.9-2.08-.03-.11-.15-.17-.26-.14-.05.01-.1.05-.12.1-2.23,3.76-5.73,6.26-9.71,2.62-2.63-2.41-2.81-5.12-1.59-8.58,1.95-5.55,8.78-16.46,15.32-8.62.08.09.2.11.31.06,1.64-.94,3.37-.94,5.18-.02.32.17.46.56.3.89-1.64,3.49-3.17,6.05-4.16,9.54-.24.86-.33,1.73-.27,2.58.04.5.45.87.92.85.07,0,.14-.02.2-.04.48-.16.91-.49,1.3-.99,2.46-3.21,4.29-5.69,5.62-9.1,1.02-2.61,1.78-4.89,2.27-6.84.09-.37.46-.6.84-.53,1.11.23,2.27.83,3.49,1.82.4.32.58.85.46,1.35l-.27,1.2c-.01.06.02.12.08.13.04,0,.07,0,.1-.03ZM251.12,62.12c-.97-.52-3.26,1.84-5.12,5.27-1.85,3.44-2.56,6.65-1.58,7.17.97.52,3.26-1.84,5.12-5.27,1.85-3.44,2.56-6.65,1.58-7.17ZM194.22,65.23c-.97-.53-3.27,1.83-5.12,5.25-1.85,3.43-2.57,6.63-1.59,7.16.97.53,3.27-1.83,5.12-5.25,1.85-3.43,2.57-6.63,1.59-7.16Z"/>
  <path class="cls-1" d="M114.81,76.04c-.07.23.05.48.29.56.1.03.2.03.3,0,3.04-1.19,4.73-3.29,5.06-6.3.07-.61.62-1.05,1.23-.98.16.02.32.07.46.16l.04.03c.97.59,1.51,1.69,1.39,2.81-.57,5.17-5.35,7.8-10.18,8.07-.19,0-.37.12-.46.29-2.37,4.25-6.96,8.36-11.76,4.67-2.79-2.15-3.7-5.15-2.72-9.01.9-3.53,4.14-10.96,8.31-11.52,1.31-.18,3.57.68,4.69,1.46.87.6,1.41.94,1.61,1.02,3.33,1.34,2.59,6.08,1.77,8.76ZM108.37,70.54c.04-.12-.02-.26-.14-.3-.09-.03-.2,0-.26.07-2.3,2.73-3.65,5.72-4.05,8.99-.08.61-.05,1.22.07,1.83.33,1.72,1.93,1.64,3.02.62.84-.78,1.48-1.61,1.9-2.49.08-.16.07-.35-.01-.5-1.36-2.64-1.54-5.38-.53-8.22Z"/>
  <path class="cls-1" d="M143.3,115.12c0,4.6-3.73,8.33-8.33,8.33h0c-4.6,0-8.33-3.73-8.33-8.33h0c0-4.6,3.73-8.33,8.33-8.33s8.33,3.73,8.33,8.33h0ZM139.28,115.12c0-2.38-1.93-4.31-4.31-4.31s-4.31,1.93-4.31,4.31,1.93,4.31,4.31,4.31,4.31-1.93,4.31-4.31Z"/>
  <path class="cls-1" d="M162.8,115.12c0,4.6-3.73,8.33-8.33,8.33s-8.33-3.73-8.33-8.33,3.73-8.33,8.33-8.33h0c4.6,0,8.33,3.73,8.33,8.33h0ZM158.77,115.12c0-2.38-1.93-4.31-4.31-4.31h0c-2.38,0-4.31,1.93-4.31,4.31h0c0,2.38,1.93,4.31,4.31,4.31s4.31-1.93,4.31-4.31Z"/>
  <path class="cls-1" d="M184.65,118.14c0-.17.12-.31.29-.32,0,0,.01,0,.02,0h3.73c.17,0,.32.11.38.27.8,2.21,3.28,2.3,4.85.98.41-.34.5-.92.22-1.34-.35-.52-.84-.85-1.47-.97-3-.58-9.04-1.23-7.64-5.92,1.18-3.95,6.17-4.66,9.67-3.61,1.84.55,3.03,1.77,3.58,3.67.11.37-.1.75-.47.86-.06.02-.13.03-.19.03h-2.95c-.2,0-.4-.1-.51-.28-1-1.51-2.41-1.74-4.23-.69-.52.3-.73.94-.46,1.43.04.07.09.14.15.2.27.27.69.45,1.28.52,3.36.41,7.21.88,7.8,4.56.27,1.7-.35,3.12-1.85,4.26-3.35,2.54-9.06,2.28-11.54-1.53-.38-.58-.6-1.28-.64-2.1Z"/>
  <path class="cls-1" d="M216.32,115.09c0,3.48,3.75,5.39,6.72,3.66.5-.29.86-.52,1.08-.7.11-.09.26-.1.39-.03l2.79,1.61c.11.06.15.2.08.31,0,0-.01.02-.02.03-4.82,6.36-15.04,3.35-15.03-4.88.01-8.23,10.25-11.21,15.04-4.84.08.1.06.24-.04.32,0,0-.02.01-.03.02l-2.79,1.6c-.12.07-.28.06-.39-.03-.22-.17-.58-.41-1.08-.7-2.96-1.74-6.73.16-6.73,3.63Z"/>
  <path class="cls-1" d="M242.52,112.87c0,3.37-2.73,6.1-6.1,6.1s-6.1-2.73-6.1-6.1,2.73-6.1,6.1-6.1c3.37,0,6.1,2.73,6.1,6.1ZM239.13,112.87c0-1.5-1.22-2.72-2.72-2.72-1.5,0-2.72,1.22-2.72,2.72h0c0,1.5,1.22,2.72,2.72,2.72h0c1.5,0,2.72-1.22,2.72-2.72Z"/>
  <path class="cls-1" d="M116.37,114.03h5.24c.26,0,.47.21.47.47h0v2.82c0,.26-.21.47-.47.47h-5.26c-.26,0-.47.21-.47.47v4.27c0,.26-.21.47-.47.47h-3.19c-.26,0-.47-.21-.47-.47v-14.93c0-.26.21-.47.47-.47h11.09c.26,0,.47.21.47.47v2.9c0,.26-.21.47-.47.47h-6.94c-.26,0-.47.21-.47.47h0v2.1c0,.26.21.47.47.47h0Z"/>
  <path class="cls-1" d="M166.12,107.77c0-.35.29-.63.64-.63h6.97c4.32.02,7.82,3.53,7.81,7.85h0v.19c0,4.32-3.52,7.82-7.84,7.81h-6.97c-.35-.01-.63-.3-.63-.65h0s.02-14.57.02-14.57ZM170.29,111.53l-.02,7.12c0,.3.24.54.54.54h3.05c1.94.02,3.52-1.72,3.53-3.88,0,0,0,0,0,0v-.41c0-2.15-1.56-3.9-3.49-3.91h-3.05c-.3-.01-.54.23-.55.53,0,0,0,0,0,0Z"/>
  <path class="cls-1" d="M251.96,110.54c.08,0,.13.02.16.07.39.79.78,1.58,1.16,2.38.02.04.07.09.15.15.08.06.14.09.19.09.87.12,1.74.26,2.62.39.05,0,.09.05.11.12.02.08.02.13-.02.17-.63.62-1.27,1.23-1.91,1.84-.03.03-.07.09-.1.19-.03.09-.04.16-.03.21.15.87.3,1.74.44,2.61.01.05-.02.1-.08.15-.07.05-.12.06-.17.03-.78-.41-1.56-.82-2.34-1.24-.04-.02-.11-.03-.21-.04-.1,0-.17.01-.21.04-.78.41-1.56.82-2.35,1.22-.05.02-.1.01-.17-.03-.07-.05-.09-.1-.08-.16.15-.87.3-1.74.46-2.6,0-.05,0-.12-.04-.21-.03-.09-.06-.15-.09-.19-.63-.61-1.26-1.23-1.89-1.85-.04-.04-.05-.1-.02-.17.03-.08.07-.12.12-.12.87-.13,1.75-.25,2.62-.36.05,0,.11-.04.19-.09.08-.06.13-.11.15-.15.39-.79.78-1.58,1.18-2.37.02-.05.08-.07.16-.07Z"/>
  <path class="cls-1" d="M100.11,113.12c.08-.06.13-.11.15-.15.39-.79.78-1.59,1.18-2.38.02-.05.08-.07.16-.07s.13.02.16.07c.39.79.78,1.59,1.16,2.39.02.04.07.09.15.15.08.06.14.09.19.09.87.12,1.75.26,2.62.39.06,0,.1.05.12.12.02.08.02.13-.02.17-.64.62-1.27,1.23-1.91,1.84-.03.03-.07.1-.1.19-.03.09-.04.16-.03.2.15.87.3,1.74.44,2.62,0,.05-.02.1-.08.15-.07.05-.12.06-.17.03-.78-.41-1.57-.83-2.34-1.25-.04-.02-.11-.03-.21-.03s-.17.01-.21.03c-.78.42-1.56.83-2.35,1.23-.05.03-.11.02-.17-.03-.07-.05-.09-.1-.08-.15.15-.87.3-1.75.46-2.61,0-.05,0-.12-.04-.21-.03-.09-.06-.16-.09-.19-.64-.61-1.27-1.23-1.9-1.86-.04-.04-.05-.09-.02-.17.02-.08.06-.12.12-.13.87-.13,1.75-.25,2.63-.36.05,0,.11-.04.19-.1Z"/>
  <path class="cls-1" d="M239.91,123.55h-7.11l-.06-2.47c0-.17.13-.32.3-.32,0,0,0,0,.01,0h6.57c.16,0,.3.12.32.28.12.85.11,1.68-.03,2.51Z"/>
</svg>