<?xml version="1.0" encoding="UTF-8"?>
<svg id="Layer_1" data-name="Layer 1" xmlns="http://www.w3.org/2000/svg" viewBox="0 0 352.3 165.34">
  <defs>
    <style>
      .cls-1 {
        fill: #111;
      }
    </style>
  </defs>
  <path class="cls-1" d="M158.57,45.26c-.5.22-.99.47-1.57.57-.72.12-1.32.17-1.77.17-.87,0-1.79-.27-2.71-.75-1.52-.87-2.19-2.19-2.04-4,.12-1.49.85-2.56,2.16-3.18.57-.27,1.24-.32,1.99-.12.85.22,1.34.77,1.49,1.64.02.15,0,.3-.12.42-.3.32-.6.32-.9,0-.17-.17-.32-.55-.57-.7-.5-.35-1.54-.17-1.96.27-.4.42-.65.82-.75,1.24-.12.52-.12,1.52.17,2.06.37.7.8,1.17,1.57,1.42,2.24.72,4.03.1,5.64-1.47.57-.55,1.12-1.22,1.64-1.99,1.22-1.77,2.29-3.61,3.18-5.52.55-1.12,1.07-1.99,1.69-3.26.87-1.79,1.84-3.51,2.88-5.17.07-.15.12-.27.15-.42,0-.05-.02-.07-.07-.1-.55-.1-1.14-.32-1.74-.7-.62-.37-1.29-.77-2.04-1.17-1.52-.85-2.44-1.32-3.93-1.09-1.69.27-3.21,1.42-3.68,3.08-.47,1.62.35,3.41,2.26,3.08.6-.1,1.09-.42,1.47-.99.12-.17.27-.65.47-1.37.07-.32.4-.52.72-.45h.1c.32.15.5.47.4.82-.5,1.82-1.52,3.18-3.56,3.21-.6,0-1.44-.12-1.94-.5-2.14-1.57-1.69-4.57-.07-6.32.67-.72,1.47-1.27,2.39-1.62,2.14-.82,4.2-.7,6.17.4.57.32,1.24.75,2.01,1.32.25.2.87.55,1.86,1.07.05,0,.1,0,.12-.02.37-.57.87-1.19,1.52-1.86.55-.6,1.17-1.04,1.84-1.37.07-.02.15-.05.22-.07.55-.07,1.07-.07,1.64,0,.07,0,.17.05.22.1,1.02.8.8,1.94.07,2.88-.62.8-1.47,1.34-2.49,1.62-.72.2-1.39.3-1.99.32-.1,0-.2.07-.25.17-.32.82-.87,1.59-1.27,2.46-1.42,3.11-2.83,6.09-4.25,8.93-1.39,2.78-3.61,5.84-6.51,6.94h.1ZM171.57,25.51c1.12-.1,2.01-.52,2.69-1.27.22-.25.35-.62.32-1.07,0-.05-.02-.1-.07-.12-.22-.15-.42-.2-.62-.15-1.17.35-1.79,1.44-2.41,2.46-.02.05,0,.1.02.15h.07Z"/>
  <path class="cls-1" d="M266.4,88.92v5.02h-.02c0-.1-.07-.15-.17-.17-.05,0-.12,0-.22.07-.05.02-.15,0-.17-.05v-3.61s-.02-.07-.07-.07-.05,0-.05.02c-.1.15-.15.22-.15.22-.3,1.04-.67,2.14-1.12,3.28,0,.05-.05.1-.1.12-.1.07-.25.07-.42.05-.05,0-.1-.05-.12-.1l-1.29-3.78s-.02-.02-.05-.02c0,0-.02,0-.02.05v3.73c0,.07-.07.15-.15.15h-.27c-.07,0-.12-.05-.12-.12v-4.6s.02-.05.05-.07h.57c.15,0,.25.05.3.17l1.27,3.75s.07.07.1.05c.02,0,.05-.02.05-.05l1.22-3.68c.15-.35.52-.25.82-.22.07,0,.17-.05.17-.15h0Z"/>
  <path class="cls-1" d="M183.09,45.35c-.32,0-.7-.02-1.09-.02-.5,0-.87-.02-1.07-.07-1.12-.27-2.26-.99-2.39-2.26,0-.1-.1-.15-.17-.15-.05,0-.07,0-.1.05-.5.47-.99.92-1.52,1.34-.9.72-1.91,1.14-3.03,1.22-.35.02-.7,0-1.09-.15-1.57-.47-1.54-2.09-.92-3.31.15-.3.37-.62.7-1.04.85-1.09,1.34-1.72,1.49-1.91.2-.27.55-.85.27-1.12-.37-.4-1.14,0-1.54.22-1.72,1.07-3.13,2.44-4.28,4.13-.67,1.02-1.37,2.01-2.04,3.01l-1.44.07c-.07-.3-.07-.55.05-.75,2.64-4.65,5.32-9.32,8.08-14,.25-.42.37-.6.87-.6h1.37c.15,0,.25.12.25.27v.1c-.15.32-.32.67-.57,1.07-.62.94-1.09,1.72-1.44,2.29-.5.85-1.17,1.69-1.62,2.56-.3.55-.82,1.17-1.07,1.72v.05s.05.05.1.05h.02c.99-.97,2.14-1.57,3.48-1.82.5-.1,1.44.17,1.82.62.77.99.12,2.46-.5,3.31-.57.77-1.07,1.42-1.54,1.99-.17.2-.35.5-.6.87-.15.27-.2.52-.12.8.22.77,1.69.12,2.11-.15.82-.57,1.37-.97,1.62-1.24.42-.47.82-.87,1.22-1.24.07-.07.15-.17.17-.27.77-2.09,2.11-3.61,4.08-4.5.94-.45,1.94-.62,2.93-.3.65.2,1.07.9.97,1.62-.1.72-.47,1.32-1.04,1.82-1.22,1.04-2.83,1.19-4.45,1.14-.1,0-.17.05-.2.15-.35.97-.65,2.46.52,3.03.75.37,1.94.12,2.69-.2.47-.2,1.49-.75,1.86-1.12.42-.4.9-.9,1.29-1.37.22-.25.42-.45.6-.6.05-.02.07-.05.12-.05.62,0,.4.94.17,1.27-.6.9-1.39,1.67-2.36,2.34-.7.47-1.57.87-2.59,1.19l-.07-.05ZM181.74,39.59s.05.05.1.05c.9-.07,1.77-.32,2.59-.8.4-.22,1.14-.77.85-1.27-.27-.5-1.14-.15-1.54.1-.82.47-1.47,1.07-1.99,1.82,0,.02-.02.07,0,.1h0Z"/>
  <path class="cls-1" d="M99.54,80.66c-.47.25-.8.4-.94.45-.42.15-1.29.35-2.54.57-.7.12-1.37.17-1.99.17-1.44,0-2.59.05-3.93-.17-1.54-.27-3.08-.6-4.65-.17-.07,0-.15,0-.17-.1v-.02c-.1-1.37-.35-2.66-.75-4.95-.05-.35-.07-.77-.15-1.17v-.42c.35-.3.62-.32.85,0,.62.82,1.34,1.49,2.16,1.96.72.42,1.64.77,2.76.97,1.49.3,2.98.37,4.48.22,1.29-.12,2.41-.5,3.38-1.09,1.34-.82,1.89-2.78,1.29-4.28-.62-1.59-2.01-2.51-3.58-3.21-1.52-.67-2.41-1.09-3.88-1.72-.82-.35-1.57-.7-2.24-1.07-.75-.4-1.17-.75-1.79-1.32-1.49-1.34-2.26-3.11-2.34-5.25-.05-1.42.22-2.73.94-3.93,2.41-3.98,7.38-4.3,11.51-3.73.65.1,1.37.2,2.19.35.6.1,1.02.02,1.59-.12.07,0,.17.02.2.12h0c.22,1.82.5,3.65.77,5.52.02.25-.12.37-.45.45-.17.02-.32-.02-.42-.17-1.17-1.42-2.71-2.26-4.65-2.54-1.69-.22-3.58-.25-5.22.4-.45.17-1.17.65-1.47,1.04-.8,1.12-.82,2.36-.25,3.58.37.8,1.64,1.64,2.36,1.91.94.37,2.19.92,3.48,1.42,2.09.8,4.15,1.74,5.72,3.33.47.47.92,1.09,1.34,1.84.7,1.22.97,3.08.87,4.43-.2,2.39-1.17,4.45-3.06,5.82-.4.27-.85.57-1.37.85l-.07.02Z"/>
  <path class="cls-1" d="M157.2,80.76c.05.3,0,.47-.15.47-2.09.02-4.15.02-6.24,0-.05,0-.1,0-.12-.05-.1-.1-.12-.22-.12-.37l-4.57-10.67s-.05-.05-.07-.05h-4.97c-.07,0-.12.05-.12.12v8.58c0,.57.17,1.29.62,1.64.02,0,.07.02.1.05l.65.1s.1.02.12.05c.07.07.12.15.12.25s.02.2,0,.25c-.02.07-.1.12-.17.12h-7.33c-.07,0-.15-.07-.15-.15v-.27c0-.15.07-.25.22-.25.62-.07,1.04-.25,1.19-.87.1-.4.15-.8.15-1.14v-22.65c0-1.19-.15-2.06-1.47-2.41-.05,0-.1-.05-.1-.1,0-.12-.02-.25,0-.35,0-.07.07-.12.12-.1.5,0,1.29,0,2.41-.1.67-.05,1.47-.1,2.44-.1,2.96-.05,4.95-.05,6.56,0,.8,0,1.59.17,2.34.25,1.69.15,3.61.92,4.87,1.79,2.78,1.89,3.31,5.82,2.49,8.85-.12.5-.32.97-.57,1.42-1.14,2.11-2.86,3.53-5.17,4.28-.05,0-.05.05-.05.1h0c.3.82.77,1.94,1.42,3.41,1.09,2.46,2.36,4.77,3.78,6.94.17.25.35.47.57.62.07.05.25.1.55.17.27.05.5.15.62.3l.05-.12ZM140.92,66.51c1.94.1,3.7.1,5.27,0,.65-.02,1.42-.2,2.29-.47,2.11-.67,3.38-2.29,3.48-4.53.07-1.64-.47-3.36-2.01-4.18-.67-.35-1.27-.6-1.79-.7-.5-.1-1.14-.2-1.91-.27-1.69-.17-3.31-.02-5.3.1-.05,0-.07.05-.07.1v9.87s.02.07.07.1l-.02-.02Z"/>
  <path class="cls-1" d="M123.16,80.66c.07.22.07.4,0,.52-.02.02-.07.05-.12.05h-7.24c-.15,0-.27-.12-.27-.25v-.17c.15-.15.35-.25.57-.32.32-.1.52-.2.6-.25.45-.42.5-1.04.5-1.69v-21.73c0-.07-.07-.15-.15-.15h-6.89c-.62,0-1.09.1-1.44.35-.45.32-.82.7-1.04,1.09-.02.05-.1.07-.15.05l-.42-.15s-.07-.07-.07-.12l1.09-4.95c0-.07.1-.15.2-.12h0c.22.07.42.1.62.1,3.65.02,10.47.02,20.49,0,.4,0,.77-.07,1.14-.2.05,0,.1,0,.12.05h0l1.04,5.05s0,.1-.05.12c-.12.1-.27.17-.45.17-.05,0-.1,0-.12-.07-.52-.82-1.09-1.39-2.11-1.39h-7.26s-.1.05-.1.1v22c0,.55.2,1.27.62,1.62.07.05.2.1.42.12.17,0,.35.07.47.15v.02Z"/>
  <path class="cls-1" d="M217.42,80.71l.05.32c0,.1-.05.22-.17.22h-7.33s-.05,0-.07-.02c-.1-.07-.12-.22-.1-.42.12-.15.32-.27.6-.35.27-.07.47-.15.52-.22.4-.42.5-.94.5-1.57v-21.88c0-.07-.05-.12-.12-.12h-6.81c-.5,0-.9.05-1.19.2-.65.27-.9.7-1.34,1.17-.12.15-.37.15-.5,0-.05-.05-.1-.12-.1-.2,0-.05,0-.15.02-.27.3-1.27.62-2.83.99-4.67,0-.07.1-.12.17-.12h0c.2.07.42.1.67.1,2.93.02,9.65.02,20.14,0,.47,0,.97-.05,1.47-.2.07,0,.12,0,.15.07h0l1.04,5.05c0,.07,0,.12-.07.15l-.32.12c-.07.02-.17,0-.2-.07-.5-.97-1.29-1.44-2.39-1.42h-7.04s-.1.05-.1.1h0v22.05c0,.52.17,1.27.62,1.57.07.05.2.07.35.12.22.05.42.1.6.22l-.02.07Z"/>
  <path class="cls-1" d="M197.56,80.88c.05.25-.02.37-.22.37h-7.24c-.07,0-.12-.02-.17-.07-.05-.07-.05-.17,0-.35,0-.07.05-.15.12-.2.02-.02.07-.05.12-.05.27-.05.57-.05.77-.22.55-.42.6-1.17.6-1.84v-22.45c0-1.24-.07-2.36-1.39-2.56-.12,0-.2-.12-.2-.22v-.2c0-.1.1-.2.2-.2h7.28c.07,0,.12.05.12.12v.32c0,.07-.05.15-.15.17-.97.15-1.44.8-1.44,1.99v23.42c0,.52.12.94.37,1.27.27.35.57.37.94.42.17,0,.27.15.3.32l-.02-.05Z"/>
  <path class="cls-1" d="M186.57,80.74l-.05.45c0,.07-.07.15-.17.15h-7.24s-.1-.02-.12-.07c-.05-.1-.07-.22-.05-.4,0-.17.05-.27.25-.3,1.22-.15.75-1.62.5-2.34-.4-1.14-.72-2.16-.99-3.01-.52-1.74-1.02-3.08-1.39-4.38-.02-.1-.12-.15-.2-.12-.62.12-1.19.2-1.77.22-2.11.12-4.18.05-6.22-.25-.12,0-.25.05-.27.17-.12.42-.9,2.83-2.26,7.24-.2.62-.5,1.67-.17,2.26.02.05.07.1.15.1.25.05.47.15.65.27v.4c.02.1-.05.17-.15.2h-6.71s-.1,0-.12-.07c-.05-.1-.1-.25-.12-.45.67-.25,1.14-.6,1.42-1.04.27-.45.45-.85.6-1.24.52-1.59.8-2.54,1.32-3.9.25-.65.47-1.37.72-2.19.4-1.32,1.27-3.56,1.72-5.17.2-.65.65-1.77.9-2.54.67-2.19,1.24-3.68,2.01-6.07.35-1.02.65-1.94.92-2.73.22-.65.5-1.64.2-2.21,0-.02-.02-.05-.07-.05l-.35-.12s-.05-.05-.07-.07c-.1-.25-.1-.4,0-.47h7.86s.07.02.07.07c.02.17,0,.32-.07.45,0,.05-.05.07-.1.07-.32.1-.6.3-.57.67.02.45.07.77.15.97,2.21,6.59,3.73,11.09,4.55,13.48,1.07,3.18,2.04,6.09,2.93,8.75.3.92.62,1.69.97,2.34.25.45.72.8,1.42,1.02l-.02-.07ZM173.02,57.54h-.07c-.82,2.64-1.04,3.56-1.82,5.84-.22.67-.47,1.52-.75,2.54-.07.3-.27.62-.27.99,0,.05.02.07.07.1,1.22.17,2.49.22,3.75.15.8-.05,1.44-.12,1.94-.2.07,0,.15-.1.12-.17h0c-.37-1.29-.75-2.49-1.09-3.58-.5-1.49-1.14-3.88-1.72-5.42-.02-.1-.1-.17-.17-.25h0Z"/>
  <path class="cls-1" d="M254.72,62.56c.25.75.22,1.52-.07,2.26-1.02,1.89-2.93,2.78-4.97,3.46-.57.2-1.04.37-1.42.47-.02,0-.05.02-.05.05h0c1.04,1.82,1.34,3.7.87,5.64-.65,2.59-2.34,4.85-4.67,6.22-1.59.92-3.18,1.44-4.8,1.59-1.69.15-3.26,0-4.67-.4-.8-.22-1.64-.62-2.54-1.19-.3-.17-.62-.42-.99-.75-1.27-1.17-2.09-2.56-2.44-4.2-.2-.92-.37-1.77-.27-2.64.32-2.96,1.59-5.32,3.83-7.09.57-.45,1.62-1.24,2.46-1.69.57-.3.97-.5,1.22-.62,1.12-.55,2.34-.92,3.61-1.09.07,0,.12-.07.1-.15v-.05c-.75-1.12-1.14-2.59-.9-3.95.2-1.09.62-2.04,1.24-2.86.12-.17.62-.57,1.44-1.19.07-.05.52-.27,1.34-.7,1.12-.55,2.41-.72,3.58-.75.3,0,.57,0,.77.07.35.07.65.05,1.02.15.99.27,2.09.9,2.59,1.84.47.87.57,1.84.32,2.86-.32,1.29-1.72,2.56-3.03,2.83-.72.15-1.64.27-2.64.17-.6-.05-.72-1.07-.35-1.39.22-.2.45-.27.72-.25,1.12.15,2.36-.07,3.11-.87.52-.55.7-1.24.55-2.11-.02-.22-.1-.37-.17-.47-.3-.4-.62-.8-.94-.87-1.86-.52-3.48-.2-4.9.97-1.84,1.54-2.59,3.88-1.59,6.19.05.1.12.15.22.15.62.02,1.22.12,1.77.27.45.12.72.37.87.77.15.45-.4.87-.77.99-1.04.32-1.96.17-2.81-.45-.07-.05-.15-.07-.22-.05-1.17.25-2.26.62-3.26,1.17-1.84.97-3.31,2.34-4.45,4.08-.25.4-.4.82-.62,1.29-.72,1.52-.92,3.16-.8,4.82.17,2.21,1.57,4.28,3.73,5.05.77.27,1.47.42,2.11.45,1.04,0,1.94-.05,2.66-.22,1.84-.42,3.28-1.39,4.45-2.83.75-.94,1.24-2.21,1.47-3.33.07-.35.1-.94.07-1.79,0-.5-.12-.97-.32-1.42-.2-.45-.45-.87-.75-1.29-.1-.12-.25-.17-.4-.12-.65.22-1.32.35-1.99.57-1.96.67-4.62,1.44-5.47,3.46-.1.25-.1.97.02,1.24.2.42.77.85,1.29.65.37-.15.75-.27,1.04-.55.5-.42.87-.97,1.14-1.62.2-.5.27-1.07.99-.99.42.05.72.57.57.99-.45,1.37-1.27,2.71-2.64,3.31-.22.1-.67.22-1.37.35-.12.02-.27.02-.4,0-2.24-.37-3.01-1.69-2.76-3.85.15-1.27,1.47-2.54,2.49-3.08,1.14-.62,2.36-1.12,3.63-1.49,1.54-.45,3.46-.97,5.4-1.44,1.22-.3,2.49-.72,3.8-1.29.7-.3,1.09-.62,1.62-1.09.42-.4.82-1.19.3-1.67-.5-.45-.94-.27-1.57-.07-.1.02-.35,0-.77-.02-.05,0-.1-.02-.12-.07-.45-.52-.27-1.14.32-1.42.5-.22,1.37-.5,1.94-.45.5.05.92.2,1.29.42.37.22.7.6.94,1.07l-.02.02Z"/>
  <path class="cls-1" d="M208.94,117.66c-.3.07-1.02.2-2.19.35-1.54.2-2.93.15-4.18-.2-.47-.12-.8-.2-.97-.25-1.27-.42-2.24-.82-2.88-1.19-.17-.1-.67-.45-1.52-1.04-.8-.57-1.64-1.47-2.16-2.11-.57-.72-1.22-1.77-1.59-2.64-.85-1.86-1.32-3.8-1.47-5.79,0-.32-.05-.94-.05-1.84,0-2.14.37-4.2,1.17-6.19.9-2.31,2.34-4.2,4.3-5.72.47-.37.99-.7,1.57-.97.85-.42,1.82-.94,2.86-1.17,3.46-.8,7.41-.55,10.42,1.27,1.72,1.04,3.13,2.26,4.25,3.98,1.12,1.69,1.84,3.53,2.19,5.52.5,2.91.45,5.77-.27,8.53-.17.65-.45,1.39-.82,2.26-.77,1.74-1.86,3.23-3.28,4.48-.72.62-1.77,1.37-2.69,1.79-.82.4-1.72.72-2.66.99l-.02-.05ZM196.51,103.24c0,1.37.17,2.73.52,4.05,1.04,3.95,4.15,7.01,8.43,7.01s7.41-3.01,8.45-6.96c.35-1.32.55-2.69.55-4.05s-.17-2.73-.52-4.05c-1.04-3.95-4.15-7.01-8.43-7.01s-7.41,3.01-8.48,6.96c-.35,1.32-.52,2.69-.55,4.05h.02Z"/>
  <path class="cls-1" d="M146.31,117.38h-5.74c-.12,0-.22-.1-.25-.22h0v-.12c0-.12.1-.22.22-.22h0c1.04.1,1.29-1.04,1.29-1.89v-23.07c0-.94-.27-1.99-1.32-2.06-.12,0-.22-.12-.22-.25v-.22c0-.12.1-.22.22-.22.7,0,3.28-.12,7.78-.3,1.84-.07,3.68,0,5.49.25.99.12,1.84.32,2.54.57.99.35,1.79.7,2.36,1.04,1.84,1.09,2.93,3.21,3.11,5.3.1,1.12.12,2.44-.22,3.58-.8,2.69-2.91,5.15-5.69,5.89-.07,0-.15.1-.12.2h0c1.32,3.58,3.01,7.01,5.12,10.24.37.57.9.9,1.54.99.12,0,.2.12.2.22v.12c0,.12-.1.2-.2.2h-6.07c-.12,0-.25-.07-.3-.2l-4.57-10.72c-.02-.07-.1-.12-.2-.12h-4.92s-.1.05-.1.1v8.58c0,.92.37,1.79,1.42,1.84.12,0,.22.1.22.22v.1c0,.12-.1.22-.22.22h-1.42l.05-.05ZM146.39,102.71c1.94.1,3.7.1,5.27,0,.65-.05,1.42-.2,2.29-.47,2.11-.67,3.38-2.29,3.48-4.53.07-1.64-.47-3.36-2.01-4.18-.67-.35-1.27-.6-1.79-.7-.5-.1-1.14-.2-1.91-.27-1.69-.17-3.31-.02-5.3.1-.05,0-.07.05-.07.1v9.87s.02.07.07.1l-.02-.02Z"/>
  <path class="cls-1" d="M188.83,116.79c.07,0,.15.05.15.12h0v.32c0,.07-.07.15-.15.15h-6.14c-.12,0-.25-.07-.3-.2l-4.57-10.69c-.05-.1-.15-.17-.27-.17h-4.9s-.07.02-.07.07h0v8.33c0,.99.3,1.99,1.44,2.09.1,0,.17.1.17.2v.2c0,.1-.07.17-.17.17h-7.19c-.15,0-.27-.12-.27-.27h0c0-.15.1-.3.25-.32.87-.12,1.32-.72,1.32-1.74v-23.22c0-.67-.07-1.14-.2-1.39-.25-.45-.65-.72-1.17-.8-.05,0-.1-.05-.12-.1-.05-.12-.07-.25-.05-.32.02-.12.12-.17.25-.17,3.65-.15,5.77-.22,6.36-.25,2.14-.07,3.63-.07,4.5-.05.57.02,1.34.1,2.39.22,1.02.12,1.82.3,2.34.47,1.14.42,2.16.77,3.08,1.49,1.42,1.09,2.26,2.54,2.54,4.35.25,1.64.22,3.41-.4,5-.75,1.86-1.99,3.31-3.7,4.35-.57.35-1.12.52-1.77.75-.07.02-.12.1-.1.17h0c.47,1.27,1.07,2.66,1.74,4.13.35.75.62,1.32.87,1.74.42.72.72,1.42,1.22,2.24.42.67.85,1.37,1.24,2.06.32.55.99,1.12,1.67,1.04l.02.02ZM172.64,102.71c1.94.1,3.7.1,5.27,0,.65-.05,1.42-.2,2.29-.47,2.11-.67,3.38-2.29,3.48-4.53.07-1.64-.47-3.36-2.01-4.18-.67-.35-1.27-.6-1.79-.7-.5-.1-1.14-.2-1.91-.27-1.72-.17-3.31,0-5.3.1-.05,0-.07.05-.07.1v9.9s.05.07.07.1l-.02-.05Z"/>
  <path class="cls-1" d="M120.23,89.06s.02-.07.07-.07h7.78s.1.02.1.07c.12.35,0,.6-.37.72-.8.25.07,2.14.2,2.61.3,1.04.62,1.99.94,2.88.6,1.67.97,3.03,1.54,4.57.32.87.62,1.79.92,2.71.4,1.24.87,2.46,1.24,3.63.52,1.67,1.12,3.23,1.64,4.9.3.94.77,2.31,1.39,4.05.17.47.42.9.77,1.22,0,0,.02,0,.05.02l.75.4c.15.07.2.27.12.42-.05.07-.12.15-.22.15h-7.11s-.1-.02-.15-.07c-.07-.1-.07-.25-.02-.42,0-.05.05-.07.07-.1.57-.2.97-.45.9-1.12-.02-.37-.17-.92-.4-1.62-1.14-3.53-1.79-5.59-1.91-6.14-.05-.17-.12-.25-.22-.22,0,0-.12,0-.35.05-2.81.42-5.59.45-8.33,0-.07,0-.12.02-.15.1-.5,1.57-.92,2.76-1.39,4.4-.22.75-.5,1.59-.82,2.54-.05.12-.07.47-.12,1.04s.25.87.8.97c.1,0,.17.1.17.2v.2c0,.1-.1.2-.2.2h0c-1.84-.02-4.03-.02-6.51,0h-.15c-.15-.02-.25-.17-.22-.35,0-.1.1-.17.2-.22.94-.3,1.44-1.19,1.72-2.06.9-2.69,1.79-5.32,2.66-7.96,2.51-7.46,4.03-11.98,4.6-13.63.35-1.02.6-1.94.77-2.78v-.17c-.07-.3-.27-.5-.6-.62-.05,0-.1-.07-.1-.12v-.42l-.05.05ZM123.99,93.69s-.1.07-.1.12c-.32.99-1.39,4.35-3.16,10.04-.02.1,0,.2.12.22h.05c.87.05,1.77.12,2.71.22.27.02.62.02,1.02,0,.85-.07,1.72-.17,2.66-.3,0,0,.05-.02.02-.05h0l-3.21-10.22s-.02-.05-.07-.02h0l-.05-.02Z"/>
  <path class="cls-1" d="M90.89,117.38h-6.09c-.12,0-.25-.1-.25-.25h0v-.12c0-.12.1-.22.22-.25,1.17-.17,1.34-1.24,1.34-2.21v-22.48c0-.97-.15-2.34-1.37-2.41-.07,0-.15-.07-.15-.15v-.32c0-.07.07-.15.15-.15h5.77c.1,0,.17.05.2.15l.22.72s0,.05.02.07c.5.82.85,1.34,1.02,1.57,4.08,5.57,7.96,10.91,11.69,16.01.05.05.12.07.2.02.05-.02.05-.07.05-.12,0-.3-.02-.47-.02-.5v-14.97c0-1.04-.22-2.19-1.42-2.34-.12,0-.22-.12-.22-.25v-.2c0-.1.1-.2.2-.2h6.84c.07,0,.12.05.15.12,0,.17,0,.3-.05.37,0,.05-.05.07-.1.07-1.52.22-1.44,1.42-1.44,2.66v24.99s-.05.07-.07.07h-3.06c-.07,0-.12-.05-.15-.12-.15-.67-.42-1.27-.8-1.79-6.64-9.17-11.14-15.39-13.5-18.65,0,0-.05-.02-.07,0v17.7c0,.37.05.8.15,1.24.15.72.72.92,1.34,1.04.05,0,.07.05.1.1.05.15.05.27,0,.37-.02.05-.07.07-.12.07h-.67l-.1.1Z"/>
  <path class="cls-1" d="M254,89.06c.17.07.25.15.25.2,0,.2-.05.32-.2.37-.85.2-1.32,1.14-1.49,1.89-.42,1.84-.67,3.08-1.09,4.77-.42,1.69-.82,3.58-1.29,5.59-1.44,6.17-2.46,10.54-3.06,13.18-.15.65-.22,1.54.67,1.74.12.02.2.15.2.27v.07c0,.12-.15.25-.27.22h-6.07c-.15-.05-.22-.2-.17-.35.02-.07.07-.12.15-.17.45-.17.77-.27.72-.87-.02-.4-.1-.75-.2-1.07-.15-.4-.52-1.39-1.17-2.91-1.32-3.18-2.41-5.92-3.31-8.16,0-.02-.05-.05-.1-.05h-.02c-.22.27-.22.62-.37.92-.25.52-.52,1.17-.8,1.91-.72,1.89-1.52,3.8-3.03,7.63-.25.67-.4,1.27-.4,1.84,0,.42.17.67.57.75.15,0,.22.15.2.3,0,.02,0,.05-.02.07-.07.12-.2.2-.35.2-1.29-.02-3.36-.02-6.19,0-.17,0-.27-.1-.27-.32,0-.1.07-.2.17-.22.45-.12.82-.35.75-.9-.05-.4-.1-.85-.22-1.29-.8-3.43-1.91-8.2-3.36-14.35-.45-1.86-.85-3.88-1.37-5.79-.27-1.02-.45-2.09-.72-3.11-.2-.77-.6-1.57-1.42-1.74-.05,0-.1-.05-.12-.1-.1-.3-.05-.45.15-.47h6.44c.12,0,.2.1.2.2s0,.2-.05.27c0,.05-.05.07-.1.1l-.55.17s-.07.02-.1.07c-.17.22-.25.45-.25.67.05,1.12.5,2.36.75,3.58.62,2.96,1.24,5.3,1.82,8.08.37,1.79.92,3.75,1.29,5.64.3,1.52.5,2.36.57,2.56,0,.05.07.07.12.05.02,0,.05-.02.05-.05l5.74-15.46c.02-.1.12-.17.22-.17h1.19s.07.02.1.07l5.89,15.39s.02.02.05,0h0c.52-2.16.94-4.1,1.29-5.84.6-2.96,1.19-5.3,1.72-8.13.27-1.52.9-3.7,1.12-5.45.05-.37-.05-.7-.3-.97-.05-.05-.1-.07-.17-.07h-.35c-.12,0-.22-.1-.22-.22h0v-.25c0-.1.07-.2.2-.2h6.49l.1-.12Z"/>
  <path class="cls-1" d="M258.74,93.49l-.07-3.83s-.05-.1-.1-.1h-1.39s-.1,0-.12-.02-.05-.07-.05-.12c0-.1,0-.17.02-.25,0-.05.07-.07.12-.07h3.56c.1,0,.17.07.17.17h0v.15c0,.1-.07.17-.15.17h-1.42s-.1.05-.1.1h0v3.95c0,.1-.1.2-.2.2h-.05c-.17-.05-.22-.15-.15-.32l-.07-.02Z"/>
  <path class="cls-1" d="M114.14,125.81v.1h0c.62.25,1.12.65,1.49,1.22.99,1.49,1.07,2.98.17,4.45-.2.35-.42.62-.67.82-.52.42-1.24.85-2.01.9-.97.05-1.89.05-2.31-.9-.12-.3-.22-.82.17-.94.1-.02.22,0,.3.12.15.22.25.62.47.8.9.67,2.04-.05,2.59-.77.2-.25.37-.62.55-1.09.55-1.47,0-3.18-1.37-3.98-.1-.05-.22-.05-.3.05-.9.94-1.47,2.04-2.16,3.31-.22.4-.85,1.74-1.94,4.03-.75,1.62-1.74,3.41-3.03,4.72-1.22,1.24-2.69,1.72-4.4,1.42-1.12-.2-2.01-.87-2.21-2.01-.22-1.27.45-2.34,1.72-2.69.87-.22,1.47.07,1.79.87.05.1.02.22-.05.35-.1.12-.25.2-.37.12h0l-.37-.37c-.27-.3-.62-.35-1.02-.2-.97.37-1.07,1.72-.6,2.51.37.62,1.57.85,2.16.77.8-.1,1.49-.45,2.09-1.04.75-.75,1.49-1.79,2.19-3.13.7-1.34,1.27-2.44,1.67-3.26.27-.57.6-1.14.94-1.74.94-1.57,1.74-2.78,2.83-3.98.02-.02.02-.07,0-.1h-.05c-2.21-.32-4.55.22-6.12,1.89-.82.87-1.39,1.82-1.74,2.88-.17.5-.2,1.34.52,1.42.82.07,1.62-1.24,1.91-1.89.07-.17.27-.25.47-.2h0c.17.05.25.25.2.4h0c-.5,1.19-1.52,2.46-2.93,2.41-.22,0-.47-.12-.75-.35-.57-.45-.72-1.49-.55-2.11.27-.92.72-1.72,1.29-2.39.7-.77,1.62-1.54,2.64-1.96,1.29-.57,2.66-.85,4.1-.85.67,0,1.22.07,1.62.2h.05l1.27-.6c.1-.05.25,0,.3.1v.12c0,.17-.1.32-.25.37-.17.07-.32.17-.4.27l.1-.07Z"/>
  <path class="cls-1" d="M173.21,138.69c.65-.57,1.07-.94,1.27-1.09.75-.6,1.29-1.32,1.67-2.11.12-.27.3-.42.42-.7,0-.05,0-.1-.05-.12h-.07c-.17.05-.35.05-.5-.05-.1-.05-.12-.17-.05-.27.02-.05.1-.1.17-.1h.7c.12,0,.22-.05.3-.15l.8-1.24c.12-.2.35-.32.6-.32h.6c.15,0,.25.12.25.25,0,.05,0,.1-.05.12l-.72,1.17s0,.12.05.17h1.14c.1,0,.17.07.17.17,0,.02,0,.05-.02.1v.05c-.1.12-.25.2-.37.2h-1.14c-.12,0-.25.07-.32.17-.32.57-.82,1.42-1.49,2.54-.25.42-.4.8-.4,1.09,0,.8.87.72,1.37.47.9-.45,1.47-1.17,2.09-1.89.05-.07.17-.07.22,0,.02.02.05.07.05.12v.3c0,.1-.02.2-.1.27-.87,1.09-1.82,1.96-3.28,2.11-1.07.1-1.69-.37-1.86-1.42,0-.02-.05-.05-.07-.05h-.02c-.99,1.14-2.64,1.64-4.05,1.59-.77-.02-1.32-.4-1.64-1.07-.02-.05-.1-.1-.17-.05h0c-.12.07-.25.22-.35.3-.52.32-.94.55-1.27.65-.7.2-1.77.1-1.89-.8,0-.1-.1-.15-.17-.15-.05,0-.07.02-.1.05-.27.32-.5.47-.82.7-.92.6-2.24.1-2.49-.99-.12-.52-.1-1.02.07-1.47,0-.05,0-.1-.05-.12h-.05c-.42.05-.75.05-.97,0-.07,0-.15,0-.17.07-.1.17-.17.4-.3.57-.94,1.29-2.16,2.46-3.85,2.09-.42-.1-.75-.37-.99-.85-.02-.05-.05-.12-.05-.17v-.42c-.02-.07-.1-.15-.17-.15-.02,0-.05,0-.07.02-.52.42-1.04.8-1.57,1.07-.62.35-1.27.55-1.94.55-.8.02-1.44-.12-1.96-.47-1.17-.8-1.44-2.06-1.42-3.51,0-.62.1-1.24.27-1.84.8-2.73,2.39-5.02,4.57-6.81.55-.45,1.04-.77,1.49-.99,1.02-.5,2.39-.94,3.46-.62.65.2,1.04.57,1.19,1.12.37,1.49-.75,3.01-2.29,3.03-.27,0-.5-.22-.52-.5h0c0-.3.2-.52.47-.55.65-.07,1.07.05,1.47-.6.62-.97-.15-2.04-1.27-1.86-1.04.2-1.96.6-2.76,1.29-.42.4-.75.6-1.07.99-.7.82-1.09,1.27-1.17,1.37-1.12,1.57-1.91,3.31-2.34,5.22-.15.7-.22,1.49-.12,2.09.17.92.67,1.79,1.74,1.86,1.49.12,2.98-.99,4-2.01.05-.05.07-.1.12-.15.57-.99,1.14-1.74,2.14-2.34.62-.37,1.79-.52,2.44-.2.52.25.82.77.85,1.52v.12l-.1.22s0,.1.05.12h0c.45.1.9.05,1.29-.1.05,0,.1-.05.12-.1.32-.42.5-.67.57-.77.67-.8,1.57-1.22,2.71-1.29.67-.05.85.35,1.09.8.05.07.15.1.22.07,0,0,.05-.02.05-.05l.2-.32c.05-.07.12-.12.2-.12h.9c.1,0,.17.07.17.17v.1c-.52.92-1.17,2.01-1.94,3.31-.1.17-.15.37-.17.6v.15c.12.27.35.37.65.3.75-.15,1.39-.57,2.01-1.24,1.04-1.17,2.06-2.83,2.73-3.73.22-.3.9-.85,1.27-.57.15.1.22.22.25.35,0,.07-.02.15-.07.2-.17.12-.27.25-.3.37v.17c.42.97.97,2.29.72,3.33-.1.42-.15.65-.15.67,0,0,0,.05.02.05h.02l-.07-.07ZM159.44,134.86c-.87-.25-2.01.85-2.44,1.49-.37.57-1.34,2.19-.4,2.73.17.1.37.1.67.02.94-.25,1.77-1.44,2.19-2.29.02-.07.02-.15,0-.22-.37-.55-.35-1.02.07-1.49.07-.07.05-.17,0-.25,0,0-.05-.02-.07-.05l-.02.05ZM163.32,136.33c-.37.52-.7,1.22-.7,1.91,0,.4.15.67.42.8.45.22.85-.07,1.14-.4.37-.42.67-.8.9-1.09.22-.3.45-.72.72-1.22.2-.4.35-.9-.02-1.22-.22-.2-.52-.25-.9-.1-.67.22-1.19.8-1.57,1.32h0ZM171.57,135.19h-.02l-1.22,1.82c-.05.1-.07.2-.05.3l.1.45s0,.1-.05.15c-.32.32-.67.55-.52.97.22.7,1.27.52,1.62.1.57-.67.72-1.52.57-2.44-.1-.55-.2-.97-.3-1.29,0-.05-.05-.07-.1-.05h-.02Z"/>
  <path class="cls-1" d="M222.87,138.54s-.05-.05-.07-.02h0c-.72.75-1.44,1.32-2.54,1.47-.8.1-1.29-.22-1.47-1.02,0-.02-.05-.05-.07-.05h-.02c-.45.47-.85.8-1.32.99-.22.1-.52.1-.85.02-.77-.17-1.22-.67-1.32-1.54,0-.07-.07-.15-.17-.12-.05,0-.07,0-.1.05-.75.87-1.64,1.42-2.69,1.64-.2.05-.5,0-.9-.1-.45-.12-.75-.42-.9-.85-.02-.07-.1-.1-.17-.07,0,0-.02,0-.05.02-.5.47-1.02.8-1.62,1.02-.1.05-.4.05-.9.05-1.04,0-1.59-.8-1.14-1.82.15-.37.6-.99.45-1.54,0-.05-.05-.1-.1-.12-1.17-.6-2.61,1.96-3.06,2.83-.25.47-.65.65-1.19.52-.07,0-.12-.07-.1-.15h0c.07-.22.17-.42.3-.55v-.07h-.07l-.85.5c-.12.07-.27.12-.42.17l-.94.22c-.1,0-.22.02-.32,0-.07,0-.32-.07-.75-.2-1.19-.32-1.44-1.42-1.17-2.51,0-.07,0-.12-.1-.15h-.07c-.22.07-.45.07-.67,0-.12-.05-.25,0-.3.12-.62,1.27-1.94,2.54-3.38,2.71-.22.02-.5,0-.82-.15-.7-.27-1.09-.94-1.07-1.69,0-.07-.05-.12-.12-.12-.02,0-.05,0-.07.02-1.17,1.04-2.14,1.67-3.88,1.96-.15.02-.55-.05-1.19-.22-1.37-.4-2.04-1.89-2.09-3.28-.05-1.52.42-2.96,1.07-4.35.92-1.99,2.51-3.88,4.33-5.2,1.09-.8,2.39-1.27,3.73-1.34.4,0,1.14.22,1.47.55.45.47.6,1.04.45,1.67-.25,1.14-.94,1.82-2.09,2.01-.42.07-.67-.07-.75-.47v-.15c.2-.75.97-.27,1.54-.62.55-.35.65-1.17.45-1.67-.07-.2-.27-.37-.55-.52-.17-.1-.45-.1-.77-.05-1.57.25-2.56.97-3.68,2.11-1.96,1.99-3.21,4.35-3.73,7.06-.07.42-.07,1.07,0,1.96,0,.15.12.4.32.82.8,1.54,2.88.8,3.9.05.55-.4,1.14-.87,1.59-1.39.52-.6.8-.82,1.32-1.44.75-.85,1.54-1.09,2.73-1.24h.25c1.07.27,1.52.99,1.37,2.14,0,.07.05.15.12.15h0c.32,0,.67-.05.99-.17.07-.02.12-.07.17-.12.32-.42.52-.67.6-.75.67-.72,1.49-1.12,2.44-1.22,2.16-.22,1.52,2.44.12,2.19-.05,0-.1-.05-.12-.07-.15-.2-.1-.4.1-.57.27-.22.4-.32.42-.35.1-.07.1-.22.02-.32-.02-.05-.07-.07-.15-.07-.35-.05-.7.05-1.02.32-.92.75-1.74,1.67-1.72,2.83,0,.87.85,1.07,1.59.9,1.22-.27,2.69-1.57,3.28-2.66.87-1.57,1.91-3.41,3.18-5.57.12-.2.32-.32.57-.32h.62c.15,0,.25.12.25.25,0,.05,0,.1-.05.12l-2.91,4.65v.07h.05c.55-.15,1.04-.57,1.86-1.14.4-.27,1.22-.62,1.72-.37.37.2.52.52.42.97-.05.22-.25.37-.47.35h-.02c-.07,0-.17-.1-.32-.25-.05-.05-.07-.07-.15-.07-.37-.1-.7-.05-.94.15-.3.25-.6.42-.87.57-.07.02-.1.12-.07.2,0,.05.07.07.12.07.47,0,.77.25.92.72v.2l-.2.72c0,.07-.05.15-.1.22-.12.2-.25.47-.35.77-.05.1,0,.22.07.32.15.17.32.25.5.22.67-.05,1.39-.7,1.89-1.14.22-.22.47-.55.75-.99.55-.92.9-1.47,1.07-1.67.07-.1.15-.17.22-.27.02-.05.02-.1,0-.12h-.67c-.1,0-.17-.07-.17-.17v-.15c.05-.12.17-.22.32-.22h.7c.12,0,.25-.07.32-.17l.77-1.24c.1-.17.27-.27.47-.27h.8c.1,0,.17.07.17.17,0,.02,0,.07-.02.1l-.72,1.17c-.05.07,0,.17.05.2h1.04c.1,0,.17.07.17.17,0,.02,0,.05-.02.1l-.05.1c-.1.15-.25.22-.4.22h-1.07c-.1,0-.17.05-.22.12-.37.52-.9,1.52-1.57,2.59-.27.42-.47,1.09.05,1.37.42.22,1.17-.25,1.57-.52.27-.2.8-.67,1.57-1.44.05-.07.12-.12.15-.2.72-1.29,1.32-2.26,2.76-2.69.3-.1.65-.12,1.07-.1.55,0,.75.3.99.8,0,0,0,.02.05.05.1.05.2,0,.3-.2s.3-.3.5-.3h.67c.12,0,.22.1.22.22,0,.05,0,.07-.02.12-.7,1.19-1.27,2.19-1.77,3.01-.15.25-.42.77-.27,1.02.15.32.55.3.85.2.6-.17,1.17-.55,1.74-1.12.6-.62,1.04-1.14,1.32-1.59.42-.7.75-1.22.97-1.57.12-.2.35-.32.57-.32h.6c.15,0,.27.12.27.27,0,.05,0,.07-.02.12-.35.67-.72,1.29-1.09,1.86-.35.55-.72,1.17-.92,1.62-.1.2-.1.4,0,.6.32.65,1.72-.32,2.04-.6,1.04-.9,1.82-1.89,2.54-3.16.65-1.12,1.22-2.24,1.91-3.28.65-.97,1.09-1.62,1.99-2.26.99-.72,2.41-.12,1.89,1.29-.15.37-.37.72-.7,1.09-.9,1.04-1.96,1.89-3.21,2.54-.05.02-.1.07-.15.15-.6.99-1.07,1.82-1.42,2.49-.3.55-.72,1.32-.35,1.84.17.22.72.15.92.05.3-.15.57-.35.85-.55,1.17-.94,2.16-2.04,2.96-3.28.47-.75.94-1.47,1.79-1.74h.12l.25.15c.12.07.15.25.07.37,0,0,0,.02-.02.05l-.35.35s-.05.1-.02.15c.3.7.55,1.39.72,2.09.22.8.1,1.52-.3,2.14v.07h.07c.67-.45,1.27-1.04,1.84-1.79.07-.07.2-.1.27-.05.02,0,.05.05.07.07v.05c.1.2.07.42-.07.6-.25.32-.7.92-1.09,1.22-.47.35-.97.62-1.54.82-.55.2-1.52.22-1.96.22-.92,0-1.57-.45-1.91-1.29,0-.05-.07-.05-.1-.05h-.02c-.5.55-1.09.9-1.82,1.12-.97.27-1.79-.07-2.01-1.09-.02-.12-.05-.25-.1-.35,0-.02-.05-.05-.07-.05h-.02c-.57.75-1.59,1.44-2.46,1.57-.6.1-1.37-.27-1.64-.85-.07-.17-.05-.45-.12-.62l-.12-.05ZM231.25,133.45s.07-.02.1-.05c.6-.42,2.69-2.21,2.59-3.03,0-.17-.12-.3-.25-.32-.42-.1-.9.62-1.17,1.04-.62.99-1.04,1.77-1.32,2.31v.02h0l.05.02ZM196.39,134.91c-.87-.25-1.99.85-2.41,1.52-.35.57-1.32,2.19-.37,2.71.17.1.37.1.67.02.94-.25,1.74-1.44,2.16-2.29.02-.07.02-.15,0-.2-.37-.52-.35-1.02.07-1.47.07-.07.05-.17,0-.25,0,0-.05-.02-.07-.05h-.05ZM217.12,136.43c-.17.27-.32.52-.42.75-.25.55-.4,1.37,0,1.86.32.37.94.07,1.22-.2.32-.32.65-.72.97-1.19.32-.47.57-.92.77-1.34.15-.35.2-1.04-.27-1.19-.6-.2-1.32.25-1.74.67-.17.17-.35.4-.52.67v-.02ZM234.28,135.26h-.02l-1.22,1.82c-.05.1-.07.2-.05.3l.1.45s0,.1-.05.15c-.32.32-.67.55-.52.97.22.7,1.27.52,1.62.1.57-.67.75-1.52.57-2.44-.1-.55-.2-.97-.3-1.29,0-.05-.05-.07-.1-.05h-.02Z"/>
  <path class="cls-1" d="M128.51,142.02c-.2.65-.52,1.17-.92,1.54h-1.02c-.17-.1-.2-.17-.15-.3.25-.4.47-.8.7-1.22.3-.55.57-1.12.82-1.69.25-.55.5-.92.77-1.39v-.07h-.05c-.15.05-.3.15-.42.25-.47.37-.97.6-1.57.67-.94.12-1.69-.3-1.77-1.27,0-.05-.05-.1-.12-.1,0,0-.05,0-.07.02-.94.85-2.01,1.52-3.26,1.42-1.02-.1-1.67-.6-1.94-1.54,0-.02-.02-.05-.05-.02h0c-.57.7-1.29,1.17-2.16,1.44s-1.64.05-1.94-.85c0-.05-.07-.07-.12-.07,0,0-.02,0-.05.02-.62.65-1.44,1.24-2.36.9-1.32-.5-1.17-2.16-.7-3.18.27-.57.87-1.42,1.42-1.79.6-.42,1.32-.67,2.14-.75.65-.05.85.35,1.17.77.05.05.12.07.17,0,0,0,.02,0,.02-.05l.2-.32s.07-.07.12-.07h.99c.1,0,.17.07.17.17v.07c-.1.2-.72,1.27-1.84,3.16-.1.15-.17.32-.22.5-.27.87.85.75,1.27.52.7-.4,1.32-.9,1.82-1.52.02-.05.07-.1.1-.15.67-1.44,1.42-2.46,2.98-2.98.05,0,.32-.05.82-.07.67-.05,1.14.27,1.14.94,0,.35-.1.62-.27.82-.25.27-.94.77-1.17.15-.05-.1,0-.22.07-.3l.5-.5c.07-.07.07-.17,0-.25-.37-.45-1.32.37-1.62.62-.77.7-1.54,1.84-1.22,2.86.22.67,1.22.67,1.79.47.94-.35,1.77-1.07,2.44-1.77.57-.62.99-1.52,1.54-2.34.17-.27.45-.42.77-.42h.47c.15,0,.3.12.3.3,0,.05,0,.1-.05.15l-1.96,3.36s-.02.07-.05.12c-.02.22,0,.4.02.52.05.15.2.22.37.2.57-.07,1.09-.3,1.57-.7,1.04-.87,1.89-1.91,2.56-3.13.02-.05,0-.1-.05-.12h-.8c-.12,0-.2-.1-.2-.2h0v-.17c0-.12.1-.25.25-.25h1.02c.07,0,.15-.05.17-.1.12-.27.47-.87.99-1.77.52-.87,1.12-1.67,1.82-2.34.35-.35,1.17-.85,1.69-.94.55-.1,1.02-.05,1.39.1,1.07.42,1.34,1.74.7,2.59-.35.45-.77.62-1.29.55-.45-.07-.65-.35-.57-.85.1-.52.4-.75.94-.67.1,0,.2.07.3.17.02.02.07.05.12,0,0,0,.02-.02.02-.05.22-1.27-1.02-1.52-1.84-.97-.35.25-.77.7-1.04,1.07-.52.72-.99,1.44-1.47,2.21-.17.3-.32.6-.42.9,0,.02,0,.05.02.07h3.48c.12,0,.22.1.22.22,0,.05,0,.07-.02.1-.52.92-1.17,2.01-1.91,3.28-.22.37-.3.92.27.97.87.07,2.11-1.14,2.64-1.77.05-.07.1-.15.15-.22.37-.75.7-1.27.94-1.57.8-.92,1.82-1.37,3.01-1.32.42,0,.7.2.85.52.32.75-.15,1.49-.94,1.69-.07,0-.15,0-.22-.05-.55-.4.17-.8.45-1.07.07-.07.07-.22,0-.3,0,0-.05-.02-.07-.05-.37-.17-1.07.3-1.34.55-.67.57-1.64,1.74-1.54,2.69.15,1.32,1.77,1.02,2.51.6.67-.37,1.32-.94,1.96-1.72.07-.07.17-.1.25,0,.05.02.07.07.07.15v.32c0,.07-.02.15-.07.2-.97,1.19-1.94,1.94-3.48,2.19h-.05l-.97-.07s-.1,0-.15-.02c-.67-.27-1.07-.72-1.22-1.37,0-.07-.07-.1-.15-.1,0,0-.05,0-.05.02-.57.6-1.22,1.04-1.91,1.37-.05,0-.1.02-.15.05-.4.1-1.29.17-1.64-.2-.45-.47-.6-.99-.47-1.57.2-.92.87-1.89,1.49-2.73.02-.05,0-.1,0-.15h-2.24c-.12,0-.22.07-.27.17l-3.36,6.71.02.07ZM113.67,136.35c-.35.52-.67,1.22-.67,1.91,0,.4.15.65.42.8.45.22.85-.07,1.14-.4.37-.42.67-.8.87-1.09.22-.32.45-.72.7-1.22.2-.4.32-.9-.05-1.22-.22-.2-.52-.22-.9-.1-.65.25-1.19.8-1.54,1.32h.02Z"/>
  <ellipse class="cls-1" cx="128.92" cy="131.87" rx=".8" ry=".82" transform="translate(-22.24 237.52) rotate(-80.6)"/>
  <circle class="cls-1" cx="226.87" cy="131.93" r=".77"/>
</svg>