<?xml version="1.0" encoding="UTF-8"?>
<svg id="Layer_1" data-name="Layer 1" xmlns="http://www.w3.org/2000/svg" viewBox="0 0 352.3 165.34">
  <defs>
    <style>
      .cls-1 {
        fill: #ffce00;
      }

      .cls-2 {
        fill: #dcddde;
      }

      .cls-3 {
        stroke: #997d3e;
      }

      .cls-3, .cls-4 {
        fill: none;
        stroke-width: .41px;
      }

      .cls-5 {
        fill: #332b7b;
      }

      .cls-6 {
        fill: #ef0000;
      }

      .cls-7 {
        fill: #bde8d1;
      }

      .cls-4 {
        stroke: #f76700;
      }
    </style>
  </defs>
  <path class="cls-3" d="M223.49,82.68c-1.91-.67-3.85-1-5.83-.99-.24,0-.48-.03-.71-.1-1.77-.52-3.27-1.29-5.23-1.3-12.33-.07-24.43-.19-36.32-.35-4.1-.06-7.95-.04-11.85.44-1.21.15-2.22.21-3.03.17-1.3-.05-2.4-.13-3.31-.22-3.14-.33-5.8-.73-8.64-.47-1.16.11-2.71.41-4.3.64-.69.1-1.78.12-3.26.05-2.38-.11-4.71-.15-6.98-.13-1.96.02-3.61.51-5.67,1.01-.73.18-1.45.25-2.17.23-1.95-.06-3.49-.13-5.32.54" vector-effect="non-scaling-stroke"/>
  <path class="cls-4" d="M198.3,36.07c-1.69-.19-3.22,1.15-3.43,2.99h0c-.2,1.84,1,3.48,2.69,3.67,1.69.19,3.22-1.15,3.43-2.99h0c.2-1.84-1-3.48-2.69-3.67" vector-effect="non-scaling-stroke"/>
  <path class="cls-4" d="M198.56,36.87c-1.21-.31-2.48.53-2.83,1.89h0c-.35,1.36.35,2.71,1.56,3.03h0c1.21.31,2.48-.53,2.83-1.89,0,0,0,0,0,0,.35-1.36-.35-2.71-1.56-3.03h0" vector-effect="non-scaling-stroke"/>
  <path class="cls-4" d="M197.41,40.46c.27.29,1.45,1,1.86.56.1-.11.07-.28-.06-.38-.04-.03-.08-.05-.12-.06-.51-.15-.92-.31-1.25-.49-.04-.02-.05-.06-.03-.1.01-.03.04-.04.07-.04.67-.04,1.56-.65,1.41-1.42-.17-.84-1.11-1.15-1.89-1.05-.35.04-.66.17-.91.39-.1.09-.11.24-.02.35,0,.01.02.02.03.03.05.04.08.07.09.09.03.07.05.16.03.24-.13.66-.45,1.98-.19,2.43.12.21.27.26.44.15.21-.13.35-.34.4-.63,0-.05.06-.08.1-.07.02,0,.04.01.05.03" vector-effect="non-scaling-stroke"/>
  <path class="cls-4" d="M197.63,38.1l-.13,1.27s0,.02.02.03c0,0,0,0,0,0h0c.33.03.63-.23.67-.59,0,0,0,0,0,0h0c.04-.37-.21-.69-.54-.72,0,0,0,0,0,0h0s-.02,0-.02.02" vector-effect="non-scaling-stroke"/>
  <path class="cls-4" d="M167.19,57.91s-.01.76-.04,2.27c-.01.65-.04,1.4-.1,2.27-.15,2.3-.19,4.34-.12,6.13.04,1.04.27,2.72.96,3.41,2.26,2.28,3.86-2.62,4.26-3.99.76-2.62,1.24-5.29,1.43-8.03.15-2.27.3-8.34-2.66-9.23-.73-.22-1.22.03-1.5.73-.74,1.91-.58,4.59-2.13,6.26-.05.05-.08.11-.09.18" vector-effect="non-scaling-stroke"/>
  <path class="cls-5" d="M190.17,111.54c.05-.18.17-.35.36-.52.46-.41.54-.95.43-1.45-.28-1.3-.3-2.52-.04-3.64.04-.16.05-.33.03-.5-.12-1.14-.23-1.76-.24-2.77,0-1.08.05-2.11.15-3.08.12-1.08-.27-2.43-.19-3.29.15-1.75.25-2.98.28-3.69,0-.12.04-.23.11-.33.29-.44.71-.83,1.26-1.15.14-.08.29-.12.45-.1.38.04,1.42.08,3.12.12.58.01.98.3,1.2.86.22.56.33.92.33,1.08-.03,1.76.15,3.14.08,4.91-.11,2.56.12,5.37-.09,8.06-.04.56.04,1.11.24,1.66.04.1.05.22.04.33-.15,1.45-.32,3.33-.19,5.27.09,1.39.08,2.87-.02,4.46-.06.9-.04,1.79-.79,2.41-.94.77-4,.95-5.09.12-.23-.18-.39-.48-.48-.92-.32-1.63-.44-2.93-.36-3.92.06-.8.14-1.73.23-2.8.02-.21-.09-.41-.27-.52l-.41-.24c-.11-.07-.17-.2-.14-.33Z"/>
  <path class="cls-5" d="M153.71,101.52c-.13.15-.41.25-.84.31-.59.08-1.66.2-3.2.35-.36.04-.8,0-1.3-.12-.69-.16-1.03-.6-1.02-1.31.03-2.18-.02-4.02-.13-5.53-.05-.63-.01-1.18,0-2.07.02-1.05.25-1.62,1.3-1.76,1.14-.15,2.48-.09,4.02.19,1.94.35,2.06,2.27,1.85,3.84-.11.84-.17,1.35-.15,1.52.09,1.23.36,3.58-.54,4.59Z"/>
  <path class="cls-5" d="M147.58,108.58c.34-.66,1.65-.86,2.3-.9,1.22-.08,2.35-.12,3.39-.12.55,0,.71.38.66.89-.07.67.45.84.51,1.39.12,1.11.09,2.19-.01,3.42-.14,1.65-.07,2.52-.01,4.48,0,.06-.04.35-.12.86-.16,1.02-.82,1.59-1.86,1.78-1.01.18-2.05.21-3.13.08-1.19-.14-1.8-.83-1.81-2.06-.01-.9,0-1.89.03-2.98,0-.21,0-.42-.04-.62-.14-.83-.21-1.26-.19-2,0-.15.08-1.5.24-4.04,0-.07.02-.13.05-.19Z"/>
  <path class="cls-6" d="M198.3,36.07c1.69.19,2.9,1.83,2.69,3.67-.2,1.84-1.74,3.18-3.43,2.99h0c-1.69-.19-2.9-1.83-2.69-3.67.2-1.84,1.74-3.18,3.43-2.99h0ZM198.56,36.87c-1.21-.31-2.48.53-2.83,1.89h0c-.35,1.36.35,2.71,1.56,3.03h0c1.21.31,2.48-.53,2.83-1.89,0,0,0,0,0,0,.35-1.36-.35-2.71-1.56-3.03h0Z"/>
  <path class="cls-6" d="M197.41,40.46s-.09-.04-.13,0c-.02.01-.03.03-.03.05-.05.29-.18.5-.4.63-.17.11-.32.06-.44-.15-.26-.45.06-1.77.19-2.43.02-.08,0-.16-.03-.24-.01-.02-.04-.06-.09-.09-.11-.09-.13-.24-.04-.35,0-.01.02-.02.03-.03.25-.22.56-.35.91-.39.78-.1,1.72.21,1.89,1.05.16.77-.73,1.38-1.41,1.42-.04,0-.08.04-.07.08,0,.03.02.05.04.07.32.18.74.34,1.25.49.16.05.26.2.23.34,0,.04-.03.08-.05.11-.41.44-1.59-.27-1.86-.56ZM197.63,38.1l-.13,1.27s0,.02.02.03c0,0,0,0,0,0h0c.33.03.63-.23.67-.59,0,0,0,0,0,0h0c.04-.37-.21-.69-.54-.72,0,0,0,0,0,0h0s-.02,0-.02.02Z"/>
  <path class="cls-1" d="M198.56,36.87c1.21.31,1.91,1.67,1.56,3.03h0c-.35,1.36-1.62,2.21-2.83,1.89h0c-1.21-.31-1.91-1.67-1.56-3.03,0,0,0,0,0,0,.35-1.36,1.62-2.21,2.83-1.89h0ZM197.41,40.46c.27.29,1.45,1,1.86.56.1-.11.07-.28-.06-.38-.04-.03-.08-.05-.12-.06-.51-.15-.92-.31-1.25-.49-.04-.02-.05-.06-.03-.1.01-.03.04-.04.07-.04.67-.04,1.56-.65,1.41-1.42-.17-.84-1.11-1.15-1.89-1.05-.35.04-.66.17-.91.39-.1.09-.11.24-.02.35,0,.01.02.02.03.03.05.04.08.07.09.09.03.07.05.16.03.24-.13.66-.45,1.98-.19,2.43.12.21.27.26.44.15.21-.13.35-.34.4-.63,0-.05.06-.08.1-.07.02,0,.04.01.05.03Z"/>
  <path class="cls-1" d="M197.63,38.1s.01-.02.02-.02h0c.33.03.58.35.54.71,0,0,0,0,0,0h0c-.04.37-.33.64-.67.61,0,0,0,0,0,0h0s-.02-.01-.02-.02c0,0,0,0,0,0l.13-1.27Z"/>
  <path class="cls-1" d="M167.28,57.73c1.55-1.67,1.39-4.35,2.13-6.26.27-.7.77-.94,1.5-.73,2.97.88,2.81,6.96,2.66,9.23-.19,2.73-.66,5.41-1.43,8.03-.4,1.37-2,6.27-4.26,3.99-.69-.7-.92-2.37-.96-3.41-.07-1.79-.02-3.84.12-6.13.06-.87.09-1.62.1-2.27.03-1.51.04-2.27.04-2.27.01-.07.05-.13.09-.18Z"/>
  <path class="cls-1" d="M223.49,82.68c-1.91-.67-3.85-1-5.83-.99-.24,0-.48-.03-.71-.1-1.77-.52-3.27-1.29-5.23-1.3-12.33-.07-24.43-.19-36.32-.35-4.1-.06-7.95-.04-11.85.44-1.21.15-2.22.21-3.03.17-1.3-.05-2.4-.13-3.31-.22-3.14-.33-5.8-.73-8.64-.47-1.16.11-2.71.41-4.3.64-.69.1-1.78.12-3.26.05-2.38-.11-4.71-.15-6.98-.13-1.96.02-3.61.51-5.67,1.01-.73.18-1.45.25-2.17.23-1.95-.06-3.49-.13-5.32.54-.36-9.29-.52-18.57-.5-27.85,0-3.63.12-7.52.34-11.66.06-1.2.2-2.37.42-3.51.13-.7.62-2.26,1.45-4.68,1.52-4.42,5.16-6.47,9.45-7.52,3.68-.91,7.12-1.18,11.16-1.48,11.92-.89,23.79-1.17,35.61-.84,2.06.06,4.34.2,6.82.42,1.8.16,4.06.46,6.77.89,6.17.99,11.95,1.91,17.28,4.16,1.91.8,3.53,1.81,4.89,3,2.31,2.04,4.58,4.65,5.57,7.64.48,1.46.74,3.43.91,5.12.88,8.51,1.61,17.64,2.18,27.39.2,3.36.28,6.49.26,9.4ZM191.21,76.36c.07-.15.04-.35-.11-.61-2.55-4.56-3.04-9.82-2.72-14.97.51-8.31,1.55-16.2,2.43-24.59.04-.35.1-1.12.18-2.3.04-.65,0-1.14-.11-1.47-.56-1.55-2.39-2.5-3.92-2.81-1.16-.24-2.61-.11-3.03,1.21-.08.24-.11.58-.11,1,0,.72-.05,1.42-.12,2.07-.09.88-.54,4.7-1.34,11.46-.62,5.22-1.02,10-1.2,14.36-.15,3.63.15,7.06,1.61,10.34,1.31,2.95,4.63,7.15,8.28,6.44.07-.01.14-.06.17-.13ZM198.3,36.07c-1.69-.19-3.22,1.15-3.43,2.99h0c-.2,1.84,1,3.48,2.69,3.67,1.69.19,3.22-1.15,3.43-2.99h0c.2-1.84-1-3.48-2.69-3.67ZM130.3,45.24c1.75.51,4.05.46,5.09-1.25.5-.83.69-1.74.58-2.75-.38-3.22-5.03-7.21-7.88-3.88-1.09,1.28-1.61,2.78-1.15,4.39.44,1.5,1.77,3.02,3.36,3.49ZM140.22,75.59c-.17.63.51,1.03,1.05,1.19.83.25,1.61.18,2.75.16,2.67-.06,5.36-.99,7.68-2.29,2.86-1.61,4.54-4.13,4.34-7.52-.09-1.52-.5-2.91-1.58-3.9-2.18-1.98-5.31-2.33-7.97-2.97-.08-.02-.16-.05-.24-.1-.54-.35-.83-.9-.86-1.65-.11-2.92,2.31-6.88,5.62-6.74.08,0,.17.02.24.04,1.34.4,2.29.76,3.47.72,1.81-.07,2.45-2.63,2.48-4.07.03-1.15-.64-1.52-1.62-1.93-2.58-1.06-5.76-1.48-8.38-.38-4.99,2.09-8.48,6.36-8.77,11.91-.06,1.07,0,1.98.18,2.75,1.06,4.65,6.27,5.31,10.11,6.08.46.09.88.27,1.25.52.09.06.15.14.19.23,1.36,3.01-1.98,5.06-4.21,6.12-1.77.84-3.58,1.35-5.41,1.52-.17.02-.28.12-.33.31ZM207.08,67.3c.09.13.14.24.16.32.62,2.59,1.51,5.69,3.22,7.91,1.02,1.32,2.69,2.25,4.35,1.71.9-.29,1.64-.65,2.23-1.08.87-.64.93-1.63-.15-2.1-.3-.13-.53-.19-.69-.18-.06,0-.12-.02-.17-.06-.28-.22-.44-.41-.49-.56-.37-1.07-.59-2.29-.66-3.66-.17-3.2-.26-6.29-.27-9.27,0-.28,0-1.06-.17-1.45-.46-1.02-1.83-1.62-2.89-1.77-1.67-.25-3.92-.37-4.76,1.17-.15.27-.24.83-.28,1.67-.03.67-.13,1.39-.31,2.16-.64,2.8-1.5,5.47-2.56,8.02-.29.71-1.44,3.47-2.37,3.34-1.26-.17-1.6-2.36-1.66-3.28-.31-4.98.59-9.71,2.69-14.18,1.3-2.76,4.1-6.51,7.48-6.41.75.02,1.29.67,1.57,1.32.53,1.26.78,2.58.75,3.96,0,.41.32.76.74.76.05,0,.1,0,.16-.01l.21-.04c.57-.11.98-.62.95-1.2-.13-3.61-1.12-6.53-5.19-7.02-1.27-.15-2.72-.22-4.35-.2-1.59.02-3.01.36-4.24,1.02-5.42,2.93-7.94,11-8.08,16.68-.12,4.95,1.58,9.78,7.25,10.28,4.14.36,6.08-4.86,7.43-7.85.01-.03.05-.05.08-.03.01,0,.02.01.03.02ZM163,51.38c-4.78,1.21-5.15,8.82-5.05,12.66.14,5.36,2.2,11.57,8.71,11.31,7.83-.31,10.73-9.95,10.94-16.2.15-4.54-1-11.68-7.08-11.67-2.61,0-5.78.58-7.05,3.18-.17.34-.27.54-.31.6-.04.05-.09.09-.16.11ZM136.42,70.77c-1.56-3.94-2.05-8.25-1.83-12.39.17-3.13.25-4.82.26-5.06.02-.61-.02-1.05-.14-1.32-.65-1.49-2.84-2.38-4.33-2.61-.65-.1-1.94-.12-2.04.7-.12.97-.26,2.39-.42,4.26-.46,5.21-1.03,20.07,7.41,20.06,1.34,0,2.55-.62,2.75-1.99.15-1.01-.27-1.91-1.46-1.55-.09.03-.18-.02-.21-.1Z"/>
  <path class="cls-6" d="M130.3,45.24c-1.59-.47-2.93-1.98-3.36-3.49-.46-1.61.05-3.12,1.15-4.39,2.85-3.33,7.5.66,7.88,3.88.12,1.01-.07,1.92-.58,2.75-1.04,1.71-3.34,1.76-5.09,1.25Z"/>
  <path class="cls-6" d="M140.22,75.59c.05-.19.16-.29.33-.31,1.83-.17,3.63-.68,5.41-1.52,2.23-1.06,5.57-3.11,4.21-6.12-.04-.09-.11-.17-.19-.23-.37-.25-.78-.43-1.25-.52-3.84-.77-9.05-1.43-10.11-6.08-.17-.76-.23-1.68-.18-2.75.29-5.55,3.78-9.82,8.77-11.91,2.61-1.1,5.79-.68,8.38.38.98.4,1.65.78,1.62,1.93-.04,1.44-.68,4-2.48,4.07-1.17.05-2.13-.32-3.47-.72-.08-.02-.16-.04-.24-.04-3.31-.14-5.73,3.82-5.62,6.74.03.74.31,1.29.86,1.65.07.05.15.08.24.1,2.67.64,5.79.98,7.97,2.97,1.09.99,1.5,2.38,1.58,3.9.2,3.39-1.48,5.91-4.34,7.52-2.32,1.3-5.01,2.23-7.68,2.29-1.14.02-1.92.09-2.75-.16-.53-.16-1.22-.57-1.05-1.19Z"/>
  <path class="cls-6" d="M207.08,67.3s-.06-.04-.09-.02c0,0-.02.02-.02.03-1.35,2.99-3.29,8.21-7.43,7.85-5.66-.5-7.37-5.33-7.25-10.28.14-5.69,2.65-13.76,8.08-16.68,1.23-.67,2.65-1.01,4.24-1.02,1.63-.02,3.08.05,4.35.2,4.07.49,5.06,3.41,5.19,7.02.02.58-.38,1.09-.95,1.2l-.21.04c-.41.08-.8-.19-.88-.59,0-.05-.01-.1-.01-.16.03-1.38-.22-2.7-.75-3.96-.27-.66-.82-1.3-1.57-1.32-3.38-.1-6.18,3.64-7.48,6.41-2.1,4.47-3,9.2-2.69,14.18.06.92.4,3.11,1.66,3.28.93.13,2.08-2.63,2.37-3.34,1.06-2.54,1.91-5.22,2.56-8.02.18-.77.28-1.49.31-2.16.03-.84.13-1.4.28-1.67.84-1.54,3.1-1.42,4.76-1.17,1.06.15,2.43.75,2.89,1.77.18.39.17,1.17.17,1.45,0,2.98.1,6.07.27,9.27.07,1.37.3,2.59.66,3.66.05.15.22.34.49.56.05.04.11.06.17.06.16,0,.39.05.69.18,1.09.46,1.02,1.46.15,2.1-.59.43-1.33.79-2.23,1.08-1.66.54-3.33-.39-4.35-1.71-1.71-2.21-2.6-5.32-3.22-7.91-.02-.08-.07-.19-.16-.32Z"/>
  <path class="cls-6" d="M163.16,51.27c.04-.06.15-.26.31-.6,1.27-2.61,4.44-3.18,7.05-3.18,6.07-.01,7.23,7.13,7.08,11.67-.21,6.25-3.1,15.89-10.94,16.2-6.51.26-8.57-5.95-8.71-11.31-.1-3.84.26-11.45,5.05-12.66.06-.02.12-.06.16-.11ZM167.19,57.91s-.01.76-.04,2.27c-.01.65-.04,1.4-.1,2.27-.15,2.3-.19,4.34-.12,6.13.04,1.04.27,2.72.96,3.41,2.26,2.28,3.86-2.62,4.26-3.99.76-2.62,1.24-5.29,1.43-8.03.15-2.27.3-8.34-2.66-9.23-.73-.22-1.22.03-1.5.73-.74,1.91-.58,4.59-2.13,6.26-.05.05-.08.11-.09.18Z"/>
  <path class="cls-6" d="M136.42,70.77c.03.08.12.13.21.1,1.19-.36,1.61.54,1.46,1.55-.2,1.37-1.41,1.99-2.75,1.99-8.45.01-7.88-14.85-7.41-20.06.17-1.87.31-3.29.42-4.26.1-.82,1.39-.8,2.04-.7,1.48.22,3.68,1.12,4.33,2.61.12.27.17.71.14,1.32,0,.24-.09,1.92-.26,5.06-.22,4.14.27,8.46,1.83,12.39Z"/>
  <path class="cls-6" d="M191.04,76.49c-3.66.72-6.97-3.49-8.28-6.44-1.46-3.28-1.76-6.71-1.61-10.34.18-4.35.58-9.14,1.2-14.36.8-6.76,1.25-10.58,1.34-11.46.07-.66.13-1.36.12-2.07,0-.42.03-.76.11-1,.42-1.32,1.87-1.45,3.03-1.21,1.54.31,3.37,1.26,3.92,2.81.12.33.16.83.11,1.47-.08,1.18-.14,1.95-.18,2.3-.88,8.39-1.92,16.28-2.43,24.59-.32,5.15.17,10.41,2.72,14.97.14.26.18.46.11.61-.03.07-.1.12-.17.13Z"/>
  <path class="cls-5" d="M223.49,82.68c0,1.96-.1,5.21-.28,9.74-.25,6.13-.82,12.11-1.72,17.96-.5,3.29-1.24,6.41-2.19,9.36-.78,2.4-1.97,4.67-3.97,6.46-2.92,2.62-6.58,4.71-10.35,5.86-1.09.33-2.48.58-4.17.75-4.26.43-7.95.7-11.06.83-13.09.54-26.34.13-39.77-1.21-4.5-.45-8.96-1.01-13.56-2.16-5.3-1.34-9.12-3.95-11.36-9.07-1.06-2.43-1.74-4.89-2.04-7.37-1.26-10.48-1.8-21.08-2.14-31.63,1.82-.67,3.36-.61,5.32-.54.72.02,1.44-.05,2.17-.23,2.06-.51,3.71-.99,5.67-1.01,2.27-.02,4.6.02,6.98.13,1.48.07,2.56.05,3.26-.05,1.59-.23,3.15-.53,4.3-.64,2.84-.27,5.51.14,8.64.47.9.09,2,.17,3.31.22.81.03,1.83-.02,3.03-.17,3.9-.48,7.74-.5,11.85-.44,11.89.17,23.99.28,36.32.35,1.96.01,3.46.78,5.23,1.3.23.07.47.1.71.1,1.98,0,3.92.33,5.83.99ZM182.87,91.17c-.2.34-.31.72-.35,1.15-.1,1.02-.15,2.14-.16,3.36-.02,2.24.01,4.2.09,5.86.01.26,0,.47-.01.63-.23,1.93.09,4.12.04,6.24-.05,1.95-.01,4.38.11,7.29,0,.13-.03,1.32-.1,3.56,0,.25.14.88.45,1.91.13.44.09,1.15.25,1.64.58,1.75,3.04,2.95,4.66,3.15,1.41.18,2.43.56,3.7.57,1.58.01,3.04.05,4.39.1,2.04.09,4.05-.24,6.02-.98,2.07-.78,3.15-2.24,3.25-4.38,0-.17.04-.33.1-.49.29-.75.43-1.24.44-1.47,0-3.2.05-7.4.13-12.59.02-1.34-.02-2.47-.14-3.41-.1-.85-.12-1.53-.07-2.06.16-1.45.4-2.39.18-3.65-.16-.9-.26-1.36-.22-2.23.05-1.25.06-2.17.03-2.76,0-.16-.13-.7-.38-1.6-.05-.2-.08-.41-.08-.61.01-.87.07-1.56-.43-2.17-1.74-2.1-4.72-3.2-7.4-3.11-1.65.06-3.08.07-4.28.04-.81-.02-1.3.13-2.43.44-.16.04-.33.07-.5.07-2.1.06-4.47.15-5.84,1.87-.61.76-1.06,1.51-1.35,2.23-.05.13-.08.28-.07.43.02.57.01.89-.04.98ZM140.83,89.9c-.16.32-.74.36-1.02.49-.07.03-.12.1-.13.18-.06.56-.27,1.07-.64,1.52-.41.5-.42,1.4-.44,2-.03.79.23,1.67.13,2.51-.04.33-.05.7-.04,1.12.06,2.44.13,4.33.22,5.66.08,1.24.1,2.53.06,3.87-.09,2.97-.08,5.76.04,8.36.06,1.26.07,2.34.02,3.23-.13,2.6-.19,3.98,0,6.18.01.14.06.27.15.38.63.8,1.29.89,2.33.95.62.03,1,.05,1.15.04,2.27-.05,4.28-.03,6.03.08.35.02,2.35,0,5.99-.08,1.04-.02,1.89-.11,2.54-.26,1.24-.3,2.73-.78,3.56-1.7.79-.88,1.63-2,1.72-3.35.1-1.45.03-2.93-.21-4.44-.04-.26-.01-.53.08-.78l.28-.77c.02-.05.03-.1.02-.15-.12-1.93-.2-3.44-.24-4.51-.05-1.47-.19-2.69-.96-3.75-.45-.63-1.83-1.68-1.02-2.56.45-.49.94-1.16,1.46-2.02.8-1.31.79-3.02.69-4.57-.15-2.35-.27-4.05-.35-5.11-.06-.67.07-1.38.01-2.11-.05-.63-.83-1.56-1.08-2.19-.04-.09-.09-.17-.16-.24-.54-.54-1.18-.98-1.92-1.33-.63-.3-1.03-.2-1.67.06-.27.1-.57-.03-.67-.29,0-.02-.01-.03-.02-.05-.12-.44-.53-.46-1.05-.53-1.47-.22-2.5-.35-3.07-.39-.54-.04-1.41-.02-2.59.06-.68.05-1.23.05-1.64,0-1.8-.24-3.51-.08-5.8.08-1.5.1-2.46.31-2.86.62-.79.61-1.04,1.55-.73,2.83.22.93.84.76,1.69.74.09,0,.17.07.17.16,0,.03,0,.05-.02.08ZM168.98,91.64l-.5.5s-.06.09-.07.15c-.02.49-.08,1.1-.17,1.81-.27,2.08.17,4.19.16,6.25-.01,3.71-.25,8.08-.31,10.54-.01.54.03,1.11.14,1.72.03.2.04.41.03.62-.05.8-.08,1.71-.08,2.72,0,.46.09.93.29,1.4.1.24.13.51.1.79-.11.98-.21,1.81-.2,2.72,0,1.68,0,2.93-.01,3.75,0,.22.08.44.24.6.72.75,1.6,1.12,2.63,1.12,1.42,0,2.58-.05,3.46-.17.74-.1,1.37-.42,1.89-.96.12-.13.18-.3.15-.48-.09-.53-.1-1.25-.05-2.16.13-2.09.08-4.28.13-6.37,0-.33-.1-.89-.33-1.67-.01-.04-.02-.08-.01-.12l.24-6.73c0-.15-.03-.31-.09-.45-.02-.05-.19-.43-.5-1.15-.16-.36-.18-.63-.08-.82.29-.54.45-1.06.48-1.59.16-2.93.19-5.8.12-8.62-.01-.51,0-.89.05-1.14.33-1.69-.07-3.33-.02-5.13.03-.99.16-1.97-.39-2.49-.62-.59-1.41-.92-2.36-1-1.54-.13-3.12-.07-4.73.17-.06,0-.11.03-.15.07-.38.32-.59.6-.61.86-.15,1.77-.23,2.69-.24,2.77-.08,1.09.22,1.21.82,1.91.14.16.13.41-.02.56Z"/>
  <path class="cls-2" d="M121.63,123.9c1.4,1.77,2.77,3.2,4.13,4.29,1.44,1.16,3.19,2.15,5.24,2.97,2.73,1.1,6.02,2.03,9.86,2.77,3.98.77,7.96,1.44,11.93,2,2.26.32,4.95.54,8.08.69,5.82.26,11.87.33,18.16.21,7.39-.14,14.66-.47,21.82-.99,1.68-.12,3.55-.29,5.62-.51,2.39-.25,4.61-.64,6.65-1.18,4.26-1.13,7.81-3.22,9.46-7.5.41-1.06.91-2.6,1.49-4.59.24-.81.4-1.74.49-2.8.15-1.69.23-2.63.24-2.85.09-2.63.2-5,.23-7.09.09-6.28.07-12.15-.04-17.62,0-.21-.05-2.58-.15-7.12-.1-5.03-.31-10.96-.63-17.8-.2-4.37-.47-8.96-.81-13.77-.3-4.19-.71-8.2-1.23-12.03,0-.04.02-.07.06-.08.01,0,.03,0,.04,0,2.87,1.45,5.02,3.72,6.55,6.63,1.2,2.28,2,4.68,2.4,7.19.23,1.41.4,3.33.51,5.76.38,7.95.17,15.96-.15,24.18-.43,10.89-1.1,21.4-2.01,31.52-.34,3.74-.65,6.56-.94,8.47-.38,2.53-1.08,4.95-2.1,7.29-1.8,4.12-5.03,6.27-9.37,7.29-2.17.51-4.46.86-6.88,1.06-4.68.37-9.32.48-14.41.5-11.14.05-22.22-.34-33.23-1.17-5.29-.4-10.79-1.14-16.51-2.23-3.86-.74-7.52-1.7-11-2.88-3.43-1.17-6.92-2.92-9.62-5.44-1.58-1.47-2.89-3.18-3.93-5.13-.01-.03,0-.06.02-.08h0s.04,0,.05,0Z"/>
  <path class="cls-7" d="M182.87,91.17c.05-.09.06-.42.04-.98,0-.15.02-.29.07-.43.29-.72.74-1.47,1.35-2.23,1.37-1.71,3.74-1.81,5.84-1.87.17,0,.34-.03.5-.07,1.13-.31,1.62-.46,2.43-.44,1.21.03,2.63.02,4.28-.04,2.68-.09,5.66,1,7.4,3.11.5.61.44,1.3.43,2.17,0,.21.02.41.08.61.24.91.37,1.44.38,1.6.03.6.02,1.52-.03,2.76-.04.86.06,1.33.22,2.23.22,1.25-.02,2.2-.18,3.65-.06.53-.04,1.21.07,2.06.11.93.16,2.07.14,3.41-.08,5.19-.12,9.39-.13,12.59,0,.23-.15.72-.44,1.47-.06.16-.09.32-.1.49-.1,2.15-1.18,3.61-3.25,4.38-1.97.74-3.98,1.07-6.02.98-1.35-.06-2.81-.09-4.39-.1-1.28,0-2.29-.39-3.7-.57-1.62-.2-4.08-1.4-4.66-3.15-.16-.49-.12-1.2-.25-1.64-.31-1.03-.46-1.67-.45-1.91.07-2.24.1-3.43.1-3.56-.13-2.91-.16-5.34-.11-7.29.05-2.12-.27-4.3-.04-6.24.02-.16.02-.36.01-.63-.08-1.67-.11-3.62-.09-5.86,0-1.22.06-2.34.16-3.36.04-.43.16-.81.35-1.15ZM190.17,111.54c-.03.13.02.26.14.33l.41.24c.18.11.29.31.27.52-.09,1.07-.17,2.01-.23,2.8-.08.98.04,2.29.36,3.92.09.44.25.75.48.92,1.09.83,4.15.65,5.09-.12.76-.61.74-1.51.79-2.41.1-1.58.11-3.07.02-4.46-.13-1.94.04-3.82.19-5.27.01-.11,0-.22-.04-.33-.2-.54-.28-1.1-.24-1.66.21-2.69-.02-5.49.09-8.06.08-1.77-.11-3.15-.08-4.91,0-.17-.11-.53-.33-1.08-.22-.56-.62-.84-1.2-.86-1.7-.04-2.73-.08-3.12-.12-.16-.02-.31.02-.45.1-.55.33-.97.71-1.26,1.15-.06.1-.1.21-.11.33-.03.71-.12,1.94-.28,3.69-.08.86.31,2.22.19,3.29-.11.98-.16,2-.15,3.08,0,1.01.11,1.63.24,2.77.02.17,0,.33-.03.5-.26,1.13-.24,2.34.04,3.64.11.5.03,1.04-.43,1.45-.19.17-.31.34-.36.52ZM203.8,100.05s.08-.04.08-.09c0-.02-.01-.04-.03-.06-.18-.17-.28-.32-.3-.46-.08-.48-.31-.62-.73-.64-.18,0-.34.12-.41.32-.21.65.97.96,1.38.93Z"/>
  <path class="cls-7" d="M140.83,89.9c.04-.08.01-.18-.07-.22-.02-.01-.05-.02-.08-.02-.85.01-1.47.19-1.69-.74-.31-1.28-.07-2.22.73-2.83.4-.31,1.36-.51,2.86-.62,2.29-.16,4-.32,5.8-.08.42.06.96.06,1.64,0,1.19-.09,2.05-.11,2.59-.06.57.05,1.59.18,3.07.39.52.08.93.09,1.05.53.08.27.37.43.64.35.02,0,.03,0,.05-.02.64-.25,1.04-.36,1.67-.06.74.35,1.38.79,1.92,1.33.07.07.12.15.16.24.25.63,1.03,1.56,1.08,2.19.06.73-.07,1.44-.01,2.11.09,1.06.2,2.76.35,5.11.1,1.55.11,3.26-.69,4.57-.52.85-1.01,1.52-1.46,2.02-.81.88.57,1.94,1.02,2.56.77,1.06.91,2.28.96,3.75.04,1.08.12,2.58.24,4.51,0,.05,0,.1-.02.15l-.28.77c-.09.25-.12.52-.08.78.23,1.51.3,2.99.21,4.44-.09,1.34-.92,2.47-1.72,3.35-.83.92-2.32,1.4-3.56,1.7-.65.16-1.49.24-2.54.26-3.64.07-5.64.1-5.99.08-1.75-.1-3.76-.13-6.03-.08-.14,0-.53-.01-1.15-.04-1.04-.06-1.7-.14-2.33-.95-.08-.11-.14-.24-.15-.38-.19-2.19-.13-3.58,0-6.18.04-.89.04-1.97-.02-3.23-.12-2.6-.13-5.39-.04-8.36.04-1.34.02-2.63-.06-3.87-.09-1.33-.17-3.21-.22-5.66-.01-.42,0-.8.04-1.12.1-.84-.16-1.72-.13-2.51.02-.6.04-1.51.44-2,.37-.45.59-.96.64-1.52,0-.08.06-.15.13-.18.28-.13.86-.18,1.02-.49ZM153.71,101.52c.9-1.02.63-3.37.54-4.59-.01-.17.04-.68.15-1.52.21-1.57.09-3.48-1.85-3.84-1.54-.28-2.88-.34-4.02-.19-1.04.14-1.28.72-1.3,1.76-.02.89-.06,1.44,0,2.07.12,1.51.16,3.35.13,5.53,0,.72.33,1.15,1.02,1.31.51.12.94.16,1.3.12,1.54-.16,2.61-.28,3.2-.35.42-.06.7-.16.84-.31ZM147.53,108.77c-.15,2.54-.23,3.89-.24,4.04-.03.74.04,1.17.19,2,.04.21.05.41.04.62-.03,1.08-.04,2.08-.03,2.98.02,1.23.62,1.92,1.81,2.06,1.08.13,2.12.1,3.13-.08,1.04-.19,1.7-.76,1.86-1.78.08-.51.12-.8.12-.86-.05-1.96-.12-2.84.01-4.48.1-1.23.13-2.31.01-3.42-.06-.55-.58-.73-.51-1.39.05-.51-.11-.89-.66-.89-1.04,0-2.17.04-3.39.12-.65.04-1.96.24-2.3.9-.03.06-.05.13-.05.19ZM143.97,115.71c.02-.11-.05-.21-.16-.23-.04,0-.08,0-.11.01-.64.26-.84.66-.6,1.21.03.07.09.12.15.14.18.06.34.02.48-.1.05-.04.08-.1.09-.16l.15-.87Z"/>
  <path class="cls-7" d="M168.98,91.64c.15-.15.16-.4.02-.56-.6-.7-.9-.82-.82-1.91,0-.08.09-1.01.24-2.77.02-.25.22-.54.61-.86.04-.04.1-.06.15-.07,1.61-.24,3.19-.29,4.73-.17.95.08,1.74.41,2.36,1,.56.52.43,1.5.39,2.49-.05,1.8.35,3.44.02,5.13-.05.25-.07.63-.05,1.14.08,2.82.04,5.69-.12,8.62-.03.52-.19,1.05-.48,1.59-.1.19-.08.46.08.82.31.72.48,1.1.5,1.15.07.14.1.29.09.45l-.24,6.73s0,.08.01.12c.22.78.33,1.33.33,1.67-.04,2.09,0,4.28-.13,6.37-.06.91-.04,1.63.05,2.16.03.17-.03.35-.15.48-.52.54-1.15.86-1.89.96-.88.12-2.03.17-3.46.17-1.04,0-1.91-.38-2.63-1.12-.15-.16-.24-.38-.24-.6.01-.82.02-2.07.01-3.75,0-.92.09-1.74.2-2.72.03-.28,0-.55-.1-.79-.19-.47-.29-.94-.29-1.4,0-1.01.03-1.91.08-2.72.01-.21,0-.42-.03-.62-.1-.61-.15-1.18-.14-1.72.06-2.46.3-6.83.31-10.54,0-2.05-.43-4.17-.16-6.25.09-.71.15-1.32.17-1.81,0-.06.03-.11.07-.15l.5-.5ZM170.09,97.78c-.02.3.01.53.11.7.07.12.22.15.34.08.01,0,.03-.02.04-.03.4-.35.13-.71-.24-.89-.08-.04-.18,0-.22.08,0,.02-.01.04-.02.06Z"/>
</svg>