<?xml version="1.0" encoding="UTF-8"?>
<svg id="Layer_1" data-name="Layer 1" xmlns="http://www.w3.org/2000/svg" viewBox="0 0 352.3 165.34">
  <defs>
    <style>
      .cls-1 {
        fill: #483729;
        fill-rule: evenodd;
      }
    </style>
  </defs>
  <path class="cls-1" d="M124.63,89.41h8.6c.46,0,.65-.47.46-.93l-8.87-27.41c4.71-2.7,7.49-7.93,7.49-16.22,0-13.89-6.75-18.84-17.93-18.84h-12.66c-.55,0-.92.37-.92.93v61.54c0,.56.37.93.92.93h8.04c.55,0,.92-.37.92-.93v-24.43c0-.37.18-.56.55-.56h4.71l7.67,25.27c.18.47.46.65,1.02.65ZM122.41,44.84c0,7.55-2.4,9.79-7.95,9.79h-3.24c-.37,0-.55-.19-.55-.56v-18.46c0-.37.18-.56.55-.56h3.24c5.55,0,7.95,2.33,7.95,9.79ZM156.18,90.25c9.71,0,15.62-5.69,15.62-16.97V26.94c0-.56-.37-.93-.92-.93h-8.04c-.55,0-.92.37-.92.93v47.65c0,4.01-2.03,6.62-5.73,6.62s-5.82-2.61-5.82-6.62V26.94c0-.56-.37-.93-.92-.93h-8.04c-.55,0-.92.37-.92.93v46.34c0,11.28,6.01,16.97,15.71,16.97ZM180.98,26.94v61.54c0,.56.37.93.92.93h14.51c8.23,0,13.03-3.36,15.25-10.16,1.11-3.45,1.57-7.74,1.57-21.54s-.46-18.09-1.57-21.54c-2.22-6.81-7.03-10.16-15.25-10.16h-14.51c-.55,0-.92.37-.92.93ZM190.87,79.81c0,.37.18.56.55.56h3.97c3.51,0,5.55-1.4,6.66-4.57.74-2.33,1.11-5.41,1.11-18.09s-.37-15.76-1.11-18.09c-1.11-3.17-3.14-4.57-6.66-4.57h-3.97c-.37,0-.55.19-.55.56v44.2ZM222.33,89.41c-.55,0-.92-.37-.92-.93V26.94c0-.56.37-.93.92-.93h25.79c.55,0,.92.37.92.93v7.18c0,.56-.37.93-.92.93h-16.27c-.37,0-.55.19-.55.56v16.69c0,.37.18.56.55.56h14.05c.55,0,.92.37.92.93v7.18c0,.56-.37.93-.92.93h-14.05c-.37,0-.55.19-.55.56v17.34c0,.37.18.56.55.56h16.27c.55,0,.92.37.92.93v7.18c0,.56-.37.93-.92.93h-25.79Z"/>
  <path class="cls-1" d="M100.78,143.88c0,.44.27.73.68.73h5.88c.41,0,.68-.29.68-.73v-20.57c0-.29.14-.44.41-.44h7.78c.27,0,.41.15.41.44v20.57c0,.44.27.73.68.73h5.88c.41,0,.68-.29.68-.73v-47.97c0-.44-.27-.73-.68-.73h-5.88c-.41,0-.68.29-.68.73v19.48c0,.29-.14.44-.41.44h-7.78c-.27,0-.41-.15-.41-.44v-19.48c0-.44-.27-.73-.68-.73h-5.88c-.41,0-.68.29-.68.73v47.97ZM130.6,143.88c0,.44.27.73.68.73h18.87c.41,0,.68-.29.68-.73v-5.6c0-.44-.27-.73-.68-.73h-11.9c-.27,0-.41-.15-.41-.44v-13.52c0-.29.14-.44.41-.44h10.28c.41,0,.68-.29.68-.73v-5.6c0-.44-.27-.73-.68-.73h-10.28c-.27,0-.41-.15-.41-.44v-13.01c0-.29.14-.44.41-.44h11.9c.41,0,.68-.29.68-.73v-5.6c0-.44-.27-.73-.68-.73h-18.87c-.41,0-.68.29-.68.73v47.97ZM163.13,95.92l-9.94,47.97c-.07.44.14.73.54.73h5.75c.47,0,.68-.29.74-.73l1.83-9.96h9.13l1.83,9.96c.07.44.27.73.74.73h5.75c.41,0,.61-.29.54-.73l-9.74-47.97c-.07-.44-.34-.73-.74-.73h-5.68c-.41,0-.61.29-.74.73ZM163.2,127.39h6.83l-3.25-18.39h-.2l-3.38,18.39ZM184.03,95.92v47.97c0,.44.27.73.68.73h18.87c.41,0,.68-.29.68-.73v-5.6c0-.44-.27-.73-.68-.73h-11.9c-.27,0-.41-.15-.41-.44v-41.21c0-.44-.27-.73-.68-.73h-5.88c-.41,0-.68.29-.68.73ZM215.54,144.61h-5.88c-.41,0-.68-.29-.68-.73v-41.21c0-.29-.14-.44-.41-.44h-7.03c-.41,0-.68-.29-.68-.73v-5.6c0-.44.27-.73.68-.73h22.12c.41,0,.68.29.68.73v5.6c0,.44-.27.73-.68.73h-7.03c-.27,0-.41.15-.41.44v41.21c0,.44-.27.73-.68.73ZM229.13,144.61c-.41,0-.68-.29-.68-.73v-47.97c0-.44.27-.73.68-.73h5.88c.41,0,.68.29.68.73v19.48c0,.29.14.44.41.44h7.78c.27,0,.41-.15.41-.44v-19.48c0-.44.27-.73.68-.73h5.88c.41,0,.68.29.68.73v47.97c0,.44-.27.73-.68.73h-5.88c-.41,0-.68-.29-.68-.73v-20.57c0-.29-.14-.44-.41-.44h-7.78c-.27,0-.41.15-.41.44v20.57c0,.44-.27.73-.68.73h-5.88Z"/>
</svg>