<?xml version="1.0" encoding="UTF-8"?>
<svg id="Layer_1" data-name="Layer 1" xmlns="http://www.w3.org/2000/svg" viewBox="0 0 352.3 165.34">
  <defs>
    <style>
      .cls-1 {
        fill: #565558;
      }

      .cls-2 {
        fill: #7b0f6a;
      }

      .cls-3 {
        fill: #989696;
      }
    </style>
  </defs>
  <g>
    <path class="cls-1" d="M101.17,133.52c.28,0,.5.22.5.5,0,0,0,0,0,0l-.02,12.31c0,.2-.12.38-.31.45-5.66,2.31-12.6,2.45-17.61-1.2-5.61-4.08-6.44-13.02-3.6-19.12,3.26-7.03,13.75-10.19,20.38-6.22.2.12.32.33.31.56v3.98c0,.43-.35.78-.78.78-.34,0-.64-.22-.74-.55-.92-2.89-3.34-3.5-6.18-3.62-2.7-.11-4.96.78-6.79,2.68-3.38,3.5-3.54,9.4-2.53,14.02,1.48,6.75,7.13,8.41,13.07,6.16.16-.06.27-.22.28-.39.09-2.4.09-4.66,0-6.77-.05-1.03-1.31-1.85-1.22-2.98.03-.34.31-.6.65-.6h4.6Z"/>
    <path class="cls-1" d="M217.84,133.52c.28,0,.5.22.5.5l-.03,12.33c0,.2-.12.37-.31.45-5.66,2.31-12.61,2.44-17.62-1.21-5.61-4.09-6.43-13.04-3.59-19.14,3.27-7.03,13.76-10.18,20.4-6.21.2.12.32.33.32.56v3.99c-.01.43-.36.78-.79.78-.34,0-.64-.22-.74-.55-.92-2.9-3.34-3.5-6.18-3.63-2.7-.12-4.97.77-6.8,2.67-3.38,3.5-3.55,9.41-2.55,14.02,1.48,6.76,7.13,8.43,13.07,6.19.16-.06.27-.22.28-.39.09-2.4.09-4.67,0-6.78-.04-1.03-1.3-1.86-1.22-2.98.03-.34.31-.6.66-.6h4.6Z"/>
    <path class="cls-1" d="M270.86,125.35c-.39.17-.84-.02-1.01-.41,0,0,0,0,0,0-1.27-3.14-3.69-4.2-7.26-3.19-1.34.38-2.29.93-2.87,1.65-1.35,1.7-1.33,3.95.51,5.29.82.6,1.93,1.1,3.31,1.49,2.28.64,4.09,1.32,5.45,2.02,6.18,3.2,6.34,10.57.53,14.23-4.56,2.87-10.39,2.18-15.05-.26-.35-.18-.56-.54-.56-.93,0-1.58-.26-3.42.62-3.83.44-.2.97-.06,1.24.33,1.9,2.77,4.62,3.81,8.18,3.13,1.54-.3,2.7-.79,3.47-1.46,2.66-2.31,2.17-5.89-1.01-7.54-1.34-.7-3.7-1.61-7.07-2.72-3.59-1.19-5.25-3.61-5-7.26.53-7.48,11.51-8.6,16.64-6.33.4.18.66.58.66,1.02v4.11c0,.2-.12.39-.31.47l-.47.19Z"/>
    <path class="cls-1" d="M152,147.31c0,.23-.19.42-.42.42h-14.49c-.5,0-.9-.4-.9-.9-.03-12.14-.04-19.85-.01-23.14,0-1.5-.24-2.33-1.07-3.39-.28-.36-.22-.88.13-1.17.14-.11.32-.18.5-.18,2.84-.05,4.87-.04,6.1.02.11,0,.22.05.31.12.35.28.41.79.13,1.15-.07.09-.16.16-.26.22-1.6.88-1.37,1.96-1.38,3.94-.05,9.05-.08,15.51-.09,19.39,0,.95.46,1.41,1.38,1.37,1.16-.04,2.91-.05,5.24-.03,1.76.02,2.82-.31,3.48-1.84.15-.36.56-.53.92-.38.26.11.44.37.43.66v3.72Z"/>
    <path class="cls-1" d="M118.66,124.3l-9.42,21.06c-.06.14-.06.3,0,.43.11.22.28.47.52.74.26.3.23.76-.07,1.02-.13.12-.3.18-.47.18h-4.34c-.4,0-.72-.32-.72-.72,0-.21.09-.41.25-.55.9-.78,1.45-1.41,1.98-2.5,3.29-6.75,6.67-14.11,10.14-22.08.11-.25.03-.55-.19-.72l-.78-.6c-.37-.29-.44-.83-.15-1.2.16-.21.41-.33.67-.33h5.07c.17,0,.32.1.39.26l11.64,27.7c.11.26-.01.57-.28.68-.06.03-.13.04-.2.04-3.69.01-5.59.02-5.69.02-.46.01-.77-.13-.93-.42-.23-.41-.05-.94.4-1.18.02-.01.05-.03.07-.04.3-.13.52-.28.66-.44.14-.17.18-.4.1-.6l-3.9-9.29c-.05-.11-.16-.17-.28-.15-1.94.42-3.92.58-5.95.48-.29-.01-.52-.25-.52-.54v-1.83c0-.28.22-.51.5-.51.01,0,.02,0,.04,0,1.53.11,3.06-.11,4.59-.68.11-.04.16-.16.12-.26,0,0,0,0,0,0l-3.01-7.97c-.02-.06-.09-.09-.15-.06-.03.01-.05.03-.06.06Z"/>
    <path class="cls-1" d="M172.02,147.3c0,.23-.19.42-.42.42l-14.48.02c-.5,0-.9-.4-.9-.9h0c-.05-12.13-.06-19.84-.04-23.12,0-1.5-.24-2.33-1.07-3.38-.28-.36-.22-.88.13-1.17.14-.11.32-.18.5-.18,2.84-.05,4.87-.05,6.1,0,.11,0,.22.05.31.12.36.27.42.78.14,1.14-.07.09-.16.17-.26.22-1.6.88-1.37,1.96-1.38,3.94-.04,9.04-.07,15.5-.07,19.38,0,.95.46,1.4,1.38,1.37,1.16-.04,2.91-.05,5.24-.03,1.76.01,2.82-.31,3.48-1.85.16-.36.57-.52.92-.36.25.11.42.36.42.64v3.72Z"/>
    <path class="cls-1" d="M180.57,130.52c1.96.04,3.68.01,5.16-.07.82-.05,1.15-.32,1.85-.78.28-.19.66-.11.85.17.07.1.1.22.1.34v3.91c0,.37-.3.66-.66.66-.1,0-.19-.02-.28-.06l-1.63-.73c-.19-.08-.39-.13-.6-.13h-5.1c-.15,0-.27.12-.27.27,0,0,0,.02,0,.03.03.27.09,3.32.19,9.15.02,1.52.84,1.79,2.24,1.75,1.7-.04,3.94-.07,6.74-.09,1.23,0,1.86-.44,2.76-1.18.27-.22.67-.18.89.09.09.11.14.25.14.4v2.81c0,.37-.3.67-.67.67h-14.62c-.65,0-1.24-.36-1.54-.93-.3-.58-.46-1.32-.47-2.21-.02-2.07-.03-9.54-.02-22.4,0-.4-.39-1.03-1.18-1.88-.09-.09-.14-.22-.14-.35v-.39c0-.32.26-.58.58-.58.76,0,6.35,0,16.77,0,.8,0,1.22.35,1.26,1.06.05.89.05,1.71,0,2.47-.02.35-.32.62-.67.6-.15,0-.3-.07-.41-.18-1.37-1.33-2.65-1.19-4.79-1.2-2.33-.01-4.14,0-5.41.03-.93.02-1.4.5-1.42,1.42-.06,2.59-.06,4.93-.01,7.02,0,.19.16.34.34.34Z"/>
    <path class="cls-1" d="M235.95,124.3l-9.43,21.07c-.06.14-.06.3,0,.43.11.22.28.47.52.74.26.3.23.76-.07,1.02-.13.12-.3.18-.47.18h-4.35c-.4,0-.72-.32-.72-.72,0-.21.09-.41.25-.55.9-.78,1.45-1.41,1.98-2.5,3.29-6.75,6.68-14.11,10.15-22.1.11-.25.03-.55-.19-.72l-.78-.6c-.37-.29-.44-.83-.15-1.2.16-.21.41-.33.67-.33h5.07c.17,0,.32.1.39.26l11.64,27.72c.11.27-.02.58-.28.69-.06.03-.13.04-.2.04-3.7.01-5.6.02-5.7.02-.46.01-.77-.13-.93-.42-.23-.41-.05-.94.4-1.18.02-.01.05-.03.07-.04.3-.13.52-.28.66-.44.14-.17.18-.4.1-.6l-3.9-9.3c-.05-.11-.16-.17-.28-.15-1.94.42-3.92.58-5.96.48-.29-.01-.52-.25-.52-.54v-1.83c0-.28.23-.51.5-.51.01,0,.02,0,.04,0,1.53.11,3.06-.11,4.59-.68.11-.04.16-.16.12-.26,0,0,0,0,0,0l-3.01-7.97c-.02-.06-.09-.09-.15-.06-.03.01-.05.03-.06.06Z"/>
  </g>
  <g>
    <path class="cls-3" d="M123,78.52c21.78-1.78,19.59,32.07-1.02,30.12-5.7-.54-9.58-3.4-11.63-8.58-3.98-10.02,1.59-20.64,12.65-21.54ZM114.09,93.1c-.22,5.22,1.8,10.13,6.86,11.9,2.7.95,6.18.48,8.27-1.36,2.82-2.48,3.79-6.06,3.95-9.73.16-3.67-.51-7.32-3.11-10.03-1.92-2.01-5.35-2.78-8.12-2.06-5.19,1.34-7.63,6.06-7.85,11.28Z"/>
    <path class="cls-3" d="M211.2,93.68c.28,0,.5.22.5.5v12.31c0,.2-.12.38-.3.45-5.65,2.32-12.59,2.47-17.61-1.17-5.62-4.07-6.46-13.01-3.64-19.11,3.25-7.03,13.73-10.21,20.37-6.26.2.12.32.33.32.56v3.98c0,.43-.34.78-.77.78-.34,0-.65-.22-.75-.55-.93-2.89-3.34-3.49-6.19-3.61-2.7-.11-4.96.79-6.79,2.69-3.37,3.51-3.52,9.41-2.51,14.02,1.49,6.75,7.14,8.4,13.08,6.14.16-.06.27-.22.28-.39.09-2.4.08-4.66-.02-6.77-.05-1.03-1.31-1.85-1.23-2.98.03-.34.31-.6.65-.6h4.6Z"/>
    <path class="cls-3" d="M264.25,85.53c-.39.17-.84-.02-1.01-.41,0,0,0,0,0,0-1.26-3.14-3.68-4.2-7.25-3.2-1.34.38-2.29.93-2.87,1.65-1.35,1.69-1.34,3.95.51,5.29.82.61,1.93,1.1,3.31,1.5,2.28.64,4.09,1.32,5.44,2.02,6.18,3.21,6.34,10.57.52,14.23-4.56,2.86-10.39,2.17-15.05-.26-.35-.18-.56-.54-.56-.93,0-1.58-.26-3.42.62-3.83.44-.2.97-.06,1.24.33,1.89,2.77,4.62,3.82,8.18,3.13,1.54-.3,2.7-.79,3.47-1.45,2.66-2.31,2.18-5.89-1.01-7.54-1.34-.7-3.7-1.61-7.07-2.73-3.59-1.19-5.25-3.61-4.99-7.26.53-7.48,11.51-8.6,16.64-6.32.4.18.66.58.66,1.02v4.11c0,.2-.13.39-.32.47l-.47.19Z"/>
    <path class="cls-3" d="M99.66,91.83c.31.14.93.37,1.87.7,2.49.88,3.89,2.93,4.34,5.57.84,5-2.05,8.74-6.91,9.69-1.85.36-3.64.45-5.39.27-.23-.02-.4-.22-.4-.45v-.93c0-.24.19-.43.43-.43,1.32,0,2.72-.3,4.21-.89,3.05-1.2,4.31-3.44,3.78-6.71-.76-4.71-6.69-4.93-10.38-4.6-.13.02-.23.12-.23.26v13.32c0,.28-.22.5-.5.5h-3.35c-.36,0-.66-.29-.66-.66-.01-2.11-.02-10.33-.02-24.67,0-.61-.36-1.44-1.07-2.49-.04-.06-.06-.12-.07-.19l-.09-.54c-.05-.29.14-.56.43-.62.03,0,.05,0,.08,0,2.17-.05,5.38-.07,9.64-.06,3.31,0,6.38,1.15,7.15,4.65.73,3.31-.23,5.93-2.89,7.86-.11.08-.14.24-.06.35.03.04.06.07.11.09ZM90.92,81.73l.09,8.69c0,.07.06.13.13.13,0,0,0,0,0,0l2.5-.02c2.8-.03,5.06-1.86,5.03-4.09v-.87c-.03-2.23-2.33-4.01-5.13-3.98,0,0,0,0,0,0l-2.49.02c-.07,0-.13.06-.13.13h0Z"/>
    <path class="cls-3" d="M143.33,108c-.22-.09-.37-.3-.37-.54-.02-7.03,0-14.96.04-23.81,0-1.21-.36-2.24-1.11-3.08-.36-.4-.32-1.02.08-1.38.07-.06.15-.12.24-.16,0,0,.17,0,.51,0,4.14-.02,6.92,0,8.34.04,7.96.26,14.33,3.99,15.03,12.39.45,5.44-.83,10.17-5.32,13.47-4.86,3.57-10.62,3.4-16.45,3.18-.52-.02-.84-.06-.98-.11ZM147.48,82.44v22.24c0,.37.3.68.68.68h2.96c5.73,0,10.38-4.57,10.38-10.2v-3.2c0-5.63-4.65-10.2-10.38-10.2h-2.96c-.37,0-.68.3-.68.68Z"/>
    <path class="cls-3" d="M174.48,90.33c0,.19.16.34.34.34,1.96.04,3.68.01,5.15-.07.82-.05,1.15-.31,1.85-.78.28-.18.66-.1.85.18.06.1.1.21.1.33v3.9c0,.37-.3.66-.66.66-.1,0-.19-.02-.28-.06l-1.62-.73c-.19-.08-.39-.13-.6-.13h-5.09c-.15,0-.27.11-.27.26,0,.01,0,.02,0,.03.03.27.09,3.32.18,9.14.02,1.51.84,1.78,2.24,1.75,1.69-.04,3.94-.07,6.73-.09,1.23,0,1.85-.44,2.75-1.18.27-.22.67-.18.89.09.09.11.14.25.14.4v2.81c0,.37-.3.66-.67.67h-14.6c-.65,0-1.24-.36-1.54-.93-.3-.58-.46-1.32-.47-2.21-.02-2.07-.02-9.53,0-22.37,0-.4-.39-1.03-1.17-1.88-.09-.09-.14-.22-.14-.35v-.39c0-.32.26-.58.58-.58.76,0,6.34,0,16.74,0,.8,0,1.22.35,1.26,1.06.05.89.05,1.71,0,2.46-.02.35-.32.62-.67.6-.15,0-.3-.07-.41-.18-1.37-1.33-2.64-1.19-4.78-1.2-2.33-.01-4.13,0-5.4.02-.93.02-1.4.5-1.42,1.42-.06,2.59-.06,4.92-.02,7.01Z"/>
    <path class="cls-3" d="M229.46,84.47l-9.45,21.07c-.06.14-.06.3,0,.43.11.22.28.47.52.74.26.3.23.76-.07,1.02-.13.12-.3.18-.47.18h-4.35c-.4,0-.73-.31-.73-.71,0-.21.09-.42.25-.56.9-.78,1.45-1.41,1.99-2.5,3.3-6.75,6.69-14.11,10.17-22.1.11-.26.04-.56-.19-.73l-.78-.6c-.37-.29-.44-.83-.15-1.2.16-.21.41-.33.68-.33h5.07c.17,0,.32.11.39.26l11.63,27.74c.11.27-.02.58-.28.69-.06.03-.13.04-.2.04-3.7,0-5.6.02-5.7.02-.46.01-.77-.13-.93-.42-.23-.41-.05-.94.4-1.18.02-.01.05-.02.07-.03.3-.13.52-.28.66-.44.14-.17.18-.4.1-.6l-3.9-9.3c-.05-.11-.16-.17-.28-.15-1.94.41-3.92.57-5.96.48-.29-.01-.52-.25-.52-.54v-1.83c0-.28.23-.51.5-.51.01,0,.02,0,.04,0,1.53.11,3.06-.11,4.59-.68.11-.04.16-.16.12-.26,0,0,0,0,0,0l-3.01-7.98c-.02-.06-.09-.09-.15-.06-.03.01-.05.03-.06.06Z"/>
    <circle class="cls-3" cx="123.72" cy="93.58" r="1.99"/>
  </g>
  <g>
    <path class="cls-2" d="M171.26,36.66c2.64,2.75,8.04,6.58,11.93,4.33,3.03-1.76,3.57-5.77.13-7.47-1.63-.8-3.34-.75-5.13.17-.23.12-.5.04-.62-.18-.01-.03-.02-.05-.03-.08-.04-.12-.02-.29.06-.53.61-1.97,2.84-3.22,4.9-3.31,6.21-.24,9.36,5.69,8.23,11.23-.53,2.57-2.31,4.3-4.76,5.1-2.9.95-5.67.43-8.3-1.56-.07-.05-.13-.03-.21.03-.07.07-.09.14-.04.2,1.87,2.71,2.28,5.49,1.22,8.35-.9,2.41-2.71,4.13-5.29,4.54-5.57.91-11.37-2.48-10.88-8.68.17-2.05,1.51-4.23,3.5-4.76.24-.07.41-.08.53-.03.23.08.35.33.27.57,0,.03-.02.06-.04.08-.99,1.75-1.12,3.45-.38,5.11,1.56,3.51,5.58,3.13,7.46.18,2.41-3.8-1.19-9.35-3.84-12.1-2.64-2.75-8.04-6.58-11.93-4.32-3.03,1.76-3.57,5.76-.13,7.46,1.63.8,3.34.75,5.13-.17.23-.12.5-.04.62.18.01.03.02.05.03.08.04.12.02.29-.06.53-.61,1.97-2.84,3.22-4.9,3.31-6.21.24-9.36-5.69-8.23-11.23.53-2.57,2.31-4.3,4.76-5.1,2.9-.95,5.67-.43,8.3,1.56.06.05.13.04.2-.03.07-.07.09-.14.04-.2-1.87-2.71-2.28-5.49-1.22-8.35.9-2.41,2.7-4.12,5.29-4.54,5.58-.91,11.38,2.48,10.89,8.68-.17,2.05-1.51,4.23-3.5,4.76-.24.07-.41.08-.53.04-.23-.08-.35-.34-.27-.58,0-.03.02-.05.04-.08.99-1.75,1.12-3.45.38-5.12-1.56-3.5-5.58-3.13-7.46-.17-2.41,3.8,1.2,9.35,3.84,12.1Z"/>
    <circle class="cls-2" cx="190.77" cy="54.51" r="4.55"/>
    <circle class="cls-2" cx="199.86" cy="59.61" r="2.22"/>
  </g>
</svg>