<?xml version="1.0" encoding="UTF-8"?>
<svg id="Layer_1" data-name="Layer 1" xmlns="http://www.w3.org/2000/svg" viewBox="0 0 352.3 165.34">
  <defs>
    <style>
      .cls-1 {
        fill: #d72628;
      }

      .cls-2 {
        fill: #273f27;
      }
    </style>
  </defs>
  <g>
    <path class="cls-2" d="M294.69,130.99c.1.35.05.48-.1.4-1.87.83-3.79,1.59-5.73,2.27-6.87,2.4-13.97,3.99-21.27,4.77-1.44.15-3.18.3-5.23.45-2.22.18-3.97.2-5.23.13-2.48-.18-4.7-.51-6.69-1.04-2.25-.61-4.24-2.05-5.23-4.24-.18-.38-.25-.76-.28-1.16,0-.1-.08-.18-.18-.18h-.05c-19.04,7.02-39.1,10.35-59.45,10.51h-1.26c-1.44-.03-2.7-.05-3.79-.05-2.95,0-4.98-.13-8.28-.33-13.08-.81-25.94-3.16-38.57-7.05-4.12-1.26-7.4-2.42-9.85-3.46-.08-.03-.18,0-.2.08h0c-.15.35-.25.86-.43,1.19-.81,1.57-2,2.8-3.56,3.71-.86.51-2.2.86-3.99,1.09-3.31.43-6.47.58-9.42.48-6.31-.23-12.17-1.21-18.56-2.75-1.77-.43-3.89-1.06-6.34-1.87-1.87-.63-3.97-1.34-6.26-2.17-.1-.03-.18-.08-.28-.1s-.15-.1-.18-.2c-.1-.83-.08-1.54.05-2.17.05-.18.1-.33.23-.48,5.76-8.06,9.98-17.22,11.54-26.85,0-.15.15-.23.3-.23.03,0,.05,0,.08.03,1.77.91,3.54,1.59,5.33,2.1,2.48.68,4.9.66,7.25-.05.66-.2,1.19-.68,1.67-1.26,2.6-3.18,5.15-6.92,8.81-7.93.73-.2,1.06-.28,1.79-.05,5.18,1.52,9.98,4.6,14.77,6.31.05,0,.1,0,.13-.05,0-.05,0-.1-.05-.13-5.86-3.66-10.76-8.16-14.72-13.46-5.53-7.43-8.56-16.82-7.02-26.14.2-1.19.56-2.58,1.09-4.14,6.14-17.93,22.53-28.61,39.65-34.3,10.33-3.41,20.94-5.38,31.85-5.88,1.26-.05,3.16-.13,5.68-.23,2.88-.1,4.92.08,8.59.23,14.8.63,29.68,4.34,42.86,10.89,2.15,1.06,4.72,2.53,7.78,4.42,1.36.83,2.68,1.82,3.94,2.93,1.94,1.72,5.33,4.14,7.43,6.49,3.41,3.84,5.94,7.73,7.6,11.64,3.97,9.37,3.81,18.59-.43,27.68-1.26,2.68-3.01,5.38-5.25,8.08-3.81,4.6-8.28,8.49-13.39,11.72-.03,0-.05.08,0,.1,0,0,.03.03.05.03.08,0,.15,0,.23-.05,1.09-.33,2.55-.88,4.39-1.72,1.94-.88,4.42-2.05,7.43-3.49,0,0,.48-.2,1.44-.61.13-.05.25-.1.4-.1,3.13-.38,5.58,1.19,7.58,3.43.83.91,2.17,2.48,4.02,4.65.51.58,1.04.96,1.77,1.19,4.19,1.26,8.36-.3,12.1-2.25.13-.05.25,0,.3.1v.08c1.72,9.19,5.18,17.63,10.41,25.26.78,1.16,1.82,2.45,2.73,3.69l.03.05ZM193.84,115.06v-.63c0-.25.18-.45.43-.48,4.87-.53,9.62-1.39,14.27-2.5,3.89-.96,7.55-1.92,11.37-3.36,2.93-1.09,5.71-2.25,8.36-3.43,13.59-6.16,28.34-16.57,31.85-32.02,2.15-9.47-1.11-19.04-7.07-26.44-3.31-4.09-7.2-7.65-11.69-10.68-15.05-10.1-33.16-14.9-51.14-15.73-1.82-.08-3.74-.15-5.78-.18-1.69-.03-3.21.1-5.13.15-8.21.25-16.57,1.39-25.13,3.41-5.05,1.19-9.95,2.83-14.67,4.87-13.26,5.76-25.13,14.72-30.61,28.44-2.63,6.57-2.2,14.17.33,20.66,1.16,3.01,2.7,5.76,4.6,8.31,1.36,1.84,3.03,3.64,5,5.4,5.28,4.75,11.14,8.81,17.45,12.07,11.39,5.86,24.3,9.32,37.18,11.16.25.03.43.25.43.51v.68c0,.1-.1.2-.2.2h-2.8c-9.12-.53-18.03-2.1-26.82-4.72-10.56-3.16-21.06-7.6-30.89-12.43-.68-.33-2.63-1.01-3.31-.53-4.7,3.38-8.86,8.16-11.14,13.54-.66,1.57-1.11,3.54-.2,5.1.13.2.3.38.51.51,6.41,3.97,13.11,7.4,20.1,10.25,6.77,2.75,13.28,5.03,19.62,6.77,13.79,3.84,28.61,5.88,43.49,5.96,3.01,0,5.28,0,6.77-.03,22.17-.56,44.68-5.35,64.88-14.47,4.5-2.05,9.07-4.34,13.23-7.02,1.16-.76,2.93-2,2.85-3.43-.03-.71-.25-1.64-.68-2.83-1.62-4.5-4.95-8.21-8.33-11.79-1.16-1.21-2.15-2.27-3.81-2.55-.25-.05-.53,0-.76.1-6.29,3.11-12.68,5.91-19.14,8.46-13.76,5.4-28.29,8.94-43.06,9.12-.2,0-.35-.15-.35-.33h0l.03-.08ZM88.3,106.09c0,.28-.03.53-.1.81-1.34,5.63-3.59,10.94-6.34,16.01-1.09,2-2.37,4.22-3.84,6.62-.05.1-.03.2.08.25h.03c5.05,1.79,10.18,3.21,15.38,4.27,4.04.83,8.64,1.36,13.81,1.59,1.16.05,2.17.03,3.06-.08,2.22-.25,4.57-.51,6.29-2.07.71-.66,0-1.52-.61-1.89-.03,0-4.7-2.63-13.99-7.83-2.3-1.29-6.16-3.56-7-6.04-1.09-3.28.1-7.22,1.82-10.25.05-.1,0-.2-.08-.25-.03,0-.08-.03-.13,0-1.49.2-3.01.13-4.57-.25-1.49-.38-2.73-.71-3.69-1.01-.05,0-.13,0-.13.08v.05ZM289.92,130.01c.08-.03.1-.1.08-.18v-.03c-3.28-4.72-5.96-9.77-7.98-15.15-.98-2.65-1.92-5.43-2.78-8.36,0-.05-.08-.1-.15-.08h0c-2.6,1.09-5.23,1.59-7.96,1.49-.1,0-.18.08-.18.15v.08c.51,1.06.98,2.15,1.49,3.28.81,1.87,1.01,3.71.61,5.71-.33,1.62-1.06,2.85-2.2,3.69-1.94,1.41-4.65,3.18-8.13,5.3,0,0-3.13,1.77-9.34,5.25-.83.45-1.46.91-1.89,1.31-1.19,1.14.51,2.15,1.46,2.42.91.25,1.82.51,2.75.73.2.05.4.08.61.08,1.24,0,2.45.15,3.64.13,10.46-.23,20.23-2.27,30-5.83h-.03Z"/>
    <path class="cls-2" d="M178.89,24.51c0-.08,0-.13.1-.15h.05c.51.03,1.04,0,1.62-.08.51-.08,1.16,0,2,.13.18.03.3.2.3.38v.3c0,.08-.1.15-.18.15h-.08c-.76-.43-1.36-.56-1.79-.4-.51.2-.35.76-.3,1.16.08.73,1.16.3,1.64.13.15-.05.33,0,.38.18v.15c.03.23-.13.43-.35.45l-1.11.15c-.25.03-.45.23-.51.45-.13.56.1,1.62.86,1.44.51-.13.93-.35,1.26-.71.08-.1.23-.1.33,0,.03.03.05.08.08.13.18.66.05,1.01-.63,1.01-.98,0-2.07.03-3.21.03-.13,0-.23-.1-.23-.23v-.05c.28-1.57.2-3.11-.2-4.62h-.03Z"/>
    <path class="cls-2" d="M174.3,26.66c-.15,1.01-.08,1.84.25,2.5.18.38.18.61,0,.68-.28.13-.56.15-.81.08-.15-.05-.23-.18-.2-.33.15-1.11.15-2.42-.05-3.97,0-.08-.05-.15-.1-.2l-.4-.38c-.08-.08-.1-.2,0-.3.03-.03.05-.05.1-.05.98-.28,1.79-.05,2.37.71.51.63.96,1.16,1.34,1.57.05.05.15.08.23,0,.03-.03.05-.05.05-.1.08-.68-.08-1.34-.43-2-.08-.13-.03-.3.1-.38,0,0,.05,0,.05-.03.33-.08.66-.1.96-.08.08,0,.13.08.13.15v.03c-.28.71-.33,1.31-.2,2.12.1.71.15,1.41.15,2.17,0,.28-.05.45-.15.58-.15.18-.43.2-.61.05,0,0-.03-.03-.05-.05-1.04-1.16-1.84-2.12-2.48-2.88-.05-.05-.1-.05-.15,0,0,0-.03.05-.05.08l-.05.03Z"/>
    <path class="cls-2" d="M187.53,29.39c0,.05,0,.1-.05.13h-.05l-.83-.05h-.03c-.1-.05-.13-.2-.08-.45.45-1.52,1.04-2.85,1.74-4.04.3-.48.66-.63,1.11-.48.13.05.23.15.28.28l1.84,4.77c0,.05,0,.1-.05.13h-.05l-1.41-.08c-.18,0-.3-.15-.28-.3,0-.4-.05-.78-.18-1.11-.03-.08-.13-.15-.23-.15h-1.59c-.08,0-.15.05-.18.1-.23.43-.23.83,0,1.26h.03ZM189,26.89l-.2-.56c0-.05-.08-.08-.13-.05h-.08c-.25.13-.4.35-.33.53h0v.08c.1.2.35.28.61.18h.05c.05-.05.08-.1.05-.15l.03-.03Z"/>
    <path class="cls-2" d="M192.4,24.84c-.05-.08-.03-.15.03-.2.03-.03.08-.03.13,0,.48.1.96.15,1.41.15,1.01-.03,3.31.08,3.03,1.69,0,.1-.08.2-.15.3l-.66.66c-.13.13-.15.3-.08.45l.91,1.97c.03.08,0,.18-.08.2h-.08l-1.59-.08c-.08,0-.13-.08-.13-.15h0c.08-.56-.2-1.87-.93-2.05-.15-.03-.25.03-.3.2-.23.61-.28,1.19-.1,1.72.03.1-.03.23-.13.25h-.05c-.43,0-.88-.08-1.34-.25-.13-.05-.2-.2-.18-.33.3-.96.48-2.05.53-3.26,0-.51.13-.81-.2-1.26l-.05-.03ZM194.3,25.5l-.28,1.11c-.03.15.05.28.2.33h.05c.51.13,1.01-.13,1.11-.56h0v-.05c.1-.43-.2-.88-.71-1.01h-.05c-.15-.05-.28.05-.33.18h0Z"/>
    <path class="cls-2" d="M167.05,27.09c.23-1.49,1.64-2.53,3.18-2.3h0c1.54.23,2.63,1.62,2.4,3.13-.23,1.49-1.64,2.53-3.18,2.3h0c-1.54-.23-2.63-1.62-2.4-3.13ZM169.6,25.57c-.68.1-1.11,1.04-.96,2.12h0c.15,1.09.81,1.89,1.49,1.79q.45-.07,0,0c.68-.1,1.11-1.04.96-2.12h0c-.15-1.09-.81-1.89-1.49-1.79h0Z"/>
    <path class="cls-2" d="M202.2,26.61c0,.1-.08.18-.18.18h-.05c-.35-.08-.61-.28-.81-.58-.1-.15-.3-.2-.45-.1-.08.05-.13.13-.15.2-.25,1.36-.38,2.7-.35,4.02,0,.08-.05.13-.13.13h-1.46c-.13,0-.25-.1-.25-.25v-.08c.3-.91.48-1.54.51-1.89.1-1.21.18-1.92.23-2.12.05-.13-.03-.25-.15-.3h-.08c-.35,0-.76.1-1.16.3-.1.05-.23,0-.28-.1v-.25c0-.2.1-.4.28-.53.15-.1.4-.13.76-.05,1.24.23,2.35.38,3.38.45.18,0,.3.15.3.33v.66h.05Z"/>
    <path class="cls-2" d="M166.24,27.95c.1.61.33,1.36.66,2.22.05.1,0,.23-.13.28h-.03l-1.36.3c-.13,0-.23-.05-.25-.15v-.05c.05-.83,0-1.26-.18-2.37s-.3-1.54-.61-2.32c-.05-.1,0-.23.13-.28h.05l1.39-.15c.13,0,.23.08.23.18v.03c-.05.93,0,1.72.08,2.32h.03Z"/>
    <path class="cls-2" d="M203.9,28.56c-.18,1.11-.2,1.54-.18,2.4,0,.13-.08.23-.2.23h-.05l-1.36-.3c-.1-.03-.18-.15-.15-.25v-.03c.35-.88.56-1.62.66-2.25.1-.61.13-1.39.08-2.32,0-.13.08-.23.2-.23h.03l1.39.15c.13,0,.2.13.2.23v.05c-.3.78-.43,1.21-.61,2.32h0Z"/>
    <path class="cls-2" d="M164.14,29.87c.18.25.2.56.08.96,0,.08-.1.15-.18.15-1.59.3-2.55.56-3.49.45-.1,0-.2-.13-.18-.23h0c.1-.78.33-1.49.68-2.15.43-.78.78-1.49,1.04-2.07.05-.13,0-.25-.13-.3h-.13c-.61.1-1.14.38-1.52.81-.05.05-.13.08-.23.1-.23,0-.35-.18-.4-.58,0-.18.1-.35.28-.4,1.44-.4,2.2-.76,3.26-.68.08,0,.15.08.15.18,0,1.59-.91,3.01-1.44,4.32-.05.13,0,.25.13.3h.1c.71,0,1.29-.3,1.72-.83.05-.05.15-.08.2,0l.03.03.03-.05Z"/>
    <path class="cls-2" d="M209.96,27.87v.33c0,.18-.13.3-.3.3-.08,0-.18-.05-.23-.1l-.93-1.09c-.08-.1-.18-.15-.3-.15-.48-.03-.81,0-.96.13-1.04.78-1.74,2.27-.81,3.41.58.71,1.44.81,1.84-.13.13-.28.05-.61-.18-.73-.1-.08-.25-.13-.38-.18-.15-.05-.23-.18-.2-.33.03-.1.13-.2.25-.2.66-.05,1.21.05,1.72.28.25.13.35.4.28.66l-.45,1.41c-.05.15-.18.28-.35.3-.96.23-2.5.1-3.38-.51-.93-.63-1.04-2.07-.73-3.06.18-.61.58-1.09,1.16-1.49.81-.53,2.95-.2,3.69.45.2.18.3.4.3.66l-.03.03Z"/>
    <path class="cls-2" d="M152.63,33.35c0-.05-.03-.13-.03-.25,0-.1-.03-.2-.08-.25-.35-.43-.73-.76-1.16-1.01-.15-.08-.35-.03-.43.13,0,.03-.03.08-.03.1-.08.61.1,1.04.56,1.29.15.08.2.25.13.4,0,.05-.05.08-.08.1-.48.33-1.01.45-1.59.38-.1,0-.18-.1-.2-.23-.03-1.24-.3-2.45-.78-3.64-.08-.2-.18-.38-.33-.53-.1-.1-.08-.28.03-.35,0,0,.05-.03.08-.05,1.19-.51,2.1-1.01,3.28-.91.66.05,1.24.61,1.11,1.34-.05.25-.15.53-.3.81-.08.15-.05.33.08.45l1.46,1.46c.13.13.3.13.4,0,.05-.05.08-.1.08-.15.33-1.59.38-3.49,1.14-5.08.13-.25.43-.35.68-.23.05,0,.08.05.13.08.81.71,1.67,2.05,3.01,3.89.08.1.13.2.15.35.05.18-.05.35-.23.4h-.03l-1.34.23c-.08,0-.15-.05-.15-.13v-.03c.05-.51-.1-.91-.48-1.24-.05-.05-.13-.08-.18-.05l-1.46.25c-.1,0-.18.08-.2.15-.2.4-.15.73.15,1.01.15.15.15.38,0,.56-.08.08-.15.1-.25.13l-1.09.08c-.05,0-.13.03-.15.08-.25.25-.81.43-1.64.56-.08,0-.15-.03-.2-.1h-.05ZM156.34,30.17l.45-.15c.08,0,.1-.1.08-.15v-.05c-.15-.4-.38-.68-.56-.61h-.05c-.18.08-.23.43-.1.83v.05c.03.08.1.1.18.08h0ZM150.3,29.97l.28.83c.05.15.2.23.35.18h.05c.48-.18.78-.61.66-.96h0c-.13-.4-.63-.56-1.11-.38h-.05c-.15.08-.23.23-.18.38v-.05Z"/>
    <path class="cls-2" d="M211.7,32.6c0,.05,0,.1-.05.13h0c-.66.08-1.24,0-1.74-.3-.1-.05-.13-.18-.08-.25l.03-.03c.43-.45.71-1.04.83-1.67.25-1.21.38-2.12.38-2.73,0-.15.13-.3.28-.3h.1l1.01.33c.2.08.33.3.28.51-.45,1.49-.78,2.75-1.04,3.81-.05.18-.03.35.03.53l-.03-.03Z"/>
    <path class="cls-2" d="M212.05,32.57l3.28-3.99c.1-.13.3-.15.45-.05.33.25.56.66.61,1.21.3,2.65.48,4.12.53,4.34,0,.1-.05.2-.15.23-.35.1-.81,0-1.31-.33-.15-.08-.18-.3-.1-.48.15-.28.2-.56.13-.83,0-.1-.08-.2-.18-.25l-1.29-.66c-.1-.05-.2-.05-.28,0-.56.23-.71.68-.45,1.31.03.08,0,.18-.08.2h-.03c-.38.05-.71-.03-1.04-.23-.15-.1-.18-.28-.1-.43v-.05ZM214.88,30.37c-.15,0-.25.23-.28.48,0,.28.1.51.25.51s.25-.23.28-.48c0-.28-.1-.51-.25-.51Z"/>
    <path class="cls-2" d="M221.8,33.35c.45-.61.61-1.31.45-2.07,0-.1.05-.2.15-.23h.05c.3,0,.58.08.86.23.13.08.2.23.13.35,0,.03-.03.05-.05.08-.23.23-.4.53-.56.86-.4.98-.78,2.02-1.11,3.13-.03.1-.1.18-.18.2-.23.1-.43.13-.66.08-.1,0-.18-.08-.2-.18l-.93-3.54c-.03-.13-.18-.2-.3-.18-.08,0-.13.08-.18.15l-.63,1.59c-.03.08-.05.15-.03.23l.05.61c0,.2-.13.35-.33.38h-.15c-.38-.15-.66-.33-.88-.53-.05-.05-.05-.13,0-.18,0,0,.03-.03.05-.03.38-.15.63-.45.78-.91.53-1.67.81-2.53.81-2.55.05-.1.08-.23.08-.35l-.05-.51c0-.1.05-.18.15-.2h.03c.86.08,1.41.58,1.67,1.46.2.73.43,1.41.73,2.07.03.08.1.1.18.08,0,0,.05,0,.05-.05h.03Z"/>
    <path class="cls-2" d="M148.56,31.56c.86,1.26.51,2.98-.76,3.84h0c-1.26.86-3.01.56-3.84-.71-.86-1.26-.51-2.98.76-3.84h0c1.26-.86,3.01-.56,3.84.71ZM145.58,31.28c-.66.25-.91,1.26-.53,2.27s1.21,1.64,1.87,1.39q.44-.17,0,0c.66-.25.91-1.26.53-2.27s-1.21-1.64-1.87-1.39h0Z"/>
    <path class="cls-2" d="M142.37,35.63c0-.05.03-.1.03-.2-.03-1.44-.08-2.07-.81-3.08-.1-.13-.08-.33.08-.43.03,0,.05-.03.08-.05l.83-.25c.15-.05.3.03.35.18v.13c-.13.93-.13,1.92,0,2.95.1.86.03,1.64-.1,2.35-.03.18-.23.3-.4.28h-.03c-1.11-.33-1.89-1.06-2.65-1.97-.53-.63-.86-.88-1.52-1.52-.15-.13-.15-.35,0-.51,0,0,.03-.03.05-.05.33-.23.78-.4,1.39-.53.15-.03.28.08.3.2h0c.13,1.09,1.09,1.94,2.02,2.55.13.08.3.05.4-.1h0l-.03.05Z"/>
    <path class="cls-2" d="M226.7,38.13l-1.26-.18c-.2-.03-.35-.23-.33-.43,0-.05,0-.08.03-.13l.4-.81c.08-.18.03-.38-.13-.48l-1.29-.81c-.2-.13-.45-.08-.58.13h0c-.2.33-.33.63-.33.88,0,.23-.2.4-.45.4-.05,0-.1,0-.13-.03-.38-.15-.56-.38-.51-.68,0-.05.03-.08.05-.1l3.54-3.41c.05-.05.13-.08.2-.08.43-.05.73.13.88.48.03.08.05.15.03.23-.25,1.69,0,3.66.05,4.82,0,.1-.08.18-.18.18h-.03.03ZM225.39,34.11c-.25.15-.43.33-.56.51-.05.08-.03.18.03.23.1.08.25.13.43.13.08,0,.15-.05.18-.1.08-.2.1-.43.08-.68,0-.05-.05-.1-.1-.1h-.05v.03Z"/>
    <path class="cls-2" d="M231.17,39.84s.05.05.08.05h.03c1.04-1.06,1.69-2.25,2.02-3.51.03-.13.18-.23.3-.18,0,0,.05,0,.08.03l2.88,1.67c.05.03.1.08.13.13.13.23.15.48.05.76-.05.15-.2.23-.35.18-.05,0-.1-.05-.15-.1-.38-.58-.81-.98-1.29-1.24-.23-.13-.53-.03-.66.2,0,0,0,.05-.03.08l-.2.61c-.08.28.05.56.33.63l.91.3c.08.03.13.1.13.18,0,.2-.05.38-.15.56-.13.18-.35.23-.53.1,0,0-.05-.03-.05-.05l-.73-.73c-.15-.15-.4-.15-.58,0,0,0-.05.05-.05.08-.33.51-.71,1.21-.18,1.67.58.51,1.19.66,1.84.43.08,0,.15,0,.15.08v.08c-.2.86-.71.83-1.44.48-.96-.45-1.77-1.01-2.48-1.67-.03-.03-.05-.08-.05-.1l-.05-.3c0-.08-.08-.13-.15-.1h0c-1.14.2-2.75-.81-3.51-1.44-.18-.15-.2-.4-.08-.58,0-.03.05-.05.08-.08l.3-.2c.05-.03.08-.08.1-.13.48-.81,1.26-2.2,1.31-3.41,0-.08.08-.15.15-.13h0c.66.13,1.24.4,1.72.81.05.05.05.13,0,.18h0c-.91.96-1.59,2.1-2.07,3.41,0,.08-.03.15,0,.2.25,1.01,2.07.05,2.2,1.24v-.15Z"/>
    <path class="cls-2" d="M141.89,38.46c.05.1,0,.23-.08.28-.05.03-.1.03-.15,0-.61-.2-1.14-.2-1.62-.03-1.11.4-.56-1.04-1.57-1.04-.05,0-.13,0-.18.03-.35.13-.71.3-1.04.48-.56.3-.25.98.15,1.26.08.05.1.18.05.28-.23.33-.48.48-.76.45-.1,0-.18-.08-.2-.18-.15-.96-.3-1.97-.45-3.01-.1-.73-.03-1.44.2-2.17.05-.18.25-.28.45-.23h.03c1.59.71,2.48,1.59,4.14,3.03.33.28.88.61,1.01.81v.03ZM136.87,36.49v.63c0,.05.05.08.1.08h.05c.33,0,.58-.18.56-.38v-.05c0-.2-.28-.35-.58-.33h-.05c-.05,0-.08.03-.08.08h0v-.03Z"/>
    <path class="cls-2" d="M132.6,42.52c-.25-.45-.43-1.09-.73-1.57-.43-.73-.96-1.41-1.59-2.07-.2-.2-.18-.51,0-.71h0c.33-.28.71-.48,1.11-.66.13-.05.25,0,.28.13h0c.13.4.23.73.33.98.13.33.71,1.19,1.72,2.53.05.08.13.1.23.1.63-.1.98-.76,1.16-1.36.05-.15.18-.23.33-.18.08,0,.13.08.15.15.1.2.13.48.1.83,0,.23-.18.4-.53.56-.4.18-1.19.61-2.37,1.31-.08.05-.2,0-.25-.05h.08Z"/>
    <path class="cls-2" d="M112.75,111.24c-.15.05-.3-.03-.35-.18-.23-.61-.45-1.29-1.04-1.49-.08-.03-.18-.03-.25,0-.93.28-1.62.93-2.02,2,0,0-.53,1.29-1.57,3.81-.15.35-.56.53-.91.4-.98-.35-3.71-1.29-1.97-2.85,1.74-1.57,2.5-3.71,3.33-5.38.28-.53.3-.91.28-1.46,0-.13.08-.23.2-.25h0c1.09-.08,2.05-.05,2.9.1.15.03.25.15.25.3,0,.51-.13,1.01-.3,1.52-.05.13,0,.25.13.3h.18c1.19-.53,2.78-1.31,3.28.53.51,1.87-.71,2.17-2.15,2.68v-.03Z"/>
    <path class="cls-2" d="M255.42,107.98c0-.08.05-.28.05-.66.03-.88.51-1.46,1.44-1.52,1.04-.08,2,.25,2.83.96,2.17,1.84,2.85,4.65,2.48,7.4-.18,1.31-1.24,3.08-2.78,3.03-1.74-.05-3.18-.83-4.34-2.35-1.39-1.82-1.34-4.95.18-6.64.08-.08.1-.15.15-.25v.03ZM257.21,109.6c-.68.35-.63,1.79.13,3.18.73,1.39,1.89,2.25,2.58,1.89h0c.68-.35.63-1.79-.13-3.18-.73-1.39-1.89-2.25-2.58-1.89h0Z"/>
    <path class="cls-2" d="M252.03,118.04c.05.18.23.3.4.25.05,0,.1-.03.15-.08l.1-.1c.18-.15.28-.4.25-.66-.1-.78-.1-1.41,0-1.94.05-.23.23-.4.43-.43,1.29-.13,1.94,2,2.05,3.06.13,1.69-2.53,2.42-3.86,2.83-.2.05-.76.35-1.67.88-.3.18-.58.08-.86-.25-.45-.53-.61-1.24-.48-2.07.33-2.2.43-4.34.33-6.47,0-.08-.08-.15-.15-.15h0c-.83.05-.86,1.09-.91,1.82,0,.2-.15.35-.35.4-.73.15-1.21-.1-1.46-.76-1.52-3.91,2.3-3.01,4.04-4.39.71-.58,1.34-.76,1.84.18.2.38.3.73.25,1.04-.1.88-.2,2.22-.33,3.97-.08,1.01,0,1.97.2,2.88h.03Z"/>
    <path class="cls-2" d="M117.52,120.38c-.03-.13-.18-.2-.3-.18-1.21.28-2.88.66-3.61-.71-.51-.91-.53-1.84-.1-2.78.2-.4.73-1.57,1.64-3.46.25-.53.43-1.21.51-2.02.05-.51.15-.83.3-.98.45-.48,2.75-.3,3.08-.25.25.05.43.28.4.56v.05c-.63,2.22-1.79,4.75-2.93,6.97-.13.28-.03.61.23.73.03,0,.05,0,.08.03l.43.15c.43.13.88-.05,1.09-.45l3.06-6.01c.05-.08.13-.15.2-.2.08-.05.3-.05.68-.05.93,0,1.46.4,1.62,1.16v.25c-.2.71-.38,1.19-.51,1.41-1.14,2.1-2.22,3.89-2.5,5.96,0,.18-.1.35-.23.48-.61.61-2.65,1.84-2.93.2-.08-.51-.15-.81-.18-.91l-.03.05Z"/>
    <path class="cls-2" d="M137.5,117.83c.13.1.18.28.08.43v.03c-.51.56-1.04.73-1.62.58-.15-.05-.33.03-.38.18-.78,1.64-1.62,3.56-1.49,5.46.03.45-.03.78-.18.98-.53.66-1.01,1.06-1.69,1.36-1.01.45-1.59-.68-1.62-1.54,0-.28.05-.61.15-1.01.45-1.67,1.04-3.61,1.77-5.81.56-1.67.86-3.31.93-4.9,0-.3.18-.58.45-.73.98-.51,2.05-.76,3.21-.78.08,0,.15.05.18.15.08.38.05.76-.05,1.16-.25.86-.53,1.74-.81,2.65-.25.78,0,1.41.76,1.67.2.08.33.1.38.15l-.08-.03Z"/>
    <path class="cls-2" d="M244.25,121.34c.05.2.28.3.48.23h.05c.2-.08.3-.25.33-.51.08-.73.18-1.34.28-1.79.18-.76,1.11-.71,1.46-.15.58.93.81,1.94.63,3.08-.13.81-1.74,1.57-2.37,1.74-1.26.35-2.32.78-3.18,1.29-.08.05-.18.08-.28.08-.53-.03-.91-.3-1.11-.81-.03-.08-.05-.15-.03-.25l1.04-7.6c.03-.2-.13-.4-.33-.43h-.05c-.25,0-.48.18-.53.43-.15.83-.15,1.79-1.01,1.89-.1,0-.2,0-.28-.05-1.21-.51-1.01-2.15-.86-3.26.03-.25.2-.45.43-.56.61-.25,1.46-.53,2.58-.81.58-.15,1.14-.43,1.64-.83.3-.25.71-.25.93,0,.56.53.76,1.21.66,2-.38,2.42-.56,3.76-.58,4.04-.08.88-.03,1.67.15,2.3l-.05-.03Z"/>
    <path class="cls-2" d="M142.32,113.59c.61.45,1.54,1.82.83,2.55-.58.61-2.15,1.97-2.75.51-.28-.66-.61-1.62,0-2.25.3-.33.76-.63,1.34-.88.2-.08.43-.05.61.08h-.03Z"/>
    <path class="cls-2" d="M123.94,119.73c.23-.08.48.08.56.3v.05c.13.78.23,1.52.28,2.15.05.48.3.96.86.83.86-.2,1.11-.71.78-1.49-.56-1.31-1.72-2.58-2.32-4.07-.53-1.31.08-2.32,1.04-3.23.98-.91,1.97-.71,3.11-.25,1.04.43,1.87.71,2.48.91.23.08.38.25.43.51.1.81-.18,2.3-1.14,2.5-1.62.35-.61-2.75-2.3-2.35-.33.08-.56.38-.51.71.13.93,1.24,2.07,1.97,2.98,1.04,1.26.61,3.56-.28,4.6-1.92,2.27-7.05.88-6.59-2.58.1-.78,1.04-1.31,1.67-1.49l-.03-.08Z"/>
    <path class="cls-2" d="M237.01,125.94c-.08-.08-.18-.05-.25,0h0c-.66.86-1.31,1.69-2.37,1.92h-.28c-.93-.23-1.59-.66-1.97-1.26-.78-1.24-1.04-3.43-1.31-4.32-.3-.96-.58-1.26-1.31-2-.08-.08-.1-.15-.13-.25-.1-.66,0-1.11.25-1.39.48-.48,1.29-1.31,2.02-1.46.25-.05.48.1.56.33l2.4,6.87c.08.23.33.35.56.28.1-.03.2-.13.25-.23l.23-.45c.25-.45.3-.98.18-1.49-.56-1.92-1.29-4.02-1.36-5.96,0-.13.05-.25.18-.33.61-.43,1.24-.48,1.92-.2.25.1.43.33.51.58.73,2.58,1.29,4.47,1.64,5.66.1.35.28.68.53.98.3.35.45.63.45.83.03,1.06-.51,2.85-1.89,2.4-.38-.13-.51-.28-.81-.56l.03.05Z"/>
    <path class="cls-2" d="M215.49,121.39c0,.08.08.1.15.1h.03c1.14-.71,2.32-1.14,3.59-.35,1.29.78,2.07,2.05,2.32,3.81.23,1.49.28,2.85.2,4.07-.05.96-.56,1.77-1.49,2.45-.15.1-.33.15-.53.15-.98-.08-1.57-.1-2.35.4-.83.53-3.74,2-3.59-.3.05-.91.48-1.57.3-2.63-.1-.56-.63-3.01-1.59-7.37-.05-.28-.2-.53-.4-.73-.73-.73-1.39-1.24-.61-2.17.35-.43.66-.83.93-1.24.3-.48.73-.71,1.26-.68.18,0,.35.13.43.28.48,1.16.93,2.58,1.31,4.27l.03-.05ZM217.91,129.22c1.82-1.09.78-3.97-.23-5.3-.28-.38-.91-.35-1.14.03-.08.15-.13.33-.1.61.05,1.62.43,3.13,1.06,4.55.05.13.23.2.35.13h.05Z"/>
    <path class="cls-2" d="M155.08,122.46c0,.08.08.13.15.13h.05c.98-.43,2.42-.76,3.16.33,1.34,1.97.51,4.02.05,6.06-.15.76-.18,1.62-.08,2.55.05.43,0,.83-.15,1.16-.1.23-.33.38-.58.33-.96-.13-1.89-.08-2.75-.53-.08-.05-.15-.13-.2-.2-.38-.83.25-1.72.68-2.4.1-.15.18-.33.2-.51.1-.48.35-1.52.78-3.11.1-.4.05-1.34-.28-1.72-.66-.76-1.41-.23-1.64.53-.45,1.54-1.01,4.02-.96,6.06,0,.35-.08.96-.53,1.04-.78.15-1.92-.25-2.68-.4-1.44-.28-.25-2.07.3-2.78.28-.35.48-.93.63-1.77.28-1.54.68-3.69,1.29-6.49v-.3c-.18-.58-.48-1.36-.33-2.02,0-.08.08-.15.15-.2.33-.2.81-.51,1.49-.93.68-.43,2.05-.48,1.92.73-.08.86-.3,2.25-.66,4.17v.3l-.03-.03Z"/>
    <path class="cls-2" d="M141.54,118.36c.18,0,.35.13.35.3v.03c0,.93-.18,1.97-.53,3.11-.66,2.17-1.26,4.32-1.82,6.47-.08.28-.18.45-.28.51-.61.23-2.17-.33-2.68-.53-.28-.1-.45-.4-.4-.71.1-.66.3-1.19.61-1.62.98-1.36,1.16-2.5,1.64-4.5.03-.15.05-.28.05-.43l-.1-1.77c0-.35.25-.66.58-.68l2.58-.2v.03Z"/>
    <path class="cls-2" d="M203.19,118.59c.15-.1.38-.1.53,0,1.46,1.01,1.46,2.3.91,3.84-.4,1.11-1.49,2.22-2.7,1.92-.2-.05-.33-.28-.28-.48,0-.03,0-.05.03-.08.38-.73.58-1.46.63-2.12,0-.15,0-.3-.08-.45-.08-.13-.2-.43-.4-.88-.3-.68.86-1.44,1.39-1.77l-.03.03Z"/>
    <path class="cls-2" d="M223.62,119.25c.08-.1.23-.1.33,0,0,0,.03.03.05.05l.66,1.16c.05.1.2.15.3.08.05-.03.08-.08.1-.13.08-.23.25-.61.56-1.16.58-1.04,1.97-.76,2.75-.18.28.2.43.58.35.93-.08.38-.2.93-.4,1.67-.1.35-.28.56-.56.53-.08,0-.18-.03-.23-.08-.48-.4-1.06-.83-1.52-.08-1.19,1.87,0,3.46.98,5.51.33.68.56,2.32-.58,2.35-.56,0-1.16.13-1.84.33-.86.25-1.01-.48-.93-1.19.23-2.48-.43-4.82-1.92-7-.4-.61-.28-1.14.43-1.59.53-.35,1.01-.76,1.44-1.21h.03Z"/>
    <path class="cls-2" d="M197.23,134.33c-.2.1-.45.23-.73.43-.88.61-1.67.48-2.4-.3-.73-.81-1.21-1.54-1.41-2.2-.83-2.8-1.09-6.21,1.59-8.18.76-.56,1.77-.35,2.68-.23.13,0,.25-.08.25-.2h0c0-.63-.18-1.19-.61-1.64-.53-.58-.53-1.16.03-1.74.76-.78,1.64-1.57,2.73-1.39.2.03.38.2.43.4.25,1.41.13,2.4.2,4.29.1,2.55.13,4.85.23,7.7,0,.15.05.28.13.4l.51.86c.05.08.08.15.08.23l.13.76c.03.18-.05.35-.18.45-.73.56-1.49.81-2.32.78-.43,0-.68-.2-1.04-.4-.08-.05-.18-.05-.28,0v-.03ZM196.98,131.88c.03-.08.05-.2.05-.35.03-1.29.1-2.5.15-3.61.03-.43,0-.88-.08-1.34,0-.1-.08-.18-.18-.2-.68-.28-1.01-.03-1.26.63-.56,1.44-.58,3.84.61,5.03.18.15.43.15.61,0,.05-.05.08-.1.1-.15h0Z"/>
    <path class="cls-2" d="M172.02,119.37l.08.08s.03.03.03.05c.1.43.13.98.1,1.64-.05,1.09-.25,4.6-.56,10.51,0,.13,0,.25.05.4.23.78.53,1.59.25,2.35-.08.23-.28.38-.51.4-.56.08-1.21.08-1.92,0-.91-.08-1.49.05-1.67-.83-.13-.61.51-1.67.73-2.07.2-.35.33-.76.35-1.16l.4-7.53c0-.1,0-.2-.08-.28-.33-.56-.83-1.19-.66-1.69.05-.13.23-.3.53-.51.93-.61,1.72-1.09,2.4-1.46.15-.08.35-.05.48.05l-.03.05Z"/>
    <path class="cls-2" d="M149.82,120.33c.03.05.13.28.28.71.4,1.21.38,2.25-.56,3.16-.18.18-.43.2-.61.1-.18-.1-.33-.28-.45-.51-.43-.86-.66-1.36-.73-1.46-.68-1.09-1.54-.56-2.1.2-.98,1.36-1.11,3.13-.4,4.65.23.45.63.81,1.21,1.04.25.1.53.05.73-.1.23-.18.63-.51,1.19-.96.28-.23.58-.25.93-.08.08.05.13.1.15.2.23,1.14-.83,2.32-1.74,2.95-1.26.88-2.83.78-4.09-.05-1.46-.93-1.62-2.37-1.79-3.99-.05-.56-.05-1.06.05-1.52.51-2.37,1.79-4.02,3.84-4.92.45-.2,1.19-.15,1.79.1.76.3,1.44.43,2.05.35.1,0,.2.03.28.1l-.03.03Z"/>
    <path class="cls-2" d="M177.43,119.7c.2.15.28.38.28.63-.08,2.37-.18,4.62-.3,6.77-.08,1.39-.13,2.8-.18,4.24,0,.13,0,.48.05,1.06,0,.13.03.23.1.33.3.61.38,1.34.28,2.2,0,.18-.15.3-.33.33-.68.13-1.21.1-2.02-.1-.51-.13-1.01-.18-1.52-.18-.23,0-.43-.18-.45-.4-.15-1.21.93-2,.96-2.83.1-2.73.23-5.35.4-7.88,0-.25-.05-.51-.18-.71-.35-.56-1.16-1.59-.28-2.1,1.46-.86,2.27-1.31,2.42-1.36.38-.1.66-.13.78,0h-.03Z"/>
    <path class="cls-2" d="M209.81,132.51c-.1.05-.33.28-.63.63-1.62,1.92-4.04.15-4.12-1.89-.05-1.46.51-3.13,1.94-3.71.96-.38,2.42-.63,1.97-1.97-.13-.4-.81-1.29-1.31-1.01-.33.18-.61.33-.68.76-.08.38-.15.83-.2,1.36-.03.23-.2.4-.45.43-.58.08-1.09-.2-1.52-.78-.93-1.26.86-2.83,1.87-3.33,1.31-.68,2.9-.3,3.91.71.3.28.51.78.63,1.46.35,1.79.58,2.98.68,3.54.05.3.33.93.78,1.89.05.13.08.25.1.38.03.78-.2,1.44-.68,1.89-.63.61-1.46.13-2.05-.35-.08-.05-.18-.08-.25,0h0ZM208.62,128.69c-.81.43-1.09,1.14-.86,2.07.05.2.28.33.48.28h.03c.2-.08.38-.15.53-.25.58-.33.35-1.59.13-2-.05-.13-.2-.15-.33-.1h.03Z"/>
    <path class="cls-2" d="M166.37,130.56c.23-.1.4.05.58.43.08.15.05.33,0,.56-.51,1.64-1.97,2.85-3.74,2.68-1.39-.13-2.55-1.52-2.93-2.73-.83-2.65-.33-5.81,1.92-7.58,1.09-.86,2.4-.81,3.59-.33,1.31.53,1.82,1.92,1.87,3.26,0,.3-.15.56-.4.71l-3.94,2.27c-.33.18-.43.61-.25.93.03.05.08.1.1.15l.45.45c.43.43,1.11.48,1.59.1l1.11-.83s.05-.03.08-.05l-.03-.03ZM164.85,126.12l-.68-.71c-.13-.13-.3-.13-.43,0h-.03c-.93.93-1.46,1.92-1.16,2.25h0c.3.33,1.31-.15,2.25-1.06h.03c.13-.15.13-.33,0-.45l.03-.03Z"/>
    <path class="cls-2" d="M183.24,134.35c-1.01.53-1.46,1.52-2.93,1.19-.98-.23-1.49-.93-1.49-2.12,0-.88,0-1.49.1-1.84.45-2.15,2.6-2.17,3.99-2.75,1.21-.51.61-1.67.05-2.35-.13-.15-.3-.2-.48-.13-.56.23-.88.58-.96,1.09-.1.68-.13.98-.88.93-.3,0-.58-.08-.83-.15-.08-.03-.15-.08-.18-.18-.4-.78-.38-1.46.1-2.05,1.46-1.77,3.21-2,5.25-.68.78.51.98,1.97.91,2.93-.15,2.07-.4,3.18.48,4.6.35.58-.35,1.77-.83,2.27-.05.05-.13.1-.2.15-.56.23-1.19.05-1.54-.48-.18-.3-.28-.43-.28-.45-.08-.05-.18-.05-.25,0l-.03.03ZM182.93,130.46c-.63.35-1.39.81-1.34,1.57.03.51.33.71.88.58.83-.2.78-1.44.61-2.07,0-.05-.08-.1-.15-.08h-.03.03Z"/>
  </g>
  <path class="cls-1" d="M238.4,86.31l-4.77-.2-.93-1.04c.2-.05.35-.3.61-.18,1.39-1.77,3.56-1.94,5.43-2.78-.88.03-1.69.45-2.5.78-1.46,1.01-3.13-.56-4.32-.1.43-1.52,2.15-2.25,3.21-3.41-2.07.76-3.36,3.41-5.71,3.36-.08-.15-.28-.2-.23-.35,1.64-.3,3.41-1.62,3.89-3.28-.08-.35-.45-.91.05-1.19l-.83-.2c-.1-.3.15-.4.25-.61h-.25c-.53-.43,0-1.01.03-1.44-.45-.1-1.01.18-1.29-.28.35-.48-.15-.35-.33-.71l.38-.38c-.1-.96-1.84-.15-2.53-.76l2.07-1.64c-1.72,1.06-3.54,2.3-5.2,3.13-.05-.2.1-.3.28-.45,1.49-2.65,4.52-4.62,6.79-6.89-1.59.76-2.9,2.9-4.5,3.49,1.97-2.45,4.57-4.57,6.87-6.89l-5.99,5.23-.1-.1,5.99-7.37-4.75,5.1-.15-.1c2-3.03,4.02-6.04,5.48-9.32-1.39,1.89-1.94,4.57-3.81,5.88.81-2.37,1.79-5.03,2.63-7.1l-2.78,5.91c-.33.05-.76.48-1.04,0,.63-1.09.38-2.27.3-3.56l1.72-5.1c-.83,1.62-.98,3.61-2.3,4.87-.61-3.06-1.67-5.96-2.53-8.89,0,2.37,1.92,4.7.45,6.92-.2.68-.15,1.54-.51,2.12l-.98-.83c-.3-1.64-.58-3.38-1.19-4.8.35,2.35,1.72,4.85.43,7.25-.18.45.61.86-.03,1.11-1.26-1.34-1.77-3.41-2.63-4.98.76,1.94,1.19,3.99,2.6,5.66-.1.35.18.83-.28,1.09-1.21-1.46-1.11-3.64-2.37-5.2.81,1.79,1.21,3.81,2.1,5.56.35.35.48,1.34-.13,1.54-.91-1.46-.91-3.69-1.77-4.8.23,2.35,2.85,5.23.28,7.27l-.25-.2c0-1.79-.23-3.54-.56-5.18-.18,2.5,1.11,4.95.08,7.15-.53-1.24-.35-2.73-.51-4.19,0,1.74-.18,3.54,0,5.18-.71.63-.58,1.84-1.09,2.45l-.15-.1c-.81-1.52-.78-3.84-.33-5.38l-.43.33-.08-.15v.4c-.38.38-.96,1.11-1.49.91.56-2.32,1.74-4.32,3.13-6.24-.91.83-1.39,1.82-2.2,2.68-.83-1.82.63-3.51,1.31-5.1-.51.58-.88,1.57-1.46,1.74-.51-1.84,1.01-3.11,1.54-4.62-.81.81-1.14,1.84-1.77,2.83l-.1-.15c0-1.24.1-2.58.43-3.56,1.11.03,2.02-.76,2.68-1.46,1.16-.81-.76-2.25,1.01-2.63.25-.73.18-1.74-.28-2.25.08.76.4,1.92-.56,2.37-1.19-.03-2.45-.05-3.31-.91.25-.35.66-.33.96-.48-.25,0-.61.1-.78-.1.73-.35,1.41-1.26,2.4-1.29.88.4.71,1.72.53,2.22l.2-.25c-.08-.88-.1-2-.73-2.42.48-.38.81.23,1.19.38.18-.86-.71-.56-1.06-.98.1-.35-.15-.56-.08-.83-.68-1.11-1.72-1.69-2.95-1.62-.96.05-.78,1.06-1.14,1.62l-.91-1.31c-1.09-.33-2.27-.1-3.13.63-.35.73-.38,1.87.2,2.55-1.06.08-1.87.96-1.69,2.1.23.96.3,2.1,1.24,2.68.38.35.88-.23,1.06.38-.53,1.79,2.15,1.74,1.92,3.38-.96,1.04-1.09,2.35-1.36,3.69-1.39-1.77-1.94-4.12-2.15-6.52-.83,3.11,2.4,5.33.63,8.46l-1.44-3.97,1.59,5.15c-.03,1.06.15,2.05-.45,2.75-.51-1.64-1.16-3.18-1.54-4.95.13,1.44.48,2.83,1.11,4.09.81,1.62-.73,2.93-.28,4.52-1.11-1.16-1.41-2.9-2.15-4.32l.98,2.75c.33,1.14,1.34,2.85.08,3.84-.83-1.41-1.21-3.01-1.84-4.47.53,2.2,1.79,4.27,1.04,6.84-1.11-1.62-1.01-3.71-1.77-5.43.73,2.65,1.31,5.2.66,8.11-.91-1.46-.56-3.46-1.06-5.05.18,2.55.91,5.35.08,7.85-.56.1-1.59,0-1.94.71l-.43-.51c-.73-.53-1.87-.2-2.3.53-.25.63-.13,1.44.3,1.94-.61.28-.96.86-.98,1.52-.13.73.58,1.11,1.06,1.46-1.14,1.21-2.58,3.21-4.14,3.33,1.01-1.06,1.64-2.6,1.94-3.79-.76.33-1.46,1.31-2.35.93,4.6-5.81,7.43-12.4,8.92-19.62l1.21-1.19c.66-4.34,1.49-8.61,1.94-13.06-.71,2.37-.73,5.81-1.59,8.46-.15-.58-.13-1.29-.45-1.79.45-2.78,1.26-5.78,1.39-8.33-.53,2.32-.51,4.92-1.59,6.97-.91-3.01.48-5.86.45-8.94-.38,1.64-.33,3.43-1.06,4.9-.86-2.15.35-4.47.38-6.57-.58,1.52-.48,3.38-1.21,4.85-1.16-2.95.15-6.77-.88-9.9-.03,2.1,1.16,6.04-.88,7.98-1.26-3.18-.93-6.95-1.54-10.33.13,1.84.53,3.94-.05,5.71l-.33-.61c.05-2.73-.48-5.53-2.07-7.8,1.09,2.22,1.92,4.62,1.46,7.2-.18-.35-.18-.81-.3-1.19-1.74-2.37-2.12-5.56-4.85-7.35,1.64,1.87,3.54,3.91,2.83,6.36-.35.1-.45-.3-.68-.45-3.08-.73-4.9-4.98-7.63-5.53,1.92,1.19,3.76,2.85,5.25,4.75l.08,1.34c-.3.73.63,1.41-.15,1.89-1.64.3-2.9-.91-4.14-1.89v-.68c-1.26-1.11-2.68-1.89-4.09-2.63-2.65.48-4.02-2.98-6.52-1.79l-2.22,4.12c-1.11.81-2.22,1.92-2.7,3.36.05,1.84-1.84,2.8-2,4.47.91,1.11,2.07,2.05,3.01,2.95-2.35.63-4.29,2.4-6.87,2.48-.56.43-.93,1.57-1.67,1.39.78-1.97-.23-3.81-.88-5.53-1.26,1.57-3.54,2.45-3.54,4.6-.93-.4-2.07-.3-2.85-1.01l1.69-1.34c-1.82,1.36-3.79,2.35-5.56,3.74l-.1-.1c1.26-2.95,4.8-3.31,6.82-5.96-1.46,1.11-2.98,2.17-4.45,3.23-.51-.15-.05-.45,0-.68-.35.28-.71.78-1.09.48.08-.15.13-.28.23-.43-.58.58-1.31.96-2.02.73.15-.56.13-1.14.63-1.54.66-.68,1.74-.66,2.65-.43-.13.15-.13.45-.15.66,1.54-2.3,4.42-3.23,6.06-5.05-1.46,1.01-2.88,2.27-4.45,2.98-.08-.45,0-1.11.63-1.44,1.54-.4,2.93-1.54,4.32-2.48-1.06.61-2.12,1.29-3.11,1.89-.45.23-1.16.63-1.59.13.35-.2.61-.58,1.01-.58,1.09-2.02,3.33-2.65,5.2-3.61-1.14.08-2,1.09-3.01,1.04v-.58c-.23.38-.51.68-.96.81-.58-.18-.98.2-1.59.05-.13-.93.83-1.57,1.49-2.1.51-.05,1.06-.43,1.54-.05-.03.15-.08.28-.13.43.86-.98,2.95-.58,3.89-1.79-1.16.38-2.2,1.24-3.49.86.35-.51.38-1.19.53-1.77,1.69-1.69,3.76-2.25,5.78-3.11-2.6.28-4.39,2.63-7.22,2.2-.66.15-1.06,1.19-1.82.71-.15-2.17,1.92-3.69,2.98-5.1l-1.62,1.41c-1.14,2.07-2.63,3.61-3.81,5.63-.38-.25-.18-.73-.23-1.19.93-1.87,2.27-3.59,3.94-5.13-4.37,3.84-8.13,7.88-8.92,13.36-.15-3.66,1.62-6.87,4.14-9.55-1.92,1.79-3.26,3.89-3.91,6.21-.58,1.39-.03,3.38-1.11,4.42-.35-2.1.73-3.86,1.14-5.86-.93,2.22-1.49,4.65-1.52,7.27-.96.88-1.14,2.02-1.72,3.06-.73-2.6,0-5.53.63-7.98-.43-1.19.1-2.93-1.21-3.71-.83-.33-1.97-.61-2.4.53-.53-.3-1.14-.43-1.79-.38-.78.23-2,.73-1.97,1.74-1.29-.28-2.17.68-3.13,1.36-1.06,1.36.86,2.15.63,3.43.81,1.36,2.17,1.94,3.51,2.2.88.25,1.72-.81,2.4.05l1.04,13.89c-1.59-2.07-2.53-4.57-3.79-6.89l.38-.68-2.95-1.16.08-3.59-2.58,2.07c-.48-1.06-1.39-1.97-2.42-2.55.05,1.26-.76,2.22-.33,3.43-.43.63-.83.08-1.44.23-.1-.2-.48-.33-.33-.61h-.1v.48h.1c-.71.38-1.62.71-2.4.53l.58-3.21c-.73,1.21-.71,2.75-.86,4.27-.66.86-1.14,1.82-1.46,2.85-1.77-.63-1.92-2.78-2.07-4.47.15,2.78.86,5.48,1.52,7.93-2.78-.3-2.17-3.38-3.36-5,.51,3.03,2.5,5.53,3.38,8.44-.1.25-.4.1-.61.13-1.11-1.52-2.27-3.03-2.63-4.82.2,2.05,1.64,3.66,2.6,5.43.1.71.86,1.41.2,2.15-2.05-1.94-2.32-4.57-3.41-6.87.53,3.03,2.8,5.88,3.36,8.92l-2.95-4.75c1.16,2.9,3.36,5.46,4.07,8.54l-.25.25c-1.67-1.69-2.6-3.69-3.89-5.56,1.36,3.11,4.14,5.86,5.25,8.92-1.54-.28-2.53-2.05-3.61-3.18,1.34,2.22,3.84,3.97,5.23,6.19l-.15.15c-.83-.66-1.77-1.14-2.55-2,1.54,1.82,3.23,4.02,5.25,5.05-.35.68-.73,1.41-1.39,1.87l3.91.23c1.92,3.21,5.13,5.99,7.7,8.97-4.65-2.9-9.5-6.04-14.24-9.02l-1.64-.38c-.68.05-.61.78-.63,1.26,1.69,4.14,5.96,7.27,8.18,11.19-.63-3.33-2.42-6.21-4.92-8.81v-.51c3.43,2.07,6.72,4.32,10.25,6.19,1.97.98,4.29,1.24,6.16,2.53-.4.53.13,1.09.15,1.44l1.04-.66c1.82.15,2.88,2.05,4.55,2.6,6.84,3.08,14.77,3.76,22.73,4.44,4.62-.28,9.85,1.01,13.28-2.53-1.29-.13-2.5.56-3.69.25l.58-.58c-1.19-.13-2.35.66-3.38.18.1-.3.4-.51.61-.73l5.99-.13c2.42.66,3.71-1.84,5.43-2.7-9.75.73-20.31.51-27.93-5.08,1.46.43,3.16,1.11,4.72,1.64,8.99,2.5,21.29,3.76,29.42-1.11-6.16,1.29-12.6,2.93-19.3,1.69,5.86-2.45,13.03-.4,19.04-2.55,1.94-.2,4.09-.25,5.81.53.43.96-.78,1.54-1.34,2.2-4.04,1.19-8.13,3.54-10.81,7.25,3.59-3.49,8.71-2.88,12.55-5.68,1.29-1.01,2.15-2.22,2.12-3.86-.33-1.09-1.24-1.92-2.22-2.42-5.25-1.06-9.5,2.27-14.57,1.94,6.62-2.37,13.92-3.71,21.49-2.83,2.6,2,4.65,5.53,8.03,5.3v-.15c-3.41-.33-5.05-3.99-6.21-6.69-2.73-.43-5.35-1.36-8.18-1.24,1.31-.91,2.83-.86,4.37-.66-.58-.08-1.14-.23-1.62-.48,1.94-.51,4.82.13,6.47.15l-5.25-.71-.33-.25c2.22-.15,4.62,0,6.89.08-1.59-.1-3.23,0-4.52-.71,1.82-.73,3.86-.63,5.86-.43-.83-.13-1.64-.3-2.42-.58,1.97-1.44,4.24.4,6.21.05-1.24-.13-2.42-.35-3.56-.83,2.32-1.29,4.7.66,7.05-.1-1.54-.18-3.18-.18-4.67-.56,2.12-.45,4.39,0,6.47.25l.25-.25c-.15,0-.4.08-.51-.13.93-.38,1.94.33,2.73-.03-1.54-.23-3.23-.13-4.6-.71,1.82-.63,3.64-.05,5.58-.35M166.9,42.07c.56-.23,1.11-.68,1.69-.3.13.93-.33,1.74-1.14,2.1l-1.19.33c-.38-.81.28-1.49.66-2.12M139.95,97.5l-3.46-4.5,3.46,4.5M147.58,98.77c-3.84-1.72-7.1-4.65-10.94-6.21-.35.83-.73-.51-1.06-.78-.15-.4.25-.45.51-.58-.33-.61-.83.08-.96.38,1.19,2.6,3.71,4.77,5.2,7.27-2.07-2.48-4.75-4.67-5.78-7.55-.08-.35.08-.73.38-.83l1.44.38,13.03,8.38c-.51.53-1.24-.18-1.79-.48M233.7,83.21c-.4.38-1.36.43-1.67,1.06l1.92-.45c-.48.68-1.57.81-2.4.53-.08-1.14,1.26-1.57,2.15-1.14M230.39,82.78h.25c-.45.25-.96.73-1.21,1.16l2.07-1.29c0,.83-.48,1.77-1.39,1.89-.35-.1-.86.18-1.04-.28.13-.73.68-1.24,1.34-1.52M232.51,79.27c-.13,1.04-1.34,1.89-2.2,2.32-1.11.56-2.55.23-3.56-.23-.35-.2-.38-.56-.33-.93,1.84-.15,3.46-.93,5.25-1.19-.3.23-.81-.03-1.06.33.23.2.61.13.93.13-.73,1.16-1.97,1.64-3.28,1.62,1.34.86,2.4-.4,3.36-1.11l.86-.93M226.1,83.64c.13.73-.78,1.57-1.49,1.84-.3.1-.56.33-.96.23-.08-.56.13-1.24.73-1.62-.1.15-.35.23-.35.43l2.07-.91M223.55,84.17c.35-.78,1.21-1.26,1.84-1.84.33,0,.48.56.83.45-.1-.25-.66-1.01-.4-1.54.18.66,1.36.58,1.26,1.14-1.01.96-2.6.58-3.51,1.82M222.94,84.52c.4.56-.08,1.34-.63,1.67-.3.35-.66.73-1.19.68-.38-.86.23-1.54.78-2.12.15.25-.48.63-.51,1.09l1.57-1.31M222.48,84.07l-.58.1,2.78-2.68-.1-.15c-1.92,1.16-3.41,3.36-5.46,4.04,1.01-.96,2.88-2.63,4.12-4.09l-.1-.1c-2.42,1.59-4.02,4.39-6.67,5.33.68-1.14,2.4-2.27,3.31-3.61-1.62,1.06-3.38,2.75-4.87,4.17l-.86.23c.33-.93,1.94-2.5,2.83-3.61,2.75-.98,5.2-3.36,8.31-2.7.45,1.79-1.87,1.89-2.7,3.08M216.09,88.18c.56-.48,1.16-.81,1.67-1.39,0,.91-.38,1.72-1.24,2.12-.71,0-.83-.76-.56-1.31l1.11-.83c-.13.61-.93.73-1.14,1.31l.15.1M190.81,87.25c-.48-.35-.03-1.04-.33-1.44-1.09.51-.03,1.59-.05,2.4l.1.1c-.73.05-1.14-1.01-1.26-1.67-.03-.76.38-1.49,1.06-1.67.51.05,1.14.4.73.96-.1.45-.38.78-.28,1.34M189.83,88.66c-.56-.15-.98-.76-1.31-1.21l.18-.98c.08.83.56,1.54,1.14,2.2M189.68,84.34c.23.38-.53.73-.73,1.06-.13-.4-.1-1.49.73-1.06M190.28,84.34c.2-.78,1.31-.86,1.79-.2.1.4-.18.73-.53.83-.43-.2-.78-.58-1.29-.63M195.74,85.43c-.2.05-.45-.13-.61.13.53.25.78.66.48,1.21-.05.05-.15.08-.13.25l.1.08c.1-.3.43-.51.53-.81v-.35c.03.15,0,.25,0,.35-.08,1.19-1.01,2.12-1.84,2.68-.03-.68,1.06-1.04.73-1.77l-.83.88c-.08.15-.15.25-.28.3l.28-.3c.38-.91-.45-3.51,1.57-2.63M194.8,84.8c0-.86.96-.58,1.09,0h-1.09M196.47,85.25c.3-.1.51.25.58.45.13.98-.28,1.74-.66,2.53-.35.28-.66.68-1.11.66.58-1.11,2.02-2.2,1.16-3.64M194.22,90.05l-1.82,1.26c.18-.66.78-1.97,1.82-1.26M192.3,89.77l.15-.43.33.2c-.1.1-.15.15-.15.25h-.33M194.32,85.05c-.58-.2-1.62-.38-1.57-.98.4-.63,1.39-.35,1.59.3v.71M193.82,85.89c-.25-.3-.48-.45-.83-.51.73.48.63,1.52.43,2.4-.13.25-.45.33-.58.13.05-.2-.15-.25-.25-.35l-.51.58c-.18-1.01-.15-2.15.56-2.85.51-.05,1.09.18,1.19.61M191.93,85.58c-.13.71-.38,1.29-.3,2.05h-.15c-.18-.71-.08-1.52.43-2.05M196.17,92.76c-2.37.63-4.39,2.93-7.07,1.97h-.48c2.12-1.74,5.05-1.39,7.55-1.97M194.07,96.62c-1.69.15-3.86-.88-5.83-1.06,1.94-1.01,3.81.88,5.83,1.06M192.63,95.51c1.52-.66,3.36-.45,5.15-.48-1.57,1.26-3.31,1.11-5.15.48M188.31,95.99c-2.48,1.39-5.4,1.89-8.41,2.2l7.35-2.32,1.04.13M181.57,99.25c2.45-.3,4.8-.73,7.3-.83-2.4.73-5.05.88-7.63,1.04l.35-.18M185.79,97.98l4.55-1.44,1.69.38-6.24,1.04M199.25,95.05l.1.15c-2.83,1.79-6.09,2.88-9.62,3.13,3.11-1.29,6.82-.91,9.52-3.28M200.61,95.33l-2.85,1.36,2.85-1.36M195.92,94.3c3.61-1.57,8.21-1.01,12.15-.33-3.61,1.57-8.18.76-12.15.33M206.37,85.83c.48,0,.93.43,1.16.88.23.71-.38,1.34-.98,1.36-.48.13-.88-.23-1.06-.63v-.2l.33.35c-.33-.71.73-1.16.56-1.77M210.36,82.68c-.18.35-.53,1.09-.98,1.52-.33-.56.76-.96.98-1.52M209.48,83.16v-.4h.28l-.28.38M209.35,85.41c.3.28-.08.73-.38.93-.76.13-1.39-.13-1.67-.73-.03-.45.51-.48.71-.68.61-.23,1.24.33,1.19.73.1-.05.18-.15.15-.25M208.82,86.92l-.86.71c-.13-.1-.18-.61.18-.73h.68M205.69,89.04v.2l-.35.13.38-.33M211.37,85.81c-.56-.18-1.06.38-1.62.56.51-1.04-.43-2.3.93-2.95.93.18,2.48.05,2.9-1.24v-.1l-.96.58c.25-.2.35-.48.45-.73-.56.03-1.11.81-1.92.68.18-.73.73-1.26,1.49-1.39h.58v.28l.61-.23c-.15.25-.28.43-.43.68.96-.93,2.6-2.32,3.66-3.61l-.08-.15-2.45,1.97,3.28-3.36c-.45.78.68,1.57.05,2.25-2.22,2.25-4.14,4.82-6.72,6.64l.15.1c3.94-2.4,7.96-4.55,12.4-5.68-7.58,2.75-14.65,7.27-21.32,12.53,2.58-2.42,5.81-4.77,8.89-6.84M215.08,69.6c-.78-1.06-.43-2.55-.66-3.86.71.05.93.63,1.31,1.09-.2.93.45,2.45-.66,2.78M216.9,68.03c.61-.23,1.09-.86,1.82-.76.18.96-.4,2.02-1.24,2.55.66-.58.78-1.52.88-2.22-.51.2-.45.83-.63,1.29l-1.97,1.49c-.28-.81.48-1.69,1.14-2.35M216.6,65.88c.48-.88,1.44-1.16,2.17-1.74.23,1.29-1.24,2.5-2.22,3.43-.43-.48-.18-1.21.05-1.69M220.01,77.65l-.38.4c-1.01-.56,0-1.49.05-2.2h0c-.56,0-.81.78-.86,1.34l.23.83c-.4.05-.48-.4-.58-.61.08-.81.43-1.44,1.01-2.02l.23.45h0c.28.56.45,1.09.3,1.79M225.21,80.4c-.13-.25-.66.08-.58-.35-.18-.56.45-.68.81-.58-.05.35.23.81-.23.93M224.45,77.15c-.05-.61.03-1.19.38-1.62h.35l-.73,1.62M224.4,78.59c.05.66-.68.83-1.11,1.06l-5.88,2.1c.86-.53,1.84-2.55,3.03-1.49,1.54.1,2.42-1.46,3.71-2.05l.25.35M214.88,83.13c1.26-1.26,2.55-2.78,3.81-3.84l.18.25c-1.06,1.31-2.45,2.93-3.99,3.59M219.13,79.22c-.35-.1-.23-.66.15-.51-.05.15.1.4-.15.51M222.31,76.89c.33.51.93.13,1.29-.13l.35-.35c.35.45,0,1.19-.61,1.09-.51-.05-.98.05-1.26-.51-.28-1.31,1.29-1.87,2.27-1.39-.66.43-1.24,1.19-2.05,1.29M222.74,78.21c-.61.73-1.39,1.82-2.53,1.49.05-.1-.05-.15-.15-.25.98.28,1.54-.81,2.22-1.14-.83-.2-1.36.96-2.3.68-.13-.56.33-.98.73-1.16.76-.05,1.49.03,2.05.38M219.13,75.23c-.96,1.36-2.42,2.15-3.79,2.8,2.07-1.04,2.02-3.49,3.94-4.77.48.51.05,1.39-.15,1.97M216.88,73.31l-.73,1.67-1.11.58,1.84-2.25M216.65,72.45l1.04-1.62c0,.71-.43,1.39-1.04,1.62M216.47,75.93v.35l-.61.58.61-.93M216.5,75.33c.93-1.36,1.29-3.11,2.73-4.12.81,1.94-1.62,3.06-2.73,4.12M217.53,70.33c-.45,1.06-1.39,2.25-2.68,2.32.13-1.44,1.52-2,2.68-2.32M216.3,73.18c-.48.78-.88,2.27-2.2,2.1-.3-1.36.91-2.4,2.2-2.1M215.54,75.91c.38.71-.88,1.29-1.49,1.52-.2.15-.43.1-.68.08-.3-.4.15-.78.35-1.19l1.82-.4M214.38,78.51c-.15.05-.1.2-.1.35l.83-.23c-.25.73-.86,1.31-1.62,1.52.45-.25.66-.73.88-1.16-.66.48-1.59,1.11-2.53,1.29.18-1.09,1.39-2.2,2.53-1.74M204.5,92.78h-.43c-.03-.4.45-.61.73-.93-.4-.1-.86.48-1.31.58.86-.93,1.97-1.26,2.88-2.07l-1.69,1.39h.45l6.67-5.2c-2.37,2.22-4.67,4.65-7.3,6.24M209.68,89.83l-.23.51-.13.08.35-.58M205.94,93.08h-.83v-.28l3.54-2.63c1.09,2.22-1.79,1.97-2.7,2.93M213.62,85.66c-.81.98-1.89,2-2.88,2.78l2.88-2.78M207.13,93.36c.35-.45,1.41-1.31,2.15-1.24-.4.63-1.36.96-2.15,1.24M210.21,93.34c-.4.05-1.16.48-1.39-.03-.15-.05,1.06-.96,1.39.03M209.91,91.11h-.25c0-.71.61-1.14,1.14-1.62-.1.35-.23,1.24-.88,1.62M210.64,91.64c.71-.08,1.19.33,1.62.88l-1.89-.05c-.3-.3-.05-.63.25-.83M211.62,90.36c.23-.88,1.26-1.36,1.34-2.25h.25c-.35.76-.2,1.84-1.14,2.27h-.45M211.12,90.36c.28-.71.43-1.57,1.24-1.92l-1.24,1.92M211.78,88.21c1.26-1.26,2.25-2.98,3.81-3.84-1.29,1.31-1.72,3.59-3.81,3.84M215.51,87.68c-.25.73-.48,1.54-1.24,1.89h-.61c-.13-.76.15-1.69,1.01-2.02h.25l-1.04,1.41,1.62-1.29M227.76,82.25h.61l-1.31.83.71-.83M227.13,83.44c.35,0,.45-.56.83-.33l-1.06,1.26c.56-.25,1.36-.81,1.84-1.49.03.83-.43,1.59-1.16,2.02h-.86c-.33-.53.23-.96.4-1.44M231.1,77.32c-.73,1.46-2.42,2.02-3.97,2.2,1.87.43,3.28-.91,4.72-2.02-.73,1.52-2.8,2.4-4.75,2.27l-.71-.18c.96-.81,2.4-1.69,3.74-2.15-1.39-.38-2.32,1.24-3.61,1.46,1.06-1.41,2.88-1.82,4.57-1.57M230.54,75.15c-1.24,1.72-3.31,2.42-4.95,3.61-.23-.56-.28-1.16-.1-1.69,1.14-1.67,3.13-2.27,5.08-1.94M228.44,74.27c-.15.08-.35.08-.51.23l1.94.2-2.9.53c.1-.1.18-.15.18-.25l-.15-.15-1.67,1.64c.61-1.04,1.69-2.5,3.13-2.22M224.96,74.77c-.3,0-.71.1-.96-.13.81-.28,1.59-.45,2.17-1.24.08.51-.66.98-1.21,1.36M223.67,74.04c.23-1.34,1.67-1.11,2.65-1.21-.83.61-1.59,1.64-2.65,1.21M225.14,72.2c-.53-.33,0-.73.05-1.09.28-.88,1.19-.68,1.89-.66-.43.78-1.39.81-2.07,1.24.43.51,1.04.13,1.44-.08.25-.28.51-.43.86-.45-.51.58-1.21,1.31-2.17,1.04M226.63,64.92c.53.48.91,1.06.56,1.72-.45.05-.45.78-.93.33v-1.44c.15.4.15.88.48,1.21l-.1-1.79M228.47,68.28c-.66.33-1.31.96-1.82,1.31.61-.05,1.36-.53,2-.81-.15.53-.76,1.06-1.31,1.16-.33-.1-.86.18-1.09-.28.05-.68.38-1.41,1.14-1.62.68.18,1.14-.25,1.79-.1.05.3-.4.43-.71.33M228.95,67.27h-.33l1.21-1.06c.1.53-.51.83-.86,1.06M230.16,65.61c-.78-.08-1.44,1.67-2.53,1.46-.13-.71.53-1.31,1.09-1.52.58.1.98-.13,1.44-.2v.25M231.17,62.98c-1.06.08-1.57,1.46-2.53,1.74.83.28,1.54-.45,2.17-1.14.28.61-.81,1.19-1.34,1.41h-.93c-.15-.58.13-1.26.73-1.64.43-.68,1.44-.23,1.89-.38M229.56,62.25c.56-.58.63-1.36.73-2.12.28.71,0,1.74-.73,2.12M230.47,59.22c-1.31.66-.45,2.53-1.87,2.93-.33-.81.05-1.69.66-2.15.35-.4.76-.63,1.21-.78M228.85,56.03c.86.68.78,1.94.43,2.75-.15.2-.3.2-.51.23-.33-.81.23-1.64.05-2.37-.53.48-.53,1.16-.56,1.92-.33-.96.2-1.74.56-2.53M226.5,58.96c.48.35,1.16.51,1.41,1.11-.05.51,0,1.16-.63,1.29-.28-.25-.98,0-.93-.61.35.05.63.48.93.15-1.14-.2-.18-1.39-.81-1.94M227.99,63.31l-.18.93c-.66.03-.83-.68-1.01-1.11,0-.56-.48-1.06-.58-1.31.96-.18,1.49.73,1.77,1.46M226.22,62.68l.33.81c-.2.15-.51-.45-.33-.81M224.43,67.02c.15.25-.15.73-.15,1.14.03.08.05.2.08.3.05.05.08.1.15.15.18-.78.63-1.57.43-2.37.73.61,1.11,1.72.91,2.6-.4.25-.2,1.04-.88.81-.2-.35-.45-.78-.61-1.21-.05-.1-.08-.2-.08-.3-.08-.38-.05-.76.15-1.14M223.09,69.52l.35-.58c-.05.68-.58,1.46-.05,2.15.18-.63.15-1.34.51-1.87.73.56.93,1.97.33,2.73-.1.2-.35.1-.51.1-1.04-.53-.86-1.67-.63-2.5M222.28,73.59c.05.03.08.05.1.1,0-.53-.3-1.54.18-2.12.78.61.96,1.36.63,2.4-.15.45-.63.15-.78-.15l-.1-.2c-.23-.25-.3-.61-.38-.86l.38.86M220.87,76.72c-.23-.91.48-1.74.4-2.73.53-.03.33.61.68.86.18.81-.33,1.31-.48,1.89-.71.43-1.29-.33-1.19-1.06l.38-1.44c.63.81-.93,1.82.18,2.5M220.19,74.24c-.58-.91-.45-2.3-.61-3.51l.61-.58c0,1.34.93,2.8,0,4.07M219.98,68.61c.28.51,0,1.11-.28,1.54l-.45-.13c.28.76-.88,1.29-1.39,1.77.08-1.34,1.29-2.15,2.12-3.18M217.96,67.02h-.2c.08-.45,1.67-1.26,1.36-2.35.48.91-.28,1.89-1.14,2.35M219.2,61.54c.3.81-.1,1.59-.66,2.15l-1.29.78c-.51-.51-.08-1.49.15-2.12.28-.53.86-.83,1.31-1.01.4,1.06-.63,1.92-1.36,2.55.63.18,1.41-.81,1.72-1.34l.13-.98M218.12,56.74l-.05,2.78c-.73-.96-2.17-2.63.05-2.78M218.52,60.23l.3-3.81c.25,1.19,0,2.65-.3,3.81M221.27,53.73c-.33.48-.28,1.19-.98,1.41-.76.13-.83-.71-.91-1.21-.08-.58.38-.93.03-1.34,1.06.28,2.12.53,2.85,1.26.03,1.01-1.14,1.57-1.74,2.15-1.41.56-1.31-1.09-1.74-1.74.15-.4-.23-.56-.1-.96.68.56.3,2.85,1.94,2.1.51-.38.86-.83.88-1.41l-.23-.25M221.04,47.77c-.58-.45-1.11-1.16-2-.98-.4.38-.83.73-.83,1.29-.15-.45.13-1.19.73-1.41,1.44-.33,2.07.53,2.6,1.64-.48,1.04-1.72,1.62-2.78,1.84-.15.08.25-.58.61-.83-.3.05-.43-.66-.73-.25l-.61.58c.28-.63.53-1.49.81-2.2.35-.4,1.04-.28,1.39.03.73.38.48.96.45,1.44.45-.23.38-.68.38-1.09M218.32,51.18c.1.35-.05.61-.35.78-.51.23-.91-.38-.93-.71,0-.73,1.11-.83,1.29-.08M214.48,47.37c.68-.73,2.58-1.14,2.53.4-.08.73.05,1.54-.2,2.2l-.61-.43c-.4.43.28.71.23,1.09-.56.23-.38-.51-.58-.73-.63-.71-2.17-1.49-1.39-2.55M215.36,50.02c-.58-.2-1.41-.68-1.52-1.49.33.66,1.26.73,1.52,1.49M214.23,54.16h-.25l.61-.48c0,.25-.25.33-.35.48M213.65,53.66c-.43-.81-1.16-1.67-.68-2.73,1.01-.78,2.2.05,3.13.33-.13.63-1.14.13-1.11.91l1.41.2-1.46,1.16c-.48-.51-.76.33-1.29.18M214.66,55.63l.25-.73c0,.63.33,1.29.91,1.62-.3.13-.93-.43-1.16-.88M215.26,55.4c-.13-1.14,1.29-1.62,1.52-2.6.35.15-.18.93.48.96l.45-.93c.38,1.06.33,2.88-.53,3.71-.78-.08-1.52-.38-1.89-1.14M215.92,59.57c.15-.1.2-.28.25-.48-.1.71-.23,1.77.3,2.55.58-.18.1-.76.13-1.19l.4-1.67c.61.81.93,1.94.4,2.88-.15.51-.81.78-1.19.33-.83-.51-.35-1.64-.28-2.4M214.76,62.02c.68.23,1.26.73,1.64,1.39-.08.73.05,1.59-.53,2.12-.48-1.01-1.84-2.17-1.11-3.51M214.23,63.41c.15.61.56,1.11.96,1.62-.45.18-.53-.3-.83-.45l-.13-1.16c-.05-.2-.08-.43-.08-.63l.08.63M214.2,67.04v.51l-.23-1.09.23.61M214.78,71.74c-.15.28-.48.73-.88.66-.73-1.06-.38-2.53-.61-3.84.73.96,1.87,1.92,1.49,3.18M213.62,75.13l-.35.25c-.73-.86-.51-2.07-.53-3.26.93.76,1.31,1.92.88,3.01M213.01,75.71c.23.56.13,1.19-.38,1.59-1.09-.43-.73-2.02-1.14-3.01.61.38,1.34.73,1.52,1.44M210.13,76.84c.68.58-.51,2.63.88,2.42-1.11-.78.4-2.27-.78-3.01,1.04.18,1.06,1.31,1.74,1.84,0,.73-.3,2.12-1.31,1.57-.78-.73-.76-1.87-.53-2.8M208.97,80.2c.08.66.15,1.44.88,1.79-.43-.71-.4-1.84-.53-2.8.73.53,1.57,1.04,1.64,2-.3.38-.33,1.19-1.11,1.01-.63-.3-.86-1.01-.91-1.64v-.35M207.48,82.55c.81-.43,1.64.05,1.41.98-.51.43-1.16.86-1.79.66-.93-.66.3-.98.38-1.62M207.05,84.67v.61c-.15.1-.51-.1-.68-.35-.25-.51.71-.93.68-.23M204.43,82.1c.3-.1.78.15,1.09.4.51.2-.08.93.4,1.06.58-.73-.4-1.21-.66-1.79.68-.05.78.81,1.01,1.21-.05.48.28,1.29-.48,1.41-.53-.4-1.29-.61-1.64-1.21l.28-1.09M203.37,85.89c.18-.53.56-.88,1.06-1.01.45.1,1.26-.28,1.34.38,0,.66-.63,1.31-1.21,1.52-.61.08-1.09-.38-1.16-.88M204.88,87.27v.45l-.86.71.86-1.16M205.11,88.21h.35c-.18.81-1.04,1.24-1.57,1.87.28.4.4-.25.71-.25-1.24,1.21-2.45,2.48-4.02,2.9l1.84-1.49c-1.64.3-2.93,2.17-4.92,1.92,2.7-1.14,5.2-3.06,7.6-4.95M200.87,90.73l-3.03,1.72,3.03-1.72M192.51,92.55l8.18-3.84c-1.44,3.31-5.2,3.31-8.18,3.84M200.34,88.21c-1.74,1.64-4.07,1.74-6.01,2.73,1.82-1.34,3.91-2.05,6.01-2.73M198.21,88.39l2.2-2.42c-.48.93-1.09,2.1-2.2,2.42M196.4,89.07c.91-.88,1.54-2.07,1.11-3.41-.28-.71-.66-1.41-1.34-1.82-1.16.53-1.89-.43-2-1.39,1.01-1.04,1.59-2.6,1.36-4.14h.51c-.33.71-.63,1.64-.2,2.3.58.76,2.2-.05,2.27,1.14.53.45,1.34.63,2.02.4.63-1.09,1.19-.45,2.17-.78-1.41,2.85-2.93,5.88-5.88,7.73M200.49,77.45c-.33.28-.58.58-1.01.48-.63-.35-.33-.91-.08-1.34.71-.23.83.48,1.09.86M201.02,73.43c.56,0,1.24.23,1.29.83,0,.81-.78,1.46-1.41,1.77-.3.08-.66.18-.76-.23,0-.96.05-1.94.88-2.37M199.6,78.38c.48.86,1.01,2.07.4,3.01-.33.53-.81,0-1.21-.03-.4-.96.35-2.05.81-2.95M197.43,80.51c-.45-.15-1.04-.23-1.19-.78.13-1.24,1.62-1.59,2.78-1.72-.13,1.04-.68,1.92-1.59,2.5M199.45,75.4c-.1.3,0,.68-.38.83l-1.74-1.67c.3-1.67,2.7-.48,2.12.86M198.49,75.99c-.61,0-1.19-.38-1.31-.98.51.2.93.51,1.31.98M198.57,76.97c.33.66-.68.73-1.06.91-.63-.1-1.59.25-1.79-.63-.3-2.05,2.27-1.09,2.85-.28M201.95,80.71c-1.24.08-.91-1.36-1.52-1.92l.1-.58c.96-.03,1.92.38,2.2,1.34,0,.51-.35.98-.81,1.19M202.61,82.27l.53-1.52-.53,1.52M202.96,78.13c-.83.13-1.69-.13-2.02-.73.38-.88,1.77-1.31,2.5-.71-.05.56.28,1.36-.48,1.44M204.1,79.82c1.39-3.89,2.95-7.68,3.61-11.84-.38,4.02-1.77,8.16-3.61,11.84M203.8,56.31v-.25c1.19-.13,2.37.61,2.7,1.74-.1.3-.45.38-.86.33l.25-.33c-.88.05-1.67-.61-2.1-1.52M206.6,60.55c0,.38.43.81.08,1.19-.58-.71-1.87-1.59-1.82-2.78.88-.03,1.46.83,1.74,1.59M205.39,61.11c.25.15.61.15.78.51-.2.05-.91-.03-.78-.51M205.54,62.32c.86.23,1.77.98,2,1.84l-.25.58c-.38-.81-2.22-.88-1.74-2.42M206.83,65.68c.48.25.43.91.56,1.34-.25.35-.81-.05-1.09-.28l-.81-1.57c.61-.15.93.23,1.34.48M209.2,66.82c-.18.38-.58.63-.96.58-.43-.45-.4-1.26-.2-1.79.28-.3.53-.98,1.06-.73.08.56.35,1.46-.25,1.79l.35.15M209.55,66.09c-.25-.51.23-1.44-.05-1.79.38.35.23,1.29.05,1.79M209.17,60.96c.43.4.51,1.41.1,1.94-.25.3-.35.63-.76.93-.35.15-.58-.25-.68-.51-.13-.86.2-1.49.91-2.02l.05,1.69c.66-.43.28-1.34.38-2.05M208.34,56.08l-.23-1.34.23,1.34M208.29,57.95c-.33.73.08,1.44.1,2.15.73-.48,0-1.34.23-1.87.28.61.35,1.62-.05,2.12-.3.3-.66.81-1.06.48-.33-.61-.3-1.59.05-2.12l.71-.73M208.04,54.14c-.88.83.78,3.23-1.16,3.43-.68-.71-.18-1.79.2-2.48l.96-.96M205.77,52.9l1.21-1.26c0,1.19.53,2.45-.51,3.31.66-.88.28-1.97.4-2.98-1.11.63.15,2.45-1.16,3.11-.33-.61-.23-1.59.05-2.17M204.91,55.5h-.23l.25-.25c-1.19-.08-1.59-1.97-2.65-1.62-.1.05-.2.08-.3.15.13-.08.2-.1.3-.15.96-.43,2.35-.13,2.75,1.01.05.3.33.81-.13.86M203.34,55.63c-1.14-.18-1.94-1.09-2.8-2,1.04.43,1.97,1.14,2.8,2M201.45,51.23c.66-.68,2-.2,2.48.56v.45c-1.04.23-1.84-.28-2.48-1.01M203.64,52.72c-.2.2-.56.1-.86.08.13-.45.61-.08.86-.08M205.08,48.84c-.53,1.14.93,2.75-.48,3.41-.35-.73-.51-1.89-.05-2.73l.53-.68M204.28,46.79c.73.61.05,1.54.05,2.3l-.61.58c.76-.88.43-1.89.56-2.88M203.54,46.87c.28.56.51,1.39.2,2.05l-.35.33c-.88-.38-.38-1.19-.33-1.89l.48-.51M202.94,46.16l-.2.33c.25-.63.03-1.87-.18-2.73.83.51.25,1.74.38,2.4M203.09,50.33c-1.04-.58-3.23.23-3.13-1.77.4-.38,1.84-.2,2.48.45.23.48.73.78.66,1.31M201.8,43.99c.53.66,1.01,1.62.45,2.4-.3-.05-.66-.18-.71-.51.08-.61-.15-1.41.25-1.89M200.99,44.57v.45c-.66-.08-1.24-.23-1.69-.73l-.05-1.29c.68.25,1.77.58,1.74,1.57M200.13,45.25c-.08.03-.13.03-.2,0h-.3v-.13c.13,0,.2.08.3.13h.2M201.55,47.07c.08.4-.18.73-.53.83-1.09-.18-1.31-1.57-2-2.32.93.3,2.3.3,2.53,1.52M198.64,47.35c-.98-.38-1.82-1.19-2.78-1.62v.25c1.74,1.16,3.66,2.48,4.5,4.52-1.92-.56-3.31-2.48-5.03-3.43,1.59,2.48,4.7,3.43,6.52,5.96-2.15.66-3.28-2.53-5.03-3.54l-.1.1,2.42,2.8c-.86-.13-1.31-1.16-2.12-1.49,1.74,2.53,5.1,3.79,6.67,6.72l-3.06-3.06-.2.25c1.06,2.17,4.22,3.18,3.81,5.96-1.62-1.41-3.03-3.11-4.32-4.77-.4.51.23.81.3,1.19,1.34,2.48,4.67,4.09,4.72,7.02-1.84-1.49-2.6-3.54-3.99-5.08.98,2.63,3.41,5,4.32,7.85.45.45.88.96,1.54,1.09.1,3.43-1.34,6.09-2.25,9.04.78-3.76-1.26-7.55-.35-11.24.18-1.49-1.06-2.6-2.2-3.38-.4-.2-.88-.53-1.26-.38v.2l-1.44-.48c-.03,1.64-2.48-.35-2.53,1.39,0,.61.13,1.64-.86,1.36.1,2.4,1.11,4.98,3.59,5.83,1.36.58,2.2-1.04,3.43-.15.78,1.54.71,3.89.45,5.48h-.96c.38-.56.48-1.36.28-2.05-.3-.98-1.46-.88-2.25-.76l-.73,1.06c-.53-.61-1.16-.86-2.02-.78-.83.48-1.34,1.26-1.14,2.25-.58-.3-.76.51-1.21.58-.03-5.2.28-10.53-1.19-15.18-1.16-4.04-5.53-3.79-8.08-6.14.61-.05.98,1.01,1.87.63.66-.76,1.59-2.2,2.55-2.42.71-.83-.51-2.4.81-2.75.66-.58.61-1.46.66-2.37l1.87-3.89c1.67.98,3.33,1.97,4.8,3.46M197.86,65.96c.56,1.21,1.49,3.01,3.01,3.41l-.45.35c0-.66-.88-.18-1.19-.48-1.04-.86-2.05-1.89-2.07-3.18l.68-.08M197.68,63.56v1.29c-.08-.15-.23-.1-.38-.1-.03-.51.13-.83.38-1.19M198.49,65.63c-.23-.45-.48-1.06-.23-1.59.1.56.33,1.16.23,1.59M198.42,63.58v-.33c.2-.05.45,0,.61.2-.05.23-.4.08-.61.13M199.15,66.59l-.3-2.3c1.39.23,2.65,1.46,3.26,2.7.2.56.45,1.09.3,1.79-.35.05-.63-.4-1.01-.61-.96-.13-1.89-.71-2.25-1.59M200.31,63.38l.1-.48c.45.45.13.76.23,1.34-.45-.15-1.29-.13-1.19-.86l.18-.71c-.15.45.13,1.09.68.71M201.27,63.16c.73.56,1.72,1.29,1.97,2.17-.13.71.18,1.54-.28,2.05-.3-1.49-2.32-2.5-1.69-4.22M203.26,68.81l-.61.58.61-.58M189.96,50.73c0,.56.18,1.01.13,1.59-.71.13-1.36.96-2.05.3.1.45.71,1.39-.05,1.89-1.59.23-2.55-1.74-4.02-2.12-.58-1.11-1.19-2.42-.71-3.79.96-.28,1.89-.71,2.63-1.64l.58.61c1.24-2.35,3.16-.43,4.67-.15l-.15,2.05c-.58-.28-1.01-1.31-1.77-.88.53.61,1.87,1.19.73,2.15M192.71,44.97c-.3.66-.28,1.44-.98,1.87-.38-.15-.88-.13-1.16-.48l.88-2.53c.48.2,2.05.05,1.26,1.11M189.8,43.2l1.06.53-1.14,2.35c-.56,0-1.34-.33-.93-.96l1.01-1.92M188.59,44.26c-.28.28-.38.71-.48,1.04-.56.15-.98-.15-1.19-.61-.03-.91.48-1.67.98-2.2,1.11.23,1.09.91.66,1.79M187.2,42.09c-.53.91-.38,2.93-2.05,2.1-.56-.05-.43-.76-.13-.93.81-.38.43-1.29.88-1.77.51.05.93.25,1.29.61M185.56,40.88c-.23.98-.58,2.02-1.26,2.7-.33-.18-.73-.18-.93-.53.58-.78.73-3.41,2.2-2.17M183.46,39.72c1.24.63-.38,1.87-.56,2.85-.3.25-.66,0-.83-.25,0-1.09,1.01-1.67,1.39-2.6M183.11,43.63c.1.15.3.2.45.25-.76.23-1.62-.48-2.58-.4.38-1.04,1.49-.08,2.12.15M182.61,44.57c-.15.3-.56.33-.71.13l-.33-.73c.35.25.96.08,1.04.61M181.65,45.3v.35c-.51-.33-1.44-.28-1.41-.98.66-.23.98.38,1.41.61M181.29,49.82l-.13,1.44h-.25c0-.56-.08-1.09.38-1.44M179.6,45.35c.2.05.51-.1.61.15,0,.2-.4.05-.61.1v-.25M180.91,46.23c-.43.15-.86.43-1.34.45.2-.58.86-.73,1.34-.45M180.91,46.71c0,.86-.96.73-1.36,1.26.3-.51.63-1.29,1.36-1.26M179.68,48.58c.3-.3.61-.68,1.06-.68.1.61-.58,1.24-.88,1.87-.05.05-.1.15-.2.08,0-.4-.53-.96,0-1.29M180.84,49.21l-.4.83.4-.83M177.25,50.22c-.23-.96,1.94-2.93,1.29-.48.38,1.16,2.7,1.64,1.62,2.9-1.14-.51-2.15-1.44-2.93-2.45M172.66,57.7l.1.15c.48-.25-.08-.73.28-1.09,2.25-.73,4.07-1.59,6.36-2.25.73.2,1.06,1.16,1.74,1.72l3.86,2.58.25-.23c-1.64-1.79-5.76-2.85-4.39-5.94.91-.96,1.19-2.2,1.26-3.54h.25c0,1.94.96,3.94,2.7,4.85,0,1.04-.05,2.37.4,3.33.28-.51.53-1.09.3-1.69,1.69,1.09,4.09,1.19,5.15,3.26.15-.25.35-.3.58-.23,3.49,3.76,2.32,9.34,2.9,14.22-.45,2.63,1.36,5.83-.86,7.65-1.36-3.28-2.07-6.82-4.09-9.9l1.97-7.55c0-2.05-2.48-2.8-3.23-4.5-.48.58.3,1.26.71,1.82,1.16,1.09,2.25,2.35,1.69,3.97-.88,2.02-.81,4.7-3.03,5.91-2.45.73-4.82.48-7.4.08l-.25.25c1.09.48,2.32.45,3.11,1.62.18,1.29-.08,2.78.51,3.84.83-1.36-1.31-5.35,2-4.39,2.27.2.93,3.13,1.94,4.47.96-1.64-.76-3.54.61-4.9l.68.18c2.05,3.64,3.31,7.68,4.5,11.64-.91,1.01-2.63-.66-3.49.91-1.39-.28-1.62,1.11-2.2,1.94.18,1.44.83,3.06,2.32,3.54l1.52.13c.18,2.45-2.63,4.02-4.39,5.18-3.81,1.79-7.98,3.06-12.48,2.68-2.32-.83-.86-3.69-1.06-5.63.3-2.8.1-5.86,1.04-8.41.18-.63.86-.48,1.21-.81-1.62.38-2.93-.56-3.89-1.87-.15-.15-.15-.35-.35-.51.1-.1.56.2.83.28-.43-.81-1.82-1.14-2.48-2.2-1.82-5.03-.25-10.91.96-15.76l4.45-.93c-.93-1.04-2.37-2.45-3.61-3.46.05-.38.61-.58.93-.33M188.47,85.78c.05.15-.15.23-.25.33l-.08-.61c.15-.05.25.15.33.25M159.07,66.01c.83-1.16,1.79-2.25,2.45-3.51-.71.48-1.46,1.72-2.2,2.6l-.25.25-.08-1.09c-.33.98-1.44,1.57-2.32,1.74.13-.88.1-2.05,1.26-2.27.51-.08,1.39-.18,1.19.61.56-2.07,2.58-3.56,3.46-5.48.73.56,1.52,1.09,2.5,1.24-2.75,3.31-4.6,7-6.21,10.78-1.36.51-.48,1.77-1.26,2.6-.08.76,1.06,1.06,1.01,1.82.2,4.34,1.29,8.28,3.31,11.9-3.61-4.9-5.25-11.49-5.2-17.91.73-1.24,2.53-1.69,2.37-3.28M156.39,68.56c.18-1.04.51-2.22,1.59-2.6l.38-.1c.18.71-.18,1.69-1.04,2.2-.3.15-.56.45-.96.48M159.09,60.88c.33.71-.2,1.34-.56,1.87-.61.13-1.21,1.31-1.79.3,0-1.29,1.34-1.82,2.35-2.2M157.68,59.16c.61-.43,1.21-1.06,2.07-1.01-.38.98-.71,2.53-2.1,2.55-.13-.56-.28-1.01.03-1.54M160.41,59.82c.58-.58,1.16-1.01,1.82-1.39-.68,1.26-1.54,2.75-2.58,4.02-.48-.91.33-1.84.73-2.63M166.92,61.92c.45-.58.53-1.59,1.34-1.74.08,1.34-.45,2.58-1.72,3.28-.51-.73-.56-1.97-.3-2.9.2-.28.58-.93,1.06-.83.03.81-.63,1.44-.4,2.17M167.88,57.95c.38-.03.68.13.93.43.03.38,0,.93-.51,1.04-.3,0-.81.08-.78-.35-.1-.45.08-.81.38-1.09M167.25,63.31l1.39-1.77c-.18,1.34-1.29,2.53-2.6,2.83-.1-.05-.15.05-.23.08.2-.25,1.01-.76,1.46-1.16M169.22,62.07v-.58l.35.1-1.82,11.29c-.13.05-.13-.73-.1-1.19-.83-.61-1.87-1.14-2.98-.76l-.38.35c-.08-.61-.71-.86-1.16-1.06-.93.13-2.05-.05-2.65.88l-.25-.25c1.06-3.01,2.48-5.91,4.52-8.49.28.81.25,1.94.38,2.88,1.54-.2,3.31-1.62,4.04-3.13M162.5,73.23l.96-.33c-.3-.2-.71-.1-1.04-.18.2-.2,1.94-.61,2.12.43-.08,1.14-.93,1.97-1.16,3.06-.2.15-.45.08-.71.08,0-.1-.05-.15-.13-.2h.25c0-.83-.51-1.79-.28-2.9M160.96,76.44c-.63.13-.93-.53-1.41-.78-.38-.61-.63-1.36-.66-2.15.56-.58,1.36-.81,2.05-.66.83.96.68,2.3.96,3.43l-1.04-.38.1.51M158.34,72.3c.08-.45.33-.98.88-1.04.51-.03.98,0,1.29.48v.61c-.81-.18-1.84,1.41-2.15-.05M161.67,72.63c-.45-.25-.83-1.06-.3-1.54l.25-.23c0,.15-.1.4.08.51.91-.43,1.11-1.11,2.05-.35,0,.51.08,1.09-.53,1.19-.58,0-1.19-.05-1.54.45M166.9,74.52c-.58.96-1.64,1.79-2.7,2.07.15-1.34.58-3.11,2.22-3.61.05.1-.05.15-.1.25.73-.13.81.86.58,1.31M166.8,71.89c.15.1.33.35.23.61l-.1.15-.13-.76M167.5,73.61c.48.56,0,1.24-.2,1.79-.71.63-1.34,1.52-2.27,1.49,1.16-.53,2.42-1.84,2.48-3.28M165.23,72.95l-.93-.86c.43-.83,1.41-1.16,2.15-.66.33.91-.53,1.24-1.21,1.52M162.75,76.92c.48,0,1.19.03,1.16.61-.3.3-.66.43-1.04.38-.25-.25-.38-.71-.13-.98M162.7,78.71c.76,5.78,3.69,11.01,7.3,15.84-4.14-4.44-6.84-9.95-7.4-15.84h.1M168.79,89.57c-.61-2.45-.08-5.63-.15-8.46.86,3.76.3,8.11,1.52,11.72-3.43-3.36-2.93-8.81-2.42-13.76,1.26,3.21-.93,7.65,1.06,10.51M167.28,77.5h-.1c.1,4.19-1.41,9.47.88,13.26-2.15-3.74-4.17-7.6-4.6-12.02,1.19-1.82,3.91-1.39,4.6-3.84.4,2.75,2.1,4.92,4.02,7-.81,3.01-.53,6.49-1.89,9.32-.81-4.55.43-10.13-2.93-13.69M159.95,76.64c1.39.05,1.06,1.62,1.92,2.27.73,5.1,3.06,9.57,5.81,13.87-4.57-4.62-7.32-9.9-7.73-16.14M171.01,96.69c-1.67-.68-2.83-2.5-4.09-3.76l4.09,3.76M170.91,92.86c.23-3.38,1.69-6.19,1.77-9.6.2-.23.3-.73.61-.73-.35,4.22-.15,8.99-1.04,13.11-1.14-.51-1.16-1.72-1.34-2.75M173.19,60.12c.2.45.58.76.93,1.11-1.09.1-2.17.63-3.26.35.86-.18,1.92-1.04,2.9-.38l-.58-1.11M172.45,59.49c.15.35.58.66.48,1.11-.96.38-2.4.73-3.33,0l-.15.15c-.15-.4-.53-.66-.43-1.11.81-.38,1.49.53,2.22.3-.48-.61-1.59-.28-1.77-1.24,1.04-.23,2.3-.1,2.95.76M170.38,57.42c-.35.43-.76.68-1.31.56-.73-1.21.4-2.37.43-3.41-.71.76-.56,2.07-1.59,2.58-.38-.45-.28-1.21-.1-1.69.4-.78,1.34-1.41,1.97-2.1.23,1.01.93,2.17.63,3.36.66-1.14-.1-2.55-.18-3.84.76,1.36,1.11,3.21.15,4.55M170.05,52.42c-.78,1.29-2.58,2.17-2.73,3.71-.1-1.69,1.64-2.55,2.73-3.71M167.28,57.57c-.15.1-.15.23-.15.35h-.1l-.08-.71.33.35M166.77,58.76c-.1.51-.61.43-.96.58-1.04-.03-2.02-.1-2.7-.91l.1-.2c.48,1.16,1.82.81,2.85.86.15-.2.4-.33.71-.33M166.54,57.83c-.83.23-1.79-.48-2.58-.3.58.51,1.44.38,2.1.78-.45.43-1.46.66-2.05.15l-.83-.81c.58-1.57,2.48-.81,3.33-.33v.51M166.11,56.51l-1.69-.05c.28-.61,1.29-.38,1.69.05M164.19,55.88c-.03,1.19-1.54.45-2.02,1.16l.93.13c-.4.58-.91.38-1.34-.03.4-.63,1.36-1.46,2.42-1.24M161.09,57.35c.33.1.83.33.83.73l-2.17,1.87c.61-.83.18-2.17,1.36-2.6M160.61,55.55c-.08.93-.63,1.87-1.59,2.22-.2.28-.66,0-.86.23-.18-1.34.73-3.21,2.42-2.42M160.31,49.09c-.13-1.01.15-1.89.76-2.63-.28.68-.53,1.52-.3,2.3l.56-2.12c.66.05.68.76.81,1.21.13.86-.28,1.59-.88,2.02-.66.3-.63-.45-.93-.76M162.27,52.02c-.33.05-.63.13-1.01.08-.38-.66.35-1.14.66-1.62.51-.48,1.16-.56,1.79-.56-.05.86-.68,1.64-1.44,2.12M165.81,47.77c.03.71-.98,1.21-1.57,1.39-.56.23-1.19.08-1.79.1.23-1.44,2.15-2.1,3.36-1.52M164.12,43.2l.96-1.01c.73.56.61,1.69.2,2.5l-.63.83c-.33-.61-1.01-1.41-.56-2.3M162.63,46.16l.53-1.44c.56.13.73.71.91,1.11-.08.83-.28,1.54-1.09,1.84-.66,0-.58-.71-.83-1.06-.18-.88.33-1.52.51-2.27.18.71-.38,1.19-.05,1.79M162.7,42.57c0,1.19-.93,1.97-1.11,3.11-.33-1.09.51-2.17,1.11-3.11M161.49,43.63l-2,4.72c-.25-2,.86-3.36,2-4.72M159.47,48.96c1.04.51,1.39,1.72,1.04,2.75l-.61,1.09c-.71-.13-.83-.86-1.06-1.36,0-.76-.1-1.89.66-2.48M157.96,52.17l.1,1.79c.4-.43.18-1.14.25-1.69.56-.03.58.58.83.86-.13.71-.15,1.44-.73,1.87-.3.2-.68-.33-.83-.61l.38-2.22M155.83,55.88c.25.35,0,.86.38,1.11.15-.45.18-1.09.03-1.54h-.15l.35-.58c.68.4.83,1.21,1.06,1.89-.23.58-.03,1.34-.73,1.67-.76-.13-.78-.96-1.06-1.46l.13-1.09M156.49,59.87l-.18,1.79c-1.11-.08-.48-1.01-1.16-1.62l-.05-1.54c.68.05,1.14.81,1.41,1.39M155.03,61.82c.53.2.86.56,1.06,1.11l-.18,2.02c-.86.33-1.09-.86-1.29-1.46l.4-1.67M154.55,60.53c-.98-2.02-.33-4.65-.78-6.82h-.1c.25,2.58-.88,5.48.53,7.78l-.15,2.37c-1.31-3.21-1.19-7.32-.71-11.01l1.34-1.36c-.61,2.9-.15,6.21-.1,9.04M155.1,68.99c-.13,3.43.71,6.49,1.31,9.57-1.74-4.52-2.58-9.47-2.98-14.5.91,1.52-.13,3.89,1.67,4.9M155.76,66.41l-.3,1.79c-1.14.08-.25-1.06-.66-1.69-.33-.4-.66-.96-.38-1.44.66.18.98.86,1.31,1.36M155.1,47.32c.45,1.89-.28,3.64-1.74,4.82.33-.68,1.69-1.67,1.26-2.85-.3.58-.43,1.29-.88,1.77l.05-1.87-.63,2.02c.28-.71.18-2.78-.28-3.94.4-.83,1.82-.81,2.25.05M153.94,45.1c.33.25.71.4.93.76v.35l-.93-.13v-.98M153.61,45c0,.56.05,1.09-.53,1.41h-.45c-.03-.51-.05-1.79.98-1.41M149.07,46.34c.81-.83,2.88-1.54,3.08.18v.25c-.51-.18-1.64.35-1.89-.56.08.86-.58,1.14-1.14,1.57-.4-.25-.23-1.06-.05-1.44M145.43,48.63l.1-.33-.1.33M145.66,49.49c-.13-.91.53-1.72,1.34-2.02,1.01-.48,1.54.28,1.77,1.09-.28.68-1.09,0-1.54-.15-.56.35-1.01.83-1.57,1.06M146.59,49.49l.61-.38c-.56.43-1.29,1.59-.66,2.53-.48-.66-.51-1.49.05-2.15M147,52.09l.98.61c-.51.2-.63-.35-.98-.61M148.31,53.13c.66-.73,1.34.38,2.25.05-.61.33-1.64.3-2.25-.05M148.36,50.58c-.25.83.96,1.52,1.49,2.07-.93.15-1.72-.83-2.37-.56-.78-.45-.96-1.36-.66-2.15.51-.28,1.11-.81,1.79-.4.63.91.88,2.02,1.92,2.78-.96.28-1.52-1.04-2.2-1.74M151.64,52.45c-1.29-.63-2.25-2-2.55-3.28,0-.93.93-1.52,1.72-1.84.96-.63,1.54.58,1.77,1.24l-.08,3.08c-.1-.71-.2-1.44-.71-2.02-.18.61.28,1.41.1,2l-.81-1.06c-.2.63.48,1.21.56,1.92M152.25,52.6c.51-.08.68.28.58.73-.15.18-.35.23-.61.23-.18-.23-.68-.91,0-.96M152.3,54.42c.05,3.54.48,7.17.73,10.76-.45-3.54-.83-7.02-.73-10.76M155.33,77.35l1.52,3.41c-2.55-3.59-3.28-8.81-5.83-12.91l-1.79-3.86.81,1.21c-.03-.83-.76-1.72-1.29-2.53.28.76-1.06.43-1.09,1.29-.38-.51-.56-1.21-.35-1.82.2-.38.66-.73,1.11-.66,2.93,5.05,5.88,10.08,6.89,15.89M170.94,99.07l4.52,2.83c-2.93-.2-4.82-2.68-7.85-2.58-5.3-2.2-7.27-8.01-10.3-12.25l.1-.61c4.57,4.09,7.2,11.42,13.54,12.58M157.45,85.73l.15-2.83c2.8,4.19,5.43,8.46,9.27,12.25l3.76,3.08c-5.83-1.29-8.56-8.41-13.18-12.48M149.52,92.7l-.28-2.4,3.81,4.85c-1.64.76-2.3-1.69-3.51-2.48M151.47,95.89c-.73-.3-2.22-1.59-2.22-2.58l2.22,2.58M146.39,89.07c.63.13.76.81,1.16,1.21.38-.53-.56-1.16.05-1.64,1.24.58.38,2.55,1.11,3.11.2.25.08.66.13.96-.98-.18-1.92-1.04-2.75-1.94h.4c-.05-.4-.96-1.29-.1-1.69M144.65,86.44c-2.12-.96-1.16-3.71-2.02-5.43.88.91.63,2.3,1.01,3.43,0-.68.05-2.12.08-2.63.48.25,1.04.48,1.36,1.01l-.45.08c.43.81,2,.4,1.77,1.34.15.45.13,1.29-.38,1.34l-1.39-1.72c-.18.81,1.31,1.87.05,2.55M143.36,86.01l-.25.25v-.35c.13-.05.15.05.25.1M141.84,85.78c-.2.08-.3.33-.51.33-.71-.96.35-1.74.76-2.53.13.86-.28,1.59-.15,2.27l.53-1.52c.43.56.15,1.64-.3,2.22l-.25.25c-.58-.15.25-.68-.08-1.04M139.85,82.83c-.23-.98.83-1.41,1.24-2.1.18.98-.05,2.12-.81,2.95-.63.15-.15-.63-.43-.86M140.05,74.75c0,1.24-.98,2-1.62,2.95-.23-.66-.1-1.52.25-2.02.98.13.56-.98,1.36-1.26.58.45.25,1.39.18,2-.2.81-1.06,1.46-1.72,1.77.4-1.04,2.07-1.94,1.52-3.41M137.17,69.9c.4-.63,1.06-1.24,1.82-1.29,0,1.19-1.29,1.77-1.74,2.73l.15.1c1.11-.56,1.92-1.64,1.94-2.93.38.66.1,1.39-.15,2.05l-1.84,1.62c-.28-.66-.51-1.52-.2-2.25M136.99,66.77l1.92-1.14c.45.45.18,1.24-.03,1.69-.35.53-.96,1.01-1.41,1.52-.23-.56-1.16-1.31-.45-2.05M142.12,61.51c-.15.35-.61.23-.61.58h1.04s-1.67,1.09-1.67,1.09l-.13-.71-1.06,1.52c-.25-.51.33-1.34.73-1.92.4-.53,1.09-.38,1.69-.56M140.78,61.29l.76-.38h.35l-1.11.38M146.04,62.8l.81,1.46.13-.68.48,1.19c-.76.28-1.54-.08-2.12-.4-.53-.63-.76-1.49-.78-2.2.35-.05.53.4.83.63.1-.3.56-.28.71,0M145.71,61.99c.45,0,.73.43,1.04.73v.51l-1.04-1.24M148.38,63.69c2.73,5.15,5.03,10.38,6.89,15.84l.3,4.29c-.45.25-.83-.66-1.31-.88-.15-2.05.05-4.17-.45-6.09l-.13,5.81c-1.04-1.01-.3-2.12-.38-3.43-.05-1.89-.2-3.74-.61-5.53-.51,2.32,1.04,4.7-.25,6.82.08-1.04-.51-1.82-.88-2.68.2-2.02.78-4.42.15-6.41-.33,1.69,0,3.74-.53,5.35-.51-2.2.25-4.92-.43-7.07-.33,1.59.08,3.49-.45,5-.08-2.78-.35-6.29-1.34-9.09-.15,2.42,1.14,4.75.43,7.37l-1.14.73c-.53-2.45-1.26-5.86,0-8.26-.78-.58.03-1.16.15-1.79M156.82,86.47l-.66-1.36c.25.2.58.33.78.61-.15.18-.1.51-.13.76M156.21,87.4c0,.58-.38,1.09-.73,1.52-.83-.43-1.06-1.29-.96-2.17l.88-1.09c.63.38.73,1.09.81,1.72M157.48,88.36c1.87,2.32,3.11,4.9,4.85,7.27-.88-.13-2.02-1.09-2.7-2.1-.08-.33.23-.83-.23-1.04-.05.3-.4.38-.71.33l-1.06-1.21c.61-1.01.58-2.27-.18-3.23M159.88,98.31c-.76.48-1.29-.33-2.02-.25.33-1.72,2.37-1.92,4.02-1.69-.18.73-1.14,1.69-1.97,1.94M161.77,100.38l-1.79-.15c-.13-.78-.86-1.52.38-1.77.88.18,1.06,1.21,1.39,1.92M159.88,94.52c.45.3.88.76,1.26,1.21-.56.25-1.21-.58-1.44.08h-.2c.51-.28,0-.81.38-1.29M158.36,93.31c-.71.33-1.24-.78-1.57-1.14l.15-.25c.51.35,1.24.68,1.41,1.39M157.6,93.64l-.1.33c-.56.78-.83,0-1.34-.38l-.43-.51c.63-1.24,1.29.25,1.87.53M155.58,92.5c-.61.1-1.04-.35-1.29-.86l-.25.4c-.3-.25-.68-.38-.93-.76.58-.03,1.11-.83,1.89-.56.45.25.78.76,1.19,1.11.03.35-.38.61-.63.68M147.6,87.91c.45,0,.88.3,1.09.76-.1.73.2,1.34.05,2.12.13-1.14-.43-2.3-1.14-2.9M147.63,86.72c.51-.3,1.11-.48,1.57-.91-.63-.13-1.62.66-2.22.2.2-.38.4-1.04.96-1.06l.1.4c.2-.15.45-.15.61-.38l-.1-.1c.58-.38,2.15-.2,3.08,0-.96.98-1.57,2.4-2.9,2.93-.43-.23-1.74-.15-1.06-1.01M143.03,79.7c-.25-.2-.48.78-.86.13-.58.88.61,1.67-.18,2.48-1.59-2.27.56-4.44.86-6.62l1.89,6.09c-.68-.3-1.44-.73-1.87-1.34.2-.18.08-.51.13-.73M140.96,76.79c.38-1.57,1.26-3.06,1.19-4.65l-1.26,3.31c-1.11-1.57.48-3.69,1.06-5.35-.15,2.2,1.74,4.42-.05,6.31.13.56-.23,1.59-.66,2.27.28-.63-.08-1.36-.3-1.89M141.89,65.35l-1.89,4.37c-.61-2.05.68-3.86,1.46-5.58.4.1.23.86.4,1.21M140.66,64.12h-.51c.25-.78,1.26-.73,1.82-1.26,0,.35-.76,1.14-1.31,1.26M141.67,67.27c.86,1.92-.73,3.31-1.11,4.95-.71-1.67.38-3.46,1.11-4.95M142.37,66.31l.35.4.13,5.38c-.35-1.84-.68-3.69-.48-5.78M143.16,68.96c.53,2.8,1.41,5.4,1.97,8.16-1.69-1.77-1.87-5.15-1.97-8.16M144.47,78.69l-.23-.83.23.83M144.52,77.35c.35.35.78.81.81,1.36-.25.13-.68-.86-.81-1.36M154.98,89.24c.28.66-.45.71-.71.98-.93-.18-1.94-.15-2.53-1.04.76-.48,2.78-1.52,3.23.05M150.15,87.5c.13-.48.66-1.04,1.21-1.16.76-.08,1.49.28,1.87.88.33.88-.76.83-1.24,1.16-.83.18-1.31-.48-1.84-.88M154.09,86.52c-.2.15-.15.35-.35.48-.63-.45-.96-1.57-.45-2.3l.61-.81c.45.66.91,1.92.2,2.63M152.96,83.84c-.35.38-.86.38-1.34.38-.28-.96.1-1.94.66-2.63.78.4,1.01,1.46.71,2.25M151.82,81.09c-.3.4-.68,1.04-1.21.91-.78-.51-.4-1.64-.3-2.37l.73-1.29c.73.61,1.16,1.72.78,2.75M149.29,80.94c-.43-.66-1.04.18-1.54-.28-.73-.51-1.57-1.09-1.84-1.94,1.21-.35,3.21-.48,3.56,1.14-.13.4.33.96-.18,1.09M150.68,83.33c-.45.05-.96.43-1.44.08-.68-.38-1.39-1.14-1.74-1.84,1.52-.81,2.75.45,3.18,1.77M151.16,84.04v.15h-1.34c.2-.48.96-.25,1.34-.15M149.6,79.39c-.73-.48-.58-1.46-.56-2.3.61-.38.58-1.41,1.49-1.41.2,1.34.15,2.8-.93,3.71M149.42,75.56c-.25.43-.56.63-.96,1.04-.43-.61-.56-1.52-.3-2.25l1.31-.91c.4.45.38,1.54-.05,2.15M148.08,77.55c-.4.51-1.21.61-1.69.18-.88-.71-1.09-1.77-1.14-2.85.93.96,2.9.96,2.83,2.7M146.06,82.73c-.71,0-.61-1.26-.96-1.92l.96,1.92M145.4,79.72c1.31,1.19,1.92,2.93,3.38,4.02-.4.58-1.14.28-1.57.71-.61-1.54-1.57-3.03-1.82-4.72M149.39,87.83c.71-.18,1.04.38,1.41.73-.4,0-1.54.15-1.41-.73M152.91,90.66c-.61.38-2.07-1.09-2.8-1.62,1.14.08,1.82,1.14,2.8,1.62M154.04,92.7l-.28.83c-1.16-.81-2.48-2.3-3.11-3.66l3.36,2.83M155.05,85.56v-.58h.1v.58h-.13M147.55,74.67c-.25.45-.71.33-1.09.3-.83-.86-.91-2.15-.63-3.33.88.76,2.15,1.79,1.72,3.03M146.67,65.2l.73.18-.3,6.89c-1.04-2-1.34-4.85-.43-7.07M144.7,64.47c2.58.71.43,3.59,1.16,5.38l.08.86c-.71-1.69-.35-3.94-1.06-5.56-.25,2.83.76,5.63.3,8.51-1.24-1.77-1.34-4.17-2-6.26l1.52-2.93M144.19,64.95l-.88,1.36c-.15-.51-.13-1.64-.4-2.4.1-.33.61-.63.63-1.36.93.4,1.16,1.62.66,2.4M143.66,61.46l-.35.35c-.48-.3-.53-.81-.23-1.21.43.05.98.35.58.86M142.95,62.37c.28.4-.66.73-.53,1.34l.45,1.64c-.78-.48-.91-1.72-.45-2.5l.51-.51M140.53,64.47h.45l-1.34,2.85c-.13-1.01-.35-2.55.91-2.88M137.95,73.01c.3-.53.93-1.04,1.57-1.16.28,1.19-1.59,1.89-1.26,3.08.56-.78,1.57-1.54,1.69-2.6.33,1.31-.93,2.17-1.84,3.03-.73-.51-.45-1.74-.15-2.4M140.83,77.25c-.23.83-.83,1.92-1.64,2.7-.43-1.16.78-2.02,1.64-2.7M140.81,78.18c.08,1.19-.63,1.97-1.41,2.75-.23-.93,1.19-1.72,1.41-2.75M141.51,82.17c.03.91-.48,1.59-.98,2.22-.1-.56.63-1.52.98-2.22M145.73,86.47c.45-.15.66.2.93.45.2.51-.3.81-.61.93-.25-.1-.53-.2-.68-.48-.05-.4-.03-.73.38-.93M146.04,88.34c-.1.53-.4.93-.63,1.41-.13-.63.23-1.14.63-1.41M148.76,88.06c1.64,1.92,2.65,4.34,4.77,6.16v.51c-2.12-1.84-4.09-4.12-4.77-6.67M152.78,95.66c1.19,0,2.32.2,3.11,1.26,0,.56-.23,1.14-.88,1.09-1.04-.38-2.27-.66-2.7-1.87-.2-.56.3-.23.45-.48M154.37,93.66l.28-.61c.51.76,1.67.83,1.74,1.82-.05.45-.33.83-.38,1.34-.68-.71-2.8-.96-1.64-2.58M156.21,97.86l.45-.58c.45.1.63.66.35.96-.3.25-.93.13-.81-.38M156.62,95.13c.73-.08,2.15-2.32,2.3-.28-.05.93-.58,1.67-1.24,2.35-1.09-.13-1.67-1.06-1.04-2.07M157.48,98.49c1.54-.05,1.92,1.49,2.32,2.58v.45c-1.04-.13-2.02-.88-2.45-1.84l.13-1.19M158.74,102.1c1.67.63,3.18,1.77,4.92,2.27v.23c-2.1.4-3.56-.68-5.1-1.57l.18-.93M160.63,102.3v-.48c1.59.73,3.06,1.62,4.72,2.15l-.35.35c-1.59-.43-3.06-1.06-4.37-2M160.66,100.86c1.97.56,3.64,1.82,5.4,2.75-1.92-.58-3.94-1.34-5.4-2.75M162.35,100.99c.48-1.14-1.24-2.42-.66-3.43,2.88,1.82,5.71,3.76,8.84,5.18-1.49-.28-2.6.38-3.84.66l-4.32-2.4M162.43,97.17v-.35l5.05,3.59c-1.19-.28-3.59-1.72-5.05-3.26M168.06,100.79c2.63,1.19,5.28,2.2,8.03,3.08-2.58-.15-5.63-1.41-8.03-3.08M169.02,100.31c2.15.05,3.64,1.46,5.43,2.17,6.72.4,12.58,2.73,19.42,2.73-8.54.83-17.43-1.29-24.85-4.9M157.55,90.89c-.51.15-.43.98-1.11.66-.43-.61-.66-1.59-.2-2.27.35-.25.33-.83.86-.76.48.66.45,1.64.43,2.4M156.95,85.25c-1.82-.83-.51-3.28-1.19-4.8,1.87,1.19,1.31,2.95,1.19,4.8M146.19,60.05c.4.18.93.33,1.34.18l-1.34-.63c.91-.33,1.64.58,2.53.66-.05.51-.81.88-1.36,1.01-.71.13-1.74.25-2.37-.15-.13-.56.96-.63,1.21-1.09M144.39,60.02c-.08-.61,1.11-.96.43-1.54-.13-.81.63-1.36,1.24-1.77.18,1.54-.25,2.68-1.67,3.28M144.12,57.78l1.97-1.64c-.13.61-1.67.96-1.64,2-.15.56-.18,1.19-.48,1.64-.48-.61-.05-1.39.15-2M142.02,56.03c1.41.73,1.59,2.27,1.21,3.61l-.1.1c-.15-.25-.13-.61-.48-.81l-.13.78c-.96-.91-.68-2.45-.51-3.69M141.67,55.78c.08.51-.18,1.34-.28,2.05.1-.71-.18-1.52.28-2.05M139.65,59.22c1.06-.18,1.77.33,2.53.88v.2c-1.14-.28-1.62,1.06-2.65.2-.3-.45.13-.83.13-1.29M139.85,61.61l-.38.68c-.35-.15-.48-.71-.23-1.06l.58.38M139.19,59.32l-.15.73c-.45.1-.35-.45-.68-.61.1-.25.66-.63.83-.13M137.75,59.42c.2.2.71.18.58.61-.23-.15-.68-.25-.58-.61M138.81,61.08c.1.51-.2.78-.28,1.16l-1.49-2.53c.68.1,1.31.73,1.74,1.34M136.19,61.16c.05.38-.68,1.49.05,2,.28-.81,0-1.79.81-2.37.58.61,1.21,1.46.76,2.2l-.35.33c.53.33.96-.48,1.46-.71.53.66.28,1.39-.05,2.05-.61.58-1.31,1.31-2.17,1.49l.51-2.37c-.56.53-1.04-.13-1.29-.73-.28-.66.05-1.34.3-1.87M136.34,64.85c-.15.45-.18.93-.18,1.44-.81.08-.86-.96-1.16-1.46l-.3-1.54c.71.28,1.46.78,1.64,1.59M134.37,66.59c.78.08,1.31.78,1.92,1.34l-.05,2.05c-.51.1-.68-.28-.58-.71-.88-.71-1.06-1.82-1.29-2.65M136.77,71.92c.05.45.28.83.18,1.39-.45.15-1.19-.13-.93-.61-.78-.56-1.26-1.57-1.39-2.42,1.01,0,1.87.73,2.15,1.64M134.34,73.41c.51-.38,1.44.18,2.15.4l.68.96.23,1.34c-.61.08-1.59.3-2.05-.3.3-.15,1.04.28,1.44.13-1.44-.38-1.29-1.92-2.42-2.55M136.21,79.27l1.19-.08-1.94-1.39v.05l-.15-.15.15.1c.13-.53-.58-1.24-.56-1.57,1.14.28,2.53.45,3.06,1.77.08.48.23.93.3,1.44-.45.4-1.24.23-1.79.05l-.25-.25M136.44,80.25c1.16-.13,2.17.61,2.6,1.62v.35c-.56-.35-1.52.15-1.89-.56.2,0,.53.1.71-.08-.48-.4-1.52-.63-1.41-1.34M137.12,83.11c.61-.73,2.48.25,2.95,1.52l.1.35c-1.06-.28-2.22-.86-3.06-1.84M139.49,87.25l.35.1-.35-.1M138.11,85.76c.45-.58,1.52-.4,2.02-.05.56.1.98.76,1.26,1.21-.05.15-.05.35-.2.45-1.14-.08-2-1.19-3.08-1.62M140.15,89.65c.53-1.29,1.74-2.7,3.06-3.16.56,0,1.09.18,1.34.61-.51-.1-1.19-.35-1.94-.28-.51.28-.45.78-.73,1.16.45-.15,1.26-.91,1.82-.4-.33.88-1.36.61-1.72,1.36.78.35,1.39-.51,2.2-.56-.33,1.59-2.35.96-3.51,1.36.51-.38,1.01-1.01,1.34-1.59-.73-.08-1.06,1.06-1.82,1.49M141.72,90.25c.91-.73,3.18-.23,3.03-2.22h.2c0,.91-.76,1.92-1.69,2.02l-1.54.2M143.51,90.41l5.81,6.69c-2.2-1.94-4.52-4.22-5.81-6.69M144.22,90.18l.71-.78c.13,1.39,1.24,2.3,2.32,3.13l5.4,5c-.56.3-.91.93-1.57.81-2.42-2.65-4.95-5.28-6.87-8.16M152.07,100.28l-.93-.28c.3-.83,1.04-1.46,1.74-2.1l2.58.4c-1.06.96-1.62,2.4-3.38,1.97M154.65,102.6c-.25-1.34-.08-3.33,1.54-3.81.2,1.34-1.21,2.4-1.41,3.56.96-.73,1.44-1.89,1.77-3.06-.13,1.34-.56,2.63-1.87,3.31M157.73,103.41c-.48-.51-1.19-.78-1.36-1.49l.63-2.02c.66,1.16,1.69,2.12.73,3.51M158.23,103.51l2.25.98c-.88-.13-1.92-.25-2.25-.98M160.91,105.26c1.29.13,2.42,0,3.56-.28,2.53-.91,4.72-2.73,7.7-1.39l3.21.66c-2.2.3-3.71-.68-5.73-.73-1.77.35-3.43,1.06-5.18,1.44-1.11.38-2.27.61-3.56.28M162.1,105.64c4.07.1,7.85-2.85,11.84-.81l1.31-.08c.88.18,2.1-.35,3.23-.28-4.6,1.39-10.41-.83-14.85,1.44l-1.52-.28M179.15,105.89c2.55.35,5.28.58,7.75.58l-.96.68c-3.99,0-7.6-.66-11.16-1.54,1.36-.61,2.93.23,4.37.3M172.73,105.64l-1.92-.4,1.79.3.13.1M192.38,108.39l-.61.58c-8.13.96-16.39-.43-24.17-1.41l-3.21-1.01c1.34-.28,2.9.56,4.42.3-.88-.3-1.92-.35-2.75-.76l.61-.33c7.8,2.63,17.02,3.71,25.76,2.65M189.4,107.81l-1.11.48c-7.17-.1-14.07-.63-20.23-3.01l.25-.1c6.95,1.11,13.76,2.95,21.09,2.63M195.28,105.91c-5.56-.08-11.09.23-16.44-.73l.23-.25c5.3,1.16,10.99.3,16.59.73l-.4.25M196.6,105.94c.3-.1.51-.48.96-.3-.15.28-.61.33-.96.3M199.02,104.35c-3.61.91-7.45.03-11.31-.15-12.73-.63-24.07-10.68-29.35-21.9-1.54-3.71-2.55-7.68-2.45-12,.4,10.73,5.76,20.26,14.9,27.02,7.65,6.29,18.23,7.12,28.24,7.02M202.2,100.71h.25l-2.15.45,1.92-.45M193.49,101.7c-7.91.25-15.33-1.49-21.62-5.03,1.52.78,3.06,1.52,4.72,1.89.23-.58,1.82-.81,2.4-.63l-2.07.66c4.92,2.45,11.11,2.63,16.54,3.11M211.17,96.14c1.49.23,3.21.43,3.89,2.12.51,1.36-.4,2.37-1.16,3.31-2.88,2.78-6.97,2.58-10.23,4.44,2.12-2.45,5.99-3.64,9.07-5.15.56-.58,1.04-1.19.98-2.02-1.94-1.74-4.9-.96-7.35-.86-2.6.53-5.15,1.41-8.01.86,4.57-.1,8.38-2.1,12.83-2.68M184.68,100.21c6.29-.76,12.43-1.74,17.75-4.7l.51.1c-5.38,3.06-11.74,4.44-18.26,4.6M222.61,96.16c-.38-.66-.48-1.52-1.24-2.02,1.24-.08.86,1.31,1.24,2.02M220.26,93.94c-3.69.33-7.83-.63-11.11.86,1.19,0,2.55-.4,3.84-.53l8.08.2c.25.45.78.86.81,1.46-.66-1.52-2.6-1.06-3.79-1.19-4.47.15-8.99.15-13.13.98,4.65-1.69,10.03-3.84,15.3-1.79M212.53,91.9c-.48-.2-.45-.91.03-1.09.66,0,1.26.03,1.69.38v.25c-.35.05-.76-.1-.98.13.28.4.98.28,1.34.13-.45.58-1.44.33-2.05.2M214.86,90.86c-.15-.15-.33-.15-.48-.35-.2-.56.51-.53.71-.83.71-.03,1.39.08,1.67.63-.45.1-.98-.23-1.29.23.48-.1,1.34.23,1.62.28-.56.53-1.64.4-2.25.05M218.92,89.52c-.45.03-1.01-.13-1.44.1.33.45,1.04.08,1.44.38-.56.28-1.54.05-1.87-.63-.05-.35.4-.68.71-.68.45.18.93.13,1.19.63v.2M218.27,87.7c.18-.73.38-1.57,1.24-1.94.05.2-.76.58-.78,1.04l1.36-1.16c.43.91-.3,1.87-1.14,2.37-.25,0-.53.03-.71-.28M219.88,88.94l-.68-.61c.56-.23,1.31-.48,1.92-.15.28.3.73.33.96.73-.4.58-1.59.4-2.2.05M221.85,88.06c-.15-.15-.35-.15-.48-.35,0-.61.73-.28.96-.68.68-.05,1.19.45,1.64.83-.3.78-1.59.51-2.12.2M223.92,87.25l-.51-.45c.66-.93,2.35-.35,2.95.66-.71.68-1.62-.05-2.48-.2M228.19,86.9c-1.11.3-1.97-.61-2.85-1.16,1.01-.78,2.32-.1,2.88.91v.25M229.88,86.19c-.15.08-.15.25-.15.38-.91.43-1.31-.78-2.02-1.24.28-.48,1.01-.58,1.44-.38.4.51,1.01.91,1.16,1.49-.15-.05-.35-.05-.45-.25M234.73,87.3c-1.49-.15-3.18.13-4.52-.35l4.52.35M231.1,86.01c-.2-.4-1.24-.78-.58-1.21.81-.23,1.34.38,1.77.83l-.28.25.83.18c-.35.35-1.34.33-1.77-.03h0l.03-.03Z"/>
</svg>