<?xml version="1.0" encoding="UTF-8"?>
<svg id="Layer_1" data-name="Layer 1" xmlns="http://www.w3.org/2000/svg" viewBox="0 0 352.3 165.34">
  <defs>
    <style>
      .cls-1 {
        fill: #ed1d8f;
      }
    </style>
  </defs>
  <path class="cls-1" d="M140.67,35.94c-.21-.88.12-1.54.99-1.96.69-.34,1.52-.06,1.85.61,0,0,0,0,0,0,.57,1.17-.28,2.63-1.63,2.41-.1-.02-.18-.12-.16-.22,0-.01,0-.02,0-.03h0c.04-.1.14-.16.24-.12.73.25,1.2-.18,1.41-1.28.02-.11-.05-.22-.16-.24-.01,0-.02,0-.04,0h-.19c-.06,0-.1.04-.11.1-.06.42-.35.78-.87,1.05-.12.06-.27.02-.34-.11-.02-.03-.03-.07-.03-.11-.02-.43.11-.83.4-1.21.08-.1.07-.24-.03-.32-.08-.06-.19-.07-.27-.01-.57.36-.87.84-.91,1.43,0,.05-.06.08-.1.07-.03,0-.06-.03-.07-.06Z"/>
  <rect class="cls-1" x="181.11" y="34.43" width="2.18" height="97.08" rx="1.09" ry="1.09"/>
  <circle class="cls-1" cx="97.57" cy="40.27" r="4.34"/>
  <path class="cls-1" d="M139.21,36.62l1.66,7.74c.05.24-.1.48-.34.53,0,0,0,0-.01,0-5.74,1.1-12.7,3.28-17.14,7.3-2.75,2.48-4.18,5.64-4.28,9.47-.08,2.79.13,5.47.62,8.03,1.1,5.76,2.45,12.17,4.04,19.23.06.26-.1.51-.36.57l-7.5,1.61c-.28.06-.56-.12-.62-.4-2.18-9.91-3.56-16.43-4.14-19.55-2.15-11.63.07-22.24,10.9-28.53,3.21-1.86,6.63-3.36,10.26-4.52.67-.21,2.8-.81,6.4-1.8.22-.06.44.07.5.28,0,0,0,.01,0,.02Z"/>
  <path class="cls-1" d="M227.77,50.49c3.13,0,4.75,0,4.86-.01.16,0,.28-.13.28-.3-.06-2.79-.06-5.07.01-6.83.02-.46.25-.75.7-.87.49-.13,1,.17,1.13.66.02.07.03.14.03.21,0,.22,0,2.92.01,8.1,0,5.18,0,7.88,0,8.1-.01.51-.44.92-.95.91-.07,0-.15-.01-.22-.03-.45-.12-.68-.41-.7-.87-.07-1.76-.08-4.04-.02-6.83,0-.16-.12-.29-.28-.3-.12,0-1.74-.01-4.87,0-3.13,0-4.75,0-4.86,0-.16,0-.29.14-.28.3,0,0,0,0,0,0,.06,2.79.06,5.07-.01,6.83-.02.46-.25.75-.7.87-.49.13-1-.17-1.13-.66-.02-.07-.03-.14-.03-.22,0-.22,0-2.92-.01-8.1,0-5.18,0-7.88,0-8.1.01-.51.44-.92.95-.91.07,0,.15.01.22.03.45.12.68.41.7.87.07,1.76.08,4.04.02,6.83,0,.16.12.29.28.3.12,0,1.74,0,4.87,0Z"/>
  <path class="cls-1" d="M288.61,60.59c-4.14,0-7.03-2.65-7.26-6.84-.11-2-.13-5.42-.07-10.26,0-.51.42-.92.93-.93h.04c.49-.01.9.38.91.87,0,0,0,.02,0,.03-.03,4.1-.01,7.38.03,9.85.06,3.34,2.04,5.56,5.41,5.56s5.36-2.22,5.41-5.56c.04-2.47.05-5.76.03-9.85,0-.49.39-.9.89-.9,0,0,.02,0,.03,0h.04c.51,0,.92.42.93.93.06,4.85.04,8.27-.07,10.26-.22,4.19-3.12,6.84-7.26,6.84Z"/>
  <path class="cls-1" d="M210.02,42.66c2.05-.02,4.15,0,6.31.05.44.01.78.38.77.82v.03c0,.45-.35.82-.8.83,0,0,0,0-.01,0h-4.96c-.18,0-.34.14-.34.33,0,0,0,0,0,0v14.86c0,.06-.01.12-.04.18-.2.49-.5.74-.9.74s-.7-.25-.91-.74c-.03-.06-.04-.12-.04-.18l-.04-14.86c0-.19-.16-.34-.34-.33,0,0,0,0,0,0l-4.96.02c-.45,0-.82-.37-.82-.82,0,0,0,0,0-.01v-.03c-.01-.44.33-.8.76-.82,2.15-.06,4.26-.08,6.31-.07Z"/>
  <path class="cls-1" d="M251.75,51.31c0,.63-.49.87-1.06.87-2.87,0-5.67,0-8.41-.01-.17,0-.3.14-.3.3h0v5.54c0,.17.14.3.3.3h9.88c.39,0,.71.32.71.71v.35c0,.35-.29.64-.64.64h-11.53c-.39,0-.7-.31-.71-.7,0-.38,0-3.05,0-8,0-4.95,0-7.62.01-8,0-.39.32-.69.71-.69h11.53c.35,0,.64.29.64.64,0,0,0,0,0,0v.35c0,.39-.32.7-.71.7h-9.88c-.17,0-.3.14-.3.3v5.54c0,.17.13.3.3.3h0c2.74,0,5.54,0,8.41-.01.58,0,1.06.24,1.06.87Z"/>
  <path class="cls-1" d="M267.06,53.96c-.25,0-.45.2-.45.45l.03,4.95c0,.5-.41.91-.91.91-.02,0-.04,0-.05,0h-.04c-.5-.01-.89-.42-.89-.91v-15.99c.01-.38.32-.68.69-.69,2.79-.02,4.8-.01,6.01,0,3.21.06,6.33,1.62,6.45,5,.12,3.14-1.34,5.14-4.36,5.99-1.89.53-4.74.26-6.48.28ZM266.42,44.76l.05,7.12c0,.2.16.37.37.37l4.43-.03c2.5-.02,4.52-1.66,4.51-3.66h0v-.59c-.01-2-2.06-3.61-4.56-3.6l-4.43.03c-.2,0-.37.16-.37.37h0Z"/>
  <path class="cls-1" d="M303.05,53.63c-.14,0-.26.12-.26.26v5.74c0,.54-.43.97-.97.97h-.22c-.39,0-.7-.31-.71-.7v-16.69c0-.26.19-.47.45-.48,1.53-.08,3.82-.1,6.85-.06,3.87.05,6.92,1.86,6.54,5.92-.23,2.37-1.57,3.85-4.03,4.44-.17.04-.27.21-.23.38,0,.04.03.07.05.11l4,5.63c.3.42.2.99-.22,1.29,0,0,0,0,0,0l-.15.11c-.38.27-.9.18-1.17-.2,0,0,0,0,0,0l-4.57-6.42c-.13-.18-.34-.29-.57-.29h-4.8ZM302.8,44.54v7.01c.01.07.07.13.15.13h5.74c2.27-.01,4.11-1.53,4.1-3.4v-.51c0-1.87-1.85-3.38-4.12-3.38,0,0,0,0,0,0h-5.74c-.07,0-.13.07-.13.14Z"/>
  <circle class="cls-1" cx="62.16" cy="47.83" r="4.35"/>
  <path class="cls-1" d="M91.02,96.55c-9.84,2.1-19.66-2.81-24.62-11.46-1.18-2.06-2.34-5.98-3.47-11.77-.74-3.75-1.92-9.27-3.54-16.57-.06-.25.1-.5.35-.56l7.77-1.67c.18-.04.35.08.39.26,1.15,5.32,2.57,12.03,4.26,20.12.64,3.08,1.34,5.23,2.09,6.44,3.19,5.16,9.13,8,14.99,6.76,5.85-1.25,10.12-6.26,10.93-12.27.19-1.42-.05-3.66-.72-6.74-1.76-8.08-3.2-14.79-4.32-20.11-.04-.18.07-.35.24-.39l7.77-1.64c.25-.05.5.11.55.37,1.49,7.33,2.66,12.85,3.52,16.57,1.32,5.76,1.87,9.81,1.63,12.17-1,9.92-7.96,18.41-17.81,20.5Z"/>
  <path class="cls-1" d="M29.51,104.72c-.09-.05-.2-.01-.25.08-.02.04-.03.09-.02.13l4.92,22.87c.06.26-.1.51-.36.57l-7.82,1.68c-.15.03-.29-.06-.32-.21-1.56-7.44-4.41-20.95-8.56-40.55-1.68-7.95.88-16.48,6.89-22.05,8.08-7.49,20.89-8.23,29.65-1.05,15.97,13.12,8.83,38.45-12.02,40.68-4.29.46-8.33-.26-12.12-2.16ZM53.74,84.16c0-7.83-6.35-14.18-14.18-14.18s-14.18,6.35-14.18,14.18c0,7.83,6.35,14.18,14.18,14.18h0c7.83,0,14.18-6.35,14.18-14.18Z"/>
  <path class="cls-1" d="M203.51,82.94c-.03-2.71.8-4.89,2.48-6.54,2.98-2.92,6.64-3.49,11-1.73.76.31,1.48.86,2.16,1.67.29.34.24.85-.11,1.14,0,0-.02.02-.03.02l-.03.03c-.4.31-.96.28-1.33-.05-4.84-4.34-11.98-1.12-11.91,5.44.07,6.56,7.28,9.62,12.02,5.17.37-.34.93-.38,1.33-.08l.03.02c.36.26.45.77.19,1.13,0,.01-.02.02-.03.03-.66.82-1.37,1.39-2.12,1.71-4.31,1.86-7.99,1.36-11.03-1.48-1.72-1.61-2.6-3.77-2.63-6.48Z"/>
  <path class="cls-1" d="M239.84,82.83c0,5.05-4.09,9.14-9.14,9.14s-9.14-4.09-9.14-9.14h0c0-5.05,4.09-9.14,9.14-9.14h0c5.05,0,9.14,4.09,9.14,9.14ZM230.36,75.44c-3.87.19-6.85,3.65-6.65,7.73h0c.2,4.08,3.5,7.23,7.37,7.04,0,0,0,0,0,0,3.87-.19,6.85-3.65,6.65-7.73h0c-.2-4.08-3.5-7.23-7.37-7.04,0,0,0,0,0,0Z"/>
  <path class="cls-1" d="M327.85,91.79c-.7,0-1.02-.51-.96-1.5.06-1.06.06-2.77.03-5.13,0-.24-.08-.48-.22-.67l-6.43-9.04c-.32-.45-.21-1.08.24-1.4l.18-.13c.34-.24.81-.16,1.04.18,0,0,0,0,0,0,2.38,3.39,4.36,6.3,5.94,8.72.03.06.1.08.21.08s.17-.03.21-.08c1.59-2.41,3.58-5.31,5.98-8.69.24-.34.7-.42,1.04-.18,0,0,0,0,0,0l.18.13c.45.33.55.95.23,1.4l-6.47,9.02c-.14.2-.23.43-.23.67-.05,2.36-.04,4.07,0,5.12.05,1-.27,1.5-.97,1.5Z"/>
  <path class="cls-1" d="M252.55,84c.08,0,.14-.02.17-.07,2.85-4.37,5.75-9.37,6.9-9.91.5-.23,1.08-.02,1.31.48.06.13.09.27.09.42v15.99c.01.51-.4.92-.92.93,0,0,0,0-.01,0h-.06c-.52,0-.95-.41-.95-.93,0,0,0,0,0-.01l.03-12.83c0-.07-.05-.13-.13-.13-.05,0-.09.02-.11.06-3.02,4.46-4.78,7.04-5.26,7.76-.4.6-.76.89-1.07.89s-.66-.3-1.07-.89c-.48-.72-2.24-3.3-5.26-7.76-.04-.06-.12-.08-.18-.04-.04.02-.06.07-.06.11l.03,12.83c0,.52-.42.95-.94.95,0,0,0,0-.01,0h-.06c-.51,0-.94-.41-.94-.92,0,0,0,0,0-.01v-15.99c.01-.55.45-.99,1-.99.15,0,.29.03.42.09,1.15.54,4.05,5.54,6.9,9.91.03.05.09.07.17.07Z"/>
  <path class="cls-1" d="M288.88,73.82c.66,0,1.32.72,1.96,2.15,2.22,4.97,4.41,9.83,6.58,14.58.21.46,0,1.01-.45,1.23,0,0,0,0-.01,0l-.24.1c-.37.16-.79,0-.96-.37l-1.76-3.99c-.1-.23-.33-.39-.58-.39-1.01,0-2.53,0-4.54,0h-4.54c-.25,0-.48.15-.58.38l-1.77,3.99c-.17.36-.59.52-.96.36l-.24-.1c-.47-.21-.68-.76-.47-1.22,0,0,0,0,0-.01,2.18-4.75,4.38-9.6,6.61-14.57.64-1.43,1.3-2.14,1.96-2.14ZM284.71,85.01c-.05.1,0,.23.1.27.03.01.06.02.09.02h7.61c.11,0,.21-.09.21-.2,0-.03,0-.06-.02-.09l-3.81-8.4c-.05-.1-.17-.15-.27-.1-.04.02-.08.06-.1.1l-3.81,8.4Z"/>
  <path class="cls-1" d="M308.04,83.35c-2.69-3.46-4.19-5.38-4.5-5.77-.06-.07-.16-.08-.24-.02-.04.03-.06.08-.06.13l.03,13.02c0,.53-.42.96-.95.96-.01,0-.03,0-.04,0h-.04c-.53,0-.96-.44-.96-.98.01-8.89.02-14.08.01-15.57,0-.54.13-.91.4-1.12.47-.37,1.15-.3,1.54.16.53.63,2.62,3.29,6.29,8,2.69,3.46,4.19,5.38,4.5,5.77.05.07.16.09.23.04.04-.03.07-.08.07-.14l-.03-13.02c0-.53.42-.96.95-.96.01,0,.03,0,.04,0h.04c.53,0,.96.44.96.98-.01,8.89-.02,14.08-.01,15.57,0,.54-.13.91-.4,1.12-.47.37-1.15.3-1.54-.16-.53-.63-2.63-3.29-6.29-8Z"/>
  <path class="cls-1" d="M268.12,85.93l.05,4.96c0,.5-.4.92-.9.92-.02,0-.04,0-.05,0h-.04c-.5,0-.89-.41-.89-.91l-.06-16.03c0-.38.3-.69.68-.69h0c2.8-.03,4.8-.04,6.02-.02,3.22.04,6.35,1.59,6.49,4.98.13,3.15-1.32,5.16-4.34,6.02-1.89.55-4.75.28-6.49.31-.25,0-.45.21-.45.46ZM267.98,76.15l.1,7.37c0,.15.13.27.28.26,0,0,0,0,0,0l4.35-.06c2.58-.04,4.65-1.77,4.62-3.87v-.31c-.03-2.1-2.14-3.77-4.73-3.74,0,0,0,0,0,0l-4.35.06c-.15,0-.26.12-.26.27Z"/>
  <path class="cls-1" d="M233.21,114.43c.12,6.56,7.34,9.56,12.06,5.09.36-.35.92-.38,1.33-.09l.03.02c.36.26.45.76.19,1.13,0,.01-.02.02-.03.03-.66.82-1.36,1.4-2.11,1.73-4.3,1.88-7.98,1.41-11.04-1.41-1.73-1.6-2.62-3.75-2.67-6.46-.05-2.71.76-4.9,2.43-6.56,2.95-2.93,6.61-3.53,10.98-1.8.76.3,1.49.85,2.17,1.65.29.34.25.85-.09,1.14-.01,0-.02.02-.04.03l-.03.02c-.39.31-.95.29-1.33-.04-4.87-4.3-11.99-1.04-11.87,5.52Z"/>
  <rect class="cls-1" x="204.46" y="105.38" width="1.93" height="17.91" rx=".96" ry=".96"/>
  <path class="cls-1" d="M218.42,114.81c-2.7-3.46-4.21-5.38-4.52-5.77-.05-.07-.16-.09-.23-.04-.04.03-.07.08-.07.14l.04,13.04c0,.53-.42.96-.94.97-.02,0-.03,0-.05,0h-.04c-.53,0-.96-.44-.96-.98,0-8.91,0-14.11,0-15.6,0-.54.13-.91.4-1.12.47-.37,1.15-.3,1.54.15.53.63,2.63,3.29,6.31,8,2.69,3.46,4.2,5.39,4.51,5.78.05.07.16.09.23.04.05-.03.07-.09.07-.15l-.04-13.04c0-.53.42-.96.95-.96.01,0,.03,0,.04,0h.04c.53,0,.96.44.96.98,0,8.91,0,14.11,0,15.6,0,.54-.13.91-.4,1.12-.47.37-1.15.3-1.54-.16-.53-.63-2.63-3.3-6.3-8.01Z"/>
</svg>