<?xml version="1.0" encoding="UTF-8"?>
<svg id="Layer_1" data-name="Layer 1" xmlns="http://www.w3.org/2000/svg" viewBox="0 0 352.3 165.34">
  <defs>
    <style>
      .cls-1 {
        fill: #dba075;
      }
    </style>
  </defs>
  <path class="cls-1" d="M237.77,82.67c0,34.03-27.59,61.62-61.62,61.62h0c-34.03,0-61.62-27.59-61.62-61.62h0c0-34.03,27.59-61.62,61.62-61.62,34.03,0,61.62,27.59,61.62,61.62h0ZM233.31,82.67c0-31.56-25.59-57.15-57.15-57.15h0c-31.56,0-57.15,25.59-57.15,57.15,0,31.56,25.59,57.15,57.15,57.15h0c31.56,0,57.15-25.59,57.15-57.15h0Z"/>
  <path class="cls-1" d="M175.99,63.06s.07,0,.1-.01c.05-.01.08-.03.11-.06,2.85-3.15,6.49-4.98,10.9-5.5,4.66-.55,9.94.2,13.86,2.72,6.29,4.04,8.44,11.2,8.45,18.51.02,9.34.02,16.84-.01,22.5,0,.2-.16.36-.36.36h-10.5c-.24,0-.43-.2-.43-.44.01-10.85,0-18.56-.02-23.13-.02-4.16-1.32-8.43-5.9-9.37-7.38-1.51-10.46,3.11-10.53,9.79-.04,3.5-.05,11.09-.02,22.79,0,.18-.15.33-.33.33h0c-1.41.02-3.18.02-5.33.02-2.15,0-3.93,0-5.34-.02-.18,0-.32-.15-.32-.33.03-11.7.03-19.29,0-22.79-.07-6.68-3.15-11.3-10.52-9.79-4.58.94-5.89,5.2-5.91,9.36-.03,4.57-.04,12.28-.03,23.13,0,.24-.19.44-.43.44h-10.5c-.2,0-.36-.16-.36-.36-.03-5.66-.03-13.16,0-22.5.02-7.3,2.18-14.47,8.47-18.5,3.92-2.52,9.2-3.26,13.86-2.71,4.41.52,8.04,2.36,10.89,5.51.02.03.06.05.11.06.03,0,.07.01.1.01Z"/>
</svg>