<?xml version="1.0" encoding="UTF-8"?>
<svg id="Layer_1" data-name="Layer 1" xmlns="http://www.w3.org/2000/svg" viewBox="0 0 352.3 165.34">
  <defs>
    <style>
      .cls-1 {
        fill: #f4e078;
      }
    </style>
  </defs>
  <path class="cls-1" d="M273.62,55.67v2.37c-.39,2.85-1.9,4.66-4.5,5.46-.95.29-4.28,1.35-10.01,3.18-1.01.32-1.65.85-1.93,1.58-3.66,9.52-12,15.94-21.31,19.08-4.99,1.67-10.07,1.49-11.62-4.62-2.82-11.15,17.6-20.17,25.36-22.82.17-.06.26-.24.2-.41-.02-.05-.04-.09-.08-.12-2.68-2.63-7.6-2.45-11.58-2.69-7.82-.48-11.74-6.68-10.51-14.14.51-3.05,2.01-5.84,4.5-8.38,6.29-6.38,14.27-10.34,23.35-13.18,1.07-.33,2.05-.46,2.94-.37.84.08,1.54.75,1.73,1.66.61,2.84-.2,5.84-2.17,8.1-.55.63-1.81,1.19-3.77,1.68-3.42.86-19.56,6.62-19.04,11.59.13,1.17.93,1.81,2.42,1.92,4.49.34,7.94.65,10.37.93,5.84.67,9.4,3.81,10.68,9.41.04.17.2.27.37.23.01,0,.02,0,.03,0,1.48-.5,4.39-1.48,8.72-2.93,3.03-1.02,5.12-1.02,5.86,2.48ZM248.91,69.45c-.65-.96-4.64.59-8.9,3.47,0,0,0,0,0,0-4.27,2.88-7.2,5.99-6.55,6.96,0,0,0,0,0,0,.65.96,4.64-.59,8.9-3.47,0,0,0,0,0,0,4.27-2.88,7.2-5.99,6.55-6.96h0Z"/>
  <path class="cls-1" d="M191.49,62.99c0,.08.07.14.14.13.05,0,.1-.03.12-.08,5-9.58,12.42-17.44,22.01-22.87,2.34-1.32,4.62-2.82,6.84-2.23,3.34.88,5.24,4.85,1.69,6.96-.44.26-2.01,1.19-4.7,2.78-6.97,4.13-12.26,9.5-15.89,16.11-2.27,4.15-4.87,12.87-.48,16.36,2.81,2.24,6.25,1.13,8.72-1.14,2.58-2.37,4.32-5.27,5.23-8.68.04-.15-.05-.31-.2-.35-.05-.01-.11-.01-.16,0-1,.35-3.16,1.15-6.47,2.4-1.81.68-3.2.52-4.16-.47-2.36-2.44-.77-6.25,1.71-7.89,1.26-.84,3.49-1.75,6.69-2.74,5.35-1.66,10.89-3.5,16.63-5.54.19-.07.39-.1.59-.1,2.74-.03,3.95,2.1,3.46,4.67-.3,1.58-1.13,2.9-2.5,3.95-1.48,1.12-3.68.98-4.56,3.67-1.75,5.37-3.32,9.74-7.05,14.18-3.7,4.4-8.19,6.87-13.44,7.41-10.77,1.12-18.21-5.66-16.9-16.71,0-.07-.05-.13-.11-.14-.04,0-.07.01-.1.04l-11.46,12.54s-.04.12,0,.16c.01.01.03.02.04.02,7.37,2.56,14.89,4.94,22.55,7.14,3.66,1.04,4,4.62,1.9,7.35-2,2.6-3.88,2.69-6.98,1.61-.67-.23-8.96-2.84-24.86-7.82-.13-.04-.27.03-.31.16,0,.02-.01.04-.01.07-.14,4.32-.22,9.31-.22,14.97,0,.41-.18.96-.54,1.65-1.92,3.66-9.31,3.63-9.71-1.5-.29-3.68-.2-9.18.26-16.51.49-7.67,1.4-16.16,2.74-25.48.12-.84,0-1.7-.32-2.48-1.69-4.02-3.52-6.55,1.02-9.64,4.2-2.85,10.69-6.11,15.78-5.57,6.7.7,12.41,6.81,13.01,13.62ZM170.87,75.76c-.02.13.07.25.2.27.06,0,.13,0,.18-.05,4.47-3.65,8.18-7.97,11.1-12.98.41-.71.4-1.36-.03-1.96-1.8-2.46-6.41-1.66-8.55-.32-.55.34-.92.91-1.01,1.56l-1.89,13.48Z"/>
  <path class="cls-1" d="M146.73,105.48c-.83.52-2.44,1.5-4.84,2.92-1.83,1.08-2.93,2.77-3.29,5.08-.49,3.04-.95,5.7-1.39,7.99-.4,2.06-.72,4.36-2.84,5.21-2.26.92-4.46-1.38-5.09-3.32-1.09-3.4.49-8.11,1.01-11.21.01-.08.01-.16,0-.24l-.8-3.25c-.05-.19-.05-.38-.01-.57.29-1.56,1.59-2.33,2.25-3.66.44-.87.78-1.95,1.04-3.24,2.45-12.11,5.61-24.94,9.48-38.52,1.5-5.26,5.52-2.21,6.94.67.43.87.77,2.28,1.02,4.23,1.89,14.5,2.96,22.65,3.2,24.42.03.25.24.45.49.47,3.09.24,4.98,3.78,3.24,6.33-.56.82-1.7,1.18-2.27,1.96-.14.19-.22.43-.22.68-.01.85.09,1.89.31,3.13,1.04,5.92,1.72,10.79,2.04,14.61.06.76-.14,1.67-.61,2.75-.1.22-.24.41-.43.56-2.35,1.89-4.88.31-6.18-1.95-.58-1-.98-2.63-1.2-4.89-.49-4.78-.87-8.06-1.12-9.84-.04-.25-.27-.43-.52-.39-.06,0-.13.03-.18.07ZM145.48,80.86l-3.61,17.87s.01.04.03.04c0,0,.01,0,.02,0l4.88-3.06c.08-.05.12-.14.11-.23l-1.18-14.6c0-.07-.05-.13-.12-.13-.07,0-.13.05-.13.12h0Z"/>
  <path class="cls-1" d="M107.72,61.66c.32.49.18,1.15-.31,1.46-.37.24-.86.22-1.21-.04l-1.07-.81c-.25-.19-.6-.13-.79.12-.05.06-.08.13-.1.2v.03c-.14.4.03.83.4,1.03,1.29.71,2.66,1.03,3.51,2.52,1.82,3.17-3.38,6.2-5.87,2.72-.15-.21-.13-.5.04-.68l.84-.92c.17-.18.45-.2.63-.03.04.04.08.08.1.14.44.93,1.07,1.2,1.87.81.41-.2.58-.69.38-1.1-.07-.14-.18-.26-.31-.34-1.26-.77-3.62-1.28-3.89-3.32-.38-2.88,4.07-4.43,5.79-1.78Z"/>
  <rect class="cls-1" x="110.22" y="60.39" width="1.92" height="9.89" rx=".58" ry=".58"/>
  <path class="cls-1" d="M116.3,68.18v1.48c0,.35-.28.63-.63.63h-.77c-.27,0-.49-.22-.49-.49v-8.94c0-.25.21-.46.46-.46,1.73-.01,4.66-.65,5.11,1.78.51,2.75.49,5.83-3.19,5.54-.25-.02-.47.17-.49.42,0,.01,0,.02,0,.04ZM116.32,62.81l-.03,2.46c0,.2.15.36.35.36h.5c.59.01,1.07-.52,1.08-1.18v-.77c.02-.67-.45-1.21-1.04-1.22,0,0,0,0,0,0h-.5c-.2-.01-.36.14-.36.34,0,0,0,0,0,0Z"/>
  <path class="cls-1" d="M82.94,144.76h-3.68l-.58-1.5v-2.58c.26-1.94.75-4.5,1.48-7.69,4.76-20.6,8.86-38.17,15.18-56.31.96-2.77,2.8-4.57,5.51-5.4.71-.22,1.48.12,1.8.79.55,1.16.92,2.36,1.1,3.61.87,5.93,2.07,12.51,3.58,19.75.03.15.17.25.31.22.1-.02.17-.08.21-.17,3.48-8.34,6-14.25,7.57-17.72,1.57-3.48,2.99-7.28,7.12-7.92.8-.12,1.58.33,1.87,1.09.39,1.04.62,2.07.69,3.09,1.31,17.48,2.13,34.96,3.25,52.65.24,3.74-1.81,7.15-5.63,7.83-3.13.55-3.11-6.66-3.2-9.39-.33-10.25-.98-21-1.95-32.26-.02-.18-.18-.31-.36-.29-.11.01-.21.08-.26.18-1.89,3.98-3.92,8.79-6.09,14.43-.45,1.17-1.27,2.59-2.13,4.15-1.18,2.15-6.45,7.5-7.47,1.81-.81-4.53-1.95-10.47-3.42-17.82-.02-.1-.13-.17-.23-.15-.07.02-.12.07-.14.13-2.32,8.13-4.5,16.63-6.54,25.48-1.23,5.28-2.35,11.76-3.63,17.33-.74,3.2-2.19,5.43-4.36,6.68Z"/>
</svg>