<?xml version="1.0" encoding="UTF-8"?>
<svg id="Layer_1" data-name="Layer 1" xmlns="http://www.w3.org/2000/svg" viewBox="0 0 352.3 165.34">
  <defs>
    <style>
      .cls-1 {
        fill: rgba(40, 155, 70, .96);
      }
    </style>
  </defs>
  <path class="cls-1" d="M242.57,32.1c-.2.08-.37.06-.52-.07-.04-.03-.07-.07-.09-.12-.13-.32-.2-.58-.21-.79-.33-4.72-2.04-8.95-5.13-12.67-2.22-2.68-4.87-5-7.95-6.97-.22-.14-.3-.31-.26-.53.04-.2.22-.34.43-.32,2.15.18,4.25.62,6.3,1.33,4.79,1.66,8.25,4.72,9.01,9.9.49,3.34-.24,6.99-1.45,10.1-.02.06-.07.1-.12.12Z"/>
  <path class="cls-1" d="M243.77,33.25c-.12-.18-.12-.38,0-.62,2.91-5.26,7.94-9.71,14.42-7.97,2.77.74,5.41,2.37,7.53,4.3.14.13.28.19.28.4,0,.2-.16.36-.36.37-.03,0-.06,0-.1-.01-2.82-.73-5.65-1.08-8.49-1.04-1.24.02-2.6.17-4.07.45-2.94.56-5.63,1.82-8.09,3.79-.14.12-.35.25-.61.41-.19.11-.42.08-.52-.08Z"/>
  <path class="cls-1" d="M240.67,32.95c-3.06-1.7-6.26-2.77-9.59-3.18-3.57-.45-7.49.18-10.52,2.14-.37.24-.78-.02-.78-.46,0-.06.02-.13.05-.18.37-.66.92-1.38,1.64-2.15,2.03-2.17,4.49-3.39,7.38-3.67,1.75-.17,3.63.03,5.65.61,1.28.36,2.39.94,3.35,1.72,1.28,1.05,2.29,2.28,3.02,3.69.15.29.31.79.3,1.19,0,.19-.15.34-.34.34-.06,0-.12-.02-.17-.04Z"/>
  <path class="cls-1" d="M197.81,32.66c1.46.27,2.25.78,3.1,2.12,1.23,1.95,4.29,6.41,1.07,7.93-.51.24-1.38.49-2.62.76-2.09.45-3.63.8-4.63,1.05-4.89,1.24-8.47,4.73-10.1,9.44-1.12,3.25-1.11,6.47.04,9.66.57,1.59,1.99,2.95,3.49,3.85,2.22,1.33,4.67,1.99,7.36,1.98.94,0,2.09-.17,3.45-.51.51-.13,2.24-.53,5.18-1.21.36-.08.79-.1,1.29-.04,1.73.19,2.33,1.55,2.11,3.13-.2,1.45-.42,2.78-.69,3.97-.27,1.22-.57,2.07-.9,2.56-.88,1.29-2.5,2.06-4.07,2.35-5.13.95-10.13.93-15.34-.36-2.71-.67-5.02-1.65-6.94-2.97-2.75-1.88-4.88-4.36-6.37-7.44-2.96-6.09-4.23-12.98-1.96-19.31,1.55-4.34,4.1-7.86,7.65-10.57,2.55-1.95,5.35-3.37,8.4-4.27,2.81-.82,5.7-1.25,8.47-1.91.89-.21,1.56-.28,2-.2Z"/>
  <path class="cls-1" d="M117.34,33.33c.91,0,1.58.08,1.99.26,1.37.59,2.01,1.27,2.53,2.77.75,2.18,2.71,7.21-.76,7.96-.55.12-1.45.16-2.72.14-2.13-.04-3.72-.05-4.75-.03-5.04.09-9.32,2.68-11.98,6.9-1.83,2.91-2.55,6.05-2.15,9.42.2,1.68,1.27,3.32,2.52,4.54,1.86,1.8,4.1,3,6.72,3.6.92.21,2.08.31,3.48.29.53,0,2.3,0,5.32,0,.37,0,.79.08,1.26.25,1.64.58,1.91,2.04,1.35,3.53-.52,1.37-1.04,2.61-1.57,3.71-.54,1.12-1.03,1.89-1.46,2.29-1.16,1.06-2.9,1.44-4.49,1.36-5.21-.25-10.07-1.4-14.85-3.83-2.48-1.26-4.51-2.75-6.08-4.46-2.25-2.46-3.76-5.36-4.52-8.7-1.5-6.6-1.17-13.6,2.48-19.25,2.5-3.87,5.78-6.72,9.85-8.56,2.92-1.32,5.97-2.07,9.15-2.24,2.93-.16,5.84.08,8.69.07Z"/>
  <path class="cls-1" d="M222.28,78.73c-10.83-4.92-18.01-18.08-13.71-29.71,2.49-6.71,8.02-12.17,14.81-14.46,2.99-1.01,6.06-1.38,9.19-1.11,9.1.78,18.06,6.47,20.89,15.57.77,2.48,1.13,5.02,1.08,7.65-.03,1.66-.08,3.15-.34,4.69-1.27,7.56-6.51,13.6-13.51,16.66-1.63.71-3.17,1.24-4.63,1.58-1.47.35-3.09.59-4.86.72-3.1.24-6.08-.3-8.93-1.59ZM240.4,66.27c2.2-2.36,3.13-5.7,3.19-8.9,0-.08,0-.15-.02-.23-.71-3.68-1.19-5.92-1.43-6.72-.36-1.19-.9-2.18-1.62-2.98-1.83-2.02-4.14-3.41-6.91-4.14-2.63-.7-5.06-.21-7.54.92-3.3,1.5-5.31,4.54-6.22,7.91-1.06,3.96-.93,8.21.95,11.84,1.22,2.36,3.02,4.04,5.4,5.05,2.26.96,4.7.94,7.33.58,2.5-.34,5.14-1.48,6.87-3.33Z"/>
  <path class="cls-1" d="M245.14,34.57c-.1-1.05,2.3-1.2,2.96-1.2,2,.02,3.81.44,5.55,1.52,1.18.73,1.78,1.1,1.79,1.11,1.76,1.24,3.06,2.76,3.9,4.53,1.58,3.33,1.31,7.46.15,11.09-.1.3-.2.49-.32.57-.34.24-.91.09-.98-.35-.15-.91-.24-1.45-.27-1.61-1.35-6.85-6.69-12.24-12.64-15.45-.08-.04-.13-.12-.13-.2Z"/>
  <path class="cls-1" d="M168.06,57.95c-.24,7.59-3.6,14.41-10.19,18.41-1.94,1.18-4.28,2.18-6.6,2.69-1.5.33-2.69.62-4.22.66-1.88.04-3.55,0-5.03-.12-1.45-.11-3.05-.44-4.8-.97-2.45-.75-4.63-2-6.52-3.77-5.26-4.89-7.84-12.12-7.45-19.23.25-4.6,1.71-8.68,4.39-12.24,4.23-5.62,11.56-8.28,18.36-8.4,4.25-.08,8.57,1.52,11.96,4.02,3.34,2.47,6.41,5.79,8.19,9.49,1.39,2.9,2.03,6.05,1.92,9.46ZM142.22,44.88c-.81.33-1.54.78-2.19,1.35-2.83,2.45-4.53,5.81-5.5,9.41-.47,1.75-.62,3.44-.46,5.05.42,4.24,3.21,7.04,7.01,8.59,1.51.62,3.11,1.11,4.55,1.07,2.38-.06,4.59-.88,6.63-2.45.77-.59,1.42-1.45,1.89-2.16,1.68-2.52,2.68-5.3,3.01-8.33.46-4.35-1.27-8.65-5.09-10.93-2.15-1.28-4.59-1.94-7.33-2-.98-.02-1.82.11-2.52.4Z"/>
  <path class="cls-1" d="M137.25,154.12c-.11.02-.23,0-.34-.04-1.63-.69-3.04-2.05-4.1-3.31-2.49-2.95-6.49-7.28-9.28-10.5-.83-.96-2.16-2.46-3.98-4.52-.91-1.02-1.37-1.5-2.58-1.14-.23.07-.53.33-.9.78-4.45,5.38-8.17,9.93-11.16,13.66-1.43,1.78-2.81,3.37-4.15,4.75-.07.07-.15.13-.24.18-1.22.67-2.42.87-3.6.61-.84-.19-1.99-.59-3.43-1.19-.91-.38-2.24-1-3.99-1.86-2.07-1.02-1.72-2.5-.5-4.03,7.85-9.9,12.34-15.72,17.78-22.06,1.29-1.51,1.64-2.78.29-4.44-7.26-8.86-14.08-17.31-20.46-25.33-.05-.07-.1-.14-.13-.22-.36-.83-.28-1.54.23-2.15.3-.36.87-.66,1.36-.99.27-.18.46-.31.57-.37,2.92-1.72,5.44-3.28,7.54-4.67.48-.32.84-.48,1.07-.5.91-.06,1.77.53,2.35,1.2.97,1.11,1.91,2.19,2.82,3.23,4.58,5.18,9.24,10.42,13.97,15.74.97,1.09,1.7,1.9,2.18,2.42.05.05.1.09.16.12.5.27,1.01.31,1.53.12.26-.1.64-.43,1.14-1.01,2.08-2.41,4.83-5.6,8.24-9.58,1.38-1.61,3.2-3.8,5.46-6.57,2.83-3.47,4.65-5.66,5.46-6.57.78-.88,2.12-.92,3.19-.62,2.7.77,5.6,1.61,8.7,2.54.67.2,1.12.56,1.34,1.07.03.06.04.13.05.2.06.76.1,1.28-.41,1.92-.77.98-1.74,2.26-2.62,3.28-6.57,7.63-12.77,14.69-18.74,21.41-1.23,1.38-2.1,2.39-.9,4.01.49.66,1.11,1.44,1.87,2.34,4.89,5.83,10.36,12.36,16.4,19.58.7.83,1.34,1.62,1.94,2.35.05.06.09.13.12.21.41,1.07.14,1.89-.81,2.46-1.82,1.11-5.17,3.05-7.8,4.46-1.11.6-2.24,1.29-3.38,2.07-.72.49-1.47.81-2.28.94Z"/>
  <path class="cls-1" d="M222.41,121.69c2.1-3.64,3.51-6.18,4.24-7.62,5.09-10.02,9.56-18.95,13.4-26.78.47-.96,1.52-1.92,2.65-1.98,1.11-.05,2.21.09,3.3.43.05.02.1.03.15.03,2.74.32,5.4.66,6.15,3.67.19.76.29,1.48.31,2.14.17,9.44.61,18.52.83,27.58.39,16.17.5,23.74.94,33.15.04.8-.02,1.27-.91,1.28-.7,0-3.66,0-8.89,0-1.16,0-2.12-.07-3.25-.09-.16,0-.32-.05-.46-.13-.6-.35-1.06-.88-1.41-1.58-.04-.09-.07-.19-.07-.29,0-.67-.01-1.05,0-1.15.19-4.28.41-8.9.68-13.86.38-7.27.27-14.03.21-21.75,0-.03-.02-.05-.04-.05-.02,0-.04.01-.05.03-.04.1-.07.26-.11.33-3.7,6.68-7.49,13.58-11.38,20.68-.49.89-.88,1.43-1.18,1.63-.53.35-1.19.47-1.96.36-2.01-.29-3.54-.49-5.68-.68-1.77-.16-3.49-.38-5.14-.65-.18-.03-.35-.09-.51-.19-.47-.29-.88-.65-1.2-1.07-.19-.25-.43-.73-.71-1.45-2.34-5.97-4.38-11.29-6.12-15.97-.15-.4-.46-.72-.94-.97-.03-.02-.07,0-.09.03,0,0,0,.01,0,.02-.47,2.55-.72,4.25-.76,5.1-.61,14.11-1,23.49-1.17,28.15-.06,1.68-.35,3.4-2.15,3.89-.86.24-1.7.13-2.86.07-1.96-.09-4.04.01-7.3.07-.11,0-.38-.03-.81-.09-1.59-.24-1.48-1.71-1.44-2.93.1-2.58.42-9.91.98-21.98.21-4.48.52-8.99.71-13.3.28-6.74.48-13.7.58-20.87.02-1.59.55-3.03,1.82-4.1.41-.34,1.07-.66,2-.95,1.94-.61,3.81-1.09,5.6-1.44,1.09-.21,2.1-.32,3.02-.31,1.46,0,3,2.31,3.59,3.44.18.34,1.19,2.34,3.03,5.98.04.08,2.91,5.88,8.59,17.39.35.71,1.6,2.98,3.74,6.8.02.03.05.04.08.02.01,0,.02-.01.02-.02Z"/>
  <path class="cls-1" d="M162.49,152.49c-.03-1.12-.02-2.3.03-3.55.23-5.18.54-10.13.54-15.7,0-12.74.13-26.46.65-39.79.05-1.2,1.19-2.82,2.41-3.23,1.21-.4,2.57-.61,4.08-.62,2.03-.01,4.42-.04,7.18-.09.36,0,.76.14,1.2.43,1.27.85,1.33,2.19,1.28,3.62-.11,3.27-.4,12.07-.88,26.41-.06,1.74.02,3.29,0,4.91-.22,12.6-.37,20.98-.44,25.16-.03,2.07-.56,3.86-3.02,3.92-2.59.06-4.69.12-6.32.19-1.85.08-3.49.09-4.93.04-.65-.03-1.48-.95-1.73-1.5-.03-.06-.04-.12-.04-.19Z"/>
</svg>