<?xml version="1.0" encoding="UTF-8"?>
<svg id="Layer_1" data-name="Layer 1" xmlns="http://www.w3.org/2000/svg" viewBox="0 0 352.3 165.34">
  <path d="M172.26,99.39l-.54-7.45c0-.07.04-.14.11-.16l2.83-.8c.13-.04.21-.16.2-.29l-5.09-54.71c-.01-.13-.12-.22-.25-.21,0,0,0,0,0,0l-6.6.62c-.08,0-.15-.05-.16-.14,0,0,0,0,0-.01l-.1-8.09c0-.13.09-.25.22-.27l17.61-3.36c.11-.02.21.05.23.16,0,0,0,.02,0,.03l4.76,65.96c0,.11.11.2.22.19,0,0,0,0,.01,0l4.57-.63c.11-.01.21.06.22.17,0,0,0,.02,0,.02.04,2.43.09,4.73.17,6.91,0,.17.08.63.21,1.37.02.1-.05.2-.15.22,0,0-.02,0-.03,0l-18.19.7c-.13,0-.25-.1-.26-.23Z"/>
  <path d="M96.49,46.17l-.11-9.39c0-.14.11-.26.26-.26h0l24.53-.3c.11,0,.2.08.22.19l1.49,7.78c.02.1-.05.19-.15.21,0,0,0,0-.01,0l-6.68.78c-.16.02-.27.16-.26.32,0,0,0,.02,0,.03,3.7,17.07,6.33,29.13,7.9,36.18,1.44,6.46,2.85,12.38,4.23,17.75.03.12,0,.25-.06.36l-4.16,6.26c-.04.06-.12.08-.18.04-.01,0-.02-.02-.03-.03l-4.06-5.8c-.05-.08-.16-.09-.23-.04-.02.02-.04.04-.06.07-.56,1.19-1.37,2.53-2.43,4.02-3.93,5.57-9.18,8.15-15.65,9.17-4.05.64-8.78-.38-12.54-1.97-9.08-3.84-13.86-15.42-15.99-24.37-1.07-4.5-1.9-8.9-2.47-13.21-.85-6.46-1.54-11.42-2.05-14.88-.04-.27-.05-.57-.04-.89,0-.09-.06-.16-.15-.16-.01,0-.03,0-.04,0l-7.9,1.5c-.13.03-.25-.06-.27-.18,0,0,0-.01,0-.02l-1.11-9.58c-.02-.13.07-.24.2-.26l25.15-3.46c.11-.01.21.05.24.16l2.14,7.58c.03.11-.03.22-.14.25l-6.64,1.87c-.09.03-.15.12-.14.21.87,5.98,1.64,11.75,2.34,17.3.51,4.15,1.49,8.92,2.25,12.54.64,3.03,1.67,6.05,3.1,9.06,2.4,5.05,6.62,8.36,12.45,7.61,8.42-1.09,11.23-8.14,11.42-15.73.07-2.88-.09-5.74-.49-8.58-.44-3.11-.87-5.75-1.3-7.92-.78-3.94-2.41-12.07-4.88-24.41-.02-.09-.1-.16-.2-.15l-7.27.53c-.11,0-.21-.07-.22-.18,0,0,0,0,0-.01Z"/>
  <path d="M209.66,45.65l-1.98,8.47c-.02.1-.12.16-.22.15l-13.82-2.12c-.1-.02-.18-.12-.16-.22,0,0,0-.01,0-.02l2.98-11.3c.03-.1.13-.16.24-.14,0,0,.01,0,.02,0l12.81,4.94c.09.03.14.13.12.22Z"/>
  <path d="M235.76,101.29l-.02-1.5c0-.12-.1-.22-.23-.22-.04,0-.07,0-.1.03-4.35,2.32-9.84,3.31-14.44,1.55-2.93-1.12-5.29-3.05-7.09-5.8-1.12-1.72-2.3-4.93-2.9-7.33-1.58-6.26-1.7-12.61-.36-19.06,1.81-8.76,7.1-17.35,16.41-19.54,3.22-.76,6.42-.8,9.6-.12,13.25,2.84,12.52,21.66,10.71,31.39-.01.07-.08.12-.15.11l-26.17-1.98c-.15-.01-.28.1-.29.25,0,0,0,0,0,0-.14,2.55-.15,4.72-.03,6.5.07,1,.4,2.15,1,3.44.95,2.05,2.44,3.35,4.46,3.9,3.37.92,6.65-1.67,8.37-4.28.06-.09.09-.19.09-.29l-.05-4.35c0-.05.04-.1.09-.11l7.27-1.38c.2-.04.38.09.42.29l3.26,17.1c.03.13-.06.25-.19.28,0,0-.01,0-.02,0l-9.42,1.3c-.11.01-.21-.06-.22-.17,0,0,0-.02,0-.02ZM238.04,72.22c.05-.12.08-.27.1-.47.14-1.52.18-3.62.12-6.3-.04-1.68-.25-3.28-.63-4.81-.73-2.97-2.2-5.79-5.8-5.41-3.65.38-6.56,3.84-7.99,7.01-1.08,2.41-1.78,5.01-2.08,7.81-.01.12.07.22.19.24l15.9,2.04c.08.01.17-.04.2-.12Z"/>
  <path d="M131,107.44c-.05-.15-.27-.66-.64-1.55-1.96-4.72-1.13-9.53,3.45-12.25.14-.08.19-.27.1-.41,0-.01-.01-.02-.02-.03-4.23-5.3-6.13-11.31-5.72-18.04.55-8.91,6.16-17.58,15.04-19.96,2.75-.74,5.59-.79,8.52-.15,3.31.71,6.42,2.12,9.35,4.22.06.05.15.03.2-.02l6.33-7.35c.06-.07.17-.08.24-.02.03.03.05.06.06.11l1.52,11.09c.02.12-.03.25-.11.33l-2.51,2.51c-.08.08-.12.2-.11.32.28,1.73.47,3.61.56,5.64.11,2.22-.04,4.74-.42,7.55-1.09,7.9-5.47,14.33-13.41,16.54-3.03.84-6.12,1.07-9.26.68-.83-.1-1.44-.1-1.82,0-1.33.36-2.91,1.13-2.98,2.62-.1,2.15,2.39,5.18,3.85,6.78.09.1.22.16.36.15.32-.02,1.57.16,3.76.55,8.13,1.43,15.9,6.29,17.97,14.59,1.6,6.44-2.25,12.31-7.58,15.45-6.69,3.94-13.87,5-21.55,3.19-5.34-1.27-10.54-4.49-13.07-9.44-1.53-2.99-2.06-6.26-1.58-9.82.78-5.81,3.95-10.75,9.37-13.04.09-.04.13-.14.09-.22ZM147.68,91.12c6.99-1.38,9.07-12.04,9.23-17.83.03-1.15-.24-2.96-.39-3.92-.5-3.17-2.52-7.02-6.25-7.16-3.38-.13-6.38,2.53-8.11,5.25-1.24,1.96-2.1,4.1-2.57,6.41-.79,3.91-.93,6.88-.1,10.51.89,3.87,3.66,7.64,8.19,6.74ZM137.96,113.03c-2.23,1.58-3.79,3.63-4.37,6.35-.39,1.83-.54,3.32-.46,4.48.34,4.6,2.66,7.74,6.96,9.41,1.15.44,2.27.51,3.67.73.16.03.33.02.49-.02.07-.02.57-.09,1.51-.22,3.9-.53,7.38-4.17,8.03-7.86,1.47-8.41-8.41-12.64-14.99-13.11-.3-.02-.6.06-.84.24Z"/>
  <path d="M262.78,102.51c-.06-.06-.15-.06-.2,0-.02.02-.03.04-.04.06l-1.24,4.21c-.04.14-.19.22-.33.18l-6.92-2.05c-.08-.02-.14-.1-.14-.18l-.56-14.55c0-.1.08-.19.18-.19,0,0,0,0,0,0l11.35-.44c.08,0,.14.06.14.13,0,0,0,0,0,.01-.07.92-.09,1.72-.06,2.38.13,3.12,2.14,5.69,5.23,6.25,2.93.53,6.55-.92,6.52-4.44-.02-2.07-.7-3.79-2.04-5.16-1.58-1.6-3.58-2.92-6.01-3.94-2.45-1.03-4.77-2-6.97-2.89-2.99-1.22-6.04-3.17-7.73-5.99-1.49-2.48-2.23-5.26-2.24-8.34,0-4.92,2.05-8.39,6.12-11.09,5.87-3.89,14.4-4.27,19.77.77.05.05.13.05.18,0,.02-.02.03-.04.03-.06l.9-3.82c.03-.15.17-.25.32-.23l6.68.66c.1.01.19.09.19.2l1.13,15.68c.03.36-.24.67-.6.69-.01,0-.02,0-.04,0-2.12.04-5.05.11-8.8.2-.62.01-1.54.2-2.32.21-.13,0-.24-.1-.24-.23,0,0,0,0,0-.01.05-1.39.13-2.4-.07-3.37-.78-3.93-4.2-8.19-8.68-6.16-3.75,1.7-4.78,5.42-2.81,8.84,1.34,2.32,3.3,3.82,5.7,5,3.23,1.59,6.93,2.91,10.43,4.62,5.25,2.57,8.08,5.85,8.96,11.76.52,3.47-.03,6.4-1.65,8.79-5,7.37-17.72,8.99-24.14,2.51Z"/>
  <path d="M192.44,98.07l2.71.08c.1,0,.18-.07.18-.17,0,0,0,0,0,0l1-32.1c0-.1-.07-.18-.16-.18l-4.91-.37c-.1,0-.17-.09-.16-.19,0,0,0-.02,0-.03l1.76-7.51c.02-.09.1-.14.19-.14l14.7,1.11c.1,0,.17.09.16.19,0,0,0,0,0,0l-4,40.56c0,.1.06.18.16.19,0,0,0,0,0,0l5.41.41c.1,0,.17.09.16.19,0,0,0,0,0,0l-1.07,8.32c-.01.1-.1.16-.2.15,0,0,0,0-.01,0l-16.64-3.23c-.09-.02-.15-.1-.14-.19l.69-6.96c0-.09.09-.17.18-.16Z"/>
  <path d="M293.8,101.72c0,1.6-1.3,2.9-2.9,2.9-1.6,0-2.9-1.3-2.9-2.9h0c0-1.6,1.3-2.9,2.9-2.9h0c1.6,0,2.9,1.3,2.9,2.9ZM293.17,101.73c0-1.26-1.02-2.27-2.27-2.27h0c-1.26,0-2.27,1.02-2.27,2.27h0c0,1.26,1.02,2.27,2.27,2.27h0c1.26,0,2.27-1.02,2.27-2.27Z"/>
  <path d="M290.47,103.18c0,.13-.12.24-.25.23,0,0-.01,0-.02,0l-.14-.02c-.22-.03-.38-.22-.37-.44l.08-2.56c0-.26.22-.46.48-.45.02,0,.04,0,.07,0l1.21.2c.09.01.18.05.26.1.6.4.68.87.25,1.38-.1.12-.1.3,0,.42.2.25.26.61.2,1.09-.04.2-.23.33-.43.29-.17-.03-.29-.18-.29-.35v-.48c.02-.24-.15-.45-.39-.48l-.32-.04c-.15-.02-.28.08-.3.23,0,0,0,.02,0,.03l-.02.83ZM290.44,100.86c-.11.25.04.55.32.67h0c.28.12.6.01.7-.24.11-.25-.04-.55-.32-.67h0c-.28-.12-.6-.01-.7.24Z"/>
</svg>