<?xml version="1.0" encoding="UTF-8"?>
<svg id="Layer_1" data-name="Layer 1" xmlns="http://www.w3.org/2000/svg" viewBox="0 0 352.3 165.34">
  <defs>
    <style>
      .cls-1 {
        fill: #edd9b3;
      }

      .cls-2 {
        fill: #1d155f;
      }
    </style>
  </defs>
  <g>
    <path class="cls-2" d="M203.88,158.26c.3-.68.56-1.32.78-1.91,1.56-4.24,1.39-8.87-2.52-11.54-3.56-2.43-8.47-2.9-12.77-2.87-9.86.06-20.73,2.89-29.59,4.18-17.78,2.59-38.37,2.4-54.54-6.66-15.79-8.84-24.48-24.02-28.31-41.44-1.07-4.88-1.26-9.19-1.26-14.78,0-3.06.09-5.5.27-7.3,1.88-18.77,10.08-35.66,24.73-47.35,16.57-13.22,38.62-18.34,59.37-19.17,4.66-.19,11.62-.21,17,.23,4.47.36,9.38,1.15,14.73,2.37,32.23,7.35,58.42,30.4,61.51,64.81.29,3.27.37,7.19.23,11.76-.9,28.96-18.02,55.05-43.76,67.47-1.81.87-3.71,1.66-5.7,2.35-.07.02-.14-.01-.16-.08-.01-.03,0-.06,0-.09ZM136.24,98.09c3.44,2.42,7.19,3.51,11.27,3.26,11.48-.71,17.44-12.68,18.29-22.82.95-11.35-1.42-26.65-12.6-32.58-4.46-2.36-9.08-2.67-13.86-.93-2.39.87-4.43,2.1-6.13,3.68-.25.23-.72.68-1.42,1.34-.08.07-.19.07-.26,0,0,0-.01-.01-.02-.02-1.55-2.2-3.52-3.97-5.91-5.32-3.31-1.86-9.33,4.07-11.19,6.44-.94,1.19-2.57,3.61-1.28,5.08,1.67,1.88,2.65,3.02,2.96,3.43,1.69,2.24,2.82,4.63,3.38,7.18.66,3.01.96,6.03.89,9.08-.2,8.76-.3,13.58-.33,14.47-.14,5.54-.48,15.96-1.02,31.24-.06,1.89-.33,2.9.64,4,.54.61,1.27,1.06,2.17,1.35,3.74,1.2,7.43,1.22,11.05.07,1.1-.35,2.78-1.41,2.79-2.66.06-8.28.19-17.01.4-26.19,0-.06.06-.12.12-.11.02,0,.04,0,.06.02ZM205.57,50.28c-6.93-6.93-17.95-8.79-26.04-2.58-5.95,4.56-8.33,11.14-8.38,18.63-.08,13.8-1.51,31.81-16.57,37.71-.41.16-.74.49-.9.9-.24.62-.36,1.27-.34,1.96.13,4.25,1.38,7.97,3.73,11.16.54.74,1.27,1.26,2.17,1.56,2.12.71,6.93-2.36,8.54-3.6,11.42-8.79,17.19-24.07,18.06-38.04.1-1.58.21-4.31.32-8.18.1-3.3,1.15-8.45,4.9-9.09,5.66-.96,7.91,5.52,8.74,9.97,1.68,9.07,1.36,18.04,1.3,27.73,0,.2.06.4.18.57,2.18,3.17,16.14,2.56,15.85-2.74-.46-8.38-.61-16.18-.46-23.38.08-3.58.78-6.95,2.13-10.1.96-2.26,2.52-4.25,4.23-6.35.9-1.11.67-2.15.02-3.32-1.72-3.14-4.31-5.77-7.76-7.89-1.47-.9-3.03-1.23-4.5-.21-2.05,1.44-3.73,3.19-5.03,5.26-.03.06-.11.07-.16.04,0,0-.02-.01-.02-.02Z"/>
    <path class="cls-2" d="M150.74,73.09c-.1,4.97-1.06,13.06-7.57,13.38-5.28.26-6.64-5.41-6.72-9.44,0-.17.02-1.58.07-4.21s.08-4.04.09-4.21c.24-4.02,1.82-9.63,7.08-9.17,6.5.56,7.15,8.69,7.05,13.66Z"/>
  </g>
  <g>
    <path class="cls-1" d="M136.24,98.09c-.05-.04-.12-.03-.16.03-.01.02-.02.04-.02.06-.2,9.17-.34,17.9-.4,26.19-.01,1.25-1.69,2.32-2.79,2.66-3.62,1.15-7.31,1.13-11.05-.07-.9-.29-1.62-.74-2.17-1.35-.97-1.1-.7-2.11-.64-4,.54-15.28.88-25.7,1.02-31.24.02-.89.13-5.72.33-14.47.07-3.05-.23-6.07-.89-9.08-.56-2.55-1.69-4.95-3.38-7.18-.31-.41-1.3-1.55-2.96-3.43-1.3-1.46.34-3.88,1.28-5.08,1.86-2.37,7.88-8.3,11.19-6.44,2.39,1.35,4.36,3.12,5.91,5.32.06.08.17.1.26.04,0,0,.01-.01.02-.02.7-.67,1.18-1.11,1.42-1.34,1.7-1.58,3.74-2.81,6.13-3.68,4.78-1.74,9.4-1.43,13.86.93,11.18,5.92,13.56,21.23,12.6,32.58-.85,10.14-6.81,22.11-18.29,22.82-4.08.25-7.84-.83-11.27-3.26ZM136.52,72.82c-.05,2.63-.07,4.04-.07,4.21.08,4.03,1.44,9.7,6.72,9.44,6.52-.31,7.47-8.41,7.57-13.38.1-4.97-.55-13.1-7.05-13.66-5.26-.46-6.84,5.15-7.08,9.17-.01.18-.04,1.58-.09,4.21Z"/>
    <path class="cls-1" d="M205.57,50.28s.12.05.17,0c0,0,.01-.02.02-.02,1.3-2.07,2.98-3.82,5.03-5.26,1.47-1.03,3.03-.69,4.5.21,3.45,2.12,6.04,4.75,7.76,7.89.64,1.17.88,2.21-.02,3.32-1.71,2.1-3.26,4.09-4.23,6.35-1.34,3.15-2.05,6.52-2.13,10.1-.15,7.2,0,15,.46,23.38.29,5.3-13.67,5.91-15.85,2.74-.11-.17-.18-.37-.18-.57.05-9.69.38-18.65-1.3-27.73-.82-4.44-3.07-10.92-8.74-9.97-3.76.64-4.8,5.8-4.9,9.09-.11,3.87-.22,6.6-.32,8.18-.88,13.97-6.65,29.25-18.06,38.04-1.61,1.24-6.42,4.31-8.54,3.6-.9-.3-1.62-.82-2.17-1.56-2.35-3.19-3.6-6.91-3.73-11.16-.02-.69.09-1.34.34-1.96.16-.41.49-.74.9-.9,15.05-5.9,16.48-23.91,16.57-37.71.05-7.49,2.43-14.07,8.38-18.63,8.09-6.21,19.11-4.36,26.04,2.58Z"/>
  </g>
</svg>