<?xml version="1.0" encoding="UTF-8"?>
<svg id="Layer_1" data-name="Layer 1" xmlns="http://www.w3.org/2000/svg" viewBox="0 0 352.3 165.34">
  <path d="M160.97,64.6l1.71-2.6c.36-.53,1.08-.67,1.61-.32.03.02.07.05.1.08,1.33,1.13,4.67,2.54,6.57,1.71,1.12-.49,1.68-1.75,1.28-2.88-.37-1.05-1.08-1.83-2.15-2.33-4.75-2.2-9.89-4.49-9.34-10.48.31-3.5,2.29-5.76,5.92-6.79,3.87-1.09,7.66-.28,11.36,2.42.54.39.67,1.14.3,1.69l-1.97,2.99c-.32.49-.97.62-1.47.3-.04-.02-.07-.05-.1-.08-.85-.71-2.1-1.37-3.75-1.96-3.2-1.16-5.83,1.82-2.48,4.16.32.23,2.15,1.15,5.5,2.77,6.42,3.11,7.29,11.87.44,15.04-3.98,1.83-8.32,1.33-13.03-1.5-.75-.45-.99-1.42-.54-2.16.01-.02.02-.04.04-.06Z"/>
  <path d="M200.31,46.65v3.45c0,.38-.3.68-.68.68h-8.31c-.38,0-.68.3-.68.68v2.64c0,.38.3.68.68.68h6.71c.38,0,.68.3.68.68h0v3.46c0,.38-.3.68-.68.68h-6.72c-.38,0-.68.3-.68.68v3.16c0,.38.3.68.68.68h8.33c.38,0,.68.3.68.68v3.45c0,.38-.3.68-.68.68h-13.39c-.38,0-.68-.3-.68-.68h0v-21.6c0-.38.3-.68.68-.68h13.38c.38,0,.68.3.68.68Z"/>
  <path d="M220.9,57.37c0,.65-.02,1.24-.05,1.77-.03.36-.33.64-.7.64h-6.71c-.36,0-.65.29-.65.65h0v3.02c0,.32.26.58.58.58h8.26c.49,0,.89.4.89.89v3.03c0,.5-.4.9-.9.9h-13.29c-.31,0-.56-.25-.57-.56-.01-.53-.02-4.17-.02-10.92s0-10.4.02-10.93c0-.31.26-.56.57-.56h13.29c.5,0,.9.4.9.9h0v3.03c0,.49-.4.89-.89.89h-8.26c-.32,0-.58.26-.58.58h0v3.02c0,.36.29.65.65.65h6.71c.37,0,.68.28.7.65.03.52.05,1.11.05,1.77Z"/>
  <path d="M229.87,46.69c0-.41.34-.75.75-.75l7.59-.02c6.43-.01,11.65,5.1,11.66,11.41h0v.18c.01,6.31-5.19,11.44-11.62,11.45l-7.59.02c-.41,0-.75-.34-.75-.75l-.04-21.54ZM234.99,51.17l-.02,12.56c0,.22.18.4.4.4h2.44c3.65.02,6.6-2.89,6.61-6.47h0v-.38c0-3.58-2.95-6.49-6.59-6.5h-2.44c-.22,0-.4.17-.4.39Z"/>
  <path d="M159.34,92.06l5.28,9.14c.25.44.1,1-.34,1.26-.14.08-.29.12-.45.12h-4.33c-.62,0-1.19-.33-1.5-.87l-5.39-9.33c-.41-.71-1.32-.95-2.02-.54-.45.26-.73.74-.74,1.27v8.41c0,.58-.47,1.05-1.05,1.05h-4.04c-.61,0-1.1-.49-1.1-1.1h0v-25.95c0-.53.43-.97.96-.98,4.76-.06,8.91-.05,12.44.03,4.06.1,7.62,3.89,7.86,8.1.21,3.61-1.57,6.44-5.32,8.48-.32.17-.44.57-.27.89,0,0,0,.01,0,.02ZM149.84,81.03l.02,4.78c0,.4.33.73.73.73,0,0,0,0,.01,0l4.86-.03c1.83-.01,3.31-1.37,3.31-3.04v-.18c0-1.67-1.5-3.03-3.34-3.02,0,0,0,0-.01,0l-4.86.03c-.4,0-.72.33-.72.73Z"/>
  <path d="M209.97,91.16v-10.79c0-.45.37-.81.82-.81h3.55c.41,0,.75.34.75.75.01,9.08.19,22.08-.13,22.41-.39.4-1.02.42-1.43.03,0,0-.01-.01-.02-.02l-12.29-12.51c-.12-.12-.32-.12-.44,0-.06.06-.09.14-.09.22v11.32c0,.45-.36.81-.81.81h-3.51c-.45,0-.81-.36-.81-.81h0v-21.91c0-.52.42-.94.94-.94.25,0,.49.1.67.28l12.22,12.21c.13.13.35.13.48,0,.06-.06.1-.15.1-.24Z"/>
  <path d="M179.58,79.09c.36,0,.61.14.74.43,2,4.31,5.4,11.65,10.19,22.02.17.36,0,.79-.35.95-.1.04-.2.07-.31.07h-3.31c-.61,0-1.16-.37-1.4-.93l-.7-1.67c-.21-.49-.68-.81-1.21-.82-.43-.01-1.64-.02-3.63-.01-1.99,0-3.19,0-3.62.01-.54,0-1.02.33-1.22.83l-.69,1.67c-.24.56-.79.93-1.4.93h-3.31c-.4.01-.72-.31-.73-.7,0-.11.02-.21.07-.31,4.77-10.37,8.15-17.72,10.14-22.04.13-.29.38-.43.74-.43ZM177.3,94.26c-.07.15,0,.33.15.39.04.02.08.03.13.03l4.01-.04c.17,0,.3-.14.3-.3,0-.04,0-.08-.03-.12l-2.04-4.42c-.07-.15-.25-.22-.4-.15-.07.03-.12.09-.15.16l-1.97,4.45Z"/>
  <path d="M227.23,91.02c.02,5.56,5.62,8.54,10.42,5.36.5-.33,1.15-.26,1.57.16l2.04,2.04c.4.4.4,1.04,0,1.44-.03.03-.05.05-.08.07-7.93,6.26-19.44,1.35-19.47-9.06-.02-10.41,11.46-15.37,19.42-9.15.44.34.51.98.16,1.43-.02.03-.05.06-.07.08l-2.03,2.05c-.42.42-1.07.49-1.57.17-4.81-3.16-10.4-.15-10.39,5.41Z"/>
  <path d="M274.63,83.79c.73-.89,1.15-1.66,1.27-2.3.06-.3.24-.56.51-.72,1.1-.63,1.9-.95,2.4-.98.18,0,.33.14.34.32,0,.07-.02.15-.07.21l-2.66,3.4c-.14.18-.1.44.07.58.03.02.06.04.1.05h.01c.1.02.2-.02.26-.11l2.97-4.39c.04-.05.12-.07.18-.03l.23.16c.15.1.2.3.1.46,0,0-.01.02-.02.02-1.49,1.9-1.01,3.48-1.51,5.72-.75,3.39-3.43,3.93-6.58,4.13-1.89.12-3.49.89-4.79,2.32-.26.28-.4.65-.4,1.03v7.79c0,.62-.51,1.12-1.13,1.12h-2.88c-.66,0-1.19-.53-1.19-1.19h0v-7.69c0-.3-.25-.55-.55-.55h-8.17c-.3,0-.54.24-.54.54v8.05c0,.46-.38.84-.84.84h-3.37c-.5,0-.9-.4-.9-.9v-21.37c0-.4.33-.73.73-.73h3.64c.41,0,.74.33.74.74h0v7.72c0,.18.14.32.32.32h8.65c.17,0,.31-.13.31-.3h0v-7.64c0-.47.38-.86.85-.86h3.55c.43,0,.77.34.77.77h0v9.24c0,.36.29.65.65.65.09,0,.17-.02.25-.05l2.57-1.08c.09-.04.13-.15.09-.24-.02-.04-.05-.07-.09-.09-1.32-.55-1.54-1.75-.66-3.61.51-1.07,1.02-1.65,1.53-1.73.77-.11,1.36-.43,1.78-.95.72-.9,1.43-1.41,2.14-1.52.2-.03.39.1.43.3.02.09,0,.19-.06.27l-1.35,2.04c-.07.09-.05.21.04.28.09.07.21.05.28-.04ZM271.71,84.09c-.14-.02-.34.48-.43,1.13h0c-.1.64-.06,1.18.08,1.21.14.02.34-.48.43-1.13h0c.1-.64.06-1.18-.08-1.21ZM275.56,84.95h-.54c-.33,0-.59.25-.61.57-.03.61-.32,1.14-.87,1.59-.16.12-.18.35-.06.51.05.06.11.1.19.12.38.1.75.05,1.11-.14.16-.09.24-.26.22-.44-.08-.64.17-1.22.74-1.75.11-.09.12-.26.02-.37-.05-.06-.12-.09-.2-.09ZM276.59,86.86c-.17,0-.4.07-.68.22-.16.09-.22.29-.14.45.05.09.14.15.25.16.17.02.42-.08.73-.3.13-.09.17-.27.08-.4-.05-.08-.14-.13-.24-.13ZM271.99,87.52c-.3.17-.51.54-.48.81.02.18.14.28.32.27.3-.01.58-.16.83-.45.12-.14.11-.34-.02-.47-.01-.01-.03-.02-.05-.03-.26-.17-.46-.22-.6-.13Z"/>
  <path d="M160.41,118.42c.21-.29.52-.46.95-.49.37-.02.66-.33.66-.7,0-3.23.06-6.62,4.85-5.13.25.08.42.31.42.57v.61c0,.22-.17.39-.39.39-.06,0-.13-.01-.18-.04-1.64-.87-2.68-.69-3.11.52-.16.46-.2,1.52-.13,3.17.02.35.31.62.66.62h1.51c.27,0,.49.22.49.49h0v.34c0,.22-.18.4-.4.4h-1.78c-.29,0-.52.23-.52.52v5.93c0,.29-.23.52-.51.52h-.31c-.34,0-.62-.28-.62-.63h0v-5.48c0-.36-.24-.68-.58-.79-.35-.11-.56-.16-.64-.15-.23.02-.43-.16-.45-.4,0-.1.02-.19.08-.27Z"/>
  <rect x="171.32" y="111.9" width="1.48" height="14.32" rx=".72" ry=".72"/>
  <path d="M182.82,126.05c-.43-.41-1.18-.38-2.25.1-1.27.57-2.74.09-3.29-1.09-.06-.13-.11-.28-.15-.42-.64-2.67.77-3.87,4.23-3.62.31.02.59-.21.61-.52,0-.09,0-.18-.04-.27l-.29-.69c-.27-.65-1.01-.95-1.66-.68l-1.65.69c-.23.1-.49,0-.59-.24-.01-.02-.02-.05-.03-.08l-.08-.32c-.03-.31.14-.6.43-.72,1.35-.59,2.78-.62,4.31-.09.54.19.9.7.9,1.26v6.5c0,.14-.11.26-.26.26-.07,0-.14-.03-.19-.07ZM181.96,122.99c-.22-.76-1.22-1.14-2.23-.85,0,0,0,0,0,0-1.01.3-1.64,1.15-1.42,1.92.22.76,1.22,1.14,2.23.85,0,0,0,0,0,0,1.01-.3,1.64-1.15,1.42-1.92Z"/>
  <path d="M190.67,126.31c-.23,0-.4-.12-.51-.36-1.13-2.53-2.24-5.05-3.31-7.54-.08-.19,0-.42.19-.5.05-.02.1-.03.15-.03h.38c.3,0,.57.18.69.46l2.02,4.82s.03.06.05.09c.09.12.21.18.36.18s.27-.06.36-.18c.02-.03.04-.06.05-.09l2.08-4.79c.12-.28.39-.46.69-.46h.38c.2.01.37.18.36.39,0,.05-.01.1-.03.15-1.1,2.48-2.23,4.98-3.39,7.5-.11.24-.29.36-.52.36Z"/>
  <path d="M201.39,117.73c2.23.03,4,2,3.96,4.38-.04,2.39-1.87,4.29-4.1,4.26h0c-2.23-.03-4-2-3.96-4.38.04-2.39,1.87-4.29,4.1-4.26h0ZM201.32,119.11c-1.41,0-2.55,1.33-2.54,2.95,0,1.62,1.15,2.94,2.56,2.93h0c1.41,0,2.55-1.33,2.54-2.95,0-1.62-1.15-2.94-2.56-2.93h0Z"/>
  <path d="M210.27,118.07s.06.05.17.12c.22.14.49.16.72.05,1.01-.47,1.99-.6,2.95-.39.29.06.49.31.49.61v.44c0,.24-.19.44-.44.44-.05,0-.1,0-.14-.02-1.04-.35-1.93-.19-2.67.49-.25.23-.39.56-.39.9v4.91c0,.29-.24.53-.54.53h-.36c-.33-.02-.59-.29-.59-.62l.02-6.91c0-.32.26-.58.58-.58.07,0,.13.01.2.03Z"/>
  <path d="M225.43,122.16c.04.93.45,1.73,1.22,2.4.78.67,1.97.63,2.75-.1.37-.35.66-.55.88-.61.39-.09.79.15.88.53.07.27-.03.55-.24.73-2.93,2.41-6.89.99-7.04-2.89-.16-3.88,3.68-5.62,6.79-3.44.33.22.42.67.19,1-.16.23-.45.36-.73.31-.23-.05-.53-.23-.92-.54-.84-.67-2.03-.62-2.76.12-.72.72-1.06,1.55-1.02,2.49Z"/>
  <path d="M238.78,117.71c2.22.06,3.96,2.05,3.9,4.44-.07,2.39-1.92,4.28-4.14,4.22h0c-2.22-.06-3.96-2.05-3.9-4.44.07-2.39,1.92-4.28,4.14-4.22ZM238.68,119.13c-1.4,0-2.54,1.31-2.55,2.93h0c0,1.62,1.13,2.93,2.53,2.93,1.4,0,2.54-1.31,2.55-2.93h0c0-1.62-1.13-2.93-2.53-2.93Z"/>
  <circle cx="247.71" cy="125.18" r="1.16"/>
  <g>
    <path d="M147.81,42.85c-1.01-1.37-2.52-2.59-4.55-3.67-.79-.43-2.38-1.3-4.76-2.61-1.58-.87-3.3-1.46-5.16-1.76.05.07.1.14.15.21l-1.89,2.23,4.2.06c.1,0,.18.09.18.2h0c0,.11-.08.18-.18.18-8.69.01-15.47,3.53-20.36,10.54-.07.1-.21.13-.31.06h-.01c-.11-.08-.14-.23-.07-.33,3.74-6.06,9.14-9.59,16.21-10.6.08-.75.49-1.55,1.22-2.4,0-.09,0-.17-.01-.26-8.79-1.74-17.39,3.07-19.26,11.97-.03.16-.03.33,0,.49l.53,2.23c.03.13-.01.27-.11.36-.15.14-.39.13-.54-.02-1.21-1.41-1.92-2.85-2.11-4.31-.43-3.17-8.74-5.78-11.53-6.34-7.06-1.43-13.38,1.46-18.13,6.54-2.15,2.31-3.65,6.06-6.17,8.77-.07.08-.08.19-.04.29.06.13.22.19.36.13,3.89-1.97,7.87-2.62,11.94-1.95,5.4.9,9.94,6,15.41,3.66.27-.12.52-.28.74-.48,1.72-1.57,2.77-2.43,3.14-2.56,3.73-1.35,6.09.19,8.15,3.4,4.12,6.43,5.09,13.35,2.92,20.76-.24.83-.96,1.44-1.82,1.56-9.28,1.22-12.88,6.39-10.79,15.5.39,1.69-.56,2.7-2.84,3.03-3.62.03-5.99-3.32-8.89-6.47-.03-.03-.07-.06-.11-.09l-4.24-3.1c-.25-.18-.35-.5-.26-.79.07-.21.07-.39.01-.53-.03-.08-.1-.14-.18-.16-.14-.04-.29.04-.33.19-.33,1.21.14,2.27,1.39,3.2l3.36,2.92,5.68,5.38c.37.18.68.41.94.68.05.05.08.11.09.17.04.18-.08.36-.27.4-.41.08-.93,0-1.58-.22l-6.29-2.74c-.9.32-1.76.33-2.59.03-.97.36-2.84,1.33-5.6,2.9-2.55,1.45-5.61,1.64-9.17.57-.3-.09-.56-.27-.76-.51l-4.55-5.51c-.05-.07-.11-.12-.18-.17-1.37-1-3.11-1.21-4.12-2.49-.6-.77-1.35-1.55-2.25-2.35-.03-.03-.06-.04-.1-.02-.05.02-.07.08-.05.13,1.26,2.7,2.86,4.4,4.79,5.1.65.24,1.19.72,1.49,1.34,1.05,2.15,2.56,3.8,4.51,4.95.06.03.1.08.14.13.15.21.1.49-.1.64-1.55,1.17-2.31,2.02-2.26,2.57,0,.12.07.23.18.3.18.11.41.06.52-.12.61-.93,1.37-1.62,2.28-2.05.35-.17.75-.23,1.15-.18,3.61.47,6.08.36,7.41-.33,2.33-1.21,4.77-2.44,7.34-3.7,1.54-.39,2.72-.2,3.55.58l2.82,1.33,3.06,1.52c1.93-.7,3.66-1.79,5.2-3.27.02-.02.06-.03.1-.02l.41.13s.08.03.11.06c.12.11.13.29.02.41-2.05,2.38-4.53,3.75-7.43,4.12-.28.04-.54-.15-.59-.43-.02-.1-.03-.21-.02-.32l-6.14.33c-4.68-.39-5.53,4.22-10.3,4.01-4.59-.2-7.52,1.34-8.43,5.97-.03.11.03.23.14.26.11.04.24-.02.28-.13,1.44-3.57,4.06-5.15,7.87-4.72l.58-.23s.06-.02.1-.02c.14,0,.25.12.24.26,0,.24-.16.42-.48.53-1.38,2.25-1.52,4.68-.43,7.27,1.03,2.43,2.44,3.56,4.81,4.21.93.26,1.77.77,2.43,1.48,2.17,2.31,4.87,4.03,8.1,5.14.09.04.2,0,.24-.1h0c.06-.14,0-.29-.12-.36-3.27-1.66-5.88-3.73-7.85-6.22-.38-.48-.89-.83-1.46-1.02l-2.3-.76c-.3-.09-.57-.25-.79-.47-2.59-2.49-3.37-6.68-.47-9.3.93-.84,1.91-1.51,2.96-2.01,3.21-2.18,4.59-2.5,4.13-.97-2.46,4.36-1.9,8.01,1.67,10.94.24.2.51.36.8.48,3.46,1.47,7.54,3.51,9.31,7.01.06.1.18.14.28.09h.01c.1-.05.15-.16.11-.26-.59-1.55-1.46-2.91-2.6-4.1-.35-.11-.63-.24-.84-.38-.1-.07-.15-.2-.11-.32.05-.15.21-.23.37-.18l.7.23c5.97,5.33,11.64,8.61,19.78,5.48h0c.1-.04.14-.15.11-.24l-.18-.42s-.04-.04-.06-.03c-4.97,1.12-9.56.57-13.77-1.64-1.96-1.03-3.81-3.09-5.1-4.14-.42-.34-.92-.57-1.45-.68-4.67-.96-9.65-1.66-8.72-7.97.34-2.27,1.42-4.01,3.24-5.23,1.55-.54,3.12-.71,4.73-.52.03,0,.07.01.1.03.19.08.29.3.21.49-.46,1.15-.65,2.22-.56,3.21.32,1.63,1.05,2.85,2.19,3.66,2.35,1.66,3.34,2.19,4.38,4.53.79,1.78,2.33,3.65,4,3.76.07,0,.14-.02.18-.08.08-.1.06-.24-.03-.32-1.07-.85-1.94-1.94-2.59-3.28-.03-.07-.04-.14-.03-.21.03-.21.22-.36.42-.33l5.45.73c.62.09,1.21.32,1.72.69,3.91,2.86,7.29,6.58,12.33,5.52.2-.04.41-.02.59.06l1.36.6c.09.05.21.03.28-.05.09-.1.09-.25,0-.34-.67-.72-2.26-1.35-3.4-1.29-3.92.21-6.81-2.98-9.91-5.68-.63-.55-1.4-.9-2.23-1.01l-5.86-.78c-.33-.05-.65-.16-.95-.33-2.67-1.54-4.84-3.3-6.51-5.29l.28-1.85c-1.19-.71-1.15-1.45.12-2.2.2-.11.36-.11.49.01.14.14.16.32.07.53l.3-.42c.06-.09.15-.14.26-.15.2-.02.39.12.41.32.39,3.42,2.37,5.26,5.94,5.53,3.22-.15,5.67-1.2,9.03.24,3.78,1.63,6.07,4.66,11.49,3.11,1.8-.51,3.55-1.11,5.25-1.8.31-.12.64-.17.96-.13,2.2.27,4.61.88,6.11,2.14.55.46.83.69.84.69.06,0,.12-.03.17-.07.12-.11.13-.29.03-.41-1.67-1.87-3.59-2.83-5.78-2.87-.12,0-.22-.08-.27-.19-.07-.16,0-.35.16-.42l3.34-1.37c.27-.15.58-.19.93-.14,1.76-.44,3.41-.22,4.95.67.08.04.17.02.22-.05h.01s0-.01,0-.01c.05-.07.03-.18-.05-.23-3.8-2.54-7.47-1.53-11.52.41-4.68,2.24-9.29,3.73-13.16.85-.14-.1-.21-.26-.19-.43.03-.27.26-.46.53-.44,2.88.27,5.24-.09,7.09-1.07.09-.04.14-.13.12-.23-.02-.11-.13-.18-.24-.15l-9.8.89s-.08-.01-.11-.03c-2.88-1.44-5.89-1.7-9.04-.79l-1.24-.11c-1.21-.35-2.26-1.08-3.15-2.19-.49-3.01.58-5.34,3.21-7,.37-.23.79-.35,1.23-.36,5.1-.06,9.76-.05,12.72-4.7,2.19-3.45,2.49-7.03.92-10.75-.19-.47-.2-.99-.02-1.46.71-1.79,1.21-4.36,1.51-7.69.15-1.66.49-2.73,1.03-3.21,1.83-1.62,4.89-.98,6.8.31,4.94,3.34,10.35,2.59,13.22-2.8.05-.09.04-.2-.03-.27-.08-.1-.23-.1-.32-.02l-1.3,1.07c-.95.78-2.28.92-3.36.34-3.12-1.64-7.88-4.96-11.53-2.23-.08.06-1.03.54-2.85,1.43-.31.16-.58.4-.78.69l-.67,1.02c-.07.11-.19.18-.32.18-.22,0-.39-.17-.4-.38-.19-6.19-2.97-11.36-6.57-16.46-.04-.05-.07-.11-.1-.17-.46-.84-.12-1.91.75-2.39.49-.27.95-.24,1.4.07,3.16,2.24,6.52,3.11,10.08,2.61,2.9-.41,5.03-1.48,6.39-3.19-1.57-.41-3.79-1.66-6.68-3.75-2.08-1.5-4.76-2.03-8.05-1.58-.15.02-.29-.08-.33-.23v-.02c-.03-.14.06-.29.2-.32,1.91-.4,3.32-.45,4.23-.15,3.26,1.05,6.89,2.99,10.88,5.82,3.59-4.39,5.71-7.32,12.27-6.25.07,0,.13,0,.19-.04.12-.08.15-.25.07-.38ZM124.1,35.85c.05-.06.13-.06.18-.02.06.05.06.13.02.19l-3.1,4.7s-.06.06-.1.06c-.07,0-.13-.06-.13-.13-.1-1.53,1.91-3.71,3.13-4.8ZM116.59,41.33c.03-.06.09-.11.16-.13.14-.04.28.05.32.19.03.13-.04.46-.21,1-.08.26-.04.02-.04.46s-.04.21.04.47c.16.54.23.87.2,1-.02.07-.06.13-.13.16-.13.07-.28.02-.35-.1-.18-.34-.27-.85-.26-1.53,0-.68.09-1.19.27-1.52ZM131.87,68.65s-.13,0-.25,0c-.11,0-.21-.07-.25-.17-.06-.14.01-.3.15-.35.22-.09.4-.07.53.07.04.04.06.1.07.16.01.15-.1.28-.25.29ZM135.85,70.29c-.11.14-.31.17-.45.07-.11-.09-.22-.24-.31-.45-.02-.05-.02-.1,0-.14.04-.12.16-.18.28-.15.29.11.47.23.53.37.04.1.02.22-.04.3ZM129.84,66.85c1.83-.57,5.29,1.53,8.14,2.98,0,0,0,0,.01,0,.1.05.13.17.08.26l-.03.05s-.07.06-.12.05l-8.09-3.01c-.05-.02-.09-.06-.11-.11-.03-.09.02-.2.12-.23ZM99.66,40.28c.12-.12,1.01.57,2.01,1.54.99.97,1.7,1.85,1.59,1.97-.12.12-1.01-.57-2.01-1.54-.99-.97-1.7-1.85-1.59-1.97ZM90.13,42.55s0,0,0,0c.27.07.48.17.47.23s-.25.05-.52-.02c0,0,0,0,0,0-.27-.07-.48-.17-.47-.23.02-.06.25-.05.52.02ZM106.21,48.52c-3.27.13-5.77,1.3-7.49,3.5-.22.29-.81,1.04-1.77,2.27-.02.02-.05.03-.07.01-.02-.02-.03-.05-.01-.07.14-.26.57-.59.37-.92-.11-.16-.21-.25-.3-.28-.18-.04-.36,0-.5.11-.53.43-.91.67-1.13.7-.08.01-.15-.02-.2-.08-.06-.09-.04-.21.05-.28,1.62-1.17,3.23-2.38,4.83-3.65,1.75-1.39,3.84-1.97,6.25-1.74.11.01.19.11.18.22,0,.11-.1.2-.21.21ZM111.27,83.69c0-.19.1-.37.26-.47.27-.17.62-.09.79.17.22.37.28.78.18,1.25-.02.11,0,.23.09.31.17.16.34.22.51.18.12-.03.19-.16.16-.28l-.15-.55c-.1-.34-.05-.72.15-1.03.8-1.25,1.75-2.21,2.86-2.88.1-.06.23-.05.32.03.13.1.15.27.05.39-1.71,2.04-4,4.63-2.79,6.63.02.03.03.06.04.09.06.21-.07.42-.28.49-.7.19-1.34.66-1.93,1.42-.03.04-.07.06-.11.06-.08,0-.14-.07-.15-.15v-5.66ZM110.75,89.87s.04-.06.07-.09c.11-.09.26-.07.35.04.24.28.21.65-.09,1.11-.02.04-.06.07-.1.1-.13.08-.3.04-.38-.1-.13-.23-.08-.58.15-1.06ZM109.23,87.66c-1.11.87-1.31,1.96-.6,3.29.12.23.17.49.14.75-.07.51-.22.98-.47,1.42-.07.13-.22.2-.36.17-.19-.03-.32-.21-.29-.4l.81-5.15c-.17-.39-.42-.58-.76-.56-.16.01-.29.14-.28.3,0,.2-.08.3-.23.29-.02,0-.05,0-.07-.01-.15-.04-.23-.2-.19-.35.14-.47.47-.9,1-1.29l1.82-2.59c.08-.1.21-.15.34-.13.19.04.31.22.28.41l-.73,3.21c-.06.25-.2.48-.41.64ZM111.36,95.62c-.17.25-.36.4-.57.43-.17.03-.34-.03-.45-.15-.18-.2-.16-.5.04-.68,1.15-1.04,1.93-1.98,2.34-2.82.08-.16.22-.28.38-.35.37-.14.7-.13,1.01.03.04.02.08.05.1.08.11.13.08.33-.05.44-1.05.8-1.98,1.81-2.8,3.02ZM116.4,94.22c-.33.23-.67.43-1.04.62-.37.19-.74.35-1.11.48-.05.02-.11,0-.14-.04-.05-.05-.04-.14.01-.18.31-.27.65-.5,1.02-.69.38-.19.77-.34,1.16-.43.07-.03.14,0,.17.07.03.07,0,.14-.07.17ZM119.35,92.64c-.03.07-.66.41-1.9,1-.04.02-.09.02-.13,0-.08-.03-.12-.12-.09-.21.05-.13.58-.54,1.58-1.23.1-.07.23-.08.34-.04.18.07.27.28.2.47ZM119.85,90.55c-.11.16-.28.28-.47.33-1.01.25-2.21.88-3.6,1.89-.15.1-.34.12-.5.06-.28-.11-.42-.42-.31-.7.09-.23.29-.4.6-.52,1.51-.61,2.82-1.38,3.93-2.33.04-.03.08-.06.13-.07.18-.05.37.06.42.24.11.37.04.74-.2,1.1ZM113.22,91.05c-.16.04-.32-.04-.38-.18l-.14-.34s0,0,0-.01c-.06-.16.02-.34.18-.4,2.29-.84,3.83-1.43,4.64-1.77.92-.39,2.06-1.52,3.43-3.37.04-.06.1-.09.17-.1.13-.01.25.09.27.23.22,3.3-5.55,5.31-8.17,5.94ZM121.37,78.55c-.44,2-1.76,4.39-2.34,6.49-.09.33-.27.62-.52.84-.99.9-1.8,1.5-2.45,1.79-.35.15-.76.1-1.06-.14-.44-.36-.5-1-.14-1.44,2.37-2.81,4.02-5.91,4.71-9.7,1.84-9.97-.87-18.42-8.14-25.34-3.97-3.79-12.16-8.61-17.64-5.73-1.85.98-4.11,2.99-6.77,6.03,0,0,0,0,0,0-.04.06-.13.07-.19.02-.07-.06-.09-.16-.04-.24,1.88-2.75,4.01-4.76,6.39-6.03.13-.06.2-.2.18-.34-.03-.18-.2-.3-.38-.28-4.84.56-9.22,2.41-13.13,5.56,0,0,0,0,0,0-.09.08-.23.06-.31-.03l-.04-.04c-.11-.13-.1-.32.03-.43,5.13-4.5,11.23-6.49,18.29-5.97,1.96.15,3.25.93,4.95.98.32.01.64.08.94.21,13.64,5.77,20.9,19.13,17.66,33.79ZM126.62,51.55s.01.01.02.02c.11.12.11.31-.02.43h-.01s0,.01,0,.01c-.12.1-.29.09-.39-.02-2.25-2.61-5.03-4.04-8.33-4.31-.05-.01-.1-.05-.11-.1-.02-.08.02-.16.1-.19,3.66-.54,6.07,1.74,8.74,4.16ZM137.71,45.23l-.04.05s-.1.05-.15.02l-8.23-5.45s-.08-.09-.09-.15c-.01-.12.07-.22.19-.23,2.19-.16,5.49,3.08,8.29,5.44,0,0,0,0,0,0,.1.08.11.23.03.32Z"/>
    <path d="M81.08,93.87h2.67l5.45-1.96c.12-.19.38-.33.77-.42.1-.02.18-.08.22-.17.09-.16.03-.37-.13-.46-.21-.11-.51-.18-.9-.2-4.04.42-5.7,3.59-10.21,1.2-1.31-.69-2.73-1.35-4.27-2-.12-.08-.28-.04-.36.08-.08.12-.04.28.08.36,1.93,1.75,4.15,2.94,6.68,3.57Z"/>
  </g>
</svg>